G04 #@! TF.GenerationSoftware,KiCad,Pcbnew,5.99.0-unknown-d30fc811a7~130~ubuntu20.10.1*
G04 #@! TF.CreationDate,2021-06-23T23:23:33+02:00*
G04 #@! TF.ProjectId,carabiner,63617261-6269-46e6-9572-2e6b69636164,rev?*
G04 #@! TF.SameCoordinates,Original*
G04 #@! TF.FileFunction,Copper,L2,Bot*
G04 #@! TF.FilePolarity,Positive*
%FSLAX46Y46*%
G04 Gerber Fmt 4.6, Leading zero omitted, Abs format (unit mm)*
G04 Created by KiCad (PCBNEW 5.99.0-unknown-d30fc811a7~130~ubuntu20.10.1) date 2021-06-23 23:23:33*
%MOMM*%
%LPD*%
G01*
G04 APERTURE LIST*
G04 Aperture macros list*
%AMRoundRect*
0 Rectangle with rounded corners*
0 $1 Rounding radius*
0 $2 $3 $4 $5 $6 $7 $8 $9 X,Y pos of 4 corners*
0 Add a 4 corners polygon primitive as box body*
4,1,4,$2,$3,$4,$5,$6,$7,$8,$9,$2,$3,0*
0 Add four circle primitives for the rounded corners*
1,1,$1+$1,$2,$3*
1,1,$1+$1,$4,$5*
1,1,$1+$1,$6,$7*
1,1,$1+$1,$8,$9*
0 Add four rect primitives between the rounded corners*
20,1,$1+$1,$2,$3,$4,$5,0*
20,1,$1+$1,$4,$5,$6,$7,0*
20,1,$1+$1,$6,$7,$8,$9,0*
20,1,$1+$1,$8,$9,$2,$3,0*%
%AMFreePoly0*
4,1,6,1.000000,0.000000,0.500000,-0.750000,-0.500000,-0.750000,-0.500000,0.750000,0.500000,0.750000,1.000000,0.000000,1.000000,0.000000,$1*%
%AMFreePoly1*
4,1,6,0.500000,-0.750000,-0.650000,-0.750000,-0.150000,0.000000,-0.650000,0.750000,0.500000,0.750000,0.500000,-0.750000,0.500000,-0.750000,$1*%
G04 Aperture macros list end*
G04 #@! TA.AperFunction,SMDPad,CuDef*
%ADD10FreePoly0,270.000000*%
G04 #@! TD*
G04 #@! TA.AperFunction,SMDPad,CuDef*
%ADD11FreePoly1,270.000000*%
G04 #@! TD*
G04 #@! TA.AperFunction,ComponentPad*
%ADD12O,1.500000X2.020000*%
G04 #@! TD*
G04 #@! TA.AperFunction,ComponentPad*
%ADD13RoundRect,0.250001X-0.499999X-0.759999X0.499999X-0.759999X0.499999X0.759999X-0.499999X0.759999X0*%
G04 #@! TD*
G04 #@! TA.AperFunction,ComponentPad*
%ADD14C,1.500000*%
G04 #@! TD*
G04 #@! TA.AperFunction,ComponentPad*
%ADD15RoundRect,0.250001X-0.499999X-0.499999X0.499999X-0.499999X0.499999X0.499999X-0.499999X0.499999X0*%
G04 #@! TD*
G04 #@! TA.AperFunction,ComponentPad*
%ADD16C,3.410000*%
G04 #@! TD*
G04 #@! TA.AperFunction,SMDPad,CuDef*
%ADD17FreePoly0,180.000000*%
G04 #@! TD*
G04 #@! TA.AperFunction,SMDPad,CuDef*
%ADD18FreePoly1,180.000000*%
G04 #@! TD*
G04 #@! TA.AperFunction,SMDPad,CuDef*
%ADD19FreePoly0,0.000000*%
G04 #@! TD*
G04 #@! TA.AperFunction,SMDPad,CuDef*
%ADD20FreePoly1,0.000000*%
G04 #@! TD*
G04 #@! TA.AperFunction,ComponentPad*
%ADD21RoundRect,0.284375X-0.590625X0.528125X-0.590625X-0.528125X0.590625X-0.528125X0.590625X0.528125X0*%
G04 #@! TD*
G04 #@! TA.AperFunction,ComponentPad*
%ADD22RoundRect,0.250000X-0.750000X0.600000X-0.750000X-0.600000X0.750000X-0.600000X0.750000X0.600000X0*%
G04 #@! TD*
G04 #@! TA.AperFunction,ComponentPad*
%ADD23O,2.000000X1.700000*%
G04 #@! TD*
G04 #@! TA.AperFunction,ComponentPad*
%ADD24RoundRect,0.250000X-0.600000X-0.750000X0.600000X-0.750000X0.600000X0.750000X-0.600000X0.750000X0*%
G04 #@! TD*
G04 #@! TA.AperFunction,ComponentPad*
%ADD25O,1.700000X2.000000*%
G04 #@! TD*
G04 #@! TA.AperFunction,ComponentPad*
%ADD26O,1.950000X1.700000*%
G04 #@! TD*
G04 #@! TA.AperFunction,ComponentPad*
%ADD27RoundRect,0.250000X-0.725000X0.600000X-0.725000X-0.600000X0.725000X-0.600000X0.725000X0.600000X0*%
G04 #@! TD*
G04 #@! TA.AperFunction,ComponentPad*
%ADD28O,2.020000X1.500000*%
G04 #@! TD*
G04 #@! TA.AperFunction,ComponentPad*
%ADD29RoundRect,0.250001X-0.759999X0.499999X-0.759999X-0.499999X0.759999X-0.499999X0.759999X0.499999X0*%
G04 #@! TD*
G04 #@! TA.AperFunction,ComponentPad*
%ADD30C,5.600000*%
G04 #@! TD*
G04 #@! TA.AperFunction,ComponentPad*
%ADD31O,1.600000X1.600000*%
G04 #@! TD*
G04 #@! TA.AperFunction,ComponentPad*
%ADD32R,1.600000X1.600000*%
G04 #@! TD*
G04 #@! TA.AperFunction,ViaPad*
%ADD33C,0.800000*%
G04 #@! TD*
G04 #@! TA.AperFunction,Conductor*
%ADD34C,2.000000*%
G04 #@! TD*
G04 #@! TA.AperFunction,Conductor*
%ADD35C,0.300000*%
G04 #@! TD*
G04 #@! TA.AperFunction,Conductor*
%ADD36C,0.500000*%
G04 #@! TD*
G04 #@! TA.AperFunction,Conductor*
%ADD37C,0.800000*%
G04 #@! TD*
G04 #@! TA.AperFunction,Conductor*
%ADD38C,0.600000*%
G04 #@! TD*
G04 #@! TA.AperFunction,Conductor*
%ADD39C,0.250000*%
G04 #@! TD*
G04 APERTURE END LIST*
D10*
X64100000Y-49325000D03*
D11*
X64100000Y-50775000D03*
D12*
X72850000Y-51500000D03*
D13*
X69850000Y-51500000D03*
D14*
X64950000Y-65100000D03*
D15*
X64950000Y-62100000D03*
D14*
X75630000Y-45550000D03*
X72630000Y-45550000D03*
X69630000Y-45550000D03*
X66630000Y-45550000D03*
X63630000Y-45550000D03*
X60630000Y-45550000D03*
X57630000Y-45550000D03*
X54630000Y-45550000D03*
X75630000Y-42550000D03*
X72630000Y-42550000D03*
X69630000Y-42550000D03*
X66630000Y-42550000D03*
X63630000Y-42550000D03*
X60630000Y-42550000D03*
X57630000Y-42550000D03*
D15*
X54630000Y-42550000D03*
D16*
X77780000Y-38230000D03*
X52480000Y-38230000D03*
D17*
X58025000Y-55250000D03*
D18*
X56575000Y-55250000D03*
D19*
X51825000Y-55250000D03*
D20*
X53275000Y-55250000D03*
D19*
X60125000Y-50150000D03*
D20*
X61575000Y-50150000D03*
D14*
X75650000Y-45550000D03*
X72650000Y-45550000D03*
X69650000Y-45550000D03*
X66650000Y-45550000D03*
X63650000Y-45550000D03*
X60650000Y-45550000D03*
X57650000Y-45550000D03*
X54650000Y-45550000D03*
X75650000Y-42550000D03*
X72650000Y-42550000D03*
X69650000Y-42550000D03*
X66650000Y-42550000D03*
X63650000Y-42550000D03*
X60650000Y-42550000D03*
X57650000Y-42550000D03*
D15*
X54650000Y-42550000D03*
D21*
X81100000Y-35412500D03*
X81100000Y-37987500D03*
D14*
X75630000Y-45550000D03*
X72630000Y-45550000D03*
X69630000Y-45550000D03*
X66630000Y-45550000D03*
X63630000Y-45550000D03*
X60630000Y-45550000D03*
X57630000Y-45550000D03*
X54630000Y-45550000D03*
X75630000Y-42550000D03*
X72630000Y-42550000D03*
X69630000Y-42550000D03*
X66630000Y-42550000D03*
X63630000Y-42550000D03*
X60630000Y-42550000D03*
X57630000Y-42550000D03*
D15*
X54630000Y-42550000D03*
D22*
X64950000Y-62100000D03*
D23*
X64950000Y-64600000D03*
D24*
X69850000Y-51500000D03*
D25*
X72350000Y-51500000D03*
D26*
X72400000Y-66000000D03*
X72400000Y-63500000D03*
X72400000Y-61000000D03*
D27*
X72400000Y-58500000D03*
D26*
X79400000Y-66000000D03*
X79400000Y-63500000D03*
X79400000Y-61000000D03*
D27*
X79400000Y-58500000D03*
D25*
X56250000Y-58800000D03*
D24*
X53750000Y-58800000D03*
D25*
X56200000Y-51700000D03*
D24*
X53700000Y-51700000D03*
D10*
X81100000Y-43175000D03*
D11*
X81100000Y-44625000D03*
D23*
X63150000Y-55350000D03*
D22*
X63150000Y-52850000D03*
D28*
X64950000Y-65150000D03*
D29*
X64950000Y-62150000D03*
D30*
X79700000Y-51900000D03*
X54050000Y-66050000D03*
D31*
X81100000Y-40300000D03*
D32*
X81100000Y-47920000D03*
D33*
X51825000Y-55250000D03*
D34*
X64950000Y-62100000D02*
X64700000Y-62100000D01*
D35*
X81100000Y-35212500D02*
X73687500Y-35212500D01*
X73687500Y-35212500D02*
X71400000Y-37500000D01*
X56100000Y-41100000D02*
X54650000Y-42550000D01*
X71400000Y-37500000D02*
X71400000Y-39000000D01*
X71400000Y-39000000D02*
X69300000Y-41100000D01*
X69300000Y-41100000D02*
X56100000Y-41100000D01*
X74650020Y-59750020D02*
X78400000Y-63500000D01*
X78400000Y-63500000D02*
X79400000Y-63500000D01*
X73950010Y-46850010D02*
X73950010Y-56649970D01*
X72650000Y-45550000D02*
X73950010Y-46850010D01*
X73950010Y-59050010D02*
X74650020Y-59750020D01*
X73950010Y-56649970D02*
X73950010Y-59050010D01*
D36*
X66650000Y-42550000D02*
X65300000Y-43900000D01*
X65300000Y-48600000D02*
X65500000Y-48800000D01*
X65300000Y-43900000D02*
X65300000Y-48600000D01*
X65500000Y-55400000D02*
X68400000Y-58300000D01*
X65500000Y-48800000D02*
X65500000Y-55400000D01*
X68400000Y-62000000D02*
X72400000Y-66000000D01*
X68400000Y-58300000D02*
X68400000Y-62000000D01*
D37*
X72525000Y-61000000D02*
X72400000Y-61000000D01*
D36*
X72400000Y-60814966D02*
X72400000Y-61000000D01*
D37*
X72400000Y-61000000D02*
X72275000Y-61000000D01*
D36*
X66650000Y-46700000D02*
X68200000Y-48250000D01*
X66650000Y-45550000D02*
X66650000Y-46700000D01*
X68200000Y-56400000D02*
X70300000Y-58500000D01*
X68200000Y-48250000D02*
X68200000Y-56400000D01*
X70300000Y-58500000D02*
X72400000Y-58500000D01*
D38*
X65550000Y-64200000D02*
X65400000Y-64200000D01*
D35*
X76275000Y-43175000D02*
X75650000Y-42550000D01*
X81100000Y-43175000D02*
X76275000Y-43175000D01*
X81100000Y-43175000D02*
X81100000Y-40300000D01*
X81100000Y-44625000D02*
X81100000Y-47920000D01*
X79400000Y-57035760D02*
X79400000Y-58500000D01*
X75950030Y-53585790D02*
X79400000Y-57035760D01*
X75950030Y-50987968D02*
X75950030Y-53585790D01*
X79017998Y-47920000D02*
X75950030Y-50987968D01*
X81100000Y-47920000D02*
X79017998Y-47920000D01*
D39*
X79400000Y-61000000D02*
X79400000Y-60638190D01*
D35*
X75450000Y-45750000D02*
X75650000Y-45550000D01*
X79400000Y-61000000D02*
X78125000Y-61000000D01*
X74450020Y-58842900D02*
X76607120Y-61000000D01*
X74450020Y-47900000D02*
X74450020Y-58842900D01*
X75650000Y-46700020D02*
X74450020Y-47900000D01*
X76607120Y-61000000D02*
X79400000Y-61000000D01*
X75650000Y-45550000D02*
X75650000Y-46700020D01*
D38*
X62750000Y-52700000D02*
X63750000Y-52700000D01*
D36*
X62700000Y-52400000D02*
X63150000Y-52850000D01*
X62775000Y-50775000D02*
X62700000Y-50700000D01*
X64100000Y-50775000D02*
X62775000Y-50775000D01*
X62700000Y-50700000D02*
X62700000Y-52400000D01*
X62700000Y-50100000D02*
X62700000Y-50700000D01*
X62700000Y-50100000D02*
X61625000Y-50100000D01*
D38*
X55200000Y-53200000D02*
X53700000Y-51700000D01*
X55200000Y-57350000D02*
X53750000Y-58800000D01*
X55200000Y-55400000D02*
X55200000Y-57350000D01*
D36*
X54900000Y-55250000D02*
X55200000Y-54950000D01*
X53275000Y-55250000D02*
X54900000Y-55250000D01*
D38*
X55200000Y-54950000D02*
X55200000Y-53200000D01*
X55200000Y-55400000D02*
X55200000Y-54950000D01*
D36*
X55500000Y-55250000D02*
X55200000Y-54950000D01*
X56575000Y-55250000D02*
X55500000Y-55250000D01*
X63680000Y-48600000D02*
X63680000Y-48905000D01*
X63680000Y-48905000D02*
X64100000Y-49325000D01*
X60630000Y-45550000D02*
X63680000Y-48600000D01*
G04 #@! TA.AperFunction,NonConductor*
G36*
X79659281Y-35891002D02*
G01*
X79705774Y-35944658D01*
X79715801Y-35985278D01*
X79716500Y-35985200D01*
X79722339Y-36037251D01*
X79731328Y-36117393D01*
X79733643Y-36124041D01*
X79776864Y-36248155D01*
X79789825Y-36285375D01*
X79793556Y-36291345D01*
X79793556Y-36291346D01*
X79837552Y-36361754D01*
X79884086Y-36436223D01*
X79889049Y-36441221D01*
X79889050Y-36441222D01*
X79899057Y-36451299D01*
X80009423Y-36562439D01*
X80015368Y-36566212D01*
X80015372Y-36566215D01*
X80058325Y-36593473D01*
X80105124Y-36646862D01*
X80115630Y-36717077D01*
X80086507Y-36781825D01*
X80057583Y-36806712D01*
X80022945Y-36828357D01*
X80013777Y-36834086D01*
X79887561Y-36959423D01*
X79883787Y-36965370D01*
X79883783Y-36965375D01*
X79848075Y-37021641D01*
X79794686Y-37068440D01*
X79724471Y-37078945D01*
X79659723Y-37049821D01*
X79637478Y-37024949D01*
X79530555Y-36867616D01*
X79530548Y-36867607D01*
X79528202Y-36864155D01*
X79332203Y-36644942D01*
X79240351Y-36566215D01*
X79112108Y-36456297D01*
X79112104Y-36456294D01*
X79108934Y-36453577D01*
X79105432Y-36451303D01*
X79105427Y-36451299D01*
X78865827Y-36295701D01*
X78865822Y-36295698D01*
X78862317Y-36293422D01*
X78831372Y-36278728D01*
X78723548Y-36227530D01*
X78596684Y-36167291D01*
X78592701Y-36166012D01*
X78592698Y-36166011D01*
X78439947Y-36116968D01*
X78381202Y-36077099D01*
X78353337Y-36011800D01*
X78365200Y-35941801D01*
X78413023Y-35889328D01*
X78478465Y-35871000D01*
X79591160Y-35871000D01*
X79659281Y-35891002D01*
G37*
G04 #@! TD.AperFunction*
G04 #@! TA.AperFunction,NonConductor*
G36*
X77141579Y-35891002D02*
G01*
X77188072Y-35944658D01*
X77198176Y-36014932D01*
X77168682Y-36079512D01*
X77116965Y-36115250D01*
X76881579Y-36201855D01*
X76881576Y-36201856D01*
X76877655Y-36203299D01*
X76873962Y-36205246D01*
X76873960Y-36205247D01*
X76663330Y-36316300D01*
X76617537Y-36340444D01*
X76377843Y-36510786D01*
X76289172Y-36593473D01*
X76232537Y-36646286D01*
X76162783Y-36711332D01*
X75976136Y-36938560D01*
X75973930Y-36942117D01*
X75973927Y-36942122D01*
X75899379Y-37062357D01*
X75821181Y-37188477D01*
X75700640Y-37456693D01*
X75677434Y-37534538D01*
X75649821Y-37627163D01*
X75611191Y-37686730D01*
X75546489Y-37715956D01*
X75476258Y-37705563D01*
X75422794Y-37658849D01*
X75410671Y-37634261D01*
X75333604Y-37422521D01*
X75329424Y-37411036D01*
X75327356Y-37407146D01*
X75327353Y-37407140D01*
X75199615Y-37166900D01*
X75199611Y-37166894D01*
X75197545Y-37163008D01*
X75192446Y-37155989D01*
X75035019Y-36939310D01*
X75035017Y-36939307D01*
X75032430Y-36935747D01*
X74966631Y-36867610D01*
X74840348Y-36736840D01*
X74840344Y-36736837D01*
X74837294Y-36733678D01*
X74833830Y-36730972D01*
X74833826Y-36730968D01*
X74619401Y-36563441D01*
X74619402Y-36563441D01*
X74615935Y-36560733D01*
X74410566Y-36442163D01*
X74376480Y-36422483D01*
X74376475Y-36422480D01*
X74372660Y-36420278D01*
X74368576Y-36418628D01*
X74368570Y-36418625D01*
X74116287Y-36316697D01*
X74112206Y-36315048D01*
X73851240Y-36249982D01*
X73789984Y-36214096D01*
X73757852Y-36150786D01*
X73765049Y-36080155D01*
X73792629Y-36038631D01*
X73923355Y-35907905D01*
X73985667Y-35873879D01*
X74012450Y-35871000D01*
X77073458Y-35871000D01*
X77141579Y-35891002D01*
G37*
G04 #@! TD.AperFunction*
G04 #@! TA.AperFunction,NonConductor*
G36*
X73219794Y-34528002D02*
G01*
X73266287Y-34581658D01*
X73276391Y-34651932D01*
X73246897Y-34716512D01*
X73239134Y-34724593D01*
X73233303Y-34728829D01*
X73216220Y-34749479D01*
X73205428Y-34762524D01*
X73197438Y-34771303D01*
X70990647Y-36978094D01*
X70983192Y-36984878D01*
X70977069Y-36988764D01*
X70971644Y-36994541D01*
X70933597Y-37035057D01*
X70930842Y-37037899D01*
X70906384Y-37062357D01*
X70902538Y-37067315D01*
X70894836Y-37076333D01*
X70868646Y-37104222D01*
X70868644Y-37104225D01*
X70863217Y-37110004D01*
X70859398Y-37116951D01*
X70859395Y-37116955D01*
X70852889Y-37128790D01*
X70842032Y-37145318D01*
X70828897Y-37162251D01*
X70810553Y-37204641D01*
X70805343Y-37215278D01*
X70783093Y-37255749D01*
X70781121Y-37263430D01*
X70777761Y-37276514D01*
X70771358Y-37295217D01*
X70762845Y-37314890D01*
X70761605Y-37322720D01*
X70761603Y-37322726D01*
X70755620Y-37360498D01*
X70753214Y-37372118D01*
X70743209Y-37411086D01*
X70743208Y-37411092D01*
X70741732Y-37416841D01*
X70741500Y-37420528D01*
X70741500Y-37439737D01*
X70739949Y-37459447D01*
X70736827Y-37479159D01*
X70737573Y-37487051D01*
X70740941Y-37522680D01*
X70741500Y-37534538D01*
X70741500Y-38675050D01*
X70721498Y-38743171D01*
X70704595Y-38764145D01*
X69064146Y-40404595D01*
X69001834Y-40438620D01*
X68975051Y-40441500D01*
X57249003Y-40441500D01*
X57180882Y-40421498D01*
X57134389Y-40367842D01*
X57124285Y-40297568D01*
X57153779Y-40232988D01*
X57218521Y-40193243D01*
X57407935Y-40146017D01*
X57407937Y-40146016D01*
X57412206Y-40144952D01*
X57527808Y-40098246D01*
X57668570Y-40041375D01*
X57668576Y-40041372D01*
X57672660Y-40039722D01*
X57676475Y-40037520D01*
X57676480Y-40037517D01*
X57791198Y-39971284D01*
X57915935Y-39899267D01*
X57978025Y-39850757D01*
X58133826Y-39729032D01*
X58133830Y-39729028D01*
X58137294Y-39726322D01*
X58179530Y-39682586D01*
X58329372Y-39527420D01*
X58329374Y-39527417D01*
X58332430Y-39524253D01*
X58338219Y-39516285D01*
X58494956Y-39300556D01*
X58494958Y-39300552D01*
X58497545Y-39296992D01*
X58499611Y-39293106D01*
X58499615Y-39293100D01*
X58627353Y-39052860D01*
X58627356Y-39052854D01*
X58629424Y-39048964D01*
X58675391Y-38922672D01*
X58723996Y-38789129D01*
X58723997Y-38789125D01*
X58725500Y-38784996D01*
X58783905Y-38510225D01*
X58803500Y-38230000D01*
X58783905Y-37949775D01*
X58725500Y-37675004D01*
X58719620Y-37658849D01*
X58630933Y-37415181D01*
X58630931Y-37415177D01*
X58629424Y-37411036D01*
X58627356Y-37407146D01*
X58627353Y-37407140D01*
X58499615Y-37166900D01*
X58499611Y-37166894D01*
X58497545Y-37163008D01*
X58492446Y-37155989D01*
X58335019Y-36939310D01*
X58335017Y-36939307D01*
X58332430Y-36935747D01*
X58266631Y-36867610D01*
X58140348Y-36736840D01*
X58140344Y-36736837D01*
X58137294Y-36733678D01*
X58133830Y-36730972D01*
X58133826Y-36730968D01*
X57919401Y-36563441D01*
X57919402Y-36563441D01*
X57915935Y-36560733D01*
X57710566Y-36442163D01*
X57676480Y-36422483D01*
X57676475Y-36422480D01*
X57672660Y-36420278D01*
X57668576Y-36418628D01*
X57668570Y-36418625D01*
X57416287Y-36316697D01*
X57412206Y-36315048D01*
X57334610Y-36295701D01*
X57143912Y-36248155D01*
X57143914Y-36248155D01*
X57139641Y-36247090D01*
X57135273Y-36246631D01*
X57135268Y-36246630D01*
X56864639Y-36218186D01*
X56864636Y-36218186D01*
X56860270Y-36217727D01*
X56855882Y-36217880D01*
X56855876Y-36217880D01*
X56583929Y-36227376D01*
X56583922Y-36227377D01*
X56579532Y-36227530D01*
X56575208Y-36228293D01*
X56575203Y-36228293D01*
X56462563Y-36248155D01*
X56302890Y-36276310D01*
X56035730Y-36363115D01*
X56031777Y-36365043D01*
X56031772Y-36365045D01*
X55921918Y-36418625D01*
X55783250Y-36486258D01*
X55779611Y-36488713D01*
X55779605Y-36488716D01*
X55650328Y-36575915D01*
X55550366Y-36643340D01*
X55341609Y-36831305D01*
X55264747Y-36922906D01*
X55163872Y-37043123D01*
X55163868Y-37043128D01*
X55161044Y-37046494D01*
X55012185Y-37284719D01*
X54897929Y-37541342D01*
X54896717Y-37545569D01*
X54864992Y-37656207D01*
X54826988Y-37716176D01*
X54762596Y-37746078D01*
X54692259Y-37736421D01*
X54638310Y-37690269D01*
X54622281Y-37654514D01*
X54621716Y-37652435D01*
X54620889Y-37648333D01*
X54525153Y-37370297D01*
X54393487Y-37107364D01*
X54228202Y-36864155D01*
X54032203Y-36644942D01*
X53940351Y-36566215D01*
X53812108Y-36456297D01*
X53812104Y-36456294D01*
X53808934Y-36453577D01*
X53805432Y-36451303D01*
X53805427Y-36451299D01*
X53565827Y-36295701D01*
X53565822Y-36295698D01*
X53562317Y-36293422D01*
X53531372Y-36278728D01*
X53423548Y-36227530D01*
X53296684Y-36167291D01*
X53292701Y-36166012D01*
X53292698Y-36166011D01*
X53097086Y-36103207D01*
X53016704Y-36077399D01*
X52727294Y-36025326D01*
X52564184Y-36017919D01*
X52437709Y-36012176D01*
X52437704Y-36012176D01*
X52433539Y-36011987D01*
X52429391Y-36012350D01*
X52429386Y-36012350D01*
X52311603Y-36022655D01*
X52140601Y-36037615D01*
X51962618Y-36077399D01*
X51857713Y-36100848D01*
X51857710Y-36100849D01*
X51853625Y-36101762D01*
X51849700Y-36103206D01*
X51849697Y-36103207D01*
X51812296Y-36116968D01*
X51577655Y-36203299D01*
X51573962Y-36205246D01*
X51573960Y-36205247D01*
X51363330Y-36316300D01*
X51317537Y-36340444D01*
X51314125Y-36342869D01*
X51206990Y-36419006D01*
X51139876Y-36442163D01*
X51070896Y-36425359D01*
X51021952Y-36373930D01*
X51008000Y-36316300D01*
X51008000Y-35551870D01*
X51009746Y-35530964D01*
X51012041Y-35517326D01*
X51012041Y-35517323D01*
X51012847Y-35512534D01*
X51012979Y-35501683D01*
X51013067Y-35498289D01*
X51013317Y-35491944D01*
X51015751Y-35429984D01*
X51017205Y-35415223D01*
X51038720Y-35279381D01*
X51043334Y-35260162D01*
X51085067Y-35131722D01*
X51092633Y-35113457D01*
X51153941Y-34993131D01*
X51164272Y-34976272D01*
X51243652Y-34867015D01*
X51256493Y-34851981D01*
X51351981Y-34756493D01*
X51367015Y-34743652D01*
X51411585Y-34711270D01*
X51476275Y-34664270D01*
X51493128Y-34653943D01*
X51591993Y-34603569D01*
X51613457Y-34592633D01*
X51631722Y-34585067D01*
X51642214Y-34581658D01*
X51760162Y-34543334D01*
X51779378Y-34538721D01*
X51915227Y-34517205D01*
X51929984Y-34515751D01*
X52000001Y-34513000D01*
X52000001Y-34511536D01*
X52021017Y-34508289D01*
X52041733Y-34508669D01*
X52054834Y-34508909D01*
X52054836Y-34508909D01*
X52063408Y-34509066D01*
X52066679Y-34508174D01*
X52069488Y-34508000D01*
X73151673Y-34508000D01*
X73219794Y-34528002D01*
G37*
G04 #@! TD.AperFunction*
G04 #@! TA.AperFunction,NonConductor*
G36*
X82029864Y-41336208D02*
G01*
X82078448Y-41387978D01*
X82092000Y-41444824D01*
X82092000Y-42050882D01*
X82071998Y-42119003D01*
X82018342Y-42165496D01*
X81948068Y-42175599D01*
X81866568Y-42163881D01*
X81801987Y-42134388D01*
X81763604Y-42074662D01*
X81758500Y-42039164D01*
X81758500Y-41501891D01*
X81778502Y-41433770D01*
X81812229Y-41398678D01*
X81893729Y-41341611D01*
X81961003Y-41318923D01*
X82029864Y-41336208D01*
G37*
G04 #@! TD.AperFunction*
G04 #@! TA.AperFunction,NonConductor*
G36*
X65481234Y-41778502D02*
G01*
X65527727Y-41832158D01*
X65537831Y-41902432D01*
X65519851Y-41951453D01*
X65504213Y-41976383D01*
X65420427Y-42184808D01*
X65374874Y-42404777D01*
X65368993Y-42629336D01*
X65369842Y-42634882D01*
X65376464Y-42678155D01*
X65366997Y-42748517D01*
X65341009Y-42786310D01*
X65053608Y-43073711D01*
X64991296Y-43107737D01*
X64920481Y-43102672D01*
X64863645Y-43060125D01*
X64838834Y-42993605D01*
X64844885Y-42945053D01*
X64878354Y-42843852D01*
X64878354Y-42843851D01*
X64880117Y-42838521D01*
X64911768Y-42616126D01*
X64913500Y-42550000D01*
X64893531Y-42326253D01*
X64834256Y-42109579D01*
X64817602Y-42074662D01*
X64752772Y-41938744D01*
X64741499Y-41868648D01*
X64769912Y-41803585D01*
X64828991Y-41764212D01*
X64866498Y-41758500D01*
X65413113Y-41758500D01*
X65481234Y-41778502D01*
G37*
G04 #@! TD.AperFunction*
G04 #@! TA.AperFunction,NonConductor*
G36*
X56438862Y-41796564D02*
G01*
X56495698Y-41839111D01*
X56520509Y-41905631D01*
X56507108Y-41971768D01*
X56504213Y-41976383D01*
X56420427Y-42184808D01*
X56374874Y-42404777D01*
X56368993Y-42629336D01*
X56402972Y-42851387D01*
X56404789Y-42856694D01*
X56471587Y-43051796D01*
X56475735Y-43063912D01*
X56504366Y-43115351D01*
X56507146Y-43120346D01*
X56522799Y-43189596D01*
X56498527Y-43256315D01*
X56442038Y-43299320D01*
X56379120Y-43306343D01*
X56283807Y-43292639D01*
X56283800Y-43292638D01*
X56279359Y-43292000D01*
X56029648Y-43292000D01*
X55961527Y-43271998D01*
X55915034Y-43218342D01*
X55904147Y-43154800D01*
X55908251Y-43108816D01*
X55908251Y-43108806D01*
X55908500Y-43106021D01*
X55908500Y-42274950D01*
X55928502Y-42206829D01*
X55945405Y-42185855D01*
X56305735Y-41825525D01*
X56368047Y-41791499D01*
X56438862Y-41796564D01*
G37*
G04 #@! TD.AperFunction*
G04 #@! TA.AperFunction,NonConductor*
G36*
X54789465Y-38713695D02*
G01*
X54844837Y-38758129D01*
X54862606Y-38795472D01*
X54892811Y-38900808D01*
X54897929Y-38918658D01*
X55012185Y-39175281D01*
X55161044Y-39413506D01*
X55163868Y-39416872D01*
X55163872Y-39416877D01*
X55190074Y-39448103D01*
X55341609Y-39628695D01*
X55550366Y-39816660D01*
X55554012Y-39819119D01*
X55779605Y-39971284D01*
X55779611Y-39971287D01*
X55783250Y-39973742D01*
X55884746Y-40023245D01*
X56031772Y-40094955D01*
X56031777Y-40094957D01*
X56035730Y-40096885D01*
X56302890Y-40183690D01*
X56337192Y-40189738D01*
X56346694Y-40191414D01*
X56410307Y-40222942D01*
X56446776Y-40283856D01*
X56444523Y-40354817D01*
X56404263Y-40413295D01*
X56338779Y-40440724D01*
X56324814Y-40441500D01*
X56179580Y-40441500D01*
X56169516Y-40441026D01*
X56162441Y-40439444D01*
X56098989Y-40441438D01*
X56095031Y-40441500D01*
X56060421Y-40441500D01*
X56056490Y-40441997D01*
X56056484Y-40441997D01*
X56054195Y-40442286D01*
X56042370Y-40443217D01*
X56005886Y-40444364D01*
X55996206Y-40444668D01*
X55988590Y-40446881D01*
X55988588Y-40446881D01*
X55975614Y-40450650D01*
X55956255Y-40454659D01*
X55942859Y-40456351D01*
X55942856Y-40456352D01*
X55934994Y-40457345D01*
X55927628Y-40460262D01*
X55927626Y-40460262D01*
X55892067Y-40474341D01*
X55880836Y-40478186D01*
X55844106Y-40488857D01*
X55844104Y-40488858D01*
X55836493Y-40491069D01*
X55829671Y-40495103D01*
X55829672Y-40495103D01*
X55818035Y-40501985D01*
X55800288Y-40510679D01*
X55780356Y-40518571D01*
X55773941Y-40523232D01*
X55773939Y-40523233D01*
X55742999Y-40545712D01*
X55733077Y-40552230D01*
X55693337Y-40575732D01*
X55690566Y-40578175D01*
X55676986Y-40591755D01*
X55661952Y-40604596D01*
X55652216Y-40611669D01*
X55652213Y-40611672D01*
X55645803Y-40616329D01*
X55640752Y-40622435D01*
X55617928Y-40650024D01*
X55609938Y-40658803D01*
X55014146Y-41254595D01*
X54951834Y-41288621D01*
X54925051Y-41291500D01*
X54087115Y-41291500D01*
X54002519Y-41301363D01*
X53961630Y-41306130D01*
X53961629Y-41306130D01*
X53954358Y-41306978D01*
X53788136Y-41367313D01*
X53716528Y-41414262D01*
X53646374Y-41460257D01*
X53646371Y-41460259D01*
X53640254Y-41464270D01*
X53518642Y-41592646D01*
X53429825Y-41745556D01*
X53378567Y-41914797D01*
X53377992Y-41921237D01*
X53377992Y-41921238D01*
X53372606Y-41981592D01*
X53371500Y-41993979D01*
X53371500Y-43092885D01*
X53374702Y-43120346D01*
X53378323Y-43151409D01*
X53366344Y-43221388D01*
X53318433Y-43273781D01*
X53253171Y-43292000D01*
X52826000Y-43292000D01*
X52718020Y-43303609D01*
X52714736Y-43304323D01*
X52714732Y-43304324D01*
X52689661Y-43309778D01*
X52665678Y-43314995D01*
X52562628Y-43349293D01*
X52440990Y-43427465D01*
X52437595Y-43430407D01*
X52437592Y-43430409D01*
X52395208Y-43467135D01*
X52387334Y-43473958D01*
X52384393Y-43477352D01*
X52374905Y-43488302D01*
X52292645Y-43583234D01*
X52232579Y-43714760D01*
X52231311Y-43719079D01*
X52216953Y-43767979D01*
X52212577Y-43782881D01*
X52211937Y-43787329D01*
X52211936Y-43787336D01*
X52192639Y-43921552D01*
X52192638Y-43921559D01*
X52192000Y-43926000D01*
X52192000Y-45430991D01*
X52171998Y-45499112D01*
X52118342Y-45545605D01*
X52048068Y-45555709D01*
X52028740Y-45551356D01*
X52010162Y-45545605D01*
X51853792Y-45497200D01*
X51847674Y-45496557D01*
X51847669Y-45496556D01*
X51663205Y-45477169D01*
X51663203Y-45477169D01*
X51657076Y-45476525D01*
X51574226Y-45484065D01*
X51466228Y-45493893D01*
X51466225Y-45493894D01*
X51460089Y-45494452D01*
X51454183Y-45496190D01*
X51454179Y-45496191D01*
X51368921Y-45521284D01*
X51270336Y-45550299D01*
X51250387Y-45560728D01*
X51192375Y-45591056D01*
X51122740Y-45604890D01*
X51056679Y-45578880D01*
X51015167Y-45521284D01*
X51008000Y-45479394D01*
X51008000Y-40147963D01*
X51028002Y-40079842D01*
X51081658Y-40033349D01*
X51151932Y-40023245D01*
X51211918Y-40048944D01*
X51226621Y-40060514D01*
X51230213Y-40062638D01*
X51230214Y-40062639D01*
X51432603Y-40182332D01*
X51479728Y-40210202D01*
X51750409Y-40325099D01*
X52033909Y-40403188D01*
X52038054Y-40403756D01*
X52038055Y-40403756D01*
X52056255Y-40406249D01*
X52325245Y-40443096D01*
X52329421Y-40443111D01*
X52329427Y-40443111D01*
X52474754Y-40443618D01*
X52619301Y-40444122D01*
X52910909Y-40406249D01*
X53102855Y-40354817D01*
X53190917Y-40331221D01*
X53190923Y-40331219D01*
X53194946Y-40330141D01*
X53198788Y-40328542D01*
X53198796Y-40328539D01*
X53462572Y-40218740D01*
X53466423Y-40217137D01*
X53470020Y-40215043D01*
X53470027Y-40215040D01*
X53627714Y-40123263D01*
X53720569Y-40069220D01*
X53952920Y-39888990D01*
X54110661Y-39729032D01*
X54156464Y-39682586D01*
X54156470Y-39682579D01*
X54159394Y-39679614D01*
X54324727Y-39460209D01*
X54333850Y-39448103D01*
X54333852Y-39448100D01*
X54336362Y-39444769D01*
X54480715Y-39188582D01*
X54487870Y-39170694D01*
X54588368Y-38919433D01*
X54588370Y-38919426D01*
X54589919Y-38915554D01*
X54593651Y-38900808D01*
X54619337Y-38799295D01*
X54655438Y-38738162D01*
X54718859Y-38706251D01*
X54789465Y-38713695D01*
G37*
G04 #@! TD.AperFunction*
G04 #@! TA.AperFunction,NonConductor*
G36*
X81936371Y-45631095D02*
G01*
X82001492Y-45631091D01*
X82061220Y-45669472D01*
X82090717Y-45734051D01*
X82092000Y-45751989D01*
X82092000Y-46488693D01*
X82071998Y-46556814D01*
X82018342Y-46603307D01*
X81948069Y-46613411D01*
X81904448Y-46607139D01*
X81904441Y-46607138D01*
X81900000Y-46606500D01*
X81884500Y-46606500D01*
X81816379Y-46586498D01*
X81769886Y-46532842D01*
X81758500Y-46480500D01*
X81758500Y-45762354D01*
X81778502Y-45694233D01*
X81832158Y-45647740D01*
X81875511Y-45636675D01*
X81923079Y-45633273D01*
X81929559Y-45631370D01*
X81929561Y-45631370D01*
X81930115Y-45631207D01*
X81930497Y-45631095D01*
X81931083Y-45631095D01*
X81936204Y-45630171D01*
X81936371Y-45631095D01*
G37*
G04 #@! TD.AperFunction*
G04 #@! TA.AperFunction,NonConductor*
G36*
X64486966Y-46601597D02*
G01*
X64531724Y-46656708D01*
X64541500Y-46705369D01*
X64541500Y-48107346D01*
X64521498Y-48175467D01*
X64467842Y-48221960D01*
X64397568Y-48232064D01*
X64332988Y-48202570D01*
X64307782Y-48172713D01*
X64285374Y-48135787D01*
X64282465Y-48130993D01*
X64274249Y-48121690D01*
X64272031Y-48119108D01*
X64269741Y-48116369D01*
X64265731Y-48110253D01*
X64213868Y-48061123D01*
X64211426Y-48058745D01*
X63107441Y-46954760D01*
X63073415Y-46892448D01*
X63078480Y-46821633D01*
X63121027Y-46764797D01*
X63187547Y-46739986D01*
X63239836Y-46747339D01*
X63265322Y-46756665D01*
X63297718Y-46768521D01*
X63297722Y-46768522D01*
X63302982Y-46770447D01*
X63308499Y-46771410D01*
X63308503Y-46771411D01*
X63476052Y-46800653D01*
X63524273Y-46809069D01*
X63543100Y-46808970D01*
X63543886Y-46809001D01*
X63544273Y-46809069D01*
X63545447Y-46809063D01*
X63545451Y-46809063D01*
X63610124Y-46808724D01*
X63768906Y-46807893D01*
X63989780Y-46766956D01*
X64199914Y-46687553D01*
X64350795Y-46597253D01*
X64419518Y-46579433D01*
X64486966Y-46601597D01*
G37*
G04 #@! TD.AperFunction*
G04 #@! TA.AperFunction,NonConductor*
G36*
X66267012Y-47390147D02*
G01*
X66273595Y-47396276D01*
X67060017Y-48182698D01*
X67094043Y-48245010D01*
X67088978Y-48315825D01*
X67046431Y-48372661D01*
X66979911Y-48397472D01*
X66969277Y-48397782D01*
X66759890Y-48395040D01*
X66754193Y-48396019D01*
X66754192Y-48396019D01*
X66563547Y-48428778D01*
X66552746Y-48430634D01*
X66355558Y-48503381D01*
X66350596Y-48506333D01*
X66345380Y-48508821D01*
X66344311Y-48506580D01*
X66285252Y-48520982D01*
X66218133Y-48497842D01*
X66183587Y-48457546D01*
X66182687Y-48458136D01*
X66163439Y-48428778D01*
X66142655Y-48397077D01*
X66140318Y-48393373D01*
X66105378Y-48335792D01*
X66105375Y-48335788D01*
X66102466Y-48330994D01*
X66094249Y-48321690D01*
X66092031Y-48319109D01*
X66089744Y-48316374D01*
X66087026Y-48312228D01*
X66059487Y-48249008D01*
X66058500Y-48233271D01*
X66058500Y-47485371D01*
X66078502Y-47417250D01*
X66132158Y-47370757D01*
X66202432Y-47360653D01*
X66267012Y-47390147D01*
G37*
G04 #@! TD.AperFunction*
G04 #@! TA.AperFunction,NonConductor*
G36*
X59481234Y-41778502D02*
G01*
X59527727Y-41832158D01*
X59537831Y-41902432D01*
X59519851Y-41951453D01*
X59504213Y-41976383D01*
X59420427Y-42184808D01*
X59374874Y-42404777D01*
X59368993Y-42629336D01*
X59402972Y-42851387D01*
X59404789Y-42856694D01*
X59471587Y-43051796D01*
X59475735Y-43063912D01*
X59584984Y-43260192D01*
X59588535Y-43264530D01*
X59588538Y-43264535D01*
X59693395Y-43392645D01*
X59727264Y-43434025D01*
X59731527Y-43437666D01*
X59731532Y-43437671D01*
X59790814Y-43488302D01*
X59898078Y-43579914D01*
X59903760Y-43583234D01*
X60087181Y-43690417D01*
X60087184Y-43690418D01*
X60092028Y-43693249D01*
X60097298Y-43695178D01*
X60097299Y-43695178D01*
X60297718Y-43768521D01*
X60297722Y-43768522D01*
X60302982Y-43770447D01*
X60308499Y-43771410D01*
X60308503Y-43771411D01*
X60470626Y-43799706D01*
X60524273Y-43809069D01*
X60543100Y-43808970D01*
X60543886Y-43809001D01*
X60544273Y-43809069D01*
X60545447Y-43809063D01*
X60545451Y-43809063D01*
X60610124Y-43808724D01*
X60768906Y-43807893D01*
X60810565Y-43800172D01*
X60927182Y-43778558D01*
X60989780Y-43766956D01*
X61199914Y-43687553D01*
X61392667Y-43572193D01*
X61561944Y-43424523D01*
X61702396Y-43249210D01*
X61809583Y-43051796D01*
X61880117Y-42838521D01*
X61911768Y-42616126D01*
X61913500Y-42550000D01*
X61893531Y-42326253D01*
X61834256Y-42109579D01*
X61817602Y-42074662D01*
X61752772Y-41938744D01*
X61741499Y-41868648D01*
X61769912Y-41803585D01*
X61828991Y-41764212D01*
X61866498Y-41758500D01*
X62413113Y-41758500D01*
X62481234Y-41778502D01*
X62527727Y-41832158D01*
X62537831Y-41902432D01*
X62519851Y-41951453D01*
X62504213Y-41976383D01*
X62420427Y-42184808D01*
X62374874Y-42404777D01*
X62368993Y-42629336D01*
X62402972Y-42851387D01*
X62404789Y-42856694D01*
X62471587Y-43051796D01*
X62475735Y-43063912D01*
X62584984Y-43260192D01*
X62588535Y-43264530D01*
X62588538Y-43264535D01*
X62693395Y-43392645D01*
X62727264Y-43434025D01*
X62731527Y-43437666D01*
X62731532Y-43437671D01*
X62790814Y-43488302D01*
X62898078Y-43579914D01*
X62903760Y-43583234D01*
X63087181Y-43690417D01*
X63087184Y-43690418D01*
X63092028Y-43693249D01*
X63097298Y-43695178D01*
X63097299Y-43695178D01*
X63297718Y-43768521D01*
X63297722Y-43768522D01*
X63302982Y-43770447D01*
X63308499Y-43771410D01*
X63308503Y-43771411D01*
X63470626Y-43799706D01*
X63524273Y-43809069D01*
X63543100Y-43808970D01*
X63543886Y-43809001D01*
X63544273Y-43809069D01*
X63545447Y-43809063D01*
X63545451Y-43809063D01*
X63610124Y-43808724D01*
X63768906Y-43807893D01*
X63810565Y-43800172D01*
X63927182Y-43778558D01*
X63989780Y-43766956D01*
X64199914Y-43687553D01*
X64247620Y-43659002D01*
X64375569Y-43582426D01*
X64444293Y-43564606D01*
X64511741Y-43586770D01*
X64556499Y-43641881D01*
X64563634Y-43716205D01*
X64560661Y-43730496D01*
X64559691Y-43734780D01*
X64543690Y-43800172D01*
X64543689Y-43800178D01*
X64542355Y-43805630D01*
X64542007Y-43811234D01*
X64542007Y-43811236D01*
X64541586Y-43818024D01*
X64541329Y-43821421D01*
X64541013Y-43824961D01*
X64539522Y-43832129D01*
X64539720Y-43839446D01*
X64541454Y-43903516D01*
X64541500Y-43906925D01*
X64541500Y-44396349D01*
X64521498Y-44464470D01*
X64467842Y-44510963D01*
X64397568Y-44521067D01*
X64345224Y-44500931D01*
X64263357Y-44445919D01*
X64258696Y-44442787D01*
X64161865Y-44400281D01*
X64058152Y-44354754D01*
X64058148Y-44354753D01*
X64053005Y-44352495D01*
X64047550Y-44351185D01*
X64047546Y-44351184D01*
X63840030Y-44301363D01*
X63840026Y-44301362D01*
X63834576Y-44300054D01*
X63789144Y-44297434D01*
X63615920Y-44287446D01*
X63615917Y-44287446D01*
X63610313Y-44287123D01*
X63606013Y-44287643D01*
X63597373Y-44287530D01*
X63596836Y-44287499D01*
X63595919Y-44287446D01*
X63595917Y-44287446D01*
X63590313Y-44287123D01*
X63367304Y-44314111D01*
X63361942Y-44315761D01*
X63361940Y-44315761D01*
X63278177Y-44341530D01*
X63152598Y-44380163D01*
X63147618Y-44382733D01*
X63147614Y-44382735D01*
X63031266Y-44442787D01*
X62952983Y-44483192D01*
X62774767Y-44619941D01*
X62623584Y-44786089D01*
X62620602Y-44790843D01*
X62550708Y-44902264D01*
X62504213Y-44976383D01*
X62420427Y-45184808D01*
X62374874Y-45404777D01*
X62368993Y-45629336D01*
X62372120Y-45649770D01*
X62391414Y-45775853D01*
X62402972Y-45851387D01*
X62434571Y-45943681D01*
X62437713Y-46014606D01*
X62402010Y-46075973D01*
X62338797Y-46108295D01*
X62268145Y-46101311D01*
X62226269Y-46073588D01*
X61938476Y-45785795D01*
X61904450Y-45723483D01*
X61902828Y-45678948D01*
X61911256Y-45619724D01*
X61911256Y-45619721D01*
X61911768Y-45616126D01*
X61913317Y-45556984D01*
X61913405Y-45553631D01*
X61913405Y-45553629D01*
X61913500Y-45550000D01*
X61893531Y-45326253D01*
X61834256Y-45109579D01*
X61768457Y-44971627D01*
X61739965Y-44911893D01*
X61739964Y-44911892D01*
X61737548Y-44906826D01*
X61734270Y-44902264D01*
X61609740Y-44728963D01*
X61609738Y-44728961D01*
X61606463Y-44724403D01*
X61445146Y-44568076D01*
X61258696Y-44442787D01*
X61161865Y-44400281D01*
X61058152Y-44354754D01*
X61058148Y-44354753D01*
X61053005Y-44352495D01*
X61047550Y-44351185D01*
X61047546Y-44351184D01*
X60840030Y-44301363D01*
X60840026Y-44301362D01*
X60834576Y-44300054D01*
X60789144Y-44297434D01*
X60615920Y-44287446D01*
X60615917Y-44287446D01*
X60610313Y-44287123D01*
X60606013Y-44287643D01*
X60597373Y-44287530D01*
X60596836Y-44287499D01*
X60595919Y-44287446D01*
X60595917Y-44287446D01*
X60590313Y-44287123D01*
X60367304Y-44314111D01*
X60361942Y-44315761D01*
X60361940Y-44315761D01*
X60278177Y-44341530D01*
X60152598Y-44380163D01*
X60147618Y-44382733D01*
X60147614Y-44382735D01*
X60031266Y-44442787D01*
X59952983Y-44483192D01*
X59774767Y-44619941D01*
X59623584Y-44786089D01*
X59620602Y-44790843D01*
X59550708Y-44902264D01*
X59504213Y-44976383D01*
X59420427Y-45184808D01*
X59374874Y-45404777D01*
X59368993Y-45629336D01*
X59372120Y-45649770D01*
X59391414Y-45775853D01*
X59402972Y-45851387D01*
X59404788Y-45856690D01*
X59404789Y-45856694D01*
X59471587Y-46051796D01*
X59475735Y-46063912D01*
X59584984Y-46260192D01*
X59588535Y-46264530D01*
X59588538Y-46264535D01*
X59711625Y-46414918D01*
X59727264Y-46434025D01*
X59731527Y-46437666D01*
X59731532Y-46437671D01*
X59831821Y-46523325D01*
X59898078Y-46579914D01*
X59955778Y-46613631D01*
X60087181Y-46690417D01*
X60087184Y-46690418D01*
X60092028Y-46693249D01*
X60097298Y-46695178D01*
X60097299Y-46695178D01*
X60297718Y-46768521D01*
X60297722Y-46768522D01*
X60302982Y-46770447D01*
X60308499Y-46771410D01*
X60308503Y-46771411D01*
X60476052Y-46800653D01*
X60524273Y-46809069D01*
X60543100Y-46808970D01*
X60543886Y-46809001D01*
X60544273Y-46809069D01*
X60545447Y-46809063D01*
X60545451Y-46809063D01*
X60685538Y-46808329D01*
X60762394Y-46807927D01*
X60830619Y-46827572D01*
X60852149Y-46844830D01*
X62799595Y-48792276D01*
X62833621Y-48854588D01*
X62836500Y-48881371D01*
X62836500Y-49214588D01*
X62816498Y-49282709D01*
X62762842Y-49329202D01*
X62702697Y-49340346D01*
X62698196Y-49340067D01*
X62673269Y-49338520D01*
X62606517Y-49314338D01*
X62563437Y-49257906D01*
X62560176Y-49248260D01*
X62544635Y-49195330D01*
X62544634Y-49195328D01*
X62542096Y-49186684D01*
X62485756Y-49099018D01*
X62467949Y-49071309D01*
X62467947Y-49071306D01*
X62463077Y-49063729D01*
X62456267Y-49057828D01*
X62359431Y-48973918D01*
X62359428Y-48973916D01*
X62352619Y-48968016D01*
X62219670Y-48907300D01*
X62210755Y-48906018D01*
X62210754Y-48906018D01*
X62079448Y-48887139D01*
X62079441Y-48887138D01*
X62075000Y-48886500D01*
X61268828Y-48886500D01*
X61200707Y-48866498D01*
X61154214Y-48812842D01*
X61143713Y-48775405D01*
X61125522Y-48622700D01*
X61098863Y-48398919D01*
X61072772Y-48179905D01*
X61072771Y-48179899D01*
X61072390Y-48176701D01*
X61062124Y-48130993D01*
X61050343Y-48078542D01*
X61050341Y-48078533D01*
X61049635Y-48075392D01*
X61044469Y-48059973D01*
X61034381Y-48029869D01*
X61033355Y-48026807D01*
X60990471Y-47932232D01*
X60900579Y-47818979D01*
X60848976Y-47770217D01*
X60827712Y-47755218D01*
X60734492Y-47689466D01*
X60730819Y-47686875D01*
X58610741Y-46605949D01*
X58559139Y-46557189D01*
X58542091Y-46488269D01*
X58565010Y-46421074D01*
X58569640Y-46414918D01*
X58698886Y-46253593D01*
X58698893Y-46253582D01*
X58702396Y-46249210D01*
X58809583Y-46051796D01*
X58880117Y-45838521D01*
X58911768Y-45616126D01*
X58913317Y-45556984D01*
X58913405Y-45553631D01*
X58913405Y-45553629D01*
X58913500Y-45550000D01*
X58893531Y-45326253D01*
X58834256Y-45109579D01*
X58768457Y-44971627D01*
X58739965Y-44911893D01*
X58739964Y-44911892D01*
X58737548Y-44906826D01*
X58734270Y-44902264D01*
X58609740Y-44728963D01*
X58609738Y-44728961D01*
X58606463Y-44724403D01*
X58445146Y-44568076D01*
X58258696Y-44442787D01*
X58161865Y-44400281D01*
X58058152Y-44354754D01*
X58058148Y-44354753D01*
X58053005Y-44352495D01*
X58047550Y-44351185D01*
X58047546Y-44351184D01*
X57840030Y-44301363D01*
X57840026Y-44301362D01*
X57834576Y-44300054D01*
X57789144Y-44297434D01*
X57615920Y-44287446D01*
X57615917Y-44287446D01*
X57610313Y-44287123D01*
X57606013Y-44287643D01*
X57597373Y-44287530D01*
X57596836Y-44287499D01*
X57595919Y-44287446D01*
X57595917Y-44287446D01*
X57590313Y-44287123D01*
X57367304Y-44314111D01*
X57361942Y-44315761D01*
X57361940Y-44315761D01*
X57278177Y-44341530D01*
X57152598Y-44380163D01*
X57147618Y-44382733D01*
X57147614Y-44382735D01*
X57113620Y-44400281D01*
X57043913Y-44413750D01*
X56977989Y-44387395D01*
X56936779Y-44329582D01*
X56929949Y-44293788D01*
X56929689Y-44287798D01*
X56912761Y-43898461D01*
X56904464Y-43839446D01*
X56901490Y-43818297D01*
X56911813Y-43748055D01*
X56958473Y-43694544D01*
X57026656Y-43674755D01*
X57081341Y-43689656D01*
X57082107Y-43688029D01*
X57087182Y-43690417D01*
X57092028Y-43693249D01*
X57097298Y-43695178D01*
X57097299Y-43695178D01*
X57297718Y-43768521D01*
X57297722Y-43768522D01*
X57302982Y-43770447D01*
X57308499Y-43771410D01*
X57308503Y-43771411D01*
X57470626Y-43799706D01*
X57524273Y-43809069D01*
X57543100Y-43808970D01*
X57543886Y-43809001D01*
X57544273Y-43809069D01*
X57545447Y-43809063D01*
X57545451Y-43809063D01*
X57610124Y-43808724D01*
X57768906Y-43807893D01*
X57810565Y-43800172D01*
X57927182Y-43778558D01*
X57989780Y-43766956D01*
X58199914Y-43687553D01*
X58392667Y-43572193D01*
X58561944Y-43424523D01*
X58702396Y-43249210D01*
X58809583Y-43051796D01*
X58880117Y-42838521D01*
X58911768Y-42616126D01*
X58913500Y-42550000D01*
X58893531Y-42326253D01*
X58834256Y-42109579D01*
X58817602Y-42074662D01*
X58752772Y-41938744D01*
X58741499Y-41868648D01*
X58769912Y-41803585D01*
X58828991Y-41764212D01*
X58866498Y-41758500D01*
X59413113Y-41758500D01*
X59481234Y-41778502D01*
G37*
G04 #@! TD.AperFunction*
G04 #@! TA.AperFunction,NonConductor*
G36*
X75587787Y-38759942D02*
G01*
X75638386Y-38809744D01*
X75650644Y-38840949D01*
X75665347Y-38900808D01*
X75772641Y-39174591D01*
X75782416Y-39192225D01*
X75905074Y-39413506D01*
X75915203Y-39431780D01*
X75917693Y-39435133D01*
X75917697Y-39435139D01*
X76088037Y-39664502D01*
X76088042Y-39664507D01*
X76090527Y-39667854D01*
X76093431Y-39670840D01*
X76093435Y-39670845D01*
X76150020Y-39729032D01*
X76295534Y-39878667D01*
X76298812Y-39881247D01*
X76298817Y-39881251D01*
X76416353Y-39973742D01*
X76526621Y-40060514D01*
X76530213Y-40062638D01*
X76530214Y-40062639D01*
X76732603Y-40182332D01*
X76779728Y-40210202D01*
X77050409Y-40325099D01*
X77333909Y-40403188D01*
X77338054Y-40403756D01*
X77338055Y-40403756D01*
X77356255Y-40406249D01*
X77625245Y-40443096D01*
X77629421Y-40443111D01*
X77629427Y-40443111D01*
X77774754Y-40443618D01*
X77919301Y-40444122D01*
X78210909Y-40406249D01*
X78402855Y-40354817D01*
X78490917Y-40331221D01*
X78490923Y-40331219D01*
X78494946Y-40330141D01*
X78498788Y-40328542D01*
X78498796Y-40328539D01*
X78762572Y-40218740D01*
X78766423Y-40217137D01*
X78770020Y-40215043D01*
X78770027Y-40215040D01*
X78927714Y-40123263D01*
X79020569Y-40069220D01*
X79252920Y-39888990D01*
X79410661Y-39729032D01*
X79456464Y-39682586D01*
X79456470Y-39682579D01*
X79459394Y-39679614D01*
X79624727Y-39460209D01*
X79633850Y-39448103D01*
X79633852Y-39448100D01*
X79636362Y-39444769D01*
X79738853Y-39262876D01*
X79778665Y-39192221D01*
X79778668Y-39192216D01*
X79780715Y-39188582D01*
X79789731Y-39166040D01*
X79833601Y-39110219D01*
X79900686Y-39086978D01*
X79969686Y-39103694D01*
X79996125Y-39124049D01*
X80004454Y-39132437D01*
X80004463Y-39132444D01*
X80009423Y-39137439D01*
X80015370Y-39141213D01*
X80015375Y-39141217D01*
X80122951Y-39209487D01*
X80169750Y-39262876D01*
X80180255Y-39333091D01*
X80151131Y-39397839D01*
X80144532Y-39404967D01*
X80093801Y-39455698D01*
X80090644Y-39460206D01*
X80090642Y-39460209D01*
X79975028Y-39625324D01*
X79962476Y-39643250D01*
X79960153Y-39648232D01*
X79960150Y-39648237D01*
X79880467Y-39819119D01*
X79865714Y-39850757D01*
X79864292Y-39856065D01*
X79864291Y-39856067D01*
X79810201Y-40057931D01*
X79806455Y-40071913D01*
X79786500Y-40300000D01*
X79806455Y-40528087D01*
X79807879Y-40533400D01*
X79807879Y-40533402D01*
X79831736Y-40622435D01*
X79865714Y-40749243D01*
X79868036Y-40754224D01*
X79868037Y-40754225D01*
X79960150Y-40951763D01*
X79960153Y-40951768D01*
X79962476Y-40956750D01*
X80093801Y-41144302D01*
X80255698Y-41306199D01*
X80260206Y-41309356D01*
X80260209Y-41309358D01*
X80387771Y-41398678D01*
X80432099Y-41454135D01*
X80441500Y-41501891D01*
X80441500Y-42037646D01*
X80421498Y-42105767D01*
X80367842Y-42152260D01*
X80324489Y-42163325D01*
X80276921Y-42166727D01*
X80211777Y-42185855D01*
X80145330Y-42205365D01*
X80145328Y-42205366D01*
X80136684Y-42207904D01*
X80129105Y-42212775D01*
X80021309Y-42282051D01*
X80021306Y-42282053D01*
X80013729Y-42286923D01*
X80007828Y-42293733D01*
X79923918Y-42390569D01*
X79923916Y-42390572D01*
X79918016Y-42397381D01*
X79914272Y-42405579D01*
X79897255Y-42442842D01*
X79850762Y-42496498D01*
X79782641Y-42516500D01*
X77025766Y-42516500D01*
X76957645Y-42496498D01*
X76911152Y-42442842D01*
X76900265Y-42401701D01*
X76894030Y-42331849D01*
X76894030Y-42331848D01*
X76893531Y-42326253D01*
X76834256Y-42109579D01*
X76817602Y-42074662D01*
X76739965Y-41911893D01*
X76739964Y-41911892D01*
X76737548Y-41906826D01*
X76679127Y-41825525D01*
X76609740Y-41728963D01*
X76609738Y-41728961D01*
X76606463Y-41724403D01*
X76495148Y-41616531D01*
X76449174Y-41571979D01*
X76449171Y-41571977D01*
X76445146Y-41568076D01*
X76258696Y-41442787D01*
X76121894Y-41382735D01*
X76058152Y-41354754D01*
X76058148Y-41354753D01*
X76053005Y-41352495D01*
X76047550Y-41351185D01*
X76047546Y-41351184D01*
X75840030Y-41301363D01*
X75840026Y-41301362D01*
X75834576Y-41300054D01*
X75789144Y-41297434D01*
X75615920Y-41287446D01*
X75615917Y-41287446D01*
X75610313Y-41287123D01*
X75606013Y-41287643D01*
X75597373Y-41287530D01*
X75596836Y-41287499D01*
X75595919Y-41287446D01*
X75595917Y-41287446D01*
X75590313Y-41287123D01*
X75367304Y-41314111D01*
X75361942Y-41315761D01*
X75361940Y-41315761D01*
X75351662Y-41318923D01*
X75152598Y-41380163D01*
X75147618Y-41382733D01*
X75147614Y-41382735D01*
X74979348Y-41469584D01*
X74952983Y-41483192D01*
X74774767Y-41619941D01*
X74623584Y-41786089D01*
X74620602Y-41790843D01*
X74548596Y-41905631D01*
X74504213Y-41976383D01*
X74420427Y-42184808D01*
X74374874Y-42404777D01*
X74368993Y-42629336D01*
X74402972Y-42851387D01*
X74404789Y-42856694D01*
X74471587Y-43051796D01*
X74475735Y-43063912D01*
X74584984Y-43260192D01*
X74588535Y-43264530D01*
X74588538Y-43264535D01*
X74693395Y-43392645D01*
X74727264Y-43434025D01*
X74731527Y-43437666D01*
X74731532Y-43437671D01*
X74790814Y-43488302D01*
X74898078Y-43579914D01*
X74903760Y-43583234D01*
X75087181Y-43690417D01*
X75087184Y-43690418D01*
X75092028Y-43693249D01*
X75097298Y-43695178D01*
X75097299Y-43695178D01*
X75297718Y-43768521D01*
X75297722Y-43768522D01*
X75302982Y-43770447D01*
X75308499Y-43771410D01*
X75308503Y-43771411D01*
X75470626Y-43799706D01*
X75524273Y-43809069D01*
X75543100Y-43808970D01*
X75543886Y-43809001D01*
X75544273Y-43809069D01*
X75545447Y-43809063D01*
X75545451Y-43809063D01*
X75610124Y-43808724D01*
X75768906Y-43807893D01*
X75801835Y-43801790D01*
X75942240Y-43775767D01*
X76012865Y-43783020D01*
X76021932Y-43787347D01*
X76023799Y-43788086D01*
X76030749Y-43791907D01*
X76051523Y-43797241D01*
X76070217Y-43803642D01*
X76082613Y-43809006D01*
X76082619Y-43809008D01*
X76089890Y-43812154D01*
X76097714Y-43813393D01*
X76097717Y-43813394D01*
X76135493Y-43819377D01*
X76147107Y-43821782D01*
X76191841Y-43833268D01*
X76195528Y-43833500D01*
X76214742Y-43833500D01*
X76234454Y-43835051D01*
X76254158Y-43838172D01*
X76262050Y-43837426D01*
X76297671Y-43834059D01*
X76309528Y-43833500D01*
X79711608Y-43833500D01*
X79779729Y-43853502D01*
X79826222Y-43907158D01*
X79837287Y-43968484D01*
X79837139Y-43970557D01*
X79836500Y-43975000D01*
X79836500Y-45125000D01*
X79841727Y-45198079D01*
X79882904Y-45338316D01*
X79887775Y-45345895D01*
X79957051Y-45453691D01*
X79957053Y-45453694D01*
X79961923Y-45461271D01*
X79968733Y-45467172D01*
X80065569Y-45551082D01*
X80065572Y-45551084D01*
X80072381Y-45556984D01*
X80080579Y-45560728D01*
X80108901Y-45573662D01*
X80205330Y-45617700D01*
X80214245Y-45618982D01*
X80214246Y-45618982D01*
X80333432Y-45636118D01*
X80398012Y-45665611D01*
X80436396Y-45725338D01*
X80441500Y-45760836D01*
X80441500Y-46480500D01*
X80421498Y-46548621D01*
X80367842Y-46595114D01*
X80315500Y-46606500D01*
X80300000Y-46606500D01*
X80226921Y-46611727D01*
X80173884Y-46627300D01*
X80095330Y-46650365D01*
X80095328Y-46650366D01*
X80086684Y-46652904D01*
X80055483Y-46672956D01*
X79971309Y-46727051D01*
X79971306Y-46727053D01*
X79963729Y-46731923D01*
X79957828Y-46738733D01*
X79873918Y-46835569D01*
X79873916Y-46835572D01*
X79868016Y-46842381D01*
X79864272Y-46850579D01*
X79840713Y-46902166D01*
X79800699Y-46948345D01*
X79804973Y-46991512D01*
X79787139Y-47115552D01*
X79787138Y-47115559D01*
X79786500Y-47120000D01*
X79786500Y-47135500D01*
X79766498Y-47203621D01*
X79712842Y-47250114D01*
X79660500Y-47261500D01*
X79588272Y-47261500D01*
X79520151Y-47241498D01*
X79473658Y-47187842D01*
X79463554Y-47117568D01*
X79478716Y-47073263D01*
X79498168Y-47039021D01*
X79570700Y-46911343D01*
X79607666Y-46875600D01*
X79601382Y-46831892D01*
X79606541Y-46810052D01*
X79619716Y-46770447D01*
X79638314Y-46714539D01*
X79663105Y-46518299D01*
X79663500Y-46490000D01*
X79644198Y-46293143D01*
X79587027Y-46103785D01*
X79494166Y-45929138D01*
X79413129Y-45829777D01*
X79373045Y-45780628D01*
X79373042Y-45780625D01*
X79369150Y-45775853D01*
X79364401Y-45771924D01*
X79221491Y-45653698D01*
X79221486Y-45653695D01*
X79216742Y-45649770D01*
X79211323Y-45646840D01*
X79211320Y-45646838D01*
X79048165Y-45558621D01*
X79048161Y-45558619D01*
X79042747Y-45555692D01*
X79036867Y-45553872D01*
X79036865Y-45553871D01*
X78987317Y-45538533D01*
X78853792Y-45497200D01*
X78847674Y-45496557D01*
X78847669Y-45496556D01*
X78663205Y-45477169D01*
X78663203Y-45477169D01*
X78657076Y-45476525D01*
X78574226Y-45484065D01*
X78466228Y-45493893D01*
X78466225Y-45493894D01*
X78460089Y-45494452D01*
X78454183Y-45496190D01*
X78454179Y-45496191D01*
X78368921Y-45521284D01*
X78270336Y-45550299D01*
X78095045Y-45641939D01*
X77940891Y-45765882D01*
X77936933Y-45770599D01*
X77936931Y-45770601D01*
X77853347Y-45870213D01*
X77813747Y-45917406D01*
X77810783Y-45922798D01*
X77810780Y-45922802D01*
X77736125Y-46058600D01*
X77718456Y-46090740D01*
X77716595Y-46096607D01*
X77716594Y-46096609D01*
X77714318Y-46103785D01*
X77658647Y-46279282D01*
X77636599Y-46475849D01*
X77653150Y-46672956D01*
X77663319Y-46708419D01*
X77702435Y-46844830D01*
X77707672Y-46863094D01*
X77798086Y-47039021D01*
X77920949Y-47194036D01*
X77925636Y-47198025D01*
X77925639Y-47198028D01*
X78031484Y-47288109D01*
X78071582Y-47322235D01*
X78076960Y-47325241D01*
X78076962Y-47325242D01*
X78238866Y-47415727D01*
X78244246Y-47418734D01*
X78250109Y-47420639D01*
X78308152Y-47439498D01*
X78366758Y-47479571D01*
X78394396Y-47544967D01*
X78382290Y-47614924D01*
X78358312Y-47648426D01*
X77032053Y-48974685D01*
X76969741Y-49008711D01*
X76898926Y-49003646D01*
X76842090Y-48961099D01*
X76835162Y-48949813D01*
X76834830Y-48950016D01*
X76831812Y-48945090D01*
X76829257Y-48939910D01*
X76703502Y-48771503D01*
X76699266Y-48767587D01*
X76553403Y-48632753D01*
X76553400Y-48632751D01*
X76549163Y-48628834D01*
X76371408Y-48516679D01*
X76176192Y-48438796D01*
X76170532Y-48437670D01*
X76170528Y-48437669D01*
X75975719Y-48398919D01*
X75975714Y-48398919D01*
X75970051Y-48397792D01*
X75964276Y-48397716D01*
X75964272Y-48397716D01*
X75858597Y-48396333D01*
X75759890Y-48395040D01*
X75754193Y-48396019D01*
X75754192Y-48396019D01*
X75563547Y-48428778D01*
X75552746Y-48430634D01*
X75355558Y-48503381D01*
X75350602Y-48506330D01*
X75350599Y-48506331D01*
X75298942Y-48537064D01*
X75230172Y-48554703D01*
X75162782Y-48532362D01*
X75118168Y-48477134D01*
X75108520Y-48428778D01*
X75108520Y-48224951D01*
X75128522Y-48156830D01*
X75145424Y-48135856D01*
X76059357Y-47221922D01*
X76066810Y-47215141D01*
X76072931Y-47211256D01*
X76116404Y-47164962D01*
X76119158Y-47162121D01*
X76143616Y-47137663D01*
X76147462Y-47132705D01*
X76155164Y-47123687D01*
X76181354Y-47095798D01*
X76181356Y-47095795D01*
X76186783Y-47090016D01*
X76190602Y-47083069D01*
X76190605Y-47083065D01*
X76197111Y-47071230D01*
X76207968Y-47054702D01*
X76216245Y-47044031D01*
X76221103Y-47037769D01*
X76239447Y-46995379D01*
X76244657Y-46984742D01*
X76266907Y-46944271D01*
X76269032Y-46935994D01*
X76272239Y-46923506D01*
X76278642Y-46904803D01*
X76284006Y-46892407D01*
X76284006Y-46892406D01*
X76287155Y-46885130D01*
X76288395Y-46877300D01*
X76288397Y-46877294D01*
X76294380Y-46839522D01*
X76296786Y-46827902D01*
X76306791Y-46788934D01*
X76306792Y-46788928D01*
X76308268Y-46783179D01*
X76308500Y-46779492D01*
X76308500Y-46760283D01*
X76310051Y-46740572D01*
X76311933Y-46728690D01*
X76313173Y-46720861D01*
X76311610Y-46704329D01*
X76325112Y-46634630D01*
X76372347Y-46584354D01*
X76387856Y-46575073D01*
X76387861Y-46575069D01*
X76392667Y-46572193D01*
X76561944Y-46424523D01*
X76702396Y-46249210D01*
X76809583Y-46051796D01*
X76880117Y-45838521D01*
X76911768Y-45616126D01*
X76913317Y-45556984D01*
X76913405Y-45553631D01*
X76913405Y-45553629D01*
X76913500Y-45550000D01*
X76893531Y-45326253D01*
X76834256Y-45109579D01*
X76768457Y-44971627D01*
X76739965Y-44911893D01*
X76739964Y-44911892D01*
X76737548Y-44906826D01*
X76734270Y-44902264D01*
X76609740Y-44728963D01*
X76609738Y-44728961D01*
X76606463Y-44724403D01*
X76445146Y-44568076D01*
X76258696Y-44442787D01*
X76161865Y-44400281D01*
X76058152Y-44354754D01*
X76058148Y-44354753D01*
X76053005Y-44352495D01*
X76047550Y-44351185D01*
X76047546Y-44351184D01*
X75840030Y-44301363D01*
X75840026Y-44301362D01*
X75834576Y-44300054D01*
X75789144Y-44297434D01*
X75615920Y-44287446D01*
X75615917Y-44287446D01*
X75610313Y-44287123D01*
X75606013Y-44287643D01*
X75597373Y-44287530D01*
X75596836Y-44287499D01*
X75595919Y-44287446D01*
X75595917Y-44287446D01*
X75590313Y-44287123D01*
X75367304Y-44314111D01*
X75361942Y-44315761D01*
X75361940Y-44315761D01*
X75278177Y-44341530D01*
X75152598Y-44380163D01*
X75147618Y-44382733D01*
X75147614Y-44382735D01*
X75031266Y-44442787D01*
X74952983Y-44483192D01*
X74774767Y-44619941D01*
X74623584Y-44786089D01*
X74620602Y-44790843D01*
X74550708Y-44902264D01*
X74504213Y-44976383D01*
X74420427Y-45184808D01*
X74374874Y-45404777D01*
X74368993Y-45629336D01*
X74372120Y-45649770D01*
X74391414Y-45775853D01*
X74402972Y-45851387D01*
X74404788Y-45856690D01*
X74404789Y-45856694D01*
X74471587Y-46051796D01*
X74475735Y-46063912D01*
X74501212Y-46109685D01*
X74514649Y-46133826D01*
X74530302Y-46203076D01*
X74506030Y-46269795D01*
X74449541Y-46312800D01*
X74378768Y-46318438D01*
X74315459Y-46284200D01*
X73923348Y-45892089D01*
X73889322Y-45829777D01*
X73887700Y-45785241D01*
X73906980Y-45649770D01*
X73911768Y-45616126D01*
X73913317Y-45556984D01*
X73913405Y-45553631D01*
X73913405Y-45553629D01*
X73913500Y-45550000D01*
X73893531Y-45326253D01*
X73834256Y-45109579D01*
X73768457Y-44971627D01*
X73739965Y-44911893D01*
X73739964Y-44911892D01*
X73737548Y-44906826D01*
X73734270Y-44902264D01*
X73609740Y-44728963D01*
X73609738Y-44728961D01*
X73606463Y-44724403D01*
X73445146Y-44568076D01*
X73258696Y-44442787D01*
X73161865Y-44400281D01*
X73058152Y-44354754D01*
X73058148Y-44354753D01*
X73053005Y-44352495D01*
X73047550Y-44351185D01*
X73047546Y-44351184D01*
X72840030Y-44301363D01*
X72840026Y-44301362D01*
X72834576Y-44300054D01*
X72789144Y-44297434D01*
X72615920Y-44287446D01*
X72615917Y-44287446D01*
X72610313Y-44287123D01*
X72606013Y-44287643D01*
X72597373Y-44287530D01*
X72596836Y-44287499D01*
X72595919Y-44287446D01*
X72595917Y-44287446D01*
X72590313Y-44287123D01*
X72367304Y-44314111D01*
X72361942Y-44315761D01*
X72361940Y-44315761D01*
X72278177Y-44341530D01*
X72152598Y-44380163D01*
X72147618Y-44382733D01*
X72147614Y-44382735D01*
X72031266Y-44442787D01*
X71952983Y-44483192D01*
X71774767Y-44619941D01*
X71623584Y-44786089D01*
X71620602Y-44790843D01*
X71550708Y-44902264D01*
X71504213Y-44976383D01*
X71420427Y-45184808D01*
X71374874Y-45404777D01*
X71368993Y-45629336D01*
X71372120Y-45649770D01*
X71391414Y-45775853D01*
X71402972Y-45851387D01*
X71404788Y-45856690D01*
X71404789Y-45856694D01*
X71471587Y-46051796D01*
X71475735Y-46063912D01*
X71584984Y-46260192D01*
X71588535Y-46264530D01*
X71588538Y-46264535D01*
X71711625Y-46414918D01*
X71727264Y-46434025D01*
X71731527Y-46437666D01*
X71731532Y-46437671D01*
X71831821Y-46523325D01*
X71898078Y-46579914D01*
X71955778Y-46613631D01*
X72087181Y-46690417D01*
X72087184Y-46690418D01*
X72092028Y-46693249D01*
X72097298Y-46695178D01*
X72097299Y-46695178D01*
X72297718Y-46768521D01*
X72297722Y-46768522D01*
X72302982Y-46770447D01*
X72308499Y-46771410D01*
X72308503Y-46771411D01*
X72476052Y-46800653D01*
X72524273Y-46809069D01*
X72543100Y-46808970D01*
X72543886Y-46809001D01*
X72544273Y-46809069D01*
X72545447Y-46809063D01*
X72545451Y-46809063D01*
X72610124Y-46808724D01*
X72768906Y-46807893D01*
X72774422Y-46806871D01*
X72774429Y-46806870D01*
X72878973Y-46787494D01*
X72949598Y-46794747D01*
X72991029Y-46822289D01*
X73254605Y-47085865D01*
X73288631Y-47148177D01*
X73291510Y-47174960D01*
X73291510Y-49891908D01*
X73271508Y-49960029D01*
X73217852Y-50006522D01*
X73147578Y-50016626D01*
X73136095Y-50014426D01*
X73040041Y-49991365D01*
X73040030Y-49991363D01*
X73034576Y-49990054D01*
X72989144Y-49987434D01*
X72815920Y-49977446D01*
X72815917Y-49977446D01*
X72810313Y-49977123D01*
X72587304Y-50004111D01*
X72587270Y-50004121D01*
X72547438Y-50005669D01*
X72419515Y-49988714D01*
X72419510Y-49988714D01*
X72414230Y-49988014D01*
X72408900Y-49988214D01*
X72408899Y-49988214D01*
X72304984Y-49992115D01*
X72183831Y-49996663D01*
X72136844Y-50006522D01*
X71963411Y-50042912D01*
X71963408Y-50042913D01*
X71958184Y-50044009D01*
X71743740Y-50128697D01*
X71546631Y-50248306D01*
X71542601Y-50251803D01*
X71446765Y-50334965D01*
X71372492Y-50399415D01*
X71369105Y-50403546D01*
X71343451Y-50434833D01*
X71284791Y-50474828D01*
X71213821Y-50476759D01*
X71153073Y-50440015D01*
X71134419Y-50412909D01*
X71132687Y-50408136D01*
X71035731Y-50260253D01*
X70907355Y-50138642D01*
X70754445Y-50049825D01*
X70585204Y-49998567D01*
X70578764Y-49997992D01*
X70578763Y-49997992D01*
X70534528Y-49994044D01*
X70506022Y-49991500D01*
X70503848Y-49991500D01*
X70489125Y-49989755D01*
X70485203Y-49988567D01*
X70434165Y-49984012D01*
X70408814Y-49981749D01*
X70408808Y-49981749D01*
X70406021Y-49981500D01*
X69307115Y-49981500D01*
X69246501Y-49988567D01*
X69228617Y-49990652D01*
X69214026Y-49991500D01*
X69207114Y-49991500D01*
X69137324Y-49999637D01*
X69099091Y-50004094D01*
X69029112Y-49992115D01*
X68976719Y-49944205D01*
X68958500Y-49878942D01*
X68958500Y-48315987D01*
X68959933Y-48297037D01*
X68961935Y-48283880D01*
X68961935Y-48283876D01*
X68963035Y-48276646D01*
X68961530Y-48258136D01*
X68958915Y-48225993D01*
X68958500Y-48215778D01*
X68958500Y-48207114D01*
X68957971Y-48202570D01*
X68956917Y-48193533D01*
X68955046Y-48177485D01*
X68954616Y-48173139D01*
X68954586Y-48172760D01*
X68948699Y-48100395D01*
X68946443Y-48093431D01*
X68945257Y-48087496D01*
X68943870Y-48081626D01*
X68943022Y-48074357D01*
X68918104Y-48005709D01*
X68916689Y-48001586D01*
X68896502Y-47939271D01*
X68894202Y-47932170D01*
X68890402Y-47925907D01*
X68887892Y-47920425D01*
X68885186Y-47915021D01*
X68882687Y-47908136D01*
X68842655Y-47847077D01*
X68840318Y-47843373D01*
X68805378Y-47785792D01*
X68805375Y-47785788D01*
X68802466Y-47780994D01*
X68794249Y-47771690D01*
X68792028Y-47769106D01*
X68789745Y-47766376D01*
X68785731Y-47760253D01*
X68733868Y-47711123D01*
X68731426Y-47708745D01*
X67590708Y-46568027D01*
X67556682Y-46505715D01*
X67561747Y-46434900D01*
X67581467Y-46400154D01*
X67667199Y-46293143D01*
X67698890Y-46253587D01*
X67698893Y-46253582D01*
X67702396Y-46249210D01*
X67809583Y-46051796D01*
X67880117Y-45838521D01*
X67909888Y-45629336D01*
X68368993Y-45629336D01*
X68372120Y-45649770D01*
X68391414Y-45775853D01*
X68402972Y-45851387D01*
X68404788Y-45856690D01*
X68404789Y-45856694D01*
X68471587Y-46051796D01*
X68475735Y-46063912D01*
X68584984Y-46260192D01*
X68588535Y-46264530D01*
X68588538Y-46264535D01*
X68711625Y-46414918D01*
X68727264Y-46434025D01*
X68731527Y-46437666D01*
X68731532Y-46437671D01*
X68831821Y-46523325D01*
X68898078Y-46579914D01*
X68955778Y-46613631D01*
X69087181Y-46690417D01*
X69087184Y-46690418D01*
X69092028Y-46693249D01*
X69097298Y-46695178D01*
X69097299Y-46695178D01*
X69297718Y-46768521D01*
X69297722Y-46768522D01*
X69302982Y-46770447D01*
X69308499Y-46771410D01*
X69308503Y-46771411D01*
X69476052Y-46800653D01*
X69524273Y-46809069D01*
X69543100Y-46808970D01*
X69543886Y-46809001D01*
X69544273Y-46809069D01*
X69545447Y-46809063D01*
X69545451Y-46809063D01*
X69610124Y-46808724D01*
X69768906Y-46807893D01*
X69989780Y-46766956D01*
X70199914Y-46687553D01*
X70392667Y-46572193D01*
X70561944Y-46424523D01*
X70702396Y-46249210D01*
X70809583Y-46051796D01*
X70880117Y-45838521D01*
X70911768Y-45616126D01*
X70913317Y-45556984D01*
X70913405Y-45553631D01*
X70913405Y-45553629D01*
X70913500Y-45550000D01*
X70893531Y-45326253D01*
X70834256Y-45109579D01*
X70768457Y-44971627D01*
X70739965Y-44911893D01*
X70739964Y-44911892D01*
X70737548Y-44906826D01*
X70734270Y-44902264D01*
X70609740Y-44728963D01*
X70609738Y-44728961D01*
X70606463Y-44724403D01*
X70445146Y-44568076D01*
X70258696Y-44442787D01*
X70161865Y-44400281D01*
X70058152Y-44354754D01*
X70058148Y-44354753D01*
X70053005Y-44352495D01*
X70047550Y-44351185D01*
X70047546Y-44351184D01*
X69840030Y-44301363D01*
X69840026Y-44301362D01*
X69834576Y-44300054D01*
X69789144Y-44297434D01*
X69615920Y-44287446D01*
X69615917Y-44287446D01*
X69610313Y-44287123D01*
X69606013Y-44287643D01*
X69597373Y-44287530D01*
X69596836Y-44287499D01*
X69595919Y-44287446D01*
X69595917Y-44287446D01*
X69590313Y-44287123D01*
X69367304Y-44314111D01*
X69361942Y-44315761D01*
X69361940Y-44315761D01*
X69278177Y-44341530D01*
X69152598Y-44380163D01*
X69147618Y-44382733D01*
X69147614Y-44382735D01*
X69031266Y-44442787D01*
X68952983Y-44483192D01*
X68774767Y-44619941D01*
X68623584Y-44786089D01*
X68620602Y-44790843D01*
X68550708Y-44902264D01*
X68504213Y-44976383D01*
X68420427Y-45184808D01*
X68374874Y-45404777D01*
X68368993Y-45629336D01*
X67909888Y-45629336D01*
X67911768Y-45616126D01*
X67913317Y-45556984D01*
X67913405Y-45553631D01*
X67913405Y-45553629D01*
X67913500Y-45550000D01*
X67893531Y-45326253D01*
X67834256Y-45109579D01*
X67768457Y-44971627D01*
X67739965Y-44911893D01*
X67739964Y-44911892D01*
X67737548Y-44906826D01*
X67734270Y-44902264D01*
X67609740Y-44728963D01*
X67609738Y-44728961D01*
X67606463Y-44724403D01*
X67445146Y-44568076D01*
X67258696Y-44442787D01*
X67161865Y-44400281D01*
X67058152Y-44354754D01*
X67058148Y-44354753D01*
X67053005Y-44352495D01*
X67047550Y-44351185D01*
X67047546Y-44351184D01*
X66840030Y-44301363D01*
X66840026Y-44301362D01*
X66834576Y-44300054D01*
X66789144Y-44297434D01*
X66615920Y-44287446D01*
X66615917Y-44287446D01*
X66610313Y-44287123D01*
X66606013Y-44287643D01*
X66597373Y-44287530D01*
X66596836Y-44287499D01*
X66595919Y-44287446D01*
X66595917Y-44287446D01*
X66590313Y-44287123D01*
X66367304Y-44314111D01*
X66361942Y-44315761D01*
X66361940Y-44315761D01*
X66261774Y-44346576D01*
X66190783Y-44347488D01*
X66130569Y-44309875D01*
X66100248Y-44245679D01*
X66109448Y-44175281D01*
X66135630Y-44137051D01*
X66427416Y-43845265D01*
X66489728Y-43811239D01*
X66523912Y-43809006D01*
X66524273Y-43809069D01*
X66543100Y-43808970D01*
X66543886Y-43809001D01*
X66544273Y-43809069D01*
X66545447Y-43809063D01*
X66545451Y-43809063D01*
X66610124Y-43808724D01*
X66768906Y-43807893D01*
X66810565Y-43800172D01*
X66927182Y-43778558D01*
X66989780Y-43766956D01*
X67199914Y-43687553D01*
X67392667Y-43572193D01*
X67561944Y-43424523D01*
X67702396Y-43249210D01*
X67809583Y-43051796D01*
X67880117Y-42838521D01*
X67911768Y-42616126D01*
X67913500Y-42550000D01*
X67893531Y-42326253D01*
X67834256Y-42109579D01*
X67817602Y-42074662D01*
X67752772Y-41938744D01*
X67741499Y-41868648D01*
X67769912Y-41803585D01*
X67828991Y-41764212D01*
X67866498Y-41758500D01*
X68413113Y-41758500D01*
X68481234Y-41778502D01*
X68527727Y-41832158D01*
X68537831Y-41902432D01*
X68519851Y-41951453D01*
X68504213Y-41976383D01*
X68420427Y-42184808D01*
X68374874Y-42404777D01*
X68368993Y-42629336D01*
X68402972Y-42851387D01*
X68404789Y-42856694D01*
X68471587Y-43051796D01*
X68475735Y-43063912D01*
X68584984Y-43260192D01*
X68588535Y-43264530D01*
X68588538Y-43264535D01*
X68693395Y-43392645D01*
X68727264Y-43434025D01*
X68731527Y-43437666D01*
X68731532Y-43437671D01*
X68790814Y-43488302D01*
X68898078Y-43579914D01*
X68903760Y-43583234D01*
X69087181Y-43690417D01*
X69087184Y-43690418D01*
X69092028Y-43693249D01*
X69097298Y-43695178D01*
X69097299Y-43695178D01*
X69297718Y-43768521D01*
X69297722Y-43768522D01*
X69302982Y-43770447D01*
X69308499Y-43771410D01*
X69308503Y-43771411D01*
X69470626Y-43799706D01*
X69524273Y-43809069D01*
X69543100Y-43808970D01*
X69543886Y-43809001D01*
X69544273Y-43809069D01*
X69545447Y-43809063D01*
X69545451Y-43809063D01*
X69610124Y-43808724D01*
X69768906Y-43807893D01*
X69810565Y-43800172D01*
X69927182Y-43778558D01*
X69989780Y-43766956D01*
X70199914Y-43687553D01*
X70392667Y-43572193D01*
X70561944Y-43424523D01*
X70702396Y-43249210D01*
X70809583Y-43051796D01*
X70880117Y-42838521D01*
X70909888Y-42629336D01*
X71368993Y-42629336D01*
X71402972Y-42851387D01*
X71404789Y-42856694D01*
X71471587Y-43051796D01*
X71475735Y-43063912D01*
X71584984Y-43260192D01*
X71588535Y-43264530D01*
X71588538Y-43264535D01*
X71693395Y-43392645D01*
X71727264Y-43434025D01*
X71731527Y-43437666D01*
X71731532Y-43437671D01*
X71790814Y-43488302D01*
X71898078Y-43579914D01*
X71903760Y-43583234D01*
X72087181Y-43690417D01*
X72087184Y-43690418D01*
X72092028Y-43693249D01*
X72097298Y-43695178D01*
X72097299Y-43695178D01*
X72297718Y-43768521D01*
X72297722Y-43768522D01*
X72302982Y-43770447D01*
X72308499Y-43771410D01*
X72308503Y-43771411D01*
X72470626Y-43799706D01*
X72524273Y-43809069D01*
X72543100Y-43808970D01*
X72543886Y-43809001D01*
X72544273Y-43809069D01*
X72545447Y-43809063D01*
X72545451Y-43809063D01*
X72610124Y-43808724D01*
X72768906Y-43807893D01*
X72810565Y-43800172D01*
X72927182Y-43778558D01*
X72989780Y-43766956D01*
X73199914Y-43687553D01*
X73392667Y-43572193D01*
X73561944Y-43424523D01*
X73702396Y-43249210D01*
X73809583Y-43051796D01*
X73880117Y-42838521D01*
X73911768Y-42616126D01*
X73913500Y-42550000D01*
X73893531Y-42326253D01*
X73834256Y-42109579D01*
X73817602Y-42074662D01*
X73739965Y-41911893D01*
X73739964Y-41911892D01*
X73737548Y-41906826D01*
X73679127Y-41825525D01*
X73609740Y-41728963D01*
X73609738Y-41728961D01*
X73606463Y-41724403D01*
X73495148Y-41616531D01*
X73449174Y-41571979D01*
X73449171Y-41571977D01*
X73445146Y-41568076D01*
X73258696Y-41442787D01*
X73121894Y-41382735D01*
X73058152Y-41354754D01*
X73058148Y-41354753D01*
X73053005Y-41352495D01*
X73047550Y-41351185D01*
X73047546Y-41351184D01*
X72840030Y-41301363D01*
X72840026Y-41301362D01*
X72834576Y-41300054D01*
X72789144Y-41297434D01*
X72615920Y-41287446D01*
X72615917Y-41287446D01*
X72610313Y-41287123D01*
X72606013Y-41287643D01*
X72597373Y-41287530D01*
X72596836Y-41287499D01*
X72595919Y-41287446D01*
X72595917Y-41287446D01*
X72590313Y-41287123D01*
X72367304Y-41314111D01*
X72361942Y-41315761D01*
X72361940Y-41315761D01*
X72351662Y-41318923D01*
X72152598Y-41380163D01*
X72147618Y-41382733D01*
X72147614Y-41382735D01*
X71979348Y-41469584D01*
X71952983Y-41483192D01*
X71774767Y-41619941D01*
X71623584Y-41786089D01*
X71620602Y-41790843D01*
X71548596Y-41905631D01*
X71504213Y-41976383D01*
X71420427Y-42184808D01*
X71374874Y-42404777D01*
X71368993Y-42629336D01*
X70909888Y-42629336D01*
X70911768Y-42616126D01*
X70913500Y-42550000D01*
X70893531Y-42326253D01*
X70834256Y-42109579D01*
X70817602Y-42074662D01*
X70739965Y-41911893D01*
X70739964Y-41911892D01*
X70737548Y-41906826D01*
X70679127Y-41825525D01*
X70609740Y-41728963D01*
X70609738Y-41728961D01*
X70606463Y-41724403D01*
X70495148Y-41616531D01*
X70449174Y-41571979D01*
X70449171Y-41571977D01*
X70445146Y-41568076D01*
X70258696Y-41442787D01*
X70170222Y-41403950D01*
X70115890Y-41358257D01*
X70094885Y-41290439D01*
X70113879Y-41222030D01*
X70131776Y-41199484D01*
X71789688Y-39541572D01*
X71852000Y-39507546D01*
X71922815Y-39512611D01*
X71975304Y-39549676D01*
X72038780Y-39625323D01*
X72041609Y-39628695D01*
X72250366Y-39816660D01*
X72254012Y-39819119D01*
X72479605Y-39971284D01*
X72479611Y-39971287D01*
X72483250Y-39973742D01*
X72584746Y-40023245D01*
X72731772Y-40094955D01*
X72731777Y-40094957D01*
X72735730Y-40096885D01*
X73002890Y-40183690D01*
X73128224Y-40205790D01*
X73275203Y-40231707D01*
X73275208Y-40231707D01*
X73279532Y-40232470D01*
X73283922Y-40232623D01*
X73283929Y-40232624D01*
X73555876Y-40242120D01*
X73555882Y-40242120D01*
X73560270Y-40242273D01*
X73564636Y-40241814D01*
X73564639Y-40241814D01*
X73835268Y-40213370D01*
X73835273Y-40213369D01*
X73839641Y-40212910D01*
X74112206Y-40144952D01*
X74227808Y-40098246D01*
X74368570Y-40041375D01*
X74368576Y-40041372D01*
X74372660Y-40039722D01*
X74376475Y-40037520D01*
X74376480Y-40037517D01*
X74491198Y-39971284D01*
X74615935Y-39899267D01*
X74678025Y-39850757D01*
X74833826Y-39729032D01*
X74833830Y-39729028D01*
X74837294Y-39726322D01*
X74879530Y-39682586D01*
X75029372Y-39527420D01*
X75029374Y-39527417D01*
X75032430Y-39524253D01*
X75038219Y-39516285D01*
X75194956Y-39300556D01*
X75194958Y-39300552D01*
X75197545Y-39296992D01*
X75199611Y-39293106D01*
X75199615Y-39293100D01*
X75327353Y-39052860D01*
X75327356Y-39052854D01*
X75329424Y-39048964D01*
X75409881Y-38827910D01*
X75451974Y-38770739D01*
X75518295Y-38745401D01*
X75587787Y-38759942D01*
G37*
G04 #@! TD.AperFunction*
G04 #@! TA.AperFunction,NonConductor*
G36*
X75294614Y-50544719D02*
G01*
X75297177Y-50546110D01*
X75297185Y-50546115D01*
X75347517Y-50596182D01*
X75362791Y-50665516D01*
X75347505Y-50717556D01*
X75344933Y-50722235D01*
X75294589Y-50772292D01*
X75225172Y-50787185D01*
X75158723Y-50762184D01*
X75116339Y-50705227D01*
X75108520Y-50661532D01*
X75108520Y-50655465D01*
X75128522Y-50587344D01*
X75182178Y-50540851D01*
X75252452Y-50530747D01*
X75294614Y-50544719D01*
G37*
G04 #@! TD.AperFunction*
G04 #@! TA.AperFunction,NonConductor*
G36*
X61883621Y-51433502D02*
G01*
X61930114Y-51487158D01*
X61941500Y-51539500D01*
X61941500Y-51581078D01*
X61921498Y-51649199D01*
X61906973Y-51667731D01*
X61788642Y-51792645D01*
X61784965Y-51798976D01*
X61741193Y-51874335D01*
X61689682Y-51923194D01*
X61619934Y-51936448D01*
X61554092Y-51909889D01*
X61513062Y-51851949D01*
X61507124Y-51825955D01*
X61474774Y-51554405D01*
X61486577Y-51484397D01*
X61534356Y-51431883D01*
X61599889Y-51413500D01*
X61815500Y-51413500D01*
X61883621Y-51433502D01*
G37*
G04 #@! TD.AperFunction*
G04 #@! TA.AperFunction,NonConductor*
G36*
X56784655Y-53159029D02*
G01*
X56819865Y-53220679D01*
X56823271Y-53248426D01*
X56829982Y-53859115D01*
X56810730Y-53927452D01*
X56757589Y-53974532D01*
X56703990Y-53986500D01*
X56134500Y-53986500D01*
X56066379Y-53966498D01*
X56019886Y-53912842D01*
X56008500Y-53860500D01*
X56008500Y-53337614D01*
X56028502Y-53269493D01*
X56082158Y-53223000D01*
X56135795Y-53212650D01*
X56135770Y-53211986D01*
X56141104Y-53211786D01*
X56141109Y-53211786D01*
X56311676Y-53205383D01*
X56366169Y-53203337D01*
X56448632Y-53186034D01*
X56586589Y-53157088D01*
X56586592Y-53157087D01*
X56591816Y-53155991D01*
X56650998Y-53132619D01*
X56721704Y-53126201D01*
X56784655Y-53159029D01*
G37*
G04 #@! TD.AperFunction*
G04 #@! TA.AperFunction,NonConductor*
G36*
X52338101Y-47340202D02*
G01*
X52357930Y-47356174D01*
X52442276Y-47439498D01*
X52449156Y-47446295D01*
X52452778Y-47448972D01*
X52452779Y-47448973D01*
X53736475Y-48397792D01*
X55913609Y-50006978D01*
X55914193Y-50007410D01*
X55957085Y-50063985D01*
X55962581Y-50134769D01*
X55928936Y-50197287D01*
X55865175Y-50232051D01*
X55808184Y-50244009D01*
X55593740Y-50328697D01*
X55396631Y-50448306D01*
X55392601Y-50451803D01*
X55234256Y-50589207D01*
X55222492Y-50599415D01*
X55219105Y-50603546D01*
X55193451Y-50634833D01*
X55134791Y-50674828D01*
X55063821Y-50676759D01*
X55003073Y-50640015D01*
X54984419Y-50612909D01*
X54982687Y-50608136D01*
X54885731Y-50460253D01*
X54757355Y-50338642D01*
X54604445Y-50249825D01*
X54435204Y-50198567D01*
X54428764Y-50197992D01*
X54428763Y-50197992D01*
X54358815Y-50191749D01*
X54358809Y-50191749D01*
X54356022Y-50191500D01*
X53057114Y-50191500D01*
X52961894Y-50202602D01*
X52931629Y-50206130D01*
X52931628Y-50206130D01*
X52924357Y-50206978D01*
X52917479Y-50209474D01*
X52917477Y-50209475D01*
X52796185Y-50253502D01*
X52758136Y-50267313D01*
X52610253Y-50364269D01*
X52488642Y-50492645D01*
X52399825Y-50645555D01*
X52348567Y-50814796D01*
X52341500Y-50893978D01*
X52341500Y-52492886D01*
X52356978Y-52625643D01*
X52359474Y-52632521D01*
X52359475Y-52632523D01*
X52374670Y-52674384D01*
X52417313Y-52791864D01*
X52448704Y-52839743D01*
X52497983Y-52914906D01*
X52514269Y-52939747D01*
X52642645Y-53061358D01*
X52795555Y-53150175D01*
X52964796Y-53201433D01*
X52971236Y-53202008D01*
X52971237Y-53202008D01*
X53041185Y-53208251D01*
X53041191Y-53208251D01*
X53043978Y-53208500D01*
X54012918Y-53208500D01*
X54081039Y-53228502D01*
X54102013Y-53245405D01*
X54354595Y-53497987D01*
X54388621Y-53560299D01*
X54391500Y-53587082D01*
X54391500Y-54091482D01*
X54371498Y-54159603D01*
X54317842Y-54206096D01*
X54247568Y-54216200D01*
X54182988Y-54186706D01*
X54170276Y-54173995D01*
X54167948Y-54171308D01*
X54163077Y-54163729D01*
X54156267Y-54157828D01*
X54059431Y-54073918D01*
X54059428Y-54073916D01*
X54052619Y-54068016D01*
X54038040Y-54061358D01*
X53927864Y-54011042D01*
X53927863Y-54011042D01*
X53919670Y-54007300D01*
X53910755Y-54006018D01*
X53910754Y-54006018D01*
X53779448Y-53987139D01*
X53779441Y-53987138D01*
X53775000Y-53986500D01*
X52625000Y-53986500D01*
X52622487Y-53986701D01*
X52622486Y-53986701D01*
X52550391Y-53992466D01*
X52550389Y-53992466D01*
X52543391Y-53993026D01*
X52516042Y-54001558D01*
X52460587Y-54005994D01*
X52329448Y-53987139D01*
X52329441Y-53987138D01*
X52325000Y-53986500D01*
X51325000Y-53986500D01*
X51251921Y-53991727D01*
X51206000Y-54005211D01*
X51169498Y-54015928D01*
X51098501Y-54015928D01*
X51038775Y-53977544D01*
X51009282Y-53912963D01*
X51008000Y-53895032D01*
X51008000Y-47501462D01*
X51028002Y-47433341D01*
X51081658Y-47386848D01*
X51151932Y-47376744D01*
X51195470Y-47391474D01*
X51244246Y-47418734D01*
X51432366Y-47479857D01*
X51628775Y-47503278D01*
X51634910Y-47502806D01*
X51634912Y-47502806D01*
X51819850Y-47488576D01*
X51819854Y-47488575D01*
X51825992Y-47488103D01*
X52016507Y-47434910D01*
X52131655Y-47376744D01*
X52187565Y-47348502D01*
X52187567Y-47348501D01*
X52193060Y-47345726D01*
X52197913Y-47341934D01*
X52201862Y-47339428D01*
X52270095Y-47319813D01*
X52338101Y-47340202D01*
G37*
G04 #@! TD.AperFunction*
G04 #@! TA.AperFunction,NonConductor*
G36*
X61979103Y-54082534D02*
G01*
X62070955Y-54135886D01*
X62119813Y-54187397D01*
X62133067Y-54257146D01*
X62106507Y-54322987D01*
X62094641Y-54336010D01*
X62017871Y-54409245D01*
X61954774Y-54441792D01*
X61884097Y-54435061D01*
X61828280Y-54391187D01*
X61805784Y-54332980D01*
X61790704Y-54206394D01*
X61802507Y-54136385D01*
X61850286Y-54083872D01*
X61918872Y-54065526D01*
X61979103Y-54082534D01*
G37*
G04 #@! TD.AperFunction*
G04 #@! TA.AperFunction,NonConductor*
G36*
X64704567Y-53887949D02*
G01*
X64738612Y-53950251D01*
X64741500Y-53977073D01*
X64741500Y-54656090D01*
X64721498Y-54724211D01*
X64667842Y-54770704D01*
X64597568Y-54780808D01*
X64532988Y-54751314D01*
X64507781Y-54721456D01*
X64404461Y-54551191D01*
X64401694Y-54546631D01*
X64347046Y-54483654D01*
X64254085Y-54376525D01*
X64254083Y-54376523D01*
X64250585Y-54372492D01*
X64215167Y-54343451D01*
X64175172Y-54284791D01*
X64173241Y-54213821D01*
X64209985Y-54153073D01*
X64237091Y-54134419D01*
X64241864Y-54132687D01*
X64375544Y-54045043D01*
X64383628Y-54039743D01*
X64383629Y-54039742D01*
X64389747Y-54035731D01*
X64511358Y-53907355D01*
X64514776Y-53901470D01*
X64571430Y-53859031D01*
X64642244Y-53853944D01*
X64704567Y-53887949D01*
G37*
G04 #@! TD.AperFunction*
G04 #@! TA.AperFunction,NonConductor*
G36*
X66434237Y-50606142D02*
G01*
X66495094Y-50632288D01*
X66553726Y-50645555D01*
X66694454Y-50677399D01*
X66694460Y-50677400D01*
X66700091Y-50678674D01*
X66705862Y-50678901D01*
X66705864Y-50678901D01*
X66768342Y-50681356D01*
X66910108Y-50686926D01*
X67014110Y-50671846D01*
X67112398Y-50657596D01*
X67112403Y-50657595D01*
X67118112Y-50656767D01*
X67123576Y-50654912D01*
X67123581Y-50654911D01*
X67274999Y-50603511D01*
X67345934Y-50600555D01*
X67407206Y-50636418D01*
X67439363Y-50699715D01*
X67441500Y-50722824D01*
X67441500Y-55964629D01*
X67421498Y-56032750D01*
X67367842Y-56079243D01*
X67297568Y-56089347D01*
X67232988Y-56059853D01*
X67226405Y-56053724D01*
X66295405Y-55122724D01*
X66261379Y-55060412D01*
X66258500Y-55033629D01*
X66258500Y-50721910D01*
X66278502Y-50653789D01*
X66332158Y-50607296D01*
X66402432Y-50597192D01*
X66434237Y-50606142D01*
G37*
G04 #@! TD.AperFunction*
G04 #@! TA.AperFunction,NonConductor*
G36*
X56802650Y-56533502D02*
G01*
X56849143Y-56587158D01*
X56860521Y-56638116D01*
X56867207Y-57246601D01*
X56847955Y-57314937D01*
X56794813Y-57362017D01*
X56724655Y-57372892D01*
X56703859Y-57368320D01*
X56542792Y-57318307D01*
X56437798Y-57304391D01*
X56319515Y-57288714D01*
X56319510Y-57288714D01*
X56314230Y-57288014D01*
X56308900Y-57288214D01*
X56308899Y-57288214D01*
X56139226Y-57294583D01*
X56070403Y-57277151D01*
X56021930Y-57225277D01*
X56008500Y-57168672D01*
X56008500Y-56639500D01*
X56028502Y-56571379D01*
X56082158Y-56524886D01*
X56134500Y-56513500D01*
X56734529Y-56513500D01*
X56802650Y-56533502D01*
G37*
G04 #@! TD.AperFunction*
G04 #@! TA.AperFunction,NonConductor*
G36*
X71322987Y-52543493D02*
G01*
X71336010Y-52555359D01*
X71378273Y-52599662D01*
X71446518Y-52671201D01*
X71631496Y-52808829D01*
X71636247Y-52811245D01*
X71636251Y-52811247D01*
X71673960Y-52830419D01*
X71837018Y-52913322D01*
X71925766Y-52940879D01*
X72052105Y-52980109D01*
X72052111Y-52980110D01*
X72057208Y-52981693D01*
X72142686Y-52993022D01*
X72280485Y-53011286D01*
X72280490Y-53011286D01*
X72285770Y-53011986D01*
X72291100Y-53011786D01*
X72291101Y-53011786D01*
X72378633Y-53008500D01*
X72516169Y-53003337D01*
X72521385Y-53002243D01*
X72521390Y-53002242D01*
X72553392Y-52995527D01*
X72608679Y-52996323D01*
X72659213Y-53008455D01*
X72665424Y-53009946D01*
X72752157Y-53014947D01*
X72884080Y-53022554D01*
X72884083Y-53022554D01*
X72889687Y-53022877D01*
X73112696Y-52995889D01*
X73128461Y-52991039D01*
X73199451Y-52990127D01*
X73259666Y-53027739D01*
X73289987Y-53091936D01*
X73291510Y-53111469D01*
X73291510Y-57015500D01*
X73271508Y-57083621D01*
X73217852Y-57130114D01*
X73165510Y-57141500D01*
X71632114Y-57141500D01*
X71536894Y-57152602D01*
X71506629Y-57156130D01*
X71506628Y-57156130D01*
X71499357Y-57156978D01*
X71492479Y-57159474D01*
X71492477Y-57159475D01*
X71387161Y-57197703D01*
X71333136Y-57217313D01*
X71266412Y-57261059D01*
X71196374Y-57306978D01*
X71185253Y-57314269D01*
X71063642Y-57442645D01*
X71019234Y-57519100D01*
X70996560Y-57558136D01*
X70974825Y-57595555D01*
X70972703Y-57602560D01*
X70972703Y-57602561D01*
X70957723Y-57652022D01*
X70918834Y-57711421D01*
X70854005Y-57740365D01*
X70837132Y-57741500D01*
X70666371Y-57741500D01*
X70598250Y-57721498D01*
X70577276Y-57704595D01*
X68995405Y-56122724D01*
X68961379Y-56060412D01*
X68958500Y-56033629D01*
X68958500Y-53123231D01*
X68978502Y-53055110D01*
X69032158Y-53008617D01*
X69108488Y-52999535D01*
X69108603Y-52999557D01*
X69114796Y-53001433D01*
X69193978Y-53008500D01*
X69196152Y-53008500D01*
X69210875Y-53010245D01*
X69214797Y-53011433D01*
X69265835Y-53015988D01*
X69291186Y-53018251D01*
X69291192Y-53018251D01*
X69293979Y-53018500D01*
X70392885Y-53018500D01*
X70471382Y-53009348D01*
X70485974Y-53008500D01*
X70492886Y-53008500D01*
X70588106Y-52997398D01*
X70618371Y-52993870D01*
X70618372Y-52993870D01*
X70625643Y-52993022D01*
X70632521Y-52990526D01*
X70632523Y-52990525D01*
X70784985Y-52935184D01*
X70791864Y-52932687D01*
X70939747Y-52835731D01*
X71061358Y-52707355D01*
X71135886Y-52579045D01*
X71187397Y-52530187D01*
X71257146Y-52516933D01*
X71322987Y-52543493D01*
G37*
G04 #@! TD.AperFunction*
G04 #@! TA.AperFunction,NonConductor*
G36*
X64765724Y-55696508D02*
G01*
X64816820Y-55742187D01*
X64817313Y-55741864D01*
X64818972Y-55744394D01*
X64857335Y-55802907D01*
X64859682Y-55806627D01*
X64894622Y-55864208D01*
X64894625Y-55864212D01*
X64897534Y-55869006D01*
X64901249Y-55873212D01*
X64905751Y-55878310D01*
X64907972Y-55880894D01*
X64910255Y-55883624D01*
X64914269Y-55889747D01*
X64919584Y-55894782D01*
X64966132Y-55938877D01*
X64968574Y-55941255D01*
X66829138Y-57801819D01*
X66863164Y-57864131D01*
X66858099Y-57934946D01*
X66815552Y-57991782D01*
X66761382Y-58015094D01*
X66612746Y-58040634D01*
X66415558Y-58113381D01*
X66410597Y-58116333D01*
X66410596Y-58116333D01*
X66239897Y-58217888D01*
X66239894Y-58217890D01*
X66234929Y-58220844D01*
X66230589Y-58224650D01*
X66230585Y-58224653D01*
X66081249Y-58355618D01*
X66076908Y-58359425D01*
X65957567Y-58510807D01*
X65899688Y-58551919D01*
X65828768Y-58555213D01*
X65799762Y-58544208D01*
X65750062Y-58517951D01*
X62757273Y-56936855D01*
X62706384Y-56887349D01*
X62690339Y-56818189D01*
X62714232Y-56751334D01*
X62770476Y-56708009D01*
X62838550Y-56701458D01*
X62867596Y-56706710D01*
X62871683Y-56707449D01*
X62875822Y-56707644D01*
X62875829Y-56707645D01*
X62892481Y-56708430D01*
X62892490Y-56708430D01*
X62893970Y-56708500D01*
X63358928Y-56708500D01*
X63425296Y-56702869D01*
X63524424Y-56694458D01*
X63524428Y-56694457D01*
X63529735Y-56694007D01*
X63534892Y-56692669D01*
X63534895Y-56692668D01*
X63678818Y-56655313D01*
X63752902Y-56636084D01*
X63757768Y-56633892D01*
X63757771Y-56633891D01*
X63958257Y-56543578D01*
X63958259Y-56543577D01*
X63963118Y-56541388D01*
X64154374Y-56412627D01*
X64321201Y-56253482D01*
X64458829Y-56068504D01*
X64462944Y-56060412D01*
X64560903Y-55867740D01*
X64560903Y-55867739D01*
X64563322Y-55862982D01*
X64591283Y-55772933D01*
X64630586Y-55713808D01*
X64695615Y-55685318D01*
X64765724Y-55696508D01*
G37*
G04 #@! TD.AperFunction*
G04 #@! TA.AperFunction,NonConductor*
G36*
X75317032Y-53821383D02*
G01*
X75342972Y-53852464D01*
X75352017Y-53867759D01*
X75360710Y-53885503D01*
X75368601Y-53905434D01*
X75384598Y-53927452D01*
X75395743Y-53942792D01*
X75402258Y-53952710D01*
X75425762Y-53992453D01*
X75428205Y-53995225D01*
X75441791Y-54008811D01*
X75454626Y-54023838D01*
X75466359Y-54039987D01*
X75472468Y-54045041D01*
X75472470Y-54045043D01*
X75500047Y-54067857D01*
X75508827Y-54075847D01*
X77008624Y-55575643D01*
X78425844Y-56992863D01*
X78459870Y-57055175D01*
X78454805Y-57125990D01*
X78412258Y-57182826D01*
X78379739Y-57200397D01*
X78340017Y-57214815D01*
X78340015Y-57214816D01*
X78333136Y-57217313D01*
X78266412Y-57261059D01*
X78196374Y-57306978D01*
X78185253Y-57314269D01*
X78063642Y-57442645D01*
X77974825Y-57595555D01*
X77923567Y-57764796D01*
X77922992Y-57771236D01*
X77922992Y-57771237D01*
X77920263Y-57801819D01*
X77916500Y-57843978D01*
X77916500Y-59142886D01*
X77931978Y-59275643D01*
X77992313Y-59441864D01*
X78089269Y-59589747D01*
X78217645Y-59711358D01*
X78345955Y-59785886D01*
X78394813Y-59837397D01*
X78408067Y-59907146D01*
X78381507Y-59972987D01*
X78369641Y-59986010D01*
X78332326Y-60021607D01*
X78253799Y-60096518D01*
X78250616Y-60100796D01*
X78139475Y-60250175D01*
X78116171Y-60281496D01*
X78115561Y-60282696D01*
X78063555Y-60329252D01*
X78009367Y-60341500D01*
X76932070Y-60341500D01*
X76863949Y-60321498D01*
X76842975Y-60304595D01*
X75145425Y-58607046D01*
X75111400Y-58544734D01*
X75108520Y-58517951D01*
X75108520Y-53916607D01*
X75128522Y-53848486D01*
X75182178Y-53801993D01*
X75252452Y-53791889D01*
X75317032Y-53821383D01*
G37*
G04 #@! TD.AperFunction*
G04 #@! TA.AperFunction,NonConductor*
G36*
X78082593Y-61678502D02*
G01*
X78122191Y-61719135D01*
X78170535Y-61798804D01*
X78170539Y-61798809D01*
X78173306Y-61803369D01*
X78176803Y-61807399D01*
X78234245Y-61873595D01*
X78324415Y-61977508D01*
X78328541Y-61980891D01*
X78328545Y-61980895D01*
X78431860Y-62065607D01*
X78502705Y-62123696D01*
X78507343Y-62126336D01*
X78534085Y-62141559D01*
X78583390Y-62192642D01*
X78597251Y-62262272D01*
X78571267Y-62328343D01*
X78542119Y-62355579D01*
X78420626Y-62437373D01*
X78420072Y-62436550D01*
X78359168Y-62461693D01*
X78289315Y-62449005D01*
X78256753Y-62425494D01*
X77704854Y-61873595D01*
X77670828Y-61811283D01*
X77675893Y-61740468D01*
X77718440Y-61683632D01*
X77784960Y-61658821D01*
X77793949Y-61658500D01*
X78014472Y-61658500D01*
X78082593Y-61678502D01*
G37*
G04 #@! TD.AperFunction*
G04 #@! TA.AperFunction,NonConductor*
G36*
X69367012Y-58640147D02*
G01*
X69373595Y-58646276D01*
X69716997Y-58989678D01*
X69729382Y-59004089D01*
X69741611Y-59020706D01*
X69747194Y-59025449D01*
X69780351Y-59053618D01*
X69787867Y-59060548D01*
X69793984Y-59066665D01*
X69796857Y-59068938D01*
X69796866Y-59068946D01*
X69817343Y-59085146D01*
X69820747Y-59087937D01*
X69870794Y-59130455D01*
X69876376Y-59135197D01*
X69882897Y-59138527D01*
X69887923Y-59141879D01*
X69893061Y-59145052D01*
X69898802Y-59149594D01*
X69964967Y-59180518D01*
X69968850Y-59182416D01*
X70033865Y-59215615D01*
X70040979Y-59217356D01*
X70046645Y-59219463D01*
X70052369Y-59221367D01*
X70059001Y-59224467D01*
X70130496Y-59239338D01*
X70134725Y-59240295D01*
X70205630Y-59257645D01*
X70211237Y-59257993D01*
X70211238Y-59257993D01*
X70213541Y-59258136D01*
X70218037Y-59258415D01*
X70221431Y-59258671D01*
X70224961Y-59258986D01*
X70232129Y-59260477D01*
X70303494Y-59258546D01*
X70306902Y-59258500D01*
X70837447Y-59258500D01*
X70905568Y-59278502D01*
X70952061Y-59332158D01*
X70955886Y-59341509D01*
X70992313Y-59441864D01*
X71089269Y-59589747D01*
X71217645Y-59711358D01*
X71345955Y-59785886D01*
X71394813Y-59837397D01*
X71408067Y-59907146D01*
X71381507Y-59972987D01*
X71369641Y-59986010D01*
X71332326Y-60021607D01*
X71253799Y-60096518D01*
X71250616Y-60100796D01*
X71202821Y-60165035D01*
X71116171Y-60281496D01*
X71113755Y-60286247D01*
X71113753Y-60286251D01*
X71014097Y-60482260D01*
X71011678Y-60487018D01*
X70977492Y-60597113D01*
X70944891Y-60702105D01*
X70944890Y-60702111D01*
X70943307Y-60707208D01*
X70913014Y-60935770D01*
X70921663Y-61166169D01*
X70969009Y-61391816D01*
X71053697Y-61606260D01*
X71173306Y-61803369D01*
X71176803Y-61807399D01*
X71234245Y-61873595D01*
X71324415Y-61977508D01*
X71328541Y-61980891D01*
X71328545Y-61980895D01*
X71431860Y-62065607D01*
X71502705Y-62123696D01*
X71507343Y-62126336D01*
X71534085Y-62141559D01*
X71583390Y-62192642D01*
X71597251Y-62262272D01*
X71571267Y-62328343D01*
X71542119Y-62355579D01*
X71420626Y-62437373D01*
X71416769Y-62441052D01*
X71416767Y-62441054D01*
X71374238Y-62481625D01*
X71253799Y-62596518D01*
X71116171Y-62781496D01*
X71113755Y-62786247D01*
X71113753Y-62786251D01*
X71029576Y-62951815D01*
X71011678Y-62987018D01*
X70943307Y-63207208D01*
X70941320Y-63206591D01*
X70911484Y-63260971D01*
X70849104Y-63294871D01*
X70778298Y-63289664D01*
X70733473Y-63260792D01*
X69195405Y-61722724D01*
X69161379Y-61660412D01*
X69158500Y-61633629D01*
X69158500Y-58735371D01*
X69178502Y-58667250D01*
X69232158Y-58620757D01*
X69302432Y-58610653D01*
X69367012Y-58640147D01*
G37*
G04 #@! TD.AperFunction*
G04 #@! TA.AperFunction,NonConductor*
G36*
X82016453Y-54365658D02*
G01*
X82070865Y-54411264D01*
X82092000Y-54481116D01*
X82092000Y-67952114D01*
X82090500Y-67971497D01*
X82087038Y-67993733D01*
X82087555Y-67997687D01*
X82087269Y-67999999D01*
X82087000Y-67999999D01*
X82086508Y-68012534D01*
X82084249Y-68070013D01*
X82082795Y-68084773D01*
X82062945Y-68210108D01*
X82061280Y-68220619D01*
X82056666Y-68239838D01*
X82029353Y-68323897D01*
X82014933Y-68368278D01*
X82007367Y-68386543D01*
X81991282Y-68418112D01*
X81966032Y-68467670D01*
X81946059Y-68506869D01*
X81935730Y-68523725D01*
X81924906Y-68538623D01*
X81856348Y-68632985D01*
X81843507Y-68648019D01*
X81748019Y-68743507D01*
X81732986Y-68756347D01*
X81651278Y-68815712D01*
X81623728Y-68835728D01*
X81606872Y-68846057D01*
X81548277Y-68875913D01*
X81486543Y-68907367D01*
X81468278Y-68914933D01*
X81339838Y-68956666D01*
X81320622Y-68961279D01*
X81184773Y-68982795D01*
X81170016Y-68984249D01*
X81131683Y-68985755D01*
X81114477Y-68986431D01*
X81114476Y-68986431D01*
X81099999Y-68987000D01*
X81099999Y-68988804D01*
X81080495Y-68992000D01*
X81072378Y-68992000D01*
X81071608Y-68991998D01*
X81071052Y-68991995D01*
X81030378Y-68991746D01*
X81029546Y-68991984D01*
X81029308Y-68992000D01*
X67963753Y-68992000D01*
X67895632Y-68971998D01*
X67849139Y-68918342D01*
X67839035Y-68848068D01*
X67857414Y-68801025D01*
X67856509Y-68800518D01*
X67949957Y-68633654D01*
X67959207Y-68617137D01*
X67996638Y-68506869D01*
X68024911Y-68423581D01*
X68024912Y-68423576D01*
X68026767Y-68418112D01*
X68027595Y-68412403D01*
X68027596Y-68412398D01*
X68056393Y-68213782D01*
X68056926Y-68210108D01*
X68058500Y-68150000D01*
X68039268Y-67940702D01*
X68032082Y-67915220D01*
X67999673Y-67800308D01*
X67982217Y-67738414D01*
X67889257Y-67549910D01*
X67855391Y-67504557D01*
X67766955Y-67386127D01*
X67766954Y-67386126D01*
X67763502Y-67381503D01*
X67614356Y-67243634D01*
X67577911Y-67182705D01*
X67580192Y-67111745D01*
X67620474Y-67053283D01*
X67685969Y-67025880D01*
X67726773Y-67028040D01*
X67732366Y-67029857D01*
X67928775Y-67053278D01*
X67934910Y-67052806D01*
X67934912Y-67052806D01*
X68119850Y-67038576D01*
X68119854Y-67038575D01*
X68125992Y-67038103D01*
X68316507Y-66984910D01*
X68493060Y-66895726D01*
X68519279Y-66875242D01*
X68644073Y-66777742D01*
X68648929Y-66773948D01*
X68671303Y-66748028D01*
X68774147Y-66628882D01*
X68774148Y-66628880D01*
X68778176Y-66624214D01*
X68875878Y-66452228D01*
X68938314Y-66264539D01*
X68963105Y-66068299D01*
X68963500Y-66040000D01*
X68944198Y-65843143D01*
X68887027Y-65653785D01*
X68794166Y-65479138D01*
X68720796Y-65389177D01*
X68673045Y-65330628D01*
X68673042Y-65330625D01*
X68669150Y-65325853D01*
X68664401Y-65321924D01*
X68521491Y-65203698D01*
X68521486Y-65203695D01*
X68516742Y-65199770D01*
X68511323Y-65196840D01*
X68511320Y-65196838D01*
X68348165Y-65108621D01*
X68348161Y-65108619D01*
X68342747Y-65105692D01*
X68336867Y-65103872D01*
X68336865Y-65103871D01*
X68287317Y-65088533D01*
X68153792Y-65047200D01*
X68147674Y-65046557D01*
X68147669Y-65046556D01*
X67963205Y-65027169D01*
X67963203Y-65027169D01*
X67957076Y-65026525D01*
X67874226Y-65034065D01*
X67766228Y-65043893D01*
X67766225Y-65043894D01*
X67760089Y-65044452D01*
X67754183Y-65046190D01*
X67754179Y-65046191D01*
X67612779Y-65087808D01*
X67570336Y-65100299D01*
X67395045Y-65191939D01*
X67240891Y-65315882D01*
X67236933Y-65320599D01*
X67236931Y-65320601D01*
X67225205Y-65334576D01*
X67113747Y-65467406D01*
X67110783Y-65472798D01*
X67110780Y-65472802D01*
X67063859Y-65558152D01*
X67018456Y-65640740D01*
X67016595Y-65646607D01*
X67016594Y-65646609D01*
X66960946Y-65822034D01*
X66958647Y-65829282D01*
X66936599Y-66025849D01*
X66953150Y-66222956D01*
X66974639Y-66297895D01*
X67002996Y-66396786D01*
X67007672Y-66413094D01*
X67098086Y-66589021D01*
X67220949Y-66744036D01*
X67225636Y-66748025D01*
X67225639Y-66748028D01*
X67250615Y-66769284D01*
X67314344Y-66823521D01*
X67314580Y-66823722D01*
X67353493Y-66883105D01*
X67354124Y-66954099D01*
X67316272Y-67014163D01*
X67251956Y-67044229D01*
X67208336Y-67043255D01*
X67035719Y-67008919D01*
X67035714Y-67008919D01*
X67030051Y-67007792D01*
X67024276Y-67007716D01*
X67024272Y-67007716D01*
X66918597Y-67006333D01*
X66819890Y-67005040D01*
X66814193Y-67006019D01*
X66814192Y-67006019D01*
X66618443Y-67039655D01*
X66612746Y-67040634D01*
X66415558Y-67113381D01*
X66410597Y-67116333D01*
X66410596Y-67116333D01*
X66239897Y-67217888D01*
X66239894Y-67217890D01*
X66234929Y-67220844D01*
X66230589Y-67224650D01*
X66230585Y-67224653D01*
X66081249Y-67355618D01*
X66076908Y-67359425D01*
X65946787Y-67524482D01*
X65944098Y-67529593D01*
X65944096Y-67529596D01*
X65906800Y-67600485D01*
X65848924Y-67710488D01*
X65847210Y-67716009D01*
X65847208Y-67716013D01*
X65821034Y-67800308D01*
X65786597Y-67911213D01*
X65761894Y-68119936D01*
X65775640Y-68329665D01*
X65827376Y-68533377D01*
X65915370Y-68724250D01*
X65964157Y-68793282D01*
X65987137Y-68860454D01*
X65970153Y-68929389D01*
X65918596Y-68978198D01*
X65861259Y-68992000D01*
X56016541Y-68992000D01*
X55948420Y-68971998D01*
X55901927Y-68918342D01*
X55891823Y-68848068D01*
X55921317Y-68783488D01*
X55943283Y-68763485D01*
X56118935Y-68637962D01*
X56118936Y-68637961D01*
X56121742Y-68635956D01*
X56392998Y-68392998D01*
X56635956Y-68121742D01*
X56667616Y-68077439D01*
X56845673Y-67828272D01*
X56845673Y-67828271D01*
X56847681Y-67825462D01*
X56923923Y-67689322D01*
X57023926Y-67510753D01*
X57023929Y-67510746D01*
X57025614Y-67507738D01*
X57167608Y-67172408D01*
X57271948Y-66823521D01*
X57274893Y-66807399D01*
X57336750Y-66468698D01*
X57336750Y-66468697D01*
X57337372Y-66465292D01*
X57338712Y-66446375D01*
X57362950Y-66104039D01*
X57362950Y-66104035D01*
X57363091Y-66102046D01*
X57363500Y-66050000D01*
X57362171Y-66025849D01*
X60936599Y-66025849D01*
X60953150Y-66222956D01*
X60974639Y-66297895D01*
X61002996Y-66396786D01*
X61007672Y-66413094D01*
X61098086Y-66589021D01*
X61220949Y-66744036D01*
X61225636Y-66748025D01*
X61225639Y-66748028D01*
X61318248Y-66826844D01*
X61371582Y-66872235D01*
X61376960Y-66875241D01*
X61376962Y-66875242D01*
X61518060Y-66954099D01*
X61544246Y-66968734D01*
X61732366Y-67029857D01*
X61928775Y-67053278D01*
X61934910Y-67052806D01*
X61934912Y-67052806D01*
X62119850Y-67038576D01*
X62119854Y-67038575D01*
X62125992Y-67038103D01*
X62316507Y-66984910D01*
X62493060Y-66895726D01*
X62519279Y-66875242D01*
X62644073Y-66777742D01*
X62648929Y-66773948D01*
X62671303Y-66748028D01*
X62774147Y-66628882D01*
X62774148Y-66628880D01*
X62778176Y-66624214D01*
X62875878Y-66452228D01*
X62938314Y-66264539D01*
X62963105Y-66068299D01*
X62963500Y-66040000D01*
X62944198Y-65843143D01*
X62887027Y-65653785D01*
X62794166Y-65479138D01*
X62720796Y-65389177D01*
X62673045Y-65330628D01*
X62673042Y-65330625D01*
X62669150Y-65325853D01*
X62664401Y-65321924D01*
X62521491Y-65203698D01*
X62521486Y-65203695D01*
X62516742Y-65199770D01*
X62511323Y-65196840D01*
X62511320Y-65196838D01*
X62348165Y-65108621D01*
X62348161Y-65108619D01*
X62342747Y-65105692D01*
X62336867Y-65103872D01*
X62336865Y-65103871D01*
X62287317Y-65088533D01*
X62153792Y-65047200D01*
X62147674Y-65046557D01*
X62147669Y-65046556D01*
X61963205Y-65027169D01*
X61963203Y-65027169D01*
X61957076Y-65026525D01*
X61874226Y-65034065D01*
X61766228Y-65043893D01*
X61766225Y-65043894D01*
X61760089Y-65044452D01*
X61754183Y-65046190D01*
X61754179Y-65046191D01*
X61612779Y-65087808D01*
X61570336Y-65100299D01*
X61395045Y-65191939D01*
X61240891Y-65315882D01*
X61236933Y-65320599D01*
X61236931Y-65320601D01*
X61225205Y-65334576D01*
X61113747Y-65467406D01*
X61110783Y-65472798D01*
X61110780Y-65472802D01*
X61063859Y-65558152D01*
X61018456Y-65640740D01*
X61016595Y-65646607D01*
X61016594Y-65646609D01*
X60960946Y-65822034D01*
X60958647Y-65829282D01*
X60936599Y-66025849D01*
X57362171Y-66025849D01*
X57343490Y-65686395D01*
X57339045Y-65659685D01*
X57298826Y-65418060D01*
X57283700Y-65327182D01*
X57184854Y-64976700D01*
X57048144Y-64639180D01*
X56960911Y-64477508D01*
X56876869Y-64321751D01*
X56876866Y-64321747D01*
X56875223Y-64318701D01*
X56867280Y-64307208D01*
X56670143Y-64021973D01*
X56670139Y-64021967D01*
X56668179Y-64019132D01*
X56429511Y-63744093D01*
X56354671Y-63674911D01*
X56164644Y-63499252D01*
X56162104Y-63496904D01*
X55941321Y-63333831D01*
X55871975Y-63282611D01*
X55871972Y-63282609D01*
X55869187Y-63280552D01*
X55866197Y-63278815D01*
X55866192Y-63278812D01*
X55557301Y-63099394D01*
X55557297Y-63099392D01*
X55554298Y-63097650D01*
X55221239Y-62950406D01*
X55005402Y-62882146D01*
X54877336Y-62841644D01*
X54877331Y-62841643D01*
X54874034Y-62840600D01*
X54516876Y-62769557D01*
X54513424Y-62769258D01*
X54157536Y-62738434D01*
X54157530Y-62738434D01*
X54154080Y-62738135D01*
X53985077Y-62742118D01*
X53793491Y-62746632D01*
X53793485Y-62746632D01*
X53790026Y-62746714D01*
X53429112Y-62795191D01*
X53075697Y-62882980D01*
X52734050Y-63009020D01*
X52730950Y-63010569D01*
X52411385Y-63170246D01*
X52411378Y-63170250D01*
X52408298Y-63171789D01*
X52405403Y-63173658D01*
X52405400Y-63173660D01*
X52105284Y-63367443D01*
X52102374Y-63369322D01*
X52099690Y-63371507D01*
X52099686Y-63371510D01*
X51908180Y-63527420D01*
X51819973Y-63599232D01*
X51817550Y-63601693D01*
X51817546Y-63601697D01*
X51735614Y-63684927D01*
X51564507Y-63858743D01*
X51339061Y-64144720D01*
X51337227Y-64147661D01*
X51337217Y-64147675D01*
X51240912Y-64302096D01*
X51187892Y-64349313D01*
X51117762Y-64360369D01*
X51052787Y-64331755D01*
X51013597Y-64272555D01*
X51008000Y-64235420D01*
X51008000Y-56609079D01*
X51028002Y-56540958D01*
X51081658Y-56494465D01*
X51151932Y-56484361D01*
X51169499Y-56488183D01*
X51172132Y-56488956D01*
X51180330Y-56492700D01*
X51240964Y-56501418D01*
X51320552Y-56512861D01*
X51320559Y-56512862D01*
X51325000Y-56513500D01*
X52325000Y-56513500D01*
X52326962Y-56513376D01*
X52326970Y-56513376D01*
X52345252Y-56512223D01*
X52389528Y-56509430D01*
X52435214Y-56496845D01*
X52486605Y-56493602D01*
X52584708Y-56507707D01*
X52620555Y-56512861D01*
X52620556Y-56512861D01*
X52625000Y-56513500D01*
X53775000Y-56513500D01*
X53848079Y-56508273D01*
X53929516Y-56484361D01*
X53979670Y-56469635D01*
X53979672Y-56469634D01*
X53988316Y-56467096D01*
X54073071Y-56412627D01*
X54103691Y-56392949D01*
X54103694Y-56392947D01*
X54111271Y-56388077D01*
X54170276Y-56319982D01*
X54230002Y-56281599D01*
X54300999Y-56281599D01*
X54360725Y-56319983D01*
X54390218Y-56384564D01*
X54391500Y-56402495D01*
X54391500Y-56962919D01*
X54371498Y-57031040D01*
X54354595Y-57052014D01*
X54152014Y-57254595D01*
X54089702Y-57288621D01*
X54062919Y-57291500D01*
X53107114Y-57291500D01*
X53011894Y-57302602D01*
X52981629Y-57306130D01*
X52981628Y-57306130D01*
X52974357Y-57306978D01*
X52967479Y-57309474D01*
X52967477Y-57309475D01*
X52822726Y-57362017D01*
X52808136Y-57367313D01*
X52660253Y-57464269D01*
X52538642Y-57592645D01*
X52449825Y-57745555D01*
X52398567Y-57914796D01*
X52397992Y-57921236D01*
X52397992Y-57921237D01*
X52396769Y-57934946D01*
X52391500Y-57993978D01*
X52391500Y-59592886D01*
X52401390Y-59677715D01*
X52405313Y-59711358D01*
X52406978Y-59725643D01*
X52409474Y-59732521D01*
X52409475Y-59732523D01*
X52449584Y-59843022D01*
X52467313Y-59891864D01*
X52521415Y-59974384D01*
X52550736Y-60019105D01*
X52564269Y-60039747D01*
X52692645Y-60161358D01*
X52845555Y-60250175D01*
X53014796Y-60301433D01*
X53021236Y-60302008D01*
X53021237Y-60302008D01*
X53091185Y-60308251D01*
X53091191Y-60308251D01*
X53093978Y-60308500D01*
X54392886Y-60308500D01*
X54488106Y-60297398D01*
X54518371Y-60293870D01*
X54518372Y-60293870D01*
X54525643Y-60293022D01*
X54532521Y-60290526D01*
X54532523Y-60290525D01*
X54684985Y-60235184D01*
X54691864Y-60232687D01*
X54839747Y-60135731D01*
X54961358Y-60007355D01*
X55035886Y-59879045D01*
X55087397Y-59830187D01*
X55157146Y-59816933D01*
X55222987Y-59843493D01*
X55236010Y-59855359D01*
X55264272Y-59884985D01*
X55346518Y-59971201D01*
X55531496Y-60108829D01*
X55536247Y-60111245D01*
X55536251Y-60111247D01*
X55665523Y-60176972D01*
X55737018Y-60213322D01*
X55843862Y-60246498D01*
X55952105Y-60280109D01*
X55952111Y-60280110D01*
X55957208Y-60281693D01*
X56042686Y-60293022D01*
X56180485Y-60311286D01*
X56180490Y-60311286D01*
X56185770Y-60311986D01*
X56191100Y-60311786D01*
X56191101Y-60311786D01*
X56300970Y-60307661D01*
X56416169Y-60303337D01*
X56515982Y-60282394D01*
X56636589Y-60257088D01*
X56636592Y-60257087D01*
X56641816Y-60255991D01*
X56856260Y-60171303D01*
X57053369Y-60051694D01*
X57088041Y-60021607D01*
X57152602Y-59992069D01*
X57222883Y-60002124D01*
X57250902Y-60019889D01*
X57252288Y-60021244D01*
X60554492Y-62434393D01*
X61129218Y-62854385D01*
X62265749Y-63684927D01*
X62265754Y-63684930D01*
X62269491Y-63687661D01*
X62273589Y-63689816D01*
X62372324Y-63741743D01*
X62401117Y-63756886D01*
X62405484Y-63758417D01*
X62405490Y-63758420D01*
X62465614Y-63779503D01*
X62469986Y-63781036D01*
X62616022Y-63809177D01*
X63459418Y-63845846D01*
X63526605Y-63868788D01*
X63570723Y-63924413D01*
X63577765Y-63995059D01*
X63566261Y-64028831D01*
X63539099Y-64082255D01*
X63539096Y-64082261D01*
X63536678Y-64087018D01*
X63516978Y-64150462D01*
X63469891Y-64302105D01*
X63469890Y-64302111D01*
X63468307Y-64307208D01*
X63438014Y-64535770D01*
X63446663Y-64766169D01*
X63447758Y-64771386D01*
X63460072Y-64830074D01*
X63459276Y-64885360D01*
X63440054Y-64965424D01*
X63436531Y-65026525D01*
X63432113Y-65103153D01*
X63427123Y-65189687D01*
X63454111Y-65412696D01*
X63455761Y-65418058D01*
X63455761Y-65418060D01*
X63470942Y-65467406D01*
X63520163Y-65627402D01*
X63522733Y-65632382D01*
X63522735Y-65632386D01*
X63620620Y-65822034D01*
X63623192Y-65827017D01*
X63626605Y-65831465D01*
X63629624Y-65835400D01*
X63759941Y-66005233D01*
X63926089Y-66156416D01*
X63941637Y-66166169D01*
X64111627Y-66272804D01*
X64111631Y-66272806D01*
X64116383Y-66275787D01*
X64324808Y-66359573D01*
X64415589Y-66378373D01*
X64540251Y-66404189D01*
X64540255Y-66404189D01*
X64544777Y-66405126D01*
X64549390Y-66405392D01*
X64601467Y-66408395D01*
X64601469Y-66408395D01*
X64603289Y-66408500D01*
X65266024Y-66408500D01*
X65268811Y-66408251D01*
X65268817Y-66408251D01*
X65338918Y-66401994D01*
X65433747Y-66393531D01*
X65650421Y-66334256D01*
X65655479Y-66331844D01*
X65655483Y-66331842D01*
X65848107Y-66239965D01*
X65848108Y-66239964D01*
X65853174Y-66237548D01*
X65857736Y-66234270D01*
X66031037Y-66109740D01*
X66031039Y-66109738D01*
X66035597Y-66106463D01*
X66191924Y-65945146D01*
X66317213Y-65758696D01*
X66342055Y-65702105D01*
X66405246Y-65558152D01*
X66405247Y-65558148D01*
X66407505Y-65553005D01*
X66408816Y-65547546D01*
X66458637Y-65340030D01*
X66458638Y-65340026D01*
X66459946Y-65334576D01*
X66463007Y-65281496D01*
X66472554Y-65115920D01*
X66472554Y-65115917D01*
X66472877Y-65110313D01*
X66457112Y-64980041D01*
X66446564Y-64892880D01*
X66446564Y-64892878D01*
X66445889Y-64887304D01*
X66444238Y-64881937D01*
X66443072Y-64876452D01*
X66444004Y-64876254D01*
X66440093Y-64829416D01*
X66461286Y-64669515D01*
X66461286Y-64669510D01*
X66461986Y-64664230D01*
X66460564Y-64626336D01*
X66453537Y-64439162D01*
X66453337Y-64433831D01*
X66405991Y-64208184D01*
X66404030Y-64203218D01*
X66383196Y-64150462D01*
X66376778Y-64079756D01*
X66409606Y-64016805D01*
X66471256Y-63981595D01*
X66505859Y-63978300D01*
X66784614Y-63990420D01*
X67031313Y-64001146D01*
X67031317Y-64001146D01*
X67035643Y-64001334D01*
X67174442Y-63988219D01*
X67241115Y-63972477D01*
X67371129Y-63922121D01*
X67378171Y-63916768D01*
X67378174Y-63916766D01*
X67482655Y-63837340D01*
X67486237Y-63834617D01*
X67536067Y-63784045D01*
X67621858Y-63667660D01*
X67645908Y-63601697D01*
X67669849Y-63536032D01*
X67669851Y-63536026D01*
X67671386Y-63531815D01*
X67685965Y-63462331D01*
X67695216Y-63318039D01*
X67691908Y-63276133D01*
X67691907Y-63276128D01*
X67640724Y-62627813D01*
X67655303Y-62558330D01*
X67705133Y-62507758D01*
X67774393Y-62492155D01*
X67841095Y-62516474D01*
X67852985Y-62526423D01*
X67866131Y-62538876D01*
X67868574Y-62541255D01*
X70911348Y-65584029D01*
X70945374Y-65646341D01*
X70945314Y-65700181D01*
X70944891Y-65702105D01*
X70943307Y-65707208D01*
X70942606Y-65712499D01*
X70924478Y-65849276D01*
X70913014Y-65935770D01*
X70921663Y-66166169D01*
X70922758Y-66171387D01*
X70962483Y-66360712D01*
X70969009Y-66391816D01*
X71053697Y-66606260D01*
X71173306Y-66803369D01*
X71176803Y-66807399D01*
X71318454Y-66970638D01*
X71324415Y-66977508D01*
X71328541Y-66980891D01*
X71328545Y-66980895D01*
X71431860Y-67065607D01*
X71502705Y-67123696D01*
X71507341Y-67126335D01*
X71507344Y-67126337D01*
X71507945Y-67126679D01*
X71703077Y-67237755D01*
X71919802Y-67316422D01*
X71925051Y-67317371D01*
X71925054Y-67317372D01*
X72004031Y-67331653D01*
X72146683Y-67357449D01*
X72150822Y-67357644D01*
X72150829Y-67357645D01*
X72167481Y-67358430D01*
X72167490Y-67358430D01*
X72168970Y-67358500D01*
X72583928Y-67358500D01*
X72650296Y-67352869D01*
X72749424Y-67344458D01*
X72749428Y-67344457D01*
X72754735Y-67344007D01*
X72759892Y-67342669D01*
X72759895Y-67342668D01*
X72903818Y-67305313D01*
X72977902Y-67286084D01*
X72982768Y-67283892D01*
X72982771Y-67283891D01*
X73183257Y-67193578D01*
X73183259Y-67193577D01*
X73188118Y-67191388D01*
X73379374Y-67062627D01*
X73389175Y-67053278D01*
X73542344Y-66907161D01*
X73546201Y-66903482D01*
X73683829Y-66718504D01*
X73729396Y-66628882D01*
X73785903Y-66517740D01*
X73785903Y-66517739D01*
X73788322Y-66512982D01*
X73836608Y-66357477D01*
X73855109Y-66297895D01*
X73855110Y-66297889D01*
X73856693Y-66292792D01*
X73875268Y-66152643D01*
X73886286Y-66069515D01*
X73886286Y-66069510D01*
X73886986Y-66064230D01*
X73886077Y-66040000D01*
X73878917Y-65849276D01*
X73878337Y-65833831D01*
X73848127Y-65689854D01*
X73832088Y-65613411D01*
X73832087Y-65613408D01*
X73830991Y-65608184D01*
X73746303Y-65393740D01*
X73626694Y-65196631D01*
X73551792Y-65110313D01*
X73479085Y-65026525D01*
X73479083Y-65026523D01*
X73475585Y-65022492D01*
X73471459Y-65019109D01*
X73471455Y-65019105D01*
X73317511Y-64892880D01*
X73297295Y-64876304D01*
X73286173Y-64869973D01*
X73265915Y-64858441D01*
X73216610Y-64807358D01*
X73202749Y-64737728D01*
X73228733Y-64671657D01*
X73257882Y-64644420D01*
X73379374Y-64562627D01*
X73407528Y-64535770D01*
X73472829Y-64473475D01*
X73546201Y-64403482D01*
X73683829Y-64218504D01*
X73686423Y-64213403D01*
X73785903Y-64017740D01*
X73785903Y-64017739D01*
X73788322Y-64012982D01*
X73836980Y-63856279D01*
X73855109Y-63797895D01*
X73855110Y-63797889D01*
X73856693Y-63792792D01*
X73874399Y-63659199D01*
X73886286Y-63569515D01*
X73886286Y-63569510D01*
X73886986Y-63564230D01*
X73885928Y-63536032D01*
X73878537Y-63339162D01*
X73878337Y-63333831D01*
X73851639Y-63206591D01*
X73832088Y-63113411D01*
X73832087Y-63113408D01*
X73830991Y-63108184D01*
X73746303Y-62893740D01*
X73626694Y-62696631D01*
X73536629Y-62592839D01*
X73479085Y-62526525D01*
X73479083Y-62526523D01*
X73475585Y-62522492D01*
X73471459Y-62519109D01*
X73471455Y-62519105D01*
X73301423Y-62379689D01*
X73297295Y-62376304D01*
X73286173Y-62369973D01*
X73265915Y-62358441D01*
X73216610Y-62307358D01*
X73202749Y-62237728D01*
X73228733Y-62171657D01*
X73257882Y-62144420D01*
X73284743Y-62126336D01*
X73379374Y-62062627D01*
X73546201Y-61903482D01*
X73683829Y-61718504D01*
X73714174Y-61658821D01*
X73785903Y-61517740D01*
X73785903Y-61517739D01*
X73788322Y-61512982D01*
X73827568Y-61386589D01*
X73855109Y-61297895D01*
X73855110Y-61297889D01*
X73856693Y-61292792D01*
X73886986Y-61064230D01*
X73878337Y-60833831D01*
X73830991Y-60608184D01*
X73746303Y-60393740D01*
X73626694Y-60196631D01*
X73591718Y-60156324D01*
X73479085Y-60026525D01*
X73479083Y-60026523D01*
X73475585Y-60022492D01*
X73450744Y-60002124D01*
X73440167Y-59993451D01*
X73400172Y-59934791D01*
X73398241Y-59863821D01*
X73434985Y-59803073D01*
X73462091Y-59784419D01*
X73466864Y-59782687D01*
X73472981Y-59778676D01*
X73472988Y-59778673D01*
X73553032Y-59726194D01*
X73620967Y-59705571D01*
X73689267Y-59724951D01*
X73711211Y-59742471D01*
X77878098Y-63909358D01*
X77884880Y-63916810D01*
X77888764Y-63922931D01*
X77894541Y-63928356D01*
X77935041Y-63966388D01*
X77937883Y-63969143D01*
X77962357Y-63993617D01*
X77965485Y-63996044D01*
X77965496Y-63996053D01*
X77967328Y-63997474D01*
X77976343Y-64005174D01*
X78010003Y-64036782D01*
X78008720Y-64038148D01*
X78045586Y-64085723D01*
X78048113Y-64092121D01*
X78053697Y-64106260D01*
X78056464Y-64110819D01*
X78056465Y-64110822D01*
X78124407Y-64222786D01*
X78173306Y-64303369D01*
X78324415Y-64477508D01*
X78328541Y-64480891D01*
X78328545Y-64480895D01*
X78431860Y-64565607D01*
X78502705Y-64623696D01*
X78507343Y-64626336D01*
X78534085Y-64641559D01*
X78583390Y-64692642D01*
X78597251Y-64762272D01*
X78571267Y-64828343D01*
X78542119Y-64855579D01*
X78420626Y-64937373D01*
X78253799Y-65096518D01*
X78116171Y-65281496D01*
X78113755Y-65286247D01*
X78113753Y-65286251D01*
X78052299Y-65407123D01*
X78011678Y-65487018D01*
X77989590Y-65558152D01*
X77944891Y-65702105D01*
X77944890Y-65702111D01*
X77943307Y-65707208D01*
X77942606Y-65712499D01*
X77942606Y-65712500D01*
X77925291Y-65843143D01*
X77913014Y-65935770D01*
X77921663Y-66166169D01*
X77922758Y-66171387D01*
X77962483Y-66360712D01*
X77969009Y-66391816D01*
X78053697Y-66606260D01*
X78173306Y-66803369D01*
X78176803Y-66807399D01*
X78318454Y-66970638D01*
X78324415Y-66977508D01*
X78328541Y-66980891D01*
X78328545Y-66980895D01*
X78431860Y-67065607D01*
X78502705Y-67123696D01*
X78507341Y-67126335D01*
X78507344Y-67126337D01*
X78507945Y-67126679D01*
X78703077Y-67237755D01*
X78919802Y-67316422D01*
X78925051Y-67317371D01*
X78925054Y-67317372D01*
X79004031Y-67331653D01*
X79146683Y-67357449D01*
X79150822Y-67357644D01*
X79150829Y-67357645D01*
X79167481Y-67358430D01*
X79167490Y-67358430D01*
X79168970Y-67358500D01*
X79583928Y-67358500D01*
X79650296Y-67352869D01*
X79749424Y-67344458D01*
X79749428Y-67344457D01*
X79754735Y-67344007D01*
X79759892Y-67342669D01*
X79759895Y-67342668D01*
X79903818Y-67305313D01*
X79977902Y-67286084D01*
X79982768Y-67283892D01*
X79982771Y-67283891D01*
X80183257Y-67193578D01*
X80183259Y-67193577D01*
X80188118Y-67191388D01*
X80379374Y-67062627D01*
X80389175Y-67053278D01*
X80542344Y-66907161D01*
X80546201Y-66903482D01*
X80683829Y-66718504D01*
X80729396Y-66628882D01*
X80785903Y-66517740D01*
X80785903Y-66517739D01*
X80788322Y-66512982D01*
X80836608Y-66357477D01*
X80855109Y-66297895D01*
X80855110Y-66297889D01*
X80856693Y-66292792D01*
X80875268Y-66152643D01*
X80886286Y-66069515D01*
X80886286Y-66069510D01*
X80886986Y-66064230D01*
X80886077Y-66040000D01*
X80878917Y-65849276D01*
X80878337Y-65833831D01*
X80848127Y-65689854D01*
X80832088Y-65613411D01*
X80832087Y-65613408D01*
X80830991Y-65608184D01*
X80746303Y-65393740D01*
X80626694Y-65196631D01*
X80551792Y-65110313D01*
X80479085Y-65026525D01*
X80479083Y-65026523D01*
X80475585Y-65022492D01*
X80471459Y-65019109D01*
X80471455Y-65019105D01*
X80317511Y-64892880D01*
X80297295Y-64876304D01*
X80286173Y-64869973D01*
X80265915Y-64858441D01*
X80216610Y-64807358D01*
X80202749Y-64737728D01*
X80228733Y-64671657D01*
X80257882Y-64644420D01*
X80379374Y-64562627D01*
X80407528Y-64535770D01*
X80472829Y-64473475D01*
X80546201Y-64403482D01*
X80683829Y-64218504D01*
X80686423Y-64213403D01*
X80785903Y-64017740D01*
X80785903Y-64017739D01*
X80788322Y-64012982D01*
X80836980Y-63856279D01*
X80855109Y-63797895D01*
X80855110Y-63797889D01*
X80856693Y-63792792D01*
X80874399Y-63659199D01*
X80886286Y-63569515D01*
X80886286Y-63569510D01*
X80886986Y-63564230D01*
X80885928Y-63536032D01*
X80878537Y-63339162D01*
X80878337Y-63333831D01*
X80851639Y-63206591D01*
X80832088Y-63113411D01*
X80832087Y-63113408D01*
X80830991Y-63108184D01*
X80746303Y-62893740D01*
X80626694Y-62696631D01*
X80536629Y-62592839D01*
X80479085Y-62526525D01*
X80479083Y-62526523D01*
X80475585Y-62522492D01*
X80471459Y-62519109D01*
X80471455Y-62519105D01*
X80301423Y-62379689D01*
X80297295Y-62376304D01*
X80286173Y-62369973D01*
X80265915Y-62358441D01*
X80216610Y-62307358D01*
X80202749Y-62237728D01*
X80228733Y-62171657D01*
X80257882Y-62144420D01*
X80284743Y-62126336D01*
X80379374Y-62062627D01*
X80546201Y-61903482D01*
X80683829Y-61718504D01*
X80714174Y-61658821D01*
X80785903Y-61517740D01*
X80785903Y-61517739D01*
X80788322Y-61512982D01*
X80827568Y-61386589D01*
X80855109Y-61297895D01*
X80855110Y-61297889D01*
X80856693Y-61292792D01*
X80886986Y-61064230D01*
X80878337Y-60833831D01*
X80830991Y-60608184D01*
X80746303Y-60393740D01*
X80626694Y-60196631D01*
X80591718Y-60156324D01*
X80479085Y-60026525D01*
X80479083Y-60026523D01*
X80475585Y-60022492D01*
X80450744Y-60002124D01*
X80440167Y-59993451D01*
X80400172Y-59934791D01*
X80398241Y-59863821D01*
X80434985Y-59803073D01*
X80462091Y-59784419D01*
X80466864Y-59782687D01*
X80543377Y-59732523D01*
X80608628Y-59689743D01*
X80608629Y-59689742D01*
X80614747Y-59685731D01*
X80736358Y-59557355D01*
X80825175Y-59404445D01*
X80876433Y-59235204D01*
X80881233Y-59181425D01*
X80883251Y-59158815D01*
X80883251Y-59158809D01*
X80883500Y-59156022D01*
X80883500Y-57857114D01*
X80871311Y-57752563D01*
X80868870Y-57731629D01*
X80868870Y-57731628D01*
X80868022Y-57724357D01*
X80863327Y-57711421D01*
X80810184Y-57565015D01*
X80807687Y-57558136D01*
X80710731Y-57410253D01*
X80582355Y-57288642D01*
X80429445Y-57199825D01*
X80260204Y-57148567D01*
X80253764Y-57147992D01*
X80253763Y-57147992D01*
X80183814Y-57141749D01*
X80183810Y-57141749D01*
X80181022Y-57141500D01*
X80178805Y-57141500D01*
X80111730Y-57118517D01*
X80067671Y-57062845D01*
X80058500Y-57015655D01*
X80058500Y-56996181D01*
X80057713Y-56989952D01*
X80056781Y-56978118D01*
X80056304Y-56962919D01*
X80055331Y-56931966D01*
X80049351Y-56911382D01*
X80045342Y-56892023D01*
X80043649Y-56878620D01*
X80043649Y-56878618D01*
X80042655Y-56870754D01*
X80025652Y-56827811D01*
X80021811Y-56816590D01*
X80011142Y-56779865D01*
X80011141Y-56779863D01*
X80008930Y-56772252D01*
X80004898Y-56765435D01*
X80004895Y-56765427D01*
X79998019Y-56753802D01*
X79989318Y-56736042D01*
X79984347Y-56723485D01*
X79984346Y-56723483D01*
X79981429Y-56716116D01*
X79954282Y-56678752D01*
X79947775Y-56668844D01*
X79927295Y-56634214D01*
X79927294Y-56634212D01*
X79924268Y-56629096D01*
X79921825Y-56626325D01*
X79908239Y-56612739D01*
X79895404Y-56597712D01*
X79883671Y-56581563D01*
X79877562Y-56576509D01*
X79877560Y-56576507D01*
X79849983Y-56553693D01*
X79841203Y-56545703D01*
X78558806Y-55263306D01*
X78524780Y-55200994D01*
X78529845Y-55130179D01*
X78572392Y-55073343D01*
X78638912Y-55048532D01*
X78680193Y-55052419D01*
X78938675Y-55120954D01*
X79028064Y-55144655D01*
X79241209Y-55176700D01*
X79384751Y-55198281D01*
X79384757Y-55198282D01*
X79388172Y-55198795D01*
X79391629Y-55198931D01*
X79391631Y-55198931D01*
X79492310Y-55202886D01*
X79752046Y-55213091D01*
X79755490Y-55212847D01*
X79755499Y-55212847D01*
X80111834Y-55187617D01*
X80111837Y-55187617D01*
X80115292Y-55187372D01*
X80134681Y-55183831D01*
X80470112Y-55122571D01*
X80470119Y-55122569D01*
X80473521Y-55121948D01*
X80822408Y-55017608D01*
X81157738Y-54875614D01*
X81160746Y-54873929D01*
X81160753Y-54873926D01*
X81433008Y-54721456D01*
X81475462Y-54697681D01*
X81771742Y-54485956D01*
X81795770Y-54464435D01*
X81881935Y-54387259D01*
X81946023Y-54356710D01*
X82016453Y-54365658D01*
G37*
G04 #@! TD.AperFunction*
G04 #@! TA.AperFunction,NonConductor*
G36*
X51216512Y-67770073D02*
G01*
X51241946Y-67800308D01*
X51307678Y-67909489D01*
X51307682Y-67909496D01*
X51309469Y-67912463D01*
X51530395Y-68201946D01*
X51532781Y-68204447D01*
X51779358Y-68462928D01*
X51779364Y-68462933D01*
X51781753Y-68465438D01*
X51784405Y-68467668D01*
X51784408Y-68467670D01*
X51962222Y-68617137D01*
X52060508Y-68699755D01*
X52063392Y-68701682D01*
X52063396Y-68701685D01*
X52152519Y-68761235D01*
X52198047Y-68815712D01*
X52206895Y-68886155D01*
X52176253Y-68950199D01*
X52115852Y-68987511D01*
X52082517Y-68992000D01*
X52025532Y-68992000D01*
X52000001Y-68989001D01*
X52000001Y-68987000D01*
X51987715Y-68986517D01*
X51987714Y-68986517D01*
X51959818Y-68985421D01*
X51929984Y-68984249D01*
X51915227Y-68982795D01*
X51779378Y-68961279D01*
X51760162Y-68956666D01*
X51631722Y-68914933D01*
X51613457Y-68907367D01*
X51551723Y-68875913D01*
X51493128Y-68846057D01*
X51476272Y-68835728D01*
X51448723Y-68815712D01*
X51367014Y-68756347D01*
X51351981Y-68743507D01*
X51256493Y-68648019D01*
X51243652Y-68632985D01*
X51175094Y-68538623D01*
X51164270Y-68523725D01*
X51153941Y-68506869D01*
X51133969Y-68467670D01*
X51108718Y-68418112D01*
X51092633Y-68386543D01*
X51085067Y-68368278D01*
X51070647Y-68323897D01*
X51043334Y-68239838D01*
X51038720Y-68220619D01*
X51037056Y-68210108D01*
X51017205Y-68084773D01*
X51015751Y-68070013D01*
X51013596Y-68015167D01*
X51013000Y-67999999D01*
X51009273Y-67973975D01*
X51008000Y-67956113D01*
X51008000Y-67865297D01*
X51028002Y-67797176D01*
X51081658Y-67750683D01*
X51151932Y-67740579D01*
X51216512Y-67770073D01*
G37*
G04 #@! TD.AperFunction*
G04 #@! TA.AperFunction,Conductor*
G36*
X53994788Y-43801538D02*
G01*
X53994797Y-43801433D01*
X54071186Y-43808251D01*
X54071192Y-43808251D01*
X54073979Y-43808500D01*
X55192885Y-43808500D01*
X55253500Y-43801433D01*
X55258518Y-43800848D01*
X55273109Y-43800000D01*
X56279359Y-43800000D01*
X56347480Y-43820002D01*
X56393973Y-43873658D01*
X56405240Y-43920527D01*
X56455143Y-45068300D01*
X56446170Y-45120769D01*
X56420427Y-45184808D01*
X56374874Y-45404777D01*
X56368993Y-45629336D01*
X56402972Y-45851387D01*
X56404789Y-45856694D01*
X56471587Y-46051796D01*
X56475735Y-46063912D01*
X56584984Y-46260192D01*
X56588535Y-46264530D01*
X56588538Y-46264535D01*
X56714413Y-46418325D01*
X56727264Y-46434025D01*
X56731527Y-46437666D01*
X56731532Y-46437671D01*
X56879793Y-46564297D01*
X56898078Y-46579914D01*
X56995053Y-46636582D01*
X57087181Y-46690417D01*
X57087184Y-46690418D01*
X57092028Y-46693249D01*
X57097298Y-46695178D01*
X57097299Y-46695178D01*
X57297718Y-46768521D01*
X57297722Y-46768522D01*
X57302982Y-46770447D01*
X57308499Y-46771410D01*
X57308503Y-46771411D01*
X57476052Y-46800653D01*
X57524273Y-46809069D01*
X57543100Y-46808970D01*
X57543886Y-46809001D01*
X57544273Y-46809069D01*
X57545447Y-46809063D01*
X57545451Y-46809063D01*
X57610124Y-46808724D01*
X57768906Y-46807893D01*
X57781918Y-46805481D01*
X57814491Y-46799445D01*
X57885116Y-46806698D01*
X57894683Y-46811083D01*
X60500074Y-48139447D01*
X60551677Y-48188209D01*
X60567957Y-48236794D01*
X60646033Y-48892182D01*
X60634230Y-48962191D01*
X60595949Y-49006038D01*
X60596465Y-49006614D01*
X60591776Y-49010817D01*
X60590807Y-49011927D01*
X60582256Y-49017628D01*
X60488412Y-49129679D01*
X60429939Y-49263630D01*
X60428806Y-49272574D01*
X60419343Y-49347283D01*
X60411572Y-49408628D01*
X60434801Y-49552928D01*
X60497742Y-49684839D01*
X60500243Y-49688590D01*
X60761254Y-50080108D01*
X60782398Y-50147883D01*
X60761254Y-50219892D01*
X60508239Y-50599415D01*
X60497742Y-50615161D01*
X60457904Y-50686684D01*
X60416727Y-50826921D01*
X60416727Y-50973079D01*
X60457904Y-51113316D01*
X60462775Y-51120895D01*
X60532051Y-51228691D01*
X60532053Y-51228694D01*
X60536923Y-51236271D01*
X60543733Y-51242172D01*
X60640569Y-51326082D01*
X60640572Y-51326084D01*
X60647381Y-51331984D01*
X60780330Y-51392700D01*
X60851027Y-51402865D01*
X60915608Y-51432357D01*
X60953992Y-51492083D01*
X60958211Y-51512677D01*
X61244222Y-53913520D01*
X61600000Y-56900000D01*
X61611039Y-56905832D01*
X65698187Y-59065080D01*
X65749076Y-59114586D01*
X65765060Y-59168247D01*
X65775640Y-59329665D01*
X65827376Y-59533377D01*
X65915370Y-59724250D01*
X66036674Y-59895891D01*
X66187226Y-60042552D01*
X66192022Y-60045757D01*
X66192025Y-60045759D01*
X66267978Y-60096509D01*
X66361983Y-60159321D01*
X66367286Y-60161599D01*
X66367289Y-60161601D01*
X66532747Y-60232687D01*
X66555094Y-60242288D01*
X66589950Y-60250175D01*
X66754454Y-60287399D01*
X66754460Y-60287400D01*
X66760091Y-60288674D01*
X66765862Y-60288901D01*
X66765864Y-60288901D01*
X66792619Y-60289952D01*
X66835203Y-60291625D01*
X66902485Y-60314286D01*
X66946835Y-60369726D01*
X66955864Y-60407611D01*
X67185483Y-63316109D01*
X67188791Y-63358015D01*
X67174212Y-63427499D01*
X67124382Y-63478071D01*
X67057709Y-63493813D01*
X66047750Y-63449902D01*
X65845757Y-63441120D01*
X65808139Y-63433641D01*
X65788210Y-63426388D01*
X65768969Y-63417487D01*
X65676572Y-63364891D01*
X65676568Y-63364889D01*
X65671923Y-63362245D01*
X65455198Y-63283578D01*
X65449949Y-63282629D01*
X65449946Y-63282628D01*
X65370969Y-63268347D01*
X65228317Y-63242551D01*
X65224178Y-63242356D01*
X65224171Y-63242355D01*
X65207519Y-63241570D01*
X65207510Y-63241570D01*
X65206030Y-63241500D01*
X64741072Y-63241500D01*
X64674704Y-63247131D01*
X64575576Y-63255542D01*
X64575572Y-63255543D01*
X64570265Y-63255993D01*
X64565108Y-63257331D01*
X64565105Y-63257332D01*
X64352267Y-63312574D01*
X64352263Y-63312575D01*
X64347098Y-63313916D01*
X64342232Y-63316108D01*
X64342229Y-63316109D01*
X64248793Y-63358199D01*
X64191570Y-63369198D01*
X62638088Y-63301656D01*
X62569219Y-63277506D01*
X61428946Y-62444230D01*
X57552016Y-59611089D01*
X57508818Y-59554748D01*
X57502938Y-59483996D01*
X57507920Y-59466368D01*
X57525436Y-59418112D01*
X57566422Y-59305198D01*
X57607449Y-59078317D01*
X57608074Y-59065080D01*
X57608430Y-59057519D01*
X57608430Y-59057510D01*
X57608500Y-59056030D01*
X57608500Y-58591072D01*
X57594007Y-58420265D01*
X57536084Y-58197098D01*
X57450808Y-58007792D01*
X57443578Y-57991743D01*
X57443577Y-57991741D01*
X57441388Y-57986882D01*
X57416146Y-57949389D01*
X57403467Y-57930555D01*
X57381996Y-57861574D01*
X57367915Y-56580223D01*
X57387167Y-56511886D01*
X57439044Y-56465658D01*
X57446134Y-56463446D01*
X57453628Y-56458450D01*
X57453632Y-56458448D01*
X57560245Y-56387372D01*
X57560248Y-56387370D01*
X57567744Y-56382372D01*
X57661588Y-56270321D01*
X57720061Y-56136370D01*
X57728658Y-56068504D01*
X57737296Y-56000311D01*
X57737296Y-56000309D01*
X57738428Y-55991372D01*
X57715199Y-55847072D01*
X57652258Y-55715161D01*
X57388746Y-55319892D01*
X57367602Y-55252117D01*
X57388746Y-55180108D01*
X57650861Y-54786935D01*
X57650865Y-54786929D01*
X57652258Y-54784839D01*
X57692096Y-54713316D01*
X57696593Y-54698001D01*
X57730735Y-54581724D01*
X57730735Y-54581721D01*
X57733273Y-54573079D01*
X57733273Y-54426921D01*
X57717292Y-54372492D01*
X57694635Y-54295330D01*
X57694634Y-54295328D01*
X57692096Y-54286684D01*
X57650771Y-54222381D01*
X57617949Y-54171309D01*
X57617947Y-54171306D01*
X57613077Y-54163729D01*
X57577253Y-54132687D01*
X57509431Y-54073918D01*
X57509428Y-54073916D01*
X57502619Y-54068016D01*
X57494422Y-54064272D01*
X57494418Y-54064270D01*
X57412259Y-54026749D01*
X57358604Y-53980256D01*
X57338610Y-53913520D01*
X57324782Y-52655135D01*
X57341272Y-52591419D01*
X57435112Y-52426566D01*
X57437755Y-52421923D01*
X57516422Y-52205198D01*
X57557449Y-51978317D01*
X57558500Y-51956030D01*
X57558500Y-51491072D01*
X57545319Y-51335728D01*
X57544458Y-51325576D01*
X57544457Y-51325572D01*
X57544007Y-51320265D01*
X57486084Y-51097098D01*
X57434112Y-50981724D01*
X57393578Y-50891743D01*
X57393577Y-50891741D01*
X57391388Y-50886882D01*
X57324980Y-50788242D01*
X57303509Y-50719261D01*
X57300199Y-50418116D01*
X57300000Y-50400000D01*
X52751107Y-47037774D01*
X52708215Y-46981200D01*
X52700000Y-46936449D01*
X52700000Y-43926000D01*
X52720002Y-43857879D01*
X52773658Y-43811386D01*
X52826000Y-43800000D01*
X53978780Y-43800000D01*
X53994788Y-43801538D01*
G37*
G04 #@! TD.AperFunction*
M02*
