G04 #@! TF.GenerationSoftware,KiCad,Pcbnew,5.1.6+dfsg1-1*
G04 #@! TF.CreationDate,2020-12-20T23:12:48+01:00*
G04 #@! TF.ProjectId,carabiner,63617261-6269-46e6-9572-2e6b69636164,rev?*
G04 #@! TF.SameCoordinates,Original*
G04 #@! TF.FileFunction,Legend,Bot*
G04 #@! TF.FilePolarity,Positive*
%FSLAX46Y46*%
G04 Gerber Fmt 4.6, Leading zero omitted, Abs format (unit mm)*
G04 Created by KiCad (PCBNEW 5.1.6+dfsg1-1) date 2020-12-20 23:12:48*
%MOMM*%
%LPD*%
G01*
G04 APERTURE LIST*
%ADD10C,0.150000*%
%ADD11C,0.100000*%
%ADD12C,0.200000*%
%ADD13C,0.120000*%
G04 APERTURE END LIST*
D10*
X57910714Y-63398526D02*
X57948809Y-63355669D01*
X57986904Y-63236622D01*
X57986904Y-63160431D01*
X57948809Y-63050907D01*
X57872619Y-62984241D01*
X57796428Y-62955669D01*
X57644047Y-62936622D01*
X57529761Y-62950907D01*
X57377380Y-63008050D01*
X57301190Y-63055669D01*
X57225000Y-63141383D01*
X57186904Y-63260431D01*
X57186904Y-63336622D01*
X57225000Y-63446145D01*
X57263095Y-63479479D01*
X57986904Y-64074717D02*
X57567857Y-64127098D01*
X57491666Y-64098526D01*
X57453571Y-64027098D01*
X57453571Y-63874717D01*
X57491666Y-63793764D01*
X57948809Y-64079479D02*
X57986904Y-63998526D01*
X57986904Y-63808050D01*
X57948809Y-63736622D01*
X57872619Y-63708050D01*
X57796428Y-63717574D01*
X57720238Y-63765193D01*
X57682142Y-63846145D01*
X57682142Y-64036622D01*
X57644047Y-64117574D01*
X57986904Y-64455669D02*
X57453571Y-64522336D01*
X57605952Y-64503288D02*
X57529761Y-64550907D01*
X57491666Y-64593764D01*
X57453571Y-64674717D01*
X57453571Y-64750907D01*
X57986904Y-65293764D02*
X57567857Y-65346145D01*
X57491666Y-65317574D01*
X57453571Y-65246145D01*
X57453571Y-65093764D01*
X57491666Y-65012812D01*
X57948809Y-65298526D02*
X57986904Y-65217574D01*
X57986904Y-65027098D01*
X57948809Y-64955669D01*
X57872619Y-64927098D01*
X57796428Y-64936622D01*
X57720238Y-64984241D01*
X57682142Y-65065193D01*
X57682142Y-65255669D01*
X57644047Y-65336622D01*
X57986904Y-65674717D02*
X57186904Y-65774717D01*
X57491666Y-65736622D02*
X57453571Y-65817574D01*
X57453571Y-65969955D01*
X57491666Y-66041383D01*
X57529761Y-66074717D01*
X57605952Y-66103288D01*
X57834523Y-66074717D01*
X57910714Y-66027098D01*
X57948809Y-65984241D01*
X57986904Y-65903288D01*
X57986904Y-65750907D01*
X57948809Y-65679479D01*
X57986904Y-66398526D02*
X57453571Y-66465193D01*
X57186904Y-66498526D02*
X57225000Y-66455669D01*
X57263095Y-66489002D01*
X57225000Y-66531860D01*
X57186904Y-66498526D01*
X57263095Y-66489002D01*
X57453571Y-66846145D02*
X57986904Y-66779479D01*
X57529761Y-66836622D02*
X57491666Y-66879479D01*
X57453571Y-66960431D01*
X57453571Y-67074717D01*
X57491666Y-67146145D01*
X57567857Y-67174717D01*
X57986904Y-67122336D01*
X57948809Y-67812812D02*
X57986904Y-67731860D01*
X57986904Y-67579479D01*
X57948809Y-67508050D01*
X57872619Y-67479479D01*
X57567857Y-67517574D01*
X57491666Y-67565193D01*
X57453571Y-67646145D01*
X57453571Y-67798526D01*
X57491666Y-67869955D01*
X57567857Y-67898526D01*
X57644047Y-67889002D01*
X57720238Y-67498526D01*
X57986904Y-68189002D02*
X57453571Y-68255669D01*
X57605952Y-68236622D02*
X57529761Y-68284241D01*
X57491666Y-68327098D01*
X57453571Y-68408050D01*
X57453571Y-68484241D01*
X58879761Y-64208050D02*
X58917857Y-64279479D01*
X58955952Y-64312812D01*
X59032142Y-64341383D01*
X59184523Y-64322336D01*
X59260714Y-64274717D01*
X59298809Y-64231860D01*
X59336904Y-64150907D01*
X59336904Y-64036622D01*
X59298809Y-63965193D01*
X59260714Y-63931860D01*
X59603571Y-63812812D02*
X59565476Y-63855669D01*
X59489285Y-63903288D01*
X58651190Y-64008050D01*
X58575000Y-64055669D01*
X58536904Y-64136622D01*
X58536904Y-64250907D01*
X58575000Y-64322336D01*
X58651190Y-64350907D01*
X58765476Y-64336622D01*
X58841666Y-64289002D01*
X58879761Y-64208050D01*
X58879761Y-64131860D01*
X58536904Y-64898526D02*
X58536904Y-64974717D01*
X58575000Y-65046145D01*
X58613095Y-65079479D01*
X58689285Y-65108050D01*
X58841666Y-65127098D01*
X59032142Y-65103288D01*
X59184523Y-65046145D01*
X59260714Y-64998526D01*
X59298809Y-64955669D01*
X59336904Y-64874717D01*
X59336904Y-64798526D01*
X59298809Y-64727098D01*
X59260714Y-64693764D01*
X59184523Y-64665193D01*
X59032142Y-64646145D01*
X58841666Y-64669955D01*
X58689285Y-64727098D01*
X58613095Y-64774717D01*
X58575000Y-64817574D01*
X58536904Y-64898526D01*
X59260714Y-65417574D02*
X59298809Y-65450907D01*
X59336904Y-65408050D01*
X59298809Y-65374717D01*
X59260714Y-65417574D01*
X59336904Y-65408050D01*
X58613095Y-65841383D02*
X58575000Y-65884241D01*
X58536904Y-65965193D01*
X58536904Y-66155669D01*
X58575000Y-66227098D01*
X58613095Y-66260431D01*
X58689285Y-66289002D01*
X58765476Y-66279479D01*
X58879761Y-66227098D01*
X59336904Y-65712812D01*
X59336904Y-66208050D01*
X59260714Y-66560431D02*
X59298809Y-66593764D01*
X59336904Y-66550907D01*
X59298809Y-66517574D01*
X59260714Y-66560431D01*
X59336904Y-66550907D01*
X59336904Y-67350907D02*
X59336904Y-66893764D01*
X59336904Y-67122336D02*
X58536904Y-67222336D01*
X58651190Y-67131860D01*
X58727380Y-67046145D01*
X58765476Y-66965193D01*
D11*
X77841666Y-34931666D02*
X77841666Y-35331666D01*
X78541666Y-35131666D02*
X77841666Y-35131666D01*
X78541666Y-35565000D02*
X77841666Y-35565000D01*
X78541666Y-35865000D02*
X78175000Y-35865000D01*
X78108333Y-35831666D01*
X78075000Y-35765000D01*
X78075000Y-35665000D01*
X78108333Y-35598333D01*
X78141666Y-35565000D01*
X78475000Y-36598333D02*
X78508333Y-36565000D01*
X78541666Y-36465000D01*
X78541666Y-36398333D01*
X78508333Y-36298333D01*
X78441666Y-36231666D01*
X78375000Y-36198333D01*
X78241666Y-36165000D01*
X78141666Y-36165000D01*
X78008333Y-36198333D01*
X77941666Y-36231666D01*
X77875000Y-36298333D01*
X77841666Y-36398333D01*
X77841666Y-36465000D01*
X77875000Y-36565000D01*
X77908333Y-36598333D01*
X78541666Y-36898333D02*
X77841666Y-36898333D01*
X78541666Y-37198333D02*
X78175000Y-37198333D01*
X78108333Y-37165000D01*
X78075000Y-37098333D01*
X78075000Y-36998333D01*
X78108333Y-36931666D01*
X78141666Y-36898333D01*
X78541666Y-37831666D02*
X78175000Y-37831666D01*
X78108333Y-37798333D01*
X78075000Y-37731666D01*
X78075000Y-37598333D01*
X78108333Y-37531666D01*
X78508333Y-37831666D02*
X78541666Y-37765000D01*
X78541666Y-37598333D01*
X78508333Y-37531666D01*
X78441666Y-37498333D01*
X78375000Y-37498333D01*
X78308333Y-37531666D01*
X78275000Y-37598333D01*
X78275000Y-37765000D01*
X78241666Y-37831666D01*
X78541666Y-38165000D02*
X78075000Y-38165000D01*
X78141666Y-38165000D02*
X78108333Y-38198333D01*
X78075000Y-38265000D01*
X78075000Y-38365000D01*
X78108333Y-38431666D01*
X78175000Y-38465000D01*
X78541666Y-38465000D01*
X78175000Y-38465000D02*
X78108333Y-38498333D01*
X78075000Y-38565000D01*
X78075000Y-38665000D01*
X78108333Y-38731666D01*
X78175000Y-38765000D01*
X78541666Y-38765000D01*
X79191666Y-35565000D02*
X79158333Y-35565000D01*
X79258333Y-35531666D02*
X79158333Y-35531666D01*
X79325000Y-35498333D02*
X79158333Y-35498333D01*
X79391666Y-35465000D02*
X79158333Y-35465000D01*
X79425000Y-35431666D02*
X79158333Y-35431666D01*
X79491666Y-35398333D02*
X79158333Y-35398333D01*
X79558333Y-35365000D02*
X79158333Y-35365000D01*
X79625000Y-35331666D02*
X79158333Y-35331666D01*
X79691666Y-35298333D02*
X79158333Y-35298333D01*
X79625000Y-35265000D02*
X79158333Y-35265000D01*
X79558333Y-35231666D02*
X79158333Y-35231666D01*
X79491666Y-35198333D02*
X79158333Y-35198333D01*
X79425000Y-35165000D02*
X79158333Y-35165000D01*
X79391666Y-35131666D02*
X79158333Y-35131666D01*
X79325000Y-35098333D02*
X79158333Y-35098333D01*
X79258333Y-35065000D02*
X79158333Y-35065000D01*
X79158333Y-35031666D02*
X79658333Y-35298333D01*
X79158333Y-35565000D01*
X79191666Y-35031666D02*
X79158333Y-35031666D01*
X79691666Y-35298333D02*
X79158333Y-34998333D01*
X79158333Y-35598333D01*
X79691666Y-35298333D01*
X69083333Y-60233333D02*
X69783333Y-60233333D01*
X69283333Y-60000000D01*
X69783333Y-59766666D01*
X69083333Y-59766666D01*
X69083333Y-59333333D02*
X69116666Y-59400000D01*
X69150000Y-59433333D01*
X69216666Y-59466666D01*
X69416666Y-59466666D01*
X69483333Y-59433333D01*
X69516666Y-59400000D01*
X69550000Y-59333333D01*
X69550000Y-59233333D01*
X69516666Y-59166666D01*
X69483333Y-59133333D01*
X69416666Y-59100000D01*
X69216666Y-59100000D01*
X69150000Y-59133333D01*
X69116666Y-59166666D01*
X69083333Y-59233333D01*
X69083333Y-59333333D01*
X69550000Y-58900000D02*
X69550000Y-58633333D01*
X69783333Y-58800000D02*
X69183333Y-58800000D01*
X69116666Y-58766666D01*
X69083333Y-58700000D01*
X69083333Y-58633333D01*
X69083333Y-58300000D02*
X69116666Y-58366666D01*
X69150000Y-58400000D01*
X69216666Y-58433333D01*
X69416666Y-58433333D01*
X69483333Y-58400000D01*
X69516666Y-58366666D01*
X69550000Y-58300000D01*
X69550000Y-58200000D01*
X69516666Y-58133333D01*
X69483333Y-58100000D01*
X69416666Y-58066666D01*
X69216666Y-58066666D01*
X69150000Y-58100000D01*
X69116666Y-58133333D01*
X69083333Y-58200000D01*
X69083333Y-58300000D01*
X69083333Y-57766666D02*
X69550000Y-57766666D01*
X69416666Y-57766666D02*
X69483333Y-57733333D01*
X69516666Y-57700000D01*
X69550000Y-57633333D01*
X69550000Y-57566666D01*
X69083333Y-57333333D02*
X69783333Y-57333333D01*
X69783333Y-57166666D01*
X69750000Y-57066666D01*
X69683333Y-57000000D01*
X69616666Y-56966666D01*
X69483333Y-56933333D01*
X69383333Y-56933333D01*
X69250000Y-56966666D01*
X69183333Y-57000000D01*
X69116666Y-57066666D01*
X69083333Y-57166666D01*
X69083333Y-57333333D01*
X70083333Y-62633333D02*
X70783333Y-62633333D01*
X70283333Y-62400000D01*
X70783333Y-62166666D01*
X70083333Y-62166666D01*
X70083333Y-61733333D02*
X70116666Y-61800000D01*
X70150000Y-61833333D01*
X70216666Y-61866666D01*
X70416666Y-61866666D01*
X70483333Y-61833333D01*
X70516666Y-61800000D01*
X70550000Y-61733333D01*
X70550000Y-61633333D01*
X70516666Y-61566666D01*
X70483333Y-61533333D01*
X70416666Y-61500000D01*
X70216666Y-61500000D01*
X70150000Y-61533333D01*
X70116666Y-61566666D01*
X70083333Y-61633333D01*
X70083333Y-61733333D01*
X70550000Y-61300000D02*
X70550000Y-61033333D01*
X70783333Y-61200000D02*
X70183333Y-61200000D01*
X70116666Y-61166666D01*
X70083333Y-61100000D01*
X70083333Y-61033333D01*
X70083333Y-60700000D02*
X70116666Y-60766666D01*
X70150000Y-60800000D01*
X70216666Y-60833333D01*
X70416666Y-60833333D01*
X70483333Y-60800000D01*
X70516666Y-60766666D01*
X70550000Y-60700000D01*
X70550000Y-60600000D01*
X70516666Y-60533333D01*
X70483333Y-60500000D01*
X70416666Y-60466666D01*
X70216666Y-60466666D01*
X70150000Y-60500000D01*
X70116666Y-60533333D01*
X70083333Y-60600000D01*
X70083333Y-60700000D01*
X70083333Y-60166666D02*
X70550000Y-60166666D01*
X70416666Y-60166666D02*
X70483333Y-60133333D01*
X70516666Y-60100000D01*
X70550000Y-60033333D01*
X70550000Y-59966666D01*
X70150000Y-59333333D02*
X70116666Y-59366666D01*
X70083333Y-59466666D01*
X70083333Y-59533333D01*
X70116666Y-59633333D01*
X70183333Y-59700000D01*
X70250000Y-59733333D01*
X70383333Y-59766666D01*
X70483333Y-59766666D01*
X70616666Y-59733333D01*
X70683333Y-59700000D01*
X70750000Y-59633333D01*
X70783333Y-59533333D01*
X70783333Y-59466666D01*
X70750000Y-59366666D01*
X70716666Y-59333333D01*
X69083333Y-65233333D02*
X69783333Y-65233333D01*
X69283333Y-65000000D01*
X69783333Y-64766666D01*
X69083333Y-64766666D01*
X69083333Y-64333333D02*
X69116666Y-64400000D01*
X69150000Y-64433333D01*
X69216666Y-64466666D01*
X69416666Y-64466666D01*
X69483333Y-64433333D01*
X69516666Y-64400000D01*
X69550000Y-64333333D01*
X69550000Y-64233333D01*
X69516666Y-64166666D01*
X69483333Y-64133333D01*
X69416666Y-64100000D01*
X69216666Y-64100000D01*
X69150000Y-64133333D01*
X69116666Y-64166666D01*
X69083333Y-64233333D01*
X69083333Y-64333333D01*
X69550000Y-63900000D02*
X69550000Y-63633333D01*
X69783333Y-63800000D02*
X69183333Y-63800000D01*
X69116666Y-63766666D01*
X69083333Y-63700000D01*
X69083333Y-63633333D01*
X69083333Y-63300000D02*
X69116666Y-63366666D01*
X69150000Y-63400000D01*
X69216666Y-63433333D01*
X69416666Y-63433333D01*
X69483333Y-63400000D01*
X69516666Y-63366666D01*
X69550000Y-63300000D01*
X69550000Y-63200000D01*
X69516666Y-63133333D01*
X69483333Y-63100000D01*
X69416666Y-63066666D01*
X69216666Y-63066666D01*
X69150000Y-63100000D01*
X69116666Y-63133333D01*
X69083333Y-63200000D01*
X69083333Y-63300000D01*
X69083333Y-62766666D02*
X69550000Y-62766666D01*
X69416666Y-62766666D02*
X69483333Y-62733333D01*
X69516666Y-62700000D01*
X69550000Y-62633333D01*
X69550000Y-62566666D01*
X69450000Y-62100000D02*
X69416666Y-62000000D01*
X69383333Y-61966666D01*
X69316666Y-61933333D01*
X69216666Y-61933333D01*
X69150000Y-61966666D01*
X69116666Y-62000000D01*
X69083333Y-62066666D01*
X69083333Y-62333333D01*
X69783333Y-62333333D01*
X69783333Y-62100000D01*
X69750000Y-62033333D01*
X69716666Y-62000000D01*
X69650000Y-61966666D01*
X69583333Y-61966666D01*
X69516666Y-62000000D01*
X69483333Y-62033333D01*
X69450000Y-62100000D01*
X69450000Y-62333333D01*
X70283333Y-67483333D02*
X70983333Y-67483333D01*
X70483333Y-67250000D01*
X70983333Y-67016666D01*
X70283333Y-67016666D01*
X70283333Y-66583333D02*
X70316666Y-66650000D01*
X70350000Y-66683333D01*
X70416666Y-66716666D01*
X70616666Y-66716666D01*
X70683333Y-66683333D01*
X70716666Y-66650000D01*
X70750000Y-66583333D01*
X70750000Y-66483333D01*
X70716666Y-66416666D01*
X70683333Y-66383333D01*
X70616666Y-66350000D01*
X70416666Y-66350000D01*
X70350000Y-66383333D01*
X70316666Y-66416666D01*
X70283333Y-66483333D01*
X70283333Y-66583333D01*
X70750000Y-66150000D02*
X70750000Y-65883333D01*
X70983333Y-66050000D02*
X70383333Y-66050000D01*
X70316666Y-66016666D01*
X70283333Y-65950000D01*
X70283333Y-65883333D01*
X70283333Y-65550000D02*
X70316666Y-65616666D01*
X70350000Y-65650000D01*
X70416666Y-65683333D01*
X70616666Y-65683333D01*
X70683333Y-65650000D01*
X70716666Y-65616666D01*
X70750000Y-65550000D01*
X70750000Y-65450000D01*
X70716666Y-65383333D01*
X70683333Y-65350000D01*
X70616666Y-65316666D01*
X70416666Y-65316666D01*
X70350000Y-65350000D01*
X70316666Y-65383333D01*
X70283333Y-65450000D01*
X70283333Y-65550000D01*
X70283333Y-65016666D02*
X70750000Y-65016666D01*
X70616666Y-65016666D02*
X70683333Y-64983333D01*
X70716666Y-64950000D01*
X70750000Y-64883333D01*
X70750000Y-64816666D01*
X70483333Y-64616666D02*
X70483333Y-64283333D01*
X70283333Y-64683333D02*
X70983333Y-64450000D01*
X70283333Y-64216666D01*
X64850000Y-47816666D02*
X64450000Y-47816666D01*
X64650000Y-48516666D02*
X64650000Y-47816666D01*
X64216666Y-48516666D02*
X64216666Y-47816666D01*
X63916666Y-48516666D02*
X63916666Y-48150000D01*
X63950000Y-48083333D01*
X64016666Y-48050000D01*
X64116666Y-48050000D01*
X64183333Y-48083333D01*
X64216666Y-48116666D01*
X63583333Y-48516666D02*
X63583333Y-47816666D01*
X63583333Y-48150000D02*
X63183333Y-48150000D01*
X63183333Y-48516666D02*
X63183333Y-47816666D01*
X62850000Y-48150000D02*
X62616666Y-48150000D01*
X62516666Y-48516666D02*
X62850000Y-48516666D01*
X62850000Y-47816666D01*
X62516666Y-47816666D01*
X73400000Y-54416666D02*
X73000000Y-54416666D01*
X73200000Y-55116666D02*
X73200000Y-54416666D01*
X72766666Y-55116666D02*
X72766666Y-54416666D01*
X72466666Y-55116666D02*
X72466666Y-54750000D01*
X72500000Y-54683333D01*
X72566666Y-54650000D01*
X72666666Y-54650000D01*
X72733333Y-54683333D01*
X72766666Y-54716666D01*
X72133333Y-55116666D02*
X72133333Y-54416666D01*
X72133333Y-54750000D02*
X71733333Y-54750000D01*
X71733333Y-55116666D02*
X71733333Y-54416666D01*
X71400000Y-54750000D02*
X71166666Y-54750000D01*
X71066666Y-55116666D02*
X71400000Y-55116666D01*
X71400000Y-54416666D01*
X71066666Y-54416666D01*
X68333333Y-47616666D02*
X68333333Y-46916666D01*
X68100000Y-47416666D01*
X67866666Y-46916666D01*
X67866666Y-47616666D01*
X67433333Y-47616666D02*
X67500000Y-47583333D01*
X67533333Y-47550000D01*
X67566666Y-47483333D01*
X67566666Y-47283333D01*
X67533333Y-47216666D01*
X67500000Y-47183333D01*
X67433333Y-47150000D01*
X67333333Y-47150000D01*
X67266666Y-47183333D01*
X67233333Y-47216666D01*
X67200000Y-47283333D01*
X67200000Y-47483333D01*
X67233333Y-47550000D01*
X67266666Y-47583333D01*
X67333333Y-47616666D01*
X67433333Y-47616666D01*
X67000000Y-47150000D02*
X66733333Y-47150000D01*
X66900000Y-46916666D02*
X66900000Y-47516666D01*
X66866666Y-47583333D01*
X66800000Y-47616666D01*
X66733333Y-47616666D01*
X66400000Y-47616666D02*
X66466666Y-47583333D01*
X66500000Y-47550000D01*
X66533333Y-47483333D01*
X66533333Y-47283333D01*
X66500000Y-47216666D01*
X66466666Y-47183333D01*
X66400000Y-47150000D01*
X66300000Y-47150000D01*
X66233333Y-47183333D01*
X66200000Y-47216666D01*
X66166666Y-47283333D01*
X66166666Y-47483333D01*
X66200000Y-47550000D01*
X66233333Y-47583333D01*
X66300000Y-47616666D01*
X66400000Y-47616666D01*
X65866666Y-47616666D02*
X65866666Y-47150000D01*
X65866666Y-47283333D02*
X65833333Y-47216666D01*
X65800000Y-47183333D01*
X65733333Y-47150000D01*
X65666666Y-47150000D01*
X65433333Y-47616666D02*
X65433333Y-46916666D01*
X65266666Y-46916666D01*
X65166666Y-46950000D01*
X65100000Y-47016666D01*
X65066666Y-47083333D01*
X65033333Y-47216666D01*
X65033333Y-47316666D01*
X65066666Y-47450000D01*
X65100000Y-47516666D01*
X65166666Y-47583333D01*
X65266666Y-47616666D01*
X65433333Y-47616666D01*
X71233333Y-48516666D02*
X71233333Y-47816666D01*
X71000000Y-48316666D01*
X70766666Y-47816666D01*
X70766666Y-48516666D01*
X70333333Y-48516666D02*
X70400000Y-48483333D01*
X70433333Y-48450000D01*
X70466666Y-48383333D01*
X70466666Y-48183333D01*
X70433333Y-48116666D01*
X70400000Y-48083333D01*
X70333333Y-48050000D01*
X70233333Y-48050000D01*
X70166666Y-48083333D01*
X70133333Y-48116666D01*
X70100000Y-48183333D01*
X70100000Y-48383333D01*
X70133333Y-48450000D01*
X70166666Y-48483333D01*
X70233333Y-48516666D01*
X70333333Y-48516666D01*
X69900000Y-48050000D02*
X69633333Y-48050000D01*
X69800000Y-47816666D02*
X69800000Y-48416666D01*
X69766666Y-48483333D01*
X69700000Y-48516666D01*
X69633333Y-48516666D01*
X69300000Y-48516666D02*
X69366666Y-48483333D01*
X69400000Y-48450000D01*
X69433333Y-48383333D01*
X69433333Y-48183333D01*
X69400000Y-48116666D01*
X69366666Y-48083333D01*
X69300000Y-48050000D01*
X69200000Y-48050000D01*
X69133333Y-48083333D01*
X69100000Y-48116666D01*
X69066666Y-48183333D01*
X69066666Y-48383333D01*
X69100000Y-48450000D01*
X69133333Y-48483333D01*
X69200000Y-48516666D01*
X69300000Y-48516666D01*
X68766666Y-48516666D02*
X68766666Y-48050000D01*
X68766666Y-48183333D02*
X68733333Y-48116666D01*
X68700000Y-48083333D01*
X68633333Y-48050000D01*
X68566666Y-48050000D01*
X67933333Y-48450000D02*
X67966666Y-48483333D01*
X68066666Y-48516666D01*
X68133333Y-48516666D01*
X68233333Y-48483333D01*
X68300000Y-48416666D01*
X68333333Y-48350000D01*
X68366666Y-48216666D01*
X68366666Y-48116666D01*
X68333333Y-47983333D01*
X68300000Y-47916666D01*
X68233333Y-47850000D01*
X68133333Y-47816666D01*
X68066666Y-47816666D01*
X67966666Y-47850000D01*
X67933333Y-47883333D01*
X71133333Y-40416666D02*
X71133333Y-39716666D01*
X70900000Y-40216666D01*
X70666666Y-39716666D01*
X70666666Y-40416666D01*
X70233333Y-40416666D02*
X70300000Y-40383333D01*
X70333333Y-40350000D01*
X70366666Y-40283333D01*
X70366666Y-40083333D01*
X70333333Y-40016666D01*
X70300000Y-39983333D01*
X70233333Y-39950000D01*
X70133333Y-39950000D01*
X70066666Y-39983333D01*
X70033333Y-40016666D01*
X70000000Y-40083333D01*
X70000000Y-40283333D01*
X70033333Y-40350000D01*
X70066666Y-40383333D01*
X70133333Y-40416666D01*
X70233333Y-40416666D01*
X69800000Y-39950000D02*
X69533333Y-39950000D01*
X69700000Y-39716666D02*
X69700000Y-40316666D01*
X69666666Y-40383333D01*
X69600000Y-40416666D01*
X69533333Y-40416666D01*
X69200000Y-40416666D02*
X69266666Y-40383333D01*
X69300000Y-40350000D01*
X69333333Y-40283333D01*
X69333333Y-40083333D01*
X69300000Y-40016666D01*
X69266666Y-39983333D01*
X69200000Y-39950000D01*
X69100000Y-39950000D01*
X69033333Y-39983333D01*
X69000000Y-40016666D01*
X68966666Y-40083333D01*
X68966666Y-40283333D01*
X69000000Y-40350000D01*
X69033333Y-40383333D01*
X69100000Y-40416666D01*
X69200000Y-40416666D01*
X68666666Y-40416666D02*
X68666666Y-39950000D01*
X68666666Y-40083333D02*
X68633333Y-40016666D01*
X68600000Y-39983333D01*
X68533333Y-39950000D01*
X68466666Y-39950000D01*
X68000000Y-40050000D02*
X67900000Y-40083333D01*
X67866666Y-40116666D01*
X67833333Y-40183333D01*
X67833333Y-40283333D01*
X67866666Y-40350000D01*
X67900000Y-40383333D01*
X67966666Y-40416666D01*
X68233333Y-40416666D01*
X68233333Y-39716666D01*
X68000000Y-39716666D01*
X67933333Y-39750000D01*
X67900000Y-39783333D01*
X67866666Y-39850000D01*
X67866666Y-39916666D01*
X67900000Y-39983333D01*
X67933333Y-40016666D01*
X68000000Y-40050000D01*
X68233333Y-40050000D01*
X68083333Y-41416666D02*
X68083333Y-40716666D01*
X67850000Y-41216666D01*
X67616666Y-40716666D01*
X67616666Y-41416666D01*
X67183333Y-41416666D02*
X67250000Y-41383333D01*
X67283333Y-41350000D01*
X67316666Y-41283333D01*
X67316666Y-41083333D01*
X67283333Y-41016666D01*
X67250000Y-40983333D01*
X67183333Y-40950000D01*
X67083333Y-40950000D01*
X67016666Y-40983333D01*
X66983333Y-41016666D01*
X66950000Y-41083333D01*
X66950000Y-41283333D01*
X66983333Y-41350000D01*
X67016666Y-41383333D01*
X67083333Y-41416666D01*
X67183333Y-41416666D01*
X66750000Y-40950000D02*
X66483333Y-40950000D01*
X66650000Y-40716666D02*
X66650000Y-41316666D01*
X66616666Y-41383333D01*
X66550000Y-41416666D01*
X66483333Y-41416666D01*
X66150000Y-41416666D02*
X66216666Y-41383333D01*
X66250000Y-41350000D01*
X66283333Y-41283333D01*
X66283333Y-41083333D01*
X66250000Y-41016666D01*
X66216666Y-40983333D01*
X66150000Y-40950000D01*
X66050000Y-40950000D01*
X65983333Y-40983333D01*
X65950000Y-41016666D01*
X65916666Y-41083333D01*
X65916666Y-41283333D01*
X65950000Y-41350000D01*
X65983333Y-41383333D01*
X66050000Y-41416666D01*
X66150000Y-41416666D01*
X65616666Y-41416666D02*
X65616666Y-40950000D01*
X65616666Y-41083333D02*
X65583333Y-41016666D01*
X65550000Y-40983333D01*
X65483333Y-40950000D01*
X65416666Y-40950000D01*
X65216666Y-41216666D02*
X64883333Y-41216666D01*
X65283333Y-41416666D02*
X65050000Y-40716666D01*
X64816666Y-41416666D01*
X62283333Y-62983333D02*
X62983333Y-62983333D01*
X62483333Y-62750000D01*
X62983333Y-62516666D01*
X62283333Y-62516666D01*
X62283333Y-61883333D02*
X62650000Y-61883333D01*
X62716666Y-61916666D01*
X62750000Y-61983333D01*
X62750000Y-62116666D01*
X62716666Y-62183333D01*
X62316666Y-61883333D02*
X62283333Y-61950000D01*
X62283333Y-62116666D01*
X62316666Y-62183333D01*
X62383333Y-62216666D01*
X62450000Y-62216666D01*
X62516666Y-62183333D01*
X62550000Y-62116666D01*
X62550000Y-61950000D01*
X62583333Y-61883333D01*
X62283333Y-61550000D02*
X62750000Y-61550000D01*
X62983333Y-61550000D02*
X62950000Y-61583333D01*
X62916666Y-61550000D01*
X62950000Y-61516666D01*
X62983333Y-61550000D01*
X62916666Y-61550000D01*
X62750000Y-61216666D02*
X62283333Y-61216666D01*
X62683333Y-61216666D02*
X62716666Y-61183333D01*
X62750000Y-61116666D01*
X62750000Y-61016666D01*
X62716666Y-60950000D01*
X62650000Y-60916666D01*
X62283333Y-60916666D01*
X62283333Y-65700000D02*
X62983333Y-65700000D01*
X62650000Y-65700000D02*
X62650000Y-65300000D01*
X62283333Y-65300000D02*
X62983333Y-65300000D01*
X62650000Y-64966666D02*
X62650000Y-64733333D01*
X62283333Y-64633333D02*
X62283333Y-64966666D01*
X62983333Y-64966666D01*
X62983333Y-64633333D01*
X62550000Y-64333333D02*
X62550000Y-63800000D01*
X77283333Y-64500000D02*
X77283333Y-64166666D01*
X77083333Y-64566666D02*
X77783333Y-64333333D01*
X77083333Y-64100000D01*
X77550000Y-63566666D02*
X77083333Y-63566666D01*
X77550000Y-63866666D02*
X77183333Y-63866666D01*
X77116666Y-63833333D01*
X77083333Y-63766666D01*
X77083333Y-63666666D01*
X77116666Y-63600000D01*
X77150000Y-63566666D01*
X77083333Y-63300000D02*
X77550000Y-62933333D01*
X77550000Y-63300000D02*
X77083333Y-62933333D01*
X77716666Y-62700000D02*
X77750000Y-62666666D01*
X77783333Y-62600000D01*
X77783333Y-62433333D01*
X77750000Y-62366666D01*
X77716666Y-62333333D01*
X77650000Y-62300000D01*
X77583333Y-62300000D01*
X77483333Y-62333333D01*
X77083333Y-62733333D01*
X77083333Y-62300000D01*
X76383333Y-66800000D02*
X76383333Y-66466666D01*
X76183333Y-66866666D02*
X76883333Y-66633333D01*
X76183333Y-66400000D01*
X76650000Y-65866666D02*
X76183333Y-65866666D01*
X76650000Y-66166666D02*
X76283333Y-66166666D01*
X76216666Y-66133333D01*
X76183333Y-66066666D01*
X76183333Y-65966666D01*
X76216666Y-65900000D01*
X76250000Y-65866666D01*
X76183333Y-65600000D02*
X76650000Y-65233333D01*
X76650000Y-65600000D02*
X76183333Y-65233333D01*
X76183333Y-64600000D02*
X76183333Y-65000000D01*
X76183333Y-64800000D02*
X76883333Y-64800000D01*
X76783333Y-64866666D01*
X76716666Y-64933333D01*
X76683333Y-65000000D01*
X76283333Y-62100000D02*
X76283333Y-61766666D01*
X76083333Y-62166666D02*
X76783333Y-61933333D01*
X76083333Y-61700000D01*
X76550000Y-61166666D02*
X76083333Y-61166666D01*
X76550000Y-61466666D02*
X76183333Y-61466666D01*
X76116666Y-61433333D01*
X76083333Y-61366666D01*
X76083333Y-61266666D01*
X76116666Y-61200000D01*
X76150000Y-61166666D01*
X76083333Y-60900000D02*
X76550000Y-60533333D01*
X76550000Y-60900000D02*
X76083333Y-60533333D01*
X76783333Y-60333333D02*
X76783333Y-59900000D01*
X76516666Y-60133333D01*
X76516666Y-60033333D01*
X76483333Y-59966666D01*
X76450000Y-59933333D01*
X76383333Y-59900000D01*
X76216666Y-59900000D01*
X76150000Y-59933333D01*
X76116666Y-59966666D01*
X76083333Y-60033333D01*
X76083333Y-60233333D01*
X76116666Y-60300000D01*
X76150000Y-60333333D01*
X77283333Y-59600000D02*
X77283333Y-59266666D01*
X77083333Y-59666666D02*
X77783333Y-59433333D01*
X77083333Y-59200000D01*
X77550000Y-58666666D02*
X77083333Y-58666666D01*
X77550000Y-58966666D02*
X77183333Y-58966666D01*
X77116666Y-58933333D01*
X77083333Y-58866666D01*
X77083333Y-58766666D01*
X77116666Y-58700000D01*
X77150000Y-58666666D01*
X77083333Y-58400000D02*
X77550000Y-58033333D01*
X77550000Y-58400000D02*
X77083333Y-58033333D01*
X77550000Y-57466666D02*
X77083333Y-57466666D01*
X77816666Y-57633333D02*
X77316666Y-57800000D01*
X77316666Y-57366666D01*
X71200000Y-53316666D02*
X70800000Y-53316666D01*
X71000000Y-54016666D02*
X71000000Y-53316666D01*
X70566666Y-54016666D02*
X70566666Y-53316666D01*
X70266666Y-54016666D02*
X70266666Y-53650000D01*
X70300000Y-53583333D01*
X70366666Y-53550000D01*
X70466666Y-53550000D01*
X70533333Y-53583333D01*
X70566666Y-53616666D01*
X69566666Y-53350000D02*
X69633333Y-53316666D01*
X69733333Y-53316666D01*
X69833333Y-53350000D01*
X69900000Y-53416666D01*
X69933333Y-53483333D01*
X69966666Y-53616666D01*
X69966666Y-53716666D01*
X69933333Y-53850000D01*
X69900000Y-53916666D01*
X69833333Y-53983333D01*
X69733333Y-54016666D01*
X69666666Y-54016666D01*
X69566666Y-53983333D01*
X69533333Y-53950000D01*
X69533333Y-53716666D01*
X69666666Y-53716666D01*
X69233333Y-53550000D02*
X69233333Y-54016666D01*
X69233333Y-53616666D02*
X69200000Y-53583333D01*
X69133333Y-53550000D01*
X69033333Y-53550000D01*
X68966666Y-53583333D01*
X68933333Y-53650000D01*
X68933333Y-54016666D01*
X68300000Y-54016666D02*
X68300000Y-53316666D01*
X68300000Y-53983333D02*
X68366666Y-54016666D01*
X68500000Y-54016666D01*
X68566666Y-53983333D01*
X68600000Y-53950000D01*
X68633333Y-53883333D01*
X68633333Y-53683333D01*
X68600000Y-53616666D01*
X68566666Y-53583333D01*
X68500000Y-53550000D01*
X68366666Y-53550000D01*
X68300000Y-53583333D01*
X76700000Y-48316666D02*
X76366666Y-48316666D01*
X76766666Y-48516666D02*
X76533333Y-47816666D01*
X76300000Y-48516666D01*
X75766666Y-48050000D02*
X75766666Y-48516666D01*
X76066666Y-48050000D02*
X76066666Y-48416666D01*
X76033333Y-48483333D01*
X75966666Y-48516666D01*
X75866666Y-48516666D01*
X75800000Y-48483333D01*
X75766666Y-48450000D01*
X75500000Y-48516666D02*
X75133333Y-48050000D01*
X75500000Y-48050000D02*
X75133333Y-48516666D01*
X74933333Y-47816666D02*
X74500000Y-47816666D01*
X74733333Y-48083333D01*
X74633333Y-48083333D01*
X74566666Y-48116666D01*
X74533333Y-48150000D01*
X74500000Y-48216666D01*
X74500000Y-48383333D01*
X74533333Y-48450000D01*
X74566666Y-48483333D01*
X74633333Y-48516666D01*
X74833333Y-48516666D01*
X74900000Y-48483333D01*
X74933333Y-48450000D01*
X73600000Y-47416666D02*
X73266666Y-47416666D01*
X73666666Y-47616666D02*
X73433333Y-46916666D01*
X73200000Y-47616666D01*
X72666666Y-47150000D02*
X72666666Y-47616666D01*
X72966666Y-47150000D02*
X72966666Y-47516666D01*
X72933333Y-47583333D01*
X72866666Y-47616666D01*
X72766666Y-47616666D01*
X72700000Y-47583333D01*
X72666666Y-47550000D01*
X72400000Y-47616666D02*
X72033333Y-47150000D01*
X72400000Y-47150000D02*
X72033333Y-47616666D01*
X71800000Y-46983333D02*
X71766666Y-46950000D01*
X71700000Y-46916666D01*
X71533333Y-46916666D01*
X71466666Y-46950000D01*
X71433333Y-46983333D01*
X71400000Y-47050000D01*
X71400000Y-47116666D01*
X71433333Y-47216666D01*
X71833333Y-47616666D01*
X71400000Y-47616666D01*
X76700000Y-40216666D02*
X76366666Y-40216666D01*
X76766666Y-40416666D02*
X76533333Y-39716666D01*
X76300000Y-40416666D01*
X75766666Y-39950000D02*
X75766666Y-40416666D01*
X76066666Y-39950000D02*
X76066666Y-40316666D01*
X76033333Y-40383333D01*
X75966666Y-40416666D01*
X75866666Y-40416666D01*
X75800000Y-40383333D01*
X75766666Y-40350000D01*
X75500000Y-40416666D02*
X75133333Y-39950000D01*
X75500000Y-39950000D02*
X75133333Y-40416666D01*
X74566666Y-39950000D02*
X74566666Y-40416666D01*
X74733333Y-39683333D02*
X74900000Y-40183333D01*
X74466666Y-40183333D01*
X73700000Y-41216666D02*
X73366666Y-41216666D01*
X73766666Y-41416666D02*
X73533333Y-40716666D01*
X73300000Y-41416666D01*
X72766666Y-40950000D02*
X72766666Y-41416666D01*
X73066666Y-40950000D02*
X73066666Y-41316666D01*
X73033333Y-41383333D01*
X72966666Y-41416666D01*
X72866666Y-41416666D01*
X72800000Y-41383333D01*
X72766666Y-41350000D01*
X72500000Y-41416666D02*
X72133333Y-40950000D01*
X72500000Y-40950000D02*
X72133333Y-41416666D01*
X71500000Y-41416666D02*
X71900000Y-41416666D01*
X71700000Y-41416666D02*
X71700000Y-40716666D01*
X71766666Y-40816666D01*
X71833333Y-40883333D01*
X71900000Y-40916666D01*
X65000000Y-39716666D02*
X64600000Y-39716666D01*
X64800000Y-40416666D02*
X64800000Y-39716666D01*
X64366666Y-40416666D02*
X64366666Y-39716666D01*
X64066666Y-40416666D02*
X64066666Y-40050000D01*
X64100000Y-39983333D01*
X64166666Y-39950000D01*
X64266666Y-39950000D01*
X64333333Y-39983333D01*
X64366666Y-40016666D01*
X63366666Y-39750000D02*
X63433333Y-39716666D01*
X63533333Y-39716666D01*
X63633333Y-39750000D01*
X63700000Y-39816666D01*
X63733333Y-39883333D01*
X63766666Y-40016666D01*
X63766666Y-40116666D01*
X63733333Y-40250000D01*
X63700000Y-40316666D01*
X63633333Y-40383333D01*
X63533333Y-40416666D01*
X63466666Y-40416666D01*
X63366666Y-40383333D01*
X63333333Y-40350000D01*
X63333333Y-40116666D01*
X63466666Y-40116666D01*
X63033333Y-39950000D02*
X63033333Y-40416666D01*
X63033333Y-40016666D02*
X63000000Y-39983333D01*
X62933333Y-39950000D01*
X62833333Y-39950000D01*
X62766666Y-39983333D01*
X62733333Y-40050000D01*
X62733333Y-40416666D01*
X62100000Y-40416666D02*
X62100000Y-39716666D01*
X62100000Y-40383333D02*
X62166666Y-40416666D01*
X62300000Y-40416666D01*
X62366666Y-40383333D01*
X62400000Y-40350000D01*
X62433333Y-40283333D01*
X62433333Y-40083333D01*
X62400000Y-40016666D01*
X62366666Y-39983333D01*
X62300000Y-39950000D01*
X62166666Y-39950000D01*
X62100000Y-39983333D01*
X62300000Y-41416666D02*
X62300000Y-40716666D01*
X62300000Y-41050000D02*
X61900000Y-41050000D01*
X61900000Y-41416666D02*
X61900000Y-40716666D01*
X61566666Y-41050000D02*
X61333333Y-41050000D01*
X61233333Y-41416666D02*
X61566666Y-41416666D01*
X61566666Y-40716666D01*
X61233333Y-40716666D01*
X60700000Y-41050000D02*
X60933333Y-41050000D01*
X60933333Y-41416666D02*
X60933333Y-40716666D01*
X60600000Y-40716666D01*
X59966666Y-40750000D02*
X60033333Y-40716666D01*
X60133333Y-40716666D01*
X60233333Y-40750000D01*
X60300000Y-40816666D01*
X60333333Y-40883333D01*
X60366666Y-41016666D01*
X60366666Y-41116666D01*
X60333333Y-41250000D01*
X60300000Y-41316666D01*
X60233333Y-41383333D01*
X60133333Y-41416666D01*
X60066666Y-41416666D01*
X59966666Y-41383333D01*
X59933333Y-41350000D01*
X59933333Y-41116666D01*
X60066666Y-41116666D01*
X59633333Y-40950000D02*
X59633333Y-41416666D01*
X59633333Y-41016666D02*
X59600000Y-40983333D01*
X59533333Y-40950000D01*
X59433333Y-40950000D01*
X59366666Y-40983333D01*
X59333333Y-41050000D01*
X59333333Y-41416666D01*
X58700000Y-41416666D02*
X58700000Y-40716666D01*
X58700000Y-41383333D02*
X58766666Y-41416666D01*
X58900000Y-41416666D01*
X58966666Y-41383333D01*
X59000000Y-41350000D01*
X59033333Y-41283333D01*
X59033333Y-41083333D01*
X59000000Y-41016666D01*
X58966666Y-40983333D01*
X58900000Y-40950000D01*
X58766666Y-40950000D01*
X58700000Y-40983333D01*
X59816666Y-40516666D02*
X59816666Y-39816666D01*
X59550000Y-39816666D01*
X59483333Y-39850000D01*
X59450000Y-39883333D01*
X59416666Y-39950000D01*
X59416666Y-40050000D01*
X59450000Y-40116666D01*
X59483333Y-40150000D01*
X59550000Y-40183333D01*
X59816666Y-40183333D01*
X58716666Y-40450000D02*
X58750000Y-40483333D01*
X58850000Y-40516666D01*
X58916666Y-40516666D01*
X59016666Y-40483333D01*
X59083333Y-40416666D01*
X59116666Y-40350000D01*
X59150000Y-40216666D01*
X59150000Y-40116666D01*
X59116666Y-39983333D01*
X59083333Y-39916666D01*
X59016666Y-39850000D01*
X58916666Y-39816666D01*
X58850000Y-39816666D01*
X58750000Y-39850000D01*
X58716666Y-39883333D01*
X58183333Y-40150000D02*
X58416666Y-40150000D01*
X58416666Y-40516666D02*
X58416666Y-39816666D01*
X58083333Y-39816666D01*
X57450000Y-39850000D02*
X57516666Y-39816666D01*
X57616666Y-39816666D01*
X57716666Y-39850000D01*
X57783333Y-39916666D01*
X57816666Y-39983333D01*
X57850000Y-40116666D01*
X57850000Y-40216666D01*
X57816666Y-40350000D01*
X57783333Y-40416666D01*
X57716666Y-40483333D01*
X57616666Y-40516666D01*
X57550000Y-40516666D01*
X57450000Y-40483333D01*
X57416666Y-40450000D01*
X57416666Y-40216666D01*
X57550000Y-40216666D01*
X57116666Y-40050000D02*
X57116666Y-40516666D01*
X57116666Y-40116666D02*
X57083333Y-40083333D01*
X57016666Y-40050000D01*
X56916666Y-40050000D01*
X56850000Y-40083333D01*
X56816666Y-40150000D01*
X56816666Y-40516666D01*
X56183333Y-40516666D02*
X56183333Y-39816666D01*
X56183333Y-40483333D02*
X56250000Y-40516666D01*
X56383333Y-40516666D01*
X56450000Y-40483333D01*
X56483333Y-40450000D01*
X56516666Y-40383333D01*
X56516666Y-40183333D01*
X56483333Y-40116666D01*
X56450000Y-40083333D01*
X56383333Y-40050000D01*
X56250000Y-40050000D01*
X56183333Y-40083333D01*
X56366666Y-40716666D02*
X55966666Y-40716666D01*
X56166666Y-41416666D02*
X56166666Y-40716666D01*
X55733333Y-41416666D02*
X55733333Y-40716666D01*
X55433333Y-41416666D02*
X55433333Y-41050000D01*
X55466666Y-40983333D01*
X55533333Y-40950000D01*
X55633333Y-40950000D01*
X55700000Y-40983333D01*
X55733333Y-41016666D01*
X54700000Y-41350000D02*
X54733333Y-41383333D01*
X54833333Y-41416666D01*
X54900000Y-41416666D01*
X55000000Y-41383333D01*
X55066666Y-41316666D01*
X55100000Y-41250000D01*
X55133333Y-41116666D01*
X55133333Y-41016666D01*
X55100000Y-40883333D01*
X55066666Y-40816666D01*
X55000000Y-40750000D01*
X54900000Y-40716666D01*
X54833333Y-40716666D01*
X54733333Y-40750000D01*
X54700000Y-40783333D01*
X54400000Y-41416666D02*
X54400000Y-40716666D01*
X54100000Y-41416666D02*
X54100000Y-41050000D01*
X54133333Y-40983333D01*
X54200000Y-40950000D01*
X54300000Y-40950000D01*
X54366666Y-40983333D01*
X54400000Y-41016666D01*
X53466666Y-41416666D02*
X53466666Y-41050000D01*
X53500000Y-40983333D01*
X53566666Y-40950000D01*
X53700000Y-40950000D01*
X53766666Y-40983333D01*
X53466666Y-41383333D02*
X53533333Y-41416666D01*
X53700000Y-41416666D01*
X53766666Y-41383333D01*
X53800000Y-41316666D01*
X53800000Y-41250000D01*
X53766666Y-41183333D01*
X53700000Y-41150000D01*
X53533333Y-41150000D01*
X53466666Y-41116666D01*
X53133333Y-41416666D02*
X53133333Y-40950000D01*
X53133333Y-41016666D02*
X53100000Y-40983333D01*
X53033333Y-40950000D01*
X52933333Y-40950000D01*
X52866666Y-40983333D01*
X52833333Y-41050000D01*
X52833333Y-41416666D01*
X52833333Y-41050000D02*
X52800000Y-40983333D01*
X52733333Y-40950000D01*
X52633333Y-40950000D01*
X52566666Y-40983333D01*
X52533333Y-41050000D01*
X52533333Y-41416666D01*
X62150000Y-47416666D02*
X61816666Y-47416666D01*
X62216666Y-47616666D02*
X61983333Y-46916666D01*
X61750000Y-47616666D01*
X61416666Y-47616666D02*
X61483333Y-47583333D01*
X61516666Y-47516666D01*
X61516666Y-46916666D01*
X61250000Y-47150000D02*
X60983333Y-47150000D01*
X61150000Y-46916666D02*
X61150000Y-47516666D01*
X61116666Y-47583333D01*
X61050000Y-47616666D01*
X60983333Y-47616666D01*
X60850000Y-46916666D02*
X60616666Y-47616666D01*
X60383333Y-46916666D01*
X60050000Y-47616666D02*
X60116666Y-47583333D01*
X60150000Y-47550000D01*
X60183333Y-47483333D01*
X60183333Y-47283333D01*
X60150000Y-47216666D01*
X60116666Y-47183333D01*
X60050000Y-47150000D01*
X59950000Y-47150000D01*
X59883333Y-47183333D01*
X59850000Y-47216666D01*
X59816666Y-47283333D01*
X59816666Y-47483333D01*
X59850000Y-47550000D01*
X59883333Y-47583333D01*
X59950000Y-47616666D01*
X60050000Y-47616666D01*
X59416666Y-47616666D02*
X59483333Y-47583333D01*
X59516666Y-47516666D01*
X59516666Y-46916666D01*
X59250000Y-47150000D02*
X58983333Y-47150000D01*
X59150000Y-46916666D02*
X59150000Y-47516666D01*
X59116666Y-47583333D01*
X59050000Y-47616666D01*
X58983333Y-47616666D01*
X58350000Y-48616666D02*
X58350000Y-47916666D01*
X58350000Y-48250000D02*
X57950000Y-48250000D01*
X57950000Y-48616666D02*
X57950000Y-47916666D01*
X57616666Y-48250000D02*
X57383333Y-48250000D01*
X57283333Y-48616666D02*
X57616666Y-48616666D01*
X57616666Y-47916666D01*
X57283333Y-47916666D01*
X56983333Y-48350000D02*
X56450000Y-48350000D01*
X55633333Y-47616666D02*
X55633333Y-46916666D01*
X55400000Y-47416666D01*
X55166666Y-46916666D01*
X55166666Y-47616666D01*
X54533333Y-47616666D02*
X54533333Y-47250000D01*
X54566666Y-47183333D01*
X54633333Y-47150000D01*
X54766666Y-47150000D01*
X54833333Y-47183333D01*
X54533333Y-47583333D02*
X54600000Y-47616666D01*
X54766666Y-47616666D01*
X54833333Y-47583333D01*
X54866666Y-47516666D01*
X54866666Y-47450000D01*
X54833333Y-47383333D01*
X54766666Y-47350000D01*
X54600000Y-47350000D01*
X54533333Y-47316666D01*
X54200000Y-47616666D02*
X54200000Y-47150000D01*
X54200000Y-46916666D02*
X54233333Y-46950000D01*
X54200000Y-46983333D01*
X54166666Y-46950000D01*
X54200000Y-46916666D01*
X54200000Y-46983333D01*
X53866666Y-47150000D02*
X53866666Y-47616666D01*
X53866666Y-47216666D02*
X53833333Y-47183333D01*
X53766666Y-47150000D01*
X53666666Y-47150000D01*
X53600000Y-47183333D01*
X53566666Y-47250000D01*
X53566666Y-47616666D01*
D12*
X53671428Y-49269047D02*
X53671428Y-50030952D01*
X54052380Y-49650000D02*
X53290476Y-49650000D01*
X55769047Y-49678571D02*
X56530952Y-49678571D01*
X53671428Y-60319047D02*
X53671428Y-61080952D01*
X54052380Y-60700000D02*
X53290476Y-60700000D01*
X55819047Y-60728571D02*
X56580952Y-60728571D01*
X61621428Y-54769047D02*
X61621428Y-55530952D01*
X62080952Y-52671428D02*
X61319047Y-52671428D01*
X61700000Y-53052380D02*
X61700000Y-52290476D01*
D13*
X61300000Y-57950000D02*
X61300000Y-58550000D01*
X64750000Y-57250000D02*
X61950000Y-57250000D01*
X65400000Y-58550000D02*
X65400000Y-57950000D01*
X61950000Y-59250000D02*
X64750000Y-59250000D01*
X61300000Y-58550000D02*
G75*
G03*
X62000000Y-59250000I700000J0D01*
G01*
X62000000Y-57250000D02*
G75*
G03*
X61300000Y-57950000I0J-700000D01*
G01*
X65400000Y-57950000D02*
G75*
G03*
X64700000Y-57250000I-700000J0D01*
G01*
X64700000Y-59250000D02*
G75*
G03*
X65400000Y-58550000I0J700000D01*
G01*
X57250000Y-55700000D02*
X57250000Y-55100000D01*
X53800000Y-56400000D02*
X56600000Y-56400000D01*
X53150000Y-55100000D02*
X53150000Y-55700000D01*
X56600000Y-54400000D02*
X53800000Y-54400000D01*
X57250000Y-55100000D02*
G75*
G03*
X56550000Y-54400000I-700000J0D01*
G01*
X56550000Y-56400000D02*
G75*
G03*
X57250000Y-55700000I0J700000D01*
G01*
X53150000Y-55700000D02*
G75*
G03*
X53850000Y-56400000I700000J0D01*
G01*
X53850000Y-54400000D02*
G75*
G03*
X53150000Y-55100000I0J-700000D01*
G01*
X82100000Y-42500000D02*
X80100000Y-42500000D01*
X82100000Y-45300000D02*
X82100000Y-42500000D01*
X80100000Y-45300000D02*
X82100000Y-45300000D01*
X80100000Y-42500000D02*
X80100000Y-45300000D01*
D11*
X64883333Y-56266666D02*
X64883333Y-56766666D01*
X64916666Y-56866666D01*
X64983333Y-56933333D01*
X65083333Y-56966666D01*
X65150000Y-56966666D01*
X64550000Y-56500000D02*
X64550000Y-57200000D01*
X64550000Y-56533333D02*
X64483333Y-56500000D01*
X64350000Y-56500000D01*
X64283333Y-56533333D01*
X64250000Y-56566666D01*
X64216666Y-56633333D01*
X64216666Y-56833333D01*
X64250000Y-56900000D01*
X64283333Y-56933333D01*
X64350000Y-56966666D01*
X64483333Y-56966666D01*
X64550000Y-56933333D01*
X63916666Y-56966666D02*
X63916666Y-56266666D01*
X63916666Y-56600000D02*
X63516666Y-56600000D01*
X63516666Y-56966666D02*
X63516666Y-56266666D01*
X63183333Y-56600000D02*
X62950000Y-56600000D01*
X62850000Y-56966666D02*
X63183333Y-56966666D01*
X63183333Y-56266666D01*
X62850000Y-56266666D01*
X62316666Y-56600000D02*
X62550000Y-56600000D01*
X62550000Y-56966666D02*
X62550000Y-56266666D01*
X62216666Y-56266666D01*
X61583333Y-56966666D02*
X61983333Y-56966666D01*
X61783333Y-56966666D02*
X61783333Y-56266666D01*
X61850000Y-56366666D01*
X61916666Y-56433333D01*
X61983333Y-56466666D01*
X60983333Y-58566666D02*
X60983333Y-57866666D01*
X60750000Y-58366666D01*
X60516666Y-57866666D01*
X60516666Y-58566666D01*
X59883333Y-58566666D02*
X59883333Y-58200000D01*
X59916666Y-58133333D01*
X59983333Y-58100000D01*
X60116666Y-58100000D01*
X60183333Y-58133333D01*
X59883333Y-58533333D02*
X59950000Y-58566666D01*
X60116666Y-58566666D01*
X60183333Y-58533333D01*
X60216666Y-58466666D01*
X60216666Y-58400000D01*
X60183333Y-58333333D01*
X60116666Y-58300000D01*
X59950000Y-58300000D01*
X59883333Y-58266666D01*
X59550000Y-58566666D02*
X59550000Y-58100000D01*
X59550000Y-57866666D02*
X59583333Y-57900000D01*
X59550000Y-57933333D01*
X59516666Y-57900000D01*
X59550000Y-57866666D01*
X59550000Y-57933333D01*
X59216666Y-58100000D02*
X59216666Y-58566666D01*
X59216666Y-58166666D02*
X59183333Y-58133333D01*
X59116666Y-58100000D01*
X59016666Y-58100000D01*
X58950000Y-58133333D01*
X58916666Y-58200000D01*
X58916666Y-58566666D01*
X67000000Y-57916666D02*
X66666666Y-57916666D01*
X67066666Y-58116666D02*
X66833333Y-57416666D01*
X66600000Y-58116666D01*
X66266666Y-58116666D02*
X66333333Y-58083333D01*
X66366666Y-58016666D01*
X66366666Y-57416666D01*
X66100000Y-57650000D02*
X65833333Y-57650000D01*
X66000000Y-57416666D02*
X66000000Y-58016666D01*
X65966666Y-58083333D01*
X65900000Y-58116666D01*
X65833333Y-58116666D01*
X56550000Y-56616666D02*
X56550000Y-57116666D01*
X56583333Y-57216666D01*
X56650000Y-57283333D01*
X56750000Y-57316666D01*
X56816666Y-57316666D01*
X56216666Y-56850000D02*
X56216666Y-57550000D01*
X56216666Y-56883333D02*
X56150000Y-56850000D01*
X56016666Y-56850000D01*
X55950000Y-56883333D01*
X55916666Y-56916666D01*
X55883333Y-56983333D01*
X55883333Y-57183333D01*
X55916666Y-57250000D01*
X55950000Y-57283333D01*
X56016666Y-57316666D01*
X56150000Y-57316666D01*
X56216666Y-57283333D01*
X55583333Y-57316666D02*
X55583333Y-56616666D01*
X55316666Y-56616666D01*
X55250000Y-56650000D01*
X55216666Y-56683333D01*
X55183333Y-56750000D01*
X55183333Y-56850000D01*
X55216666Y-56916666D01*
X55250000Y-56950000D01*
X55316666Y-56983333D01*
X55583333Y-56983333D01*
X54483333Y-57250000D02*
X54516666Y-57283333D01*
X54616666Y-57316666D01*
X54683333Y-57316666D01*
X54783333Y-57283333D01*
X54850000Y-57216666D01*
X54883333Y-57150000D01*
X54916666Y-57016666D01*
X54916666Y-56916666D01*
X54883333Y-56783333D01*
X54850000Y-56716666D01*
X54783333Y-56650000D01*
X54683333Y-56616666D01*
X54616666Y-56616666D01*
X54516666Y-56650000D01*
X54483333Y-56683333D01*
X53950000Y-56950000D02*
X54183333Y-56950000D01*
X54183333Y-57316666D02*
X54183333Y-56616666D01*
X53850000Y-56616666D01*
X53216666Y-57316666D02*
X53616666Y-57316666D01*
X53416666Y-57316666D02*
X53416666Y-56616666D01*
X53483333Y-56716666D01*
X53550000Y-56783333D01*
X53616666Y-56816666D01*
X59733333Y-55716666D02*
X59733333Y-55016666D01*
X59500000Y-55516666D01*
X59266666Y-55016666D01*
X59266666Y-55716666D01*
X58633333Y-55716666D02*
X58633333Y-55350000D01*
X58666666Y-55283333D01*
X58733333Y-55250000D01*
X58866666Y-55250000D01*
X58933333Y-55283333D01*
X58633333Y-55683333D02*
X58700000Y-55716666D01*
X58866666Y-55716666D01*
X58933333Y-55683333D01*
X58966666Y-55616666D01*
X58966666Y-55550000D01*
X58933333Y-55483333D01*
X58866666Y-55450000D01*
X58700000Y-55450000D01*
X58633333Y-55416666D01*
X58300000Y-55716666D02*
X58300000Y-55250000D01*
X58300000Y-55016666D02*
X58333333Y-55050000D01*
X58300000Y-55083333D01*
X58266666Y-55050000D01*
X58300000Y-55016666D01*
X58300000Y-55083333D01*
X57966666Y-55250000D02*
X57966666Y-55716666D01*
X57966666Y-55316666D02*
X57933333Y-55283333D01*
X57866666Y-55250000D01*
X57766666Y-55250000D01*
X57700000Y-55283333D01*
X57666666Y-55350000D01*
X57666666Y-55716666D01*
X52750000Y-55516666D02*
X52416666Y-55516666D01*
X52816666Y-55716666D02*
X52583333Y-55016666D01*
X52350000Y-55716666D01*
X52016666Y-55716666D02*
X52083333Y-55683333D01*
X52116666Y-55616666D01*
X52116666Y-55016666D01*
X51850000Y-55250000D02*
X51583333Y-55250000D01*
X51750000Y-55016666D02*
X51750000Y-55616666D01*
X51716666Y-55683333D01*
X51650000Y-55716666D01*
X51583333Y-55716666D01*
D10*
X78752380Y-41780952D02*
X79466666Y-41780952D01*
X79609523Y-41733333D01*
X79704761Y-41638095D01*
X79752380Y-41495238D01*
X79752380Y-41400000D01*
X79752380Y-42257142D02*
X78752380Y-42257142D01*
X78752380Y-42638095D01*
X78800000Y-42733333D01*
X78847619Y-42780952D01*
X78942857Y-42828571D01*
X79085714Y-42828571D01*
X79180952Y-42780952D01*
X79228571Y-42733333D01*
X79276190Y-42638095D01*
X79276190Y-42257142D01*
X79466666Y-43209523D02*
X79466666Y-43685714D01*
X79752380Y-43114285D02*
X78752380Y-43447619D01*
X79752380Y-43780952D01*
X79085714Y-44542857D02*
X79752380Y-44542857D01*
X79085714Y-44114285D02*
X79609523Y-44114285D01*
X79704761Y-44161904D01*
X79752380Y-44257142D01*
X79752380Y-44400000D01*
X79704761Y-44495238D01*
X79657142Y-44542857D01*
X79752380Y-44923809D02*
X79085714Y-45447619D01*
X79085714Y-44923809D02*
X79752380Y-45447619D01*
X79085714Y-46257142D02*
X79752380Y-46257142D01*
X78704761Y-46019047D02*
X79419047Y-45780952D01*
X79419047Y-46400000D01*
M02*
