G04 #@! TF.GenerationSoftware,KiCad,Pcbnew,5.1.6+dfsg1-1*
G04 #@! TF.CreationDate,2021-01-08T01:16:49+01:00*
G04 #@! TF.ProjectId,carabiner,63617261-6269-46e6-9572-2e6b69636164,rev?*
G04 #@! TF.SameCoordinates,Original*
G04 #@! TF.FileFunction,Legend,Top*
G04 #@! TF.FilePolarity,Positive*
%FSLAX46Y46*%
G04 Gerber Fmt 4.6, Leading zero omitted, Abs format (unit mm)*
G04 Created by KiCad (PCBNEW 5.1.6+dfsg1-1) date 2021-01-08 01:16:49*
%MOMM*%
%LPD*%
G01*
G04 APERTURE LIST*
%ADD10C,0.150000*%
%ADD11C,0.120000*%
G04 APERTURE END LIST*
D10*
X57910714Y-68001473D02*
X57948809Y-68044330D01*
X57986904Y-68163377D01*
X57986904Y-68239568D01*
X57948809Y-68349092D01*
X57872619Y-68415758D01*
X57796428Y-68444330D01*
X57644047Y-68463377D01*
X57529761Y-68449092D01*
X57377380Y-68391949D01*
X57301190Y-68344330D01*
X57225000Y-68258616D01*
X57186904Y-68139568D01*
X57186904Y-68063377D01*
X57225000Y-67953854D01*
X57263095Y-67920520D01*
X57986904Y-67325282D02*
X57567857Y-67272901D01*
X57491666Y-67301473D01*
X57453571Y-67372901D01*
X57453571Y-67525282D01*
X57491666Y-67606235D01*
X57948809Y-67320520D02*
X57986904Y-67401473D01*
X57986904Y-67591949D01*
X57948809Y-67663377D01*
X57872619Y-67691949D01*
X57796428Y-67682425D01*
X57720238Y-67634806D01*
X57682142Y-67553854D01*
X57682142Y-67363377D01*
X57644047Y-67282425D01*
X57986904Y-66944330D02*
X57453571Y-66877663D01*
X57605952Y-66896711D02*
X57529761Y-66849092D01*
X57491666Y-66806235D01*
X57453571Y-66725282D01*
X57453571Y-66649092D01*
X57986904Y-66106235D02*
X57567857Y-66053854D01*
X57491666Y-66082425D01*
X57453571Y-66153854D01*
X57453571Y-66306235D01*
X57491666Y-66387187D01*
X57948809Y-66101473D02*
X57986904Y-66182425D01*
X57986904Y-66372901D01*
X57948809Y-66444330D01*
X57872619Y-66472901D01*
X57796428Y-66463377D01*
X57720238Y-66415758D01*
X57682142Y-66334806D01*
X57682142Y-66144330D01*
X57644047Y-66063377D01*
X57986904Y-65725282D02*
X57186904Y-65625282D01*
X57491666Y-65663377D02*
X57453571Y-65582425D01*
X57453571Y-65430044D01*
X57491666Y-65358616D01*
X57529761Y-65325282D01*
X57605952Y-65296711D01*
X57834523Y-65325282D01*
X57910714Y-65372901D01*
X57948809Y-65415758D01*
X57986904Y-65496711D01*
X57986904Y-65649092D01*
X57948809Y-65720520D01*
X57986904Y-65001473D02*
X57453571Y-64934806D01*
X57186904Y-64901473D02*
X57225000Y-64944330D01*
X57263095Y-64910997D01*
X57225000Y-64868139D01*
X57186904Y-64901473D01*
X57263095Y-64910997D01*
X57453571Y-64553854D02*
X57986904Y-64620520D01*
X57529761Y-64563377D02*
X57491666Y-64520520D01*
X57453571Y-64439568D01*
X57453571Y-64325282D01*
X57491666Y-64253854D01*
X57567857Y-64225282D01*
X57986904Y-64277663D01*
X57948809Y-63587187D02*
X57986904Y-63668139D01*
X57986904Y-63820520D01*
X57948809Y-63891949D01*
X57872619Y-63920520D01*
X57567857Y-63882425D01*
X57491666Y-63834806D01*
X57453571Y-63753854D01*
X57453571Y-63601473D01*
X57491666Y-63530044D01*
X57567857Y-63501473D01*
X57644047Y-63510997D01*
X57720238Y-63901473D01*
X57986904Y-63210997D02*
X57453571Y-63144330D01*
X57605952Y-63163377D02*
X57529761Y-63115758D01*
X57491666Y-63072901D01*
X57453571Y-62991949D01*
X57453571Y-62915758D01*
X58879761Y-67191949D02*
X58917857Y-67120520D01*
X58955952Y-67087187D01*
X59032142Y-67058616D01*
X59184523Y-67077663D01*
X59260714Y-67125282D01*
X59298809Y-67168139D01*
X59336904Y-67249092D01*
X59336904Y-67363377D01*
X59298809Y-67434806D01*
X59260714Y-67468139D01*
X59603571Y-67587187D02*
X59565476Y-67544330D01*
X59489285Y-67496711D01*
X58651190Y-67391949D01*
X58575000Y-67344330D01*
X58536904Y-67263377D01*
X58536904Y-67149092D01*
X58575000Y-67077663D01*
X58651190Y-67049092D01*
X58765476Y-67063377D01*
X58841666Y-67110997D01*
X58879761Y-67191949D01*
X58879761Y-67268139D01*
X58536904Y-66501473D02*
X58536904Y-66425282D01*
X58575000Y-66353854D01*
X58613095Y-66320520D01*
X58689285Y-66291949D01*
X58841666Y-66272901D01*
X59032142Y-66296711D01*
X59184523Y-66353854D01*
X59260714Y-66401473D01*
X59298809Y-66444330D01*
X59336904Y-66525282D01*
X59336904Y-66601473D01*
X59298809Y-66672901D01*
X59260714Y-66706235D01*
X59184523Y-66734806D01*
X59032142Y-66753854D01*
X58841666Y-66730044D01*
X58689285Y-66672901D01*
X58613095Y-66625282D01*
X58575000Y-66582425D01*
X58536904Y-66501473D01*
X59260714Y-65982425D02*
X59298809Y-65949092D01*
X59336904Y-65991949D01*
X59298809Y-66025282D01*
X59260714Y-65982425D01*
X59336904Y-65991949D01*
X58613095Y-65558616D02*
X58575000Y-65515758D01*
X58536904Y-65434806D01*
X58536904Y-65244330D01*
X58575000Y-65172901D01*
X58613095Y-65139568D01*
X58689285Y-65110997D01*
X58765476Y-65120520D01*
X58879761Y-65172901D01*
X59336904Y-65687187D01*
X59336904Y-65191949D01*
X59260714Y-64839568D02*
X59298809Y-64806235D01*
X59336904Y-64849092D01*
X59298809Y-64882425D01*
X59260714Y-64839568D01*
X59336904Y-64849092D01*
X58613095Y-64415758D02*
X58575000Y-64372901D01*
X58536904Y-64291949D01*
X58536904Y-64101473D01*
X58575000Y-64030044D01*
X58613095Y-63996711D01*
X58689285Y-63968139D01*
X58765476Y-63977663D01*
X58879761Y-64030044D01*
X59336904Y-64544330D01*
X59336904Y-64049092D01*
X80661904Y-65995238D02*
X81233333Y-65995238D01*
X81347619Y-66033333D01*
X81423809Y-66109523D01*
X81461904Y-66223809D01*
X81461904Y-66300000D01*
X81461904Y-65233333D02*
X81461904Y-65614285D01*
X80661904Y-65614285D01*
X81385714Y-64509523D02*
X81423809Y-64547619D01*
X81461904Y-64661904D01*
X81461904Y-64738095D01*
X81423809Y-64852380D01*
X81347619Y-64928571D01*
X81271428Y-64966666D01*
X81119047Y-65004761D01*
X81004761Y-65004761D01*
X80852380Y-64966666D01*
X80776190Y-64928571D01*
X80700000Y-64852380D01*
X80661904Y-64738095D01*
X80661904Y-64661904D01*
X80700000Y-64547619D01*
X80738095Y-64509523D01*
X80661904Y-63938095D02*
X81233333Y-63938095D01*
X81347619Y-63976190D01*
X81423809Y-64052380D01*
X81461904Y-64166666D01*
X81461904Y-64242857D01*
X81461904Y-63176190D02*
X81461904Y-63557142D01*
X80661904Y-63557142D01*
X81385714Y-62452380D02*
X81423809Y-62490476D01*
X81461904Y-62604761D01*
X81461904Y-62680952D01*
X81423809Y-62795238D01*
X81347619Y-62871428D01*
X81271428Y-62909523D01*
X81119047Y-62947619D01*
X81004761Y-62947619D01*
X80852380Y-62909523D01*
X80776190Y-62871428D01*
X80700000Y-62795238D01*
X80661904Y-62680952D01*
X80661904Y-62604761D01*
X80700000Y-62490476D01*
X80738095Y-62452380D01*
X80661904Y-61880952D02*
X81233333Y-61880952D01*
X81347619Y-61919047D01*
X81423809Y-61995238D01*
X81461904Y-62109523D01*
X81461904Y-62185714D01*
X81461904Y-61119047D02*
X81461904Y-61500000D01*
X80661904Y-61500000D01*
X81385714Y-60395238D02*
X81423809Y-60433333D01*
X81461904Y-60547619D01*
X81461904Y-60623809D01*
X81423809Y-60738095D01*
X81347619Y-60814285D01*
X81271428Y-60852380D01*
X81119047Y-60890476D01*
X81004761Y-60890476D01*
X80852380Y-60852380D01*
X80776190Y-60814285D01*
X80700000Y-60738095D01*
X80661904Y-60623809D01*
X80661904Y-60547619D01*
X80700000Y-60433333D01*
X80738095Y-60395238D01*
X80661904Y-59823809D02*
X81233333Y-59823809D01*
X81347619Y-59861904D01*
X81423809Y-59938095D01*
X81461904Y-60052380D01*
X81461904Y-60128571D01*
X81461904Y-59061904D02*
X81461904Y-59442857D01*
X80661904Y-59442857D01*
X81385714Y-58338095D02*
X81423809Y-58376190D01*
X81461904Y-58490476D01*
X81461904Y-58566666D01*
X81423809Y-58680952D01*
X81347619Y-58757142D01*
X81271428Y-58795238D01*
X81119047Y-58833333D01*
X81004761Y-58833333D01*
X80852380Y-58795238D01*
X80776190Y-58757142D01*
X80700000Y-58680952D01*
X80661904Y-58566666D01*
X80661904Y-58490476D01*
X80700000Y-58376190D01*
X80738095Y-58338095D01*
D11*
X66415000Y-50435000D02*
X66415000Y-53510000D01*
X66415000Y-53510000D02*
X76285000Y-53510000D01*
X76285000Y-53510000D02*
X76285000Y-50435000D01*
X67855000Y-48920000D02*
X67835000Y-48920000D01*
X67835000Y-48920000D02*
X67835000Y-49420000D01*
X67835000Y-49420000D02*
X74865000Y-49420000D01*
X74865000Y-49420000D02*
X74865000Y-48920000D01*
X74865000Y-48920000D02*
X74845000Y-48920000D01*
X61515000Y-66800000D02*
X61515000Y-67110000D01*
X61515000Y-67110000D02*
X68385000Y-67110000D01*
X68385000Y-67110000D02*
X68385000Y-66800000D01*
X61515000Y-65280000D02*
X61515000Y-59520000D01*
X61515000Y-59520000D02*
X62935000Y-59520000D01*
X62935000Y-59520000D02*
X62935000Y-60020000D01*
X62935000Y-60020000D02*
X66965000Y-60020000D01*
X66965000Y-60020000D02*
X66965000Y-59520000D01*
X66965000Y-59520000D02*
X68385000Y-59520000D01*
X68385000Y-59520000D02*
X68385000Y-65280000D01*
X50945000Y-36635000D02*
X50945000Y-34520000D01*
X50945000Y-34520000D02*
X51945000Y-33520000D01*
X51945000Y-33520000D02*
X78315000Y-33520000D01*
X78315000Y-33520000D02*
X79315000Y-34520000D01*
X79315000Y-34520000D02*
X79315000Y-36635000D01*
X50945000Y-39825000D02*
X50945000Y-43650000D01*
X50945000Y-43650000D02*
X79315000Y-43650000D01*
X79315000Y-43650000D02*
X79315000Y-39825000D01*
X51215000Y-47250000D02*
X51215000Y-47560000D01*
X51215000Y-47560000D02*
X79085000Y-47560000D01*
X79085000Y-47560000D02*
X79085000Y-47250000D01*
X51215000Y-45730000D02*
X51215000Y-39970000D01*
X51215000Y-39970000D02*
X52635000Y-39970000D01*
X52635000Y-39970000D02*
X52635000Y-40470000D01*
X52635000Y-40470000D02*
X77665000Y-40470000D01*
X77665000Y-40470000D02*
X77665000Y-39970000D01*
X77665000Y-39970000D02*
X79085000Y-39970000D01*
X79085000Y-39970000D02*
X79085000Y-45730000D01*
X79965000Y-34240000D02*
X79965000Y-38300000D01*
X82235000Y-34240000D02*
X79965000Y-34240000D01*
X82235000Y-38300000D02*
X82235000Y-34240000D01*
X50945000Y-43650000D02*
X50945000Y-34520000D01*
X50945000Y-34520000D02*
X51945000Y-33520000D01*
X51945000Y-33520000D02*
X78315000Y-33520000D01*
X78315000Y-33520000D02*
X79315000Y-34520000D01*
X79315000Y-34520000D02*
X79315000Y-43650000D01*
X79315000Y-43650000D02*
X50945000Y-43650000D01*
X67700000Y-59250000D02*
X66450000Y-59250000D01*
X67700000Y-60500000D02*
X67700000Y-59250000D01*
X62200000Y-66400000D02*
X62200000Y-63350000D01*
X65150000Y-66400000D02*
X62200000Y-66400000D01*
X65150000Y-67150000D02*
X65150000Y-66400000D01*
X62200000Y-60300000D02*
X62200000Y-63350000D01*
X65150000Y-60300000D02*
X62200000Y-60300000D01*
X65150000Y-59550000D02*
X65150000Y-60300000D01*
X67400000Y-67150000D02*
X67400000Y-65350000D01*
X66650000Y-67150000D02*
X67400000Y-67150000D01*
X66650000Y-65350000D02*
X66650000Y-67150000D01*
X67400000Y-65350000D02*
X66650000Y-65350000D01*
X67400000Y-61350000D02*
X67400000Y-59550000D01*
X66650000Y-61350000D02*
X67400000Y-61350000D01*
X66650000Y-59550000D02*
X66650000Y-61350000D01*
X67400000Y-59550000D02*
X66650000Y-59550000D01*
X67400000Y-63850000D02*
X67400000Y-62850000D01*
X66650000Y-63850000D02*
X67400000Y-63850000D01*
X66650000Y-62850000D02*
X66650000Y-63850000D01*
X67400000Y-62850000D02*
X66650000Y-62850000D01*
X67410000Y-67160000D02*
X67410000Y-59540000D01*
X61440000Y-67160000D02*
X67410000Y-67160000D01*
X61440000Y-59540000D02*
X61440000Y-67160000D01*
X67410000Y-59540000D02*
X61440000Y-59540000D01*
X67000000Y-48750000D02*
X67000000Y-50000000D01*
X68250000Y-48750000D02*
X67000000Y-48750000D01*
X74150000Y-54250000D02*
X71100000Y-54250000D01*
X74150000Y-51300000D02*
X74150000Y-54250000D01*
X74900000Y-51300000D02*
X74150000Y-51300000D01*
X68050000Y-54250000D02*
X71100000Y-54250000D01*
X68050000Y-51300000D02*
X68050000Y-54250000D01*
X67300000Y-51300000D02*
X68050000Y-51300000D01*
X74900000Y-49050000D02*
X73100000Y-49050000D01*
X74900000Y-49800000D02*
X74900000Y-49050000D01*
X73100000Y-49800000D02*
X74900000Y-49800000D01*
X73100000Y-49050000D02*
X73100000Y-49800000D01*
X69100000Y-49050000D02*
X67300000Y-49050000D01*
X69100000Y-49800000D02*
X69100000Y-49050000D01*
X67300000Y-49800000D02*
X69100000Y-49800000D01*
X67300000Y-49050000D02*
X67300000Y-49800000D01*
X71600000Y-49050000D02*
X70600000Y-49050000D01*
X71600000Y-49800000D02*
X71600000Y-49050000D01*
X70600000Y-49800000D02*
X71600000Y-49800000D01*
X70600000Y-49050000D02*
X70600000Y-49800000D01*
X74910000Y-49040000D02*
X67290000Y-49040000D01*
X74910000Y-55010000D02*
X74910000Y-49040000D01*
X67290000Y-55010000D02*
X74910000Y-55010000D01*
X67290000Y-49040000D02*
X67290000Y-55010000D01*
X74860000Y-55940000D02*
X68890000Y-55940000D01*
X68890000Y-55940000D02*
X68890000Y-68560000D01*
X68890000Y-68560000D02*
X74860000Y-68560000D01*
X74860000Y-68560000D02*
X74860000Y-55940000D01*
X74850000Y-59250000D02*
X74100000Y-59250000D01*
X74100000Y-59250000D02*
X74100000Y-65250000D01*
X74100000Y-65250000D02*
X74850000Y-65250000D01*
X74850000Y-65250000D02*
X74850000Y-59250000D01*
X74850000Y-55950000D02*
X74100000Y-55950000D01*
X74100000Y-55950000D02*
X74100000Y-57750000D01*
X74100000Y-57750000D02*
X74850000Y-57750000D01*
X74850000Y-57750000D02*
X74850000Y-55950000D01*
X74850000Y-66750000D02*
X74100000Y-66750000D01*
X74100000Y-66750000D02*
X74100000Y-68550000D01*
X74100000Y-68550000D02*
X74850000Y-68550000D01*
X74850000Y-68550000D02*
X74850000Y-66750000D01*
X72600000Y-55950000D02*
X72600000Y-56700000D01*
X72600000Y-56700000D02*
X69650000Y-56700000D01*
X69650000Y-56700000D02*
X69650000Y-62250000D01*
X72600000Y-68550000D02*
X72600000Y-67800000D01*
X72600000Y-67800000D02*
X69650000Y-67800000D01*
X69650000Y-67800000D02*
X69650000Y-62250000D01*
X75150000Y-56900000D02*
X75150000Y-55650000D01*
X75150000Y-55650000D02*
X73900000Y-55650000D01*
X81860000Y-55940000D02*
X75890000Y-55940000D01*
X75890000Y-55940000D02*
X75890000Y-68560000D01*
X75890000Y-68560000D02*
X81860000Y-68560000D01*
X81860000Y-68560000D02*
X81860000Y-55940000D01*
X81850000Y-59250000D02*
X81100000Y-59250000D01*
X81100000Y-59250000D02*
X81100000Y-65250000D01*
X81100000Y-65250000D02*
X81850000Y-65250000D01*
X81850000Y-65250000D02*
X81850000Y-59250000D01*
X81850000Y-55950000D02*
X81100000Y-55950000D01*
X81100000Y-55950000D02*
X81100000Y-57750000D01*
X81100000Y-57750000D02*
X81850000Y-57750000D01*
X81850000Y-57750000D02*
X81850000Y-55950000D01*
X81850000Y-66750000D02*
X81100000Y-66750000D01*
X81100000Y-66750000D02*
X81100000Y-68550000D01*
X81100000Y-68550000D02*
X81850000Y-68550000D01*
X81850000Y-68550000D02*
X81850000Y-66750000D01*
X79600000Y-55950000D02*
X79600000Y-56700000D01*
X79600000Y-56700000D02*
X76650000Y-56700000D01*
X76650000Y-56700000D02*
X76650000Y-62250000D01*
X79600000Y-68550000D02*
X79600000Y-67800000D01*
X79600000Y-67800000D02*
X76650000Y-67800000D01*
X76650000Y-67800000D02*
X76650000Y-62250000D01*
X82150000Y-56900000D02*
X82150000Y-55650000D01*
X82150000Y-55650000D02*
X80900000Y-55650000D01*
X51190000Y-56340000D02*
X51190000Y-62310000D01*
X51190000Y-62310000D02*
X58810000Y-62310000D01*
X58810000Y-62310000D02*
X58810000Y-56340000D01*
X58810000Y-56340000D02*
X51190000Y-56340000D01*
X54500000Y-56350000D02*
X54500000Y-57100000D01*
X54500000Y-57100000D02*
X55500000Y-57100000D01*
X55500000Y-57100000D02*
X55500000Y-56350000D01*
X55500000Y-56350000D02*
X54500000Y-56350000D01*
X51200000Y-56350000D02*
X51200000Y-57100000D01*
X51200000Y-57100000D02*
X53000000Y-57100000D01*
X53000000Y-57100000D02*
X53000000Y-56350000D01*
X53000000Y-56350000D02*
X51200000Y-56350000D01*
X57000000Y-56350000D02*
X57000000Y-57100000D01*
X57000000Y-57100000D02*
X58800000Y-57100000D01*
X58800000Y-57100000D02*
X58800000Y-56350000D01*
X58800000Y-56350000D02*
X57000000Y-56350000D01*
X51200000Y-58600000D02*
X51950000Y-58600000D01*
X51950000Y-58600000D02*
X51950000Y-61550000D01*
X51950000Y-61550000D02*
X55000000Y-61550000D01*
X58800000Y-58600000D02*
X58050000Y-58600000D01*
X58050000Y-58600000D02*
X58050000Y-61550000D01*
X58050000Y-61550000D02*
X55000000Y-61550000D01*
X52150000Y-56050000D02*
X50900000Y-56050000D01*
X50900000Y-56050000D02*
X50900000Y-57300000D01*
X51140000Y-49240000D02*
X51140000Y-55210000D01*
X51140000Y-55210000D02*
X58760000Y-55210000D01*
X58760000Y-55210000D02*
X58760000Y-49240000D01*
X58760000Y-49240000D02*
X51140000Y-49240000D01*
X54450000Y-49250000D02*
X54450000Y-50000000D01*
X54450000Y-50000000D02*
X55450000Y-50000000D01*
X55450000Y-50000000D02*
X55450000Y-49250000D01*
X55450000Y-49250000D02*
X54450000Y-49250000D01*
X51150000Y-49250000D02*
X51150000Y-50000000D01*
X51150000Y-50000000D02*
X52950000Y-50000000D01*
X52950000Y-50000000D02*
X52950000Y-49250000D01*
X52950000Y-49250000D02*
X51150000Y-49250000D01*
X56950000Y-49250000D02*
X56950000Y-50000000D01*
X56950000Y-50000000D02*
X58750000Y-50000000D01*
X58750000Y-50000000D02*
X58750000Y-49250000D01*
X58750000Y-49250000D02*
X56950000Y-49250000D01*
X51150000Y-51500000D02*
X51900000Y-51500000D01*
X51900000Y-51500000D02*
X51900000Y-54450000D01*
X51900000Y-54450000D02*
X54950000Y-54450000D01*
X58750000Y-51500000D02*
X58000000Y-51500000D01*
X58000000Y-51500000D02*
X58000000Y-54450000D01*
X58000000Y-54450000D02*
X54950000Y-54450000D01*
X52100000Y-48950000D02*
X50850000Y-48950000D01*
X50850000Y-48950000D02*
X50850000Y-50200000D01*
X65610000Y-50290000D02*
X59640000Y-50290000D01*
X59640000Y-50290000D02*
X59640000Y-57910000D01*
X59640000Y-57910000D02*
X65610000Y-57910000D01*
X65610000Y-57910000D02*
X65610000Y-50290000D01*
X65600000Y-53600000D02*
X64850000Y-53600000D01*
X64850000Y-53600000D02*
X64850000Y-54600000D01*
X64850000Y-54600000D02*
X65600000Y-54600000D01*
X65600000Y-54600000D02*
X65600000Y-53600000D01*
X65600000Y-50300000D02*
X64850000Y-50300000D01*
X64850000Y-50300000D02*
X64850000Y-52100000D01*
X64850000Y-52100000D02*
X65600000Y-52100000D01*
X65600000Y-52100000D02*
X65600000Y-50300000D01*
X65600000Y-56100000D02*
X64850000Y-56100000D01*
X64850000Y-56100000D02*
X64850000Y-57900000D01*
X64850000Y-57900000D02*
X65600000Y-57900000D01*
X65600000Y-57900000D02*
X65600000Y-56100000D01*
X63350000Y-50300000D02*
X63350000Y-51050000D01*
X63350000Y-51050000D02*
X60400000Y-51050000D01*
X60400000Y-51050000D02*
X60400000Y-54100000D01*
X63350000Y-57900000D02*
X63350000Y-57150000D01*
X63350000Y-57150000D02*
X60400000Y-57150000D01*
X60400000Y-57150000D02*
X60400000Y-54100000D01*
X65900000Y-51250000D02*
X65900000Y-50000000D01*
X65900000Y-50000000D02*
X64650000Y-50000000D01*
X66015000Y-58715000D02*
X62940000Y-58715000D01*
X62940000Y-58715000D02*
X62940000Y-68585000D01*
X62940000Y-68585000D02*
X66015000Y-68585000D01*
X67530000Y-60155000D02*
X67530000Y-60135000D01*
X67530000Y-60135000D02*
X67030000Y-60135000D01*
X67030000Y-60135000D02*
X67030000Y-67165000D01*
X67030000Y-67165000D02*
X67530000Y-67165000D01*
X67530000Y-67165000D02*
X67530000Y-67145000D01*
X79980000Y-46230000D02*
X82220000Y-46230000D01*
X82220000Y-46230000D02*
X82220000Y-41990000D01*
X82220000Y-41990000D02*
X79980000Y-41990000D01*
X79980000Y-41990000D02*
X79980000Y-46230000D01*
X81100000Y-46880000D02*
X81100000Y-46230000D01*
X81100000Y-41340000D02*
X81100000Y-41990000D01*
X79980000Y-45510000D02*
X82220000Y-45510000D01*
X79980000Y-45390000D02*
X82220000Y-45390000D01*
X79980000Y-45630000D02*
X82220000Y-45630000D01*
D10*
X68959523Y-52952380D02*
X69530952Y-52952380D01*
X69245238Y-53952380D02*
X69245238Y-52952380D01*
X69864285Y-53952380D02*
X69864285Y-52952380D01*
X70292857Y-53952380D02*
X70292857Y-53428571D01*
X70245238Y-53333333D01*
X70150000Y-53285714D01*
X70007142Y-53285714D01*
X69911904Y-53333333D01*
X69864285Y-53380952D01*
X70769047Y-53952380D02*
X70769047Y-52952380D01*
X70769047Y-53428571D02*
X71340476Y-53428571D01*
X71340476Y-53952380D02*
X71340476Y-52952380D01*
X71816666Y-53428571D02*
X72150000Y-53428571D01*
X72292857Y-53952380D02*
X71816666Y-53952380D01*
X71816666Y-52952380D01*
X72292857Y-52952380D01*
X73245238Y-53952380D02*
X72673809Y-53952380D01*
X72959523Y-53952380D02*
X72959523Y-52952380D01*
X72864285Y-53095238D01*
X72769047Y-53190476D01*
X72673809Y-53238095D01*
X70804761Y-65319047D02*
X70852380Y-65176190D01*
X70852380Y-64938095D01*
X70804761Y-64842857D01*
X70757142Y-64795238D01*
X70661904Y-64747619D01*
X70566666Y-64747619D01*
X70471428Y-64795238D01*
X70423809Y-64842857D01*
X70376190Y-64938095D01*
X70328571Y-65128571D01*
X70280952Y-65223809D01*
X70233333Y-65271428D01*
X70138095Y-65319047D01*
X70042857Y-65319047D01*
X69947619Y-65271428D01*
X69900000Y-65223809D01*
X69852380Y-65128571D01*
X69852380Y-64890476D01*
X69900000Y-64747619D01*
X70185714Y-64461904D02*
X70185714Y-64080952D01*
X69852380Y-64319047D02*
X70709523Y-64319047D01*
X70804761Y-64271428D01*
X70852380Y-64176190D01*
X70852380Y-64080952D01*
X70804761Y-63366666D02*
X70852380Y-63461904D01*
X70852380Y-63652380D01*
X70804761Y-63747619D01*
X70709523Y-63795238D01*
X70328571Y-63795238D01*
X70233333Y-63747619D01*
X70185714Y-63652380D01*
X70185714Y-63461904D01*
X70233333Y-63366666D01*
X70328571Y-63319047D01*
X70423809Y-63319047D01*
X70519047Y-63795238D01*
X70185714Y-62890476D02*
X71185714Y-62890476D01*
X70233333Y-62890476D02*
X70185714Y-62795238D01*
X70185714Y-62604761D01*
X70233333Y-62509523D01*
X70280952Y-62461904D01*
X70376190Y-62414285D01*
X70661904Y-62414285D01*
X70757142Y-62461904D01*
X70804761Y-62509523D01*
X70852380Y-62604761D01*
X70852380Y-62795238D01*
X70804761Y-62890476D01*
X70185714Y-61985714D02*
X71185714Y-61985714D01*
X70233333Y-61985714D02*
X70185714Y-61890476D01*
X70185714Y-61700000D01*
X70233333Y-61604761D01*
X70280952Y-61557142D01*
X70376190Y-61509523D01*
X70661904Y-61509523D01*
X70757142Y-61557142D01*
X70804761Y-61604761D01*
X70852380Y-61700000D01*
X70852380Y-61890476D01*
X70804761Y-61985714D01*
X70804761Y-60700000D02*
X70852380Y-60795238D01*
X70852380Y-60985714D01*
X70804761Y-61080952D01*
X70709523Y-61128571D01*
X70328571Y-61128571D01*
X70233333Y-61080952D01*
X70185714Y-60985714D01*
X70185714Y-60795238D01*
X70233333Y-60700000D01*
X70328571Y-60652380D01*
X70423809Y-60652380D01*
X70519047Y-61128571D01*
X70852380Y-60223809D02*
X70185714Y-60223809D01*
X70376190Y-60223809D02*
X70280952Y-60176190D01*
X70233333Y-60128571D01*
X70185714Y-60033333D01*
X70185714Y-59938095D01*
X70852380Y-59080952D02*
X70852380Y-59652380D01*
X70852380Y-59366666D02*
X69852380Y-59366666D01*
X69995238Y-59461904D01*
X70090476Y-59557142D01*
X70138095Y-59652380D01*
X77952380Y-64630952D02*
X76952380Y-64630952D01*
X76952380Y-64250000D01*
X77000000Y-64154761D01*
X77047619Y-64107142D01*
X77142857Y-64059523D01*
X77285714Y-64059523D01*
X77380952Y-64107142D01*
X77428571Y-64154761D01*
X77476190Y-64250000D01*
X77476190Y-64630952D01*
X77952380Y-63630952D02*
X77285714Y-63630952D01*
X77476190Y-63630952D02*
X77380952Y-63583333D01*
X77333333Y-63535714D01*
X77285714Y-63440476D01*
X77285714Y-63345238D01*
X77952380Y-62869047D02*
X77904761Y-62964285D01*
X77857142Y-63011904D01*
X77761904Y-63059523D01*
X77476190Y-63059523D01*
X77380952Y-63011904D01*
X77333333Y-62964285D01*
X77285714Y-62869047D01*
X77285714Y-62726190D01*
X77333333Y-62630952D01*
X77380952Y-62583333D01*
X77476190Y-62535714D01*
X77761904Y-62535714D01*
X77857142Y-62583333D01*
X77904761Y-62630952D01*
X77952380Y-62726190D01*
X77952380Y-62869047D01*
X77952380Y-62107142D02*
X76952380Y-62107142D01*
X77333333Y-62107142D02*
X77285714Y-62011904D01*
X77285714Y-61821428D01*
X77333333Y-61726190D01*
X77380952Y-61678571D01*
X77476190Y-61630952D01*
X77761904Y-61630952D01*
X77857142Y-61678571D01*
X77904761Y-61726190D01*
X77952380Y-61821428D01*
X77952380Y-62011904D01*
X77904761Y-62107142D01*
X77904761Y-60821428D02*
X77952380Y-60916666D01*
X77952380Y-61107142D01*
X77904761Y-61202380D01*
X77809523Y-61250000D01*
X77428571Y-61250000D01*
X77333333Y-61202380D01*
X77285714Y-61107142D01*
X77285714Y-60916666D01*
X77333333Y-60821428D01*
X77428571Y-60773809D01*
X77523809Y-60773809D01*
X77619047Y-61250000D01*
X77952380Y-59821428D02*
X77952380Y-60392857D01*
X77952380Y-60107142D02*
X76952380Y-60107142D01*
X77095238Y-60202380D01*
X77190476Y-60297619D01*
X77238095Y-60392857D01*
X53333333Y-61352380D02*
X53333333Y-60352380D01*
X53714285Y-60352380D01*
X53809523Y-60400000D01*
X53857142Y-60447619D01*
X53904761Y-60542857D01*
X53904761Y-60685714D01*
X53857142Y-60780952D01*
X53809523Y-60828571D01*
X53714285Y-60876190D01*
X53333333Y-60876190D01*
X54904761Y-61257142D02*
X54857142Y-61304761D01*
X54714285Y-61352380D01*
X54619047Y-61352380D01*
X54476190Y-61304761D01*
X54380952Y-61209523D01*
X54333333Y-61114285D01*
X54285714Y-60923809D01*
X54285714Y-60780952D01*
X54333333Y-60590476D01*
X54380952Y-60495238D01*
X54476190Y-60400000D01*
X54619047Y-60352380D01*
X54714285Y-60352380D01*
X54857142Y-60400000D01*
X54904761Y-60447619D01*
X55666666Y-60828571D02*
X55333333Y-60828571D01*
X55333333Y-61352380D02*
X55333333Y-60352380D01*
X55809523Y-60352380D01*
X56142857Y-60447619D02*
X56190476Y-60400000D01*
X56285714Y-60352380D01*
X56523809Y-60352380D01*
X56619047Y-60400000D01*
X56666666Y-60447619D01*
X56714285Y-60542857D01*
X56714285Y-60638095D01*
X56666666Y-60780952D01*
X56095238Y-61352380D01*
X56714285Y-61352380D01*
X53283333Y-54152380D02*
X53283333Y-53152380D01*
X53664285Y-53152380D01*
X53759523Y-53200000D01*
X53807142Y-53247619D01*
X53854761Y-53342857D01*
X53854761Y-53485714D01*
X53807142Y-53580952D01*
X53759523Y-53628571D01*
X53664285Y-53676190D01*
X53283333Y-53676190D01*
X54854761Y-54057142D02*
X54807142Y-54104761D01*
X54664285Y-54152380D01*
X54569047Y-54152380D01*
X54426190Y-54104761D01*
X54330952Y-54009523D01*
X54283333Y-53914285D01*
X54235714Y-53723809D01*
X54235714Y-53580952D01*
X54283333Y-53390476D01*
X54330952Y-53295238D01*
X54426190Y-53200000D01*
X54569047Y-53152380D01*
X54664285Y-53152380D01*
X54807142Y-53200000D01*
X54854761Y-53247619D01*
X55616666Y-53628571D02*
X55283333Y-53628571D01*
X55283333Y-54152380D02*
X55283333Y-53152380D01*
X55759523Y-53152380D01*
X56664285Y-54152380D02*
X56092857Y-54152380D01*
X56378571Y-54152380D02*
X56378571Y-53152380D01*
X56283333Y-53295238D01*
X56188095Y-53390476D01*
X56092857Y-53438095D01*
X61602380Y-55692857D02*
X60602380Y-55692857D01*
X61078571Y-55692857D02*
X61078571Y-55121428D01*
X61602380Y-55121428D02*
X60602380Y-55121428D01*
X61078571Y-54645238D02*
X61078571Y-54311904D01*
X61602380Y-54169047D02*
X61602380Y-54645238D01*
X60602380Y-54645238D01*
X60602380Y-54169047D01*
X61078571Y-53407142D02*
X61078571Y-53740476D01*
X61602380Y-53740476D02*
X60602380Y-53740476D01*
X60602380Y-53264285D01*
X61602380Y-52359523D02*
X61602380Y-52930952D01*
X61602380Y-52645238D02*
X60602380Y-52645238D01*
X60745238Y-52740476D01*
X60840476Y-52835714D01*
X60888095Y-52930952D01*
X61002380Y-66883333D02*
X60002380Y-66883333D01*
X60478571Y-66883333D02*
X60478571Y-66311904D01*
X61002380Y-66311904D02*
X60002380Y-66311904D01*
X61002380Y-65692857D02*
X60954761Y-65788095D01*
X60907142Y-65835714D01*
X60811904Y-65883333D01*
X60526190Y-65883333D01*
X60430952Y-65835714D01*
X60383333Y-65788095D01*
X60335714Y-65692857D01*
X60335714Y-65549999D01*
X60383333Y-65454761D01*
X60430952Y-65407142D01*
X60526190Y-65359523D01*
X60811904Y-65359523D01*
X60907142Y-65407142D01*
X60954761Y-65454761D01*
X61002380Y-65549999D01*
X61002380Y-65692857D01*
X60335714Y-65073809D02*
X60335714Y-64692857D01*
X60002380Y-64930952D02*
X60859523Y-64930952D01*
X60954761Y-64883333D01*
X61002380Y-64788095D01*
X61002380Y-64692857D01*
X60954761Y-63978571D02*
X61002380Y-64073809D01*
X61002380Y-64264285D01*
X60954761Y-64359523D01*
X60859523Y-64407142D01*
X60478571Y-64407142D01*
X60383333Y-64359523D01*
X60335714Y-64264285D01*
X60335714Y-64073809D01*
X60383333Y-63978571D01*
X60478571Y-63930952D01*
X60573809Y-63930952D01*
X60669047Y-64407142D01*
X60335714Y-63502380D02*
X61002380Y-63502380D01*
X60430952Y-63502380D02*
X60383333Y-63454761D01*
X60335714Y-63359523D01*
X60335714Y-63216666D01*
X60383333Y-63121428D01*
X60478571Y-63073809D01*
X61002380Y-63073809D01*
X61002380Y-62169047D02*
X60002380Y-62169047D01*
X60954761Y-62169047D02*
X61002380Y-62264285D01*
X61002380Y-62454761D01*
X60954761Y-62550000D01*
X60907142Y-62597619D01*
X60811904Y-62645238D01*
X60526190Y-62645238D01*
X60430952Y-62597619D01*
X60383333Y-62550000D01*
X60335714Y-62454761D01*
X60335714Y-62264285D01*
X60383333Y-62169047D01*
X61002380Y-61692857D02*
X60002380Y-61692857D01*
X60716666Y-61359523D01*
X60002380Y-61026190D01*
X61002380Y-61026190D01*
X60478571Y-60216666D02*
X60478571Y-60550000D01*
X61002380Y-60550000D02*
X60002380Y-60550000D01*
X60002380Y-60073809D01*
X61002380Y-59169047D02*
X61002380Y-59740476D01*
X61002380Y-59454761D02*
X60002380Y-59454761D01*
X60145238Y-59550000D01*
X60240476Y-59645238D01*
X60288095Y-59740476D01*
M02*
