G04 #@! TF.GenerationSoftware,KiCad,Pcbnew,5.1.6+dfsg1-1*
G04 #@! TF.CreationDate,2020-12-20T23:12:48+01:00*
G04 #@! TF.ProjectId,carabiner,63617261-6269-46e6-9572-2e6b69636164,rev?*
G04 #@! TF.SameCoordinates,Original*
G04 #@! TF.FileFunction,Soldermask,Bot*
G04 #@! TF.FilePolarity,Negative*
%FSLAX46Y46*%
G04 Gerber Fmt 4.6, Leading zero omitted, Abs format (unit mm)*
G04 Created by KiCad (PCBNEW 5.1.6+dfsg1-1) date 2020-12-20 23:12:48*
%MOMM*%
%LPD*%
G01*
G04 APERTURE LIST*
%ADD10C,0.010000*%
%ADD11C,0.100000*%
G04 APERTURE END LIST*
D10*
G36*
X64756535Y-34459854D02*
G01*
X64656193Y-34519657D01*
X64643163Y-34532051D01*
X64575202Y-34631727D01*
X64557008Y-34734719D01*
X64584778Y-34829302D01*
X64654711Y-34903754D01*
X64763004Y-34946351D01*
X64778315Y-34948755D01*
X64860300Y-34953802D01*
X64918013Y-34934458D01*
X64980465Y-34880762D01*
X64982638Y-34878593D01*
X65049315Y-34790882D01*
X65062988Y-34713692D01*
X64883533Y-34713692D01*
X64863262Y-34756560D01*
X64807389Y-34786573D01*
X64760696Y-34767085D01*
X64747039Y-34743342D01*
X64743112Y-34681435D01*
X64785910Y-34649841D01*
X64813313Y-34647111D01*
X64865717Y-34667553D01*
X64883533Y-34713692D01*
X65062988Y-34713692D01*
X65064799Y-34703471D01*
X65031434Y-34600770D01*
X65026041Y-34590101D01*
X64952023Y-34496677D01*
X64858666Y-34452727D01*
X64756535Y-34459854D01*
G37*
X64756535Y-34459854D02*
X64656193Y-34519657D01*
X64643163Y-34532051D01*
X64575202Y-34631727D01*
X64557008Y-34734719D01*
X64584778Y-34829302D01*
X64654711Y-34903754D01*
X64763004Y-34946351D01*
X64778315Y-34948755D01*
X64860300Y-34953802D01*
X64918013Y-34934458D01*
X64980465Y-34880762D01*
X64982638Y-34878593D01*
X65049315Y-34790882D01*
X65062988Y-34713692D01*
X64883533Y-34713692D01*
X64863262Y-34756560D01*
X64807389Y-34786573D01*
X64760696Y-34767085D01*
X64747039Y-34743342D01*
X64743112Y-34681435D01*
X64785910Y-34649841D01*
X64813313Y-34647111D01*
X64865717Y-34667553D01*
X64883533Y-34713692D01*
X65062988Y-34713692D01*
X65064799Y-34703471D01*
X65031434Y-34600770D01*
X65026041Y-34590101D01*
X64952023Y-34496677D01*
X64858666Y-34452727D01*
X64756535Y-34459854D01*
G36*
X66184550Y-35352425D02*
G01*
X66176406Y-35354989D01*
X66090141Y-35409552D01*
X66032300Y-35496338D01*
X66013895Y-35595839D01*
X66019528Y-35632912D01*
X66019810Y-35668929D01*
X65998788Y-35713881D01*
X65950563Y-35775997D01*
X65869238Y-35863509D01*
X65814100Y-35919581D01*
X65592102Y-36142888D01*
X64730000Y-36142888D01*
X64730000Y-36425111D01*
X64729525Y-36553191D01*
X64726436Y-36635131D01*
X64718235Y-36681235D01*
X64702426Y-36701806D01*
X64676512Y-36707151D01*
X64661616Y-36707333D01*
X64597213Y-36687440D01*
X64524251Y-36637369D01*
X64508564Y-36622666D01*
X64415189Y-36559284D01*
X64318760Y-36541839D01*
X64228017Y-36562579D01*
X64151703Y-36613752D01*
X64098557Y-36687604D01*
X64077319Y-36776383D01*
X64096731Y-36872337D01*
X64144389Y-36945678D01*
X64239147Y-37016382D01*
X64347057Y-37033802D01*
X64459506Y-36996734D01*
X64468945Y-36991065D01*
X64528182Y-36947355D01*
X64559292Y-36911099D01*
X64560667Y-36905303D01*
X64586487Y-36889763D01*
X64654478Y-36879481D01*
X64728978Y-36876666D01*
X64897290Y-36876666D01*
X64899646Y-36796370D01*
X64387575Y-36796370D01*
X64367694Y-36844364D01*
X64358833Y-36851097D01*
X64311061Y-36854604D01*
X64270812Y-36821146D01*
X64256065Y-36769229D01*
X64260389Y-36749769D01*
X64298971Y-36714634D01*
X64327424Y-36712627D01*
X64372129Y-36743540D01*
X64387575Y-36796370D01*
X64899646Y-36796370D01*
X64905367Y-36601500D01*
X64913445Y-36326333D01*
X65287810Y-36318455D01*
X65662175Y-36310578D01*
X65906134Y-36071511D01*
X66011824Y-35969469D01*
X66088142Y-35901274D01*
X66144991Y-35860230D01*
X66192274Y-35839644D01*
X66239893Y-35832821D01*
X66259774Y-35832444D01*
X66370523Y-35810358D01*
X66450225Y-35752140D01*
X66497220Y-35669850D01*
X66507617Y-35592203D01*
X66334353Y-35592203D01*
X66327142Y-35624215D01*
X66293183Y-35657060D01*
X66247301Y-35650739D01*
X66210594Y-35611863D01*
X66202649Y-35585211D01*
X66208219Y-35535483D01*
X66250372Y-35522000D01*
X66313665Y-35541264D01*
X66334353Y-35592203D01*
X66507617Y-35592203D01*
X66509848Y-35575546D01*
X66486448Y-35481290D01*
X66425359Y-35399140D01*
X66327304Y-35341993D01*
X66264919Y-35337611D01*
X66184550Y-35352425D01*
G37*
X66184550Y-35352425D02*
X66176406Y-35354989D01*
X66090141Y-35409552D01*
X66032300Y-35496338D01*
X66013895Y-35595839D01*
X66019528Y-35632912D01*
X66019810Y-35668929D01*
X65998788Y-35713881D01*
X65950563Y-35775997D01*
X65869238Y-35863509D01*
X65814100Y-35919581D01*
X65592102Y-36142888D01*
X64730000Y-36142888D01*
X64730000Y-36425111D01*
X64729525Y-36553191D01*
X64726436Y-36635131D01*
X64718235Y-36681235D01*
X64702426Y-36701806D01*
X64676512Y-36707151D01*
X64661616Y-36707333D01*
X64597213Y-36687440D01*
X64524251Y-36637369D01*
X64508564Y-36622666D01*
X64415189Y-36559284D01*
X64318760Y-36541839D01*
X64228017Y-36562579D01*
X64151703Y-36613752D01*
X64098557Y-36687604D01*
X64077319Y-36776383D01*
X64096731Y-36872337D01*
X64144389Y-36945678D01*
X64239147Y-37016382D01*
X64347057Y-37033802D01*
X64459506Y-36996734D01*
X64468945Y-36991065D01*
X64528182Y-36947355D01*
X64559292Y-36911099D01*
X64560667Y-36905303D01*
X64586487Y-36889763D01*
X64654478Y-36879481D01*
X64728978Y-36876666D01*
X64897290Y-36876666D01*
X64899646Y-36796370D01*
X64387575Y-36796370D01*
X64367694Y-36844364D01*
X64358833Y-36851097D01*
X64311061Y-36854604D01*
X64270812Y-36821146D01*
X64256065Y-36769229D01*
X64260389Y-36749769D01*
X64298971Y-36714634D01*
X64327424Y-36712627D01*
X64372129Y-36743540D01*
X64387575Y-36796370D01*
X64899646Y-36796370D01*
X64905367Y-36601500D01*
X64913445Y-36326333D01*
X65287810Y-36318455D01*
X65662175Y-36310578D01*
X65906134Y-36071511D01*
X66011824Y-35969469D01*
X66088142Y-35901274D01*
X66144991Y-35860230D01*
X66192274Y-35839644D01*
X66239893Y-35832821D01*
X66259774Y-35832444D01*
X66370523Y-35810358D01*
X66450225Y-35752140D01*
X66497220Y-35669850D01*
X66507617Y-35592203D01*
X66334353Y-35592203D01*
X66327142Y-35624215D01*
X66293183Y-35657060D01*
X66247301Y-35650739D01*
X66210594Y-35611863D01*
X66202649Y-35585211D01*
X66208219Y-35535483D01*
X66250372Y-35522000D01*
X66313665Y-35541264D01*
X66334353Y-35592203D01*
X66507617Y-35592203D01*
X66509848Y-35575546D01*
X66486448Y-35481290D01*
X66425359Y-35399140D01*
X66327304Y-35341993D01*
X66264919Y-35337611D01*
X66184550Y-35352425D01*
G36*
X66973961Y-36582984D02*
G01*
X66926992Y-36622666D01*
X66842325Y-36707333D01*
X65637453Y-36707333D01*
X65552787Y-36622666D01*
X65457912Y-36557956D01*
X65360853Y-36540321D01*
X65270281Y-36561830D01*
X65194868Y-36614552D01*
X65143283Y-36690554D01*
X65124200Y-36781905D01*
X65146289Y-36880673D01*
X65192672Y-36952062D01*
X65279466Y-37015513D01*
X65382064Y-37036161D01*
X65482681Y-37013930D01*
X65559747Y-36953636D01*
X65621121Y-36876666D01*
X66248005Y-36876666D01*
X66474617Y-36877939D01*
X66652559Y-36881697D01*
X66779825Y-36887849D01*
X66854410Y-36896302D01*
X66874889Y-36905303D01*
X66897786Y-36938607D01*
X66953234Y-36980646D01*
X67021372Y-37019212D01*
X67082338Y-37042094D01*
X67100667Y-37044105D01*
X67160602Y-37032457D01*
X67203481Y-37018015D01*
X67290787Y-36955889D01*
X67340878Y-36864841D01*
X67348937Y-36779743D01*
X67177925Y-36779743D01*
X67156813Y-36834692D01*
X67123786Y-36869754D01*
X67097455Y-36866816D01*
X67059375Y-36831343D01*
X67030416Y-36786399D01*
X65432836Y-36786399D01*
X65425350Y-36834333D01*
X65392296Y-36873404D01*
X65346414Y-36858556D01*
X65322965Y-36834692D01*
X65301530Y-36778317D01*
X65318498Y-36728293D01*
X65365000Y-36707333D01*
X65412228Y-36730728D01*
X65432836Y-36786399D01*
X67030416Y-36786399D01*
X67030326Y-36786260D01*
X67046704Y-36746676D01*
X67095209Y-36712494D01*
X67119119Y-36707333D01*
X67163135Y-36729350D01*
X67177925Y-36779743D01*
X67348937Y-36779743D01*
X67350726Y-36760861D01*
X67317304Y-36659938D01*
X67280263Y-36612404D01*
X67182985Y-36548656D01*
X67078196Y-36538927D01*
X66973961Y-36582984D01*
G37*
X66973961Y-36582984D02*
X66926992Y-36622666D01*
X66842325Y-36707333D01*
X65637453Y-36707333D01*
X65552787Y-36622666D01*
X65457912Y-36557956D01*
X65360853Y-36540321D01*
X65270281Y-36561830D01*
X65194868Y-36614552D01*
X65143283Y-36690554D01*
X65124200Y-36781905D01*
X65146289Y-36880673D01*
X65192672Y-36952062D01*
X65279466Y-37015513D01*
X65382064Y-37036161D01*
X65482681Y-37013930D01*
X65559747Y-36953636D01*
X65621121Y-36876666D01*
X66248005Y-36876666D01*
X66474617Y-36877939D01*
X66652559Y-36881697D01*
X66779825Y-36887849D01*
X66854410Y-36896302D01*
X66874889Y-36905303D01*
X66897786Y-36938607D01*
X66953234Y-36980646D01*
X67021372Y-37019212D01*
X67082338Y-37042094D01*
X67100667Y-37044105D01*
X67160602Y-37032457D01*
X67203481Y-37018015D01*
X67290787Y-36955889D01*
X67340878Y-36864841D01*
X67348937Y-36779743D01*
X67177925Y-36779743D01*
X67156813Y-36834692D01*
X67123786Y-36869754D01*
X67097455Y-36866816D01*
X67059375Y-36831343D01*
X67030416Y-36786399D01*
X65432836Y-36786399D01*
X65425350Y-36834333D01*
X65392296Y-36873404D01*
X65346414Y-36858556D01*
X65322965Y-36834692D01*
X65301530Y-36778317D01*
X65318498Y-36728293D01*
X65365000Y-36707333D01*
X65412228Y-36730728D01*
X65432836Y-36786399D01*
X67030416Y-36786399D01*
X67030326Y-36786260D01*
X67046704Y-36746676D01*
X67095209Y-36712494D01*
X67119119Y-36707333D01*
X67163135Y-36729350D01*
X67177925Y-36779743D01*
X67348937Y-36779743D01*
X67350726Y-36760861D01*
X67317304Y-36659938D01*
X67280263Y-36612404D01*
X67182985Y-36548656D01*
X67078196Y-36538927D01*
X66973961Y-36582984D01*
G36*
X66157123Y-36105784D02*
G01*
X66080488Y-36162280D01*
X66030399Y-36243864D01*
X66017252Y-36343286D01*
X66043387Y-36437455D01*
X66110801Y-36522822D01*
X66203623Y-36569141D01*
X66305912Y-36574022D01*
X66401726Y-36535076D01*
X66443147Y-36497355D01*
X66467982Y-36470250D01*
X66494609Y-36450946D01*
X66532362Y-36438120D01*
X66590574Y-36430447D01*
X66678582Y-36426604D01*
X66805719Y-36425267D01*
X66952474Y-36425111D01*
X67399656Y-36425111D01*
X67509843Y-36537952D01*
X67574928Y-36610648D01*
X67606711Y-36669343D01*
X67615162Y-36736278D01*
X67614221Y-36770785D01*
X67624709Y-36886515D01*
X67673384Y-36965828D01*
X67760971Y-37016668D01*
X67826820Y-37038803D01*
X67871496Y-37040520D01*
X67919111Y-37026068D01*
X68011031Y-36968864D01*
X68066494Y-36886540D01*
X68087037Y-36791667D01*
X68086835Y-36790168D01*
X67916636Y-36790168D01*
X67902735Y-36837977D01*
X67889170Y-36849507D01*
X67830875Y-36861118D01*
X67790347Y-36829160D01*
X67783564Y-36781352D01*
X67812654Y-36730879D01*
X67848169Y-36721444D01*
X67895737Y-36742858D01*
X67916636Y-36790168D01*
X68086835Y-36790168D01*
X68074196Y-36696817D01*
X68029510Y-36614565D01*
X67954514Y-36557481D01*
X67859446Y-36538000D01*
X67799769Y-36528357D01*
X67735714Y-36494207D01*
X67654403Y-36427715D01*
X67609742Y-36386100D01*
X67546714Y-36325981D01*
X66334353Y-36325981D01*
X66327142Y-36357992D01*
X66293183Y-36390838D01*
X66247301Y-36384517D01*
X66210594Y-36345641D01*
X66202649Y-36318989D01*
X66208219Y-36269261D01*
X66250372Y-36255777D01*
X66313665Y-36275042D01*
X66334353Y-36325981D01*
X67546714Y-36325981D01*
X67450492Y-36234201D01*
X66982843Y-36233192D01*
X66810429Y-36232583D01*
X66685192Y-36230769D01*
X66597866Y-36226486D01*
X66539183Y-36218465D01*
X66499877Y-36205441D01*
X66470681Y-36186147D01*
X66442326Y-36159316D01*
X66442324Y-36159313D01*
X66348439Y-36097051D01*
X66249906Y-36081625D01*
X66157123Y-36105784D01*
G37*
X66157123Y-36105784D02*
X66080488Y-36162280D01*
X66030399Y-36243864D01*
X66017252Y-36343286D01*
X66043387Y-36437455D01*
X66110801Y-36522822D01*
X66203623Y-36569141D01*
X66305912Y-36574022D01*
X66401726Y-36535076D01*
X66443147Y-36497355D01*
X66467982Y-36470250D01*
X66494609Y-36450946D01*
X66532362Y-36438120D01*
X66590574Y-36430447D01*
X66678582Y-36426604D01*
X66805719Y-36425267D01*
X66952474Y-36425111D01*
X67399656Y-36425111D01*
X67509843Y-36537952D01*
X67574928Y-36610648D01*
X67606711Y-36669343D01*
X67615162Y-36736278D01*
X67614221Y-36770785D01*
X67624709Y-36886515D01*
X67673384Y-36965828D01*
X67760971Y-37016668D01*
X67826820Y-37038803D01*
X67871496Y-37040520D01*
X67919111Y-37026068D01*
X68011031Y-36968864D01*
X68066494Y-36886540D01*
X68087037Y-36791667D01*
X68086835Y-36790168D01*
X67916636Y-36790168D01*
X67902735Y-36837977D01*
X67889170Y-36849507D01*
X67830875Y-36861118D01*
X67790347Y-36829160D01*
X67783564Y-36781352D01*
X67812654Y-36730879D01*
X67848169Y-36721444D01*
X67895737Y-36742858D01*
X67916636Y-36790168D01*
X68086835Y-36790168D01*
X68074196Y-36696817D01*
X68029510Y-36614565D01*
X67954514Y-36557481D01*
X67859446Y-36538000D01*
X67799769Y-36528357D01*
X67735714Y-36494207D01*
X67654403Y-36427715D01*
X67609742Y-36386100D01*
X67546714Y-36325981D01*
X66334353Y-36325981D01*
X66327142Y-36357992D01*
X66293183Y-36390838D01*
X66247301Y-36384517D01*
X66210594Y-36345641D01*
X66202649Y-36318989D01*
X66208219Y-36269261D01*
X66250372Y-36255777D01*
X66313665Y-36275042D01*
X66334353Y-36325981D01*
X67546714Y-36325981D01*
X67450492Y-36234201D01*
X66982843Y-36233192D01*
X66810429Y-36232583D01*
X66685192Y-36230769D01*
X66597866Y-36226486D01*
X66539183Y-36218465D01*
X66499877Y-36205441D01*
X66470681Y-36186147D01*
X66442326Y-36159316D01*
X66442324Y-36159313D01*
X66348439Y-36097051D01*
X66249906Y-36081625D01*
X66157123Y-36105784D01*
G36*
X66033387Y-34955839D02*
G01*
X65804052Y-35183333D01*
X65427635Y-35183333D01*
X65219374Y-35395000D01*
X65131452Y-35482289D01*
X65057284Y-35552076D01*
X65006093Y-35595909D01*
X64988365Y-35606666D01*
X64955411Y-35587965D01*
X64905254Y-35542319D01*
X64899334Y-35536111D01*
X64848075Y-35488351D01*
X64811312Y-35465818D01*
X64808985Y-35465555D01*
X64783369Y-35484682D01*
X64723338Y-35538619D01*
X64634326Y-35622199D01*
X64521766Y-35730256D01*
X64391092Y-35857622D01*
X64247737Y-35999132D01*
X64245074Y-36001777D01*
X64082934Y-36162404D01*
X63955228Y-36287407D01*
X63856626Y-36381223D01*
X63781799Y-36448287D01*
X63725416Y-36493037D01*
X63682148Y-36519907D01*
X63646665Y-36533336D01*
X63613637Y-36537758D01*
X63600846Y-36538000D01*
X63488612Y-36559651D01*
X63408156Y-36616731D01*
X63360365Y-36697426D01*
X63346124Y-36789923D01*
X63366322Y-36882411D01*
X63421844Y-36963075D01*
X63513576Y-37020104D01*
X63563600Y-37034264D01*
X63630194Y-37037587D01*
X63690756Y-37010892D01*
X63744755Y-36967291D01*
X63806430Y-36902651D01*
X63832064Y-36840735D01*
X63834009Y-36790168D01*
X63655080Y-36790168D01*
X63641179Y-36837977D01*
X63627614Y-36849507D01*
X63569320Y-36861118D01*
X63528791Y-36829160D01*
X63522008Y-36781352D01*
X63551099Y-36730879D01*
X63586614Y-36721444D01*
X63634181Y-36742858D01*
X63655080Y-36790168D01*
X63834009Y-36790168D01*
X63834709Y-36771984D01*
X63834708Y-36735995D01*
X63840912Y-36702191D01*
X63857963Y-36664825D01*
X63890502Y-36618151D01*
X63943173Y-36556422D01*
X64020618Y-36473892D01*
X64127479Y-36364815D01*
X64268399Y-36223443D01*
X64317440Y-36174444D01*
X64804597Y-35687884D01*
X64894864Y-35780211D01*
X64985130Y-35872537D01*
X65246151Y-35612602D01*
X65507172Y-35352666D01*
X65879544Y-35352666D01*
X66067325Y-35163030D01*
X66255107Y-34973394D01*
X66727578Y-35445252D01*
X67200050Y-35917111D01*
X67592069Y-35917111D01*
X68242423Y-36566054D01*
X68892778Y-37214998D01*
X66094742Y-37215165D01*
X65630900Y-37215118D01*
X65220319Y-37214884D01*
X64859813Y-37214416D01*
X64546198Y-37213667D01*
X64276290Y-37212588D01*
X64046905Y-37211132D01*
X63854857Y-37209251D01*
X63696964Y-37206897D01*
X63570040Y-37204023D01*
X63470901Y-37200581D01*
X63396363Y-37196522D01*
X63343242Y-37191800D01*
X63308352Y-37186367D01*
X63288510Y-37180174D01*
X63280532Y-37173174D01*
X63280445Y-37172958D01*
X63245697Y-37133594D01*
X63181106Y-37091298D01*
X63167577Y-37084514D01*
X63101754Y-37057296D01*
X63051279Y-37055393D01*
X62987856Y-37079790D01*
X62963634Y-37091611D01*
X62867421Y-37165037D01*
X62819797Y-37259558D01*
X62822541Y-37364726D01*
X62877434Y-37470092D01*
X62895563Y-37491061D01*
X62981378Y-37546088D01*
X63082148Y-37553174D01*
X63184442Y-37513167D01*
X63238436Y-37469461D01*
X63322974Y-37384923D01*
X66300250Y-37377739D01*
X69277525Y-37370555D01*
X69223168Y-37315864D01*
X63147127Y-37315864D01*
X63124500Y-37360293D01*
X63072703Y-37380484D01*
X63057960Y-37379590D01*
X63004762Y-37351585D01*
X62994334Y-37314497D01*
X63016763Y-37266074D01*
X63067428Y-37245405D01*
X63121392Y-37261302D01*
X63128079Y-37267234D01*
X63147127Y-37315864D01*
X69223168Y-37315864D01*
X68455572Y-36543560D01*
X67633618Y-35716566D01*
X67458865Y-35728944D01*
X67284111Y-35741322D01*
X66773417Y-35234833D01*
X66262723Y-34728345D01*
X66033387Y-34955839D01*
G37*
X66033387Y-34955839D02*
X65804052Y-35183333D01*
X65427635Y-35183333D01*
X65219374Y-35395000D01*
X65131452Y-35482289D01*
X65057284Y-35552076D01*
X65006093Y-35595909D01*
X64988365Y-35606666D01*
X64955411Y-35587965D01*
X64905254Y-35542319D01*
X64899334Y-35536111D01*
X64848075Y-35488351D01*
X64811312Y-35465818D01*
X64808985Y-35465555D01*
X64783369Y-35484682D01*
X64723338Y-35538619D01*
X64634326Y-35622199D01*
X64521766Y-35730256D01*
X64391092Y-35857622D01*
X64247737Y-35999132D01*
X64245074Y-36001777D01*
X64082934Y-36162404D01*
X63955228Y-36287407D01*
X63856626Y-36381223D01*
X63781799Y-36448287D01*
X63725416Y-36493037D01*
X63682148Y-36519907D01*
X63646665Y-36533336D01*
X63613637Y-36537758D01*
X63600846Y-36538000D01*
X63488612Y-36559651D01*
X63408156Y-36616731D01*
X63360365Y-36697426D01*
X63346124Y-36789923D01*
X63366322Y-36882411D01*
X63421844Y-36963075D01*
X63513576Y-37020104D01*
X63563600Y-37034264D01*
X63630194Y-37037587D01*
X63690756Y-37010892D01*
X63744755Y-36967291D01*
X63806430Y-36902651D01*
X63832064Y-36840735D01*
X63834009Y-36790168D01*
X63655080Y-36790168D01*
X63641179Y-36837977D01*
X63627614Y-36849507D01*
X63569320Y-36861118D01*
X63528791Y-36829160D01*
X63522008Y-36781352D01*
X63551099Y-36730879D01*
X63586614Y-36721444D01*
X63634181Y-36742858D01*
X63655080Y-36790168D01*
X63834009Y-36790168D01*
X63834709Y-36771984D01*
X63834708Y-36735995D01*
X63840912Y-36702191D01*
X63857963Y-36664825D01*
X63890502Y-36618151D01*
X63943173Y-36556422D01*
X64020618Y-36473892D01*
X64127479Y-36364815D01*
X64268399Y-36223443D01*
X64317440Y-36174444D01*
X64804597Y-35687884D01*
X64894864Y-35780211D01*
X64985130Y-35872537D01*
X65246151Y-35612602D01*
X65507172Y-35352666D01*
X65879544Y-35352666D01*
X66067325Y-35163030D01*
X66255107Y-34973394D01*
X66727578Y-35445252D01*
X67200050Y-35917111D01*
X67592069Y-35917111D01*
X68242423Y-36566054D01*
X68892778Y-37214998D01*
X66094742Y-37215165D01*
X65630900Y-37215118D01*
X65220319Y-37214884D01*
X64859813Y-37214416D01*
X64546198Y-37213667D01*
X64276290Y-37212588D01*
X64046905Y-37211132D01*
X63854857Y-37209251D01*
X63696964Y-37206897D01*
X63570040Y-37204023D01*
X63470901Y-37200581D01*
X63396363Y-37196522D01*
X63343242Y-37191800D01*
X63308352Y-37186367D01*
X63288510Y-37180174D01*
X63280532Y-37173174D01*
X63280445Y-37172958D01*
X63245697Y-37133594D01*
X63181106Y-37091298D01*
X63167577Y-37084514D01*
X63101754Y-37057296D01*
X63051279Y-37055393D01*
X62987856Y-37079790D01*
X62963634Y-37091611D01*
X62867421Y-37165037D01*
X62819797Y-37259558D01*
X62822541Y-37364726D01*
X62877434Y-37470092D01*
X62895563Y-37491061D01*
X62981378Y-37546088D01*
X63082148Y-37553174D01*
X63184442Y-37513167D01*
X63238436Y-37469461D01*
X63322974Y-37384923D01*
X66300250Y-37377739D01*
X69277525Y-37370555D01*
X69223168Y-37315864D01*
X63147127Y-37315864D01*
X63124500Y-37360293D01*
X63072703Y-37380484D01*
X63057960Y-37379590D01*
X63004762Y-37351585D01*
X62994334Y-37314497D01*
X63016763Y-37266074D01*
X63067428Y-37245405D01*
X63121392Y-37261302D01*
X63128079Y-37267234D01*
X63147127Y-37315864D01*
X69223168Y-37315864D01*
X68455572Y-36543560D01*
X67633618Y-35716566D01*
X67458865Y-35728944D01*
X67284111Y-35741322D01*
X66773417Y-35234833D01*
X66262723Y-34728345D01*
X66033387Y-34955839D01*
G36*
X66088843Y-37614946D02*
G01*
X65969420Y-37616062D01*
X65874400Y-37618579D01*
X65815645Y-37622085D01*
X65802445Y-37624913D01*
X65820211Y-37648564D01*
X65866927Y-37701924D01*
X65932714Y-37773730D01*
X65936865Y-37778179D01*
X66071286Y-37922102D01*
X66223264Y-37768212D01*
X66375242Y-37614323D01*
X66088843Y-37614946D01*
G37*
X66088843Y-37614946D02*
X65969420Y-37616062D01*
X65874400Y-37618579D01*
X65815645Y-37622085D01*
X65802445Y-37624913D01*
X65820211Y-37648564D01*
X65866927Y-37701924D01*
X65932714Y-37773730D01*
X65936865Y-37778179D01*
X66071286Y-37922102D01*
X66223264Y-37768212D01*
X66375242Y-37614323D01*
X66088843Y-37614946D01*
G36*
X66354278Y-37864444D02*
G01*
X66254821Y-37959967D01*
X66168540Y-38039086D01*
X66103919Y-38094286D01*
X66069442Y-38118053D01*
X66067499Y-38118444D01*
X66038293Y-38099253D01*
X65978693Y-38046873D01*
X65897120Y-37969096D01*
X65801994Y-37873714D01*
X65792970Y-37864444D01*
X65686787Y-37756896D01*
X65609558Y-37684416D01*
X65552241Y-37640336D01*
X65505792Y-37617985D01*
X65461167Y-37610695D01*
X65448551Y-37610444D01*
X65383685Y-37615938D01*
X65351621Y-37629426D01*
X65350889Y-37632071D01*
X65369895Y-37658370D01*
X65422388Y-37716992D01*
X65501584Y-37800710D01*
X65600700Y-37902297D01*
X65668831Y-37970738D01*
X65807026Y-38107636D01*
X65914414Y-38205761D01*
X66000805Y-38265532D01*
X66076011Y-38287368D01*
X66149844Y-38271688D01*
X66232113Y-38218910D01*
X66332632Y-38129455D01*
X66460390Y-38004551D01*
X66747889Y-37721325D01*
X66923128Y-37726739D01*
X67055037Y-37720849D01*
X67143299Y-37694830D01*
X67183368Y-37650270D01*
X67185334Y-37635211D01*
X67159094Y-37624878D01*
X67088286Y-37616659D01*
X66984775Y-37611580D01*
X66899310Y-37610444D01*
X66613286Y-37610444D01*
X66354278Y-37864444D01*
G37*
X66354278Y-37864444D02*
X66254821Y-37959967D01*
X66168540Y-38039086D01*
X66103919Y-38094286D01*
X66069442Y-38118053D01*
X66067499Y-38118444D01*
X66038293Y-38099253D01*
X65978693Y-38046873D01*
X65897120Y-37969096D01*
X65801994Y-37873714D01*
X65792970Y-37864444D01*
X65686787Y-37756896D01*
X65609558Y-37684416D01*
X65552241Y-37640336D01*
X65505792Y-37617985D01*
X65461167Y-37610695D01*
X65448551Y-37610444D01*
X65383685Y-37615938D01*
X65351621Y-37629426D01*
X65350889Y-37632071D01*
X65369895Y-37658370D01*
X65422388Y-37716992D01*
X65501584Y-37800710D01*
X65600700Y-37902297D01*
X65668831Y-37970738D01*
X65807026Y-38107636D01*
X65914414Y-38205761D01*
X66000805Y-38265532D01*
X66076011Y-38287368D01*
X66149844Y-38271688D01*
X66232113Y-38218910D01*
X66332632Y-38129455D01*
X66460390Y-38004551D01*
X66747889Y-37721325D01*
X66923128Y-37726739D01*
X67055037Y-37720849D01*
X67143299Y-37694830D01*
X67183368Y-37650270D01*
X67185334Y-37635211D01*
X67159094Y-37624878D01*
X67088286Y-37616659D01*
X66984775Y-37611580D01*
X66899310Y-37610444D01*
X66613286Y-37610444D01*
X66354278Y-37864444D01*
G36*
X64676304Y-37612717D02*
G01*
X64579693Y-37617238D01*
X64519051Y-37625152D01*
X64504222Y-37632764D01*
X64523730Y-37662329D01*
X64573436Y-37715639D01*
X64640113Y-37780377D01*
X64710536Y-37844228D01*
X64771479Y-37894877D01*
X64809716Y-37920006D01*
X64813640Y-37920888D01*
X64844225Y-37902278D01*
X64893156Y-37856821D01*
X64899334Y-37850333D01*
X64948884Y-37802741D01*
X64981995Y-37780083D01*
X64983995Y-37779777D01*
X65008855Y-37798555D01*
X65067787Y-37851012D01*
X65154536Y-37931338D01*
X65262849Y-38033718D01*
X65386469Y-38152341D01*
X65423576Y-38188259D01*
X65844778Y-38596740D01*
X66085224Y-38597481D01*
X66325671Y-38598222D01*
X66859663Y-38062000D01*
X67239737Y-38062000D01*
X67452424Y-37848621D01*
X67539332Y-37760359D01*
X67609087Y-37687480D01*
X67653444Y-37638726D01*
X67665111Y-37623046D01*
X67640106Y-37616348D01*
X67577731Y-37614561D01*
X67553718Y-37615215D01*
X67484124Y-37624729D01*
X67422890Y-37653637D01*
X67352737Y-37711841D01*
X67307834Y-37756123D01*
X67234583Y-37828318D01*
X67179745Y-37869148D01*
X67122215Y-37887552D01*
X67040891Y-37892471D01*
X66985503Y-37892666D01*
X66797662Y-37892666D01*
X66517600Y-38174888D01*
X66237539Y-38457111D01*
X65928739Y-38457111D01*
X65509425Y-38037097D01*
X65090112Y-37617083D01*
X64797167Y-37612404D01*
X64676304Y-37612717D01*
G37*
X64676304Y-37612717D02*
X64579693Y-37617238D01*
X64519051Y-37625152D01*
X64504222Y-37632764D01*
X64523730Y-37662329D01*
X64573436Y-37715639D01*
X64640113Y-37780377D01*
X64710536Y-37844228D01*
X64771479Y-37894877D01*
X64809716Y-37920006D01*
X64813640Y-37920888D01*
X64844225Y-37902278D01*
X64893156Y-37856821D01*
X64899334Y-37850333D01*
X64948884Y-37802741D01*
X64981995Y-37780083D01*
X64983995Y-37779777D01*
X65008855Y-37798555D01*
X65067787Y-37851012D01*
X65154536Y-37931338D01*
X65262849Y-38033718D01*
X65386469Y-38152341D01*
X65423576Y-38188259D01*
X65844778Y-38596740D01*
X66085224Y-38597481D01*
X66325671Y-38598222D01*
X66859663Y-38062000D01*
X67239737Y-38062000D01*
X67452424Y-37848621D01*
X67539332Y-37760359D01*
X67609087Y-37687480D01*
X67653444Y-37638726D01*
X67665111Y-37623046D01*
X67640106Y-37616348D01*
X67577731Y-37614561D01*
X67553718Y-37615215D01*
X67484124Y-37624729D01*
X67422890Y-37653637D01*
X67352737Y-37711841D01*
X67307834Y-37756123D01*
X67234583Y-37828318D01*
X67179745Y-37869148D01*
X67122215Y-37887552D01*
X67040891Y-37892471D01*
X66985503Y-37892666D01*
X66797662Y-37892666D01*
X66517600Y-38174888D01*
X66237539Y-38457111D01*
X65928739Y-38457111D01*
X65509425Y-38037097D01*
X65090112Y-37617083D01*
X64797167Y-37612404D01*
X64676304Y-37612717D01*
G36*
X64137916Y-37614786D02*
G01*
X64135220Y-37614943D01*
X64021774Y-37621637D01*
X64817222Y-38414777D01*
X64903541Y-38319330D01*
X64989861Y-38223883D01*
X65347156Y-38580386D01*
X65704452Y-38936888D01*
X65889279Y-38936888D01*
X65992979Y-38939366D01*
X66059649Y-38950902D01*
X66108628Y-38977655D01*
X66155222Y-39021555D01*
X66209164Y-39074226D01*
X66246233Y-39103831D01*
X66252225Y-39106190D01*
X66276485Y-39087343D01*
X66334077Y-39035040D01*
X66418286Y-38955606D01*
X66522399Y-38855364D01*
X66626727Y-38753412D01*
X66985342Y-38400666D01*
X67369562Y-38400666D01*
X67743115Y-38026343D01*
X67860571Y-37907514D01*
X67962881Y-37801847D01*
X68043818Y-37715952D01*
X68097154Y-37656440D01*
X68116664Y-37629919D01*
X68116667Y-37629821D01*
X68091834Y-37618446D01*
X68029747Y-37616906D01*
X68003905Y-37618898D01*
X67955726Y-37627293D01*
X67908926Y-37646363D01*
X67855207Y-37682424D01*
X67786271Y-37741792D01*
X67693820Y-37830783D01*
X67594184Y-37930753D01*
X67297225Y-38231333D01*
X67103763Y-38231333D01*
X67000189Y-38232858D01*
X66933120Y-38242636D01*
X66882620Y-38268467D01*
X66828749Y-38318153D01*
X66797244Y-38351277D01*
X66727017Y-38424078D01*
X66631629Y-38520698D01*
X66526432Y-38625656D01*
X66469834Y-38681447D01*
X66255480Y-38891673D01*
X66189421Y-38829614D01*
X66140077Y-38793822D01*
X66077137Y-38774775D01*
X65982363Y-38767918D01*
X65940853Y-38767555D01*
X65758343Y-38767555D01*
X65384290Y-38386555D01*
X65266088Y-38267304D01*
X65160868Y-38163322D01*
X65075144Y-38080868D01*
X65015426Y-38026202D01*
X64988227Y-38005583D01*
X64987927Y-38005555D01*
X64955284Y-38024244D01*
X64905288Y-38069866D01*
X64899334Y-38076111D01*
X64846692Y-38124004D01*
X64806973Y-38146435D01*
X64804439Y-38146666D01*
X64775116Y-38127514D01*
X64714964Y-38075074D01*
X64632144Y-37996865D01*
X64534822Y-37900409D01*
X64512247Y-37877458D01*
X64404711Y-37768507D01*
X64327254Y-37693995D01*
X64270860Y-37647643D01*
X64226516Y-37623176D01*
X64185206Y-37614316D01*
X64137916Y-37614786D01*
G37*
X64137916Y-37614786D02*
X64135220Y-37614943D01*
X64021774Y-37621637D01*
X64817222Y-38414777D01*
X64903541Y-38319330D01*
X64989861Y-38223883D01*
X65347156Y-38580386D01*
X65704452Y-38936888D01*
X65889279Y-38936888D01*
X65992979Y-38939366D01*
X66059649Y-38950902D01*
X66108628Y-38977655D01*
X66155222Y-39021555D01*
X66209164Y-39074226D01*
X66246233Y-39103831D01*
X66252225Y-39106190D01*
X66276485Y-39087343D01*
X66334077Y-39035040D01*
X66418286Y-38955606D01*
X66522399Y-38855364D01*
X66626727Y-38753412D01*
X66985342Y-38400666D01*
X67369562Y-38400666D01*
X67743115Y-38026343D01*
X67860571Y-37907514D01*
X67962881Y-37801847D01*
X68043818Y-37715952D01*
X68097154Y-37656440D01*
X68116664Y-37629919D01*
X68116667Y-37629821D01*
X68091834Y-37618446D01*
X68029747Y-37616906D01*
X68003905Y-37618898D01*
X67955726Y-37627293D01*
X67908926Y-37646363D01*
X67855207Y-37682424D01*
X67786271Y-37741792D01*
X67693820Y-37830783D01*
X67594184Y-37930753D01*
X67297225Y-38231333D01*
X67103763Y-38231333D01*
X67000189Y-38232858D01*
X66933120Y-38242636D01*
X66882620Y-38268467D01*
X66828749Y-38318153D01*
X66797244Y-38351277D01*
X66727017Y-38424078D01*
X66631629Y-38520698D01*
X66526432Y-38625656D01*
X66469834Y-38681447D01*
X66255480Y-38891673D01*
X66189421Y-38829614D01*
X66140077Y-38793822D01*
X66077137Y-38774775D01*
X65982363Y-38767918D01*
X65940853Y-38767555D01*
X65758343Y-38767555D01*
X65384290Y-38386555D01*
X65266088Y-38267304D01*
X65160868Y-38163322D01*
X65075144Y-38080868D01*
X65015426Y-38026202D01*
X64988227Y-38005583D01*
X64987927Y-38005555D01*
X64955284Y-38024244D01*
X64905288Y-38069866D01*
X64899334Y-38076111D01*
X64846692Y-38124004D01*
X64806973Y-38146435D01*
X64804439Y-38146666D01*
X64775116Y-38127514D01*
X64714964Y-38075074D01*
X64632144Y-37996865D01*
X64534822Y-37900409D01*
X64512247Y-37877458D01*
X64404711Y-37768507D01*
X64327254Y-37693995D01*
X64270860Y-37647643D01*
X64226516Y-37623176D01*
X64185206Y-37614316D01*
X64137916Y-37614786D01*
G36*
X68429727Y-37618361D02*
G01*
X68393352Y-37633787D01*
X68347887Y-37664778D01*
X68287447Y-37716005D01*
X68206148Y-37792143D01*
X68098107Y-37897864D01*
X67957439Y-38037840D01*
X67920538Y-38074686D01*
X67451712Y-38542903D01*
X67269134Y-38544541D01*
X67086556Y-38546180D01*
X66676569Y-38953623D01*
X66266582Y-39361067D01*
X66141526Y-39233644D01*
X66072135Y-39165511D01*
X66018609Y-39127393D01*
X65959580Y-39110575D01*
X65873678Y-39106343D01*
X65829066Y-39106222D01*
X65641662Y-39106222D01*
X65321342Y-38781558D01*
X65001021Y-38456895D01*
X64907217Y-38547813D01*
X64813414Y-38638731D01*
X64296715Y-38122599D01*
X64139683Y-37965972D01*
X64017016Y-37844839D01*
X63923202Y-37754744D01*
X63852729Y-37691232D01*
X63800088Y-37649847D01*
X63759765Y-37626135D01*
X63726249Y-37615640D01*
X63694030Y-37613907D01*
X63669422Y-37615511D01*
X63558827Y-37624555D01*
X64174935Y-38231333D01*
X64328740Y-38382413D01*
X64469843Y-38520257D01*
X64593180Y-38639979D01*
X64693687Y-38736691D01*
X64766300Y-38805506D01*
X64805954Y-38841536D01*
X64811537Y-38845708D01*
X64842562Y-38832383D01*
X64891574Y-38789758D01*
X64898824Y-38782208D01*
X64952305Y-38734033D01*
X64993659Y-38711364D01*
X64996505Y-38711111D01*
X65026584Y-38730140D01*
X65087980Y-38782389D01*
X65172672Y-38860604D01*
X65272635Y-38957527D01*
X65308556Y-38993333D01*
X65589719Y-39275555D01*
X65956030Y-39275555D01*
X66269268Y-39585525D01*
X66705793Y-39148318D01*
X67142317Y-38711111D01*
X67509889Y-38710009D01*
X68059004Y-38167282D01*
X68608120Y-37624555D01*
X68498742Y-37615512D01*
X68462895Y-37613827D01*
X68429727Y-37618361D01*
G37*
X68429727Y-37618361D02*
X68393352Y-37633787D01*
X68347887Y-37664778D01*
X68287447Y-37716005D01*
X68206148Y-37792143D01*
X68098107Y-37897864D01*
X67957439Y-38037840D01*
X67920538Y-38074686D01*
X67451712Y-38542903D01*
X67269134Y-38544541D01*
X67086556Y-38546180D01*
X66676569Y-38953623D01*
X66266582Y-39361067D01*
X66141526Y-39233644D01*
X66072135Y-39165511D01*
X66018609Y-39127393D01*
X65959580Y-39110575D01*
X65873678Y-39106343D01*
X65829066Y-39106222D01*
X65641662Y-39106222D01*
X65321342Y-38781558D01*
X65001021Y-38456895D01*
X64907217Y-38547813D01*
X64813414Y-38638731D01*
X64296715Y-38122599D01*
X64139683Y-37965972D01*
X64017016Y-37844839D01*
X63923202Y-37754744D01*
X63852729Y-37691232D01*
X63800088Y-37649847D01*
X63759765Y-37626135D01*
X63726249Y-37615640D01*
X63694030Y-37613907D01*
X63669422Y-37615511D01*
X63558827Y-37624555D01*
X64174935Y-38231333D01*
X64328740Y-38382413D01*
X64469843Y-38520257D01*
X64593180Y-38639979D01*
X64693687Y-38736691D01*
X64766300Y-38805506D01*
X64805954Y-38841536D01*
X64811537Y-38845708D01*
X64842562Y-38832383D01*
X64891574Y-38789758D01*
X64898824Y-38782208D01*
X64952305Y-38734033D01*
X64993659Y-38711364D01*
X64996505Y-38711111D01*
X65026584Y-38730140D01*
X65087980Y-38782389D01*
X65172672Y-38860604D01*
X65272635Y-38957527D01*
X65308556Y-38993333D01*
X65589719Y-39275555D01*
X65956030Y-39275555D01*
X66269268Y-39585525D01*
X66705793Y-39148318D01*
X67142317Y-38711111D01*
X67509889Y-38710009D01*
X68059004Y-38167282D01*
X68608120Y-37624555D01*
X68498742Y-37615512D01*
X68462895Y-37613827D01*
X68429727Y-37618361D01*
G36*
X68919492Y-37612946D02*
G01*
X68887469Y-37623195D01*
X68848706Y-37645304D01*
X68798494Y-37683387D01*
X68732125Y-37741558D01*
X68644892Y-37823929D01*
X68532086Y-37934615D01*
X68389000Y-38077728D01*
X68222759Y-38245422D01*
X67594556Y-38880400D01*
X67196404Y-38880444D01*
X66735480Y-39346111D01*
X66603945Y-39478242D01*
X66485474Y-39595811D01*
X66385837Y-39693206D01*
X66310805Y-39764820D01*
X66266149Y-39805042D01*
X66256407Y-39811777D01*
X66229838Y-39793014D01*
X66173819Y-39742736D01*
X66098178Y-39669962D01*
X66056445Y-39628333D01*
X65874631Y-39444888D01*
X65507172Y-39444888D01*
X65246076Y-39184878D01*
X64984979Y-38924867D01*
X64798513Y-39105597D01*
X64096379Y-38400354D01*
X63932432Y-38236549D01*
X63780349Y-38086261D01*
X63644849Y-37954025D01*
X63530650Y-37844377D01*
X63442469Y-37761851D01*
X63385026Y-37710983D01*
X63363622Y-37696008D01*
X63317710Y-37712500D01*
X63285100Y-37733309D01*
X63276342Y-37745949D01*
X63279000Y-37766075D01*
X63296433Y-37797425D01*
X63332000Y-37843734D01*
X63389060Y-37908741D01*
X63470972Y-37996183D01*
X63581095Y-38109796D01*
X63722789Y-38253318D01*
X63899412Y-38430486D01*
X64020238Y-38551186D01*
X64803276Y-39332660D01*
X64895182Y-39242805D01*
X64987088Y-39152949D01*
X65204891Y-39369474D01*
X65422693Y-39586000D01*
X65793127Y-39586000D01*
X66021344Y-39811777D01*
X66112605Y-39901304D01*
X66188202Y-39974033D01*
X66239790Y-40022031D01*
X66258836Y-40037531D01*
X66280493Y-40018431D01*
X66336500Y-39964734D01*
X66421366Y-39881829D01*
X66529600Y-39775102D01*
X66655711Y-39649939D01*
X66762000Y-39543935D01*
X67255889Y-39050363D01*
X67453656Y-39050070D01*
X67651424Y-39049777D01*
X68349712Y-38351070D01*
X68512400Y-38187706D01*
X68661655Y-38036718D01*
X68792939Y-37902783D01*
X68901714Y-37790576D01*
X68983445Y-37704774D01*
X69033592Y-37650052D01*
X69048000Y-37631403D01*
X69023174Y-37617530D01*
X68962156Y-37610618D01*
X68949481Y-37610444D01*
X68919492Y-37612946D01*
G37*
X68919492Y-37612946D02*
X68887469Y-37623195D01*
X68848706Y-37645304D01*
X68798494Y-37683387D01*
X68732125Y-37741558D01*
X68644892Y-37823929D01*
X68532086Y-37934615D01*
X68389000Y-38077728D01*
X68222759Y-38245422D01*
X67594556Y-38880400D01*
X67196404Y-38880444D01*
X66735480Y-39346111D01*
X66603945Y-39478242D01*
X66485474Y-39595811D01*
X66385837Y-39693206D01*
X66310805Y-39764820D01*
X66266149Y-39805042D01*
X66256407Y-39811777D01*
X66229838Y-39793014D01*
X66173819Y-39742736D01*
X66098178Y-39669962D01*
X66056445Y-39628333D01*
X65874631Y-39444888D01*
X65507172Y-39444888D01*
X65246076Y-39184878D01*
X64984979Y-38924867D01*
X64798513Y-39105597D01*
X64096379Y-38400354D01*
X63932432Y-38236549D01*
X63780349Y-38086261D01*
X63644849Y-37954025D01*
X63530650Y-37844377D01*
X63442469Y-37761851D01*
X63385026Y-37710983D01*
X63363622Y-37696008D01*
X63317710Y-37712500D01*
X63285100Y-37733309D01*
X63276342Y-37745949D01*
X63279000Y-37766075D01*
X63296433Y-37797425D01*
X63332000Y-37843734D01*
X63389060Y-37908741D01*
X63470972Y-37996183D01*
X63581095Y-38109796D01*
X63722789Y-38253318D01*
X63899412Y-38430486D01*
X64020238Y-38551186D01*
X64803276Y-39332660D01*
X64895182Y-39242805D01*
X64987088Y-39152949D01*
X65204891Y-39369474D01*
X65422693Y-39586000D01*
X65793127Y-39586000D01*
X66021344Y-39811777D01*
X66112605Y-39901304D01*
X66188202Y-39974033D01*
X66239790Y-40022031D01*
X66258836Y-40037531D01*
X66280493Y-40018431D01*
X66336500Y-39964734D01*
X66421366Y-39881829D01*
X66529600Y-39775102D01*
X66655711Y-39649939D01*
X66762000Y-39543935D01*
X67255889Y-39050363D01*
X67453656Y-39050070D01*
X67651424Y-39049777D01*
X68349712Y-38351070D01*
X68512400Y-38187706D01*
X68661655Y-38036718D01*
X68792939Y-37902783D01*
X68901714Y-37790576D01*
X68983445Y-37704774D01*
X69033592Y-37650052D01*
X69048000Y-37631403D01*
X69023174Y-37617530D01*
X68962156Y-37610618D01*
X68949481Y-37610444D01*
X68919492Y-37612946D01*
D11*
G36*
X54881606Y-63308562D02*
G01*
X55400455Y-63523476D01*
X55759761Y-63763557D01*
X55867406Y-63835483D01*
X56264517Y-64232594D01*
X56326579Y-64325476D01*
X56576524Y-64699545D01*
X56791438Y-65218394D01*
X56839101Y-65458012D01*
X56877993Y-65653534D01*
X56901000Y-65769201D01*
X56901000Y-66330799D01*
X56791438Y-66881606D01*
X56576524Y-67400455D01*
X56481896Y-67542075D01*
X56292814Y-67825057D01*
X56264516Y-67867407D01*
X55867407Y-68264516D01*
X55400455Y-68576524D01*
X54881606Y-68791438D01*
X54657577Y-68836000D01*
X54330800Y-68901000D01*
X53769200Y-68901000D01*
X53442423Y-68836000D01*
X53218394Y-68791438D01*
X52699545Y-68576524D01*
X52232593Y-68264516D01*
X51835484Y-67867407D01*
X51807187Y-67825057D01*
X51618104Y-67542075D01*
X51523476Y-67400455D01*
X51308562Y-66881606D01*
X51199000Y-66330799D01*
X51199000Y-65769201D01*
X51222008Y-65653534D01*
X51260899Y-65458012D01*
X51308562Y-65218394D01*
X51523476Y-64699545D01*
X51773421Y-64325476D01*
X51835483Y-64232594D01*
X52232594Y-63835483D01*
X52340239Y-63763557D01*
X52699545Y-63523476D01*
X53218394Y-63308562D01*
X53769200Y-63199000D01*
X54330800Y-63199000D01*
X54881606Y-63308562D01*
G37*
G36*
X67110098Y-67490362D02*
G01*
X67234941Y-67542074D01*
X67234943Y-67542075D01*
X67347299Y-67617149D01*
X67442851Y-67712701D01*
X67517926Y-67825059D01*
X67569638Y-67949902D01*
X67596000Y-68082434D01*
X67596000Y-68217566D01*
X67569638Y-68350098D01*
X67517926Y-68474941D01*
X67517925Y-68474943D01*
X67442851Y-68587299D01*
X67347299Y-68682851D01*
X67234943Y-68757925D01*
X67234942Y-68757926D01*
X67234941Y-68757926D01*
X67110098Y-68809638D01*
X66977566Y-68836000D01*
X66842434Y-68836000D01*
X66709902Y-68809638D01*
X66585059Y-68757926D01*
X66585058Y-68757926D01*
X66585057Y-68757925D01*
X66472701Y-68682851D01*
X66377149Y-68587299D01*
X66302075Y-68474943D01*
X66302074Y-68474941D01*
X66250362Y-68350098D01*
X66224000Y-68217566D01*
X66224000Y-68082434D01*
X66250362Y-67949902D01*
X66302074Y-67825059D01*
X66377149Y-67712701D01*
X66472701Y-67617149D01*
X66585057Y-67542075D01*
X66585059Y-67542074D01*
X66709902Y-67490362D01*
X66842434Y-67464000D01*
X66977566Y-67464000D01*
X67110098Y-67490362D01*
G37*
G36*
X72635442Y-65105518D02*
G01*
X72701627Y-65112037D01*
X72871466Y-65163557D01*
X73027991Y-65247222D01*
X73063729Y-65276552D01*
X73165186Y-65359814D01*
X73245774Y-65458012D01*
X73277778Y-65497009D01*
X73361443Y-65653534D01*
X73412963Y-65823373D01*
X73430359Y-66000000D01*
X73412963Y-66176627D01*
X73361443Y-66346466D01*
X73277778Y-66502991D01*
X73248448Y-66538729D01*
X73165186Y-66640186D01*
X73063729Y-66723448D01*
X73027991Y-66752778D01*
X72871466Y-66836443D01*
X72701627Y-66887963D01*
X72635443Y-66894481D01*
X72569260Y-66901000D01*
X72230740Y-66901000D01*
X72164557Y-66894481D01*
X72098373Y-66887963D01*
X71928534Y-66836443D01*
X71772009Y-66752778D01*
X71736271Y-66723448D01*
X71634814Y-66640186D01*
X71551552Y-66538729D01*
X71522222Y-66502991D01*
X71438557Y-66346466D01*
X71387037Y-66176627D01*
X71369641Y-66000000D01*
X71387037Y-65823373D01*
X71438557Y-65653534D01*
X71522222Y-65497009D01*
X71554226Y-65458012D01*
X71634814Y-65359814D01*
X71736271Y-65276552D01*
X71772009Y-65247222D01*
X71928534Y-65163557D01*
X72098373Y-65112037D01*
X72164558Y-65105518D01*
X72230740Y-65099000D01*
X72569260Y-65099000D01*
X72635442Y-65105518D01*
G37*
G36*
X79635442Y-65105518D02*
G01*
X79701627Y-65112037D01*
X79871466Y-65163557D01*
X80027991Y-65247222D01*
X80063729Y-65276552D01*
X80165186Y-65359814D01*
X80245774Y-65458012D01*
X80277778Y-65497009D01*
X80361443Y-65653534D01*
X80412963Y-65823373D01*
X80430359Y-66000000D01*
X80412963Y-66176627D01*
X80361443Y-66346466D01*
X80277778Y-66502991D01*
X80248448Y-66538729D01*
X80165186Y-66640186D01*
X80063729Y-66723448D01*
X80027991Y-66752778D01*
X79871466Y-66836443D01*
X79701627Y-66887963D01*
X79635443Y-66894481D01*
X79569260Y-66901000D01*
X79230740Y-66901000D01*
X79164557Y-66894481D01*
X79098373Y-66887963D01*
X78928534Y-66836443D01*
X78772009Y-66752778D01*
X78736271Y-66723448D01*
X78634814Y-66640186D01*
X78551552Y-66538729D01*
X78522222Y-66502991D01*
X78438557Y-66346466D01*
X78387037Y-66176627D01*
X78369641Y-66000000D01*
X78387037Y-65823373D01*
X78438557Y-65653534D01*
X78522222Y-65497009D01*
X78554226Y-65458012D01*
X78634814Y-65359814D01*
X78736271Y-65276552D01*
X78772009Y-65247222D01*
X78928534Y-65163557D01*
X79098373Y-65112037D01*
X79164558Y-65105518D01*
X79230740Y-65099000D01*
X79569260Y-65099000D01*
X79635442Y-65105518D01*
G37*
G36*
X65210442Y-63705518D02*
G01*
X65276627Y-63712037D01*
X65446466Y-63763557D01*
X65602991Y-63847222D01*
X65638729Y-63876552D01*
X65740186Y-63959814D01*
X65823448Y-64061271D01*
X65852778Y-64097009D01*
X65852779Y-64097011D01*
X65936040Y-64252779D01*
X65936443Y-64253534D01*
X65987963Y-64423373D01*
X65987963Y-64423375D01*
X66005359Y-64600000D01*
X65987963Y-64776628D01*
X65971879Y-64829648D01*
X65967098Y-64853682D01*
X65967098Y-64878186D01*
X65971876Y-64902211D01*
X65999410Y-64992977D01*
X66014875Y-65150000D01*
X65999410Y-65307023D01*
X65968875Y-65407682D01*
X65953608Y-65458013D01*
X65879229Y-65597165D01*
X65779133Y-65719133D01*
X65657165Y-65819229D01*
X65518013Y-65893608D01*
X65467682Y-65908875D01*
X65367023Y-65939410D01*
X65288571Y-65947137D01*
X65249346Y-65951000D01*
X64650654Y-65951000D01*
X64611429Y-65947137D01*
X64532977Y-65939410D01*
X64432318Y-65908875D01*
X64381987Y-65893608D01*
X64242835Y-65819229D01*
X64120867Y-65719133D01*
X64020771Y-65597165D01*
X63946392Y-65458013D01*
X63931125Y-65407682D01*
X63900590Y-65307023D01*
X63885125Y-65150000D01*
X63900590Y-64992977D01*
X63928124Y-64902211D01*
X63932902Y-64878186D01*
X63932902Y-64853682D01*
X63928121Y-64829648D01*
X63912037Y-64776628D01*
X63894641Y-64600000D01*
X63912037Y-64423375D01*
X63912037Y-64423373D01*
X63963557Y-64253534D01*
X63963961Y-64252779D01*
X64047221Y-64097011D01*
X64047222Y-64097009D01*
X64076552Y-64061271D01*
X64159814Y-63959814D01*
X64261271Y-63876552D01*
X64297009Y-63847222D01*
X64453534Y-63763557D01*
X64623373Y-63712037D01*
X64689558Y-63705518D01*
X64755740Y-63699000D01*
X65144260Y-63699000D01*
X65210442Y-63705518D01*
G37*
G36*
X79635442Y-62605518D02*
G01*
X79701627Y-62612037D01*
X79871466Y-62663557D01*
X80027991Y-62747222D01*
X80063729Y-62776552D01*
X80165186Y-62859814D01*
X80223340Y-62930676D01*
X80277778Y-62997009D01*
X80361443Y-63153534D01*
X80412963Y-63323373D01*
X80430359Y-63500000D01*
X80412963Y-63676627D01*
X80364774Y-63835484D01*
X80361442Y-63846468D01*
X80361039Y-63847222D01*
X80277778Y-64002991D01*
X80248448Y-64038729D01*
X80165186Y-64140186D01*
X80063729Y-64223448D01*
X80027991Y-64252778D01*
X79871466Y-64336443D01*
X79701627Y-64387963D01*
X79635442Y-64394482D01*
X79569260Y-64401000D01*
X79230740Y-64401000D01*
X79164558Y-64394482D01*
X79098373Y-64387963D01*
X78928534Y-64336443D01*
X78772009Y-64252778D01*
X78736271Y-64223448D01*
X78634814Y-64140186D01*
X78551552Y-64038729D01*
X78522222Y-64002991D01*
X78438961Y-63847222D01*
X78438558Y-63846468D01*
X78435226Y-63835484D01*
X78387037Y-63676627D01*
X78369641Y-63500000D01*
X78387037Y-63323373D01*
X78438557Y-63153534D01*
X78522222Y-62997009D01*
X78576660Y-62930676D01*
X78634814Y-62859814D01*
X78736271Y-62776552D01*
X78772009Y-62747222D01*
X78928534Y-62663557D01*
X79098373Y-62612037D01*
X79164558Y-62605518D01*
X79230740Y-62599000D01*
X79569260Y-62599000D01*
X79635442Y-62605518D01*
G37*
G36*
X72635442Y-62605518D02*
G01*
X72701627Y-62612037D01*
X72871466Y-62663557D01*
X73027991Y-62747222D01*
X73063729Y-62776552D01*
X73165186Y-62859814D01*
X73223340Y-62930676D01*
X73277778Y-62997009D01*
X73361443Y-63153534D01*
X73412963Y-63323373D01*
X73430359Y-63500000D01*
X73412963Y-63676627D01*
X73364774Y-63835484D01*
X73361442Y-63846468D01*
X73361039Y-63847222D01*
X73277778Y-64002991D01*
X73248448Y-64038729D01*
X73165186Y-64140186D01*
X73063729Y-64223448D01*
X73027991Y-64252778D01*
X72871466Y-64336443D01*
X72701627Y-64387963D01*
X72635442Y-64394482D01*
X72569260Y-64401000D01*
X72230740Y-64401000D01*
X72164558Y-64394482D01*
X72098373Y-64387963D01*
X71928534Y-64336443D01*
X71772009Y-64252778D01*
X71736271Y-64223448D01*
X71634814Y-64140186D01*
X71551552Y-64038729D01*
X71522222Y-64002991D01*
X71438961Y-63847222D01*
X71438558Y-63846468D01*
X71435226Y-63835484D01*
X71387037Y-63676627D01*
X71369641Y-63500000D01*
X71387037Y-63323373D01*
X71438557Y-63153534D01*
X71522222Y-62997009D01*
X71576660Y-62930676D01*
X71634814Y-62859814D01*
X71736271Y-62776552D01*
X71772009Y-62747222D01*
X71928534Y-62663557D01*
X72098373Y-62612037D01*
X72164558Y-62605518D01*
X72230740Y-62599000D01*
X72569260Y-62599000D01*
X72635442Y-62605518D01*
G37*
G36*
X65858600Y-61202989D02*
G01*
X65891652Y-61213015D01*
X65922103Y-61229292D01*
X65948799Y-61251201D01*
X65970708Y-61277897D01*
X65986985Y-61308348D01*
X65997011Y-61341400D01*
X66001000Y-61381903D01*
X66001000Y-61459036D01*
X66003402Y-61483422D01*
X66006383Y-61495323D01*
X66006878Y-61496954D01*
X66011000Y-61538807D01*
X66011000Y-62761193D01*
X66006878Y-62803046D01*
X66003943Y-62812720D01*
X65999162Y-62836757D01*
X65997011Y-62858600D01*
X65986985Y-62891652D01*
X65970708Y-62922103D01*
X65948799Y-62948799D01*
X65922103Y-62970708D01*
X65891652Y-62986985D01*
X65858600Y-62997011D01*
X65818097Y-63001000D01*
X64081903Y-63001000D01*
X64041400Y-62997011D01*
X64008348Y-62986985D01*
X63977897Y-62970708D01*
X63951201Y-62948799D01*
X63929292Y-62922103D01*
X63913015Y-62891652D01*
X63902989Y-62858600D01*
X63900838Y-62836757D01*
X63896057Y-62812720D01*
X63893122Y-62803046D01*
X63889000Y-62761193D01*
X63889000Y-61538807D01*
X63893122Y-61496954D01*
X63893617Y-61495323D01*
X63898398Y-61471290D01*
X63899000Y-61459036D01*
X63899000Y-61381903D01*
X63902989Y-61341400D01*
X63913015Y-61308348D01*
X63929292Y-61277897D01*
X63951201Y-61251201D01*
X63977897Y-61229292D01*
X64008348Y-61213015D01*
X64041400Y-61202989D01*
X64081903Y-61199000D01*
X65818097Y-61199000D01*
X65858600Y-61202989D01*
G37*
G36*
X72635442Y-60105518D02*
G01*
X72701627Y-60112037D01*
X72871466Y-60163557D01*
X73027991Y-60247222D01*
X73063729Y-60276552D01*
X73165186Y-60359814D01*
X73248448Y-60461271D01*
X73277778Y-60497009D01*
X73361443Y-60653534D01*
X73412963Y-60823373D01*
X73430359Y-61000000D01*
X73412963Y-61176627D01*
X73361443Y-61346466D01*
X73361442Y-61346468D01*
X73352825Y-61362589D01*
X73277778Y-61502991D01*
X73248448Y-61538729D01*
X73165186Y-61640186D01*
X73063729Y-61723448D01*
X73027991Y-61752778D01*
X72871466Y-61836443D01*
X72701627Y-61887963D01*
X72635443Y-61894481D01*
X72569260Y-61901000D01*
X72230740Y-61901000D01*
X72164557Y-61894481D01*
X72098373Y-61887963D01*
X71928534Y-61836443D01*
X71772009Y-61752778D01*
X71736271Y-61723448D01*
X71634814Y-61640186D01*
X71551552Y-61538729D01*
X71522222Y-61502991D01*
X71447175Y-61362589D01*
X71438558Y-61346468D01*
X71438557Y-61346466D01*
X71387037Y-61176627D01*
X71369641Y-61000000D01*
X71387037Y-60823373D01*
X71438557Y-60653534D01*
X71522222Y-60497009D01*
X71551552Y-60461271D01*
X71634814Y-60359814D01*
X71736271Y-60276552D01*
X71772009Y-60247222D01*
X71928534Y-60163557D01*
X72098373Y-60112037D01*
X72164558Y-60105518D01*
X72230740Y-60099000D01*
X72569260Y-60099000D01*
X72635442Y-60105518D01*
G37*
G36*
X79635442Y-60105518D02*
G01*
X79701627Y-60112037D01*
X79871466Y-60163557D01*
X80027991Y-60247222D01*
X80063729Y-60276552D01*
X80165186Y-60359814D01*
X80248448Y-60461271D01*
X80277778Y-60497009D01*
X80361443Y-60653534D01*
X80412963Y-60823373D01*
X80430359Y-61000000D01*
X80412963Y-61176627D01*
X80361443Y-61346466D01*
X80361442Y-61346468D01*
X80352825Y-61362589D01*
X80277778Y-61502991D01*
X80248448Y-61538729D01*
X80165186Y-61640186D01*
X80063729Y-61723448D01*
X80027991Y-61752778D01*
X79871466Y-61836443D01*
X79701627Y-61887963D01*
X79635443Y-61894481D01*
X79569260Y-61901000D01*
X79230740Y-61901000D01*
X79164557Y-61894481D01*
X79098373Y-61887963D01*
X78928534Y-61836443D01*
X78772009Y-61752778D01*
X78736271Y-61723448D01*
X78634814Y-61640186D01*
X78551552Y-61538729D01*
X78522222Y-61502991D01*
X78447175Y-61362589D01*
X78438558Y-61346468D01*
X78438557Y-61346466D01*
X78387037Y-61176627D01*
X78369641Y-61000000D01*
X78387037Y-60823373D01*
X78438557Y-60653534D01*
X78522222Y-60497009D01*
X78551552Y-60461271D01*
X78634814Y-60359814D01*
X78736271Y-60276552D01*
X78772009Y-60247222D01*
X78928534Y-60163557D01*
X79098373Y-60112037D01*
X79164558Y-60105518D01*
X79230740Y-60099000D01*
X79569260Y-60099000D01*
X79635442Y-60105518D01*
G37*
G36*
X56426626Y-57762037D02*
G01*
X56596465Y-57813557D01*
X56596467Y-57813558D01*
X56752989Y-57897221D01*
X56890186Y-58009814D01*
X56973448Y-58111271D01*
X57002778Y-58147009D01*
X57086443Y-58303534D01*
X57137963Y-58473373D01*
X57137963Y-58473375D01*
X57151000Y-58605740D01*
X57151000Y-58994259D01*
X57144482Y-59060441D01*
X57137963Y-59126626D01*
X57086443Y-59296466D01*
X57002778Y-59452991D01*
X56984764Y-59474941D01*
X56890186Y-59590186D01*
X56795250Y-59668097D01*
X56752991Y-59702778D01*
X56596466Y-59786443D01*
X56426627Y-59837963D01*
X56250000Y-59855359D01*
X56073374Y-59837963D01*
X55903535Y-59786443D01*
X55747010Y-59702778D01*
X55609815Y-59590185D01*
X55497222Y-59452991D01*
X55413557Y-59296466D01*
X55362037Y-59126627D01*
X55354613Y-59051247D01*
X55349000Y-58994260D01*
X55349000Y-58605741D01*
X55362037Y-58473376D01*
X55362037Y-58473374D01*
X55413557Y-58303535D01*
X55497222Y-58147010D01*
X55497223Y-58147009D01*
X55609814Y-58009814D01*
X55711271Y-57926552D01*
X55747009Y-57897222D01*
X55903534Y-57813557D01*
X56073373Y-57762037D01*
X56250000Y-57744641D01*
X56426626Y-57762037D01*
G37*
G36*
X54508600Y-57752989D02*
G01*
X54541652Y-57763015D01*
X54572103Y-57779292D01*
X54598799Y-57801201D01*
X54620708Y-57827897D01*
X54636985Y-57858348D01*
X54647011Y-57891400D01*
X54651000Y-57931903D01*
X54651000Y-59668097D01*
X54647011Y-59708600D01*
X54636985Y-59741652D01*
X54620708Y-59772103D01*
X54598799Y-59798799D01*
X54572103Y-59820708D01*
X54541652Y-59836985D01*
X54508600Y-59847011D01*
X54468097Y-59851000D01*
X53031903Y-59851000D01*
X52991400Y-59847011D01*
X52958348Y-59836985D01*
X52927897Y-59820708D01*
X52901201Y-59798799D01*
X52879292Y-59772103D01*
X52863015Y-59741652D01*
X52852989Y-59708600D01*
X52849000Y-59668097D01*
X52849000Y-57931903D01*
X52852989Y-57891400D01*
X52863015Y-57858348D01*
X52879292Y-57827897D01*
X52901201Y-57801201D01*
X52927897Y-57779292D01*
X52958348Y-57763015D01*
X52991400Y-57752989D01*
X53031903Y-57749000D01*
X54468097Y-57749000D01*
X54508600Y-57752989D01*
G37*
G36*
X67110098Y-58490362D02*
G01*
X67234941Y-58542074D01*
X67234943Y-58542075D01*
X67347299Y-58617149D01*
X67442851Y-58712701D01*
X67467679Y-58749858D01*
X67517926Y-58825059D01*
X67569638Y-58949902D01*
X67596000Y-59082434D01*
X67596000Y-59217566D01*
X67569638Y-59350098D01*
X67527019Y-59452989D01*
X67517925Y-59474943D01*
X67442851Y-59587299D01*
X67347299Y-59682851D01*
X67234943Y-59757925D01*
X67234942Y-59757926D01*
X67234941Y-59757926D01*
X67110098Y-59809638D01*
X66977566Y-59836000D01*
X66842434Y-59836000D01*
X66709902Y-59809638D01*
X66585059Y-59757926D01*
X66585058Y-59757926D01*
X66585057Y-59757925D01*
X66472701Y-59682851D01*
X66377149Y-59587299D01*
X66302075Y-59474943D01*
X66292981Y-59452989D01*
X66250362Y-59350098D01*
X66224000Y-59217566D01*
X66224000Y-59082434D01*
X66250362Y-58949902D01*
X66302074Y-58825059D01*
X66352322Y-58749858D01*
X66377149Y-58712701D01*
X66472701Y-58617149D01*
X66585057Y-58542075D01*
X66585059Y-58542074D01*
X66709902Y-58490362D01*
X66842434Y-58464000D01*
X66977566Y-58464000D01*
X67110098Y-58490362D01*
G37*
G36*
X80283600Y-57602989D02*
G01*
X80316652Y-57613015D01*
X80347103Y-57629292D01*
X80373799Y-57651201D01*
X80395708Y-57677897D01*
X80411985Y-57708348D01*
X80422011Y-57741400D01*
X80426000Y-57781903D01*
X80426000Y-59218097D01*
X80422011Y-59258600D01*
X80411985Y-59291652D01*
X80395708Y-59322103D01*
X80373799Y-59348799D01*
X80347103Y-59370708D01*
X80316652Y-59386985D01*
X80283600Y-59397011D01*
X80243097Y-59401000D01*
X78556903Y-59401000D01*
X78516400Y-59397011D01*
X78483348Y-59386985D01*
X78452897Y-59370708D01*
X78426201Y-59348799D01*
X78404292Y-59322103D01*
X78388015Y-59291652D01*
X78377989Y-59258600D01*
X78374000Y-59218097D01*
X78374000Y-57781903D01*
X78377989Y-57741400D01*
X78388015Y-57708348D01*
X78404292Y-57677897D01*
X78426201Y-57651201D01*
X78452897Y-57629292D01*
X78483348Y-57613015D01*
X78516400Y-57602989D01*
X78556903Y-57599000D01*
X80243097Y-57599000D01*
X80283600Y-57602989D01*
G37*
G36*
X73283600Y-57602989D02*
G01*
X73316652Y-57613015D01*
X73347103Y-57629292D01*
X73373799Y-57651201D01*
X73395708Y-57677897D01*
X73411985Y-57708348D01*
X73422011Y-57741400D01*
X73426000Y-57781903D01*
X73426000Y-59218097D01*
X73422011Y-59258600D01*
X73411985Y-59291652D01*
X73395708Y-59322103D01*
X73373799Y-59348799D01*
X73347103Y-59370708D01*
X73316652Y-59386985D01*
X73283600Y-59397011D01*
X73243097Y-59401000D01*
X71556903Y-59401000D01*
X71516400Y-59397011D01*
X71483348Y-59386985D01*
X71452897Y-59370708D01*
X71426201Y-59348799D01*
X71404292Y-59322103D01*
X71388015Y-59291652D01*
X71377989Y-59258600D01*
X71374000Y-59218097D01*
X71374000Y-57781903D01*
X71377989Y-57741400D01*
X71388015Y-57708348D01*
X71404292Y-57677897D01*
X71426201Y-57651201D01*
X71452897Y-57629292D01*
X71483348Y-57613015D01*
X71516400Y-57602989D01*
X71556903Y-57599000D01*
X73243097Y-57599000D01*
X73283600Y-57602989D01*
G37*
G36*
X62609999Y-57449737D02*
G01*
X62624528Y-57454145D01*
X62637711Y-57459606D01*
X62661745Y-57464388D01*
X62686249Y-57464389D01*
X62710282Y-57459609D01*
X62732921Y-57450232D01*
X62734765Y-57449000D01*
X63966050Y-57449000D01*
X63978164Y-57455475D01*
X64001613Y-57462588D01*
X64025999Y-57464990D01*
X64050385Y-57462588D01*
X64073834Y-57455475D01*
X64078746Y-57453152D01*
X64090001Y-57449737D01*
X64106140Y-57448148D01*
X64643861Y-57448148D01*
X64662199Y-57449954D01*
X64674450Y-57450556D01*
X64692869Y-57450556D01*
X64715149Y-57452750D01*
X64799233Y-57469476D01*
X64820660Y-57475976D01*
X64899858Y-57508780D01*
X64905303Y-57511691D01*
X64905309Y-57511693D01*
X64914169Y-57516429D01*
X64914173Y-57516432D01*
X64919614Y-57519340D01*
X64990899Y-57566971D01*
X65008204Y-57581172D01*
X65068828Y-57641796D01*
X65083029Y-57659101D01*
X65130660Y-57730386D01*
X65133568Y-57735827D01*
X65133571Y-57735831D01*
X65138307Y-57744691D01*
X65138309Y-57744697D01*
X65141220Y-57750142D01*
X65174024Y-57829340D01*
X65180524Y-57850767D01*
X65197250Y-57934851D01*
X65199444Y-57957131D01*
X65199444Y-57975550D01*
X65200046Y-57987801D01*
X65201852Y-58006139D01*
X65201852Y-58493862D01*
X65200046Y-58512199D01*
X65199444Y-58524450D01*
X65199444Y-58542869D01*
X65197250Y-58565149D01*
X65180524Y-58649233D01*
X65174024Y-58670660D01*
X65141220Y-58749858D01*
X65138309Y-58755303D01*
X65138307Y-58755309D01*
X65133571Y-58764169D01*
X65133568Y-58764173D01*
X65130660Y-58769614D01*
X65083029Y-58840899D01*
X65068828Y-58858204D01*
X65008204Y-58918828D01*
X64990899Y-58933029D01*
X64919614Y-58980660D01*
X64914173Y-58983568D01*
X64914169Y-58983571D01*
X64905309Y-58988307D01*
X64905303Y-58988309D01*
X64899858Y-58991220D01*
X64820660Y-59024024D01*
X64799233Y-59030524D01*
X64715149Y-59047250D01*
X64692869Y-59049444D01*
X64674450Y-59049444D01*
X64662199Y-59050046D01*
X64643862Y-59051852D01*
X64106140Y-59051852D01*
X64090001Y-59050263D01*
X64075472Y-59045855D01*
X64062289Y-59040394D01*
X64038255Y-59035612D01*
X64013751Y-59035611D01*
X63989718Y-59040391D01*
X63967079Y-59049768D01*
X63965235Y-59051000D01*
X62733950Y-59051000D01*
X62721836Y-59044525D01*
X62698387Y-59037412D01*
X62674001Y-59035010D01*
X62649615Y-59037412D01*
X62626166Y-59044525D01*
X62621254Y-59046848D01*
X62609999Y-59050263D01*
X62593860Y-59051852D01*
X62056138Y-59051852D01*
X62037801Y-59050046D01*
X62025550Y-59049444D01*
X62007131Y-59049444D01*
X61984851Y-59047250D01*
X61900767Y-59030524D01*
X61879340Y-59024024D01*
X61800142Y-58991220D01*
X61794697Y-58988309D01*
X61794691Y-58988307D01*
X61785831Y-58983571D01*
X61785827Y-58983568D01*
X61780386Y-58980660D01*
X61709101Y-58933029D01*
X61691796Y-58918828D01*
X61631172Y-58858204D01*
X61616971Y-58840899D01*
X61569340Y-58769614D01*
X61566432Y-58764173D01*
X61566429Y-58764169D01*
X61561693Y-58755309D01*
X61561691Y-58755303D01*
X61558780Y-58749858D01*
X61525976Y-58670660D01*
X61519476Y-58649233D01*
X61502750Y-58565149D01*
X61500556Y-58542869D01*
X61500556Y-58524450D01*
X61499954Y-58512199D01*
X61498148Y-58493862D01*
X61498148Y-58006139D01*
X61499954Y-57987801D01*
X61500556Y-57975550D01*
X61500556Y-57957131D01*
X61502750Y-57934851D01*
X61519476Y-57850767D01*
X61525976Y-57829340D01*
X61558780Y-57750142D01*
X61561691Y-57744697D01*
X61561693Y-57744691D01*
X61566429Y-57735831D01*
X61566432Y-57735827D01*
X61569340Y-57730386D01*
X61616971Y-57659101D01*
X61631172Y-57641796D01*
X61691796Y-57581172D01*
X61709101Y-57566971D01*
X61780386Y-57519340D01*
X61785827Y-57516432D01*
X61785831Y-57516429D01*
X61794691Y-57511693D01*
X61794697Y-57511691D01*
X61800142Y-57508780D01*
X61879340Y-57475976D01*
X61900767Y-57469476D01*
X61984851Y-57452750D01*
X62007131Y-57450556D01*
X62025550Y-57450556D01*
X62037801Y-57449954D01*
X62056139Y-57448148D01*
X62593860Y-57448148D01*
X62609999Y-57449737D01*
G37*
G36*
X64010442Y-54505518D02*
G01*
X64076627Y-54512037D01*
X64246466Y-54563557D01*
X64246468Y-54563558D01*
X64314155Y-54599738D01*
X64402991Y-54647222D01*
X64438729Y-54676552D01*
X64540186Y-54759814D01*
X64615019Y-54851000D01*
X64652778Y-54897009D01*
X64736443Y-55053534D01*
X64787963Y-55223373D01*
X64805359Y-55400000D01*
X64787963Y-55576627D01*
X64736443Y-55746466D01*
X64652778Y-55902991D01*
X64623448Y-55938729D01*
X64540186Y-56040186D01*
X64438729Y-56123448D01*
X64402991Y-56152778D01*
X64402989Y-56152779D01*
X64314154Y-56200263D01*
X64246466Y-56236443D01*
X64076627Y-56287963D01*
X64010443Y-56294481D01*
X63944260Y-56301000D01*
X63555740Y-56301000D01*
X63489557Y-56294481D01*
X63423373Y-56287963D01*
X63253534Y-56236443D01*
X63185847Y-56200263D01*
X63097011Y-56152779D01*
X63097009Y-56152778D01*
X63061271Y-56123448D01*
X62959814Y-56040186D01*
X62876552Y-55938729D01*
X62847222Y-55902991D01*
X62763557Y-55746466D01*
X62712037Y-55576627D01*
X62694641Y-55400000D01*
X62712037Y-55223373D01*
X62763557Y-55053534D01*
X62847222Y-54897009D01*
X62884981Y-54851000D01*
X62959814Y-54759814D01*
X63061271Y-54676552D01*
X63097009Y-54647222D01*
X63185845Y-54599738D01*
X63253532Y-54563558D01*
X63253534Y-54563557D01*
X63423373Y-54512037D01*
X63489558Y-54505518D01*
X63555740Y-54499000D01*
X63944260Y-54499000D01*
X64010442Y-54505518D01*
G37*
G36*
X54459999Y-54599737D02*
G01*
X54474528Y-54604145D01*
X54487711Y-54609606D01*
X54511745Y-54614388D01*
X54536249Y-54614389D01*
X54560282Y-54609609D01*
X54582921Y-54600232D01*
X54584765Y-54599000D01*
X55816050Y-54599000D01*
X55828164Y-54605475D01*
X55851613Y-54612588D01*
X55875999Y-54614990D01*
X55900385Y-54612588D01*
X55923834Y-54605475D01*
X55928746Y-54603152D01*
X55940001Y-54599737D01*
X55956140Y-54598148D01*
X56493861Y-54598148D01*
X56512199Y-54599954D01*
X56524450Y-54600556D01*
X56542869Y-54600556D01*
X56565149Y-54602750D01*
X56649233Y-54619476D01*
X56670660Y-54625976D01*
X56749858Y-54658780D01*
X56755303Y-54661691D01*
X56755309Y-54661693D01*
X56764169Y-54666429D01*
X56764173Y-54666432D01*
X56769614Y-54669340D01*
X56840899Y-54716971D01*
X56858204Y-54731172D01*
X56918828Y-54791796D01*
X56933029Y-54809101D01*
X56980660Y-54880386D01*
X56983568Y-54885827D01*
X56983571Y-54885831D01*
X56988307Y-54894691D01*
X56988309Y-54894697D01*
X56991220Y-54900142D01*
X57024024Y-54979340D01*
X57030524Y-55000767D01*
X57047250Y-55084851D01*
X57049444Y-55107131D01*
X57049444Y-55125550D01*
X57050046Y-55137801D01*
X57051852Y-55156139D01*
X57051852Y-55643862D01*
X57050046Y-55662199D01*
X57049444Y-55674450D01*
X57049444Y-55692869D01*
X57047250Y-55715149D01*
X57030524Y-55799233D01*
X57024024Y-55820660D01*
X56991220Y-55899858D01*
X56988309Y-55905303D01*
X56988307Y-55905309D01*
X56983571Y-55914169D01*
X56983568Y-55914173D01*
X56980660Y-55919614D01*
X56933029Y-55990899D01*
X56918828Y-56008204D01*
X56858204Y-56068828D01*
X56840899Y-56083029D01*
X56769614Y-56130660D01*
X56764173Y-56133568D01*
X56764169Y-56133571D01*
X56755309Y-56138307D01*
X56755303Y-56138309D01*
X56749858Y-56141220D01*
X56670660Y-56174024D01*
X56649233Y-56180524D01*
X56565149Y-56197250D01*
X56542869Y-56199444D01*
X56524450Y-56199444D01*
X56512199Y-56200046D01*
X56493862Y-56201852D01*
X55956140Y-56201852D01*
X55940001Y-56200263D01*
X55925472Y-56195855D01*
X55912289Y-56190394D01*
X55888255Y-56185612D01*
X55863751Y-56185611D01*
X55839718Y-56190391D01*
X55817079Y-56199768D01*
X55815235Y-56201000D01*
X54583950Y-56201000D01*
X54571836Y-56194525D01*
X54548387Y-56187412D01*
X54524001Y-56185010D01*
X54499615Y-56187412D01*
X54476166Y-56194525D01*
X54471254Y-56196848D01*
X54459999Y-56200263D01*
X54443860Y-56201852D01*
X53906138Y-56201852D01*
X53887801Y-56200046D01*
X53875550Y-56199444D01*
X53857131Y-56199444D01*
X53834851Y-56197250D01*
X53750767Y-56180524D01*
X53729340Y-56174024D01*
X53650142Y-56141220D01*
X53644697Y-56138309D01*
X53644691Y-56138307D01*
X53635831Y-56133571D01*
X53635827Y-56133568D01*
X53630386Y-56130660D01*
X53559101Y-56083029D01*
X53541796Y-56068828D01*
X53481172Y-56008204D01*
X53466971Y-55990899D01*
X53419340Y-55919614D01*
X53416432Y-55914173D01*
X53416429Y-55914169D01*
X53411693Y-55905309D01*
X53411691Y-55905303D01*
X53408780Y-55899858D01*
X53375976Y-55820660D01*
X53369476Y-55799233D01*
X53352750Y-55715149D01*
X53350556Y-55692869D01*
X53350556Y-55674450D01*
X53349954Y-55662199D01*
X53348148Y-55643862D01*
X53348148Y-55156139D01*
X53349954Y-55137801D01*
X53350556Y-55125550D01*
X53350556Y-55107131D01*
X53352750Y-55084851D01*
X53369476Y-55000767D01*
X53375976Y-54979340D01*
X53408780Y-54900142D01*
X53411691Y-54894697D01*
X53411693Y-54894691D01*
X53416429Y-54885831D01*
X53416432Y-54885827D01*
X53419340Y-54880386D01*
X53466971Y-54809101D01*
X53481172Y-54791796D01*
X53541796Y-54731172D01*
X53559101Y-54716971D01*
X53630386Y-54669340D01*
X53635827Y-54666432D01*
X53635831Y-54666429D01*
X53644691Y-54661693D01*
X53644697Y-54661691D01*
X53650142Y-54658780D01*
X53729340Y-54625976D01*
X53750767Y-54619476D01*
X53834851Y-54602750D01*
X53857131Y-54600556D01*
X53875550Y-54600556D01*
X53887801Y-54599954D01*
X53906139Y-54598148D01*
X54443860Y-54598148D01*
X54459999Y-54599737D01*
G37*
G36*
X80531606Y-49258562D02*
G01*
X81050455Y-49473476D01*
X81517407Y-49785484D01*
X81914516Y-50182593D01*
X82226524Y-50649545D01*
X82441438Y-51168394D01*
X82448428Y-51203534D01*
X82551000Y-51719200D01*
X82551000Y-52280800D01*
X82507637Y-52498799D01*
X82441438Y-52831606D01*
X82226524Y-53350455D01*
X82004173Y-53683226D01*
X81934844Y-53786985D01*
X81914516Y-53817407D01*
X81517407Y-54214516D01*
X81050455Y-54526524D01*
X80531606Y-54741438D01*
X80439223Y-54759814D01*
X79980800Y-54851000D01*
X79419200Y-54851000D01*
X78960777Y-54759814D01*
X78868394Y-54741438D01*
X78349545Y-54526524D01*
X77882593Y-54214516D01*
X77485484Y-53817407D01*
X77465157Y-53786985D01*
X77395827Y-53683226D01*
X77173476Y-53350455D01*
X76958562Y-52831606D01*
X76892363Y-52498799D01*
X76849000Y-52280800D01*
X76849000Y-51719200D01*
X76951572Y-51203534D01*
X76958562Y-51168394D01*
X77173476Y-50649545D01*
X77485484Y-50182593D01*
X77882593Y-49785484D01*
X78349545Y-49473476D01*
X78868394Y-49258562D01*
X79419200Y-49149000D01*
X79980800Y-49149000D01*
X80531606Y-49258562D01*
G37*
G36*
X64658600Y-52002989D02*
G01*
X64691652Y-52013015D01*
X64722103Y-52029292D01*
X64748799Y-52051201D01*
X64770708Y-52077897D01*
X64786985Y-52108348D01*
X64797011Y-52141400D01*
X64801000Y-52181903D01*
X64801000Y-53618097D01*
X64797011Y-53658600D01*
X64786985Y-53691652D01*
X64770708Y-53722103D01*
X64748799Y-53748799D01*
X64722103Y-53770708D01*
X64691652Y-53786985D01*
X64658600Y-53797011D01*
X64618097Y-53801000D01*
X62881903Y-53801000D01*
X62841400Y-53797011D01*
X62808348Y-53786985D01*
X62777897Y-53770708D01*
X62751201Y-53748799D01*
X62729292Y-53722103D01*
X62713015Y-53691652D01*
X62702989Y-53658600D01*
X62699000Y-53618097D01*
X62699000Y-52181903D01*
X62702989Y-52141400D01*
X62713015Y-52108348D01*
X62729292Y-52077897D01*
X62751201Y-52051201D01*
X62777897Y-52029292D01*
X62808348Y-52013015D01*
X62841400Y-52002989D01*
X62881903Y-51999000D01*
X64618097Y-51999000D01*
X64658600Y-52002989D01*
G37*
G36*
X56376626Y-50662037D02*
G01*
X56546465Y-50713557D01*
X56546467Y-50713558D01*
X56702989Y-50797221D01*
X56840186Y-50909814D01*
X56917097Y-51003532D01*
X56952778Y-51047009D01*
X56952779Y-51047011D01*
X57020322Y-51173373D01*
X57036443Y-51203534D01*
X57087963Y-51373373D01*
X57101000Y-51505742D01*
X57101000Y-51894257D01*
X57087963Y-52026626D01*
X57036443Y-52196466D01*
X56952778Y-52352991D01*
X56924530Y-52387411D01*
X56840186Y-52490186D01*
X56760771Y-52555359D01*
X56702991Y-52602778D01*
X56546466Y-52686443D01*
X56376627Y-52737963D01*
X56200000Y-52755359D01*
X56023374Y-52737963D01*
X55853535Y-52686443D01*
X55697010Y-52602778D01*
X55559815Y-52490185D01*
X55447222Y-52352991D01*
X55363557Y-52196466D01*
X55312037Y-52026627D01*
X55299000Y-51894258D01*
X55299000Y-51505743D01*
X55312037Y-51373374D01*
X55363557Y-51203535D01*
X55379678Y-51173375D01*
X55447221Y-51047011D01*
X55559814Y-50909814D01*
X55661271Y-50826552D01*
X55697009Y-50797222D01*
X55853534Y-50713557D01*
X56023373Y-50662037D01*
X56200000Y-50644641D01*
X56376626Y-50662037D01*
G37*
G36*
X54458600Y-50652989D02*
G01*
X54491652Y-50663015D01*
X54522103Y-50679292D01*
X54548799Y-50701201D01*
X54570708Y-50727897D01*
X54586985Y-50758348D01*
X54597011Y-50791400D01*
X54601000Y-50831903D01*
X54601000Y-52568097D01*
X54597011Y-52608600D01*
X54586985Y-52641652D01*
X54570708Y-52672103D01*
X54548799Y-52698799D01*
X54522103Y-52720708D01*
X54491652Y-52736985D01*
X54458600Y-52747011D01*
X54418097Y-52751000D01*
X52981903Y-52751000D01*
X52941400Y-52747011D01*
X52908348Y-52736985D01*
X52877897Y-52720708D01*
X52851201Y-52698799D01*
X52829292Y-52672103D01*
X52813015Y-52641652D01*
X52802989Y-52608600D01*
X52799000Y-52568097D01*
X52799000Y-50831903D01*
X52802989Y-50791400D01*
X52813015Y-50758348D01*
X52829292Y-50727897D01*
X52851201Y-50701201D01*
X52877897Y-50679292D01*
X52908348Y-50663015D01*
X52941400Y-50652989D01*
X52981903Y-50649000D01*
X54418097Y-50649000D01*
X54458600Y-50652989D01*
G37*
G36*
X72526626Y-50462037D02*
G01*
X72696465Y-50513557D01*
X72696467Y-50513558D01*
X72852989Y-50597221D01*
X72990186Y-50709814D01*
X73057141Y-50791400D01*
X73102778Y-50847009D01*
X73186443Y-51003534D01*
X73237963Y-51173373D01*
X73251000Y-51305742D01*
X73251000Y-51694257D01*
X73237963Y-51826626D01*
X73186443Y-51996466D01*
X73102778Y-52152991D01*
X73094901Y-52162589D01*
X72990186Y-52290186D01*
X72895250Y-52368097D01*
X72852991Y-52402778D01*
X72696466Y-52486443D01*
X72526627Y-52537963D01*
X72350000Y-52555359D01*
X72173374Y-52537963D01*
X72003535Y-52486443D01*
X71847010Y-52402778D01*
X71709815Y-52290185D01*
X71597222Y-52152991D01*
X71531103Y-52029292D01*
X71513558Y-51996468D01*
X71513557Y-51996466D01*
X71462037Y-51826627D01*
X71451457Y-51719201D01*
X71449000Y-51694260D01*
X71449000Y-51305741D01*
X71455519Y-51239558D01*
X71462037Y-51173374D01*
X71513557Y-51003535D01*
X71561415Y-50914000D01*
X71597221Y-50847011D01*
X71709814Y-50709814D01*
X71811271Y-50626552D01*
X71847009Y-50597222D01*
X72003534Y-50513557D01*
X72173373Y-50462037D01*
X72350000Y-50444641D01*
X72526626Y-50462037D01*
G37*
G36*
X70608600Y-50452989D02*
G01*
X70641652Y-50463015D01*
X70672103Y-50479292D01*
X70698799Y-50501201D01*
X70720708Y-50527897D01*
X70736985Y-50558348D01*
X70747011Y-50591400D01*
X70751000Y-50631903D01*
X70751000Y-52368097D01*
X70747011Y-52408600D01*
X70736985Y-52441652D01*
X70720708Y-52472103D01*
X70698799Y-52498799D01*
X70672103Y-52520708D01*
X70641652Y-52536985D01*
X70608600Y-52547011D01*
X70568097Y-52551000D01*
X69131903Y-52551000D01*
X69091400Y-52547011D01*
X69058348Y-52536985D01*
X69027897Y-52520708D01*
X69001201Y-52498799D01*
X68979292Y-52472103D01*
X68963015Y-52441652D01*
X68952989Y-52408600D01*
X68949000Y-52368097D01*
X68949000Y-50631903D01*
X68952989Y-50591400D01*
X68963015Y-50558348D01*
X68979292Y-50527897D01*
X69001201Y-50501201D01*
X69027897Y-50479292D01*
X69058348Y-50463015D01*
X69091400Y-50452989D01*
X69131903Y-50449000D01*
X70568097Y-50449000D01*
X70608600Y-50452989D01*
G37*
G36*
X81951000Y-48771000D02*
G01*
X80249000Y-48771000D01*
X80249000Y-47069000D01*
X81951000Y-47069000D01*
X81951000Y-48771000D01*
G37*
G36*
X78810721Y-45960174D02*
G01*
X78910995Y-46001709D01*
X78910996Y-46001710D01*
X79001242Y-46062010D01*
X79077990Y-46138758D01*
X79077991Y-46138760D01*
X79138291Y-46229005D01*
X79179826Y-46329279D01*
X79201000Y-46435730D01*
X79201000Y-46544270D01*
X79179826Y-46650721D01*
X79138291Y-46750995D01*
X79138290Y-46750996D01*
X79077990Y-46841242D01*
X79001242Y-46917990D01*
X78955812Y-46948345D01*
X78910995Y-46978291D01*
X78810721Y-47019826D01*
X78704270Y-47041000D01*
X78595730Y-47041000D01*
X78489279Y-47019826D01*
X78389005Y-46978291D01*
X78344188Y-46948345D01*
X78298758Y-46917990D01*
X78222010Y-46841242D01*
X78161710Y-46750996D01*
X78161709Y-46750995D01*
X78120174Y-46650721D01*
X78099000Y-46544270D01*
X78099000Y-46435730D01*
X78120174Y-46329279D01*
X78161709Y-46229005D01*
X78222009Y-46138760D01*
X78222010Y-46138758D01*
X78298758Y-46062010D01*
X78389004Y-46001710D01*
X78389005Y-46001709D01*
X78489279Y-45960174D01*
X78595730Y-45939000D01*
X78704270Y-45939000D01*
X78810721Y-45960174D01*
G37*
G36*
X51810721Y-45960174D02*
G01*
X51910995Y-46001709D01*
X51910996Y-46001710D01*
X52001242Y-46062010D01*
X52077990Y-46138758D01*
X52077991Y-46138760D01*
X52138291Y-46229005D01*
X52179826Y-46329279D01*
X52201000Y-46435730D01*
X52201000Y-46544270D01*
X52179826Y-46650721D01*
X52138291Y-46750995D01*
X52138290Y-46750996D01*
X52077990Y-46841242D01*
X52001242Y-46917990D01*
X51955812Y-46948345D01*
X51910995Y-46978291D01*
X51810721Y-47019826D01*
X51704270Y-47041000D01*
X51595730Y-47041000D01*
X51489279Y-47019826D01*
X51389005Y-46978291D01*
X51344188Y-46948345D01*
X51298758Y-46917990D01*
X51222010Y-46841242D01*
X51161710Y-46750996D01*
X51161709Y-46750995D01*
X51120174Y-46650721D01*
X51099000Y-46544270D01*
X51099000Y-46435730D01*
X51120174Y-46329279D01*
X51161709Y-46229005D01*
X51222009Y-46138760D01*
X51222010Y-46138758D01*
X51298758Y-46062010D01*
X51389004Y-46001710D01*
X51389005Y-46001709D01*
X51489279Y-45960174D01*
X51595730Y-45939000D01*
X51704270Y-45939000D01*
X51810721Y-45960174D01*
G37*
G36*
X57883642Y-44779781D02*
G01*
X58029414Y-44840162D01*
X58029416Y-44840163D01*
X58160608Y-44927822D01*
X58272178Y-45039392D01*
X58357850Y-45167610D01*
X58359838Y-45170586D01*
X58420219Y-45316358D01*
X58451000Y-45471107D01*
X58451000Y-45628893D01*
X58420219Y-45783642D01*
X58359838Y-45929414D01*
X58359837Y-45929416D01*
X58272178Y-46060608D01*
X58160608Y-46172178D01*
X58029416Y-46259837D01*
X58029415Y-46259838D01*
X58029414Y-46259838D01*
X57883642Y-46320219D01*
X57728893Y-46351000D01*
X57551107Y-46351000D01*
X57396358Y-46320219D01*
X57250586Y-46259838D01*
X57250585Y-46259838D01*
X57250584Y-46259837D01*
X57119392Y-46172178D01*
X57007822Y-46060608D01*
X56920163Y-45929416D01*
X56920162Y-45929414D01*
X56859781Y-45783642D01*
X56829000Y-45628893D01*
X56829000Y-45471107D01*
X56859781Y-45316358D01*
X56920162Y-45170586D01*
X56922150Y-45167610D01*
X57007822Y-45039392D01*
X57119392Y-44927822D01*
X57250584Y-44840163D01*
X57250586Y-44840162D01*
X57396358Y-44779781D01*
X57551107Y-44749000D01*
X57728893Y-44749000D01*
X57883642Y-44779781D01*
G37*
G36*
X54883642Y-44779781D02*
G01*
X55029414Y-44840162D01*
X55029416Y-44840163D01*
X55160608Y-44927822D01*
X55272178Y-45039392D01*
X55357850Y-45167610D01*
X55359838Y-45170586D01*
X55420219Y-45316358D01*
X55451000Y-45471107D01*
X55451000Y-45628893D01*
X55420219Y-45783642D01*
X55359838Y-45929414D01*
X55359837Y-45929416D01*
X55272178Y-46060608D01*
X55160608Y-46172178D01*
X55029416Y-46259837D01*
X55029415Y-46259838D01*
X55029414Y-46259838D01*
X54883642Y-46320219D01*
X54728893Y-46351000D01*
X54551107Y-46351000D01*
X54396358Y-46320219D01*
X54250586Y-46259838D01*
X54250585Y-46259838D01*
X54250584Y-46259837D01*
X54119392Y-46172178D01*
X54007822Y-46060608D01*
X53920163Y-45929416D01*
X53920162Y-45929414D01*
X53859781Y-45783642D01*
X53829000Y-45628893D01*
X53829000Y-45471107D01*
X53859781Y-45316358D01*
X53920162Y-45170586D01*
X53922150Y-45167610D01*
X54007822Y-45039392D01*
X54119392Y-44927822D01*
X54250584Y-44840163D01*
X54250586Y-44840162D01*
X54396358Y-44779781D01*
X54551107Y-44749000D01*
X54728893Y-44749000D01*
X54883642Y-44779781D01*
G37*
G36*
X60883642Y-44779781D02*
G01*
X61029414Y-44840162D01*
X61029416Y-44840163D01*
X61160608Y-44927822D01*
X61272178Y-45039392D01*
X61357850Y-45167610D01*
X61359838Y-45170586D01*
X61420219Y-45316358D01*
X61451000Y-45471107D01*
X61451000Y-45628893D01*
X61420219Y-45783642D01*
X61359838Y-45929414D01*
X61359837Y-45929416D01*
X61272178Y-46060608D01*
X61160608Y-46172178D01*
X61029416Y-46259837D01*
X61029415Y-46259838D01*
X61029414Y-46259838D01*
X60883642Y-46320219D01*
X60728893Y-46351000D01*
X60551107Y-46351000D01*
X60396358Y-46320219D01*
X60250586Y-46259838D01*
X60250585Y-46259838D01*
X60250584Y-46259837D01*
X60119392Y-46172178D01*
X60007822Y-46060608D01*
X59920163Y-45929416D01*
X59920162Y-45929414D01*
X59859781Y-45783642D01*
X59829000Y-45628893D01*
X59829000Y-45471107D01*
X59859781Y-45316358D01*
X59920162Y-45170586D01*
X59922150Y-45167610D01*
X60007822Y-45039392D01*
X60119392Y-44927822D01*
X60250584Y-44840163D01*
X60250586Y-44840162D01*
X60396358Y-44779781D01*
X60551107Y-44749000D01*
X60728893Y-44749000D01*
X60883642Y-44779781D01*
G37*
G36*
X66883642Y-44779781D02*
G01*
X67029414Y-44840162D01*
X67029416Y-44840163D01*
X67160608Y-44927822D01*
X67272178Y-45039392D01*
X67357850Y-45167610D01*
X67359838Y-45170586D01*
X67420219Y-45316358D01*
X67451000Y-45471107D01*
X67451000Y-45628893D01*
X67420219Y-45783642D01*
X67359838Y-45929414D01*
X67359837Y-45929416D01*
X67272178Y-46060608D01*
X67160608Y-46172178D01*
X67029416Y-46259837D01*
X67029415Y-46259838D01*
X67029414Y-46259838D01*
X66883642Y-46320219D01*
X66728893Y-46351000D01*
X66551107Y-46351000D01*
X66396358Y-46320219D01*
X66250586Y-46259838D01*
X66250585Y-46259838D01*
X66250584Y-46259837D01*
X66119392Y-46172178D01*
X66007822Y-46060608D01*
X65920163Y-45929416D01*
X65920162Y-45929414D01*
X65859781Y-45783642D01*
X65829000Y-45628893D01*
X65829000Y-45471107D01*
X65859781Y-45316358D01*
X65920162Y-45170586D01*
X65922150Y-45167610D01*
X66007822Y-45039392D01*
X66119392Y-44927822D01*
X66250584Y-44840163D01*
X66250586Y-44840162D01*
X66396358Y-44779781D01*
X66551107Y-44749000D01*
X66728893Y-44749000D01*
X66883642Y-44779781D01*
G37*
G36*
X69883642Y-44779781D02*
G01*
X70029414Y-44840162D01*
X70029416Y-44840163D01*
X70160608Y-44927822D01*
X70272178Y-45039392D01*
X70357850Y-45167610D01*
X70359838Y-45170586D01*
X70420219Y-45316358D01*
X70451000Y-45471107D01*
X70451000Y-45628893D01*
X70420219Y-45783642D01*
X70359838Y-45929414D01*
X70359837Y-45929416D01*
X70272178Y-46060608D01*
X70160608Y-46172178D01*
X70029416Y-46259837D01*
X70029415Y-46259838D01*
X70029414Y-46259838D01*
X69883642Y-46320219D01*
X69728893Y-46351000D01*
X69551107Y-46351000D01*
X69396358Y-46320219D01*
X69250586Y-46259838D01*
X69250585Y-46259838D01*
X69250584Y-46259837D01*
X69119392Y-46172178D01*
X69007822Y-46060608D01*
X68920163Y-45929416D01*
X68920162Y-45929414D01*
X68859781Y-45783642D01*
X68829000Y-45628893D01*
X68829000Y-45471107D01*
X68859781Y-45316358D01*
X68920162Y-45170586D01*
X68922150Y-45167610D01*
X69007822Y-45039392D01*
X69119392Y-44927822D01*
X69250584Y-44840163D01*
X69250586Y-44840162D01*
X69396358Y-44779781D01*
X69551107Y-44749000D01*
X69728893Y-44749000D01*
X69883642Y-44779781D01*
G37*
G36*
X72883642Y-44779781D02*
G01*
X73029414Y-44840162D01*
X73029416Y-44840163D01*
X73160608Y-44927822D01*
X73272178Y-45039392D01*
X73357850Y-45167610D01*
X73359838Y-45170586D01*
X73420219Y-45316358D01*
X73451000Y-45471107D01*
X73451000Y-45628893D01*
X73420219Y-45783642D01*
X73359838Y-45929414D01*
X73359837Y-45929416D01*
X73272178Y-46060608D01*
X73160608Y-46172178D01*
X73029416Y-46259837D01*
X73029415Y-46259838D01*
X73029414Y-46259838D01*
X72883642Y-46320219D01*
X72728893Y-46351000D01*
X72551107Y-46351000D01*
X72396358Y-46320219D01*
X72250586Y-46259838D01*
X72250585Y-46259838D01*
X72250584Y-46259837D01*
X72119392Y-46172178D01*
X72007822Y-46060608D01*
X71920163Y-45929416D01*
X71920162Y-45929414D01*
X71859781Y-45783642D01*
X71829000Y-45628893D01*
X71829000Y-45471107D01*
X71859781Y-45316358D01*
X71920162Y-45170586D01*
X71922150Y-45167610D01*
X72007822Y-45039392D01*
X72119392Y-44927822D01*
X72250584Y-44840163D01*
X72250586Y-44840162D01*
X72396358Y-44779781D01*
X72551107Y-44749000D01*
X72728893Y-44749000D01*
X72883642Y-44779781D01*
G37*
G36*
X75883642Y-44779781D02*
G01*
X76029414Y-44840162D01*
X76029416Y-44840163D01*
X76160608Y-44927822D01*
X76272178Y-45039392D01*
X76357850Y-45167610D01*
X76359838Y-45170586D01*
X76420219Y-45316358D01*
X76451000Y-45471107D01*
X76451000Y-45628893D01*
X76420219Y-45783642D01*
X76359838Y-45929414D01*
X76359837Y-45929416D01*
X76272178Y-46060608D01*
X76160608Y-46172178D01*
X76029416Y-46259837D01*
X76029415Y-46259838D01*
X76029414Y-46259838D01*
X75883642Y-46320219D01*
X75728893Y-46351000D01*
X75551107Y-46351000D01*
X75396358Y-46320219D01*
X75250586Y-46259838D01*
X75250585Y-46259838D01*
X75250584Y-46259837D01*
X75119392Y-46172178D01*
X75007822Y-46060608D01*
X74920163Y-45929416D01*
X74920162Y-45929414D01*
X74859781Y-45783642D01*
X74829000Y-45628893D01*
X74829000Y-45471107D01*
X74859781Y-45316358D01*
X74920162Y-45170586D01*
X74922150Y-45167610D01*
X75007822Y-45039392D01*
X75119392Y-44927822D01*
X75250584Y-44840163D01*
X75250586Y-44840162D01*
X75396358Y-44779781D01*
X75551107Y-44749000D01*
X75728893Y-44749000D01*
X75883642Y-44779781D01*
G37*
G36*
X63883642Y-44779781D02*
G01*
X64029414Y-44840162D01*
X64029416Y-44840163D01*
X64160608Y-44927822D01*
X64272178Y-45039392D01*
X64357850Y-45167610D01*
X64359838Y-45170586D01*
X64420219Y-45316358D01*
X64451000Y-45471107D01*
X64451000Y-45628893D01*
X64420219Y-45783642D01*
X64359838Y-45929414D01*
X64359837Y-45929416D01*
X64272178Y-46060608D01*
X64160608Y-46172178D01*
X64029416Y-46259837D01*
X64029415Y-46259838D01*
X64029414Y-46259838D01*
X63883642Y-46320219D01*
X63728893Y-46351000D01*
X63551107Y-46351000D01*
X63396358Y-46320219D01*
X63250586Y-46259838D01*
X63250585Y-46259838D01*
X63250584Y-46259837D01*
X63119392Y-46172178D01*
X63007822Y-46060608D01*
X62920163Y-45929416D01*
X62920162Y-45929414D01*
X62859781Y-45783642D01*
X62829000Y-45628893D01*
X62829000Y-45471107D01*
X62859781Y-45316358D01*
X62920162Y-45170586D01*
X62922150Y-45167610D01*
X63007822Y-45039392D01*
X63119392Y-44927822D01*
X63250584Y-44840163D01*
X63250586Y-44840162D01*
X63396358Y-44779781D01*
X63551107Y-44749000D01*
X63728893Y-44749000D01*
X63883642Y-44779781D01*
G37*
G36*
X81859999Y-42624737D02*
G01*
X81869608Y-42627652D01*
X81878472Y-42632390D01*
X81886237Y-42638763D01*
X81892610Y-42646528D01*
X81897348Y-42655392D01*
X81900263Y-42665001D01*
X81901852Y-42681140D01*
X81901852Y-43668860D01*
X81900263Y-43684999D01*
X81897348Y-43694608D01*
X81892610Y-43703472D01*
X81886258Y-43711212D01*
X81886237Y-43711237D01*
X81878427Y-43717640D01*
X81878372Y-43717677D01*
X81868853Y-43725480D01*
X81868878Y-43725511D01*
X81855028Y-43736853D01*
X81839463Y-43755779D01*
X81827889Y-43777377D01*
X81820751Y-43800819D01*
X81818324Y-43825202D01*
X81820700Y-43849591D01*
X81827789Y-43873047D01*
X81839318Y-43894670D01*
X81854843Y-43913628D01*
X81873769Y-43929193D01*
X81876825Y-43931029D01*
X81878514Y-43932418D01*
X81878516Y-43932419D01*
X81884712Y-43937515D01*
X81886274Y-43938800D01*
X81892642Y-43946575D01*
X81895791Y-43952483D01*
X81897367Y-43955438D01*
X81900257Y-43965001D01*
X81900282Y-43965085D01*
X81901852Y-43981113D01*
X81901852Y-45118860D01*
X81900263Y-45134999D01*
X81897348Y-45144608D01*
X81892610Y-45153472D01*
X81886237Y-45161237D01*
X81878472Y-45167610D01*
X81869608Y-45172348D01*
X81859999Y-45175263D01*
X81843860Y-45176852D01*
X80356140Y-45176852D01*
X80340001Y-45175263D01*
X80330392Y-45172348D01*
X80321528Y-45167610D01*
X80313763Y-45161237D01*
X80307390Y-45153472D01*
X80302652Y-45144608D01*
X80299737Y-45134999D01*
X80298148Y-45118860D01*
X80298148Y-43981140D01*
X80299737Y-43965001D01*
X80302652Y-43955392D01*
X80307390Y-43946528D01*
X80313763Y-43938763D01*
X80326737Y-43928116D01*
X80335968Y-43921947D01*
X80353294Y-43904619D01*
X80366907Y-43884244D01*
X80376283Y-43861605D01*
X80381063Y-43837572D01*
X80381062Y-43813068D01*
X80376280Y-43789035D01*
X80366902Y-43766396D01*
X80353287Y-43746022D01*
X80335959Y-43728696D01*
X80326683Y-43721825D01*
X80313800Y-43711274D01*
X80312668Y-43709897D01*
X80307419Y-43703516D01*
X80302674Y-43694661D01*
X80301749Y-43691623D01*
X80299758Y-43685085D01*
X80299758Y-43685082D01*
X80299748Y-43685050D01*
X80298753Y-43675000D01*
X80298753Y-43674935D01*
X80298148Y-43668825D01*
X80298148Y-42681140D01*
X80299737Y-42665001D01*
X80302652Y-42655392D01*
X80307390Y-42646528D01*
X80313763Y-42638763D01*
X80321528Y-42632390D01*
X80330392Y-42627652D01*
X80340001Y-42624737D01*
X80356140Y-42623148D01*
X81843860Y-42623148D01*
X81859999Y-42624737D01*
G37*
G36*
X75883642Y-41779781D02*
G01*
X76007208Y-41830964D01*
X76029416Y-41840163D01*
X76160608Y-41927822D01*
X76272178Y-42039392D01*
X76359837Y-42170584D01*
X76359838Y-42170586D01*
X76420219Y-42316358D01*
X76451000Y-42471107D01*
X76451000Y-42628893D01*
X76420219Y-42783642D01*
X76359838Y-42929414D01*
X76359837Y-42929416D01*
X76272178Y-43060608D01*
X76160608Y-43172178D01*
X76029416Y-43259837D01*
X76029415Y-43259838D01*
X76029414Y-43259838D01*
X75883642Y-43320219D01*
X75728893Y-43351000D01*
X75551107Y-43351000D01*
X75396358Y-43320219D01*
X75250586Y-43259838D01*
X75250585Y-43259838D01*
X75250584Y-43259837D01*
X75119392Y-43172178D01*
X75007822Y-43060608D01*
X74920163Y-42929416D01*
X74920162Y-42929414D01*
X74859781Y-42783642D01*
X74829000Y-42628893D01*
X74829000Y-42471107D01*
X74859781Y-42316358D01*
X74920162Y-42170586D01*
X74920163Y-42170584D01*
X75007822Y-42039392D01*
X75119392Y-41927822D01*
X75250584Y-41840163D01*
X75272792Y-41830964D01*
X75396358Y-41779781D01*
X75551107Y-41749000D01*
X75728893Y-41749000D01*
X75883642Y-41779781D01*
G37*
G36*
X66883642Y-41779781D02*
G01*
X67007208Y-41830964D01*
X67029416Y-41840163D01*
X67160608Y-41927822D01*
X67272178Y-42039392D01*
X67359837Y-42170584D01*
X67359838Y-42170586D01*
X67420219Y-42316358D01*
X67451000Y-42471107D01*
X67451000Y-42628893D01*
X67420219Y-42783642D01*
X67359838Y-42929414D01*
X67359837Y-42929416D01*
X67272178Y-43060608D01*
X67160608Y-43172178D01*
X67029416Y-43259837D01*
X67029415Y-43259838D01*
X67029414Y-43259838D01*
X66883642Y-43320219D01*
X66728893Y-43351000D01*
X66551107Y-43351000D01*
X66396358Y-43320219D01*
X66250586Y-43259838D01*
X66250585Y-43259838D01*
X66250584Y-43259837D01*
X66119392Y-43172178D01*
X66007822Y-43060608D01*
X65920163Y-42929416D01*
X65920162Y-42929414D01*
X65859781Y-42783642D01*
X65829000Y-42628893D01*
X65829000Y-42471107D01*
X65859781Y-42316358D01*
X65920162Y-42170586D01*
X65920163Y-42170584D01*
X66007822Y-42039392D01*
X66119392Y-41927822D01*
X66250584Y-41840163D01*
X66272792Y-41830964D01*
X66396358Y-41779781D01*
X66551107Y-41749000D01*
X66728893Y-41749000D01*
X66883642Y-41779781D01*
G37*
G36*
X57883642Y-41779781D02*
G01*
X58007208Y-41830964D01*
X58029416Y-41840163D01*
X58160608Y-41927822D01*
X58272178Y-42039392D01*
X58359837Y-42170584D01*
X58359838Y-42170586D01*
X58420219Y-42316358D01*
X58451000Y-42471107D01*
X58451000Y-42628893D01*
X58420219Y-42783642D01*
X58359838Y-42929414D01*
X58359837Y-42929416D01*
X58272178Y-43060608D01*
X58160608Y-43172178D01*
X58029416Y-43259837D01*
X58029415Y-43259838D01*
X58029414Y-43259838D01*
X57883642Y-43320219D01*
X57728893Y-43351000D01*
X57551107Y-43351000D01*
X57396358Y-43320219D01*
X57250586Y-43259838D01*
X57250585Y-43259838D01*
X57250584Y-43259837D01*
X57119392Y-43172178D01*
X57007822Y-43060608D01*
X56920163Y-42929416D01*
X56920162Y-42929414D01*
X56859781Y-42783642D01*
X56829000Y-42628893D01*
X56829000Y-42471107D01*
X56859781Y-42316358D01*
X56920162Y-42170586D01*
X56920163Y-42170584D01*
X57007822Y-42039392D01*
X57119392Y-41927822D01*
X57250584Y-41840163D01*
X57272792Y-41830964D01*
X57396358Y-41779781D01*
X57551107Y-41749000D01*
X57728893Y-41749000D01*
X57883642Y-41779781D01*
G37*
G36*
X69883642Y-41779781D02*
G01*
X70007208Y-41830964D01*
X70029416Y-41840163D01*
X70160608Y-41927822D01*
X70272178Y-42039392D01*
X70359837Y-42170584D01*
X70359838Y-42170586D01*
X70420219Y-42316358D01*
X70451000Y-42471107D01*
X70451000Y-42628893D01*
X70420219Y-42783642D01*
X70359838Y-42929414D01*
X70359837Y-42929416D01*
X70272178Y-43060608D01*
X70160608Y-43172178D01*
X70029416Y-43259837D01*
X70029415Y-43259838D01*
X70029414Y-43259838D01*
X69883642Y-43320219D01*
X69728893Y-43351000D01*
X69551107Y-43351000D01*
X69396358Y-43320219D01*
X69250586Y-43259838D01*
X69250585Y-43259838D01*
X69250584Y-43259837D01*
X69119392Y-43172178D01*
X69007822Y-43060608D01*
X68920163Y-42929416D01*
X68920162Y-42929414D01*
X68859781Y-42783642D01*
X68829000Y-42628893D01*
X68829000Y-42471107D01*
X68859781Y-42316358D01*
X68920162Y-42170586D01*
X68920163Y-42170584D01*
X69007822Y-42039392D01*
X69119392Y-41927822D01*
X69250584Y-41840163D01*
X69272792Y-41830964D01*
X69396358Y-41779781D01*
X69551107Y-41749000D01*
X69728893Y-41749000D01*
X69883642Y-41779781D01*
G37*
G36*
X72883642Y-41779781D02*
G01*
X73007208Y-41830964D01*
X73029416Y-41840163D01*
X73160608Y-41927822D01*
X73272178Y-42039392D01*
X73359837Y-42170584D01*
X73359838Y-42170586D01*
X73420219Y-42316358D01*
X73451000Y-42471107D01*
X73451000Y-42628893D01*
X73420219Y-42783642D01*
X73359838Y-42929414D01*
X73359837Y-42929416D01*
X73272178Y-43060608D01*
X73160608Y-43172178D01*
X73029416Y-43259837D01*
X73029415Y-43259838D01*
X73029414Y-43259838D01*
X72883642Y-43320219D01*
X72728893Y-43351000D01*
X72551107Y-43351000D01*
X72396358Y-43320219D01*
X72250586Y-43259838D01*
X72250585Y-43259838D01*
X72250584Y-43259837D01*
X72119392Y-43172178D01*
X72007822Y-43060608D01*
X71920163Y-42929416D01*
X71920162Y-42929414D01*
X71859781Y-42783642D01*
X71829000Y-42628893D01*
X71829000Y-42471107D01*
X71859781Y-42316358D01*
X71920162Y-42170586D01*
X71920163Y-42170584D01*
X72007822Y-42039392D01*
X72119392Y-41927822D01*
X72250584Y-41840163D01*
X72272792Y-41830964D01*
X72396358Y-41779781D01*
X72551107Y-41749000D01*
X72728893Y-41749000D01*
X72883642Y-41779781D01*
G37*
G36*
X63883642Y-41779781D02*
G01*
X64007208Y-41830964D01*
X64029416Y-41840163D01*
X64160608Y-41927822D01*
X64272178Y-42039392D01*
X64359837Y-42170584D01*
X64359838Y-42170586D01*
X64420219Y-42316358D01*
X64451000Y-42471107D01*
X64451000Y-42628893D01*
X64420219Y-42783642D01*
X64359838Y-42929414D01*
X64359837Y-42929416D01*
X64272178Y-43060608D01*
X64160608Y-43172178D01*
X64029416Y-43259837D01*
X64029415Y-43259838D01*
X64029414Y-43259838D01*
X63883642Y-43320219D01*
X63728893Y-43351000D01*
X63551107Y-43351000D01*
X63396358Y-43320219D01*
X63250586Y-43259838D01*
X63250585Y-43259838D01*
X63250584Y-43259837D01*
X63119392Y-43172178D01*
X63007822Y-43060608D01*
X62920163Y-42929416D01*
X62920162Y-42929414D01*
X62859781Y-42783642D01*
X62829000Y-42628893D01*
X62829000Y-42471107D01*
X62859781Y-42316358D01*
X62920162Y-42170586D01*
X62920163Y-42170584D01*
X63007822Y-42039392D01*
X63119392Y-41927822D01*
X63250584Y-41840163D01*
X63272792Y-41830964D01*
X63396358Y-41779781D01*
X63551107Y-41749000D01*
X63728893Y-41749000D01*
X63883642Y-41779781D01*
G37*
G36*
X60883642Y-41779781D02*
G01*
X61007208Y-41830964D01*
X61029416Y-41840163D01*
X61160608Y-41927822D01*
X61272178Y-42039392D01*
X61359837Y-42170584D01*
X61359838Y-42170586D01*
X61420219Y-42316358D01*
X61451000Y-42471107D01*
X61451000Y-42628893D01*
X61420219Y-42783642D01*
X61359838Y-42929414D01*
X61359837Y-42929416D01*
X61272178Y-43060608D01*
X61160608Y-43172178D01*
X61029416Y-43259837D01*
X61029415Y-43259838D01*
X61029414Y-43259838D01*
X60883642Y-43320219D01*
X60728893Y-43351000D01*
X60551107Y-43351000D01*
X60396358Y-43320219D01*
X60250586Y-43259838D01*
X60250585Y-43259838D01*
X60250584Y-43259837D01*
X60119392Y-43172178D01*
X60007822Y-43060608D01*
X59920163Y-42929416D01*
X59920162Y-42929414D01*
X59859781Y-42783642D01*
X59829000Y-42628893D01*
X59829000Y-42471107D01*
X59859781Y-42316358D01*
X59920162Y-42170586D01*
X59920163Y-42170584D01*
X60007822Y-42039392D01*
X60119392Y-41927822D01*
X60250584Y-41840163D01*
X60272792Y-41830964D01*
X60396358Y-41779781D01*
X60551107Y-41749000D01*
X60728893Y-41749000D01*
X60883642Y-41779781D01*
G37*
G36*
X55303048Y-41753122D02*
G01*
X55337387Y-41763539D01*
X55369036Y-41780456D01*
X55396778Y-41803222D01*
X55419544Y-41830964D01*
X55436461Y-41862613D01*
X55446878Y-41896952D01*
X55451000Y-41938807D01*
X55451000Y-43161193D01*
X55446878Y-43203048D01*
X55436461Y-43237387D01*
X55419544Y-43269036D01*
X55396778Y-43296778D01*
X55369036Y-43319544D01*
X55337387Y-43336461D01*
X55303048Y-43346878D01*
X55261193Y-43351000D01*
X54018807Y-43351000D01*
X53976952Y-43346878D01*
X53942613Y-43336461D01*
X53910964Y-43319544D01*
X53883222Y-43296778D01*
X53860456Y-43269036D01*
X53843539Y-43237387D01*
X53833122Y-43203048D01*
X53829000Y-43161193D01*
X53829000Y-41938807D01*
X53833122Y-41896952D01*
X53843539Y-41862613D01*
X53860456Y-41830964D01*
X53883222Y-41803222D01*
X53910964Y-41780456D01*
X53942613Y-41763539D01*
X53976952Y-41753122D01*
X54018807Y-41749000D01*
X55261193Y-41749000D01*
X55303048Y-41753122D01*
G37*
G36*
X81348228Y-39481703D02*
G01*
X81503100Y-39545853D01*
X81642481Y-39638985D01*
X81761015Y-39757519D01*
X81854147Y-39896900D01*
X81918297Y-40051772D01*
X81951000Y-40216184D01*
X81951000Y-40383816D01*
X81918297Y-40548228D01*
X81854147Y-40703100D01*
X81761015Y-40842481D01*
X81642481Y-40961015D01*
X81503100Y-41054147D01*
X81348228Y-41118297D01*
X81183816Y-41151000D01*
X81016184Y-41151000D01*
X80851772Y-41118297D01*
X80696900Y-41054147D01*
X80557519Y-40961015D01*
X80438985Y-40842481D01*
X80345853Y-40703100D01*
X80281703Y-40548228D01*
X80249000Y-40383816D01*
X80249000Y-40216184D01*
X80281703Y-40051772D01*
X80345853Y-39896900D01*
X80438985Y-39757519D01*
X80557519Y-39638985D01*
X80696900Y-39545853D01*
X80851772Y-39481703D01*
X81016184Y-39449000D01*
X81183816Y-39449000D01*
X81348228Y-39481703D01*
G37*
G36*
X57092585Y-36708802D02*
G01*
X57242410Y-36738604D01*
X57524674Y-36855521D01*
X57778705Y-37025259D01*
X57994741Y-37241295D01*
X58164479Y-37495326D01*
X58281396Y-37777590D01*
X58341000Y-38077240D01*
X58341000Y-38382760D01*
X58281396Y-38682410D01*
X58164479Y-38964674D01*
X57994741Y-39218705D01*
X57778705Y-39434741D01*
X57524674Y-39604479D01*
X57242410Y-39721396D01*
X57092585Y-39751198D01*
X56942761Y-39781000D01*
X56637239Y-39781000D01*
X56487415Y-39751198D01*
X56337590Y-39721396D01*
X56055326Y-39604479D01*
X55801295Y-39434741D01*
X55585259Y-39218705D01*
X55415521Y-38964674D01*
X55298604Y-38682410D01*
X55239000Y-38382760D01*
X55239000Y-38077240D01*
X55298604Y-37777590D01*
X55415521Y-37495326D01*
X55585259Y-37241295D01*
X55801295Y-37025259D01*
X56055326Y-36855521D01*
X56337590Y-36738604D01*
X56487415Y-36708802D01*
X56637239Y-36679000D01*
X56942761Y-36679000D01*
X57092585Y-36708802D01*
G37*
G36*
X73792585Y-36708802D02*
G01*
X73942410Y-36738604D01*
X74224674Y-36855521D01*
X74478705Y-37025259D01*
X74694741Y-37241295D01*
X74864479Y-37495326D01*
X74981396Y-37777590D01*
X75041000Y-38077240D01*
X75041000Y-38382760D01*
X74981396Y-38682410D01*
X74864479Y-38964674D01*
X74694741Y-39218705D01*
X74478705Y-39434741D01*
X74224674Y-39604479D01*
X73942410Y-39721396D01*
X73792585Y-39751198D01*
X73642761Y-39781000D01*
X73337239Y-39781000D01*
X73187415Y-39751198D01*
X73037590Y-39721396D01*
X72755326Y-39604479D01*
X72501295Y-39434741D01*
X72285259Y-39218705D01*
X72115521Y-38964674D01*
X71998604Y-38682410D01*
X71939000Y-38382760D01*
X71939000Y-38077240D01*
X71998604Y-37777590D01*
X72115521Y-37495326D01*
X72285259Y-37241295D01*
X72501295Y-37025259D01*
X72755326Y-36855521D01*
X73037590Y-36738604D01*
X73187415Y-36708802D01*
X73337239Y-36679000D01*
X73642761Y-36679000D01*
X73792585Y-36708802D01*
G37*
G36*
X81848015Y-37128839D02*
G01*
X81889361Y-37141381D01*
X81927455Y-37161743D01*
X81960851Y-37189149D01*
X81988257Y-37222545D01*
X82008619Y-37260639D01*
X82021161Y-37301985D01*
X82026000Y-37351115D01*
X82026000Y-38623885D01*
X82021161Y-38673015D01*
X82008619Y-38714361D01*
X81988257Y-38752455D01*
X81960851Y-38785851D01*
X81927455Y-38813257D01*
X81889361Y-38833619D01*
X81848015Y-38846161D01*
X81798885Y-38851000D01*
X80401115Y-38851000D01*
X80351985Y-38846161D01*
X80310639Y-38833619D01*
X80272545Y-38813257D01*
X80239149Y-38785851D01*
X80211743Y-38752455D01*
X80191381Y-38714361D01*
X80178839Y-38673015D01*
X80174000Y-38623885D01*
X80174000Y-37351115D01*
X80178839Y-37301985D01*
X80191381Y-37260639D01*
X80211743Y-37222545D01*
X80239149Y-37189149D01*
X80272545Y-37161743D01*
X80310639Y-37141381D01*
X80351985Y-37128839D01*
X80401115Y-37124000D01*
X81798885Y-37124000D01*
X81848015Y-37128839D01*
G37*
G36*
X81848015Y-34553839D02*
G01*
X81889361Y-34566381D01*
X81927455Y-34586743D01*
X81960851Y-34614149D01*
X81988257Y-34647545D01*
X82008619Y-34685639D01*
X82021161Y-34726985D01*
X82026000Y-34776115D01*
X82026000Y-36048885D01*
X82021161Y-36098015D01*
X82008619Y-36139361D01*
X81988257Y-36177455D01*
X81960851Y-36210851D01*
X81927455Y-36238257D01*
X81889361Y-36258619D01*
X81848015Y-36271161D01*
X81798885Y-36276000D01*
X80401115Y-36276000D01*
X80351985Y-36271161D01*
X80310639Y-36258619D01*
X80272545Y-36238257D01*
X80239149Y-36210851D01*
X80211743Y-36177455D01*
X80191381Y-36139361D01*
X80178839Y-36098015D01*
X80174000Y-36048885D01*
X80174000Y-34776115D01*
X80178839Y-34726985D01*
X80191381Y-34685639D01*
X80211743Y-34647545D01*
X80239149Y-34614149D01*
X80272545Y-34586743D01*
X80310639Y-34566381D01*
X80351985Y-34553839D01*
X80401115Y-34549000D01*
X81798885Y-34549000D01*
X81848015Y-34553839D01*
G37*
M02*
