G04 #@! TF.GenerationSoftware,KiCad,Pcbnew,5.1.6+dfsg1-1*
G04 #@! TF.CreationDate,2020-12-20T23:12:48+01:00*
G04 #@! TF.ProjectId,carabiner,63617261-6269-46e6-9572-2e6b69636164,rev?*
G04 #@! TF.SameCoordinates,Original*
G04 #@! TF.FileFunction,Soldermask,Top*
G04 #@! TF.FilePolarity,Negative*
%FSLAX46Y46*%
G04 Gerber Fmt 4.6, Leading zero omitted, Abs format (unit mm)*
G04 Created by KiCad (PCBNEW 5.1.6+dfsg1-1) date 2020-12-20 23:12:48*
%MOMM*%
%LPD*%
G01*
G04 APERTURE LIST*
%ADD10C,0.010000*%
%ADD11C,0.100000*%
G04 APERTURE END LIST*
D10*
G36*
X63680508Y-37612946D02*
G01*
X63712531Y-37623195D01*
X63751294Y-37645304D01*
X63801506Y-37683387D01*
X63867875Y-37741558D01*
X63955108Y-37823929D01*
X64067914Y-37934615D01*
X64211000Y-38077728D01*
X64377241Y-38245422D01*
X65005444Y-38880400D01*
X65403596Y-38880444D01*
X65864520Y-39346111D01*
X65996055Y-39478242D01*
X66114526Y-39595811D01*
X66214163Y-39693206D01*
X66289195Y-39764820D01*
X66333851Y-39805042D01*
X66343593Y-39811777D01*
X66370162Y-39793014D01*
X66426181Y-39742736D01*
X66501822Y-39669962D01*
X66543555Y-39628333D01*
X66725369Y-39444888D01*
X67092828Y-39444888D01*
X67353924Y-39184878D01*
X67615021Y-38924867D01*
X67801487Y-39105597D01*
X68503621Y-38400354D01*
X68667568Y-38236549D01*
X68819651Y-38086261D01*
X68955151Y-37954025D01*
X69069350Y-37844377D01*
X69157531Y-37761851D01*
X69214974Y-37710983D01*
X69236378Y-37696008D01*
X69282290Y-37712500D01*
X69314900Y-37733309D01*
X69323658Y-37745949D01*
X69321000Y-37766075D01*
X69303567Y-37797425D01*
X69268000Y-37843734D01*
X69210940Y-37908741D01*
X69129028Y-37996183D01*
X69018905Y-38109796D01*
X68877211Y-38253318D01*
X68700588Y-38430486D01*
X68579762Y-38551186D01*
X67796724Y-39332660D01*
X67704818Y-39242805D01*
X67612912Y-39152949D01*
X67395109Y-39369474D01*
X67177307Y-39586000D01*
X66806873Y-39586000D01*
X66578656Y-39811777D01*
X66487395Y-39901304D01*
X66411798Y-39974033D01*
X66360210Y-40022031D01*
X66341164Y-40037531D01*
X66319507Y-40018431D01*
X66263500Y-39964734D01*
X66178634Y-39881829D01*
X66070400Y-39775102D01*
X65944289Y-39649939D01*
X65838000Y-39543935D01*
X65344111Y-39050363D01*
X65146344Y-39050070D01*
X64948576Y-39049777D01*
X64250288Y-38351070D01*
X64087600Y-38187706D01*
X63938345Y-38036718D01*
X63807061Y-37902783D01*
X63698286Y-37790576D01*
X63616555Y-37704774D01*
X63566408Y-37650052D01*
X63552000Y-37631403D01*
X63576826Y-37617530D01*
X63637844Y-37610618D01*
X63650519Y-37610444D01*
X63680508Y-37612946D01*
G37*
X63680508Y-37612946D02*
X63712531Y-37623195D01*
X63751294Y-37645304D01*
X63801506Y-37683387D01*
X63867875Y-37741558D01*
X63955108Y-37823929D01*
X64067914Y-37934615D01*
X64211000Y-38077728D01*
X64377241Y-38245422D01*
X65005444Y-38880400D01*
X65403596Y-38880444D01*
X65864520Y-39346111D01*
X65996055Y-39478242D01*
X66114526Y-39595811D01*
X66214163Y-39693206D01*
X66289195Y-39764820D01*
X66333851Y-39805042D01*
X66343593Y-39811777D01*
X66370162Y-39793014D01*
X66426181Y-39742736D01*
X66501822Y-39669962D01*
X66543555Y-39628333D01*
X66725369Y-39444888D01*
X67092828Y-39444888D01*
X67353924Y-39184878D01*
X67615021Y-38924867D01*
X67801487Y-39105597D01*
X68503621Y-38400354D01*
X68667568Y-38236549D01*
X68819651Y-38086261D01*
X68955151Y-37954025D01*
X69069350Y-37844377D01*
X69157531Y-37761851D01*
X69214974Y-37710983D01*
X69236378Y-37696008D01*
X69282290Y-37712500D01*
X69314900Y-37733309D01*
X69323658Y-37745949D01*
X69321000Y-37766075D01*
X69303567Y-37797425D01*
X69268000Y-37843734D01*
X69210940Y-37908741D01*
X69129028Y-37996183D01*
X69018905Y-38109796D01*
X68877211Y-38253318D01*
X68700588Y-38430486D01*
X68579762Y-38551186D01*
X67796724Y-39332660D01*
X67704818Y-39242805D01*
X67612912Y-39152949D01*
X67395109Y-39369474D01*
X67177307Y-39586000D01*
X66806873Y-39586000D01*
X66578656Y-39811777D01*
X66487395Y-39901304D01*
X66411798Y-39974033D01*
X66360210Y-40022031D01*
X66341164Y-40037531D01*
X66319507Y-40018431D01*
X66263500Y-39964734D01*
X66178634Y-39881829D01*
X66070400Y-39775102D01*
X65944289Y-39649939D01*
X65838000Y-39543935D01*
X65344111Y-39050363D01*
X65146344Y-39050070D01*
X64948576Y-39049777D01*
X64250288Y-38351070D01*
X64087600Y-38187706D01*
X63938345Y-38036718D01*
X63807061Y-37902783D01*
X63698286Y-37790576D01*
X63616555Y-37704774D01*
X63566408Y-37650052D01*
X63552000Y-37631403D01*
X63576826Y-37617530D01*
X63637844Y-37610618D01*
X63650519Y-37610444D01*
X63680508Y-37612946D01*
G36*
X64170273Y-37618361D02*
G01*
X64206648Y-37633787D01*
X64252113Y-37664778D01*
X64312553Y-37716005D01*
X64393852Y-37792143D01*
X64501893Y-37897864D01*
X64642561Y-38037840D01*
X64679462Y-38074686D01*
X65148288Y-38542903D01*
X65330866Y-38544541D01*
X65513444Y-38546180D01*
X65923431Y-38953623D01*
X66333418Y-39361067D01*
X66458474Y-39233644D01*
X66527865Y-39165511D01*
X66581391Y-39127393D01*
X66640420Y-39110575D01*
X66726322Y-39106343D01*
X66770934Y-39106222D01*
X66958338Y-39106222D01*
X67278658Y-38781558D01*
X67598979Y-38456895D01*
X67692783Y-38547813D01*
X67786586Y-38638731D01*
X68303285Y-38122599D01*
X68460317Y-37965972D01*
X68582984Y-37844839D01*
X68676798Y-37754744D01*
X68747271Y-37691232D01*
X68799912Y-37649847D01*
X68840235Y-37626135D01*
X68873751Y-37615640D01*
X68905970Y-37613907D01*
X68930578Y-37615511D01*
X69041173Y-37624555D01*
X68425065Y-38231333D01*
X68271260Y-38382413D01*
X68130157Y-38520257D01*
X68006820Y-38639979D01*
X67906313Y-38736691D01*
X67833700Y-38805506D01*
X67794046Y-38841536D01*
X67788463Y-38845708D01*
X67757438Y-38832383D01*
X67708426Y-38789758D01*
X67701176Y-38782208D01*
X67647695Y-38734033D01*
X67606341Y-38711364D01*
X67603495Y-38711111D01*
X67573416Y-38730140D01*
X67512020Y-38782389D01*
X67427328Y-38860604D01*
X67327365Y-38957527D01*
X67291444Y-38993333D01*
X67010281Y-39275555D01*
X66643970Y-39275555D01*
X66330732Y-39585525D01*
X65894207Y-39148318D01*
X65457683Y-38711111D01*
X65090111Y-38710009D01*
X64540996Y-38167282D01*
X63991880Y-37624555D01*
X64101258Y-37615512D01*
X64137105Y-37613827D01*
X64170273Y-37618361D01*
G37*
X64170273Y-37618361D02*
X64206648Y-37633787D01*
X64252113Y-37664778D01*
X64312553Y-37716005D01*
X64393852Y-37792143D01*
X64501893Y-37897864D01*
X64642561Y-38037840D01*
X64679462Y-38074686D01*
X65148288Y-38542903D01*
X65330866Y-38544541D01*
X65513444Y-38546180D01*
X65923431Y-38953623D01*
X66333418Y-39361067D01*
X66458474Y-39233644D01*
X66527865Y-39165511D01*
X66581391Y-39127393D01*
X66640420Y-39110575D01*
X66726322Y-39106343D01*
X66770934Y-39106222D01*
X66958338Y-39106222D01*
X67278658Y-38781558D01*
X67598979Y-38456895D01*
X67692783Y-38547813D01*
X67786586Y-38638731D01*
X68303285Y-38122599D01*
X68460317Y-37965972D01*
X68582984Y-37844839D01*
X68676798Y-37754744D01*
X68747271Y-37691232D01*
X68799912Y-37649847D01*
X68840235Y-37626135D01*
X68873751Y-37615640D01*
X68905970Y-37613907D01*
X68930578Y-37615511D01*
X69041173Y-37624555D01*
X68425065Y-38231333D01*
X68271260Y-38382413D01*
X68130157Y-38520257D01*
X68006820Y-38639979D01*
X67906313Y-38736691D01*
X67833700Y-38805506D01*
X67794046Y-38841536D01*
X67788463Y-38845708D01*
X67757438Y-38832383D01*
X67708426Y-38789758D01*
X67701176Y-38782208D01*
X67647695Y-38734033D01*
X67606341Y-38711364D01*
X67603495Y-38711111D01*
X67573416Y-38730140D01*
X67512020Y-38782389D01*
X67427328Y-38860604D01*
X67327365Y-38957527D01*
X67291444Y-38993333D01*
X67010281Y-39275555D01*
X66643970Y-39275555D01*
X66330732Y-39585525D01*
X65894207Y-39148318D01*
X65457683Y-38711111D01*
X65090111Y-38710009D01*
X64540996Y-38167282D01*
X63991880Y-37624555D01*
X64101258Y-37615512D01*
X64137105Y-37613827D01*
X64170273Y-37618361D01*
G36*
X68462084Y-37614786D02*
G01*
X68464780Y-37614943D01*
X68578226Y-37621637D01*
X67782778Y-38414777D01*
X67696459Y-38319330D01*
X67610139Y-38223883D01*
X67252844Y-38580386D01*
X66895548Y-38936888D01*
X66710721Y-38936888D01*
X66607021Y-38939366D01*
X66540351Y-38950902D01*
X66491372Y-38977655D01*
X66444778Y-39021555D01*
X66390836Y-39074226D01*
X66353767Y-39103831D01*
X66347775Y-39106190D01*
X66323515Y-39087343D01*
X66265923Y-39035040D01*
X66181714Y-38955606D01*
X66077601Y-38855364D01*
X65973273Y-38753412D01*
X65614658Y-38400666D01*
X65230438Y-38400666D01*
X64856885Y-38026343D01*
X64739429Y-37907514D01*
X64637119Y-37801847D01*
X64556182Y-37715952D01*
X64502846Y-37656440D01*
X64483336Y-37629919D01*
X64483333Y-37629821D01*
X64508166Y-37618446D01*
X64570253Y-37616906D01*
X64596095Y-37618898D01*
X64644274Y-37627293D01*
X64691074Y-37646363D01*
X64744793Y-37682424D01*
X64813729Y-37741792D01*
X64906180Y-37830783D01*
X65005816Y-37930753D01*
X65302775Y-38231333D01*
X65496237Y-38231333D01*
X65599811Y-38232858D01*
X65666880Y-38242636D01*
X65717380Y-38268467D01*
X65771251Y-38318153D01*
X65802756Y-38351277D01*
X65872983Y-38424078D01*
X65968371Y-38520698D01*
X66073568Y-38625656D01*
X66130166Y-38681447D01*
X66344520Y-38891673D01*
X66410579Y-38829614D01*
X66459923Y-38793822D01*
X66522863Y-38774775D01*
X66617637Y-38767918D01*
X66659147Y-38767555D01*
X66841657Y-38767555D01*
X67215710Y-38386555D01*
X67333912Y-38267304D01*
X67439132Y-38163322D01*
X67524856Y-38080868D01*
X67584574Y-38026202D01*
X67611773Y-38005583D01*
X67612073Y-38005555D01*
X67644716Y-38024244D01*
X67694712Y-38069866D01*
X67700666Y-38076111D01*
X67753308Y-38124004D01*
X67793027Y-38146435D01*
X67795561Y-38146666D01*
X67824884Y-38127514D01*
X67885036Y-38075074D01*
X67967856Y-37996865D01*
X68065178Y-37900409D01*
X68087753Y-37877458D01*
X68195289Y-37768507D01*
X68272746Y-37693995D01*
X68329140Y-37647643D01*
X68373484Y-37623176D01*
X68414794Y-37614316D01*
X68462084Y-37614786D01*
G37*
X68462084Y-37614786D02*
X68464780Y-37614943D01*
X68578226Y-37621637D01*
X67782778Y-38414777D01*
X67696459Y-38319330D01*
X67610139Y-38223883D01*
X67252844Y-38580386D01*
X66895548Y-38936888D01*
X66710721Y-38936888D01*
X66607021Y-38939366D01*
X66540351Y-38950902D01*
X66491372Y-38977655D01*
X66444778Y-39021555D01*
X66390836Y-39074226D01*
X66353767Y-39103831D01*
X66347775Y-39106190D01*
X66323515Y-39087343D01*
X66265923Y-39035040D01*
X66181714Y-38955606D01*
X66077601Y-38855364D01*
X65973273Y-38753412D01*
X65614658Y-38400666D01*
X65230438Y-38400666D01*
X64856885Y-38026343D01*
X64739429Y-37907514D01*
X64637119Y-37801847D01*
X64556182Y-37715952D01*
X64502846Y-37656440D01*
X64483336Y-37629919D01*
X64483333Y-37629821D01*
X64508166Y-37618446D01*
X64570253Y-37616906D01*
X64596095Y-37618898D01*
X64644274Y-37627293D01*
X64691074Y-37646363D01*
X64744793Y-37682424D01*
X64813729Y-37741792D01*
X64906180Y-37830783D01*
X65005816Y-37930753D01*
X65302775Y-38231333D01*
X65496237Y-38231333D01*
X65599811Y-38232858D01*
X65666880Y-38242636D01*
X65717380Y-38268467D01*
X65771251Y-38318153D01*
X65802756Y-38351277D01*
X65872983Y-38424078D01*
X65968371Y-38520698D01*
X66073568Y-38625656D01*
X66130166Y-38681447D01*
X66344520Y-38891673D01*
X66410579Y-38829614D01*
X66459923Y-38793822D01*
X66522863Y-38774775D01*
X66617637Y-38767918D01*
X66659147Y-38767555D01*
X66841657Y-38767555D01*
X67215710Y-38386555D01*
X67333912Y-38267304D01*
X67439132Y-38163322D01*
X67524856Y-38080868D01*
X67584574Y-38026202D01*
X67611773Y-38005583D01*
X67612073Y-38005555D01*
X67644716Y-38024244D01*
X67694712Y-38069866D01*
X67700666Y-38076111D01*
X67753308Y-38124004D01*
X67793027Y-38146435D01*
X67795561Y-38146666D01*
X67824884Y-38127514D01*
X67885036Y-38075074D01*
X67967856Y-37996865D01*
X68065178Y-37900409D01*
X68087753Y-37877458D01*
X68195289Y-37768507D01*
X68272746Y-37693995D01*
X68329140Y-37647643D01*
X68373484Y-37623176D01*
X68414794Y-37614316D01*
X68462084Y-37614786D01*
G36*
X67923696Y-37612717D02*
G01*
X68020307Y-37617238D01*
X68080949Y-37625152D01*
X68095778Y-37632764D01*
X68076270Y-37662329D01*
X68026564Y-37715639D01*
X67959887Y-37780377D01*
X67889464Y-37844228D01*
X67828521Y-37894877D01*
X67790284Y-37920006D01*
X67786360Y-37920888D01*
X67755775Y-37902278D01*
X67706844Y-37856821D01*
X67700666Y-37850333D01*
X67651116Y-37802741D01*
X67618005Y-37780083D01*
X67616005Y-37779777D01*
X67591145Y-37798555D01*
X67532213Y-37851012D01*
X67445464Y-37931338D01*
X67337151Y-38033718D01*
X67213531Y-38152341D01*
X67176424Y-38188259D01*
X66755222Y-38596740D01*
X66514776Y-38597481D01*
X66274329Y-38598222D01*
X65740337Y-38062000D01*
X65360263Y-38062000D01*
X65147576Y-37848621D01*
X65060668Y-37760359D01*
X64990913Y-37687480D01*
X64946556Y-37638726D01*
X64934889Y-37623046D01*
X64959894Y-37616348D01*
X65022269Y-37614561D01*
X65046282Y-37615215D01*
X65115876Y-37624729D01*
X65177110Y-37653637D01*
X65247263Y-37711841D01*
X65292166Y-37756123D01*
X65365417Y-37828318D01*
X65420255Y-37869148D01*
X65477785Y-37887552D01*
X65559109Y-37892471D01*
X65614497Y-37892666D01*
X65802338Y-37892666D01*
X66082400Y-38174888D01*
X66362461Y-38457111D01*
X66671261Y-38457111D01*
X67090575Y-38037097D01*
X67509888Y-37617083D01*
X67802833Y-37612404D01*
X67923696Y-37612717D01*
G37*
X67923696Y-37612717D02*
X68020307Y-37617238D01*
X68080949Y-37625152D01*
X68095778Y-37632764D01*
X68076270Y-37662329D01*
X68026564Y-37715639D01*
X67959887Y-37780377D01*
X67889464Y-37844228D01*
X67828521Y-37894877D01*
X67790284Y-37920006D01*
X67786360Y-37920888D01*
X67755775Y-37902278D01*
X67706844Y-37856821D01*
X67700666Y-37850333D01*
X67651116Y-37802741D01*
X67618005Y-37780083D01*
X67616005Y-37779777D01*
X67591145Y-37798555D01*
X67532213Y-37851012D01*
X67445464Y-37931338D01*
X67337151Y-38033718D01*
X67213531Y-38152341D01*
X67176424Y-38188259D01*
X66755222Y-38596740D01*
X66514776Y-38597481D01*
X66274329Y-38598222D01*
X65740337Y-38062000D01*
X65360263Y-38062000D01*
X65147576Y-37848621D01*
X65060668Y-37760359D01*
X64990913Y-37687480D01*
X64946556Y-37638726D01*
X64934889Y-37623046D01*
X64959894Y-37616348D01*
X65022269Y-37614561D01*
X65046282Y-37615215D01*
X65115876Y-37624729D01*
X65177110Y-37653637D01*
X65247263Y-37711841D01*
X65292166Y-37756123D01*
X65365417Y-37828318D01*
X65420255Y-37869148D01*
X65477785Y-37887552D01*
X65559109Y-37892471D01*
X65614497Y-37892666D01*
X65802338Y-37892666D01*
X66082400Y-38174888D01*
X66362461Y-38457111D01*
X66671261Y-38457111D01*
X67090575Y-38037097D01*
X67509888Y-37617083D01*
X67802833Y-37612404D01*
X67923696Y-37612717D01*
G36*
X66245722Y-37864444D02*
G01*
X66345179Y-37959967D01*
X66431460Y-38039086D01*
X66496081Y-38094286D01*
X66530558Y-38118053D01*
X66532501Y-38118444D01*
X66561707Y-38099253D01*
X66621307Y-38046873D01*
X66702880Y-37969096D01*
X66798006Y-37873714D01*
X66807030Y-37864444D01*
X66913213Y-37756896D01*
X66990442Y-37684416D01*
X67047759Y-37640336D01*
X67094208Y-37617985D01*
X67138833Y-37610695D01*
X67151449Y-37610444D01*
X67216315Y-37615938D01*
X67248379Y-37629426D01*
X67249111Y-37632071D01*
X67230105Y-37658370D01*
X67177612Y-37716992D01*
X67098416Y-37800710D01*
X66999300Y-37902297D01*
X66931169Y-37970738D01*
X66792974Y-38107636D01*
X66685586Y-38205761D01*
X66599195Y-38265532D01*
X66523989Y-38287368D01*
X66450156Y-38271688D01*
X66367887Y-38218910D01*
X66267368Y-38129455D01*
X66139610Y-38004551D01*
X65852111Y-37721325D01*
X65676872Y-37726739D01*
X65544963Y-37720849D01*
X65456701Y-37694830D01*
X65416632Y-37650270D01*
X65414666Y-37635211D01*
X65440906Y-37624878D01*
X65511714Y-37616659D01*
X65615225Y-37611580D01*
X65700690Y-37610444D01*
X65986714Y-37610444D01*
X66245722Y-37864444D01*
G37*
X66245722Y-37864444D02*
X66345179Y-37959967D01*
X66431460Y-38039086D01*
X66496081Y-38094286D01*
X66530558Y-38118053D01*
X66532501Y-38118444D01*
X66561707Y-38099253D01*
X66621307Y-38046873D01*
X66702880Y-37969096D01*
X66798006Y-37873714D01*
X66807030Y-37864444D01*
X66913213Y-37756896D01*
X66990442Y-37684416D01*
X67047759Y-37640336D01*
X67094208Y-37617985D01*
X67138833Y-37610695D01*
X67151449Y-37610444D01*
X67216315Y-37615938D01*
X67248379Y-37629426D01*
X67249111Y-37632071D01*
X67230105Y-37658370D01*
X67177612Y-37716992D01*
X67098416Y-37800710D01*
X66999300Y-37902297D01*
X66931169Y-37970738D01*
X66792974Y-38107636D01*
X66685586Y-38205761D01*
X66599195Y-38265532D01*
X66523989Y-38287368D01*
X66450156Y-38271688D01*
X66367887Y-38218910D01*
X66267368Y-38129455D01*
X66139610Y-38004551D01*
X65852111Y-37721325D01*
X65676872Y-37726739D01*
X65544963Y-37720849D01*
X65456701Y-37694830D01*
X65416632Y-37650270D01*
X65414666Y-37635211D01*
X65440906Y-37624878D01*
X65511714Y-37616659D01*
X65615225Y-37611580D01*
X65700690Y-37610444D01*
X65986714Y-37610444D01*
X66245722Y-37864444D01*
G36*
X66511157Y-37614946D02*
G01*
X66630580Y-37616062D01*
X66725600Y-37618579D01*
X66784355Y-37622085D01*
X66797555Y-37624913D01*
X66779789Y-37648564D01*
X66733073Y-37701924D01*
X66667286Y-37773730D01*
X66663135Y-37778179D01*
X66528714Y-37922102D01*
X66376736Y-37768212D01*
X66224758Y-37614323D01*
X66511157Y-37614946D01*
G37*
X66511157Y-37614946D02*
X66630580Y-37616062D01*
X66725600Y-37618579D01*
X66784355Y-37622085D01*
X66797555Y-37624913D01*
X66779789Y-37648564D01*
X66733073Y-37701924D01*
X66667286Y-37773730D01*
X66663135Y-37778179D01*
X66528714Y-37922102D01*
X66376736Y-37768212D01*
X66224758Y-37614323D01*
X66511157Y-37614946D01*
G36*
X66566613Y-34955839D02*
G01*
X66795948Y-35183333D01*
X67172365Y-35183333D01*
X67380626Y-35395000D01*
X67468548Y-35482289D01*
X67542716Y-35552076D01*
X67593907Y-35595909D01*
X67611635Y-35606666D01*
X67644589Y-35587965D01*
X67694746Y-35542319D01*
X67700666Y-35536111D01*
X67751925Y-35488351D01*
X67788688Y-35465818D01*
X67791015Y-35465555D01*
X67816631Y-35484682D01*
X67876662Y-35538619D01*
X67965674Y-35622199D01*
X68078234Y-35730256D01*
X68208908Y-35857622D01*
X68352263Y-35999132D01*
X68354926Y-36001777D01*
X68517066Y-36162404D01*
X68644772Y-36287407D01*
X68743374Y-36381223D01*
X68818201Y-36448287D01*
X68874584Y-36493037D01*
X68917852Y-36519907D01*
X68953335Y-36533336D01*
X68986363Y-36537758D01*
X68999154Y-36538000D01*
X69111388Y-36559651D01*
X69191844Y-36616731D01*
X69239635Y-36697426D01*
X69253876Y-36789923D01*
X69233678Y-36882411D01*
X69178156Y-36963075D01*
X69086424Y-37020104D01*
X69036400Y-37034264D01*
X68969806Y-37037587D01*
X68909244Y-37010892D01*
X68855245Y-36967291D01*
X68793570Y-36902651D01*
X68767936Y-36840735D01*
X68765991Y-36790168D01*
X68944920Y-36790168D01*
X68958821Y-36837977D01*
X68972386Y-36849507D01*
X69030680Y-36861118D01*
X69071209Y-36829160D01*
X69077992Y-36781352D01*
X69048901Y-36730879D01*
X69013386Y-36721444D01*
X68965819Y-36742858D01*
X68944920Y-36790168D01*
X68765991Y-36790168D01*
X68765291Y-36771984D01*
X68765292Y-36735995D01*
X68759088Y-36702191D01*
X68742037Y-36664825D01*
X68709498Y-36618151D01*
X68656827Y-36556422D01*
X68579382Y-36473892D01*
X68472521Y-36364815D01*
X68331601Y-36223443D01*
X68282560Y-36174444D01*
X67795403Y-35687884D01*
X67705136Y-35780211D01*
X67614870Y-35872537D01*
X67353849Y-35612602D01*
X67092828Y-35352666D01*
X66720456Y-35352666D01*
X66532675Y-35163030D01*
X66344893Y-34973394D01*
X65872422Y-35445252D01*
X65399950Y-35917111D01*
X65007931Y-35917111D01*
X64357577Y-36566054D01*
X63707222Y-37214998D01*
X66505258Y-37215165D01*
X66969100Y-37215118D01*
X67379681Y-37214884D01*
X67740187Y-37214416D01*
X68053802Y-37213667D01*
X68323710Y-37212588D01*
X68553095Y-37211132D01*
X68745143Y-37209251D01*
X68903036Y-37206897D01*
X69029960Y-37204023D01*
X69129099Y-37200581D01*
X69203637Y-37196522D01*
X69256758Y-37191800D01*
X69291648Y-37186367D01*
X69311490Y-37180174D01*
X69319468Y-37173174D01*
X69319555Y-37172958D01*
X69354303Y-37133594D01*
X69418894Y-37091298D01*
X69432423Y-37084514D01*
X69498246Y-37057296D01*
X69548721Y-37055393D01*
X69612144Y-37079790D01*
X69636366Y-37091611D01*
X69732579Y-37165037D01*
X69780203Y-37259558D01*
X69777459Y-37364726D01*
X69722566Y-37470092D01*
X69704437Y-37491061D01*
X69618622Y-37546088D01*
X69517852Y-37553174D01*
X69415558Y-37513167D01*
X69361564Y-37469461D01*
X69277026Y-37384923D01*
X66299750Y-37377739D01*
X63322475Y-37370555D01*
X63376832Y-37315864D01*
X69452873Y-37315864D01*
X69475500Y-37360293D01*
X69527297Y-37380484D01*
X69542040Y-37379590D01*
X69595238Y-37351585D01*
X69605666Y-37314497D01*
X69583237Y-37266074D01*
X69532572Y-37245405D01*
X69478608Y-37261302D01*
X69471921Y-37267234D01*
X69452873Y-37315864D01*
X63376832Y-37315864D01*
X64144428Y-36543560D01*
X64966382Y-35716566D01*
X65141135Y-35728944D01*
X65315889Y-35741322D01*
X65826583Y-35234833D01*
X66337277Y-34728345D01*
X66566613Y-34955839D01*
G37*
X66566613Y-34955839D02*
X66795948Y-35183333D01*
X67172365Y-35183333D01*
X67380626Y-35395000D01*
X67468548Y-35482289D01*
X67542716Y-35552076D01*
X67593907Y-35595909D01*
X67611635Y-35606666D01*
X67644589Y-35587965D01*
X67694746Y-35542319D01*
X67700666Y-35536111D01*
X67751925Y-35488351D01*
X67788688Y-35465818D01*
X67791015Y-35465555D01*
X67816631Y-35484682D01*
X67876662Y-35538619D01*
X67965674Y-35622199D01*
X68078234Y-35730256D01*
X68208908Y-35857622D01*
X68352263Y-35999132D01*
X68354926Y-36001777D01*
X68517066Y-36162404D01*
X68644772Y-36287407D01*
X68743374Y-36381223D01*
X68818201Y-36448287D01*
X68874584Y-36493037D01*
X68917852Y-36519907D01*
X68953335Y-36533336D01*
X68986363Y-36537758D01*
X68999154Y-36538000D01*
X69111388Y-36559651D01*
X69191844Y-36616731D01*
X69239635Y-36697426D01*
X69253876Y-36789923D01*
X69233678Y-36882411D01*
X69178156Y-36963075D01*
X69086424Y-37020104D01*
X69036400Y-37034264D01*
X68969806Y-37037587D01*
X68909244Y-37010892D01*
X68855245Y-36967291D01*
X68793570Y-36902651D01*
X68767936Y-36840735D01*
X68765991Y-36790168D01*
X68944920Y-36790168D01*
X68958821Y-36837977D01*
X68972386Y-36849507D01*
X69030680Y-36861118D01*
X69071209Y-36829160D01*
X69077992Y-36781352D01*
X69048901Y-36730879D01*
X69013386Y-36721444D01*
X68965819Y-36742858D01*
X68944920Y-36790168D01*
X68765991Y-36790168D01*
X68765291Y-36771984D01*
X68765292Y-36735995D01*
X68759088Y-36702191D01*
X68742037Y-36664825D01*
X68709498Y-36618151D01*
X68656827Y-36556422D01*
X68579382Y-36473892D01*
X68472521Y-36364815D01*
X68331601Y-36223443D01*
X68282560Y-36174444D01*
X67795403Y-35687884D01*
X67705136Y-35780211D01*
X67614870Y-35872537D01*
X67353849Y-35612602D01*
X67092828Y-35352666D01*
X66720456Y-35352666D01*
X66532675Y-35163030D01*
X66344893Y-34973394D01*
X65872422Y-35445252D01*
X65399950Y-35917111D01*
X65007931Y-35917111D01*
X64357577Y-36566054D01*
X63707222Y-37214998D01*
X66505258Y-37215165D01*
X66969100Y-37215118D01*
X67379681Y-37214884D01*
X67740187Y-37214416D01*
X68053802Y-37213667D01*
X68323710Y-37212588D01*
X68553095Y-37211132D01*
X68745143Y-37209251D01*
X68903036Y-37206897D01*
X69029960Y-37204023D01*
X69129099Y-37200581D01*
X69203637Y-37196522D01*
X69256758Y-37191800D01*
X69291648Y-37186367D01*
X69311490Y-37180174D01*
X69319468Y-37173174D01*
X69319555Y-37172958D01*
X69354303Y-37133594D01*
X69418894Y-37091298D01*
X69432423Y-37084514D01*
X69498246Y-37057296D01*
X69548721Y-37055393D01*
X69612144Y-37079790D01*
X69636366Y-37091611D01*
X69732579Y-37165037D01*
X69780203Y-37259558D01*
X69777459Y-37364726D01*
X69722566Y-37470092D01*
X69704437Y-37491061D01*
X69618622Y-37546088D01*
X69517852Y-37553174D01*
X69415558Y-37513167D01*
X69361564Y-37469461D01*
X69277026Y-37384923D01*
X66299750Y-37377739D01*
X63322475Y-37370555D01*
X63376832Y-37315864D01*
X69452873Y-37315864D01*
X69475500Y-37360293D01*
X69527297Y-37380484D01*
X69542040Y-37379590D01*
X69595238Y-37351585D01*
X69605666Y-37314497D01*
X69583237Y-37266074D01*
X69532572Y-37245405D01*
X69478608Y-37261302D01*
X69471921Y-37267234D01*
X69452873Y-37315864D01*
X63376832Y-37315864D01*
X64144428Y-36543560D01*
X64966382Y-35716566D01*
X65141135Y-35728944D01*
X65315889Y-35741322D01*
X65826583Y-35234833D01*
X66337277Y-34728345D01*
X66566613Y-34955839D01*
G36*
X66442877Y-36105784D02*
G01*
X66519512Y-36162280D01*
X66569601Y-36243864D01*
X66582748Y-36343286D01*
X66556613Y-36437455D01*
X66489199Y-36522822D01*
X66396377Y-36569141D01*
X66294088Y-36574022D01*
X66198274Y-36535076D01*
X66156853Y-36497355D01*
X66132018Y-36470250D01*
X66105391Y-36450946D01*
X66067638Y-36438120D01*
X66009426Y-36430447D01*
X65921418Y-36426604D01*
X65794281Y-36425267D01*
X65647526Y-36425111D01*
X65200344Y-36425111D01*
X65090157Y-36537952D01*
X65025072Y-36610648D01*
X64993289Y-36669343D01*
X64984838Y-36736278D01*
X64985779Y-36770785D01*
X64975291Y-36886515D01*
X64926616Y-36965828D01*
X64839029Y-37016668D01*
X64773180Y-37038803D01*
X64728504Y-37040520D01*
X64680889Y-37026068D01*
X64588969Y-36968864D01*
X64533506Y-36886540D01*
X64512963Y-36791667D01*
X64513165Y-36790168D01*
X64683364Y-36790168D01*
X64697265Y-36837977D01*
X64710830Y-36849507D01*
X64769125Y-36861118D01*
X64809653Y-36829160D01*
X64816436Y-36781352D01*
X64787346Y-36730879D01*
X64751831Y-36721444D01*
X64704263Y-36742858D01*
X64683364Y-36790168D01*
X64513165Y-36790168D01*
X64525804Y-36696817D01*
X64570490Y-36614565D01*
X64645486Y-36557481D01*
X64740554Y-36538000D01*
X64800231Y-36528357D01*
X64864286Y-36494207D01*
X64945597Y-36427715D01*
X64990258Y-36386100D01*
X65053286Y-36325981D01*
X66265647Y-36325981D01*
X66272858Y-36357992D01*
X66306817Y-36390838D01*
X66352699Y-36384517D01*
X66389406Y-36345641D01*
X66397351Y-36318989D01*
X66391781Y-36269261D01*
X66349628Y-36255777D01*
X66286335Y-36275042D01*
X66265647Y-36325981D01*
X65053286Y-36325981D01*
X65149508Y-36234201D01*
X65617157Y-36233192D01*
X65789571Y-36232583D01*
X65914808Y-36230769D01*
X66002134Y-36226486D01*
X66060817Y-36218465D01*
X66100123Y-36205441D01*
X66129319Y-36186147D01*
X66157674Y-36159316D01*
X66157676Y-36159313D01*
X66251561Y-36097051D01*
X66350094Y-36081625D01*
X66442877Y-36105784D01*
G37*
X66442877Y-36105784D02*
X66519512Y-36162280D01*
X66569601Y-36243864D01*
X66582748Y-36343286D01*
X66556613Y-36437455D01*
X66489199Y-36522822D01*
X66396377Y-36569141D01*
X66294088Y-36574022D01*
X66198274Y-36535076D01*
X66156853Y-36497355D01*
X66132018Y-36470250D01*
X66105391Y-36450946D01*
X66067638Y-36438120D01*
X66009426Y-36430447D01*
X65921418Y-36426604D01*
X65794281Y-36425267D01*
X65647526Y-36425111D01*
X65200344Y-36425111D01*
X65090157Y-36537952D01*
X65025072Y-36610648D01*
X64993289Y-36669343D01*
X64984838Y-36736278D01*
X64985779Y-36770785D01*
X64975291Y-36886515D01*
X64926616Y-36965828D01*
X64839029Y-37016668D01*
X64773180Y-37038803D01*
X64728504Y-37040520D01*
X64680889Y-37026068D01*
X64588969Y-36968864D01*
X64533506Y-36886540D01*
X64512963Y-36791667D01*
X64513165Y-36790168D01*
X64683364Y-36790168D01*
X64697265Y-36837977D01*
X64710830Y-36849507D01*
X64769125Y-36861118D01*
X64809653Y-36829160D01*
X64816436Y-36781352D01*
X64787346Y-36730879D01*
X64751831Y-36721444D01*
X64704263Y-36742858D01*
X64683364Y-36790168D01*
X64513165Y-36790168D01*
X64525804Y-36696817D01*
X64570490Y-36614565D01*
X64645486Y-36557481D01*
X64740554Y-36538000D01*
X64800231Y-36528357D01*
X64864286Y-36494207D01*
X64945597Y-36427715D01*
X64990258Y-36386100D01*
X65053286Y-36325981D01*
X66265647Y-36325981D01*
X66272858Y-36357992D01*
X66306817Y-36390838D01*
X66352699Y-36384517D01*
X66389406Y-36345641D01*
X66397351Y-36318989D01*
X66391781Y-36269261D01*
X66349628Y-36255777D01*
X66286335Y-36275042D01*
X66265647Y-36325981D01*
X65053286Y-36325981D01*
X65149508Y-36234201D01*
X65617157Y-36233192D01*
X65789571Y-36232583D01*
X65914808Y-36230769D01*
X66002134Y-36226486D01*
X66060817Y-36218465D01*
X66100123Y-36205441D01*
X66129319Y-36186147D01*
X66157674Y-36159316D01*
X66157676Y-36159313D01*
X66251561Y-36097051D01*
X66350094Y-36081625D01*
X66442877Y-36105784D01*
G36*
X65626039Y-36582984D02*
G01*
X65673008Y-36622666D01*
X65757675Y-36707333D01*
X66962547Y-36707333D01*
X67047213Y-36622666D01*
X67142088Y-36557956D01*
X67239147Y-36540321D01*
X67329719Y-36561830D01*
X67405132Y-36614552D01*
X67456717Y-36690554D01*
X67475800Y-36781905D01*
X67453711Y-36880673D01*
X67407328Y-36952062D01*
X67320534Y-37015513D01*
X67217936Y-37036161D01*
X67117319Y-37013930D01*
X67040253Y-36953636D01*
X66978879Y-36876666D01*
X66351995Y-36876666D01*
X66125383Y-36877939D01*
X65947441Y-36881697D01*
X65820175Y-36887849D01*
X65745590Y-36896302D01*
X65725111Y-36905303D01*
X65702214Y-36938607D01*
X65646766Y-36980646D01*
X65578628Y-37019212D01*
X65517662Y-37042094D01*
X65499333Y-37044105D01*
X65439398Y-37032457D01*
X65396519Y-37018015D01*
X65309213Y-36955889D01*
X65259122Y-36864841D01*
X65251063Y-36779743D01*
X65422075Y-36779743D01*
X65443187Y-36834692D01*
X65476214Y-36869754D01*
X65502545Y-36866816D01*
X65540625Y-36831343D01*
X65569584Y-36786399D01*
X67167164Y-36786399D01*
X67174650Y-36834333D01*
X67207704Y-36873404D01*
X67253586Y-36858556D01*
X67277035Y-36834692D01*
X67298470Y-36778317D01*
X67281502Y-36728293D01*
X67235000Y-36707333D01*
X67187772Y-36730728D01*
X67167164Y-36786399D01*
X65569584Y-36786399D01*
X65569674Y-36786260D01*
X65553296Y-36746676D01*
X65504791Y-36712494D01*
X65480881Y-36707333D01*
X65436865Y-36729350D01*
X65422075Y-36779743D01*
X65251063Y-36779743D01*
X65249274Y-36760861D01*
X65282696Y-36659938D01*
X65319737Y-36612404D01*
X65417015Y-36548656D01*
X65521804Y-36538927D01*
X65626039Y-36582984D01*
G37*
X65626039Y-36582984D02*
X65673008Y-36622666D01*
X65757675Y-36707333D01*
X66962547Y-36707333D01*
X67047213Y-36622666D01*
X67142088Y-36557956D01*
X67239147Y-36540321D01*
X67329719Y-36561830D01*
X67405132Y-36614552D01*
X67456717Y-36690554D01*
X67475800Y-36781905D01*
X67453711Y-36880673D01*
X67407328Y-36952062D01*
X67320534Y-37015513D01*
X67217936Y-37036161D01*
X67117319Y-37013930D01*
X67040253Y-36953636D01*
X66978879Y-36876666D01*
X66351995Y-36876666D01*
X66125383Y-36877939D01*
X65947441Y-36881697D01*
X65820175Y-36887849D01*
X65745590Y-36896302D01*
X65725111Y-36905303D01*
X65702214Y-36938607D01*
X65646766Y-36980646D01*
X65578628Y-37019212D01*
X65517662Y-37042094D01*
X65499333Y-37044105D01*
X65439398Y-37032457D01*
X65396519Y-37018015D01*
X65309213Y-36955889D01*
X65259122Y-36864841D01*
X65251063Y-36779743D01*
X65422075Y-36779743D01*
X65443187Y-36834692D01*
X65476214Y-36869754D01*
X65502545Y-36866816D01*
X65540625Y-36831343D01*
X65569584Y-36786399D01*
X67167164Y-36786399D01*
X67174650Y-36834333D01*
X67207704Y-36873404D01*
X67253586Y-36858556D01*
X67277035Y-36834692D01*
X67298470Y-36778317D01*
X67281502Y-36728293D01*
X67235000Y-36707333D01*
X67187772Y-36730728D01*
X67167164Y-36786399D01*
X65569584Y-36786399D01*
X65569674Y-36786260D01*
X65553296Y-36746676D01*
X65504791Y-36712494D01*
X65480881Y-36707333D01*
X65436865Y-36729350D01*
X65422075Y-36779743D01*
X65251063Y-36779743D01*
X65249274Y-36760861D01*
X65282696Y-36659938D01*
X65319737Y-36612404D01*
X65417015Y-36548656D01*
X65521804Y-36538927D01*
X65626039Y-36582984D01*
G36*
X66415450Y-35352425D02*
G01*
X66423594Y-35354989D01*
X66509859Y-35409552D01*
X66567700Y-35496338D01*
X66586105Y-35595839D01*
X66580472Y-35632912D01*
X66580190Y-35668929D01*
X66601212Y-35713881D01*
X66649437Y-35775997D01*
X66730762Y-35863509D01*
X66785900Y-35919581D01*
X67007898Y-36142888D01*
X67870000Y-36142888D01*
X67870000Y-36425111D01*
X67870475Y-36553191D01*
X67873564Y-36635131D01*
X67881765Y-36681235D01*
X67897574Y-36701806D01*
X67923488Y-36707151D01*
X67938384Y-36707333D01*
X68002787Y-36687440D01*
X68075749Y-36637369D01*
X68091436Y-36622666D01*
X68184811Y-36559284D01*
X68281240Y-36541839D01*
X68371983Y-36562579D01*
X68448297Y-36613752D01*
X68501443Y-36687604D01*
X68522681Y-36776383D01*
X68503269Y-36872337D01*
X68455611Y-36945678D01*
X68360853Y-37016382D01*
X68252943Y-37033802D01*
X68140494Y-36996734D01*
X68131055Y-36991065D01*
X68071818Y-36947355D01*
X68040708Y-36911099D01*
X68039333Y-36905303D01*
X68013513Y-36889763D01*
X67945522Y-36879481D01*
X67871022Y-36876666D01*
X67702710Y-36876666D01*
X67700354Y-36796370D01*
X68212425Y-36796370D01*
X68232306Y-36844364D01*
X68241167Y-36851097D01*
X68288939Y-36854604D01*
X68329188Y-36821146D01*
X68343935Y-36769229D01*
X68339611Y-36749769D01*
X68301029Y-36714634D01*
X68272576Y-36712627D01*
X68227871Y-36743540D01*
X68212425Y-36796370D01*
X67700354Y-36796370D01*
X67694633Y-36601500D01*
X67686555Y-36326333D01*
X67312190Y-36318455D01*
X66937825Y-36310578D01*
X66693866Y-36071511D01*
X66588176Y-35969469D01*
X66511858Y-35901274D01*
X66455009Y-35860230D01*
X66407726Y-35839644D01*
X66360107Y-35832821D01*
X66340226Y-35832444D01*
X66229477Y-35810358D01*
X66149775Y-35752140D01*
X66102780Y-35669850D01*
X66092383Y-35592203D01*
X66265647Y-35592203D01*
X66272858Y-35624215D01*
X66306817Y-35657060D01*
X66352699Y-35650739D01*
X66389406Y-35611863D01*
X66397351Y-35585211D01*
X66391781Y-35535483D01*
X66349628Y-35522000D01*
X66286335Y-35541264D01*
X66265647Y-35592203D01*
X66092383Y-35592203D01*
X66090152Y-35575546D01*
X66113552Y-35481290D01*
X66174641Y-35399140D01*
X66272696Y-35341993D01*
X66335081Y-35337611D01*
X66415450Y-35352425D01*
G37*
X66415450Y-35352425D02*
X66423594Y-35354989D01*
X66509859Y-35409552D01*
X66567700Y-35496338D01*
X66586105Y-35595839D01*
X66580472Y-35632912D01*
X66580190Y-35668929D01*
X66601212Y-35713881D01*
X66649437Y-35775997D01*
X66730762Y-35863509D01*
X66785900Y-35919581D01*
X67007898Y-36142888D01*
X67870000Y-36142888D01*
X67870000Y-36425111D01*
X67870475Y-36553191D01*
X67873564Y-36635131D01*
X67881765Y-36681235D01*
X67897574Y-36701806D01*
X67923488Y-36707151D01*
X67938384Y-36707333D01*
X68002787Y-36687440D01*
X68075749Y-36637369D01*
X68091436Y-36622666D01*
X68184811Y-36559284D01*
X68281240Y-36541839D01*
X68371983Y-36562579D01*
X68448297Y-36613752D01*
X68501443Y-36687604D01*
X68522681Y-36776383D01*
X68503269Y-36872337D01*
X68455611Y-36945678D01*
X68360853Y-37016382D01*
X68252943Y-37033802D01*
X68140494Y-36996734D01*
X68131055Y-36991065D01*
X68071818Y-36947355D01*
X68040708Y-36911099D01*
X68039333Y-36905303D01*
X68013513Y-36889763D01*
X67945522Y-36879481D01*
X67871022Y-36876666D01*
X67702710Y-36876666D01*
X67700354Y-36796370D01*
X68212425Y-36796370D01*
X68232306Y-36844364D01*
X68241167Y-36851097D01*
X68288939Y-36854604D01*
X68329188Y-36821146D01*
X68343935Y-36769229D01*
X68339611Y-36749769D01*
X68301029Y-36714634D01*
X68272576Y-36712627D01*
X68227871Y-36743540D01*
X68212425Y-36796370D01*
X67700354Y-36796370D01*
X67694633Y-36601500D01*
X67686555Y-36326333D01*
X67312190Y-36318455D01*
X66937825Y-36310578D01*
X66693866Y-36071511D01*
X66588176Y-35969469D01*
X66511858Y-35901274D01*
X66455009Y-35860230D01*
X66407726Y-35839644D01*
X66360107Y-35832821D01*
X66340226Y-35832444D01*
X66229477Y-35810358D01*
X66149775Y-35752140D01*
X66102780Y-35669850D01*
X66092383Y-35592203D01*
X66265647Y-35592203D01*
X66272858Y-35624215D01*
X66306817Y-35657060D01*
X66352699Y-35650739D01*
X66389406Y-35611863D01*
X66397351Y-35585211D01*
X66391781Y-35535483D01*
X66349628Y-35522000D01*
X66286335Y-35541264D01*
X66265647Y-35592203D01*
X66092383Y-35592203D01*
X66090152Y-35575546D01*
X66113552Y-35481290D01*
X66174641Y-35399140D01*
X66272696Y-35341993D01*
X66335081Y-35337611D01*
X66415450Y-35352425D01*
G36*
X67843465Y-34459854D02*
G01*
X67943807Y-34519657D01*
X67956837Y-34532051D01*
X68024798Y-34631727D01*
X68042992Y-34734719D01*
X68015222Y-34829302D01*
X67945289Y-34903754D01*
X67836996Y-34946351D01*
X67821685Y-34948755D01*
X67739700Y-34953802D01*
X67681987Y-34934458D01*
X67619535Y-34880762D01*
X67617362Y-34878593D01*
X67550685Y-34790882D01*
X67537012Y-34713692D01*
X67716467Y-34713692D01*
X67736738Y-34756560D01*
X67792611Y-34786573D01*
X67839304Y-34767085D01*
X67852961Y-34743342D01*
X67856888Y-34681435D01*
X67814090Y-34649841D01*
X67786687Y-34647111D01*
X67734283Y-34667553D01*
X67716467Y-34713692D01*
X67537012Y-34713692D01*
X67535201Y-34703471D01*
X67568566Y-34600770D01*
X67573959Y-34590101D01*
X67647977Y-34496677D01*
X67741334Y-34452727D01*
X67843465Y-34459854D01*
G37*
X67843465Y-34459854D02*
X67943807Y-34519657D01*
X67956837Y-34532051D01*
X68024798Y-34631727D01*
X68042992Y-34734719D01*
X68015222Y-34829302D01*
X67945289Y-34903754D01*
X67836996Y-34946351D01*
X67821685Y-34948755D01*
X67739700Y-34953802D01*
X67681987Y-34934458D01*
X67619535Y-34880762D01*
X67617362Y-34878593D01*
X67550685Y-34790882D01*
X67537012Y-34713692D01*
X67716467Y-34713692D01*
X67736738Y-34756560D01*
X67792611Y-34786573D01*
X67839304Y-34767085D01*
X67852961Y-34743342D01*
X67856888Y-34681435D01*
X67814090Y-34649841D01*
X67786687Y-34647111D01*
X67734283Y-34667553D01*
X67716467Y-34713692D01*
X67537012Y-34713692D01*
X67535201Y-34703471D01*
X67568566Y-34600770D01*
X67573959Y-34590101D01*
X67647977Y-34496677D01*
X67741334Y-34452727D01*
X67843465Y-34459854D01*
D11*
G36*
X54881606Y-63308562D02*
G01*
X55400455Y-63523476D01*
X55759761Y-63763557D01*
X55867406Y-63835483D01*
X56264517Y-64232594D01*
X56326579Y-64325476D01*
X56576524Y-64699545D01*
X56791438Y-65218394D01*
X56839101Y-65458012D01*
X56877993Y-65653534D01*
X56901000Y-65769201D01*
X56901000Y-66330799D01*
X56791438Y-66881606D01*
X56576524Y-67400455D01*
X56481896Y-67542075D01*
X56292814Y-67825057D01*
X56264516Y-67867407D01*
X55867407Y-68264516D01*
X55400455Y-68576524D01*
X54881606Y-68791438D01*
X54657577Y-68836000D01*
X54330800Y-68901000D01*
X53769200Y-68901000D01*
X53442423Y-68836000D01*
X53218394Y-68791438D01*
X52699545Y-68576524D01*
X52232593Y-68264516D01*
X51835484Y-67867407D01*
X51807187Y-67825057D01*
X51618104Y-67542075D01*
X51523476Y-67400455D01*
X51308562Y-66881606D01*
X51199000Y-66330799D01*
X51199000Y-65769201D01*
X51222008Y-65653534D01*
X51260899Y-65458012D01*
X51308562Y-65218394D01*
X51523476Y-64699545D01*
X51773421Y-64325476D01*
X51835483Y-64232594D01*
X52232594Y-63835483D01*
X52340239Y-63763557D01*
X52699545Y-63523476D01*
X53218394Y-63308562D01*
X53769200Y-63199000D01*
X54330800Y-63199000D01*
X54881606Y-63308562D01*
G37*
G36*
X67110098Y-67490362D02*
G01*
X67234941Y-67542074D01*
X67234943Y-67542075D01*
X67347299Y-67617149D01*
X67442851Y-67712701D01*
X67517926Y-67825059D01*
X67569638Y-67949902D01*
X67596000Y-68082434D01*
X67596000Y-68217566D01*
X67569638Y-68350098D01*
X67517926Y-68474941D01*
X67517925Y-68474943D01*
X67442851Y-68587299D01*
X67347299Y-68682851D01*
X67234943Y-68757925D01*
X67234942Y-68757926D01*
X67234941Y-68757926D01*
X67110098Y-68809638D01*
X66977566Y-68836000D01*
X66842434Y-68836000D01*
X66709902Y-68809638D01*
X66585059Y-68757926D01*
X66585058Y-68757926D01*
X66585057Y-68757925D01*
X66472701Y-68682851D01*
X66377149Y-68587299D01*
X66302075Y-68474943D01*
X66302074Y-68474941D01*
X66250362Y-68350098D01*
X66224000Y-68217566D01*
X66224000Y-68082434D01*
X66250362Y-67949902D01*
X66302074Y-67825059D01*
X66377149Y-67712701D01*
X66472701Y-67617149D01*
X66585057Y-67542075D01*
X66585059Y-67542074D01*
X66709902Y-67490362D01*
X66842434Y-67464000D01*
X66977566Y-67464000D01*
X67110098Y-67490362D01*
G37*
G36*
X79635442Y-65105518D02*
G01*
X79701627Y-65112037D01*
X79871466Y-65163557D01*
X80027991Y-65247222D01*
X80063729Y-65276552D01*
X80165186Y-65359814D01*
X80245774Y-65458012D01*
X80277778Y-65497009D01*
X80361443Y-65653534D01*
X80412963Y-65823373D01*
X80430359Y-66000000D01*
X80412963Y-66176627D01*
X80361443Y-66346466D01*
X80277778Y-66502991D01*
X80248448Y-66538729D01*
X80165186Y-66640186D01*
X80063729Y-66723448D01*
X80027991Y-66752778D01*
X79871466Y-66836443D01*
X79701627Y-66887963D01*
X79635443Y-66894481D01*
X79569260Y-66901000D01*
X79230740Y-66901000D01*
X79164557Y-66894481D01*
X79098373Y-66887963D01*
X78928534Y-66836443D01*
X78772009Y-66752778D01*
X78736271Y-66723448D01*
X78634814Y-66640186D01*
X78551552Y-66538729D01*
X78522222Y-66502991D01*
X78438557Y-66346466D01*
X78387037Y-66176627D01*
X78369641Y-66000000D01*
X78387037Y-65823373D01*
X78438557Y-65653534D01*
X78522222Y-65497009D01*
X78554226Y-65458012D01*
X78634814Y-65359814D01*
X78736271Y-65276552D01*
X78772009Y-65247222D01*
X78928534Y-65163557D01*
X79098373Y-65112037D01*
X79164558Y-65105518D01*
X79230740Y-65099000D01*
X79569260Y-65099000D01*
X79635442Y-65105518D01*
G37*
G36*
X72635442Y-65105518D02*
G01*
X72701627Y-65112037D01*
X72871466Y-65163557D01*
X73027991Y-65247222D01*
X73063729Y-65276552D01*
X73165186Y-65359814D01*
X73245774Y-65458012D01*
X73277778Y-65497009D01*
X73361443Y-65653534D01*
X73412963Y-65823373D01*
X73430359Y-66000000D01*
X73412963Y-66176627D01*
X73361443Y-66346466D01*
X73277778Y-66502991D01*
X73248448Y-66538729D01*
X73165186Y-66640186D01*
X73063729Y-66723448D01*
X73027991Y-66752778D01*
X72871466Y-66836443D01*
X72701627Y-66887963D01*
X72635443Y-66894481D01*
X72569260Y-66901000D01*
X72230740Y-66901000D01*
X72164557Y-66894481D01*
X72098373Y-66887963D01*
X71928534Y-66836443D01*
X71772009Y-66752778D01*
X71736271Y-66723448D01*
X71634814Y-66640186D01*
X71551552Y-66538729D01*
X71522222Y-66502991D01*
X71438557Y-66346466D01*
X71387037Y-66176627D01*
X71369641Y-66000000D01*
X71387037Y-65823373D01*
X71438557Y-65653534D01*
X71522222Y-65497009D01*
X71554226Y-65458012D01*
X71634814Y-65359814D01*
X71736271Y-65276552D01*
X71772009Y-65247222D01*
X71928534Y-65163557D01*
X72098373Y-65112037D01*
X72164558Y-65105518D01*
X72230740Y-65099000D01*
X72569260Y-65099000D01*
X72635442Y-65105518D01*
G37*
G36*
X65210442Y-63705518D02*
G01*
X65276627Y-63712037D01*
X65446466Y-63763557D01*
X65602991Y-63847222D01*
X65638729Y-63876552D01*
X65740186Y-63959814D01*
X65823448Y-64061271D01*
X65852778Y-64097009D01*
X65852779Y-64097011D01*
X65936040Y-64252779D01*
X65936443Y-64253534D01*
X65987963Y-64423373D01*
X65987963Y-64423375D01*
X66005359Y-64600000D01*
X65987963Y-64776628D01*
X65971879Y-64829648D01*
X65967098Y-64853682D01*
X65967098Y-64878186D01*
X65971876Y-64902211D01*
X65999410Y-64992977D01*
X66014875Y-65150000D01*
X65999410Y-65307023D01*
X65968875Y-65407682D01*
X65953608Y-65458013D01*
X65879229Y-65597165D01*
X65779133Y-65719133D01*
X65657165Y-65819229D01*
X65518013Y-65893608D01*
X65467682Y-65908875D01*
X65367023Y-65939410D01*
X65288571Y-65947137D01*
X65249346Y-65951000D01*
X64650654Y-65951000D01*
X64611429Y-65947137D01*
X64532977Y-65939410D01*
X64432318Y-65908875D01*
X64381987Y-65893608D01*
X64242835Y-65819229D01*
X64120867Y-65719133D01*
X64020771Y-65597165D01*
X63946392Y-65458013D01*
X63931125Y-65407682D01*
X63900590Y-65307023D01*
X63885125Y-65150000D01*
X63900590Y-64992977D01*
X63928124Y-64902211D01*
X63932902Y-64878186D01*
X63932902Y-64853682D01*
X63928121Y-64829648D01*
X63912037Y-64776628D01*
X63894641Y-64600000D01*
X63912037Y-64423375D01*
X63912037Y-64423373D01*
X63963557Y-64253534D01*
X63963961Y-64252779D01*
X64047221Y-64097011D01*
X64047222Y-64097009D01*
X64076552Y-64061271D01*
X64159814Y-63959814D01*
X64261271Y-63876552D01*
X64297009Y-63847222D01*
X64453534Y-63763557D01*
X64623373Y-63712037D01*
X64689558Y-63705518D01*
X64755740Y-63699000D01*
X65144260Y-63699000D01*
X65210442Y-63705518D01*
G37*
G36*
X79635442Y-62605518D02*
G01*
X79701627Y-62612037D01*
X79871466Y-62663557D01*
X80027991Y-62747222D01*
X80063729Y-62776552D01*
X80165186Y-62859814D01*
X80223340Y-62930676D01*
X80277778Y-62997009D01*
X80361443Y-63153534D01*
X80412963Y-63323373D01*
X80430359Y-63500000D01*
X80412963Y-63676627D01*
X80364774Y-63835484D01*
X80361442Y-63846468D01*
X80361039Y-63847222D01*
X80277778Y-64002991D01*
X80248448Y-64038729D01*
X80165186Y-64140186D01*
X80063729Y-64223448D01*
X80027991Y-64252778D01*
X79871466Y-64336443D01*
X79701627Y-64387963D01*
X79635442Y-64394482D01*
X79569260Y-64401000D01*
X79230740Y-64401000D01*
X79164558Y-64394482D01*
X79098373Y-64387963D01*
X78928534Y-64336443D01*
X78772009Y-64252778D01*
X78736271Y-64223448D01*
X78634814Y-64140186D01*
X78551552Y-64038729D01*
X78522222Y-64002991D01*
X78438961Y-63847222D01*
X78438558Y-63846468D01*
X78435226Y-63835484D01*
X78387037Y-63676627D01*
X78369641Y-63500000D01*
X78387037Y-63323373D01*
X78438557Y-63153534D01*
X78522222Y-62997009D01*
X78576660Y-62930676D01*
X78634814Y-62859814D01*
X78736271Y-62776552D01*
X78772009Y-62747222D01*
X78928534Y-62663557D01*
X79098373Y-62612037D01*
X79164558Y-62605518D01*
X79230740Y-62599000D01*
X79569260Y-62599000D01*
X79635442Y-62605518D01*
G37*
G36*
X72635442Y-62605518D02*
G01*
X72701627Y-62612037D01*
X72871466Y-62663557D01*
X73027991Y-62747222D01*
X73063729Y-62776552D01*
X73165186Y-62859814D01*
X73223340Y-62930676D01*
X73277778Y-62997009D01*
X73361443Y-63153534D01*
X73412963Y-63323373D01*
X73430359Y-63500000D01*
X73412963Y-63676627D01*
X73364774Y-63835484D01*
X73361442Y-63846468D01*
X73361039Y-63847222D01*
X73277778Y-64002991D01*
X73248448Y-64038729D01*
X73165186Y-64140186D01*
X73063729Y-64223448D01*
X73027991Y-64252778D01*
X72871466Y-64336443D01*
X72701627Y-64387963D01*
X72635442Y-64394482D01*
X72569260Y-64401000D01*
X72230740Y-64401000D01*
X72164558Y-64394482D01*
X72098373Y-64387963D01*
X71928534Y-64336443D01*
X71772009Y-64252778D01*
X71736271Y-64223448D01*
X71634814Y-64140186D01*
X71551552Y-64038729D01*
X71522222Y-64002991D01*
X71438961Y-63847222D01*
X71438558Y-63846468D01*
X71435226Y-63835484D01*
X71387037Y-63676627D01*
X71369641Y-63500000D01*
X71387037Y-63323373D01*
X71438557Y-63153534D01*
X71522222Y-62997009D01*
X71576660Y-62930676D01*
X71634814Y-62859814D01*
X71736271Y-62776552D01*
X71772009Y-62747222D01*
X71928534Y-62663557D01*
X72098373Y-62612037D01*
X72164558Y-62605518D01*
X72230740Y-62599000D01*
X72569260Y-62599000D01*
X72635442Y-62605518D01*
G37*
G36*
X65858600Y-61202989D02*
G01*
X65891652Y-61213015D01*
X65922103Y-61229292D01*
X65948799Y-61251201D01*
X65970708Y-61277897D01*
X65986985Y-61308348D01*
X65997011Y-61341400D01*
X66001000Y-61381903D01*
X66001000Y-61459036D01*
X66003402Y-61483422D01*
X66006383Y-61495323D01*
X66006878Y-61496954D01*
X66011000Y-61538807D01*
X66011000Y-62761193D01*
X66006878Y-62803046D01*
X66003943Y-62812720D01*
X65999162Y-62836757D01*
X65997011Y-62858600D01*
X65986985Y-62891652D01*
X65970708Y-62922103D01*
X65948799Y-62948799D01*
X65922103Y-62970708D01*
X65891652Y-62986985D01*
X65858600Y-62997011D01*
X65818097Y-63001000D01*
X64081903Y-63001000D01*
X64041400Y-62997011D01*
X64008348Y-62986985D01*
X63977897Y-62970708D01*
X63951201Y-62948799D01*
X63929292Y-62922103D01*
X63913015Y-62891652D01*
X63902989Y-62858600D01*
X63900838Y-62836757D01*
X63896057Y-62812720D01*
X63893122Y-62803046D01*
X63889000Y-62761193D01*
X63889000Y-61538807D01*
X63893122Y-61496954D01*
X63893617Y-61495323D01*
X63898398Y-61471290D01*
X63899000Y-61459036D01*
X63899000Y-61381903D01*
X63902989Y-61341400D01*
X63913015Y-61308348D01*
X63929292Y-61277897D01*
X63951201Y-61251201D01*
X63977897Y-61229292D01*
X64008348Y-61213015D01*
X64041400Y-61202989D01*
X64081903Y-61199000D01*
X65818097Y-61199000D01*
X65858600Y-61202989D01*
G37*
G36*
X79635442Y-60105518D02*
G01*
X79701627Y-60112037D01*
X79871466Y-60163557D01*
X80027991Y-60247222D01*
X80063729Y-60276552D01*
X80165186Y-60359814D01*
X80248448Y-60461271D01*
X80277778Y-60497009D01*
X80361443Y-60653534D01*
X80412963Y-60823373D01*
X80430359Y-61000000D01*
X80412963Y-61176627D01*
X80361443Y-61346466D01*
X80361442Y-61346468D01*
X80352825Y-61362589D01*
X80277778Y-61502991D01*
X80248448Y-61538729D01*
X80165186Y-61640186D01*
X80063729Y-61723448D01*
X80027991Y-61752778D01*
X79871466Y-61836443D01*
X79701627Y-61887963D01*
X79635443Y-61894481D01*
X79569260Y-61901000D01*
X79230740Y-61901000D01*
X79164557Y-61894481D01*
X79098373Y-61887963D01*
X78928534Y-61836443D01*
X78772009Y-61752778D01*
X78736271Y-61723448D01*
X78634814Y-61640186D01*
X78551552Y-61538729D01*
X78522222Y-61502991D01*
X78447175Y-61362589D01*
X78438558Y-61346468D01*
X78438557Y-61346466D01*
X78387037Y-61176627D01*
X78369641Y-61000000D01*
X78387037Y-60823373D01*
X78438557Y-60653534D01*
X78522222Y-60497009D01*
X78551552Y-60461271D01*
X78634814Y-60359814D01*
X78736271Y-60276552D01*
X78772009Y-60247222D01*
X78928534Y-60163557D01*
X79098373Y-60112037D01*
X79164558Y-60105518D01*
X79230740Y-60099000D01*
X79569260Y-60099000D01*
X79635442Y-60105518D01*
G37*
G36*
X72635442Y-60105518D02*
G01*
X72701627Y-60112037D01*
X72871466Y-60163557D01*
X73027991Y-60247222D01*
X73063729Y-60276552D01*
X73165186Y-60359814D01*
X73248448Y-60461271D01*
X73277778Y-60497009D01*
X73361443Y-60653534D01*
X73412963Y-60823373D01*
X73430359Y-61000000D01*
X73412963Y-61176627D01*
X73361443Y-61346466D01*
X73361442Y-61346468D01*
X73352825Y-61362589D01*
X73277778Y-61502991D01*
X73248448Y-61538729D01*
X73165186Y-61640186D01*
X73063729Y-61723448D01*
X73027991Y-61752778D01*
X72871466Y-61836443D01*
X72701627Y-61887963D01*
X72635443Y-61894481D01*
X72569260Y-61901000D01*
X72230740Y-61901000D01*
X72164557Y-61894481D01*
X72098373Y-61887963D01*
X71928534Y-61836443D01*
X71772009Y-61752778D01*
X71736271Y-61723448D01*
X71634814Y-61640186D01*
X71551552Y-61538729D01*
X71522222Y-61502991D01*
X71447175Y-61362589D01*
X71438558Y-61346468D01*
X71438557Y-61346466D01*
X71387037Y-61176627D01*
X71369641Y-61000000D01*
X71387037Y-60823373D01*
X71438557Y-60653534D01*
X71522222Y-60497009D01*
X71551552Y-60461271D01*
X71634814Y-60359814D01*
X71736271Y-60276552D01*
X71772009Y-60247222D01*
X71928534Y-60163557D01*
X72098373Y-60112037D01*
X72164558Y-60105518D01*
X72230740Y-60099000D01*
X72569260Y-60099000D01*
X72635442Y-60105518D01*
G37*
G36*
X56426626Y-57762037D02*
G01*
X56596465Y-57813557D01*
X56596467Y-57813558D01*
X56752989Y-57897221D01*
X56890186Y-58009814D01*
X56973448Y-58111271D01*
X57002778Y-58147009D01*
X57086443Y-58303534D01*
X57137963Y-58473373D01*
X57151000Y-58605742D01*
X57151000Y-58994257D01*
X57137963Y-59126626D01*
X57086443Y-59296466D01*
X57002778Y-59452991D01*
X56984764Y-59474941D01*
X56890186Y-59590186D01*
X56795250Y-59668097D01*
X56752991Y-59702778D01*
X56596466Y-59786443D01*
X56426627Y-59837963D01*
X56250000Y-59855359D01*
X56073374Y-59837963D01*
X55903535Y-59786443D01*
X55747010Y-59702778D01*
X55609815Y-59590185D01*
X55497222Y-59452991D01*
X55413557Y-59296466D01*
X55362037Y-59126627D01*
X55349000Y-58994258D01*
X55349000Y-58605743D01*
X55362037Y-58473374D01*
X55413557Y-58303535D01*
X55497222Y-58147010D01*
X55497223Y-58147009D01*
X55609814Y-58009814D01*
X55711271Y-57926552D01*
X55747009Y-57897222D01*
X55903534Y-57813557D01*
X56073373Y-57762037D01*
X56250000Y-57744641D01*
X56426626Y-57762037D01*
G37*
G36*
X54508600Y-57752989D02*
G01*
X54541652Y-57763015D01*
X54572103Y-57779292D01*
X54598799Y-57801201D01*
X54620708Y-57827897D01*
X54636985Y-57858348D01*
X54647011Y-57891400D01*
X54651000Y-57931903D01*
X54651000Y-59668097D01*
X54647011Y-59708600D01*
X54636985Y-59741652D01*
X54620708Y-59772103D01*
X54598799Y-59798799D01*
X54572103Y-59820708D01*
X54541652Y-59836985D01*
X54508600Y-59847011D01*
X54468097Y-59851000D01*
X53031903Y-59851000D01*
X52991400Y-59847011D01*
X52958348Y-59836985D01*
X52927897Y-59820708D01*
X52901201Y-59798799D01*
X52879292Y-59772103D01*
X52863015Y-59741652D01*
X52852989Y-59708600D01*
X52849000Y-59668097D01*
X52849000Y-57931903D01*
X52852989Y-57891400D01*
X52863015Y-57858348D01*
X52879292Y-57827897D01*
X52901201Y-57801201D01*
X52927897Y-57779292D01*
X52958348Y-57763015D01*
X52991400Y-57752989D01*
X53031903Y-57749000D01*
X54468097Y-57749000D01*
X54508600Y-57752989D01*
G37*
G36*
X67110098Y-58490362D02*
G01*
X67234941Y-58542074D01*
X67234943Y-58542075D01*
X67330224Y-58605740D01*
X67347299Y-58617149D01*
X67442851Y-58712701D01*
X67517926Y-58825059D01*
X67569638Y-58949902D01*
X67596000Y-59082434D01*
X67596000Y-59217566D01*
X67569638Y-59350098D01*
X67527019Y-59452989D01*
X67517925Y-59474943D01*
X67442851Y-59587299D01*
X67347299Y-59682851D01*
X67234943Y-59757925D01*
X67234942Y-59757926D01*
X67234941Y-59757926D01*
X67110098Y-59809638D01*
X66977566Y-59836000D01*
X66842434Y-59836000D01*
X66709902Y-59809638D01*
X66585059Y-59757926D01*
X66585058Y-59757926D01*
X66585057Y-59757925D01*
X66472701Y-59682851D01*
X66377149Y-59587299D01*
X66302075Y-59474943D01*
X66292981Y-59452989D01*
X66250362Y-59350098D01*
X66224000Y-59217566D01*
X66224000Y-59082434D01*
X66250362Y-58949902D01*
X66302074Y-58825059D01*
X66377149Y-58712701D01*
X66472701Y-58617149D01*
X66489776Y-58605740D01*
X66585057Y-58542075D01*
X66585059Y-58542074D01*
X66709902Y-58490362D01*
X66842434Y-58464000D01*
X66977566Y-58464000D01*
X67110098Y-58490362D01*
G37*
G36*
X80283600Y-57602989D02*
G01*
X80316652Y-57613015D01*
X80347103Y-57629292D01*
X80373799Y-57651201D01*
X80395708Y-57677897D01*
X80411985Y-57708348D01*
X80422011Y-57741400D01*
X80426000Y-57781903D01*
X80426000Y-59218097D01*
X80422011Y-59258600D01*
X80411985Y-59291652D01*
X80395708Y-59322103D01*
X80373799Y-59348799D01*
X80347103Y-59370708D01*
X80316652Y-59386985D01*
X80283600Y-59397011D01*
X80243097Y-59401000D01*
X78556903Y-59401000D01*
X78516400Y-59397011D01*
X78483348Y-59386985D01*
X78452897Y-59370708D01*
X78426201Y-59348799D01*
X78404292Y-59322103D01*
X78388015Y-59291652D01*
X78377989Y-59258600D01*
X78374000Y-59218097D01*
X78374000Y-57781903D01*
X78377989Y-57741400D01*
X78388015Y-57708348D01*
X78404292Y-57677897D01*
X78426201Y-57651201D01*
X78452897Y-57629292D01*
X78483348Y-57613015D01*
X78516400Y-57602989D01*
X78556903Y-57599000D01*
X80243097Y-57599000D01*
X80283600Y-57602989D01*
G37*
G36*
X73283600Y-57602989D02*
G01*
X73316652Y-57613015D01*
X73347103Y-57629292D01*
X73373799Y-57651201D01*
X73395708Y-57677897D01*
X73411985Y-57708348D01*
X73422011Y-57741400D01*
X73426000Y-57781903D01*
X73426000Y-59218097D01*
X73422011Y-59258600D01*
X73411985Y-59291652D01*
X73395708Y-59322103D01*
X73373799Y-59348799D01*
X73347103Y-59370708D01*
X73316652Y-59386985D01*
X73283600Y-59397011D01*
X73243097Y-59401000D01*
X71556903Y-59401000D01*
X71516400Y-59397011D01*
X71483348Y-59386985D01*
X71452897Y-59370708D01*
X71426201Y-59348799D01*
X71404292Y-59322103D01*
X71388015Y-59291652D01*
X71377989Y-59258600D01*
X71374000Y-59218097D01*
X71374000Y-57781903D01*
X71377989Y-57741400D01*
X71388015Y-57708348D01*
X71404292Y-57677897D01*
X71426201Y-57651201D01*
X71452897Y-57629292D01*
X71483348Y-57613015D01*
X71516400Y-57602989D01*
X71556903Y-57599000D01*
X73243097Y-57599000D01*
X73283600Y-57602989D01*
G37*
G36*
X64010442Y-54505518D02*
G01*
X64076627Y-54512037D01*
X64246466Y-54563557D01*
X64402991Y-54647222D01*
X64438729Y-54676552D01*
X64540186Y-54759814D01*
X64615019Y-54851000D01*
X64652778Y-54897009D01*
X64736443Y-55053534D01*
X64787963Y-55223373D01*
X64805359Y-55400000D01*
X64787963Y-55576627D01*
X64736443Y-55746466D01*
X64652778Y-55902991D01*
X64623448Y-55938729D01*
X64540186Y-56040186D01*
X64438729Y-56123448D01*
X64402991Y-56152778D01*
X64246466Y-56236443D01*
X64076627Y-56287963D01*
X64010443Y-56294481D01*
X63944260Y-56301000D01*
X63555740Y-56301000D01*
X63489557Y-56294481D01*
X63423373Y-56287963D01*
X63253534Y-56236443D01*
X63097009Y-56152778D01*
X63061271Y-56123448D01*
X62959814Y-56040186D01*
X62876552Y-55938729D01*
X62847222Y-55902991D01*
X62763557Y-55746466D01*
X62712037Y-55576627D01*
X62694641Y-55400000D01*
X62712037Y-55223373D01*
X62763557Y-55053534D01*
X62847222Y-54897009D01*
X62884981Y-54851000D01*
X62959814Y-54759814D01*
X63061271Y-54676552D01*
X63097009Y-54647222D01*
X63253534Y-54563557D01*
X63423373Y-54512037D01*
X63489558Y-54505518D01*
X63555740Y-54499000D01*
X63944260Y-54499000D01*
X64010442Y-54505518D01*
G37*
G36*
X80531606Y-49258562D02*
G01*
X81050455Y-49473476D01*
X81517407Y-49785484D01*
X81914516Y-50182593D01*
X82226524Y-50649545D01*
X82441438Y-51168394D01*
X82448428Y-51203534D01*
X82551000Y-51719200D01*
X82551000Y-52280800D01*
X82507637Y-52498799D01*
X82441438Y-52831606D01*
X82226524Y-53350455D01*
X82004173Y-53683226D01*
X81934844Y-53786985D01*
X81914516Y-53817407D01*
X81517407Y-54214516D01*
X81050455Y-54526524D01*
X80531606Y-54741438D01*
X80439223Y-54759814D01*
X79980800Y-54851000D01*
X79419200Y-54851000D01*
X78960777Y-54759814D01*
X78868394Y-54741438D01*
X78349545Y-54526524D01*
X77882593Y-54214516D01*
X77485484Y-53817407D01*
X77465157Y-53786985D01*
X77395827Y-53683226D01*
X77173476Y-53350455D01*
X76958562Y-52831606D01*
X76892363Y-52498799D01*
X76849000Y-52280800D01*
X76849000Y-51719200D01*
X76951572Y-51203534D01*
X76958562Y-51168394D01*
X77173476Y-50649545D01*
X77485484Y-50182593D01*
X77882593Y-49785484D01*
X78349545Y-49473476D01*
X78868394Y-49258562D01*
X79419200Y-49149000D01*
X79980800Y-49149000D01*
X80531606Y-49258562D01*
G37*
G36*
X64658600Y-52002989D02*
G01*
X64691652Y-52013015D01*
X64722103Y-52029292D01*
X64748799Y-52051201D01*
X64770708Y-52077897D01*
X64786985Y-52108348D01*
X64797011Y-52141400D01*
X64801000Y-52181903D01*
X64801000Y-53618097D01*
X64797011Y-53658600D01*
X64786985Y-53691652D01*
X64770708Y-53722103D01*
X64748799Y-53748799D01*
X64722103Y-53770708D01*
X64691652Y-53786985D01*
X64658600Y-53797011D01*
X64618097Y-53801000D01*
X62881903Y-53801000D01*
X62841400Y-53797011D01*
X62808348Y-53786985D01*
X62777897Y-53770708D01*
X62751201Y-53748799D01*
X62729292Y-53722103D01*
X62713015Y-53691652D01*
X62702989Y-53658600D01*
X62699000Y-53618097D01*
X62699000Y-52181903D01*
X62702989Y-52141400D01*
X62713015Y-52108348D01*
X62729292Y-52077897D01*
X62751201Y-52051201D01*
X62777897Y-52029292D01*
X62808348Y-52013015D01*
X62841400Y-52002989D01*
X62881903Y-51999000D01*
X64618097Y-51999000D01*
X64658600Y-52002989D01*
G37*
G36*
X56376626Y-50662037D02*
G01*
X56546465Y-50713557D01*
X56546467Y-50713558D01*
X56702989Y-50797221D01*
X56840186Y-50909814D01*
X56917097Y-51003532D01*
X56952778Y-51047009D01*
X56952779Y-51047011D01*
X57020322Y-51173373D01*
X57036443Y-51203534D01*
X57087963Y-51373373D01*
X57101000Y-51505742D01*
X57101000Y-51894257D01*
X57087963Y-52026626D01*
X57036443Y-52196466D01*
X56952778Y-52352991D01*
X56924530Y-52387411D01*
X56840186Y-52490186D01*
X56760771Y-52555359D01*
X56702991Y-52602778D01*
X56546466Y-52686443D01*
X56376627Y-52737963D01*
X56200000Y-52755359D01*
X56023374Y-52737963D01*
X55853535Y-52686443D01*
X55697010Y-52602778D01*
X55559815Y-52490185D01*
X55447222Y-52352991D01*
X55363557Y-52196466D01*
X55312037Y-52026627D01*
X55299000Y-51894258D01*
X55299000Y-51505743D01*
X55312037Y-51373374D01*
X55363557Y-51203535D01*
X55379678Y-51173375D01*
X55447221Y-51047011D01*
X55559814Y-50909814D01*
X55661271Y-50826552D01*
X55697009Y-50797222D01*
X55853534Y-50713557D01*
X56023373Y-50662037D01*
X56200000Y-50644641D01*
X56376626Y-50662037D01*
G37*
G36*
X54458600Y-50652989D02*
G01*
X54491652Y-50663015D01*
X54522103Y-50679292D01*
X54548799Y-50701201D01*
X54570708Y-50727897D01*
X54586985Y-50758348D01*
X54597011Y-50791400D01*
X54601000Y-50831903D01*
X54601000Y-52568097D01*
X54597011Y-52608600D01*
X54586985Y-52641652D01*
X54570708Y-52672103D01*
X54548799Y-52698799D01*
X54522103Y-52720708D01*
X54491652Y-52736985D01*
X54458600Y-52747011D01*
X54418097Y-52751000D01*
X52981903Y-52751000D01*
X52941400Y-52747011D01*
X52908348Y-52736985D01*
X52877897Y-52720708D01*
X52851201Y-52698799D01*
X52829292Y-52672103D01*
X52813015Y-52641652D01*
X52802989Y-52608600D01*
X52799000Y-52568097D01*
X52799000Y-50831903D01*
X52802989Y-50791400D01*
X52813015Y-50758348D01*
X52829292Y-50727897D01*
X52851201Y-50701201D01*
X52877897Y-50679292D01*
X52908348Y-50663015D01*
X52941400Y-50652989D01*
X52981903Y-50649000D01*
X54418097Y-50649000D01*
X54458600Y-50652989D01*
G37*
G36*
X72526626Y-50462037D02*
G01*
X72696465Y-50513557D01*
X72696467Y-50513558D01*
X72852989Y-50597221D01*
X72990186Y-50709814D01*
X73057141Y-50791400D01*
X73102778Y-50847009D01*
X73186443Y-51003534D01*
X73237963Y-51173373D01*
X73251000Y-51305742D01*
X73251000Y-51694257D01*
X73237963Y-51826626D01*
X73186443Y-51996466D01*
X73102778Y-52152991D01*
X73094901Y-52162589D01*
X72990186Y-52290186D01*
X72895250Y-52368097D01*
X72852991Y-52402778D01*
X72696466Y-52486443D01*
X72526627Y-52537963D01*
X72350000Y-52555359D01*
X72173374Y-52537963D01*
X72003535Y-52486443D01*
X71847010Y-52402778D01*
X71709815Y-52290185D01*
X71597222Y-52152991D01*
X71531103Y-52029292D01*
X71513558Y-51996468D01*
X71513557Y-51996466D01*
X71462037Y-51826627D01*
X71451457Y-51719201D01*
X71449000Y-51694260D01*
X71449000Y-51305741D01*
X71455519Y-51239558D01*
X71462037Y-51173374D01*
X71513557Y-51003535D01*
X71561415Y-50914000D01*
X71597221Y-50847011D01*
X71709814Y-50709814D01*
X71811271Y-50626552D01*
X71847009Y-50597222D01*
X72003534Y-50513557D01*
X72173373Y-50462037D01*
X72350000Y-50444641D01*
X72526626Y-50462037D01*
G37*
G36*
X70608600Y-50452989D02*
G01*
X70641652Y-50463015D01*
X70672103Y-50479292D01*
X70698799Y-50501201D01*
X70720708Y-50527897D01*
X70736985Y-50558348D01*
X70747011Y-50591400D01*
X70751000Y-50631903D01*
X70751000Y-52368097D01*
X70747011Y-52408600D01*
X70736985Y-52441652D01*
X70720708Y-52472103D01*
X70698799Y-52498799D01*
X70672103Y-52520708D01*
X70641652Y-52536985D01*
X70608600Y-52547011D01*
X70568097Y-52551000D01*
X69131903Y-52551000D01*
X69091400Y-52547011D01*
X69058348Y-52536985D01*
X69027897Y-52520708D01*
X69001201Y-52498799D01*
X68979292Y-52472103D01*
X68963015Y-52441652D01*
X68952989Y-52408600D01*
X68949000Y-52368097D01*
X68949000Y-50631903D01*
X68952989Y-50591400D01*
X68963015Y-50558348D01*
X68979292Y-50527897D01*
X69001201Y-50501201D01*
X69027897Y-50479292D01*
X69058348Y-50463015D01*
X69091400Y-50452989D01*
X69131903Y-50449000D01*
X70568097Y-50449000D01*
X70608600Y-50452989D01*
G37*
G36*
X81951000Y-48771000D02*
G01*
X80249000Y-48771000D01*
X80249000Y-47069000D01*
X81951000Y-47069000D01*
X81951000Y-48771000D01*
G37*
G36*
X78810721Y-45960174D02*
G01*
X78910995Y-46001709D01*
X78910996Y-46001710D01*
X79001242Y-46062010D01*
X79077990Y-46138758D01*
X79077991Y-46138760D01*
X79138291Y-46229005D01*
X79179826Y-46329279D01*
X79201000Y-46435730D01*
X79201000Y-46544270D01*
X79179826Y-46650721D01*
X79138291Y-46750995D01*
X79138290Y-46750996D01*
X79077990Y-46841242D01*
X79001242Y-46917990D01*
X78955812Y-46948345D01*
X78910995Y-46978291D01*
X78810721Y-47019826D01*
X78704270Y-47041000D01*
X78595730Y-47041000D01*
X78489279Y-47019826D01*
X78389005Y-46978291D01*
X78344188Y-46948345D01*
X78298758Y-46917990D01*
X78222010Y-46841242D01*
X78161710Y-46750996D01*
X78161709Y-46750995D01*
X78120174Y-46650721D01*
X78099000Y-46544270D01*
X78099000Y-46435730D01*
X78120174Y-46329279D01*
X78161709Y-46229005D01*
X78222009Y-46138760D01*
X78222010Y-46138758D01*
X78298758Y-46062010D01*
X78389004Y-46001710D01*
X78389005Y-46001709D01*
X78489279Y-45960174D01*
X78595730Y-45939000D01*
X78704270Y-45939000D01*
X78810721Y-45960174D01*
G37*
G36*
X51810721Y-45960174D02*
G01*
X51910995Y-46001709D01*
X51910996Y-46001710D01*
X52001242Y-46062010D01*
X52077990Y-46138758D01*
X52077991Y-46138760D01*
X52138291Y-46229005D01*
X52179826Y-46329279D01*
X52201000Y-46435730D01*
X52201000Y-46544270D01*
X52179826Y-46650721D01*
X52138291Y-46750995D01*
X52138290Y-46750996D01*
X52077990Y-46841242D01*
X52001242Y-46917990D01*
X51955812Y-46948345D01*
X51910995Y-46978291D01*
X51810721Y-47019826D01*
X51704270Y-47041000D01*
X51595730Y-47041000D01*
X51489279Y-47019826D01*
X51389005Y-46978291D01*
X51344188Y-46948345D01*
X51298758Y-46917990D01*
X51222010Y-46841242D01*
X51161710Y-46750996D01*
X51161709Y-46750995D01*
X51120174Y-46650721D01*
X51099000Y-46544270D01*
X51099000Y-46435730D01*
X51120174Y-46329279D01*
X51161709Y-46229005D01*
X51222009Y-46138760D01*
X51222010Y-46138758D01*
X51298758Y-46062010D01*
X51389004Y-46001710D01*
X51389005Y-46001709D01*
X51489279Y-45960174D01*
X51595730Y-45939000D01*
X51704270Y-45939000D01*
X51810721Y-45960174D01*
G37*
G36*
X69883642Y-44779781D02*
G01*
X70029414Y-44840162D01*
X70029416Y-44840163D01*
X70160608Y-44927822D01*
X70272178Y-45039392D01*
X70359837Y-45170584D01*
X70359838Y-45170586D01*
X70420219Y-45316358D01*
X70451000Y-45471107D01*
X70451000Y-45628893D01*
X70420219Y-45783642D01*
X70359838Y-45929414D01*
X70359837Y-45929416D01*
X70272178Y-46060608D01*
X70160608Y-46172178D01*
X70029416Y-46259837D01*
X70029415Y-46259838D01*
X70029414Y-46259838D01*
X69883642Y-46320219D01*
X69728893Y-46351000D01*
X69551107Y-46351000D01*
X69396358Y-46320219D01*
X69250586Y-46259838D01*
X69250585Y-46259838D01*
X69250584Y-46259837D01*
X69119392Y-46172178D01*
X69007822Y-46060608D01*
X68920163Y-45929416D01*
X68920162Y-45929414D01*
X68859781Y-45783642D01*
X68829000Y-45628893D01*
X68829000Y-45471107D01*
X68859781Y-45316358D01*
X68920162Y-45170586D01*
X68920163Y-45170584D01*
X69007822Y-45039392D01*
X69119392Y-44927822D01*
X69250584Y-44840163D01*
X69250586Y-44840162D01*
X69396358Y-44779781D01*
X69551107Y-44749000D01*
X69728893Y-44749000D01*
X69883642Y-44779781D01*
G37*
G36*
X66883642Y-44779781D02*
G01*
X67029414Y-44840162D01*
X67029416Y-44840163D01*
X67160608Y-44927822D01*
X67272178Y-45039392D01*
X67359837Y-45170584D01*
X67359838Y-45170586D01*
X67420219Y-45316358D01*
X67451000Y-45471107D01*
X67451000Y-45628893D01*
X67420219Y-45783642D01*
X67359838Y-45929414D01*
X67359837Y-45929416D01*
X67272178Y-46060608D01*
X67160608Y-46172178D01*
X67029416Y-46259837D01*
X67029415Y-46259838D01*
X67029414Y-46259838D01*
X66883642Y-46320219D01*
X66728893Y-46351000D01*
X66551107Y-46351000D01*
X66396358Y-46320219D01*
X66250586Y-46259838D01*
X66250585Y-46259838D01*
X66250584Y-46259837D01*
X66119392Y-46172178D01*
X66007822Y-46060608D01*
X65920163Y-45929416D01*
X65920162Y-45929414D01*
X65859781Y-45783642D01*
X65829000Y-45628893D01*
X65829000Y-45471107D01*
X65859781Y-45316358D01*
X65920162Y-45170586D01*
X65920163Y-45170584D01*
X66007822Y-45039392D01*
X66119392Y-44927822D01*
X66250584Y-44840163D01*
X66250586Y-44840162D01*
X66396358Y-44779781D01*
X66551107Y-44749000D01*
X66728893Y-44749000D01*
X66883642Y-44779781D01*
G37*
G36*
X63883642Y-44779781D02*
G01*
X64029414Y-44840162D01*
X64029416Y-44840163D01*
X64160608Y-44927822D01*
X64272178Y-45039392D01*
X64359837Y-45170584D01*
X64359838Y-45170586D01*
X64420219Y-45316358D01*
X64451000Y-45471107D01*
X64451000Y-45628893D01*
X64420219Y-45783642D01*
X64359838Y-45929414D01*
X64359837Y-45929416D01*
X64272178Y-46060608D01*
X64160608Y-46172178D01*
X64029416Y-46259837D01*
X64029415Y-46259838D01*
X64029414Y-46259838D01*
X63883642Y-46320219D01*
X63728893Y-46351000D01*
X63551107Y-46351000D01*
X63396358Y-46320219D01*
X63250586Y-46259838D01*
X63250585Y-46259838D01*
X63250584Y-46259837D01*
X63119392Y-46172178D01*
X63007822Y-46060608D01*
X62920163Y-45929416D01*
X62920162Y-45929414D01*
X62859781Y-45783642D01*
X62829000Y-45628893D01*
X62829000Y-45471107D01*
X62859781Y-45316358D01*
X62920162Y-45170586D01*
X62920163Y-45170584D01*
X63007822Y-45039392D01*
X63119392Y-44927822D01*
X63250584Y-44840163D01*
X63250586Y-44840162D01*
X63396358Y-44779781D01*
X63551107Y-44749000D01*
X63728893Y-44749000D01*
X63883642Y-44779781D01*
G37*
G36*
X60883642Y-44779781D02*
G01*
X61029414Y-44840162D01*
X61029416Y-44840163D01*
X61160608Y-44927822D01*
X61272178Y-45039392D01*
X61359837Y-45170584D01*
X61359838Y-45170586D01*
X61420219Y-45316358D01*
X61451000Y-45471107D01*
X61451000Y-45628893D01*
X61420219Y-45783642D01*
X61359838Y-45929414D01*
X61359837Y-45929416D01*
X61272178Y-46060608D01*
X61160608Y-46172178D01*
X61029416Y-46259837D01*
X61029415Y-46259838D01*
X61029414Y-46259838D01*
X60883642Y-46320219D01*
X60728893Y-46351000D01*
X60551107Y-46351000D01*
X60396358Y-46320219D01*
X60250586Y-46259838D01*
X60250585Y-46259838D01*
X60250584Y-46259837D01*
X60119392Y-46172178D01*
X60007822Y-46060608D01*
X59920163Y-45929416D01*
X59920162Y-45929414D01*
X59859781Y-45783642D01*
X59829000Y-45628893D01*
X59829000Y-45471107D01*
X59859781Y-45316358D01*
X59920162Y-45170586D01*
X59920163Y-45170584D01*
X60007822Y-45039392D01*
X60119392Y-44927822D01*
X60250584Y-44840163D01*
X60250586Y-44840162D01*
X60396358Y-44779781D01*
X60551107Y-44749000D01*
X60728893Y-44749000D01*
X60883642Y-44779781D01*
G37*
G36*
X57883642Y-44779781D02*
G01*
X58029414Y-44840162D01*
X58029416Y-44840163D01*
X58160608Y-44927822D01*
X58272178Y-45039392D01*
X58359837Y-45170584D01*
X58359838Y-45170586D01*
X58420219Y-45316358D01*
X58451000Y-45471107D01*
X58451000Y-45628893D01*
X58420219Y-45783642D01*
X58359838Y-45929414D01*
X58359837Y-45929416D01*
X58272178Y-46060608D01*
X58160608Y-46172178D01*
X58029416Y-46259837D01*
X58029415Y-46259838D01*
X58029414Y-46259838D01*
X57883642Y-46320219D01*
X57728893Y-46351000D01*
X57551107Y-46351000D01*
X57396358Y-46320219D01*
X57250586Y-46259838D01*
X57250585Y-46259838D01*
X57250584Y-46259837D01*
X57119392Y-46172178D01*
X57007822Y-46060608D01*
X56920163Y-45929416D01*
X56920162Y-45929414D01*
X56859781Y-45783642D01*
X56829000Y-45628893D01*
X56829000Y-45471107D01*
X56859781Y-45316358D01*
X56920162Y-45170586D01*
X56920163Y-45170584D01*
X57007822Y-45039392D01*
X57119392Y-44927822D01*
X57250584Y-44840163D01*
X57250586Y-44840162D01*
X57396358Y-44779781D01*
X57551107Y-44749000D01*
X57728893Y-44749000D01*
X57883642Y-44779781D01*
G37*
G36*
X54883642Y-44779781D02*
G01*
X55029414Y-44840162D01*
X55029416Y-44840163D01*
X55160608Y-44927822D01*
X55272178Y-45039392D01*
X55359837Y-45170584D01*
X55359838Y-45170586D01*
X55420219Y-45316358D01*
X55451000Y-45471107D01*
X55451000Y-45628893D01*
X55420219Y-45783642D01*
X55359838Y-45929414D01*
X55359837Y-45929416D01*
X55272178Y-46060608D01*
X55160608Y-46172178D01*
X55029416Y-46259837D01*
X55029415Y-46259838D01*
X55029414Y-46259838D01*
X54883642Y-46320219D01*
X54728893Y-46351000D01*
X54551107Y-46351000D01*
X54396358Y-46320219D01*
X54250586Y-46259838D01*
X54250585Y-46259838D01*
X54250584Y-46259837D01*
X54119392Y-46172178D01*
X54007822Y-46060608D01*
X53920163Y-45929416D01*
X53920162Y-45929414D01*
X53859781Y-45783642D01*
X53829000Y-45628893D01*
X53829000Y-45471107D01*
X53859781Y-45316358D01*
X53920162Y-45170586D01*
X53920163Y-45170584D01*
X54007822Y-45039392D01*
X54119392Y-44927822D01*
X54250584Y-44840163D01*
X54250586Y-44840162D01*
X54396358Y-44779781D01*
X54551107Y-44749000D01*
X54728893Y-44749000D01*
X54883642Y-44779781D01*
G37*
G36*
X75883642Y-44779781D02*
G01*
X76029414Y-44840162D01*
X76029416Y-44840163D01*
X76160608Y-44927822D01*
X76272178Y-45039392D01*
X76359837Y-45170584D01*
X76359838Y-45170586D01*
X76420219Y-45316358D01*
X76451000Y-45471107D01*
X76451000Y-45628893D01*
X76420219Y-45783642D01*
X76359838Y-45929414D01*
X76359837Y-45929416D01*
X76272178Y-46060608D01*
X76160608Y-46172178D01*
X76029416Y-46259837D01*
X76029415Y-46259838D01*
X76029414Y-46259838D01*
X75883642Y-46320219D01*
X75728893Y-46351000D01*
X75551107Y-46351000D01*
X75396358Y-46320219D01*
X75250586Y-46259838D01*
X75250585Y-46259838D01*
X75250584Y-46259837D01*
X75119392Y-46172178D01*
X75007822Y-46060608D01*
X74920163Y-45929416D01*
X74920162Y-45929414D01*
X74859781Y-45783642D01*
X74829000Y-45628893D01*
X74829000Y-45471107D01*
X74859781Y-45316358D01*
X74920162Y-45170586D01*
X74920163Y-45170584D01*
X75007822Y-45039392D01*
X75119392Y-44927822D01*
X75250584Y-44840163D01*
X75250586Y-44840162D01*
X75396358Y-44779781D01*
X75551107Y-44749000D01*
X75728893Y-44749000D01*
X75883642Y-44779781D01*
G37*
G36*
X72883642Y-44779781D02*
G01*
X73029414Y-44840162D01*
X73029416Y-44840163D01*
X73160608Y-44927822D01*
X73272178Y-45039392D01*
X73359837Y-45170584D01*
X73359838Y-45170586D01*
X73420219Y-45316358D01*
X73451000Y-45471107D01*
X73451000Y-45628893D01*
X73420219Y-45783642D01*
X73359838Y-45929414D01*
X73359837Y-45929416D01*
X73272178Y-46060608D01*
X73160608Y-46172178D01*
X73029416Y-46259837D01*
X73029415Y-46259838D01*
X73029414Y-46259838D01*
X72883642Y-46320219D01*
X72728893Y-46351000D01*
X72551107Y-46351000D01*
X72396358Y-46320219D01*
X72250586Y-46259838D01*
X72250585Y-46259838D01*
X72250584Y-46259837D01*
X72119392Y-46172178D01*
X72007822Y-46060608D01*
X71920163Y-45929416D01*
X71920162Y-45929414D01*
X71859781Y-45783642D01*
X71829000Y-45628893D01*
X71829000Y-45471107D01*
X71859781Y-45316358D01*
X71920162Y-45170586D01*
X71920163Y-45170584D01*
X72007822Y-45039392D01*
X72119392Y-44927822D01*
X72250584Y-44840163D01*
X72250586Y-44840162D01*
X72396358Y-44779781D01*
X72551107Y-44749000D01*
X72728893Y-44749000D01*
X72883642Y-44779781D01*
G37*
G36*
X57883642Y-41779781D02*
G01*
X58007208Y-41830964D01*
X58029416Y-41840163D01*
X58160608Y-41927822D01*
X58272178Y-42039392D01*
X58359837Y-42170584D01*
X58359838Y-42170586D01*
X58420219Y-42316358D01*
X58451000Y-42471107D01*
X58451000Y-42628893D01*
X58420219Y-42783642D01*
X58359838Y-42929414D01*
X58359837Y-42929416D01*
X58272178Y-43060608D01*
X58160608Y-43172178D01*
X58029416Y-43259837D01*
X58029415Y-43259838D01*
X58029414Y-43259838D01*
X57883642Y-43320219D01*
X57728893Y-43351000D01*
X57551107Y-43351000D01*
X57396358Y-43320219D01*
X57250586Y-43259838D01*
X57250585Y-43259838D01*
X57250584Y-43259837D01*
X57119392Y-43172178D01*
X57007822Y-43060608D01*
X56920163Y-42929416D01*
X56920162Y-42929414D01*
X56859781Y-42783642D01*
X56829000Y-42628893D01*
X56829000Y-42471107D01*
X56859781Y-42316358D01*
X56920162Y-42170586D01*
X56920163Y-42170584D01*
X57007822Y-42039392D01*
X57119392Y-41927822D01*
X57250584Y-41840163D01*
X57272792Y-41830964D01*
X57396358Y-41779781D01*
X57551107Y-41749000D01*
X57728893Y-41749000D01*
X57883642Y-41779781D01*
G37*
G36*
X63883642Y-41779781D02*
G01*
X64007208Y-41830964D01*
X64029416Y-41840163D01*
X64160608Y-41927822D01*
X64272178Y-42039392D01*
X64359837Y-42170584D01*
X64359838Y-42170586D01*
X64420219Y-42316358D01*
X64451000Y-42471107D01*
X64451000Y-42628893D01*
X64420219Y-42783642D01*
X64359838Y-42929414D01*
X64359837Y-42929416D01*
X64272178Y-43060608D01*
X64160608Y-43172178D01*
X64029416Y-43259837D01*
X64029415Y-43259838D01*
X64029414Y-43259838D01*
X63883642Y-43320219D01*
X63728893Y-43351000D01*
X63551107Y-43351000D01*
X63396358Y-43320219D01*
X63250586Y-43259838D01*
X63250585Y-43259838D01*
X63250584Y-43259837D01*
X63119392Y-43172178D01*
X63007822Y-43060608D01*
X62920163Y-42929416D01*
X62920162Y-42929414D01*
X62859781Y-42783642D01*
X62829000Y-42628893D01*
X62829000Y-42471107D01*
X62859781Y-42316358D01*
X62920162Y-42170586D01*
X62920163Y-42170584D01*
X63007822Y-42039392D01*
X63119392Y-41927822D01*
X63250584Y-41840163D01*
X63272792Y-41830964D01*
X63396358Y-41779781D01*
X63551107Y-41749000D01*
X63728893Y-41749000D01*
X63883642Y-41779781D01*
G37*
G36*
X66883642Y-41779781D02*
G01*
X67007208Y-41830964D01*
X67029416Y-41840163D01*
X67160608Y-41927822D01*
X67272178Y-42039392D01*
X67359837Y-42170584D01*
X67359838Y-42170586D01*
X67420219Y-42316358D01*
X67451000Y-42471107D01*
X67451000Y-42628893D01*
X67420219Y-42783642D01*
X67359838Y-42929414D01*
X67359837Y-42929416D01*
X67272178Y-43060608D01*
X67160608Y-43172178D01*
X67029416Y-43259837D01*
X67029415Y-43259838D01*
X67029414Y-43259838D01*
X66883642Y-43320219D01*
X66728893Y-43351000D01*
X66551107Y-43351000D01*
X66396358Y-43320219D01*
X66250586Y-43259838D01*
X66250585Y-43259838D01*
X66250584Y-43259837D01*
X66119392Y-43172178D01*
X66007822Y-43060608D01*
X65920163Y-42929416D01*
X65920162Y-42929414D01*
X65859781Y-42783642D01*
X65829000Y-42628893D01*
X65829000Y-42471107D01*
X65859781Y-42316358D01*
X65920162Y-42170586D01*
X65920163Y-42170584D01*
X66007822Y-42039392D01*
X66119392Y-41927822D01*
X66250584Y-41840163D01*
X66272792Y-41830964D01*
X66396358Y-41779781D01*
X66551107Y-41749000D01*
X66728893Y-41749000D01*
X66883642Y-41779781D01*
G37*
G36*
X69883642Y-41779781D02*
G01*
X70007208Y-41830964D01*
X70029416Y-41840163D01*
X70160608Y-41927822D01*
X70272178Y-42039392D01*
X70359837Y-42170584D01*
X70359838Y-42170586D01*
X70420219Y-42316358D01*
X70451000Y-42471107D01*
X70451000Y-42628893D01*
X70420219Y-42783642D01*
X70359838Y-42929414D01*
X70359837Y-42929416D01*
X70272178Y-43060608D01*
X70160608Y-43172178D01*
X70029416Y-43259837D01*
X70029415Y-43259838D01*
X70029414Y-43259838D01*
X69883642Y-43320219D01*
X69728893Y-43351000D01*
X69551107Y-43351000D01*
X69396358Y-43320219D01*
X69250586Y-43259838D01*
X69250585Y-43259838D01*
X69250584Y-43259837D01*
X69119392Y-43172178D01*
X69007822Y-43060608D01*
X68920163Y-42929416D01*
X68920162Y-42929414D01*
X68859781Y-42783642D01*
X68829000Y-42628893D01*
X68829000Y-42471107D01*
X68859781Y-42316358D01*
X68920162Y-42170586D01*
X68920163Y-42170584D01*
X69007822Y-42039392D01*
X69119392Y-41927822D01*
X69250584Y-41840163D01*
X69272792Y-41830964D01*
X69396358Y-41779781D01*
X69551107Y-41749000D01*
X69728893Y-41749000D01*
X69883642Y-41779781D01*
G37*
G36*
X72883642Y-41779781D02*
G01*
X73007208Y-41830964D01*
X73029416Y-41840163D01*
X73160608Y-41927822D01*
X73272178Y-42039392D01*
X73359837Y-42170584D01*
X73359838Y-42170586D01*
X73420219Y-42316358D01*
X73451000Y-42471107D01*
X73451000Y-42628893D01*
X73420219Y-42783642D01*
X73359838Y-42929414D01*
X73359837Y-42929416D01*
X73272178Y-43060608D01*
X73160608Y-43172178D01*
X73029416Y-43259837D01*
X73029415Y-43259838D01*
X73029414Y-43259838D01*
X72883642Y-43320219D01*
X72728893Y-43351000D01*
X72551107Y-43351000D01*
X72396358Y-43320219D01*
X72250586Y-43259838D01*
X72250585Y-43259838D01*
X72250584Y-43259837D01*
X72119392Y-43172178D01*
X72007822Y-43060608D01*
X71920163Y-42929416D01*
X71920162Y-42929414D01*
X71859781Y-42783642D01*
X71829000Y-42628893D01*
X71829000Y-42471107D01*
X71859781Y-42316358D01*
X71920162Y-42170586D01*
X71920163Y-42170584D01*
X72007822Y-42039392D01*
X72119392Y-41927822D01*
X72250584Y-41840163D01*
X72272792Y-41830964D01*
X72396358Y-41779781D01*
X72551107Y-41749000D01*
X72728893Y-41749000D01*
X72883642Y-41779781D01*
G37*
G36*
X75883642Y-41779781D02*
G01*
X76007208Y-41830964D01*
X76029416Y-41840163D01*
X76160608Y-41927822D01*
X76272178Y-42039392D01*
X76359837Y-42170584D01*
X76359838Y-42170586D01*
X76420219Y-42316358D01*
X76451000Y-42471107D01*
X76451000Y-42628893D01*
X76420219Y-42783642D01*
X76359838Y-42929414D01*
X76359837Y-42929416D01*
X76272178Y-43060608D01*
X76160608Y-43172178D01*
X76029416Y-43259837D01*
X76029415Y-43259838D01*
X76029414Y-43259838D01*
X75883642Y-43320219D01*
X75728893Y-43351000D01*
X75551107Y-43351000D01*
X75396358Y-43320219D01*
X75250586Y-43259838D01*
X75250585Y-43259838D01*
X75250584Y-43259837D01*
X75119392Y-43172178D01*
X75007822Y-43060608D01*
X74920163Y-42929416D01*
X74920162Y-42929414D01*
X74859781Y-42783642D01*
X74829000Y-42628893D01*
X74829000Y-42471107D01*
X74859781Y-42316358D01*
X74920162Y-42170586D01*
X74920163Y-42170584D01*
X75007822Y-42039392D01*
X75119392Y-41927822D01*
X75250584Y-41840163D01*
X75272792Y-41830964D01*
X75396358Y-41779781D01*
X75551107Y-41749000D01*
X75728893Y-41749000D01*
X75883642Y-41779781D01*
G37*
G36*
X55303048Y-41753122D02*
G01*
X55337387Y-41763539D01*
X55369036Y-41780456D01*
X55396778Y-41803222D01*
X55419544Y-41830964D01*
X55436461Y-41862613D01*
X55446878Y-41896952D01*
X55451000Y-41938807D01*
X55451000Y-43161193D01*
X55446878Y-43203048D01*
X55436461Y-43237387D01*
X55419544Y-43269036D01*
X55396778Y-43296778D01*
X55369036Y-43319544D01*
X55337387Y-43336461D01*
X55303048Y-43346878D01*
X55261193Y-43351000D01*
X54018807Y-43351000D01*
X53976952Y-43346878D01*
X53942613Y-43336461D01*
X53910964Y-43319544D01*
X53883222Y-43296778D01*
X53860456Y-43269036D01*
X53843539Y-43237387D01*
X53833122Y-43203048D01*
X53829000Y-43161193D01*
X53829000Y-41938807D01*
X53833122Y-41896952D01*
X53843539Y-41862613D01*
X53860456Y-41830964D01*
X53883222Y-41803222D01*
X53910964Y-41780456D01*
X53942613Y-41763539D01*
X53976952Y-41753122D01*
X54018807Y-41749000D01*
X55261193Y-41749000D01*
X55303048Y-41753122D01*
G37*
G36*
X60883642Y-41779781D02*
G01*
X61007208Y-41830964D01*
X61029416Y-41840163D01*
X61160608Y-41927822D01*
X61272178Y-42039392D01*
X61359837Y-42170584D01*
X61359838Y-42170586D01*
X61420219Y-42316358D01*
X61451000Y-42471107D01*
X61451000Y-42628893D01*
X61420219Y-42783642D01*
X61359838Y-42929414D01*
X61359837Y-42929416D01*
X61272178Y-43060608D01*
X61160608Y-43172178D01*
X61029416Y-43259837D01*
X61029415Y-43259838D01*
X61029414Y-43259838D01*
X60883642Y-43320219D01*
X60728893Y-43351000D01*
X60551107Y-43351000D01*
X60396358Y-43320219D01*
X60250586Y-43259838D01*
X60250585Y-43259838D01*
X60250584Y-43259837D01*
X60119392Y-43172178D01*
X60007822Y-43060608D01*
X59920163Y-42929416D01*
X59920162Y-42929414D01*
X59859781Y-42783642D01*
X59829000Y-42628893D01*
X59829000Y-42471107D01*
X59859781Y-42316358D01*
X59920162Y-42170586D01*
X59920163Y-42170584D01*
X60007822Y-42039392D01*
X60119392Y-41927822D01*
X60250584Y-41840163D01*
X60272792Y-41830964D01*
X60396358Y-41779781D01*
X60551107Y-41749000D01*
X60728893Y-41749000D01*
X60883642Y-41779781D01*
G37*
G36*
X81348228Y-39481703D02*
G01*
X81503100Y-39545853D01*
X81642481Y-39638985D01*
X81761015Y-39757519D01*
X81854147Y-39896900D01*
X81918297Y-40051772D01*
X81951000Y-40216184D01*
X81951000Y-40383816D01*
X81918297Y-40548228D01*
X81854147Y-40703100D01*
X81761015Y-40842481D01*
X81642481Y-40961015D01*
X81503100Y-41054147D01*
X81348228Y-41118297D01*
X81183816Y-41151000D01*
X81016184Y-41151000D01*
X80851772Y-41118297D01*
X80696900Y-41054147D01*
X80557519Y-40961015D01*
X80438985Y-40842481D01*
X80345853Y-40703100D01*
X80281703Y-40548228D01*
X80249000Y-40383816D01*
X80249000Y-40216184D01*
X80281703Y-40051772D01*
X80345853Y-39896900D01*
X80438985Y-39757519D01*
X80557519Y-39638985D01*
X80696900Y-39545853D01*
X80851772Y-39481703D01*
X81016184Y-39449000D01*
X81183816Y-39449000D01*
X81348228Y-39481703D01*
G37*
G36*
X57092585Y-36708802D02*
G01*
X57242410Y-36738604D01*
X57524674Y-36855521D01*
X57778705Y-37025259D01*
X57994741Y-37241295D01*
X58164479Y-37495326D01*
X58281396Y-37777590D01*
X58341000Y-38077240D01*
X58341000Y-38382760D01*
X58281396Y-38682410D01*
X58164479Y-38964674D01*
X57994741Y-39218705D01*
X57778705Y-39434741D01*
X57524674Y-39604479D01*
X57242410Y-39721396D01*
X57092585Y-39751198D01*
X56942761Y-39781000D01*
X56637239Y-39781000D01*
X56487415Y-39751198D01*
X56337590Y-39721396D01*
X56055326Y-39604479D01*
X55801295Y-39434741D01*
X55585259Y-39218705D01*
X55415521Y-38964674D01*
X55298604Y-38682410D01*
X55239000Y-38382760D01*
X55239000Y-38077240D01*
X55298604Y-37777590D01*
X55415521Y-37495326D01*
X55585259Y-37241295D01*
X55801295Y-37025259D01*
X56055326Y-36855521D01*
X56337590Y-36738604D01*
X56487415Y-36708802D01*
X56637239Y-36679000D01*
X56942761Y-36679000D01*
X57092585Y-36708802D01*
G37*
G36*
X73792585Y-36708802D02*
G01*
X73942410Y-36738604D01*
X74224674Y-36855521D01*
X74478705Y-37025259D01*
X74694741Y-37241295D01*
X74864479Y-37495326D01*
X74981396Y-37777590D01*
X75041000Y-38077240D01*
X75041000Y-38382760D01*
X74981396Y-38682410D01*
X74864479Y-38964674D01*
X74694741Y-39218705D01*
X74478705Y-39434741D01*
X74224674Y-39604479D01*
X73942410Y-39721396D01*
X73792585Y-39751198D01*
X73642761Y-39781000D01*
X73337239Y-39781000D01*
X73187415Y-39751198D01*
X73037590Y-39721396D01*
X72755326Y-39604479D01*
X72501295Y-39434741D01*
X72285259Y-39218705D01*
X72115521Y-38964674D01*
X71998604Y-38682410D01*
X71939000Y-38382760D01*
X71939000Y-38077240D01*
X71998604Y-37777590D01*
X72115521Y-37495326D01*
X72285259Y-37241295D01*
X72501295Y-37025259D01*
X72755326Y-36855521D01*
X73037590Y-36738604D01*
X73187415Y-36708802D01*
X73337239Y-36679000D01*
X73642761Y-36679000D01*
X73792585Y-36708802D01*
G37*
G36*
X81848015Y-37128839D02*
G01*
X81889361Y-37141381D01*
X81927455Y-37161743D01*
X81960851Y-37189149D01*
X81988257Y-37222545D01*
X82008619Y-37260639D01*
X82021161Y-37301985D01*
X82026000Y-37351115D01*
X82026000Y-38623885D01*
X82021161Y-38673015D01*
X82008619Y-38714361D01*
X81988257Y-38752455D01*
X81960851Y-38785851D01*
X81927455Y-38813257D01*
X81889361Y-38833619D01*
X81848015Y-38846161D01*
X81798885Y-38851000D01*
X80401115Y-38851000D01*
X80351985Y-38846161D01*
X80310639Y-38833619D01*
X80272545Y-38813257D01*
X80239149Y-38785851D01*
X80211743Y-38752455D01*
X80191381Y-38714361D01*
X80178839Y-38673015D01*
X80174000Y-38623885D01*
X80174000Y-37351115D01*
X80178839Y-37301985D01*
X80191381Y-37260639D01*
X80211743Y-37222545D01*
X80239149Y-37189149D01*
X80272545Y-37161743D01*
X80310639Y-37141381D01*
X80351985Y-37128839D01*
X80401115Y-37124000D01*
X81798885Y-37124000D01*
X81848015Y-37128839D01*
G37*
G36*
X81848015Y-34553839D02*
G01*
X81889361Y-34566381D01*
X81927455Y-34586743D01*
X81960851Y-34614149D01*
X81988257Y-34647545D01*
X82008619Y-34685639D01*
X82021161Y-34726985D01*
X82026000Y-34776115D01*
X82026000Y-36048885D01*
X82021161Y-36098015D01*
X82008619Y-36139361D01*
X81988257Y-36177455D01*
X81960851Y-36210851D01*
X81927455Y-36238257D01*
X81889361Y-36258619D01*
X81848015Y-36271161D01*
X81798885Y-36276000D01*
X80401115Y-36276000D01*
X80351985Y-36271161D01*
X80310639Y-36258619D01*
X80272545Y-36238257D01*
X80239149Y-36210851D01*
X80211743Y-36177455D01*
X80191381Y-36139361D01*
X80178839Y-36098015D01*
X80174000Y-36048885D01*
X80174000Y-34776115D01*
X80178839Y-34726985D01*
X80191381Y-34685639D01*
X80211743Y-34647545D01*
X80239149Y-34614149D01*
X80272545Y-34586743D01*
X80310639Y-34566381D01*
X80351985Y-34553839D01*
X80401115Y-34549000D01*
X81798885Y-34549000D01*
X81848015Y-34553839D01*
G37*
M02*
