G04 #@! TF.GenerationSoftware,KiCad,Pcbnew,5.1.5+dfsg1-2build2*
G04 #@! TF.CreationDate,2020-08-03T14:51:06+02:00*
G04 #@! TF.ProjectId,carabiner,63617261-6269-46e6-9572-2e6b69636164,rev?*
G04 #@! TF.SameCoordinates,Original*
G04 #@! TF.FileFunction,Copper,L2,Bot*
G04 #@! TF.FilePolarity,Positive*
%FSLAX46Y46*%
G04 Gerber Fmt 4.6, Leading zero omitted, Abs format (unit mm)*
G04 Created by KiCad (PCBNEW 5.1.5+dfsg1-2build2) date 2020-08-03 14:51:06*
%MOMM*%
%LPD*%
G04 APERTURE LIST*
%ADD10C,0.100000*%
%ADD11C,1.500000*%
%ADD12O,2.000000X1.700000*%
%ADD13R,1.500000X1.000000*%
%ADD14O,1.700000X2.000000*%
%ADD15O,1.950000X1.700000*%
%ADD16O,2.020000X1.500000*%
%ADD17C,5.600000*%
%ADD18O,1.600000X1.600000*%
%ADD19R,1.600000X1.600000*%
%ADD20C,0.600000*%
%ADD21C,0.400000*%
%ADD22C,0.800000*%
%ADD23C,1.500000*%
%ADD24C,0.250000*%
%ADD25C,0.254000*%
G04 APERTURE END LIST*
G04 #@! TA.AperFunction,ComponentPad*
D10*
G36*
X55041756Y-41791806D02*
G01*
X55078159Y-41797206D01*
X55113857Y-41806147D01*
X55148506Y-41818545D01*
X55181774Y-41834280D01*
X55213339Y-41853199D01*
X55242897Y-41875121D01*
X55270165Y-41899835D01*
X55294879Y-41927103D01*
X55316801Y-41956661D01*
X55335720Y-41988226D01*
X55351455Y-42021494D01*
X55363853Y-42056143D01*
X55372794Y-42091841D01*
X55378194Y-42128244D01*
X55380000Y-42165000D01*
X55380000Y-42915000D01*
X55378194Y-42951756D01*
X55372794Y-42988159D01*
X55363853Y-43023857D01*
X55351455Y-43058506D01*
X55335720Y-43091774D01*
X55316801Y-43123339D01*
X55294879Y-43152897D01*
X55270165Y-43180165D01*
X55242897Y-43204879D01*
X55213339Y-43226801D01*
X55181774Y-43245720D01*
X55148506Y-43261455D01*
X55113857Y-43273853D01*
X55078159Y-43282794D01*
X55041756Y-43288194D01*
X55005000Y-43290000D01*
X54255000Y-43290000D01*
X54218244Y-43288194D01*
X54181841Y-43282794D01*
X54146143Y-43273853D01*
X54111494Y-43261455D01*
X54078226Y-43245720D01*
X54046661Y-43226801D01*
X54017103Y-43204879D01*
X53989835Y-43180165D01*
X53965121Y-43152897D01*
X53943199Y-43123339D01*
X53924280Y-43091774D01*
X53908545Y-43058506D01*
X53896147Y-43023857D01*
X53887206Y-42988159D01*
X53881806Y-42951756D01*
X53880000Y-42915000D01*
X53880000Y-42165000D01*
X53881806Y-42128244D01*
X53887206Y-42091841D01*
X53896147Y-42056143D01*
X53908545Y-42021494D01*
X53924280Y-41988226D01*
X53943199Y-41956661D01*
X53965121Y-41927103D01*
X53989835Y-41899835D01*
X54017103Y-41875121D01*
X54046661Y-41853199D01*
X54078226Y-41834280D01*
X54111494Y-41818545D01*
X54146143Y-41806147D01*
X54181841Y-41797206D01*
X54218244Y-41791806D01*
X54255000Y-41790000D01*
X55005000Y-41790000D01*
X55041756Y-41791806D01*
G37*
G04 #@! TD.AperFunction*
D11*
X57630000Y-42540000D03*
X60630000Y-42540000D03*
X63630000Y-42540000D03*
X66630000Y-42540000D03*
X69630000Y-42540000D03*
X72630000Y-42540000D03*
X75630000Y-42540000D03*
X54630000Y-45540000D03*
X57630000Y-45540000D03*
X60630000Y-45540000D03*
X63630000Y-45540000D03*
X66630000Y-45540000D03*
X69630000Y-45540000D03*
X72630000Y-45540000D03*
X75630000Y-45540000D03*
X75630000Y-45550000D03*
X72630000Y-45550000D03*
X69630000Y-45550000D03*
X66630000Y-45550000D03*
X63630000Y-45550000D03*
X60630000Y-45550000D03*
X57630000Y-45550000D03*
X54630000Y-45550000D03*
X75630000Y-42550000D03*
X72630000Y-42550000D03*
X69630000Y-42550000D03*
X66630000Y-42550000D03*
X63630000Y-42550000D03*
X60630000Y-42550000D03*
X57630000Y-42550000D03*
G04 #@! TA.AperFunction,ComponentPad*
D10*
G36*
X55154504Y-41801204D02*
G01*
X55178773Y-41804804D01*
X55202571Y-41810765D01*
X55225671Y-41819030D01*
X55247849Y-41829520D01*
X55268893Y-41842133D01*
X55288598Y-41856747D01*
X55306777Y-41873223D01*
X55323253Y-41891402D01*
X55337867Y-41911107D01*
X55350480Y-41932151D01*
X55360970Y-41954329D01*
X55369235Y-41977429D01*
X55375196Y-42001227D01*
X55378796Y-42025496D01*
X55380000Y-42050000D01*
X55380000Y-43050000D01*
X55378796Y-43074504D01*
X55375196Y-43098773D01*
X55369235Y-43122571D01*
X55360970Y-43145671D01*
X55350480Y-43167849D01*
X55337867Y-43188893D01*
X55323253Y-43208598D01*
X55306777Y-43226777D01*
X55288598Y-43243253D01*
X55268893Y-43257867D01*
X55247849Y-43270480D01*
X55225671Y-43280970D01*
X55202571Y-43289235D01*
X55178773Y-43295196D01*
X55154504Y-43298796D01*
X55130000Y-43300000D01*
X54130000Y-43300000D01*
X54105496Y-43298796D01*
X54081227Y-43295196D01*
X54057429Y-43289235D01*
X54034329Y-43280970D01*
X54012151Y-43270480D01*
X53991107Y-43257867D01*
X53971402Y-43243253D01*
X53953223Y-43226777D01*
X53936747Y-43208598D01*
X53922133Y-43188893D01*
X53909520Y-43167849D01*
X53899030Y-43145671D01*
X53890765Y-43122571D01*
X53884804Y-43098773D01*
X53881204Y-43074504D01*
X53880000Y-43050000D01*
X53880000Y-42050000D01*
X53881204Y-42025496D01*
X53884804Y-42001227D01*
X53890765Y-41977429D01*
X53899030Y-41954329D01*
X53909520Y-41932151D01*
X53922133Y-41911107D01*
X53936747Y-41891402D01*
X53953223Y-41873223D01*
X53971402Y-41856747D01*
X53991107Y-41842133D01*
X54012151Y-41829520D01*
X54034329Y-41819030D01*
X54057429Y-41810765D01*
X54081227Y-41804804D01*
X54105496Y-41801204D01*
X54130000Y-41800000D01*
X55130000Y-41800000D01*
X55154504Y-41801204D01*
G37*
G04 #@! TD.AperFunction*
D12*
X63300000Y-54400000D03*
G04 #@! TA.AperFunction,ComponentPad*
D10*
G36*
X64074504Y-51051204D02*
G01*
X64098773Y-51054804D01*
X64122571Y-51060765D01*
X64145671Y-51069030D01*
X64167849Y-51079520D01*
X64188893Y-51092133D01*
X64208598Y-51106747D01*
X64226777Y-51123223D01*
X64243253Y-51141402D01*
X64257867Y-51161107D01*
X64270480Y-51182151D01*
X64280970Y-51204329D01*
X64289235Y-51227429D01*
X64295196Y-51251227D01*
X64298796Y-51275496D01*
X64300000Y-51300000D01*
X64300000Y-52500000D01*
X64298796Y-52524504D01*
X64295196Y-52548773D01*
X64289235Y-52572571D01*
X64280970Y-52595671D01*
X64270480Y-52617849D01*
X64257867Y-52638893D01*
X64243253Y-52658598D01*
X64226777Y-52676777D01*
X64208598Y-52693253D01*
X64188893Y-52707867D01*
X64167849Y-52720480D01*
X64145671Y-52730970D01*
X64122571Y-52739235D01*
X64098773Y-52745196D01*
X64074504Y-52748796D01*
X64050000Y-52750000D01*
X62550000Y-52750000D01*
X62525496Y-52748796D01*
X62501227Y-52745196D01*
X62477429Y-52739235D01*
X62454329Y-52730970D01*
X62432151Y-52720480D01*
X62411107Y-52707867D01*
X62391402Y-52693253D01*
X62373223Y-52676777D01*
X62356747Y-52658598D01*
X62342133Y-52638893D01*
X62329520Y-52617849D01*
X62319030Y-52595671D01*
X62310765Y-52572571D01*
X62304804Y-52548773D01*
X62301204Y-52524504D01*
X62300000Y-52500000D01*
X62300000Y-51300000D01*
X62301204Y-51275496D01*
X62304804Y-51251227D01*
X62310765Y-51227429D01*
X62319030Y-51204329D01*
X62329520Y-51182151D01*
X62342133Y-51161107D01*
X62356747Y-51141402D01*
X62373223Y-51123223D01*
X62391402Y-51106747D01*
X62411107Y-51092133D01*
X62432151Y-51079520D01*
X62454329Y-51069030D01*
X62477429Y-51060765D01*
X62501227Y-51054804D01*
X62525496Y-51051204D01*
X62550000Y-51050000D01*
X64050000Y-51050000D01*
X64074504Y-51051204D01*
G37*
G04 #@! TD.AperFunction*
D13*
X62000000Y-61700000D03*
G04 #@! TA.AperFunction,SMDPad,CuDef*
D10*
G36*
X62749398Y-63000000D02*
G01*
X62749398Y-63024534D01*
X62744588Y-63073365D01*
X62735016Y-63121490D01*
X62720772Y-63168445D01*
X62701995Y-63213778D01*
X62678864Y-63257051D01*
X62651604Y-63297850D01*
X62620476Y-63335779D01*
X62585779Y-63370476D01*
X62547850Y-63401604D01*
X62507051Y-63428864D01*
X62463778Y-63451995D01*
X62418445Y-63470772D01*
X62371490Y-63485016D01*
X62323365Y-63494588D01*
X62274534Y-63499398D01*
X62250000Y-63499398D01*
X62250000Y-63500000D01*
X61750000Y-63500000D01*
X61750000Y-63499398D01*
X61725466Y-63499398D01*
X61676635Y-63494588D01*
X61628510Y-63485016D01*
X61581555Y-63470772D01*
X61536222Y-63451995D01*
X61492949Y-63428864D01*
X61452150Y-63401604D01*
X61414221Y-63370476D01*
X61379524Y-63335779D01*
X61348396Y-63297850D01*
X61321136Y-63257051D01*
X61298005Y-63213778D01*
X61279228Y-63168445D01*
X61264984Y-63121490D01*
X61255412Y-63073365D01*
X61250602Y-63024534D01*
X61250602Y-63000000D01*
X61250000Y-63000000D01*
X61250000Y-62450000D01*
X62750000Y-62450000D01*
X62750000Y-63000000D01*
X62749398Y-63000000D01*
G37*
G04 #@! TD.AperFunction*
G04 #@! TA.AperFunction,SMDPad,CuDef*
G36*
X61250000Y-60950000D02*
G01*
X61250000Y-60400000D01*
X61250602Y-60400000D01*
X61250602Y-60375466D01*
X61255412Y-60326635D01*
X61264984Y-60278510D01*
X61279228Y-60231555D01*
X61298005Y-60186222D01*
X61321136Y-60142949D01*
X61348396Y-60102150D01*
X61379524Y-60064221D01*
X61414221Y-60029524D01*
X61452150Y-59998396D01*
X61492949Y-59971136D01*
X61536222Y-59948005D01*
X61581555Y-59929228D01*
X61628510Y-59914984D01*
X61676635Y-59905412D01*
X61725466Y-59900602D01*
X61750000Y-59900602D01*
X61750000Y-59900000D01*
X62250000Y-59900000D01*
X62250000Y-59900602D01*
X62274534Y-59900602D01*
X62323365Y-59905412D01*
X62371490Y-59914984D01*
X62418445Y-59929228D01*
X62463778Y-59948005D01*
X62507051Y-59971136D01*
X62547850Y-59998396D01*
X62585779Y-60029524D01*
X62620476Y-60064221D01*
X62651604Y-60102150D01*
X62678864Y-60142949D01*
X62701995Y-60186222D01*
X62720772Y-60231555D01*
X62735016Y-60278510D01*
X62744588Y-60326635D01*
X62749398Y-60375466D01*
X62749398Y-60400000D01*
X62750000Y-60400000D01*
X62750000Y-60950000D01*
X61250000Y-60950000D01*
G37*
G04 #@! TD.AperFunction*
D13*
X58700000Y-62600000D03*
G04 #@! TA.AperFunction,SMDPad,CuDef*
D10*
G36*
X59449398Y-63900000D02*
G01*
X59449398Y-63924534D01*
X59444588Y-63973365D01*
X59435016Y-64021490D01*
X59420772Y-64068445D01*
X59401995Y-64113778D01*
X59378864Y-64157051D01*
X59351604Y-64197850D01*
X59320476Y-64235779D01*
X59285779Y-64270476D01*
X59247850Y-64301604D01*
X59207051Y-64328864D01*
X59163778Y-64351995D01*
X59118445Y-64370772D01*
X59071490Y-64385016D01*
X59023365Y-64394588D01*
X58974534Y-64399398D01*
X58950000Y-64399398D01*
X58950000Y-64400000D01*
X58450000Y-64400000D01*
X58450000Y-64399398D01*
X58425466Y-64399398D01*
X58376635Y-64394588D01*
X58328510Y-64385016D01*
X58281555Y-64370772D01*
X58236222Y-64351995D01*
X58192949Y-64328864D01*
X58152150Y-64301604D01*
X58114221Y-64270476D01*
X58079524Y-64235779D01*
X58048396Y-64197850D01*
X58021136Y-64157051D01*
X57998005Y-64113778D01*
X57979228Y-64068445D01*
X57964984Y-64021490D01*
X57955412Y-63973365D01*
X57950602Y-63924534D01*
X57950602Y-63900000D01*
X57950000Y-63900000D01*
X57950000Y-63350000D01*
X59450000Y-63350000D01*
X59450000Y-63900000D01*
X59449398Y-63900000D01*
G37*
G04 #@! TD.AperFunction*
G04 #@! TA.AperFunction,SMDPad,CuDef*
G36*
X57950000Y-61850000D02*
G01*
X57950000Y-61300000D01*
X57950602Y-61300000D01*
X57950602Y-61275466D01*
X57955412Y-61226635D01*
X57964984Y-61178510D01*
X57979228Y-61131555D01*
X57998005Y-61086222D01*
X58021136Y-61042949D01*
X58048396Y-61002150D01*
X58079524Y-60964221D01*
X58114221Y-60929524D01*
X58152150Y-60898396D01*
X58192949Y-60871136D01*
X58236222Y-60848005D01*
X58281555Y-60829228D01*
X58328510Y-60814984D01*
X58376635Y-60805412D01*
X58425466Y-60800602D01*
X58450000Y-60800602D01*
X58450000Y-60800000D01*
X58950000Y-60800000D01*
X58950000Y-60800602D01*
X58974534Y-60800602D01*
X59023365Y-60805412D01*
X59071490Y-60814984D01*
X59118445Y-60829228D01*
X59163778Y-60848005D01*
X59207051Y-60871136D01*
X59247850Y-60898396D01*
X59285779Y-60929524D01*
X59320476Y-60964221D01*
X59351604Y-61002150D01*
X59378864Y-61042949D01*
X59401995Y-61086222D01*
X59420772Y-61131555D01*
X59435016Y-61178510D01*
X59444588Y-61226635D01*
X59449398Y-61275466D01*
X59449398Y-61300000D01*
X59450000Y-61300000D01*
X59450000Y-61850000D01*
X57950000Y-61850000D01*
G37*
G04 #@! TD.AperFunction*
D14*
X72200000Y-51500000D03*
G04 #@! TA.AperFunction,ComponentPad*
D10*
G36*
X70324504Y-50501204D02*
G01*
X70348773Y-50504804D01*
X70372571Y-50510765D01*
X70395671Y-50519030D01*
X70417849Y-50529520D01*
X70438893Y-50542133D01*
X70458598Y-50556747D01*
X70476777Y-50573223D01*
X70493253Y-50591402D01*
X70507867Y-50611107D01*
X70520480Y-50632151D01*
X70530970Y-50654329D01*
X70539235Y-50677429D01*
X70545196Y-50701227D01*
X70548796Y-50725496D01*
X70550000Y-50750000D01*
X70550000Y-52250000D01*
X70548796Y-52274504D01*
X70545196Y-52298773D01*
X70539235Y-52322571D01*
X70530970Y-52345671D01*
X70520480Y-52367849D01*
X70507867Y-52388893D01*
X70493253Y-52408598D01*
X70476777Y-52426777D01*
X70458598Y-52443253D01*
X70438893Y-52457867D01*
X70417849Y-52470480D01*
X70395671Y-52480970D01*
X70372571Y-52489235D01*
X70348773Y-52495196D01*
X70324504Y-52498796D01*
X70300000Y-52500000D01*
X69100000Y-52500000D01*
X69075496Y-52498796D01*
X69051227Y-52495196D01*
X69027429Y-52489235D01*
X69004329Y-52480970D01*
X68982151Y-52470480D01*
X68961107Y-52457867D01*
X68941402Y-52443253D01*
X68923223Y-52426777D01*
X68906747Y-52408598D01*
X68892133Y-52388893D01*
X68879520Y-52367849D01*
X68869030Y-52345671D01*
X68860765Y-52322571D01*
X68854804Y-52298773D01*
X68851204Y-52274504D01*
X68850000Y-52250000D01*
X68850000Y-50750000D01*
X68851204Y-50725496D01*
X68854804Y-50701227D01*
X68860765Y-50677429D01*
X68869030Y-50654329D01*
X68879520Y-50632151D01*
X68892133Y-50611107D01*
X68906747Y-50591402D01*
X68923223Y-50573223D01*
X68941402Y-50556747D01*
X68961107Y-50542133D01*
X68982151Y-50529520D01*
X69004329Y-50519030D01*
X69027429Y-50510765D01*
X69051227Y-50504804D01*
X69075496Y-50501204D01*
X69100000Y-50500000D01*
X70300000Y-50500000D01*
X70324504Y-50501204D01*
G37*
G04 #@! TD.AperFunction*
D15*
X72400000Y-66000000D03*
X72400000Y-63500000D03*
X72400000Y-61000000D03*
G04 #@! TA.AperFunction,ComponentPad*
D10*
G36*
X73149504Y-57651204D02*
G01*
X73173773Y-57654804D01*
X73197571Y-57660765D01*
X73220671Y-57669030D01*
X73242849Y-57679520D01*
X73263893Y-57692133D01*
X73283598Y-57706747D01*
X73301777Y-57723223D01*
X73318253Y-57741402D01*
X73332867Y-57761107D01*
X73345480Y-57782151D01*
X73355970Y-57804329D01*
X73364235Y-57827429D01*
X73370196Y-57851227D01*
X73373796Y-57875496D01*
X73375000Y-57900000D01*
X73375000Y-59100000D01*
X73373796Y-59124504D01*
X73370196Y-59148773D01*
X73364235Y-59172571D01*
X73355970Y-59195671D01*
X73345480Y-59217849D01*
X73332867Y-59238893D01*
X73318253Y-59258598D01*
X73301777Y-59276777D01*
X73283598Y-59293253D01*
X73263893Y-59307867D01*
X73242849Y-59320480D01*
X73220671Y-59330970D01*
X73197571Y-59339235D01*
X73173773Y-59345196D01*
X73149504Y-59348796D01*
X73125000Y-59350000D01*
X71675000Y-59350000D01*
X71650496Y-59348796D01*
X71626227Y-59345196D01*
X71602429Y-59339235D01*
X71579329Y-59330970D01*
X71557151Y-59320480D01*
X71536107Y-59307867D01*
X71516402Y-59293253D01*
X71498223Y-59276777D01*
X71481747Y-59258598D01*
X71467133Y-59238893D01*
X71454520Y-59217849D01*
X71444030Y-59195671D01*
X71435765Y-59172571D01*
X71429804Y-59148773D01*
X71426204Y-59124504D01*
X71425000Y-59100000D01*
X71425000Y-57900000D01*
X71426204Y-57875496D01*
X71429804Y-57851227D01*
X71435765Y-57827429D01*
X71444030Y-57804329D01*
X71454520Y-57782151D01*
X71467133Y-57761107D01*
X71481747Y-57741402D01*
X71498223Y-57723223D01*
X71516402Y-57706747D01*
X71536107Y-57692133D01*
X71557151Y-57679520D01*
X71579329Y-57669030D01*
X71602429Y-57660765D01*
X71626227Y-57654804D01*
X71650496Y-57651204D01*
X71675000Y-57650000D01*
X73125000Y-57650000D01*
X73149504Y-57651204D01*
G37*
G04 #@! TD.AperFunction*
D15*
X79400000Y-66000000D03*
X79400000Y-63500000D03*
X79400000Y-61000000D03*
G04 #@! TA.AperFunction,ComponentPad*
D10*
G36*
X80149504Y-57651204D02*
G01*
X80173773Y-57654804D01*
X80197571Y-57660765D01*
X80220671Y-57669030D01*
X80242849Y-57679520D01*
X80263893Y-57692133D01*
X80283598Y-57706747D01*
X80301777Y-57723223D01*
X80318253Y-57741402D01*
X80332867Y-57761107D01*
X80345480Y-57782151D01*
X80355970Y-57804329D01*
X80364235Y-57827429D01*
X80370196Y-57851227D01*
X80373796Y-57875496D01*
X80375000Y-57900000D01*
X80375000Y-59100000D01*
X80373796Y-59124504D01*
X80370196Y-59148773D01*
X80364235Y-59172571D01*
X80355970Y-59195671D01*
X80345480Y-59217849D01*
X80332867Y-59238893D01*
X80318253Y-59258598D01*
X80301777Y-59276777D01*
X80283598Y-59293253D01*
X80263893Y-59307867D01*
X80242849Y-59320480D01*
X80220671Y-59330970D01*
X80197571Y-59339235D01*
X80173773Y-59345196D01*
X80149504Y-59348796D01*
X80125000Y-59350000D01*
X78675000Y-59350000D01*
X78650496Y-59348796D01*
X78626227Y-59345196D01*
X78602429Y-59339235D01*
X78579329Y-59330970D01*
X78557151Y-59320480D01*
X78536107Y-59307867D01*
X78516402Y-59293253D01*
X78498223Y-59276777D01*
X78481747Y-59258598D01*
X78467133Y-59238893D01*
X78454520Y-59217849D01*
X78444030Y-59195671D01*
X78435765Y-59172571D01*
X78429804Y-59148773D01*
X78426204Y-59124504D01*
X78425000Y-59100000D01*
X78425000Y-57900000D01*
X78426204Y-57875496D01*
X78429804Y-57851227D01*
X78435765Y-57827429D01*
X78444030Y-57804329D01*
X78454520Y-57782151D01*
X78467133Y-57761107D01*
X78481747Y-57741402D01*
X78498223Y-57723223D01*
X78516402Y-57706747D01*
X78536107Y-57692133D01*
X78557151Y-57679520D01*
X78579329Y-57669030D01*
X78602429Y-57660765D01*
X78626227Y-57654804D01*
X78650496Y-57651204D01*
X78675000Y-57650000D01*
X80125000Y-57650000D01*
X80149504Y-57651204D01*
G37*
G04 #@! TD.AperFunction*
D14*
X56200000Y-65500000D03*
G04 #@! TA.AperFunction,ComponentPad*
D10*
G36*
X54324504Y-64501204D02*
G01*
X54348773Y-64504804D01*
X54372571Y-64510765D01*
X54395671Y-64519030D01*
X54417849Y-64529520D01*
X54438893Y-64542133D01*
X54458598Y-64556747D01*
X54476777Y-64573223D01*
X54493253Y-64591402D01*
X54507867Y-64611107D01*
X54520480Y-64632151D01*
X54530970Y-64654329D01*
X54539235Y-64677429D01*
X54545196Y-64701227D01*
X54548796Y-64725496D01*
X54550000Y-64750000D01*
X54550000Y-66250000D01*
X54548796Y-66274504D01*
X54545196Y-66298773D01*
X54539235Y-66322571D01*
X54530970Y-66345671D01*
X54520480Y-66367849D01*
X54507867Y-66388893D01*
X54493253Y-66408598D01*
X54476777Y-66426777D01*
X54458598Y-66443253D01*
X54438893Y-66457867D01*
X54417849Y-66470480D01*
X54395671Y-66480970D01*
X54372571Y-66489235D01*
X54348773Y-66495196D01*
X54324504Y-66498796D01*
X54300000Y-66500000D01*
X53100000Y-66500000D01*
X53075496Y-66498796D01*
X53051227Y-66495196D01*
X53027429Y-66489235D01*
X53004329Y-66480970D01*
X52982151Y-66470480D01*
X52961107Y-66457867D01*
X52941402Y-66443253D01*
X52923223Y-66426777D01*
X52906747Y-66408598D01*
X52892133Y-66388893D01*
X52879520Y-66367849D01*
X52869030Y-66345671D01*
X52860765Y-66322571D01*
X52854804Y-66298773D01*
X52851204Y-66274504D01*
X52850000Y-66250000D01*
X52850000Y-64750000D01*
X52851204Y-64725496D01*
X52854804Y-64701227D01*
X52860765Y-64677429D01*
X52869030Y-64654329D01*
X52879520Y-64632151D01*
X52892133Y-64611107D01*
X52906747Y-64591402D01*
X52923223Y-64573223D01*
X52941402Y-64556747D01*
X52961107Y-64542133D01*
X52982151Y-64529520D01*
X53004329Y-64519030D01*
X53027429Y-64510765D01*
X53051227Y-64504804D01*
X53075496Y-64501204D01*
X53100000Y-64500000D01*
X54300000Y-64500000D01*
X54324504Y-64501204D01*
G37*
G04 #@! TD.AperFunction*
D14*
X56200000Y-58600000D03*
G04 #@! TA.AperFunction,ComponentPad*
D10*
G36*
X54324504Y-57601204D02*
G01*
X54348773Y-57604804D01*
X54372571Y-57610765D01*
X54395671Y-57619030D01*
X54417849Y-57629520D01*
X54438893Y-57642133D01*
X54458598Y-57656747D01*
X54476777Y-57673223D01*
X54493253Y-57691402D01*
X54507867Y-57711107D01*
X54520480Y-57732151D01*
X54530970Y-57754329D01*
X54539235Y-57777429D01*
X54545196Y-57801227D01*
X54548796Y-57825496D01*
X54550000Y-57850000D01*
X54550000Y-59350000D01*
X54548796Y-59374504D01*
X54545196Y-59398773D01*
X54539235Y-59422571D01*
X54530970Y-59445671D01*
X54520480Y-59467849D01*
X54507867Y-59488893D01*
X54493253Y-59508598D01*
X54476777Y-59526777D01*
X54458598Y-59543253D01*
X54438893Y-59557867D01*
X54417849Y-59570480D01*
X54395671Y-59580970D01*
X54372571Y-59589235D01*
X54348773Y-59595196D01*
X54324504Y-59598796D01*
X54300000Y-59600000D01*
X53100000Y-59600000D01*
X53075496Y-59598796D01*
X53051227Y-59595196D01*
X53027429Y-59589235D01*
X53004329Y-59580970D01*
X52982151Y-59570480D01*
X52961107Y-59557867D01*
X52941402Y-59543253D01*
X52923223Y-59526777D01*
X52906747Y-59508598D01*
X52892133Y-59488893D01*
X52879520Y-59467849D01*
X52869030Y-59445671D01*
X52860765Y-59422571D01*
X52854804Y-59398773D01*
X52851204Y-59374504D01*
X52850000Y-59350000D01*
X52850000Y-57850000D01*
X52851204Y-57825496D01*
X52854804Y-57801227D01*
X52860765Y-57777429D01*
X52869030Y-57754329D01*
X52879520Y-57732151D01*
X52892133Y-57711107D01*
X52906747Y-57691402D01*
X52923223Y-57673223D01*
X52941402Y-57656747D01*
X52961107Y-57642133D01*
X52982151Y-57629520D01*
X53004329Y-57619030D01*
X53027429Y-57610765D01*
X53051227Y-57604804D01*
X53075496Y-57601204D01*
X53100000Y-57600000D01*
X54300000Y-57600000D01*
X54324504Y-57601204D01*
G37*
G04 #@! TD.AperFunction*
G04 #@! TA.AperFunction,SMDPad,CuDef*
G36*
X81300000Y-39175000D02*
G01*
X80550000Y-38675000D01*
X80550000Y-37675000D01*
X82050000Y-37675000D01*
X82050000Y-38675000D01*
X81300000Y-39175000D01*
G37*
G04 #@! TD.AperFunction*
G04 #@! TA.AperFunction,SMDPad,CuDef*
G36*
X80550000Y-40125000D02*
G01*
X80550000Y-38975000D01*
X81300000Y-39475000D01*
X82050000Y-38975000D01*
X82050000Y-40125000D01*
X80550000Y-40125000D01*
G37*
G04 #@! TD.AperFunction*
D12*
X65400000Y-64200000D03*
G04 #@! TA.AperFunction,ComponentPad*
D10*
G36*
X66174504Y-60851204D02*
G01*
X66198773Y-60854804D01*
X66222571Y-60860765D01*
X66245671Y-60869030D01*
X66267849Y-60879520D01*
X66288893Y-60892133D01*
X66308598Y-60906747D01*
X66326777Y-60923223D01*
X66343253Y-60941402D01*
X66357867Y-60961107D01*
X66370480Y-60982151D01*
X66380970Y-61004329D01*
X66389235Y-61027429D01*
X66395196Y-61051227D01*
X66398796Y-61075496D01*
X66400000Y-61100000D01*
X66400000Y-62300000D01*
X66398796Y-62324504D01*
X66395196Y-62348773D01*
X66389235Y-62372571D01*
X66380970Y-62395671D01*
X66370480Y-62417849D01*
X66357867Y-62438893D01*
X66343253Y-62458598D01*
X66326777Y-62476777D01*
X66308598Y-62493253D01*
X66288893Y-62507867D01*
X66267849Y-62520480D01*
X66245671Y-62530970D01*
X66222571Y-62539235D01*
X66198773Y-62545196D01*
X66174504Y-62548796D01*
X66150000Y-62550000D01*
X64650000Y-62550000D01*
X64625496Y-62548796D01*
X64601227Y-62545196D01*
X64577429Y-62539235D01*
X64554329Y-62530970D01*
X64532151Y-62520480D01*
X64511107Y-62507867D01*
X64491402Y-62493253D01*
X64473223Y-62476777D01*
X64456747Y-62458598D01*
X64442133Y-62438893D01*
X64429520Y-62417849D01*
X64419030Y-62395671D01*
X64410765Y-62372571D01*
X64404804Y-62348773D01*
X64401204Y-62324504D01*
X64400000Y-62300000D01*
X64400000Y-61100000D01*
X64401204Y-61075496D01*
X64404804Y-61051227D01*
X64410765Y-61027429D01*
X64419030Y-61004329D01*
X64429520Y-60982151D01*
X64442133Y-60961107D01*
X64456747Y-60941402D01*
X64473223Y-60923223D01*
X64491402Y-60906747D01*
X64511107Y-60892133D01*
X64532151Y-60879520D01*
X64554329Y-60869030D01*
X64577429Y-60860765D01*
X64601227Y-60854804D01*
X64625496Y-60851204D01*
X64650000Y-60850000D01*
X66150000Y-60850000D01*
X66174504Y-60851204D01*
G37*
G04 #@! TD.AperFunction*
D16*
X63300000Y-54800000D03*
G04 #@! TA.AperFunction,ComponentPad*
D10*
G36*
X64084504Y-51051204D02*
G01*
X64108773Y-51054804D01*
X64132571Y-51060765D01*
X64155671Y-51069030D01*
X64177849Y-51079520D01*
X64198893Y-51092133D01*
X64218598Y-51106747D01*
X64236777Y-51123223D01*
X64253253Y-51141402D01*
X64267867Y-51161107D01*
X64280480Y-51182151D01*
X64290970Y-51204329D01*
X64299235Y-51227429D01*
X64305196Y-51251227D01*
X64308796Y-51275496D01*
X64310000Y-51300000D01*
X64310000Y-52300000D01*
X64308796Y-52324504D01*
X64305196Y-52348773D01*
X64299235Y-52372571D01*
X64290970Y-52395671D01*
X64280480Y-52417849D01*
X64267867Y-52438893D01*
X64253253Y-52458598D01*
X64236777Y-52476777D01*
X64218598Y-52493253D01*
X64198893Y-52507867D01*
X64177849Y-52520480D01*
X64155671Y-52530970D01*
X64132571Y-52539235D01*
X64108773Y-52545196D01*
X64084504Y-52548796D01*
X64060000Y-52550000D01*
X62540000Y-52550000D01*
X62515496Y-52548796D01*
X62491227Y-52545196D01*
X62467429Y-52539235D01*
X62444329Y-52530970D01*
X62422151Y-52520480D01*
X62401107Y-52507867D01*
X62381402Y-52493253D01*
X62363223Y-52476777D01*
X62346747Y-52458598D01*
X62332133Y-52438893D01*
X62319520Y-52417849D01*
X62309030Y-52395671D01*
X62300765Y-52372571D01*
X62294804Y-52348773D01*
X62291204Y-52324504D01*
X62290000Y-52300000D01*
X62290000Y-51300000D01*
X62291204Y-51275496D01*
X62294804Y-51251227D01*
X62300765Y-51227429D01*
X62309030Y-51204329D01*
X62319520Y-51182151D01*
X62332133Y-51161107D01*
X62346747Y-51141402D01*
X62363223Y-51123223D01*
X62381402Y-51106747D01*
X62401107Y-51092133D01*
X62422151Y-51079520D01*
X62444329Y-51069030D01*
X62467429Y-51060765D01*
X62491227Y-51054804D01*
X62515496Y-51051204D01*
X62540000Y-51050000D01*
X64060000Y-51050000D01*
X64084504Y-51051204D01*
G37*
G04 #@! TD.AperFunction*
D17*
X79700000Y-52000000D03*
X53600000Y-52000000D03*
D18*
X81300000Y-35300000D03*
D19*
X81300000Y-42920000D03*
D20*
X66900010Y-62849990D02*
X65550000Y-64200000D01*
X67100000Y-62600000D02*
X66900010Y-62849990D01*
X66999990Y-59899990D02*
X67100000Y-60000000D01*
X65550000Y-64200000D02*
X65400000Y-64200000D01*
X67100000Y-60000000D02*
X67100000Y-62600000D01*
X66900010Y-59899990D02*
X66999990Y-59899990D01*
X66900010Y-57400010D02*
X66900010Y-59899990D01*
X65199990Y-55699990D02*
X66900010Y-57400010D01*
D21*
X74999980Y-55599980D02*
X74999980Y-48919980D01*
X74999980Y-48919980D02*
X72630000Y-46550000D01*
X77274990Y-57874990D02*
X74999980Y-55599980D01*
X77274990Y-62749990D02*
X77274990Y-57874990D01*
X78025000Y-63500000D02*
X77274990Y-62749990D01*
X72630000Y-46550000D02*
X72630000Y-45540000D01*
X79400000Y-63500000D02*
X78025000Y-63500000D01*
D22*
X70625000Y-66000000D02*
X72400000Y-66000000D01*
X70200000Y-65575000D02*
X70625000Y-66000000D01*
X70200000Y-57500000D02*
X70200000Y-65575000D01*
X67000000Y-54300000D02*
X70200000Y-57500000D01*
X67980001Y-49719999D02*
X67000000Y-50700000D01*
X67980001Y-44900001D02*
X67980001Y-49719999D01*
X67000000Y-50700000D02*
X67000000Y-54300000D01*
X66630000Y-43550000D02*
X67980001Y-44900001D01*
X66630000Y-43550000D02*
X66630000Y-42550000D01*
X72525000Y-61000000D02*
X72400000Y-61000000D01*
X74175000Y-59350000D02*
X72525000Y-61000000D01*
X74175000Y-55175000D02*
X74175000Y-59350000D01*
X69630000Y-46550000D02*
X74199970Y-51119970D01*
X74199970Y-55150030D02*
X74175000Y-55175000D01*
X74199970Y-51119970D02*
X74199970Y-55150030D01*
X69630000Y-46550000D02*
X69630000Y-45550000D01*
X62000000Y-60400000D02*
X61545936Y-59945936D01*
X62000000Y-60400000D02*
X59300000Y-57700000D01*
X58700000Y-58300000D02*
X59300000Y-57700000D01*
X58700000Y-61300000D02*
X58700000Y-58300000D01*
X57900000Y-49820000D02*
X54630000Y-46550000D01*
X57900000Y-51800000D02*
X57900000Y-49820000D01*
X57900000Y-56300000D02*
X59300000Y-57700000D01*
X57900000Y-51800000D02*
X57900000Y-56300000D01*
X61200000Y-51800000D02*
X62500000Y-51800000D01*
X57900000Y-51800000D02*
X61200000Y-51800000D01*
D23*
X63300000Y-51900000D02*
X58000000Y-51900000D01*
X58000000Y-49920000D02*
X57900000Y-49820000D01*
X58000000Y-51900000D02*
X58000000Y-49920000D01*
X58000000Y-49920000D02*
X54630000Y-46550000D01*
D22*
X54630000Y-45540000D02*
X54630000Y-46550000D01*
D23*
X54630000Y-45550000D02*
X54630000Y-46550000D01*
D24*
X81300000Y-36431370D02*
X81300000Y-38175000D01*
D21*
X81300000Y-35300000D02*
X81300000Y-38175000D01*
X75630000Y-40970000D02*
X81300000Y-35300000D01*
X75630000Y-42550000D02*
X75630000Y-40970000D01*
D24*
X76200000Y-50600000D02*
X76200000Y-53600000D01*
D21*
X81300000Y-39625000D02*
X81300000Y-42920000D01*
X76200000Y-50500000D02*
X76200000Y-50600000D01*
X81200000Y-45500000D02*
X76200000Y-50500000D01*
X81300000Y-45500000D02*
X81200000Y-45500000D01*
X81300000Y-42920000D02*
X81300000Y-45500000D01*
X76200000Y-50500000D02*
X76200000Y-53493934D01*
X76200000Y-53700000D02*
X79400000Y-56900000D01*
X76200000Y-53600000D02*
X76200000Y-53700000D01*
X79400000Y-56900000D02*
X79400000Y-58500000D01*
D24*
X79400000Y-61000000D02*
X79400000Y-60638190D01*
D21*
X75599990Y-47640670D02*
X75599990Y-54999990D01*
X75630000Y-47610660D02*
X75599990Y-47640670D01*
X75630000Y-46550000D02*
X75630000Y-47610660D01*
X75599990Y-54999990D02*
X77900000Y-57300000D01*
X78025000Y-61000000D02*
X79400000Y-61000000D01*
X77900000Y-60875000D02*
X78025000Y-61000000D01*
X77900000Y-57300000D02*
X77900000Y-60875000D01*
X75630000Y-46550000D02*
X75630000Y-45540000D01*
D20*
X62000000Y-61700000D02*
X65400000Y-61700000D01*
X53700000Y-64500000D02*
X53700000Y-65500000D01*
X55600000Y-62600000D02*
X53700000Y-64500000D01*
X58700000Y-62600000D02*
X55600000Y-62600000D01*
X53700000Y-60700000D02*
X53700000Y-58600000D01*
X55600000Y-62600000D02*
X53700000Y-60700000D01*
X61100000Y-66300000D02*
X58700000Y-63900000D01*
X62000000Y-64900000D02*
X63400000Y-66300000D01*
X62000000Y-63000000D02*
X62000000Y-64900000D01*
X63400000Y-66300000D02*
X61100000Y-66300000D01*
X63400000Y-66300000D02*
X65800000Y-66300000D01*
X68100000Y-57200000D02*
X68000000Y-57200000D01*
X65800000Y-66300000D02*
X68100000Y-64000000D01*
X68000000Y-57200000D02*
X66000000Y-55200000D01*
X68100000Y-64000000D02*
X68100000Y-57200000D01*
X61379999Y-46299999D02*
X61379999Y-47279999D01*
X60630000Y-45550000D02*
X61379999Y-46299999D01*
X65800000Y-51700000D02*
X66000000Y-51700000D01*
X61379999Y-47279999D02*
X65800000Y-51700000D01*
X66000000Y-55200000D02*
X66000000Y-51700000D01*
D25*
G36*
X56865001Y-56249162D02*
G01*
X56859994Y-56300000D01*
X56879977Y-56502895D01*
X56939160Y-56697993D01*
X57035266Y-56877797D01*
X57118251Y-56978914D01*
X57164605Y-57035396D01*
X57204092Y-57067802D01*
X57845735Y-57709446D01*
X57835266Y-57722203D01*
X57739160Y-57902007D01*
X57679977Y-58097105D01*
X57668703Y-58211579D01*
X57663513Y-58158889D01*
X57578599Y-57878966D01*
X57440706Y-57620986D01*
X57255134Y-57394866D01*
X57029013Y-57209294D01*
X56771033Y-57071401D01*
X56491110Y-56986487D01*
X56200000Y-56957815D01*
X55908889Y-56986487D01*
X55628966Y-57071401D01*
X55370986Y-57209294D01*
X55144866Y-57394866D01*
X55092777Y-57458337D01*
X55038405Y-57356614D01*
X54927962Y-57222038D01*
X54793386Y-57111595D01*
X54639850Y-57029528D01*
X54473254Y-56978992D01*
X54300000Y-56961928D01*
X53100000Y-56961928D01*
X52926746Y-56978992D01*
X52760150Y-57029528D01*
X52606614Y-57111595D01*
X52472038Y-57222038D01*
X52361595Y-57356614D01*
X52279528Y-57510150D01*
X52228992Y-57676746D01*
X52211928Y-57850000D01*
X52211928Y-59350000D01*
X52228992Y-59523254D01*
X52279528Y-59689850D01*
X52361595Y-59843386D01*
X52472038Y-59977962D01*
X52606614Y-60088405D01*
X52760150Y-60170472D01*
X52765000Y-60171943D01*
X52765000Y-60654068D01*
X52760476Y-60700000D01*
X52773772Y-60834990D01*
X52778529Y-60883291D01*
X52831993Y-61059539D01*
X52918814Y-61221971D01*
X53035656Y-61364344D01*
X53071341Y-61393630D01*
X54277711Y-62600000D01*
X53071341Y-63806370D01*
X53035656Y-63835656D01*
X53006541Y-63871133D01*
X52926746Y-63878992D01*
X52760150Y-63929528D01*
X52606614Y-64011595D01*
X52472038Y-64122038D01*
X52361595Y-64256614D01*
X52279528Y-64410150D01*
X52228992Y-64576746D01*
X52211928Y-64750000D01*
X52211928Y-66250000D01*
X52228992Y-66423254D01*
X52279528Y-66589850D01*
X52361595Y-66743386D01*
X52472038Y-66877962D01*
X52606614Y-66988405D01*
X52760150Y-67070472D01*
X52926746Y-67121008D01*
X53100000Y-67138072D01*
X54300000Y-67138072D01*
X54473254Y-67121008D01*
X54639850Y-67070472D01*
X54793386Y-66988405D01*
X54927962Y-66877962D01*
X55038405Y-66743386D01*
X55092777Y-66641663D01*
X55144866Y-66705134D01*
X55370987Y-66890706D01*
X55628967Y-67028599D01*
X55908890Y-67113513D01*
X56200000Y-67142185D01*
X56491111Y-67113513D01*
X56771034Y-67028599D01*
X57029014Y-66890706D01*
X57255134Y-66705134D01*
X57440706Y-66479014D01*
X57578599Y-66221033D01*
X57663513Y-65941110D01*
X57685000Y-65722949D01*
X57685000Y-65277050D01*
X57663513Y-65058889D01*
X57578599Y-64778966D01*
X57440706Y-64520986D01*
X57255134Y-64294866D01*
X57029013Y-64109294D01*
X56771033Y-63971401D01*
X56491110Y-63886487D01*
X56200000Y-63857815D01*
X55908889Y-63886487D01*
X55628966Y-63971401D01*
X55461233Y-64061056D01*
X55987289Y-63535000D01*
X57311928Y-63535000D01*
X57311928Y-63900000D01*
X57314336Y-63924450D01*
X57314336Y-63949009D01*
X57326596Y-64073490D01*
X57345718Y-64169623D01*
X57382027Y-64289319D01*
X57419536Y-64379875D01*
X57478502Y-64490192D01*
X57532958Y-64571691D01*
X57612310Y-64668382D01*
X57681618Y-64737690D01*
X57778309Y-64817042D01*
X57859808Y-64871498D01*
X57970125Y-64930464D01*
X58060681Y-64967973D01*
X58180377Y-65004282D01*
X58276510Y-65023404D01*
X58400991Y-65035664D01*
X58425550Y-65035664D01*
X58450000Y-65038072D01*
X58515783Y-65038072D01*
X60406370Y-66928659D01*
X60435656Y-66964344D01*
X60578028Y-67081186D01*
X60683880Y-67137765D01*
X60740459Y-67168007D01*
X60916708Y-67221472D01*
X61100000Y-67239524D01*
X61145935Y-67235000D01*
X63354068Y-67235000D01*
X63400000Y-67239524D01*
X63445932Y-67235000D01*
X65754068Y-67235000D01*
X65800000Y-67239524D01*
X65845932Y-67235000D01*
X65983292Y-67221471D01*
X66159540Y-67168007D01*
X66321972Y-67081186D01*
X66464344Y-66964344D01*
X66493630Y-66928659D01*
X68728666Y-64693624D01*
X68764344Y-64664344D01*
X68881186Y-64521972D01*
X68968007Y-64359540D01*
X69021471Y-64183292D01*
X69029253Y-64104282D01*
X69039524Y-64000001D01*
X69035000Y-63954069D01*
X69035000Y-57798711D01*
X69165000Y-57928711D01*
X69165001Y-65524162D01*
X69159994Y-65575000D01*
X69179977Y-65777895D01*
X69239160Y-65972993D01*
X69335266Y-66152797D01*
X69415039Y-66250000D01*
X69464605Y-66310396D01*
X69504093Y-66342803D01*
X69857193Y-66695903D01*
X69889604Y-66735396D01*
X70047203Y-66864734D01*
X70227007Y-66960841D01*
X70422105Y-67020024D01*
X70574162Y-67035000D01*
X70574165Y-67035000D01*
X70625000Y-67040007D01*
X70675835Y-67035000D01*
X71203342Y-67035000D01*
X71219866Y-67055134D01*
X71445986Y-67240706D01*
X71703966Y-67378599D01*
X71983889Y-67463513D01*
X72202050Y-67485000D01*
X72597950Y-67485000D01*
X72816111Y-67463513D01*
X73096034Y-67378599D01*
X73354014Y-67240706D01*
X73580134Y-67055134D01*
X73765706Y-66829014D01*
X73903599Y-66571034D01*
X73988513Y-66291111D01*
X74017185Y-66000000D01*
X73988513Y-65708889D01*
X73903599Y-65428966D01*
X73765706Y-65170986D01*
X73580134Y-64944866D01*
X73354014Y-64759294D01*
X73336626Y-64750000D01*
X73354014Y-64740706D01*
X73580134Y-64555134D01*
X73765706Y-64329014D01*
X73903599Y-64071034D01*
X73988513Y-63791111D01*
X74017185Y-63500000D01*
X73988513Y-63208889D01*
X73903599Y-62928966D01*
X73765706Y-62670986D01*
X73580134Y-62444866D01*
X73354014Y-62259294D01*
X73336626Y-62250000D01*
X73354014Y-62240706D01*
X73580134Y-62055134D01*
X73765706Y-61829014D01*
X73903599Y-61571034D01*
X73988513Y-61291111D01*
X74017185Y-61000000D01*
X74014632Y-60974079D01*
X74870908Y-60117803D01*
X74910396Y-60085396D01*
X74975245Y-60006377D01*
X75039734Y-59927798D01*
X75102800Y-59809808D01*
X75135841Y-59747993D01*
X75195024Y-59552895D01*
X75210000Y-59400838D01*
X75210000Y-59400829D01*
X75215006Y-59350001D01*
X75210000Y-59299173D01*
X75210000Y-56990867D01*
X76439991Y-58220859D01*
X76439990Y-62708971D01*
X76435950Y-62749990D01*
X76439990Y-62791008D01*
X76452072Y-62913678D01*
X76499818Y-63071076D01*
X76577354Y-63216135D01*
X76681699Y-63343281D01*
X76713568Y-63369436D01*
X77405558Y-64061426D01*
X77431709Y-64093291D01*
X77558854Y-64197636D01*
X77703913Y-64275172D01*
X77861311Y-64322918D01*
X77983981Y-64335000D01*
X77983991Y-64335000D01*
X78024999Y-64339039D01*
X78041211Y-64337442D01*
X78219866Y-64555134D01*
X78445986Y-64740706D01*
X78463374Y-64750000D01*
X78445986Y-64759294D01*
X78219866Y-64944866D01*
X78034294Y-65170986D01*
X77896401Y-65428966D01*
X77811487Y-65708889D01*
X77782815Y-66000000D01*
X77811487Y-66291111D01*
X77896401Y-66571034D01*
X78034294Y-66829014D01*
X78219866Y-67055134D01*
X78445986Y-67240706D01*
X78703966Y-67378599D01*
X78983889Y-67463513D01*
X79202050Y-67485000D01*
X79597950Y-67485000D01*
X79816111Y-67463513D01*
X80096034Y-67378599D01*
X80354014Y-67240706D01*
X80580134Y-67055134D01*
X80765706Y-66829014D01*
X80903599Y-66571034D01*
X80988513Y-66291111D01*
X81017185Y-66000000D01*
X80988513Y-65708889D01*
X80903599Y-65428966D01*
X80765706Y-65170986D01*
X80580134Y-64944866D01*
X80354014Y-64759294D01*
X80336626Y-64750000D01*
X80354014Y-64740706D01*
X80580134Y-64555134D01*
X80765706Y-64329014D01*
X80903599Y-64071034D01*
X80988513Y-63791111D01*
X81017185Y-63500000D01*
X80988513Y-63208889D01*
X80903599Y-62928966D01*
X80765706Y-62670986D01*
X80580134Y-62444866D01*
X80354014Y-62259294D01*
X80336626Y-62250000D01*
X80354014Y-62240706D01*
X80580134Y-62055134D01*
X80765706Y-61829014D01*
X80903599Y-61571034D01*
X80988513Y-61291111D01*
X81017185Y-61000000D01*
X80988513Y-60708889D01*
X80903599Y-60428966D01*
X80765706Y-60170986D01*
X80580134Y-59944866D01*
X80516663Y-59892777D01*
X80618386Y-59838405D01*
X80752962Y-59727962D01*
X80863405Y-59593386D01*
X80945472Y-59439850D01*
X80996008Y-59273254D01*
X81013072Y-59100000D01*
X81013072Y-57900000D01*
X80996008Y-57726746D01*
X80945472Y-57560150D01*
X80863405Y-57406614D01*
X80752962Y-57272038D01*
X80618386Y-57161595D01*
X80464850Y-57079528D01*
X80298254Y-57028992D01*
X80235000Y-57022762D01*
X80235000Y-56941007D01*
X80239039Y-56899999D01*
X80235000Y-56858991D01*
X80235000Y-56858981D01*
X80222918Y-56736311D01*
X80175172Y-56578913D01*
X80097636Y-56433854D01*
X79993291Y-56306709D01*
X79961428Y-56280560D01*
X79054831Y-55373963D01*
X79361682Y-55435000D01*
X80038318Y-55435000D01*
X80701952Y-55302994D01*
X81327082Y-55044057D01*
X81889685Y-54668138D01*
X81940001Y-54617822D01*
X81940001Y-68840000D01*
X51160000Y-68840000D01*
X51160000Y-54417823D01*
X51410315Y-54668138D01*
X51972918Y-55044057D01*
X52598048Y-55302994D01*
X53261682Y-55435000D01*
X53938318Y-55435000D01*
X54601952Y-55302994D01*
X55227082Y-55044057D01*
X55789685Y-54668138D01*
X56268138Y-54189685D01*
X56644057Y-53627082D01*
X56865000Y-53093677D01*
X56865001Y-56249162D01*
G37*
X56865001Y-56249162D02*
X56859994Y-56300000D01*
X56879977Y-56502895D01*
X56939160Y-56697993D01*
X57035266Y-56877797D01*
X57118251Y-56978914D01*
X57164605Y-57035396D01*
X57204092Y-57067802D01*
X57845735Y-57709446D01*
X57835266Y-57722203D01*
X57739160Y-57902007D01*
X57679977Y-58097105D01*
X57668703Y-58211579D01*
X57663513Y-58158889D01*
X57578599Y-57878966D01*
X57440706Y-57620986D01*
X57255134Y-57394866D01*
X57029013Y-57209294D01*
X56771033Y-57071401D01*
X56491110Y-56986487D01*
X56200000Y-56957815D01*
X55908889Y-56986487D01*
X55628966Y-57071401D01*
X55370986Y-57209294D01*
X55144866Y-57394866D01*
X55092777Y-57458337D01*
X55038405Y-57356614D01*
X54927962Y-57222038D01*
X54793386Y-57111595D01*
X54639850Y-57029528D01*
X54473254Y-56978992D01*
X54300000Y-56961928D01*
X53100000Y-56961928D01*
X52926746Y-56978992D01*
X52760150Y-57029528D01*
X52606614Y-57111595D01*
X52472038Y-57222038D01*
X52361595Y-57356614D01*
X52279528Y-57510150D01*
X52228992Y-57676746D01*
X52211928Y-57850000D01*
X52211928Y-59350000D01*
X52228992Y-59523254D01*
X52279528Y-59689850D01*
X52361595Y-59843386D01*
X52472038Y-59977962D01*
X52606614Y-60088405D01*
X52760150Y-60170472D01*
X52765000Y-60171943D01*
X52765000Y-60654068D01*
X52760476Y-60700000D01*
X52773772Y-60834990D01*
X52778529Y-60883291D01*
X52831993Y-61059539D01*
X52918814Y-61221971D01*
X53035656Y-61364344D01*
X53071341Y-61393630D01*
X54277711Y-62600000D01*
X53071341Y-63806370D01*
X53035656Y-63835656D01*
X53006541Y-63871133D01*
X52926746Y-63878992D01*
X52760150Y-63929528D01*
X52606614Y-64011595D01*
X52472038Y-64122038D01*
X52361595Y-64256614D01*
X52279528Y-64410150D01*
X52228992Y-64576746D01*
X52211928Y-64750000D01*
X52211928Y-66250000D01*
X52228992Y-66423254D01*
X52279528Y-66589850D01*
X52361595Y-66743386D01*
X52472038Y-66877962D01*
X52606614Y-66988405D01*
X52760150Y-67070472D01*
X52926746Y-67121008D01*
X53100000Y-67138072D01*
X54300000Y-67138072D01*
X54473254Y-67121008D01*
X54639850Y-67070472D01*
X54793386Y-66988405D01*
X54927962Y-66877962D01*
X55038405Y-66743386D01*
X55092777Y-66641663D01*
X55144866Y-66705134D01*
X55370987Y-66890706D01*
X55628967Y-67028599D01*
X55908890Y-67113513D01*
X56200000Y-67142185D01*
X56491111Y-67113513D01*
X56771034Y-67028599D01*
X57029014Y-66890706D01*
X57255134Y-66705134D01*
X57440706Y-66479014D01*
X57578599Y-66221033D01*
X57663513Y-65941110D01*
X57685000Y-65722949D01*
X57685000Y-65277050D01*
X57663513Y-65058889D01*
X57578599Y-64778966D01*
X57440706Y-64520986D01*
X57255134Y-64294866D01*
X57029013Y-64109294D01*
X56771033Y-63971401D01*
X56491110Y-63886487D01*
X56200000Y-63857815D01*
X55908889Y-63886487D01*
X55628966Y-63971401D01*
X55461233Y-64061056D01*
X55987289Y-63535000D01*
X57311928Y-63535000D01*
X57311928Y-63900000D01*
X57314336Y-63924450D01*
X57314336Y-63949009D01*
X57326596Y-64073490D01*
X57345718Y-64169623D01*
X57382027Y-64289319D01*
X57419536Y-64379875D01*
X57478502Y-64490192D01*
X57532958Y-64571691D01*
X57612310Y-64668382D01*
X57681618Y-64737690D01*
X57778309Y-64817042D01*
X57859808Y-64871498D01*
X57970125Y-64930464D01*
X58060681Y-64967973D01*
X58180377Y-65004282D01*
X58276510Y-65023404D01*
X58400991Y-65035664D01*
X58425550Y-65035664D01*
X58450000Y-65038072D01*
X58515783Y-65038072D01*
X60406370Y-66928659D01*
X60435656Y-66964344D01*
X60578028Y-67081186D01*
X60683880Y-67137765D01*
X60740459Y-67168007D01*
X60916708Y-67221472D01*
X61100000Y-67239524D01*
X61145935Y-67235000D01*
X63354068Y-67235000D01*
X63400000Y-67239524D01*
X63445932Y-67235000D01*
X65754068Y-67235000D01*
X65800000Y-67239524D01*
X65845932Y-67235000D01*
X65983292Y-67221471D01*
X66159540Y-67168007D01*
X66321972Y-67081186D01*
X66464344Y-66964344D01*
X66493630Y-66928659D01*
X68728666Y-64693624D01*
X68764344Y-64664344D01*
X68881186Y-64521972D01*
X68968007Y-64359540D01*
X69021471Y-64183292D01*
X69029253Y-64104282D01*
X69039524Y-64000001D01*
X69035000Y-63954069D01*
X69035000Y-57798711D01*
X69165000Y-57928711D01*
X69165001Y-65524162D01*
X69159994Y-65575000D01*
X69179977Y-65777895D01*
X69239160Y-65972993D01*
X69335266Y-66152797D01*
X69415039Y-66250000D01*
X69464605Y-66310396D01*
X69504093Y-66342803D01*
X69857193Y-66695903D01*
X69889604Y-66735396D01*
X70047203Y-66864734D01*
X70227007Y-66960841D01*
X70422105Y-67020024D01*
X70574162Y-67035000D01*
X70574165Y-67035000D01*
X70625000Y-67040007D01*
X70675835Y-67035000D01*
X71203342Y-67035000D01*
X71219866Y-67055134D01*
X71445986Y-67240706D01*
X71703966Y-67378599D01*
X71983889Y-67463513D01*
X72202050Y-67485000D01*
X72597950Y-67485000D01*
X72816111Y-67463513D01*
X73096034Y-67378599D01*
X73354014Y-67240706D01*
X73580134Y-67055134D01*
X73765706Y-66829014D01*
X73903599Y-66571034D01*
X73988513Y-66291111D01*
X74017185Y-66000000D01*
X73988513Y-65708889D01*
X73903599Y-65428966D01*
X73765706Y-65170986D01*
X73580134Y-64944866D01*
X73354014Y-64759294D01*
X73336626Y-64750000D01*
X73354014Y-64740706D01*
X73580134Y-64555134D01*
X73765706Y-64329014D01*
X73903599Y-64071034D01*
X73988513Y-63791111D01*
X74017185Y-63500000D01*
X73988513Y-63208889D01*
X73903599Y-62928966D01*
X73765706Y-62670986D01*
X73580134Y-62444866D01*
X73354014Y-62259294D01*
X73336626Y-62250000D01*
X73354014Y-62240706D01*
X73580134Y-62055134D01*
X73765706Y-61829014D01*
X73903599Y-61571034D01*
X73988513Y-61291111D01*
X74017185Y-61000000D01*
X74014632Y-60974079D01*
X74870908Y-60117803D01*
X74910396Y-60085396D01*
X74975245Y-60006377D01*
X75039734Y-59927798D01*
X75102800Y-59809808D01*
X75135841Y-59747993D01*
X75195024Y-59552895D01*
X75210000Y-59400838D01*
X75210000Y-59400829D01*
X75215006Y-59350001D01*
X75210000Y-59299173D01*
X75210000Y-56990867D01*
X76439991Y-58220859D01*
X76439990Y-62708971D01*
X76435950Y-62749990D01*
X76439990Y-62791008D01*
X76452072Y-62913678D01*
X76499818Y-63071076D01*
X76577354Y-63216135D01*
X76681699Y-63343281D01*
X76713568Y-63369436D01*
X77405558Y-64061426D01*
X77431709Y-64093291D01*
X77558854Y-64197636D01*
X77703913Y-64275172D01*
X77861311Y-64322918D01*
X77983981Y-64335000D01*
X77983991Y-64335000D01*
X78024999Y-64339039D01*
X78041211Y-64337442D01*
X78219866Y-64555134D01*
X78445986Y-64740706D01*
X78463374Y-64750000D01*
X78445986Y-64759294D01*
X78219866Y-64944866D01*
X78034294Y-65170986D01*
X77896401Y-65428966D01*
X77811487Y-65708889D01*
X77782815Y-66000000D01*
X77811487Y-66291111D01*
X77896401Y-66571034D01*
X78034294Y-66829014D01*
X78219866Y-67055134D01*
X78445986Y-67240706D01*
X78703966Y-67378599D01*
X78983889Y-67463513D01*
X79202050Y-67485000D01*
X79597950Y-67485000D01*
X79816111Y-67463513D01*
X80096034Y-67378599D01*
X80354014Y-67240706D01*
X80580134Y-67055134D01*
X80765706Y-66829014D01*
X80903599Y-66571034D01*
X80988513Y-66291111D01*
X81017185Y-66000000D01*
X80988513Y-65708889D01*
X80903599Y-65428966D01*
X80765706Y-65170986D01*
X80580134Y-64944866D01*
X80354014Y-64759294D01*
X80336626Y-64750000D01*
X80354014Y-64740706D01*
X80580134Y-64555134D01*
X80765706Y-64329014D01*
X80903599Y-64071034D01*
X80988513Y-63791111D01*
X81017185Y-63500000D01*
X80988513Y-63208889D01*
X80903599Y-62928966D01*
X80765706Y-62670986D01*
X80580134Y-62444866D01*
X80354014Y-62259294D01*
X80336626Y-62250000D01*
X80354014Y-62240706D01*
X80580134Y-62055134D01*
X80765706Y-61829014D01*
X80903599Y-61571034D01*
X80988513Y-61291111D01*
X81017185Y-61000000D01*
X80988513Y-60708889D01*
X80903599Y-60428966D01*
X80765706Y-60170986D01*
X80580134Y-59944866D01*
X80516663Y-59892777D01*
X80618386Y-59838405D01*
X80752962Y-59727962D01*
X80863405Y-59593386D01*
X80945472Y-59439850D01*
X80996008Y-59273254D01*
X81013072Y-59100000D01*
X81013072Y-57900000D01*
X80996008Y-57726746D01*
X80945472Y-57560150D01*
X80863405Y-57406614D01*
X80752962Y-57272038D01*
X80618386Y-57161595D01*
X80464850Y-57079528D01*
X80298254Y-57028992D01*
X80235000Y-57022762D01*
X80235000Y-56941007D01*
X80239039Y-56899999D01*
X80235000Y-56858991D01*
X80235000Y-56858981D01*
X80222918Y-56736311D01*
X80175172Y-56578913D01*
X80097636Y-56433854D01*
X79993291Y-56306709D01*
X79961428Y-56280560D01*
X79054831Y-55373963D01*
X79361682Y-55435000D01*
X80038318Y-55435000D01*
X80701952Y-55302994D01*
X81327082Y-55044057D01*
X81889685Y-54668138D01*
X81940001Y-54617822D01*
X81940001Y-68840000D01*
X51160000Y-68840000D01*
X51160000Y-54417823D01*
X51410315Y-54668138D01*
X51972918Y-55044057D01*
X52598048Y-55302994D01*
X53261682Y-55435000D01*
X53938318Y-55435000D01*
X54601952Y-55302994D01*
X55227082Y-55044057D01*
X55789685Y-54668138D01*
X56268138Y-54189685D01*
X56644057Y-53627082D01*
X56865000Y-53093677D01*
X56865001Y-56249162D01*
G36*
X63829528Y-62639850D02*
G01*
X63911595Y-62793386D01*
X64022038Y-62927962D01*
X64156614Y-63038405D01*
X64258337Y-63092777D01*
X64194866Y-63144866D01*
X64009294Y-63370986D01*
X63871401Y-63628966D01*
X63786487Y-63908889D01*
X63757815Y-64200000D01*
X63786487Y-64491111D01*
X63871401Y-64771034D01*
X64009294Y-65029014D01*
X64194866Y-65255134D01*
X64328738Y-65365000D01*
X63787290Y-65365000D01*
X62935000Y-64512711D01*
X62935000Y-63906120D01*
X63018382Y-63837690D01*
X63087690Y-63768382D01*
X63167042Y-63671691D01*
X63221498Y-63590192D01*
X63280464Y-63479875D01*
X63317973Y-63389319D01*
X63354282Y-63269623D01*
X63373404Y-63173490D01*
X63385664Y-63049009D01*
X63385664Y-63024450D01*
X63388072Y-63000000D01*
X63388072Y-62635000D01*
X63828057Y-62635000D01*
X63829528Y-62639850D01*
G37*
X63829528Y-62639850D02*
X63911595Y-62793386D01*
X64022038Y-62927962D01*
X64156614Y-63038405D01*
X64258337Y-63092777D01*
X64194866Y-63144866D01*
X64009294Y-63370986D01*
X63871401Y-63628966D01*
X63786487Y-63908889D01*
X63757815Y-64200000D01*
X63786487Y-64491111D01*
X63871401Y-64771034D01*
X64009294Y-65029014D01*
X64194866Y-65255134D01*
X64328738Y-65365000D01*
X63787290Y-65365000D01*
X62935000Y-64512711D01*
X62935000Y-63906120D01*
X63018382Y-63837690D01*
X63087690Y-63768382D01*
X63167042Y-63671691D01*
X63221498Y-63590192D01*
X63280464Y-63479875D01*
X63317973Y-63389319D01*
X63354282Y-63269623D01*
X63373404Y-63173490D01*
X63385664Y-63049009D01*
X63385664Y-63024450D01*
X63388072Y-63000000D01*
X63388072Y-62635000D01*
X63828057Y-62635000D01*
X63829528Y-62639850D01*
G36*
X60611928Y-60475639D02*
G01*
X60611928Y-60950000D01*
X60624188Y-61074482D01*
X60624345Y-61075000D01*
X60624188Y-61075518D01*
X60611928Y-61200000D01*
X60611928Y-62200000D01*
X60624188Y-62324482D01*
X60624345Y-62325000D01*
X60624188Y-62325518D01*
X60611928Y-62450000D01*
X60611928Y-63000000D01*
X60614336Y-63024450D01*
X60614336Y-63049009D01*
X60626596Y-63173490D01*
X60645718Y-63269623D01*
X60682027Y-63389319D01*
X60719536Y-63479875D01*
X60778502Y-63590192D01*
X60832958Y-63671691D01*
X60912310Y-63768382D01*
X60981618Y-63837690D01*
X61065000Y-63906120D01*
X61065001Y-64854058D01*
X61060476Y-64900000D01*
X61064648Y-64942359D01*
X60084376Y-63962087D01*
X60085664Y-63949009D01*
X60085664Y-63924450D01*
X60088072Y-63900000D01*
X60088072Y-63350000D01*
X60075812Y-63225518D01*
X60075655Y-63225000D01*
X60075812Y-63224482D01*
X60088072Y-63100000D01*
X60088072Y-62100000D01*
X60075812Y-61975518D01*
X60075655Y-61975000D01*
X60075812Y-61974482D01*
X60088072Y-61850000D01*
X60088072Y-61300000D01*
X60085664Y-61275550D01*
X60085664Y-61250991D01*
X60073404Y-61126510D01*
X60054282Y-61030377D01*
X60017973Y-60910681D01*
X59980464Y-60820125D01*
X59921498Y-60709808D01*
X59867042Y-60628309D01*
X59787690Y-60531618D01*
X59735000Y-60478928D01*
X59735000Y-59598710D01*
X60611928Y-60475639D01*
G37*
X60611928Y-60475639D02*
X60611928Y-60950000D01*
X60624188Y-61074482D01*
X60624345Y-61075000D01*
X60624188Y-61075518D01*
X60611928Y-61200000D01*
X60611928Y-62200000D01*
X60624188Y-62324482D01*
X60624345Y-62325000D01*
X60624188Y-62325518D01*
X60611928Y-62450000D01*
X60611928Y-63000000D01*
X60614336Y-63024450D01*
X60614336Y-63049009D01*
X60626596Y-63173490D01*
X60645718Y-63269623D01*
X60682027Y-63389319D01*
X60719536Y-63479875D01*
X60778502Y-63590192D01*
X60832958Y-63671691D01*
X60912310Y-63768382D01*
X60981618Y-63837690D01*
X61065000Y-63906120D01*
X61065001Y-64854058D01*
X61060476Y-64900000D01*
X61064648Y-64942359D01*
X60084376Y-63962087D01*
X60085664Y-63949009D01*
X60085664Y-63924450D01*
X60088072Y-63900000D01*
X60088072Y-63350000D01*
X60075812Y-63225518D01*
X60075655Y-63225000D01*
X60075812Y-63224482D01*
X60088072Y-63100000D01*
X60088072Y-62100000D01*
X60075812Y-61975518D01*
X60075655Y-61975000D01*
X60075812Y-61974482D01*
X60088072Y-61850000D01*
X60088072Y-61300000D01*
X60085664Y-61275550D01*
X60085664Y-61250991D01*
X60073404Y-61126510D01*
X60054282Y-61030377D01*
X60017973Y-60910681D01*
X59980464Y-60820125D01*
X59921498Y-60709808D01*
X59867042Y-60628309D01*
X59787690Y-60531618D01*
X59735000Y-60478928D01*
X59735000Y-59598710D01*
X60611928Y-60475639D01*
G36*
X71445986Y-64740706D02*
G01*
X71463374Y-64750000D01*
X71445986Y-64759294D01*
X71235000Y-64932446D01*
X71235000Y-64567554D01*
X71445986Y-64740706D01*
G37*
X71445986Y-64740706D02*
X71463374Y-64750000D01*
X71445986Y-64759294D01*
X71235000Y-64932446D01*
X71235000Y-64567554D01*
X71445986Y-64740706D01*
G36*
X78219866Y-62055134D02*
G01*
X78445986Y-62240706D01*
X78463374Y-62250000D01*
X78445986Y-62259294D01*
X78219866Y-62444866D01*
X78188704Y-62482837D01*
X78109990Y-62404123D01*
X78109990Y-61921250D01*
X78219866Y-62055134D01*
G37*
X78219866Y-62055134D02*
X78445986Y-62240706D01*
X78463374Y-62250000D01*
X78445986Y-62259294D01*
X78219866Y-62444866D01*
X78188704Y-62482837D01*
X78109990Y-62404123D01*
X78109990Y-61921250D01*
X78219866Y-62055134D01*
G36*
X71445986Y-62240706D02*
G01*
X71463374Y-62250000D01*
X71445986Y-62259294D01*
X71235000Y-62432446D01*
X71235000Y-62067554D01*
X71445986Y-62240706D01*
G37*
X71445986Y-62240706D02*
X71463374Y-62250000D01*
X71445986Y-62259294D01*
X71235000Y-62432446D01*
X71235000Y-62067554D01*
X71445986Y-62240706D01*
G36*
X57665000Y-60478928D02*
G01*
X57612310Y-60531618D01*
X57532958Y-60628309D01*
X57478502Y-60709808D01*
X57419536Y-60820125D01*
X57382027Y-60910681D01*
X57345718Y-61030377D01*
X57326596Y-61126510D01*
X57314336Y-61250991D01*
X57314336Y-61275550D01*
X57311928Y-61300000D01*
X57311928Y-61665000D01*
X55987289Y-61665000D01*
X54635000Y-60312711D01*
X54635000Y-60171943D01*
X54639850Y-60170472D01*
X54793386Y-60088405D01*
X54927962Y-59977962D01*
X55038405Y-59843386D01*
X55092777Y-59741663D01*
X55144866Y-59805134D01*
X55370987Y-59990706D01*
X55628967Y-60128599D01*
X55908890Y-60213513D01*
X56200000Y-60242185D01*
X56491111Y-60213513D01*
X56771034Y-60128599D01*
X57029014Y-59990706D01*
X57255134Y-59805134D01*
X57440706Y-59579014D01*
X57578599Y-59321033D01*
X57663513Y-59041110D01*
X57665001Y-59026005D01*
X57665000Y-60478928D01*
G37*
X57665000Y-60478928D02*
X57612310Y-60531618D01*
X57532958Y-60628309D01*
X57478502Y-60709808D01*
X57419536Y-60820125D01*
X57382027Y-60910681D01*
X57345718Y-61030377D01*
X57326596Y-61126510D01*
X57314336Y-61250991D01*
X57314336Y-61275550D01*
X57311928Y-61300000D01*
X57311928Y-61665000D01*
X55987289Y-61665000D01*
X54635000Y-60312711D01*
X54635000Y-60171943D01*
X54639850Y-60170472D01*
X54793386Y-60088405D01*
X54927962Y-59977962D01*
X55038405Y-59843386D01*
X55092777Y-59741663D01*
X55144866Y-59805134D01*
X55370987Y-59990706D01*
X55628967Y-60128599D01*
X55908890Y-60213513D01*
X56200000Y-60242185D01*
X56491111Y-60213513D01*
X56771034Y-60128599D01*
X57029014Y-59990706D01*
X57255134Y-59805134D01*
X57440706Y-59579014D01*
X57578599Y-59321033D01*
X57663513Y-59041110D01*
X57665001Y-59026005D01*
X57665000Y-60478928D01*
G36*
X62158337Y-53292777D02*
G01*
X62094866Y-53344866D01*
X61909294Y-53570986D01*
X61771401Y-53828966D01*
X61686487Y-54108889D01*
X61657815Y-54400000D01*
X61672755Y-54551691D01*
X61648299Y-54800000D01*
X61675040Y-55071507D01*
X61754236Y-55332581D01*
X61882843Y-55573188D01*
X62055919Y-55784081D01*
X62266812Y-55957157D01*
X62507419Y-56085764D01*
X62768493Y-56164960D01*
X62971963Y-56185000D01*
X63628037Y-56185000D01*
X63831507Y-56164960D01*
X64092581Y-56085764D01*
X64305430Y-55971994D01*
X64331984Y-56059530D01*
X64418805Y-56221961D01*
X64506367Y-56328656D01*
X64795482Y-56617771D01*
X64658429Y-56674541D01*
X64450422Y-56813527D01*
X64273527Y-56990422D01*
X64134541Y-57198429D01*
X64038805Y-57429555D01*
X63990000Y-57674916D01*
X63990000Y-57925084D01*
X64038805Y-58170445D01*
X64134541Y-58401571D01*
X64273527Y-58609578D01*
X64450422Y-58786473D01*
X64658429Y-58925459D01*
X64889555Y-59021195D01*
X65134916Y-59070000D01*
X65385084Y-59070000D01*
X65630445Y-59021195D01*
X65861571Y-58925459D01*
X65965011Y-58856343D01*
X65965011Y-59854048D01*
X65960486Y-59899990D01*
X65978539Y-60083282D01*
X66017563Y-60211928D01*
X64650000Y-60211928D01*
X64476746Y-60228992D01*
X64310150Y-60279528D01*
X64156614Y-60361595D01*
X64022038Y-60472038D01*
X63911595Y-60606614D01*
X63829528Y-60760150D01*
X63828057Y-60765000D01*
X63388072Y-60765000D01*
X63388072Y-60400000D01*
X63385664Y-60375550D01*
X63385664Y-60350991D01*
X63373404Y-60226510D01*
X63354282Y-60130377D01*
X63317973Y-60010681D01*
X63280464Y-59920125D01*
X63221498Y-59809808D01*
X63167042Y-59728309D01*
X63087690Y-59631618D01*
X63018382Y-59562310D01*
X62921691Y-59482958D01*
X62840192Y-59428502D01*
X62729875Y-59369536D01*
X62639319Y-59332027D01*
X62519623Y-59295718D01*
X62423490Y-59276596D01*
X62331219Y-59267508D01*
X60067807Y-57004097D01*
X60067803Y-57004092D01*
X60067795Y-57004084D01*
X60035395Y-56964605D01*
X59995916Y-56932205D01*
X58935000Y-55871290D01*
X58935000Y-53285000D01*
X62143787Y-53285000D01*
X62158337Y-53292777D01*
G37*
X62158337Y-53292777D02*
X62094866Y-53344866D01*
X61909294Y-53570986D01*
X61771401Y-53828966D01*
X61686487Y-54108889D01*
X61657815Y-54400000D01*
X61672755Y-54551691D01*
X61648299Y-54800000D01*
X61675040Y-55071507D01*
X61754236Y-55332581D01*
X61882843Y-55573188D01*
X62055919Y-55784081D01*
X62266812Y-55957157D01*
X62507419Y-56085764D01*
X62768493Y-56164960D01*
X62971963Y-56185000D01*
X63628037Y-56185000D01*
X63831507Y-56164960D01*
X64092581Y-56085764D01*
X64305430Y-55971994D01*
X64331984Y-56059530D01*
X64418805Y-56221961D01*
X64506367Y-56328656D01*
X64795482Y-56617771D01*
X64658429Y-56674541D01*
X64450422Y-56813527D01*
X64273527Y-56990422D01*
X64134541Y-57198429D01*
X64038805Y-57429555D01*
X63990000Y-57674916D01*
X63990000Y-57925084D01*
X64038805Y-58170445D01*
X64134541Y-58401571D01*
X64273527Y-58609578D01*
X64450422Y-58786473D01*
X64658429Y-58925459D01*
X64889555Y-59021195D01*
X65134916Y-59070000D01*
X65385084Y-59070000D01*
X65630445Y-59021195D01*
X65861571Y-58925459D01*
X65965011Y-58856343D01*
X65965011Y-59854048D01*
X65960486Y-59899990D01*
X65978539Y-60083282D01*
X66017563Y-60211928D01*
X64650000Y-60211928D01*
X64476746Y-60228992D01*
X64310150Y-60279528D01*
X64156614Y-60361595D01*
X64022038Y-60472038D01*
X63911595Y-60606614D01*
X63829528Y-60760150D01*
X63828057Y-60765000D01*
X63388072Y-60765000D01*
X63388072Y-60400000D01*
X63385664Y-60375550D01*
X63385664Y-60350991D01*
X63373404Y-60226510D01*
X63354282Y-60130377D01*
X63317973Y-60010681D01*
X63280464Y-59920125D01*
X63221498Y-59809808D01*
X63167042Y-59728309D01*
X63087690Y-59631618D01*
X63018382Y-59562310D01*
X62921691Y-59482958D01*
X62840192Y-59428502D01*
X62729875Y-59369536D01*
X62639319Y-59332027D01*
X62519623Y-59295718D01*
X62423490Y-59276596D01*
X62331219Y-59267508D01*
X60067807Y-57004097D01*
X60067803Y-57004092D01*
X60067795Y-57004084D01*
X60035395Y-56964605D01*
X59995916Y-56932205D01*
X58935000Y-55871290D01*
X58935000Y-53285000D01*
X62143787Y-53285000D01*
X62158337Y-53292777D01*
G36*
X71283337Y-59892777D02*
G01*
X71235000Y-59932446D01*
X71235000Y-59866941D01*
X71283337Y-59892777D01*
G37*
X71283337Y-59892777D02*
X71235000Y-59932446D01*
X71235000Y-59866941D01*
X71283337Y-59892777D01*
G36*
X68211928Y-52250000D02*
G01*
X68228992Y-52423254D01*
X68279528Y-52589850D01*
X68361595Y-52743386D01*
X68472038Y-52877962D01*
X68606614Y-52988405D01*
X68760150Y-53070472D01*
X68926746Y-53121008D01*
X69100000Y-53138072D01*
X70300000Y-53138072D01*
X70473254Y-53121008D01*
X70639850Y-53070472D01*
X70793386Y-52988405D01*
X70927962Y-52877962D01*
X71038405Y-52743386D01*
X71092777Y-52641663D01*
X71144866Y-52705134D01*
X71370987Y-52890706D01*
X71628967Y-53028599D01*
X71908890Y-53113513D01*
X72200000Y-53142185D01*
X72491111Y-53113513D01*
X72771034Y-53028599D01*
X73029014Y-52890706D01*
X73164970Y-52779129D01*
X73164971Y-54939157D01*
X73154976Y-54972106D01*
X73140000Y-55124163D01*
X73140000Y-55124172D01*
X73134994Y-55175000D01*
X73140000Y-55225828D01*
X73140000Y-57013405D01*
X73125000Y-57011928D01*
X71675000Y-57011928D01*
X71501746Y-57028992D01*
X71335150Y-57079528D01*
X71181614Y-57161595D01*
X71179455Y-57163367D01*
X71160841Y-57102007D01*
X71112693Y-57011928D01*
X71064734Y-56922202D01*
X70967803Y-56804092D01*
X70935396Y-56764604D01*
X70895908Y-56732197D01*
X68035000Y-53871290D01*
X68035000Y-51128710D01*
X68211928Y-50951782D01*
X68211928Y-52250000D01*
G37*
X68211928Y-52250000D02*
X68228992Y-52423254D01*
X68279528Y-52589850D01*
X68361595Y-52743386D01*
X68472038Y-52877962D01*
X68606614Y-52988405D01*
X68760150Y-53070472D01*
X68926746Y-53121008D01*
X69100000Y-53138072D01*
X70300000Y-53138072D01*
X70473254Y-53121008D01*
X70639850Y-53070472D01*
X70793386Y-52988405D01*
X70927962Y-52877962D01*
X71038405Y-52743386D01*
X71092777Y-52641663D01*
X71144866Y-52705134D01*
X71370987Y-52890706D01*
X71628967Y-53028599D01*
X71908890Y-53113513D01*
X72200000Y-53142185D01*
X72491111Y-53113513D01*
X72771034Y-53028599D01*
X73029014Y-52890706D01*
X73164970Y-52779129D01*
X73164971Y-54939157D01*
X73154976Y-54972106D01*
X73140000Y-55124163D01*
X73140000Y-55124172D01*
X73134994Y-55175000D01*
X73140000Y-55225828D01*
X73140000Y-57013405D01*
X73125000Y-57011928D01*
X71675000Y-57011928D01*
X71501746Y-57028992D01*
X71335150Y-57079528D01*
X71181614Y-57161595D01*
X71179455Y-57163367D01*
X71160841Y-57102007D01*
X71112693Y-57011928D01*
X71064734Y-56922202D01*
X70967803Y-56804092D01*
X70935396Y-56764604D01*
X70895908Y-56732197D01*
X68035000Y-53871290D01*
X68035000Y-51128710D01*
X68211928Y-50951782D01*
X68211928Y-52250000D01*
G36*
X65065001Y-52287291D02*
G01*
X65065000Y-54773762D01*
X65016699Y-54778519D01*
X64951532Y-54798287D01*
X64927245Y-54551691D01*
X64942185Y-54400000D01*
X64913513Y-54108889D01*
X64828599Y-53828966D01*
X64690706Y-53570986D01*
X64505134Y-53344866D01*
X64441663Y-53292777D01*
X64543386Y-53238405D01*
X64677962Y-53127962D01*
X64788405Y-52993386D01*
X64870472Y-52839850D01*
X64921008Y-52673254D01*
X64938072Y-52500000D01*
X64938072Y-52401532D01*
X64948072Y-52300000D01*
X64948072Y-52170362D01*
X65065001Y-52287291D01*
G37*
X65065001Y-52287291D02*
X65065000Y-54773762D01*
X65016699Y-54778519D01*
X64951532Y-54798287D01*
X64927245Y-54551691D01*
X64942185Y-54400000D01*
X64913513Y-54108889D01*
X64828599Y-53828966D01*
X64690706Y-53570986D01*
X64505134Y-53344866D01*
X64441663Y-53292777D01*
X64543386Y-53238405D01*
X64677962Y-53127962D01*
X64788405Y-52993386D01*
X64870472Y-52839850D01*
X64921008Y-52673254D01*
X64938072Y-52500000D01*
X64938072Y-52401532D01*
X64948072Y-52300000D01*
X64948072Y-52170362D01*
X65065001Y-52287291D01*
G36*
X79920147Y-34881426D02*
G01*
X79865000Y-35158665D01*
X79865000Y-35441335D01*
X79883714Y-35535417D01*
X75068574Y-40350559D01*
X75036710Y-40376709D01*
X75010562Y-40408571D01*
X74932364Y-40503855D01*
X74854828Y-40648914D01*
X74807082Y-40806312D01*
X74790960Y-40970000D01*
X74795001Y-41011028D01*
X74795001Y-41432204D01*
X74747114Y-41464201D01*
X74554201Y-41657114D01*
X74402629Y-41883957D01*
X74298225Y-42136011D01*
X74245000Y-42403589D01*
X74245000Y-42686411D01*
X74298225Y-42953989D01*
X74402629Y-43206043D01*
X74554201Y-43432886D01*
X74747114Y-43625799D01*
X74973957Y-43777371D01*
X75226011Y-43881775D01*
X75493589Y-43935000D01*
X75766411Y-43935000D01*
X76033989Y-43881775D01*
X76286043Y-43777371D01*
X76512886Y-43625799D01*
X76705799Y-43432886D01*
X76857371Y-43206043D01*
X76961775Y-42953989D01*
X77015000Y-42686411D01*
X77015000Y-42403589D01*
X76961775Y-42136011D01*
X76857371Y-41883957D01*
X76705799Y-41657114D01*
X76536897Y-41488212D01*
X77495000Y-41488212D01*
X77495000Y-41711788D01*
X77538617Y-41931067D01*
X77624176Y-42137624D01*
X77748388Y-42323520D01*
X77906480Y-42481612D01*
X78092376Y-42605824D01*
X78298933Y-42691383D01*
X78518212Y-42735000D01*
X78741788Y-42735000D01*
X78961067Y-42691383D01*
X79167624Y-42605824D01*
X79353520Y-42481612D01*
X79511612Y-42323520D01*
X79635824Y-42137624D01*
X79721383Y-41931067D01*
X79765000Y-41711788D01*
X79765000Y-41488212D01*
X79721383Y-41268933D01*
X79635824Y-41062376D01*
X79511612Y-40876480D01*
X79353520Y-40718388D01*
X79167624Y-40594176D01*
X78961067Y-40508617D01*
X78741788Y-40465000D01*
X78518212Y-40465000D01*
X78298933Y-40508617D01*
X78092376Y-40594176D01*
X77906480Y-40718388D01*
X77748388Y-40876480D01*
X77624176Y-41062376D01*
X77538617Y-41268933D01*
X77495000Y-41488212D01*
X76536897Y-41488212D01*
X76512886Y-41464201D01*
X76465000Y-41432205D01*
X76465000Y-41315867D01*
X79911928Y-37868940D01*
X79911928Y-38675000D01*
X79924319Y-38800136D01*
X79931909Y-38825064D01*
X79924188Y-38850518D01*
X79911928Y-38975000D01*
X79911928Y-40125000D01*
X79924188Y-40249482D01*
X79960498Y-40369180D01*
X80019463Y-40479494D01*
X80098815Y-40576185D01*
X80195506Y-40655537D01*
X80305820Y-40714502D01*
X80425518Y-40750812D01*
X80465000Y-40754701D01*
X80465001Y-41485375D01*
X80375518Y-41494188D01*
X80255820Y-41530498D01*
X80145506Y-41589463D01*
X80048815Y-41668815D01*
X79969463Y-41765506D01*
X79910498Y-41875820D01*
X79874188Y-41995518D01*
X79861928Y-42120000D01*
X79861928Y-43720000D01*
X79874188Y-43844482D01*
X79910498Y-43964180D01*
X79969463Y-44074494D01*
X80048815Y-44171185D01*
X80145506Y-44250537D01*
X80255820Y-44309502D01*
X80375518Y-44345812D01*
X80465001Y-44354625D01*
X80465001Y-45054130D01*
X76434990Y-49084143D01*
X76434990Y-47833450D01*
X76452918Y-47774349D01*
X76465000Y-47651679D01*
X76465000Y-47651678D01*
X76469040Y-47610660D01*
X76465000Y-47569642D01*
X76465000Y-46657795D01*
X76512886Y-46625799D01*
X76705799Y-46432886D01*
X76857371Y-46206043D01*
X76961775Y-45953989D01*
X77015000Y-45686411D01*
X77015000Y-45403589D01*
X76961775Y-45136011D01*
X76857371Y-44883957D01*
X76705799Y-44657114D01*
X76512886Y-44464201D01*
X76286043Y-44312629D01*
X76033989Y-44208225D01*
X75766411Y-44155000D01*
X75493589Y-44155000D01*
X75226011Y-44208225D01*
X74973957Y-44312629D01*
X74747114Y-44464201D01*
X74554201Y-44657114D01*
X74402629Y-44883957D01*
X74298225Y-45136011D01*
X74245000Y-45403589D01*
X74245000Y-45686411D01*
X74298225Y-45953989D01*
X74402629Y-46206043D01*
X74554201Y-46432886D01*
X74747114Y-46625799D01*
X74795000Y-46657796D01*
X74795001Y-47417878D01*
X74777072Y-47476982D01*
X74773555Y-47512687D01*
X73699776Y-46438909D01*
X73705799Y-46432886D01*
X73857371Y-46206043D01*
X73961775Y-45953989D01*
X74015000Y-45686411D01*
X74015000Y-45403589D01*
X73961775Y-45136011D01*
X73857371Y-44883957D01*
X73705799Y-44657114D01*
X73512886Y-44464201D01*
X73286043Y-44312629D01*
X73033989Y-44208225D01*
X72766411Y-44155000D01*
X72493589Y-44155000D01*
X72226011Y-44208225D01*
X71973957Y-44312629D01*
X71747114Y-44464201D01*
X71554201Y-44657114D01*
X71402629Y-44883957D01*
X71298225Y-45136011D01*
X71245000Y-45403589D01*
X71245000Y-45686411D01*
X71298225Y-45953989D01*
X71402629Y-46206043D01*
X71554201Y-46432886D01*
X71747114Y-46625799D01*
X71802040Y-46662500D01*
X71807082Y-46713688D01*
X71854828Y-46871086D01*
X71932364Y-47016145D01*
X72036709Y-47143291D01*
X72068579Y-47169446D01*
X74164981Y-49265850D01*
X74164981Y-49621270D01*
X70814265Y-46270555D01*
X70857371Y-46206043D01*
X70961775Y-45953989D01*
X71015000Y-45686411D01*
X71015000Y-45403589D01*
X70961775Y-45136011D01*
X70857371Y-44883957D01*
X70705799Y-44657114D01*
X70512886Y-44464201D01*
X70286043Y-44312629D01*
X70033989Y-44208225D01*
X69766411Y-44155000D01*
X69493589Y-44155000D01*
X69226011Y-44208225D01*
X68973957Y-44312629D01*
X68874970Y-44378770D01*
X68857354Y-44345812D01*
X68844735Y-44322203D01*
X68747804Y-44204093D01*
X68715397Y-44164605D01*
X68675909Y-44132198D01*
X67814265Y-43270555D01*
X67857371Y-43206043D01*
X67961775Y-42953989D01*
X68015000Y-42686411D01*
X68015000Y-42403589D01*
X68245000Y-42403589D01*
X68245000Y-42686411D01*
X68298225Y-42953989D01*
X68402629Y-43206043D01*
X68554201Y-43432886D01*
X68747114Y-43625799D01*
X68973957Y-43777371D01*
X69226011Y-43881775D01*
X69493589Y-43935000D01*
X69766411Y-43935000D01*
X70033989Y-43881775D01*
X70286043Y-43777371D01*
X70512886Y-43625799D01*
X70705799Y-43432886D01*
X70857371Y-43206043D01*
X70961775Y-42953989D01*
X71015000Y-42686411D01*
X71015000Y-42403589D01*
X71245000Y-42403589D01*
X71245000Y-42686411D01*
X71298225Y-42953989D01*
X71402629Y-43206043D01*
X71554201Y-43432886D01*
X71747114Y-43625799D01*
X71973957Y-43777371D01*
X72226011Y-43881775D01*
X72493589Y-43935000D01*
X72766411Y-43935000D01*
X73033989Y-43881775D01*
X73286043Y-43777371D01*
X73512886Y-43625799D01*
X73705799Y-43432886D01*
X73857371Y-43206043D01*
X73961775Y-42953989D01*
X74015000Y-42686411D01*
X74015000Y-42403589D01*
X73961775Y-42136011D01*
X73857371Y-41883957D01*
X73705799Y-41657114D01*
X73512886Y-41464201D01*
X73286043Y-41312629D01*
X73033989Y-41208225D01*
X72766411Y-41155000D01*
X72493589Y-41155000D01*
X72226011Y-41208225D01*
X71973957Y-41312629D01*
X71747114Y-41464201D01*
X71554201Y-41657114D01*
X71402629Y-41883957D01*
X71298225Y-42136011D01*
X71245000Y-42403589D01*
X71015000Y-42403589D01*
X70961775Y-42136011D01*
X70857371Y-41883957D01*
X70705799Y-41657114D01*
X70512886Y-41464201D01*
X70286043Y-41312629D01*
X70033989Y-41208225D01*
X69766411Y-41155000D01*
X69493589Y-41155000D01*
X69226011Y-41208225D01*
X68973957Y-41312629D01*
X68747114Y-41464201D01*
X68554201Y-41657114D01*
X68402629Y-41883957D01*
X68298225Y-42136011D01*
X68245000Y-42403589D01*
X68015000Y-42403589D01*
X67961775Y-42136011D01*
X67857371Y-41883957D01*
X67705799Y-41657114D01*
X67512886Y-41464201D01*
X67286043Y-41312629D01*
X67033989Y-41208225D01*
X66766411Y-41155000D01*
X66493589Y-41155000D01*
X66226011Y-41208225D01*
X65973957Y-41312629D01*
X65747114Y-41464201D01*
X65554201Y-41657114D01*
X65402629Y-41883957D01*
X65298225Y-42136011D01*
X65245000Y-42403589D01*
X65245000Y-42686411D01*
X65298225Y-42953989D01*
X65402629Y-43206043D01*
X65554201Y-43432886D01*
X65595000Y-43473685D01*
X65595000Y-43499171D01*
X65589994Y-43550000D01*
X65595000Y-43600828D01*
X65595000Y-43600837D01*
X65609976Y-43752894D01*
X65669159Y-43947992D01*
X65765266Y-44127797D01*
X65894604Y-44285396D01*
X65934097Y-44317807D01*
X65946959Y-44330669D01*
X65747114Y-44464201D01*
X65554201Y-44657114D01*
X65402629Y-44883957D01*
X65298225Y-45136011D01*
X65245000Y-45403589D01*
X65245000Y-45686411D01*
X65298225Y-45953989D01*
X65402629Y-46206043D01*
X65554201Y-46432886D01*
X65747114Y-46625799D01*
X65973957Y-46777371D01*
X66226011Y-46881775D01*
X66493589Y-46935000D01*
X66766411Y-46935000D01*
X66945001Y-46899476D01*
X66945002Y-49291287D01*
X66304097Y-49932193D01*
X66264604Y-49964604D01*
X66135266Y-50122203D01*
X66039159Y-50302008D01*
X65979976Y-50497106D01*
X65974544Y-50552255D01*
X65474503Y-50052214D01*
X65630445Y-50021195D01*
X65861571Y-49925459D01*
X66069578Y-49786473D01*
X66246473Y-49609578D01*
X66385459Y-49401571D01*
X66481195Y-49170445D01*
X66530000Y-48925084D01*
X66530000Y-48674916D01*
X66481195Y-48429555D01*
X66385459Y-48198429D01*
X66246473Y-47990422D01*
X66069578Y-47813527D01*
X65861571Y-47674541D01*
X65630445Y-47578805D01*
X65385084Y-47530000D01*
X65134916Y-47530000D01*
X64889555Y-47578805D01*
X64658429Y-47674541D01*
X64450422Y-47813527D01*
X64273527Y-47990422D01*
X64134541Y-48198429D01*
X64038805Y-48429555D01*
X64007786Y-48585497D01*
X62314999Y-46892710D01*
X62314999Y-46345934D01*
X62319523Y-46299999D01*
X62301471Y-46116707D01*
X62255798Y-45966146D01*
X62248006Y-45940459D01*
X62161185Y-45778027D01*
X62044343Y-45635655D01*
X62015000Y-45611574D01*
X62015000Y-45403589D01*
X62245000Y-45403589D01*
X62245000Y-45686411D01*
X62298225Y-45953989D01*
X62402629Y-46206043D01*
X62554201Y-46432886D01*
X62747114Y-46625799D01*
X62973957Y-46777371D01*
X63226011Y-46881775D01*
X63493589Y-46935000D01*
X63766411Y-46935000D01*
X64033989Y-46881775D01*
X64286043Y-46777371D01*
X64512886Y-46625799D01*
X64705799Y-46432886D01*
X64857371Y-46206043D01*
X64961775Y-45953989D01*
X65015000Y-45686411D01*
X65015000Y-45403589D01*
X64961775Y-45136011D01*
X64857371Y-44883957D01*
X64705799Y-44657114D01*
X64512886Y-44464201D01*
X64286043Y-44312629D01*
X64033989Y-44208225D01*
X63766411Y-44155000D01*
X63493589Y-44155000D01*
X63226011Y-44208225D01*
X62973957Y-44312629D01*
X62747114Y-44464201D01*
X62554201Y-44657114D01*
X62402629Y-44883957D01*
X62298225Y-45136011D01*
X62245000Y-45403589D01*
X62015000Y-45403589D01*
X61961775Y-45136011D01*
X61857371Y-44883957D01*
X61705799Y-44657114D01*
X61512886Y-44464201D01*
X61286043Y-44312629D01*
X61033989Y-44208225D01*
X60766411Y-44155000D01*
X60493589Y-44155000D01*
X60226011Y-44208225D01*
X59973957Y-44312629D01*
X59747114Y-44464201D01*
X59554201Y-44657114D01*
X59402629Y-44883957D01*
X59298225Y-45136011D01*
X59245000Y-45403589D01*
X59245000Y-45686411D01*
X59298225Y-45953989D01*
X59402629Y-46206043D01*
X59554201Y-46432886D01*
X59747114Y-46625799D01*
X59973957Y-46777371D01*
X60226011Y-46881775D01*
X60445000Y-46925335D01*
X60445000Y-47234058D01*
X60440475Y-47279999D01*
X60458528Y-47463290D01*
X60496968Y-47590007D01*
X60511993Y-47639539D01*
X60598814Y-47801971D01*
X60715656Y-47944343D01*
X60751335Y-47973624D01*
X63189638Y-50411928D01*
X62540000Y-50411928D01*
X62366746Y-50428992D01*
X62200150Y-50479528D01*
X62133787Y-50515000D01*
X59385000Y-50515000D01*
X59385000Y-49988029D01*
X59391700Y-49920000D01*
X59385000Y-49851971D01*
X59385000Y-49851963D01*
X59364960Y-49648493D01*
X59285764Y-49387419D01*
X59157157Y-49146812D01*
X59075089Y-49046812D01*
X59027452Y-48988766D01*
X59027450Y-48988764D01*
X58984081Y-48935919D01*
X58931236Y-48892550D01*
X56015000Y-45976315D01*
X56015000Y-45403589D01*
X56245000Y-45403589D01*
X56245000Y-45686411D01*
X56298225Y-45953989D01*
X56402629Y-46206043D01*
X56554201Y-46432886D01*
X56747114Y-46625799D01*
X56973957Y-46777371D01*
X57226011Y-46881775D01*
X57493589Y-46935000D01*
X57766411Y-46935000D01*
X58033989Y-46881775D01*
X58286043Y-46777371D01*
X58512886Y-46625799D01*
X58705799Y-46432886D01*
X58857371Y-46206043D01*
X58961775Y-45953989D01*
X59015000Y-45686411D01*
X59015000Y-45403589D01*
X58961775Y-45136011D01*
X58857371Y-44883957D01*
X58705799Y-44657114D01*
X58512886Y-44464201D01*
X58286043Y-44312629D01*
X58033989Y-44208225D01*
X57766411Y-44155000D01*
X57493589Y-44155000D01*
X57226011Y-44208225D01*
X56973957Y-44312629D01*
X56747114Y-44464201D01*
X56554201Y-44657114D01*
X56402629Y-44883957D01*
X56298225Y-45136011D01*
X56245000Y-45403589D01*
X56015000Y-45403589D01*
X55999710Y-45326723D01*
X55994960Y-45278493D01*
X55980892Y-45232115D01*
X55961775Y-45136011D01*
X55924277Y-45045483D01*
X55915764Y-45017419D01*
X55901940Y-44991555D01*
X55857371Y-44883957D01*
X55792668Y-44787122D01*
X55787157Y-44776812D01*
X55779741Y-44767775D01*
X55705799Y-44657114D01*
X55512886Y-44464201D01*
X55286043Y-44312629D01*
X55033989Y-44208225D01*
X54766411Y-44155000D01*
X54493589Y-44155000D01*
X54226011Y-44208225D01*
X53973957Y-44312629D01*
X53747114Y-44464201D01*
X53554201Y-44657114D01*
X53480256Y-44767780D01*
X53472843Y-44776813D01*
X53467335Y-44787118D01*
X53402629Y-44883957D01*
X53358058Y-44991560D01*
X53344236Y-45017420D01*
X53335724Y-45045480D01*
X53298225Y-45136011D01*
X53279108Y-45232118D01*
X53265040Y-45278494D01*
X53260290Y-45326722D01*
X53245000Y-45403589D01*
X53245000Y-46481971D01*
X53238300Y-46550000D01*
X53245000Y-46618029D01*
X53245000Y-46618037D01*
X53265040Y-46821507D01*
X53344236Y-47082581D01*
X53472843Y-47323188D01*
X53513656Y-47372918D01*
X53599060Y-47476982D01*
X53645920Y-47534081D01*
X53698764Y-47577449D01*
X54971316Y-48850001D01*
X54601952Y-48697006D01*
X53938318Y-48565000D01*
X53261682Y-48565000D01*
X52598048Y-48697006D01*
X51972918Y-48955943D01*
X51410315Y-49331862D01*
X51160000Y-49582177D01*
X51160000Y-42633835D01*
X51298933Y-42691383D01*
X51518212Y-42735000D01*
X51741788Y-42735000D01*
X51961067Y-42691383D01*
X52167624Y-42605824D01*
X52353520Y-42481612D01*
X52511612Y-42323520D01*
X52635824Y-42137624D01*
X52672119Y-42050000D01*
X53241928Y-42050000D01*
X53241928Y-43050000D01*
X53258992Y-43223254D01*
X53309528Y-43389850D01*
X53391595Y-43543386D01*
X53502038Y-43677962D01*
X53636614Y-43788405D01*
X53790150Y-43870472D01*
X53956746Y-43921008D01*
X54130000Y-43938072D01*
X55130000Y-43938072D01*
X55303254Y-43921008D01*
X55469850Y-43870472D01*
X55623386Y-43788405D01*
X55757962Y-43677962D01*
X55868405Y-43543386D01*
X55950472Y-43389850D01*
X56001008Y-43223254D01*
X56018072Y-43050000D01*
X56018072Y-42403589D01*
X56245000Y-42403589D01*
X56245000Y-42686411D01*
X56298225Y-42953989D01*
X56402629Y-43206043D01*
X56554201Y-43432886D01*
X56747114Y-43625799D01*
X56973957Y-43777371D01*
X57226011Y-43881775D01*
X57493589Y-43935000D01*
X57766411Y-43935000D01*
X58033989Y-43881775D01*
X58286043Y-43777371D01*
X58512886Y-43625799D01*
X58705799Y-43432886D01*
X58857371Y-43206043D01*
X58961775Y-42953989D01*
X59015000Y-42686411D01*
X59015000Y-42403589D01*
X59245000Y-42403589D01*
X59245000Y-42686411D01*
X59298225Y-42953989D01*
X59402629Y-43206043D01*
X59554201Y-43432886D01*
X59747114Y-43625799D01*
X59973957Y-43777371D01*
X60226011Y-43881775D01*
X60493589Y-43935000D01*
X60766411Y-43935000D01*
X61033989Y-43881775D01*
X61286043Y-43777371D01*
X61512886Y-43625799D01*
X61705799Y-43432886D01*
X61857371Y-43206043D01*
X61961775Y-42953989D01*
X62015000Y-42686411D01*
X62015000Y-42403589D01*
X62245000Y-42403589D01*
X62245000Y-42686411D01*
X62298225Y-42953989D01*
X62402629Y-43206043D01*
X62554201Y-43432886D01*
X62747114Y-43625799D01*
X62973957Y-43777371D01*
X63226011Y-43881775D01*
X63493589Y-43935000D01*
X63766411Y-43935000D01*
X64033989Y-43881775D01*
X64286043Y-43777371D01*
X64512886Y-43625799D01*
X64705799Y-43432886D01*
X64857371Y-43206043D01*
X64961775Y-42953989D01*
X65015000Y-42686411D01*
X65015000Y-42403589D01*
X64961775Y-42136011D01*
X64857371Y-41883957D01*
X64705799Y-41657114D01*
X64512886Y-41464201D01*
X64286043Y-41312629D01*
X64033989Y-41208225D01*
X63766411Y-41155000D01*
X63493589Y-41155000D01*
X63226011Y-41208225D01*
X62973957Y-41312629D01*
X62747114Y-41464201D01*
X62554201Y-41657114D01*
X62402629Y-41883957D01*
X62298225Y-42136011D01*
X62245000Y-42403589D01*
X62015000Y-42403589D01*
X61961775Y-42136011D01*
X61857371Y-41883957D01*
X61705799Y-41657114D01*
X61512886Y-41464201D01*
X61286043Y-41312629D01*
X61033989Y-41208225D01*
X60766411Y-41155000D01*
X60493589Y-41155000D01*
X60226011Y-41208225D01*
X59973957Y-41312629D01*
X59747114Y-41464201D01*
X59554201Y-41657114D01*
X59402629Y-41883957D01*
X59298225Y-42136011D01*
X59245000Y-42403589D01*
X59015000Y-42403589D01*
X58961775Y-42136011D01*
X58857371Y-41883957D01*
X58705799Y-41657114D01*
X58512886Y-41464201D01*
X58286043Y-41312629D01*
X58033989Y-41208225D01*
X57766411Y-41155000D01*
X57493589Y-41155000D01*
X57226011Y-41208225D01*
X56973957Y-41312629D01*
X56747114Y-41464201D01*
X56554201Y-41657114D01*
X56402629Y-41883957D01*
X56298225Y-42136011D01*
X56245000Y-42403589D01*
X56018072Y-42403589D01*
X56018072Y-42050000D01*
X56001008Y-41876746D01*
X55950472Y-41710150D01*
X55868405Y-41556614D01*
X55757962Y-41422038D01*
X55623386Y-41311595D01*
X55469850Y-41229528D01*
X55303254Y-41178992D01*
X55130000Y-41161928D01*
X55106531Y-41161928D01*
X55005000Y-41151928D01*
X54255000Y-41151928D01*
X54153469Y-41161928D01*
X54130000Y-41161928D01*
X53956746Y-41178992D01*
X53790150Y-41229528D01*
X53636614Y-41311595D01*
X53502038Y-41422038D01*
X53391595Y-41556614D01*
X53309528Y-41710150D01*
X53258992Y-41876746D01*
X53241928Y-42050000D01*
X52672119Y-42050000D01*
X52721383Y-41931067D01*
X52765000Y-41711788D01*
X52765000Y-41488212D01*
X52721383Y-41268933D01*
X52635824Y-41062376D01*
X52511612Y-40876480D01*
X52353520Y-40718388D01*
X52167624Y-40594176D01*
X51961067Y-40508617D01*
X51741788Y-40465000D01*
X51518212Y-40465000D01*
X51298933Y-40508617D01*
X51160000Y-40566165D01*
X51160000Y-38019721D01*
X54655000Y-38019721D01*
X54655000Y-38440279D01*
X54737047Y-38852756D01*
X54897988Y-39241302D01*
X55131637Y-39590983D01*
X55429017Y-39888363D01*
X55778698Y-40122012D01*
X56167244Y-40282953D01*
X56579721Y-40365000D01*
X57000279Y-40365000D01*
X57412756Y-40282953D01*
X57801302Y-40122012D01*
X58150983Y-39888363D01*
X58448363Y-39590983D01*
X58682012Y-39241302D01*
X58842953Y-38852756D01*
X58925000Y-38440279D01*
X58925000Y-38019721D01*
X71355000Y-38019721D01*
X71355000Y-38440279D01*
X71437047Y-38852756D01*
X71597988Y-39241302D01*
X71831637Y-39590983D01*
X72129017Y-39888363D01*
X72478698Y-40122012D01*
X72867244Y-40282953D01*
X73279721Y-40365000D01*
X73700279Y-40365000D01*
X74112756Y-40282953D01*
X74501302Y-40122012D01*
X74850983Y-39888363D01*
X75148363Y-39590983D01*
X75382012Y-39241302D01*
X75542953Y-38852756D01*
X75625000Y-38440279D01*
X75625000Y-38019721D01*
X75542953Y-37607244D01*
X75382012Y-37218698D01*
X75148363Y-36869017D01*
X74850983Y-36571637D01*
X74501302Y-36337988D01*
X74112756Y-36177047D01*
X73700279Y-36095000D01*
X73279721Y-36095000D01*
X72867244Y-36177047D01*
X72478698Y-36337988D01*
X72129017Y-36571637D01*
X71831637Y-36869017D01*
X71597988Y-37218698D01*
X71437047Y-37607244D01*
X71355000Y-38019721D01*
X58925000Y-38019721D01*
X58842953Y-37607244D01*
X58682012Y-37218698D01*
X58448363Y-36869017D01*
X58150983Y-36571637D01*
X57801302Y-36337988D01*
X57412756Y-36177047D01*
X57000279Y-36095000D01*
X56579721Y-36095000D01*
X56167244Y-36177047D01*
X55778698Y-36337988D01*
X55429017Y-36571637D01*
X55131637Y-36869017D01*
X54897988Y-37218698D01*
X54737047Y-37607244D01*
X54655000Y-38019721D01*
X51160000Y-38019721D01*
X51160000Y-34660000D01*
X80011865Y-34660000D01*
X79920147Y-34881426D01*
G37*
X79920147Y-34881426D02*
X79865000Y-35158665D01*
X79865000Y-35441335D01*
X79883714Y-35535417D01*
X75068574Y-40350559D01*
X75036710Y-40376709D01*
X75010562Y-40408571D01*
X74932364Y-40503855D01*
X74854828Y-40648914D01*
X74807082Y-40806312D01*
X74790960Y-40970000D01*
X74795001Y-41011028D01*
X74795001Y-41432204D01*
X74747114Y-41464201D01*
X74554201Y-41657114D01*
X74402629Y-41883957D01*
X74298225Y-42136011D01*
X74245000Y-42403589D01*
X74245000Y-42686411D01*
X74298225Y-42953989D01*
X74402629Y-43206043D01*
X74554201Y-43432886D01*
X74747114Y-43625799D01*
X74973957Y-43777371D01*
X75226011Y-43881775D01*
X75493589Y-43935000D01*
X75766411Y-43935000D01*
X76033989Y-43881775D01*
X76286043Y-43777371D01*
X76512886Y-43625799D01*
X76705799Y-43432886D01*
X76857371Y-43206043D01*
X76961775Y-42953989D01*
X77015000Y-42686411D01*
X77015000Y-42403589D01*
X76961775Y-42136011D01*
X76857371Y-41883957D01*
X76705799Y-41657114D01*
X76536897Y-41488212D01*
X77495000Y-41488212D01*
X77495000Y-41711788D01*
X77538617Y-41931067D01*
X77624176Y-42137624D01*
X77748388Y-42323520D01*
X77906480Y-42481612D01*
X78092376Y-42605824D01*
X78298933Y-42691383D01*
X78518212Y-42735000D01*
X78741788Y-42735000D01*
X78961067Y-42691383D01*
X79167624Y-42605824D01*
X79353520Y-42481612D01*
X79511612Y-42323520D01*
X79635824Y-42137624D01*
X79721383Y-41931067D01*
X79765000Y-41711788D01*
X79765000Y-41488212D01*
X79721383Y-41268933D01*
X79635824Y-41062376D01*
X79511612Y-40876480D01*
X79353520Y-40718388D01*
X79167624Y-40594176D01*
X78961067Y-40508617D01*
X78741788Y-40465000D01*
X78518212Y-40465000D01*
X78298933Y-40508617D01*
X78092376Y-40594176D01*
X77906480Y-40718388D01*
X77748388Y-40876480D01*
X77624176Y-41062376D01*
X77538617Y-41268933D01*
X77495000Y-41488212D01*
X76536897Y-41488212D01*
X76512886Y-41464201D01*
X76465000Y-41432205D01*
X76465000Y-41315867D01*
X79911928Y-37868940D01*
X79911928Y-38675000D01*
X79924319Y-38800136D01*
X79931909Y-38825064D01*
X79924188Y-38850518D01*
X79911928Y-38975000D01*
X79911928Y-40125000D01*
X79924188Y-40249482D01*
X79960498Y-40369180D01*
X80019463Y-40479494D01*
X80098815Y-40576185D01*
X80195506Y-40655537D01*
X80305820Y-40714502D01*
X80425518Y-40750812D01*
X80465000Y-40754701D01*
X80465001Y-41485375D01*
X80375518Y-41494188D01*
X80255820Y-41530498D01*
X80145506Y-41589463D01*
X80048815Y-41668815D01*
X79969463Y-41765506D01*
X79910498Y-41875820D01*
X79874188Y-41995518D01*
X79861928Y-42120000D01*
X79861928Y-43720000D01*
X79874188Y-43844482D01*
X79910498Y-43964180D01*
X79969463Y-44074494D01*
X80048815Y-44171185D01*
X80145506Y-44250537D01*
X80255820Y-44309502D01*
X80375518Y-44345812D01*
X80465001Y-44354625D01*
X80465001Y-45054130D01*
X76434990Y-49084143D01*
X76434990Y-47833450D01*
X76452918Y-47774349D01*
X76465000Y-47651679D01*
X76465000Y-47651678D01*
X76469040Y-47610660D01*
X76465000Y-47569642D01*
X76465000Y-46657795D01*
X76512886Y-46625799D01*
X76705799Y-46432886D01*
X76857371Y-46206043D01*
X76961775Y-45953989D01*
X77015000Y-45686411D01*
X77015000Y-45403589D01*
X76961775Y-45136011D01*
X76857371Y-44883957D01*
X76705799Y-44657114D01*
X76512886Y-44464201D01*
X76286043Y-44312629D01*
X76033989Y-44208225D01*
X75766411Y-44155000D01*
X75493589Y-44155000D01*
X75226011Y-44208225D01*
X74973957Y-44312629D01*
X74747114Y-44464201D01*
X74554201Y-44657114D01*
X74402629Y-44883957D01*
X74298225Y-45136011D01*
X74245000Y-45403589D01*
X74245000Y-45686411D01*
X74298225Y-45953989D01*
X74402629Y-46206043D01*
X74554201Y-46432886D01*
X74747114Y-46625799D01*
X74795000Y-46657796D01*
X74795001Y-47417878D01*
X74777072Y-47476982D01*
X74773555Y-47512687D01*
X73699776Y-46438909D01*
X73705799Y-46432886D01*
X73857371Y-46206043D01*
X73961775Y-45953989D01*
X74015000Y-45686411D01*
X74015000Y-45403589D01*
X73961775Y-45136011D01*
X73857371Y-44883957D01*
X73705799Y-44657114D01*
X73512886Y-44464201D01*
X73286043Y-44312629D01*
X73033989Y-44208225D01*
X72766411Y-44155000D01*
X72493589Y-44155000D01*
X72226011Y-44208225D01*
X71973957Y-44312629D01*
X71747114Y-44464201D01*
X71554201Y-44657114D01*
X71402629Y-44883957D01*
X71298225Y-45136011D01*
X71245000Y-45403589D01*
X71245000Y-45686411D01*
X71298225Y-45953989D01*
X71402629Y-46206043D01*
X71554201Y-46432886D01*
X71747114Y-46625799D01*
X71802040Y-46662500D01*
X71807082Y-46713688D01*
X71854828Y-46871086D01*
X71932364Y-47016145D01*
X72036709Y-47143291D01*
X72068579Y-47169446D01*
X74164981Y-49265850D01*
X74164981Y-49621270D01*
X70814265Y-46270555D01*
X70857371Y-46206043D01*
X70961775Y-45953989D01*
X71015000Y-45686411D01*
X71015000Y-45403589D01*
X70961775Y-45136011D01*
X70857371Y-44883957D01*
X70705799Y-44657114D01*
X70512886Y-44464201D01*
X70286043Y-44312629D01*
X70033989Y-44208225D01*
X69766411Y-44155000D01*
X69493589Y-44155000D01*
X69226011Y-44208225D01*
X68973957Y-44312629D01*
X68874970Y-44378770D01*
X68857354Y-44345812D01*
X68844735Y-44322203D01*
X68747804Y-44204093D01*
X68715397Y-44164605D01*
X68675909Y-44132198D01*
X67814265Y-43270555D01*
X67857371Y-43206043D01*
X67961775Y-42953989D01*
X68015000Y-42686411D01*
X68015000Y-42403589D01*
X68245000Y-42403589D01*
X68245000Y-42686411D01*
X68298225Y-42953989D01*
X68402629Y-43206043D01*
X68554201Y-43432886D01*
X68747114Y-43625799D01*
X68973957Y-43777371D01*
X69226011Y-43881775D01*
X69493589Y-43935000D01*
X69766411Y-43935000D01*
X70033989Y-43881775D01*
X70286043Y-43777371D01*
X70512886Y-43625799D01*
X70705799Y-43432886D01*
X70857371Y-43206043D01*
X70961775Y-42953989D01*
X71015000Y-42686411D01*
X71015000Y-42403589D01*
X71245000Y-42403589D01*
X71245000Y-42686411D01*
X71298225Y-42953989D01*
X71402629Y-43206043D01*
X71554201Y-43432886D01*
X71747114Y-43625799D01*
X71973957Y-43777371D01*
X72226011Y-43881775D01*
X72493589Y-43935000D01*
X72766411Y-43935000D01*
X73033989Y-43881775D01*
X73286043Y-43777371D01*
X73512886Y-43625799D01*
X73705799Y-43432886D01*
X73857371Y-43206043D01*
X73961775Y-42953989D01*
X74015000Y-42686411D01*
X74015000Y-42403589D01*
X73961775Y-42136011D01*
X73857371Y-41883957D01*
X73705799Y-41657114D01*
X73512886Y-41464201D01*
X73286043Y-41312629D01*
X73033989Y-41208225D01*
X72766411Y-41155000D01*
X72493589Y-41155000D01*
X72226011Y-41208225D01*
X71973957Y-41312629D01*
X71747114Y-41464201D01*
X71554201Y-41657114D01*
X71402629Y-41883957D01*
X71298225Y-42136011D01*
X71245000Y-42403589D01*
X71015000Y-42403589D01*
X70961775Y-42136011D01*
X70857371Y-41883957D01*
X70705799Y-41657114D01*
X70512886Y-41464201D01*
X70286043Y-41312629D01*
X70033989Y-41208225D01*
X69766411Y-41155000D01*
X69493589Y-41155000D01*
X69226011Y-41208225D01*
X68973957Y-41312629D01*
X68747114Y-41464201D01*
X68554201Y-41657114D01*
X68402629Y-41883957D01*
X68298225Y-42136011D01*
X68245000Y-42403589D01*
X68015000Y-42403589D01*
X67961775Y-42136011D01*
X67857371Y-41883957D01*
X67705799Y-41657114D01*
X67512886Y-41464201D01*
X67286043Y-41312629D01*
X67033989Y-41208225D01*
X66766411Y-41155000D01*
X66493589Y-41155000D01*
X66226011Y-41208225D01*
X65973957Y-41312629D01*
X65747114Y-41464201D01*
X65554201Y-41657114D01*
X65402629Y-41883957D01*
X65298225Y-42136011D01*
X65245000Y-42403589D01*
X65245000Y-42686411D01*
X65298225Y-42953989D01*
X65402629Y-43206043D01*
X65554201Y-43432886D01*
X65595000Y-43473685D01*
X65595000Y-43499171D01*
X65589994Y-43550000D01*
X65595000Y-43600828D01*
X65595000Y-43600837D01*
X65609976Y-43752894D01*
X65669159Y-43947992D01*
X65765266Y-44127797D01*
X65894604Y-44285396D01*
X65934097Y-44317807D01*
X65946959Y-44330669D01*
X65747114Y-44464201D01*
X65554201Y-44657114D01*
X65402629Y-44883957D01*
X65298225Y-45136011D01*
X65245000Y-45403589D01*
X65245000Y-45686411D01*
X65298225Y-45953989D01*
X65402629Y-46206043D01*
X65554201Y-46432886D01*
X65747114Y-46625799D01*
X65973957Y-46777371D01*
X66226011Y-46881775D01*
X66493589Y-46935000D01*
X66766411Y-46935000D01*
X66945001Y-46899476D01*
X66945002Y-49291287D01*
X66304097Y-49932193D01*
X66264604Y-49964604D01*
X66135266Y-50122203D01*
X66039159Y-50302008D01*
X65979976Y-50497106D01*
X65974544Y-50552255D01*
X65474503Y-50052214D01*
X65630445Y-50021195D01*
X65861571Y-49925459D01*
X66069578Y-49786473D01*
X66246473Y-49609578D01*
X66385459Y-49401571D01*
X66481195Y-49170445D01*
X66530000Y-48925084D01*
X66530000Y-48674916D01*
X66481195Y-48429555D01*
X66385459Y-48198429D01*
X66246473Y-47990422D01*
X66069578Y-47813527D01*
X65861571Y-47674541D01*
X65630445Y-47578805D01*
X65385084Y-47530000D01*
X65134916Y-47530000D01*
X64889555Y-47578805D01*
X64658429Y-47674541D01*
X64450422Y-47813527D01*
X64273527Y-47990422D01*
X64134541Y-48198429D01*
X64038805Y-48429555D01*
X64007786Y-48585497D01*
X62314999Y-46892710D01*
X62314999Y-46345934D01*
X62319523Y-46299999D01*
X62301471Y-46116707D01*
X62255798Y-45966146D01*
X62248006Y-45940459D01*
X62161185Y-45778027D01*
X62044343Y-45635655D01*
X62015000Y-45611574D01*
X62015000Y-45403589D01*
X62245000Y-45403589D01*
X62245000Y-45686411D01*
X62298225Y-45953989D01*
X62402629Y-46206043D01*
X62554201Y-46432886D01*
X62747114Y-46625799D01*
X62973957Y-46777371D01*
X63226011Y-46881775D01*
X63493589Y-46935000D01*
X63766411Y-46935000D01*
X64033989Y-46881775D01*
X64286043Y-46777371D01*
X64512886Y-46625799D01*
X64705799Y-46432886D01*
X64857371Y-46206043D01*
X64961775Y-45953989D01*
X65015000Y-45686411D01*
X65015000Y-45403589D01*
X64961775Y-45136011D01*
X64857371Y-44883957D01*
X64705799Y-44657114D01*
X64512886Y-44464201D01*
X64286043Y-44312629D01*
X64033989Y-44208225D01*
X63766411Y-44155000D01*
X63493589Y-44155000D01*
X63226011Y-44208225D01*
X62973957Y-44312629D01*
X62747114Y-44464201D01*
X62554201Y-44657114D01*
X62402629Y-44883957D01*
X62298225Y-45136011D01*
X62245000Y-45403589D01*
X62015000Y-45403589D01*
X61961775Y-45136011D01*
X61857371Y-44883957D01*
X61705799Y-44657114D01*
X61512886Y-44464201D01*
X61286043Y-44312629D01*
X61033989Y-44208225D01*
X60766411Y-44155000D01*
X60493589Y-44155000D01*
X60226011Y-44208225D01*
X59973957Y-44312629D01*
X59747114Y-44464201D01*
X59554201Y-44657114D01*
X59402629Y-44883957D01*
X59298225Y-45136011D01*
X59245000Y-45403589D01*
X59245000Y-45686411D01*
X59298225Y-45953989D01*
X59402629Y-46206043D01*
X59554201Y-46432886D01*
X59747114Y-46625799D01*
X59973957Y-46777371D01*
X60226011Y-46881775D01*
X60445000Y-46925335D01*
X60445000Y-47234058D01*
X60440475Y-47279999D01*
X60458528Y-47463290D01*
X60496968Y-47590007D01*
X60511993Y-47639539D01*
X60598814Y-47801971D01*
X60715656Y-47944343D01*
X60751335Y-47973624D01*
X63189638Y-50411928D01*
X62540000Y-50411928D01*
X62366746Y-50428992D01*
X62200150Y-50479528D01*
X62133787Y-50515000D01*
X59385000Y-50515000D01*
X59385000Y-49988029D01*
X59391700Y-49920000D01*
X59385000Y-49851971D01*
X59385000Y-49851963D01*
X59364960Y-49648493D01*
X59285764Y-49387419D01*
X59157157Y-49146812D01*
X59075089Y-49046812D01*
X59027452Y-48988766D01*
X59027450Y-48988764D01*
X58984081Y-48935919D01*
X58931236Y-48892550D01*
X56015000Y-45976315D01*
X56015000Y-45403589D01*
X56245000Y-45403589D01*
X56245000Y-45686411D01*
X56298225Y-45953989D01*
X56402629Y-46206043D01*
X56554201Y-46432886D01*
X56747114Y-46625799D01*
X56973957Y-46777371D01*
X57226011Y-46881775D01*
X57493589Y-46935000D01*
X57766411Y-46935000D01*
X58033989Y-46881775D01*
X58286043Y-46777371D01*
X58512886Y-46625799D01*
X58705799Y-46432886D01*
X58857371Y-46206043D01*
X58961775Y-45953989D01*
X59015000Y-45686411D01*
X59015000Y-45403589D01*
X58961775Y-45136011D01*
X58857371Y-44883957D01*
X58705799Y-44657114D01*
X58512886Y-44464201D01*
X58286043Y-44312629D01*
X58033989Y-44208225D01*
X57766411Y-44155000D01*
X57493589Y-44155000D01*
X57226011Y-44208225D01*
X56973957Y-44312629D01*
X56747114Y-44464201D01*
X56554201Y-44657114D01*
X56402629Y-44883957D01*
X56298225Y-45136011D01*
X56245000Y-45403589D01*
X56015000Y-45403589D01*
X55999710Y-45326723D01*
X55994960Y-45278493D01*
X55980892Y-45232115D01*
X55961775Y-45136011D01*
X55924277Y-45045483D01*
X55915764Y-45017419D01*
X55901940Y-44991555D01*
X55857371Y-44883957D01*
X55792668Y-44787122D01*
X55787157Y-44776812D01*
X55779741Y-44767775D01*
X55705799Y-44657114D01*
X55512886Y-44464201D01*
X55286043Y-44312629D01*
X55033989Y-44208225D01*
X54766411Y-44155000D01*
X54493589Y-44155000D01*
X54226011Y-44208225D01*
X53973957Y-44312629D01*
X53747114Y-44464201D01*
X53554201Y-44657114D01*
X53480256Y-44767780D01*
X53472843Y-44776813D01*
X53467335Y-44787118D01*
X53402629Y-44883957D01*
X53358058Y-44991560D01*
X53344236Y-45017420D01*
X53335724Y-45045480D01*
X53298225Y-45136011D01*
X53279108Y-45232118D01*
X53265040Y-45278494D01*
X53260290Y-45326722D01*
X53245000Y-45403589D01*
X53245000Y-46481971D01*
X53238300Y-46550000D01*
X53245000Y-46618029D01*
X53245000Y-46618037D01*
X53265040Y-46821507D01*
X53344236Y-47082581D01*
X53472843Y-47323188D01*
X53513656Y-47372918D01*
X53599060Y-47476982D01*
X53645920Y-47534081D01*
X53698764Y-47577449D01*
X54971316Y-48850001D01*
X54601952Y-48697006D01*
X53938318Y-48565000D01*
X53261682Y-48565000D01*
X52598048Y-48697006D01*
X51972918Y-48955943D01*
X51410315Y-49331862D01*
X51160000Y-49582177D01*
X51160000Y-42633835D01*
X51298933Y-42691383D01*
X51518212Y-42735000D01*
X51741788Y-42735000D01*
X51961067Y-42691383D01*
X52167624Y-42605824D01*
X52353520Y-42481612D01*
X52511612Y-42323520D01*
X52635824Y-42137624D01*
X52672119Y-42050000D01*
X53241928Y-42050000D01*
X53241928Y-43050000D01*
X53258992Y-43223254D01*
X53309528Y-43389850D01*
X53391595Y-43543386D01*
X53502038Y-43677962D01*
X53636614Y-43788405D01*
X53790150Y-43870472D01*
X53956746Y-43921008D01*
X54130000Y-43938072D01*
X55130000Y-43938072D01*
X55303254Y-43921008D01*
X55469850Y-43870472D01*
X55623386Y-43788405D01*
X55757962Y-43677962D01*
X55868405Y-43543386D01*
X55950472Y-43389850D01*
X56001008Y-43223254D01*
X56018072Y-43050000D01*
X56018072Y-42403589D01*
X56245000Y-42403589D01*
X56245000Y-42686411D01*
X56298225Y-42953989D01*
X56402629Y-43206043D01*
X56554201Y-43432886D01*
X56747114Y-43625799D01*
X56973957Y-43777371D01*
X57226011Y-43881775D01*
X57493589Y-43935000D01*
X57766411Y-43935000D01*
X58033989Y-43881775D01*
X58286043Y-43777371D01*
X58512886Y-43625799D01*
X58705799Y-43432886D01*
X58857371Y-43206043D01*
X58961775Y-42953989D01*
X59015000Y-42686411D01*
X59015000Y-42403589D01*
X59245000Y-42403589D01*
X59245000Y-42686411D01*
X59298225Y-42953989D01*
X59402629Y-43206043D01*
X59554201Y-43432886D01*
X59747114Y-43625799D01*
X59973957Y-43777371D01*
X60226011Y-43881775D01*
X60493589Y-43935000D01*
X60766411Y-43935000D01*
X61033989Y-43881775D01*
X61286043Y-43777371D01*
X61512886Y-43625799D01*
X61705799Y-43432886D01*
X61857371Y-43206043D01*
X61961775Y-42953989D01*
X62015000Y-42686411D01*
X62015000Y-42403589D01*
X62245000Y-42403589D01*
X62245000Y-42686411D01*
X62298225Y-42953989D01*
X62402629Y-43206043D01*
X62554201Y-43432886D01*
X62747114Y-43625799D01*
X62973957Y-43777371D01*
X63226011Y-43881775D01*
X63493589Y-43935000D01*
X63766411Y-43935000D01*
X64033989Y-43881775D01*
X64286043Y-43777371D01*
X64512886Y-43625799D01*
X64705799Y-43432886D01*
X64857371Y-43206043D01*
X64961775Y-42953989D01*
X65015000Y-42686411D01*
X65015000Y-42403589D01*
X64961775Y-42136011D01*
X64857371Y-41883957D01*
X64705799Y-41657114D01*
X64512886Y-41464201D01*
X64286043Y-41312629D01*
X64033989Y-41208225D01*
X63766411Y-41155000D01*
X63493589Y-41155000D01*
X63226011Y-41208225D01*
X62973957Y-41312629D01*
X62747114Y-41464201D01*
X62554201Y-41657114D01*
X62402629Y-41883957D01*
X62298225Y-42136011D01*
X62245000Y-42403589D01*
X62015000Y-42403589D01*
X61961775Y-42136011D01*
X61857371Y-41883957D01*
X61705799Y-41657114D01*
X61512886Y-41464201D01*
X61286043Y-41312629D01*
X61033989Y-41208225D01*
X60766411Y-41155000D01*
X60493589Y-41155000D01*
X60226011Y-41208225D01*
X59973957Y-41312629D01*
X59747114Y-41464201D01*
X59554201Y-41657114D01*
X59402629Y-41883957D01*
X59298225Y-42136011D01*
X59245000Y-42403589D01*
X59015000Y-42403589D01*
X58961775Y-42136011D01*
X58857371Y-41883957D01*
X58705799Y-41657114D01*
X58512886Y-41464201D01*
X58286043Y-41312629D01*
X58033989Y-41208225D01*
X57766411Y-41155000D01*
X57493589Y-41155000D01*
X57226011Y-41208225D01*
X56973957Y-41312629D01*
X56747114Y-41464201D01*
X56554201Y-41657114D01*
X56402629Y-41883957D01*
X56298225Y-42136011D01*
X56245000Y-42403589D01*
X56018072Y-42403589D01*
X56018072Y-42050000D01*
X56001008Y-41876746D01*
X55950472Y-41710150D01*
X55868405Y-41556614D01*
X55757962Y-41422038D01*
X55623386Y-41311595D01*
X55469850Y-41229528D01*
X55303254Y-41178992D01*
X55130000Y-41161928D01*
X55106531Y-41161928D01*
X55005000Y-41151928D01*
X54255000Y-41151928D01*
X54153469Y-41161928D01*
X54130000Y-41161928D01*
X53956746Y-41178992D01*
X53790150Y-41229528D01*
X53636614Y-41311595D01*
X53502038Y-41422038D01*
X53391595Y-41556614D01*
X53309528Y-41710150D01*
X53258992Y-41876746D01*
X53241928Y-42050000D01*
X52672119Y-42050000D01*
X52721383Y-41931067D01*
X52765000Y-41711788D01*
X52765000Y-41488212D01*
X52721383Y-41268933D01*
X52635824Y-41062376D01*
X52511612Y-40876480D01*
X52353520Y-40718388D01*
X52167624Y-40594176D01*
X51961067Y-40508617D01*
X51741788Y-40465000D01*
X51518212Y-40465000D01*
X51298933Y-40508617D01*
X51160000Y-40566165D01*
X51160000Y-38019721D01*
X54655000Y-38019721D01*
X54655000Y-38440279D01*
X54737047Y-38852756D01*
X54897988Y-39241302D01*
X55131637Y-39590983D01*
X55429017Y-39888363D01*
X55778698Y-40122012D01*
X56167244Y-40282953D01*
X56579721Y-40365000D01*
X57000279Y-40365000D01*
X57412756Y-40282953D01*
X57801302Y-40122012D01*
X58150983Y-39888363D01*
X58448363Y-39590983D01*
X58682012Y-39241302D01*
X58842953Y-38852756D01*
X58925000Y-38440279D01*
X58925000Y-38019721D01*
X71355000Y-38019721D01*
X71355000Y-38440279D01*
X71437047Y-38852756D01*
X71597988Y-39241302D01*
X71831637Y-39590983D01*
X72129017Y-39888363D01*
X72478698Y-40122012D01*
X72867244Y-40282953D01*
X73279721Y-40365000D01*
X73700279Y-40365000D01*
X74112756Y-40282953D01*
X74501302Y-40122012D01*
X74850983Y-39888363D01*
X75148363Y-39590983D01*
X75382012Y-39241302D01*
X75542953Y-38852756D01*
X75625000Y-38440279D01*
X75625000Y-38019721D01*
X75542953Y-37607244D01*
X75382012Y-37218698D01*
X75148363Y-36869017D01*
X74850983Y-36571637D01*
X74501302Y-36337988D01*
X74112756Y-36177047D01*
X73700279Y-36095000D01*
X73279721Y-36095000D01*
X72867244Y-36177047D01*
X72478698Y-36337988D01*
X72129017Y-36571637D01*
X71831637Y-36869017D01*
X71597988Y-37218698D01*
X71437047Y-37607244D01*
X71355000Y-38019721D01*
X58925000Y-38019721D01*
X58842953Y-37607244D01*
X58682012Y-37218698D01*
X58448363Y-36869017D01*
X58150983Y-36571637D01*
X57801302Y-36337988D01*
X57412756Y-36177047D01*
X57000279Y-36095000D01*
X56579721Y-36095000D01*
X56167244Y-36177047D01*
X55778698Y-36337988D01*
X55429017Y-36571637D01*
X55131637Y-36869017D01*
X54897988Y-37218698D01*
X54737047Y-37607244D01*
X54655000Y-38019721D01*
X51160000Y-38019721D01*
X51160000Y-34660000D01*
X80011865Y-34660000D01*
X79920147Y-34881426D01*
G36*
X71602068Y-49985778D02*
G01*
X71370986Y-50109294D01*
X71144866Y-50294866D01*
X71092777Y-50358337D01*
X71038405Y-50256614D01*
X70927962Y-50122038D01*
X70793386Y-50011595D01*
X70639850Y-49929528D01*
X70473254Y-49878992D01*
X70300000Y-49861928D01*
X69100000Y-49861928D01*
X69005109Y-49871274D01*
X69015001Y-49770837D01*
X69015001Y-49770834D01*
X69020008Y-49719999D01*
X69015001Y-49669164D01*
X69015001Y-47398711D01*
X71602068Y-49985778D01*
G37*
X71602068Y-49985778D02*
X71370986Y-50109294D01*
X71144866Y-50294866D01*
X71092777Y-50358337D01*
X71038405Y-50256614D01*
X70927962Y-50122038D01*
X70793386Y-50011595D01*
X70639850Y-49929528D01*
X70473254Y-49878992D01*
X70300000Y-49861928D01*
X69100000Y-49861928D01*
X69005109Y-49871274D01*
X69015001Y-49770837D01*
X69015001Y-49770834D01*
X69020008Y-49719999D01*
X69015001Y-49669164D01*
X69015001Y-47398711D01*
X71602068Y-49985778D01*
G36*
X81940000Y-49382177D02*
G01*
X81889685Y-49331862D01*
X81327082Y-48955943D01*
X80701952Y-48697006D01*
X80038318Y-48565000D01*
X79361682Y-48565000D01*
X79304492Y-48576376D01*
X81598996Y-46281873D01*
X81621087Y-46275172D01*
X81766146Y-46197636D01*
X81893291Y-46093291D01*
X81940000Y-46036375D01*
X81940000Y-49382177D01*
G37*
X81940000Y-49382177D02*
X81889685Y-49331862D01*
X81327082Y-48955943D01*
X80701952Y-48697006D01*
X80038318Y-48565000D01*
X79361682Y-48565000D01*
X79304492Y-48576376D01*
X81598996Y-46281873D01*
X81621087Y-46275172D01*
X81766146Y-46197636D01*
X81893291Y-46093291D01*
X81940000Y-46036375D01*
X81940000Y-49382177D01*
M02*
