G04 #@! TF.GenerationSoftware,KiCad,Pcbnew,5.1.6+dfsg1-1*
G04 #@! TF.CreationDate,2021-01-26T23:50:46+01:00*
G04 #@! TF.ProjectId,carabiner,63617261-6269-46e6-9572-2e6b69636164,rev?*
G04 #@! TF.SameCoordinates,Original*
G04 #@! TF.FileFunction,Copper,L2,Bot*
G04 #@! TF.FilePolarity,Positive*
%FSLAX46Y46*%
G04 Gerber Fmt 4.6, Leading zero omitted, Abs format (unit mm)*
G04 Created by KiCad (PCBNEW 5.1.6+dfsg1-1) date 2021-01-26 23:50:46*
%MOMM*%
%LPD*%
G01*
G04 APERTURE LIST*
G04 #@! TA.AperFunction,SMDPad,CuDef*
%ADD10C,0.100000*%
G04 #@! TD*
G04 #@! TA.AperFunction,ComponentPad*
%ADD11O,1.500000X2.020000*%
G04 #@! TD*
G04 #@! TA.AperFunction,ComponentPad*
%ADD12C,1.500000*%
G04 #@! TD*
G04 #@! TA.AperFunction,ComponentPad*
%ADD13C,3.410000*%
G04 #@! TD*
G04 #@! TA.AperFunction,ComponentPad*
%ADD14O,2.000000X1.700000*%
G04 #@! TD*
G04 #@! TA.AperFunction,ComponentPad*
%ADD15O,1.700000X2.000000*%
G04 #@! TD*
G04 #@! TA.AperFunction,ComponentPad*
%ADD16O,1.950000X1.700000*%
G04 #@! TD*
G04 #@! TA.AperFunction,ComponentPad*
%ADD17O,2.020000X1.500000*%
G04 #@! TD*
G04 #@! TA.AperFunction,ComponentPad*
%ADD18C,5.600000*%
G04 #@! TD*
G04 #@! TA.AperFunction,ComponentPad*
%ADD19O,1.600000X1.600000*%
G04 #@! TD*
G04 #@! TA.AperFunction,ComponentPad*
%ADD20R,1.600000X1.600000*%
G04 #@! TD*
G04 #@! TA.AperFunction,Conductor*
%ADD21C,0.300000*%
G04 #@! TD*
G04 #@! TA.AperFunction,Conductor*
%ADD22C,0.500000*%
G04 #@! TD*
G04 #@! TA.AperFunction,Conductor*
%ADD23C,0.800000*%
G04 #@! TD*
G04 #@! TA.AperFunction,Conductor*
%ADD24C,0.600000*%
G04 #@! TD*
G04 #@! TA.AperFunction,Conductor*
%ADD25C,0.250000*%
G04 #@! TD*
G04 #@! TA.AperFunction,Conductor*
%ADD26C,1.000000*%
G04 #@! TD*
G04 #@! TA.AperFunction,Conductor*
%ADD27C,2.200000*%
G04 #@! TD*
G04 #@! TA.AperFunction,NonConductor*
%ADD28C,0.254000*%
G04 #@! TD*
G04 APERTURE END LIST*
G04 #@! TA.AperFunction,SMDPad,CuDef*
D10*
G36*
X64100000Y-50325000D02*
G01*
X63350000Y-49825000D01*
X63350000Y-48825000D01*
X64850000Y-48825000D01*
X64850000Y-49825000D01*
X64100000Y-50325000D01*
G37*
G04 #@! TD.AperFunction*
G04 #@! TA.AperFunction,SMDPad,CuDef*
G36*
X63350000Y-51275000D02*
G01*
X63350000Y-50125000D01*
X64100000Y-50625000D01*
X64850000Y-50125000D01*
X64850000Y-51275000D01*
X63350000Y-51275000D01*
G37*
G04 #@! TD.AperFunction*
D11*
X72850000Y-51500000D03*
G04 #@! TA.AperFunction,ComponentPad*
G36*
G01*
X69100000Y-52260000D02*
X69100000Y-50740000D01*
G75*
G02*
X69350000Y-50490000I250000J0D01*
G01*
X70350000Y-50490000D01*
G75*
G02*
X70600000Y-50740000I0J-250000D01*
G01*
X70600000Y-52260000D01*
G75*
G02*
X70350000Y-52510000I-250000J0D01*
G01*
X69350000Y-52510000D01*
G75*
G02*
X69100000Y-52260000I0J250000D01*
G01*
G37*
G04 #@! TD.AperFunction*
D12*
X64950000Y-65100000D03*
G04 #@! TA.AperFunction,ComponentPad*
G36*
G01*
X64200000Y-62600000D02*
X64200000Y-61600000D01*
G75*
G02*
X64450000Y-61350000I250000J0D01*
G01*
X65450000Y-61350000D01*
G75*
G02*
X65700000Y-61600000I0J-250000D01*
G01*
X65700000Y-62600000D01*
G75*
G02*
X65450000Y-62850000I-250000J0D01*
G01*
X64450000Y-62850000D01*
G75*
G02*
X64200000Y-62600000I0J250000D01*
G01*
G37*
G04 #@! TD.AperFunction*
X75630000Y-45550000D03*
X72630000Y-45550000D03*
X69630000Y-45550000D03*
X66630000Y-45550000D03*
X63630000Y-45550000D03*
X60630000Y-45550000D03*
X57630000Y-45550000D03*
X54630000Y-45550000D03*
X75630000Y-42550000D03*
X72630000Y-42550000D03*
X69630000Y-42550000D03*
X66630000Y-42550000D03*
X63630000Y-42550000D03*
X60630000Y-42550000D03*
X57630000Y-42550000D03*
G04 #@! TA.AperFunction,ComponentPad*
G36*
G01*
X53880000Y-43050000D02*
X53880000Y-42050000D01*
G75*
G02*
X54130000Y-41800000I250000J0D01*
G01*
X55130000Y-41800000D01*
G75*
G02*
X55380000Y-42050000I0J-250000D01*
G01*
X55380000Y-43050000D01*
G75*
G02*
X55130000Y-43300000I-250000J0D01*
G01*
X54130000Y-43300000D01*
G75*
G02*
X53880000Y-43050000I0J250000D01*
G01*
G37*
G04 #@! TD.AperFunction*
D13*
X77780000Y-38230000D03*
X52480000Y-38230000D03*
G04 #@! TA.AperFunction,SMDPad,CuDef*
D10*
G36*
X57025000Y-55250000D02*
G01*
X57525000Y-54500000D01*
X58525000Y-54500000D01*
X58525000Y-56000000D01*
X57525000Y-56000000D01*
X57025000Y-55250000D01*
G37*
G04 #@! TD.AperFunction*
G04 #@! TA.AperFunction,SMDPad,CuDef*
G36*
X56075000Y-54500000D02*
G01*
X57225000Y-54500000D01*
X56725000Y-55250000D01*
X57225000Y-56000000D01*
X56075000Y-56000000D01*
X56075000Y-54500000D01*
G37*
G04 #@! TD.AperFunction*
G04 #@! TA.AperFunction,SMDPad,CuDef*
G36*
X52825000Y-55250000D02*
G01*
X52325000Y-56000000D01*
X51325000Y-56000000D01*
X51325000Y-54500000D01*
X52325000Y-54500000D01*
X52825000Y-55250000D01*
G37*
G04 #@! TD.AperFunction*
G04 #@! TA.AperFunction,SMDPad,CuDef*
G36*
X53775000Y-56000000D02*
G01*
X52625000Y-56000000D01*
X53125000Y-55250000D01*
X52625000Y-54500000D01*
X53775000Y-54500000D01*
X53775000Y-56000000D01*
G37*
G04 #@! TD.AperFunction*
G04 #@! TA.AperFunction,SMDPad,CuDef*
G36*
X61125000Y-50150000D02*
G01*
X60625000Y-50900000D01*
X59625000Y-50900000D01*
X59625000Y-49400000D01*
X60625000Y-49400000D01*
X61125000Y-50150000D01*
G37*
G04 #@! TD.AperFunction*
G04 #@! TA.AperFunction,SMDPad,CuDef*
G36*
X62075000Y-50900000D02*
G01*
X60925000Y-50900000D01*
X61425000Y-50150000D01*
X60925000Y-49400000D01*
X62075000Y-49400000D01*
X62075000Y-50900000D01*
G37*
G04 #@! TD.AperFunction*
D12*
X75650000Y-45550000D03*
X72650000Y-45550000D03*
X69650000Y-45550000D03*
X66650000Y-45550000D03*
X63650000Y-45550000D03*
X60650000Y-45550000D03*
X57650000Y-45550000D03*
X54650000Y-45550000D03*
X75650000Y-42550000D03*
X72650000Y-42550000D03*
X69650000Y-42550000D03*
X66650000Y-42550000D03*
X63650000Y-42550000D03*
X60650000Y-42550000D03*
X57650000Y-42550000D03*
G04 #@! TA.AperFunction,ComponentPad*
G36*
G01*
X53900000Y-43050000D02*
X53900000Y-42050000D01*
G75*
G02*
X54150000Y-41800000I250000J0D01*
G01*
X55150000Y-41800000D01*
G75*
G02*
X55400000Y-42050000I0J-250000D01*
G01*
X55400000Y-43050000D01*
G75*
G02*
X55150000Y-43300000I-250000J0D01*
G01*
X54150000Y-43300000D01*
G75*
G02*
X53900000Y-43050000I0J250000D01*
G01*
G37*
G04 #@! TD.AperFunction*
G04 #@! TA.AperFunction,ComponentPad*
G36*
G01*
X80509375Y-34600000D02*
X81690625Y-34600000D01*
G75*
G02*
X81975000Y-34884375I0J-284375D01*
G01*
X81975000Y-35940625D01*
G75*
G02*
X81690625Y-36225000I-284375J0D01*
G01*
X80509375Y-36225000D01*
G75*
G02*
X80225000Y-35940625I0J284375D01*
G01*
X80225000Y-34884375D01*
G75*
G02*
X80509375Y-34600000I284375J0D01*
G01*
G37*
G04 #@! TD.AperFunction*
G04 #@! TA.AperFunction,ComponentPad*
G36*
G01*
X80509375Y-37175000D02*
X81690625Y-37175000D01*
G75*
G02*
X81975000Y-37459375I0J-284375D01*
G01*
X81975000Y-38515625D01*
G75*
G02*
X81690625Y-38800000I-284375J0D01*
G01*
X80509375Y-38800000D01*
G75*
G02*
X80225000Y-38515625I0J284375D01*
G01*
X80225000Y-37459375D01*
G75*
G02*
X80509375Y-37175000I284375J0D01*
G01*
G37*
G04 #@! TD.AperFunction*
X75630000Y-45550000D03*
X72630000Y-45550000D03*
X69630000Y-45550000D03*
X66630000Y-45550000D03*
X63630000Y-45550000D03*
X60630000Y-45550000D03*
X57630000Y-45550000D03*
X54630000Y-45550000D03*
X75630000Y-42550000D03*
X72630000Y-42550000D03*
X69630000Y-42550000D03*
X66630000Y-42550000D03*
X63630000Y-42550000D03*
X60630000Y-42550000D03*
X57630000Y-42550000D03*
G04 #@! TA.AperFunction,ComponentPad*
G36*
G01*
X53880000Y-43050000D02*
X53880000Y-42050000D01*
G75*
G02*
X54130000Y-41800000I250000J0D01*
G01*
X55130000Y-41800000D01*
G75*
G02*
X55380000Y-42050000I0J-250000D01*
G01*
X55380000Y-43050000D01*
G75*
G02*
X55130000Y-43300000I-250000J0D01*
G01*
X54130000Y-43300000D01*
G75*
G02*
X53880000Y-43050000I0J250000D01*
G01*
G37*
G04 #@! TD.AperFunction*
G04 #@! TA.AperFunction,ComponentPad*
G36*
G01*
X64200000Y-61250000D02*
X65700000Y-61250000D01*
G75*
G02*
X65950000Y-61500000I0J-250000D01*
G01*
X65950000Y-62700000D01*
G75*
G02*
X65700000Y-62950000I-250000J0D01*
G01*
X64200000Y-62950000D01*
G75*
G02*
X63950000Y-62700000I0J250000D01*
G01*
X63950000Y-61500000D01*
G75*
G02*
X64200000Y-61250000I250000J0D01*
G01*
G37*
G04 #@! TD.AperFunction*
D14*
X64950000Y-64600000D03*
G04 #@! TA.AperFunction,ComponentPad*
G36*
G01*
X69000000Y-52250000D02*
X69000000Y-50750000D01*
G75*
G02*
X69250000Y-50500000I250000J0D01*
G01*
X70450000Y-50500000D01*
G75*
G02*
X70700000Y-50750000I0J-250000D01*
G01*
X70700000Y-52250000D01*
G75*
G02*
X70450000Y-52500000I-250000J0D01*
G01*
X69250000Y-52500000D01*
G75*
G02*
X69000000Y-52250000I0J250000D01*
G01*
G37*
G04 #@! TD.AperFunction*
D15*
X72350000Y-51500000D03*
D16*
X72400000Y-66000000D03*
X72400000Y-63500000D03*
X72400000Y-61000000D03*
G04 #@! TA.AperFunction,ComponentPad*
G36*
G01*
X71675000Y-57650000D02*
X73125000Y-57650000D01*
G75*
G02*
X73375000Y-57900000I0J-250000D01*
G01*
X73375000Y-59100000D01*
G75*
G02*
X73125000Y-59350000I-250000J0D01*
G01*
X71675000Y-59350000D01*
G75*
G02*
X71425000Y-59100000I0J250000D01*
G01*
X71425000Y-57900000D01*
G75*
G02*
X71675000Y-57650000I250000J0D01*
G01*
G37*
G04 #@! TD.AperFunction*
X79400000Y-66000000D03*
X79400000Y-63500000D03*
X79400000Y-61000000D03*
G04 #@! TA.AperFunction,ComponentPad*
G36*
G01*
X78675000Y-57650000D02*
X80125000Y-57650000D01*
G75*
G02*
X80375000Y-57900000I0J-250000D01*
G01*
X80375000Y-59100000D01*
G75*
G02*
X80125000Y-59350000I-250000J0D01*
G01*
X78675000Y-59350000D01*
G75*
G02*
X78425000Y-59100000I0J250000D01*
G01*
X78425000Y-57900000D01*
G75*
G02*
X78675000Y-57650000I250000J0D01*
G01*
G37*
G04 #@! TD.AperFunction*
D15*
X56250000Y-58800000D03*
G04 #@! TA.AperFunction,ComponentPad*
G36*
G01*
X52900000Y-59550000D02*
X52900000Y-58050000D01*
G75*
G02*
X53150000Y-57800000I250000J0D01*
G01*
X54350000Y-57800000D01*
G75*
G02*
X54600000Y-58050000I0J-250000D01*
G01*
X54600000Y-59550000D01*
G75*
G02*
X54350000Y-59800000I-250000J0D01*
G01*
X53150000Y-59800000D01*
G75*
G02*
X52900000Y-59550000I0J250000D01*
G01*
G37*
G04 #@! TD.AperFunction*
X56200000Y-51700000D03*
G04 #@! TA.AperFunction,ComponentPad*
G36*
G01*
X52850000Y-52450000D02*
X52850000Y-50950000D01*
G75*
G02*
X53100000Y-50700000I250000J0D01*
G01*
X54300000Y-50700000D01*
G75*
G02*
X54550000Y-50950000I0J-250000D01*
G01*
X54550000Y-52450000D01*
G75*
G02*
X54300000Y-52700000I-250000J0D01*
G01*
X53100000Y-52700000D01*
G75*
G02*
X52850000Y-52450000I0J250000D01*
G01*
G37*
G04 #@! TD.AperFunction*
G04 #@! TA.AperFunction,SMDPad,CuDef*
D10*
G36*
X81100000Y-44175000D02*
G01*
X80350000Y-43675000D01*
X80350000Y-42675000D01*
X81850000Y-42675000D01*
X81850000Y-43675000D01*
X81100000Y-44175000D01*
G37*
G04 #@! TD.AperFunction*
G04 #@! TA.AperFunction,SMDPad,CuDef*
G36*
X80350000Y-45125000D02*
G01*
X80350000Y-43975000D01*
X81100000Y-44475000D01*
X81850000Y-43975000D01*
X81850000Y-45125000D01*
X80350000Y-45125000D01*
G37*
G04 #@! TD.AperFunction*
D14*
X63150000Y-55350000D03*
G04 #@! TA.AperFunction,ComponentPad*
G36*
G01*
X62400000Y-52000000D02*
X63900000Y-52000000D01*
G75*
G02*
X64150000Y-52250000I0J-250000D01*
G01*
X64150000Y-53450000D01*
G75*
G02*
X63900000Y-53700000I-250000J0D01*
G01*
X62400000Y-53700000D01*
G75*
G02*
X62150000Y-53450000I0J250000D01*
G01*
X62150000Y-52250000D01*
G75*
G02*
X62400000Y-52000000I250000J0D01*
G01*
G37*
G04 #@! TD.AperFunction*
D17*
X64950000Y-65150000D03*
G04 #@! TA.AperFunction,ComponentPad*
G36*
G01*
X64190000Y-61400000D02*
X65710000Y-61400000D01*
G75*
G02*
X65960000Y-61650000I0J-250000D01*
G01*
X65960000Y-62650000D01*
G75*
G02*
X65710000Y-62900000I-250000J0D01*
G01*
X64190000Y-62900000D01*
G75*
G02*
X63940000Y-62650000I0J250000D01*
G01*
X63940000Y-61650000D01*
G75*
G02*
X64190000Y-61400000I250000J0D01*
G01*
G37*
G04 #@! TD.AperFunction*
D18*
X79700000Y-51900000D03*
X54050000Y-66050000D03*
D19*
X81100000Y-40300000D03*
D20*
X81100000Y-47920000D03*
D21*
X74650020Y-59750020D02*
X78400000Y-63500000D01*
X78400000Y-63500000D02*
X79400000Y-63500000D01*
X73950010Y-46850010D02*
X73950010Y-56649970D01*
X72650000Y-45550000D02*
X73950010Y-46850010D01*
X73950010Y-59050010D02*
X74650020Y-59750020D01*
X73950010Y-56649970D02*
X73950010Y-59050010D01*
D22*
X66650000Y-42550000D02*
X65300000Y-43900000D01*
X65300000Y-48600000D02*
X65500000Y-48800000D01*
X65300000Y-43900000D02*
X65300000Y-48600000D01*
X65500000Y-55400000D02*
X68400000Y-58300000D01*
X65500000Y-48800000D02*
X65500000Y-55400000D01*
X68400000Y-62000000D02*
X72400000Y-66000000D01*
X68400000Y-58300000D02*
X68400000Y-62000000D01*
D23*
X72525000Y-61000000D02*
X72400000Y-61000000D01*
D22*
X72400000Y-60814966D02*
X72400000Y-61000000D01*
D23*
X72400000Y-61000000D02*
X72275000Y-61000000D01*
D22*
X66650000Y-46700000D02*
X68200000Y-48250000D01*
X66650000Y-45550000D02*
X66650000Y-46700000D01*
X68200000Y-56400000D02*
X70300000Y-58500000D01*
X68200000Y-48250000D02*
X68200000Y-56400000D01*
X70300000Y-58500000D02*
X72400000Y-58500000D01*
D24*
X65550000Y-64200000D02*
X65400000Y-64200000D01*
D21*
X76275000Y-43175000D02*
X75650000Y-42550000D01*
X81100000Y-43175000D02*
X76275000Y-43175000D01*
X81100000Y-43175000D02*
X81100000Y-40300000D01*
X81100000Y-44625000D02*
X81100000Y-47920000D01*
X79400000Y-57035760D02*
X79400000Y-58500000D01*
X75950030Y-53585790D02*
X79400000Y-57035760D01*
X75950030Y-50987968D02*
X75950030Y-53585790D01*
X79017998Y-47920000D02*
X75950030Y-50987968D01*
X81100000Y-47920000D02*
X79017998Y-47920000D01*
D25*
X79400000Y-61000000D02*
X79400000Y-60638190D01*
D21*
X75450000Y-45750000D02*
X75650000Y-45550000D01*
X79400000Y-61000000D02*
X78125000Y-61000000D01*
X74450020Y-58842900D02*
X76607120Y-61000000D01*
X74450020Y-47900000D02*
X74450020Y-58842900D01*
X75650000Y-46700020D02*
X74450020Y-47900000D01*
X76607120Y-61000000D02*
X79400000Y-61000000D01*
X75650000Y-45550000D02*
X75650000Y-46700020D01*
D24*
X62750000Y-52700000D02*
X63750000Y-52700000D01*
D22*
X62700000Y-52400000D02*
X63150000Y-52850000D01*
X62775000Y-50775000D02*
X62700000Y-50700000D01*
X64100000Y-50775000D02*
X62775000Y-50775000D01*
X62700000Y-50700000D02*
X62700000Y-52400000D01*
X62700000Y-50100000D02*
X62700000Y-50700000D01*
X62700000Y-50100000D02*
X61625000Y-50100000D01*
D24*
X55200000Y-53200000D02*
X53700000Y-51700000D01*
X55200000Y-57350000D02*
X53750000Y-58800000D01*
X55200000Y-55400000D02*
X55200000Y-57350000D01*
D22*
X54900000Y-55250000D02*
X55200000Y-54950000D01*
X53275000Y-55250000D02*
X54900000Y-55250000D01*
D24*
X55200000Y-54950000D02*
X55200000Y-53200000D01*
X55200000Y-55400000D02*
X55200000Y-54950000D01*
D22*
X55500000Y-55250000D02*
X55200000Y-54950000D01*
X56575000Y-55250000D02*
X55500000Y-55250000D01*
X51650000Y-53150000D02*
X51650000Y-48750000D01*
X51650000Y-48750000D02*
X52950000Y-47450000D01*
X52950000Y-47450000D02*
X52950000Y-44700000D01*
X52950000Y-44700000D02*
X53650000Y-44000000D01*
X59100000Y-44000000D02*
X60650000Y-45550000D01*
X53650000Y-44000000D02*
X59100000Y-44000000D01*
X51650000Y-53150000D02*
X51650000Y-55050000D01*
X63680000Y-48600000D02*
X63680000Y-48905000D01*
X63680000Y-48905000D02*
X64100000Y-49325000D01*
X60630000Y-45550000D02*
X63680000Y-48600000D01*
D26*
X58025000Y-55250000D02*
X59200000Y-55250000D01*
D27*
X59230000Y-50150000D02*
X59624990Y-50150000D01*
X54630000Y-45550000D02*
X59230000Y-50150000D01*
X59230000Y-60280000D02*
X61100000Y-62150000D01*
X59230000Y-50150000D02*
X59230000Y-60280000D01*
X61100000Y-62150000D02*
X64950000Y-62150000D01*
D28*
G36*
X61815001Y-51586780D02*
G01*
X61772038Y-51622038D01*
X61661595Y-51756614D01*
X61579528Y-51910150D01*
X61528992Y-52076746D01*
X61511928Y-52250000D01*
X61511928Y-53450000D01*
X61528992Y-53623254D01*
X61579528Y-53789850D01*
X61661595Y-53943386D01*
X61772038Y-54077962D01*
X61906614Y-54188405D01*
X62008337Y-54242777D01*
X61944866Y-54294866D01*
X61759294Y-54520986D01*
X61621401Y-54778966D01*
X61536487Y-55058889D01*
X61507815Y-55350000D01*
X61536487Y-55641111D01*
X61621401Y-55921034D01*
X61759294Y-56179014D01*
X61944866Y-56405134D01*
X62170986Y-56590706D01*
X62428966Y-56728599D01*
X62708889Y-56813513D01*
X62927050Y-56835000D01*
X63372950Y-56835000D01*
X63591111Y-56813513D01*
X63871034Y-56728599D01*
X64129014Y-56590706D01*
X64355134Y-56405134D01*
X64540706Y-56179014D01*
X64678599Y-55921034D01*
X64713504Y-55805967D01*
X64760590Y-55894059D01*
X64843468Y-55995046D01*
X64843471Y-55995049D01*
X64871184Y-56028817D01*
X64904951Y-56056529D01*
X66737794Y-57889373D01*
X66539555Y-57928805D01*
X66308429Y-58024541D01*
X66100422Y-58163527D01*
X65923527Y-58340422D01*
X65784541Y-58548429D01*
X65688805Y-58779555D01*
X65640000Y-59024916D01*
X65640000Y-59275084D01*
X65688805Y-59520445D01*
X65784541Y-59751571D01*
X65923527Y-59959578D01*
X66100422Y-60136473D01*
X66308429Y-60275459D01*
X66539555Y-60371195D01*
X66784916Y-60420000D01*
X67035084Y-60420000D01*
X67280445Y-60371195D01*
X67511571Y-60275459D01*
X67515001Y-60273167D01*
X67515001Y-61956521D01*
X67510719Y-62000000D01*
X67527805Y-62173490D01*
X67578412Y-62340313D01*
X67660590Y-62494059D01*
X67743468Y-62595046D01*
X67743471Y-62595049D01*
X67771184Y-62628817D01*
X67804951Y-62656530D01*
X70822152Y-65673731D01*
X70811487Y-65708889D01*
X70782815Y-66000000D01*
X70811487Y-66291111D01*
X70896401Y-66571034D01*
X71034294Y-66829014D01*
X71219866Y-67055134D01*
X71445986Y-67240706D01*
X71703966Y-67378599D01*
X71983889Y-67463513D01*
X72202050Y-67485000D01*
X72597950Y-67485000D01*
X72816111Y-67463513D01*
X73096034Y-67378599D01*
X73354014Y-67240706D01*
X73580134Y-67055134D01*
X73765706Y-66829014D01*
X73903599Y-66571034D01*
X73988513Y-66291111D01*
X74017185Y-66000000D01*
X73988513Y-65708889D01*
X73903599Y-65428966D01*
X73765706Y-65170986D01*
X73580134Y-64944866D01*
X73354014Y-64759294D01*
X73336626Y-64750000D01*
X73354014Y-64740706D01*
X73580134Y-64555134D01*
X73765706Y-64329014D01*
X73903599Y-64071034D01*
X73988513Y-63791111D01*
X74017185Y-63500000D01*
X73988513Y-63208889D01*
X73903599Y-62928966D01*
X73765706Y-62670986D01*
X73580134Y-62444866D01*
X73354014Y-62259294D01*
X73336626Y-62250000D01*
X73354014Y-62240706D01*
X73580134Y-62055134D01*
X73765706Y-61829014D01*
X73903599Y-61571034D01*
X73988513Y-61291111D01*
X74017185Y-61000000D01*
X73988513Y-60708889D01*
X73903599Y-60428966D01*
X73765706Y-60170986D01*
X73580134Y-59944866D01*
X73516663Y-59892777D01*
X73618386Y-59838405D01*
X73623803Y-59833960D01*
X77817653Y-64027810D01*
X77842236Y-64057764D01*
X77926094Y-64126585D01*
X78034294Y-64329014D01*
X78219866Y-64555134D01*
X78445986Y-64740706D01*
X78463374Y-64750000D01*
X78445986Y-64759294D01*
X78219866Y-64944866D01*
X78034294Y-65170986D01*
X77896401Y-65428966D01*
X77811487Y-65708889D01*
X77782815Y-66000000D01*
X77811487Y-66291111D01*
X77896401Y-66571034D01*
X78034294Y-66829014D01*
X78219866Y-67055134D01*
X78445986Y-67240706D01*
X78703966Y-67378599D01*
X78983889Y-67463513D01*
X79202050Y-67485000D01*
X79597950Y-67485000D01*
X79816111Y-67463513D01*
X80096034Y-67378599D01*
X80354014Y-67240706D01*
X80580134Y-67055134D01*
X80765706Y-66829014D01*
X80903599Y-66571034D01*
X80988513Y-66291111D01*
X81017185Y-66000000D01*
X80988513Y-65708889D01*
X80903599Y-65428966D01*
X80765706Y-65170986D01*
X80580134Y-64944866D01*
X80354014Y-64759294D01*
X80336626Y-64750000D01*
X80354014Y-64740706D01*
X80580134Y-64555134D01*
X80765706Y-64329014D01*
X80903599Y-64071034D01*
X80988513Y-63791111D01*
X81017185Y-63500000D01*
X80988513Y-63208889D01*
X80903599Y-62928966D01*
X80765706Y-62670986D01*
X80580134Y-62444866D01*
X80354014Y-62259294D01*
X80336626Y-62250000D01*
X80354014Y-62240706D01*
X80580134Y-62055134D01*
X80765706Y-61829014D01*
X80903599Y-61571034D01*
X80988513Y-61291111D01*
X81017185Y-61000000D01*
X80988513Y-60708889D01*
X80903599Y-60428966D01*
X80765706Y-60170986D01*
X80580134Y-59944866D01*
X80516663Y-59892777D01*
X80618386Y-59838405D01*
X80752962Y-59727962D01*
X80863405Y-59593386D01*
X80945472Y-59439850D01*
X80996008Y-59273254D01*
X81013072Y-59100000D01*
X81013072Y-57900000D01*
X80996008Y-57726746D01*
X80945472Y-57560150D01*
X80863405Y-57406614D01*
X80752962Y-57272038D01*
X80618386Y-57161595D01*
X80464850Y-57079528D01*
X80298254Y-57028992D01*
X80187052Y-57018040D01*
X80185000Y-56997206D01*
X80185000Y-56997199D01*
X80173641Y-56881873D01*
X80128754Y-56733900D01*
X80055862Y-56597527D01*
X80006450Y-56537319D01*
X79982345Y-56507947D01*
X79982342Y-56507944D01*
X79957764Y-56477996D01*
X79927817Y-56453419D01*
X78662785Y-55188388D01*
X78698048Y-55202994D01*
X79361682Y-55335000D01*
X80038318Y-55335000D01*
X80701952Y-55202994D01*
X81327082Y-54944057D01*
X81889685Y-54568138D01*
X81940001Y-54517822D01*
X81940001Y-67784093D01*
X81937532Y-67789853D01*
X81909331Y-67922530D01*
X81908317Y-67932181D01*
X81886400Y-68155710D01*
X81841177Y-68305494D01*
X81767727Y-68443633D01*
X81668839Y-68564883D01*
X81548286Y-68664612D01*
X81410656Y-68739029D01*
X81261201Y-68785293D01*
X81037826Y-68808770D01*
X81015612Y-68813330D01*
X80962599Y-68818717D01*
X80907934Y-68835433D01*
X80904956Y-68836044D01*
X80902343Y-68837142D01*
X80892998Y-68840000D01*
X67976373Y-68840000D01*
X68035459Y-68751571D01*
X68131195Y-68520445D01*
X68180000Y-68275084D01*
X68180000Y-68024916D01*
X68131195Y-67779555D01*
X68035459Y-67548429D01*
X67896473Y-67340422D01*
X67719578Y-67163527D01*
X67693741Y-67146263D01*
X67838212Y-67175000D01*
X68061788Y-67175000D01*
X68281067Y-67131383D01*
X68487624Y-67045824D01*
X68673520Y-66921612D01*
X68831612Y-66763520D01*
X68955824Y-66577624D01*
X69041383Y-66371067D01*
X69085000Y-66151788D01*
X69085000Y-65928212D01*
X69041383Y-65708933D01*
X68955824Y-65502376D01*
X68831612Y-65316480D01*
X68673520Y-65158388D01*
X68487624Y-65034176D01*
X68281067Y-64948617D01*
X68061788Y-64905000D01*
X67838212Y-64905000D01*
X67618933Y-64948617D01*
X67412376Y-65034176D01*
X67226480Y-65158388D01*
X67068388Y-65316480D01*
X66944176Y-65502376D01*
X66858617Y-65708933D01*
X66815000Y-65928212D01*
X66815000Y-66151788D01*
X66858617Y-66371067D01*
X66944176Y-66577624D01*
X67068388Y-66763520D01*
X67222059Y-66917191D01*
X67035084Y-66880000D01*
X66784916Y-66880000D01*
X66539555Y-66928805D01*
X66308429Y-67024541D01*
X66100422Y-67163527D01*
X65923527Y-67340422D01*
X65784541Y-67548429D01*
X65688805Y-67779555D01*
X65640000Y-68024916D01*
X65640000Y-68275084D01*
X65688805Y-68520445D01*
X65784541Y-68751571D01*
X65843627Y-68840000D01*
X56057305Y-68840000D01*
X56239685Y-68718138D01*
X56718138Y-68239685D01*
X57094057Y-67677082D01*
X57352994Y-67051952D01*
X57485000Y-66388318D01*
X57485000Y-65928212D01*
X60815000Y-65928212D01*
X60815000Y-66151788D01*
X60858617Y-66371067D01*
X60944176Y-66577624D01*
X61068388Y-66763520D01*
X61226480Y-66921612D01*
X61412376Y-67045824D01*
X61618933Y-67131383D01*
X61838212Y-67175000D01*
X62061788Y-67175000D01*
X62281067Y-67131383D01*
X62487624Y-67045824D01*
X62673520Y-66921612D01*
X62831612Y-66763520D01*
X62955824Y-66577624D01*
X63041383Y-66371067D01*
X63085000Y-66151788D01*
X63085000Y-65928212D01*
X63041383Y-65708933D01*
X62955824Y-65502376D01*
X62831612Y-65316480D01*
X62673520Y-65158388D01*
X62487624Y-65034176D01*
X62281067Y-64948617D01*
X62061788Y-64905000D01*
X61838212Y-64905000D01*
X61618933Y-64948617D01*
X61412376Y-65034176D01*
X61226480Y-65158388D01*
X61068388Y-65316480D01*
X60944176Y-65502376D01*
X60858617Y-65708933D01*
X60815000Y-65928212D01*
X57485000Y-65928212D01*
X57485000Y-65711682D01*
X57352994Y-65048048D01*
X57094057Y-64422918D01*
X56718138Y-63860315D01*
X56239685Y-63381862D01*
X55677082Y-63005943D01*
X55051952Y-62747006D01*
X54388318Y-62615000D01*
X53711682Y-62615000D01*
X53048048Y-62747006D01*
X52422918Y-63005943D01*
X51860315Y-63381862D01*
X51381862Y-63860315D01*
X51160000Y-64192355D01*
X51160000Y-56613521D01*
X51200518Y-56625812D01*
X51325000Y-56638072D01*
X52325000Y-56638072D01*
X52450136Y-56625681D01*
X52475064Y-56618091D01*
X52500518Y-56625812D01*
X52625000Y-56638072D01*
X53775000Y-56638072D01*
X53899482Y-56625812D01*
X54019180Y-56589502D01*
X54129494Y-56530537D01*
X54226185Y-56451185D01*
X54265001Y-56403888D01*
X54265001Y-56962710D01*
X54065783Y-57161928D01*
X53150000Y-57161928D01*
X52976746Y-57178992D01*
X52810150Y-57229528D01*
X52656614Y-57311595D01*
X52522038Y-57422038D01*
X52411595Y-57556614D01*
X52329528Y-57710150D01*
X52278992Y-57876746D01*
X52261928Y-58050000D01*
X52261928Y-59550000D01*
X52278992Y-59723254D01*
X52329528Y-59889850D01*
X52411595Y-60043386D01*
X52522038Y-60177962D01*
X52656614Y-60288405D01*
X52810150Y-60370472D01*
X52976746Y-60421008D01*
X53150000Y-60438072D01*
X54350000Y-60438072D01*
X54523254Y-60421008D01*
X54689850Y-60370472D01*
X54843386Y-60288405D01*
X54977962Y-60177962D01*
X55088405Y-60043386D01*
X55142777Y-59941663D01*
X55194866Y-60005134D01*
X55420987Y-60190706D01*
X55678967Y-60328599D01*
X55958890Y-60413513D01*
X56250000Y-60442185D01*
X56541111Y-60413513D01*
X56821034Y-60328599D01*
X57079014Y-60190706D01*
X57305134Y-60005134D01*
X57490706Y-59779014D01*
X57495001Y-59770979D01*
X57495001Y-60194765D01*
X57486606Y-60280000D01*
X57520105Y-60620119D01*
X57619314Y-60947167D01*
X57667509Y-61037333D01*
X57780422Y-61248578D01*
X57997235Y-61512766D01*
X58063434Y-61567094D01*
X59812906Y-63316567D01*
X59867234Y-63382766D01*
X60131422Y-63599579D01*
X60432832Y-63760686D01*
X60759881Y-63859895D01*
X61014775Y-63885000D01*
X61014776Y-63885000D01*
X61099999Y-63893394D01*
X61185222Y-63885000D01*
X63498352Y-63885000D01*
X63421401Y-64028966D01*
X63336487Y-64308889D01*
X63307815Y-64600000D01*
X63332743Y-64853099D01*
X63325040Y-64878493D01*
X63298299Y-65150000D01*
X63325040Y-65421507D01*
X63404236Y-65682581D01*
X63532843Y-65923188D01*
X63705919Y-66134081D01*
X63916812Y-66307157D01*
X64157419Y-66435764D01*
X64418493Y-66514960D01*
X64621963Y-66535000D01*
X65278037Y-66535000D01*
X65481507Y-66514960D01*
X65742581Y-66435764D01*
X65983188Y-66307157D01*
X66194081Y-66134081D01*
X66367157Y-65923188D01*
X66495764Y-65682581D01*
X66574960Y-65421507D01*
X66601701Y-65150000D01*
X66574960Y-64878493D01*
X66567257Y-64853099D01*
X66592185Y-64600000D01*
X66563513Y-64308889D01*
X66478599Y-64028966D01*
X66470715Y-64014216D01*
X66418007Y-63840460D01*
X66331186Y-63678028D01*
X66214344Y-63535656D01*
X66134316Y-63469979D01*
X66193386Y-63438405D01*
X66327962Y-63327962D01*
X66438405Y-63193386D01*
X66520472Y-63039850D01*
X66571008Y-62873254D01*
X66573492Y-62848030D01*
X66581008Y-62823254D01*
X66591666Y-62715040D01*
X66659895Y-62490119D01*
X66693394Y-62150000D01*
X66659895Y-61809881D01*
X66591666Y-61584960D01*
X66588072Y-61548468D01*
X66588072Y-61500000D01*
X66571008Y-61326746D01*
X66520472Y-61160150D01*
X66438405Y-61006614D01*
X66327962Y-60872038D01*
X66193386Y-60761595D01*
X66039850Y-60679528D01*
X65873254Y-60628992D01*
X65764996Y-60618329D01*
X65617168Y-60539314D01*
X65290119Y-60440105D01*
X65035225Y-60415000D01*
X61818661Y-60415000D01*
X60965000Y-59561340D01*
X60965000Y-51538072D01*
X61815000Y-51538072D01*
X61815001Y-51586780D01*
G37*
X61815001Y-51586780D02*
X61772038Y-51622038D01*
X61661595Y-51756614D01*
X61579528Y-51910150D01*
X61528992Y-52076746D01*
X61511928Y-52250000D01*
X61511928Y-53450000D01*
X61528992Y-53623254D01*
X61579528Y-53789850D01*
X61661595Y-53943386D01*
X61772038Y-54077962D01*
X61906614Y-54188405D01*
X62008337Y-54242777D01*
X61944866Y-54294866D01*
X61759294Y-54520986D01*
X61621401Y-54778966D01*
X61536487Y-55058889D01*
X61507815Y-55350000D01*
X61536487Y-55641111D01*
X61621401Y-55921034D01*
X61759294Y-56179014D01*
X61944866Y-56405134D01*
X62170986Y-56590706D01*
X62428966Y-56728599D01*
X62708889Y-56813513D01*
X62927050Y-56835000D01*
X63372950Y-56835000D01*
X63591111Y-56813513D01*
X63871034Y-56728599D01*
X64129014Y-56590706D01*
X64355134Y-56405134D01*
X64540706Y-56179014D01*
X64678599Y-55921034D01*
X64713504Y-55805967D01*
X64760590Y-55894059D01*
X64843468Y-55995046D01*
X64843471Y-55995049D01*
X64871184Y-56028817D01*
X64904951Y-56056529D01*
X66737794Y-57889373D01*
X66539555Y-57928805D01*
X66308429Y-58024541D01*
X66100422Y-58163527D01*
X65923527Y-58340422D01*
X65784541Y-58548429D01*
X65688805Y-58779555D01*
X65640000Y-59024916D01*
X65640000Y-59275084D01*
X65688805Y-59520445D01*
X65784541Y-59751571D01*
X65923527Y-59959578D01*
X66100422Y-60136473D01*
X66308429Y-60275459D01*
X66539555Y-60371195D01*
X66784916Y-60420000D01*
X67035084Y-60420000D01*
X67280445Y-60371195D01*
X67511571Y-60275459D01*
X67515001Y-60273167D01*
X67515001Y-61956521D01*
X67510719Y-62000000D01*
X67527805Y-62173490D01*
X67578412Y-62340313D01*
X67660590Y-62494059D01*
X67743468Y-62595046D01*
X67743471Y-62595049D01*
X67771184Y-62628817D01*
X67804951Y-62656530D01*
X70822152Y-65673731D01*
X70811487Y-65708889D01*
X70782815Y-66000000D01*
X70811487Y-66291111D01*
X70896401Y-66571034D01*
X71034294Y-66829014D01*
X71219866Y-67055134D01*
X71445986Y-67240706D01*
X71703966Y-67378599D01*
X71983889Y-67463513D01*
X72202050Y-67485000D01*
X72597950Y-67485000D01*
X72816111Y-67463513D01*
X73096034Y-67378599D01*
X73354014Y-67240706D01*
X73580134Y-67055134D01*
X73765706Y-66829014D01*
X73903599Y-66571034D01*
X73988513Y-66291111D01*
X74017185Y-66000000D01*
X73988513Y-65708889D01*
X73903599Y-65428966D01*
X73765706Y-65170986D01*
X73580134Y-64944866D01*
X73354014Y-64759294D01*
X73336626Y-64750000D01*
X73354014Y-64740706D01*
X73580134Y-64555134D01*
X73765706Y-64329014D01*
X73903599Y-64071034D01*
X73988513Y-63791111D01*
X74017185Y-63500000D01*
X73988513Y-63208889D01*
X73903599Y-62928966D01*
X73765706Y-62670986D01*
X73580134Y-62444866D01*
X73354014Y-62259294D01*
X73336626Y-62250000D01*
X73354014Y-62240706D01*
X73580134Y-62055134D01*
X73765706Y-61829014D01*
X73903599Y-61571034D01*
X73988513Y-61291111D01*
X74017185Y-61000000D01*
X73988513Y-60708889D01*
X73903599Y-60428966D01*
X73765706Y-60170986D01*
X73580134Y-59944866D01*
X73516663Y-59892777D01*
X73618386Y-59838405D01*
X73623803Y-59833960D01*
X77817653Y-64027810D01*
X77842236Y-64057764D01*
X77926094Y-64126585D01*
X78034294Y-64329014D01*
X78219866Y-64555134D01*
X78445986Y-64740706D01*
X78463374Y-64750000D01*
X78445986Y-64759294D01*
X78219866Y-64944866D01*
X78034294Y-65170986D01*
X77896401Y-65428966D01*
X77811487Y-65708889D01*
X77782815Y-66000000D01*
X77811487Y-66291111D01*
X77896401Y-66571034D01*
X78034294Y-66829014D01*
X78219866Y-67055134D01*
X78445986Y-67240706D01*
X78703966Y-67378599D01*
X78983889Y-67463513D01*
X79202050Y-67485000D01*
X79597950Y-67485000D01*
X79816111Y-67463513D01*
X80096034Y-67378599D01*
X80354014Y-67240706D01*
X80580134Y-67055134D01*
X80765706Y-66829014D01*
X80903599Y-66571034D01*
X80988513Y-66291111D01*
X81017185Y-66000000D01*
X80988513Y-65708889D01*
X80903599Y-65428966D01*
X80765706Y-65170986D01*
X80580134Y-64944866D01*
X80354014Y-64759294D01*
X80336626Y-64750000D01*
X80354014Y-64740706D01*
X80580134Y-64555134D01*
X80765706Y-64329014D01*
X80903599Y-64071034D01*
X80988513Y-63791111D01*
X81017185Y-63500000D01*
X80988513Y-63208889D01*
X80903599Y-62928966D01*
X80765706Y-62670986D01*
X80580134Y-62444866D01*
X80354014Y-62259294D01*
X80336626Y-62250000D01*
X80354014Y-62240706D01*
X80580134Y-62055134D01*
X80765706Y-61829014D01*
X80903599Y-61571034D01*
X80988513Y-61291111D01*
X81017185Y-61000000D01*
X80988513Y-60708889D01*
X80903599Y-60428966D01*
X80765706Y-60170986D01*
X80580134Y-59944866D01*
X80516663Y-59892777D01*
X80618386Y-59838405D01*
X80752962Y-59727962D01*
X80863405Y-59593386D01*
X80945472Y-59439850D01*
X80996008Y-59273254D01*
X81013072Y-59100000D01*
X81013072Y-57900000D01*
X80996008Y-57726746D01*
X80945472Y-57560150D01*
X80863405Y-57406614D01*
X80752962Y-57272038D01*
X80618386Y-57161595D01*
X80464850Y-57079528D01*
X80298254Y-57028992D01*
X80187052Y-57018040D01*
X80185000Y-56997206D01*
X80185000Y-56997199D01*
X80173641Y-56881873D01*
X80128754Y-56733900D01*
X80055862Y-56597527D01*
X80006450Y-56537319D01*
X79982345Y-56507947D01*
X79982342Y-56507944D01*
X79957764Y-56477996D01*
X79927817Y-56453419D01*
X78662785Y-55188388D01*
X78698048Y-55202994D01*
X79361682Y-55335000D01*
X80038318Y-55335000D01*
X80701952Y-55202994D01*
X81327082Y-54944057D01*
X81889685Y-54568138D01*
X81940001Y-54517822D01*
X81940001Y-67784093D01*
X81937532Y-67789853D01*
X81909331Y-67922530D01*
X81908317Y-67932181D01*
X81886400Y-68155710D01*
X81841177Y-68305494D01*
X81767727Y-68443633D01*
X81668839Y-68564883D01*
X81548286Y-68664612D01*
X81410656Y-68739029D01*
X81261201Y-68785293D01*
X81037826Y-68808770D01*
X81015612Y-68813330D01*
X80962599Y-68818717D01*
X80907934Y-68835433D01*
X80904956Y-68836044D01*
X80902343Y-68837142D01*
X80892998Y-68840000D01*
X67976373Y-68840000D01*
X68035459Y-68751571D01*
X68131195Y-68520445D01*
X68180000Y-68275084D01*
X68180000Y-68024916D01*
X68131195Y-67779555D01*
X68035459Y-67548429D01*
X67896473Y-67340422D01*
X67719578Y-67163527D01*
X67693741Y-67146263D01*
X67838212Y-67175000D01*
X68061788Y-67175000D01*
X68281067Y-67131383D01*
X68487624Y-67045824D01*
X68673520Y-66921612D01*
X68831612Y-66763520D01*
X68955824Y-66577624D01*
X69041383Y-66371067D01*
X69085000Y-66151788D01*
X69085000Y-65928212D01*
X69041383Y-65708933D01*
X68955824Y-65502376D01*
X68831612Y-65316480D01*
X68673520Y-65158388D01*
X68487624Y-65034176D01*
X68281067Y-64948617D01*
X68061788Y-64905000D01*
X67838212Y-64905000D01*
X67618933Y-64948617D01*
X67412376Y-65034176D01*
X67226480Y-65158388D01*
X67068388Y-65316480D01*
X66944176Y-65502376D01*
X66858617Y-65708933D01*
X66815000Y-65928212D01*
X66815000Y-66151788D01*
X66858617Y-66371067D01*
X66944176Y-66577624D01*
X67068388Y-66763520D01*
X67222059Y-66917191D01*
X67035084Y-66880000D01*
X66784916Y-66880000D01*
X66539555Y-66928805D01*
X66308429Y-67024541D01*
X66100422Y-67163527D01*
X65923527Y-67340422D01*
X65784541Y-67548429D01*
X65688805Y-67779555D01*
X65640000Y-68024916D01*
X65640000Y-68275084D01*
X65688805Y-68520445D01*
X65784541Y-68751571D01*
X65843627Y-68840000D01*
X56057305Y-68840000D01*
X56239685Y-68718138D01*
X56718138Y-68239685D01*
X57094057Y-67677082D01*
X57352994Y-67051952D01*
X57485000Y-66388318D01*
X57485000Y-65928212D01*
X60815000Y-65928212D01*
X60815000Y-66151788D01*
X60858617Y-66371067D01*
X60944176Y-66577624D01*
X61068388Y-66763520D01*
X61226480Y-66921612D01*
X61412376Y-67045824D01*
X61618933Y-67131383D01*
X61838212Y-67175000D01*
X62061788Y-67175000D01*
X62281067Y-67131383D01*
X62487624Y-67045824D01*
X62673520Y-66921612D01*
X62831612Y-66763520D01*
X62955824Y-66577624D01*
X63041383Y-66371067D01*
X63085000Y-66151788D01*
X63085000Y-65928212D01*
X63041383Y-65708933D01*
X62955824Y-65502376D01*
X62831612Y-65316480D01*
X62673520Y-65158388D01*
X62487624Y-65034176D01*
X62281067Y-64948617D01*
X62061788Y-64905000D01*
X61838212Y-64905000D01*
X61618933Y-64948617D01*
X61412376Y-65034176D01*
X61226480Y-65158388D01*
X61068388Y-65316480D01*
X60944176Y-65502376D01*
X60858617Y-65708933D01*
X60815000Y-65928212D01*
X57485000Y-65928212D01*
X57485000Y-65711682D01*
X57352994Y-65048048D01*
X57094057Y-64422918D01*
X56718138Y-63860315D01*
X56239685Y-63381862D01*
X55677082Y-63005943D01*
X55051952Y-62747006D01*
X54388318Y-62615000D01*
X53711682Y-62615000D01*
X53048048Y-62747006D01*
X52422918Y-63005943D01*
X51860315Y-63381862D01*
X51381862Y-63860315D01*
X51160000Y-64192355D01*
X51160000Y-56613521D01*
X51200518Y-56625812D01*
X51325000Y-56638072D01*
X52325000Y-56638072D01*
X52450136Y-56625681D01*
X52475064Y-56618091D01*
X52500518Y-56625812D01*
X52625000Y-56638072D01*
X53775000Y-56638072D01*
X53899482Y-56625812D01*
X54019180Y-56589502D01*
X54129494Y-56530537D01*
X54226185Y-56451185D01*
X54265001Y-56403888D01*
X54265001Y-56962710D01*
X54065783Y-57161928D01*
X53150000Y-57161928D01*
X52976746Y-57178992D01*
X52810150Y-57229528D01*
X52656614Y-57311595D01*
X52522038Y-57422038D01*
X52411595Y-57556614D01*
X52329528Y-57710150D01*
X52278992Y-57876746D01*
X52261928Y-58050000D01*
X52261928Y-59550000D01*
X52278992Y-59723254D01*
X52329528Y-59889850D01*
X52411595Y-60043386D01*
X52522038Y-60177962D01*
X52656614Y-60288405D01*
X52810150Y-60370472D01*
X52976746Y-60421008D01*
X53150000Y-60438072D01*
X54350000Y-60438072D01*
X54523254Y-60421008D01*
X54689850Y-60370472D01*
X54843386Y-60288405D01*
X54977962Y-60177962D01*
X55088405Y-60043386D01*
X55142777Y-59941663D01*
X55194866Y-60005134D01*
X55420987Y-60190706D01*
X55678967Y-60328599D01*
X55958890Y-60413513D01*
X56250000Y-60442185D01*
X56541111Y-60413513D01*
X56821034Y-60328599D01*
X57079014Y-60190706D01*
X57305134Y-60005134D01*
X57490706Y-59779014D01*
X57495001Y-59770979D01*
X57495001Y-60194765D01*
X57486606Y-60280000D01*
X57520105Y-60620119D01*
X57619314Y-60947167D01*
X57667509Y-61037333D01*
X57780422Y-61248578D01*
X57997235Y-61512766D01*
X58063434Y-61567094D01*
X59812906Y-63316567D01*
X59867234Y-63382766D01*
X60131422Y-63599579D01*
X60432832Y-63760686D01*
X60759881Y-63859895D01*
X61014775Y-63885000D01*
X61014776Y-63885000D01*
X61099999Y-63893394D01*
X61185222Y-63885000D01*
X63498352Y-63885000D01*
X63421401Y-64028966D01*
X63336487Y-64308889D01*
X63307815Y-64600000D01*
X63332743Y-64853099D01*
X63325040Y-64878493D01*
X63298299Y-65150000D01*
X63325040Y-65421507D01*
X63404236Y-65682581D01*
X63532843Y-65923188D01*
X63705919Y-66134081D01*
X63916812Y-66307157D01*
X64157419Y-66435764D01*
X64418493Y-66514960D01*
X64621963Y-66535000D01*
X65278037Y-66535000D01*
X65481507Y-66514960D01*
X65742581Y-66435764D01*
X65983188Y-66307157D01*
X66194081Y-66134081D01*
X66367157Y-65923188D01*
X66495764Y-65682581D01*
X66574960Y-65421507D01*
X66601701Y-65150000D01*
X66574960Y-64878493D01*
X66567257Y-64853099D01*
X66592185Y-64600000D01*
X66563513Y-64308889D01*
X66478599Y-64028966D01*
X66470715Y-64014216D01*
X66418007Y-63840460D01*
X66331186Y-63678028D01*
X66214344Y-63535656D01*
X66134316Y-63469979D01*
X66193386Y-63438405D01*
X66327962Y-63327962D01*
X66438405Y-63193386D01*
X66520472Y-63039850D01*
X66571008Y-62873254D01*
X66573492Y-62848030D01*
X66581008Y-62823254D01*
X66591666Y-62715040D01*
X66659895Y-62490119D01*
X66693394Y-62150000D01*
X66659895Y-61809881D01*
X66591666Y-61584960D01*
X66588072Y-61548468D01*
X66588072Y-61500000D01*
X66571008Y-61326746D01*
X66520472Y-61160150D01*
X66438405Y-61006614D01*
X66327962Y-60872038D01*
X66193386Y-60761595D01*
X66039850Y-60679528D01*
X65873254Y-60628992D01*
X65764996Y-60618329D01*
X65617168Y-60539314D01*
X65290119Y-60440105D01*
X65035225Y-60415000D01*
X61818661Y-60415000D01*
X60965000Y-59561340D01*
X60965000Y-51538072D01*
X61815000Y-51538072D01*
X61815001Y-51586780D01*
G36*
X51381862Y-68239685D02*
G01*
X51860315Y-68718138D01*
X51982802Y-68799981D01*
X51844290Y-68786400D01*
X51694506Y-68741177D01*
X51556367Y-68667727D01*
X51435117Y-68568839D01*
X51335388Y-68448286D01*
X51260971Y-68310656D01*
X51214707Y-68161201D01*
X51193295Y-67957474D01*
X51381862Y-68239685D01*
G37*
X51381862Y-68239685D02*
X51860315Y-68718138D01*
X51982802Y-68799981D01*
X51844290Y-68786400D01*
X51694506Y-68741177D01*
X51556367Y-68667727D01*
X51435117Y-68568839D01*
X51335388Y-68448286D01*
X51260971Y-68310656D01*
X51214707Y-68161201D01*
X51193295Y-67957474D01*
X51381862Y-68239685D01*
G36*
X69643470Y-59095049D02*
G01*
X69671183Y-59128817D01*
X69704951Y-59156530D01*
X69704953Y-59156532D01*
X69744858Y-59189281D01*
X69805941Y-59239411D01*
X69959687Y-59321589D01*
X70126510Y-59372195D01*
X70256523Y-59385000D01*
X70256533Y-59385000D01*
X70299999Y-59389281D01*
X70343465Y-59385000D01*
X70837890Y-59385000D01*
X70854528Y-59439850D01*
X70936595Y-59593386D01*
X71047038Y-59727962D01*
X71181614Y-59838405D01*
X71283337Y-59892777D01*
X71219866Y-59944866D01*
X71034294Y-60170986D01*
X70896401Y-60428966D01*
X70811487Y-60708889D01*
X70782815Y-61000000D01*
X70811487Y-61291111D01*
X70896401Y-61571034D01*
X71034294Y-61829014D01*
X71219866Y-62055134D01*
X71445986Y-62240706D01*
X71463374Y-62250000D01*
X71445986Y-62259294D01*
X71219866Y-62444866D01*
X71034294Y-62670986D01*
X70896401Y-62928966D01*
X70822887Y-63171309D01*
X69285000Y-61633422D01*
X69285000Y-58736579D01*
X69643470Y-59095049D01*
G37*
X69643470Y-59095049D02*
X69671183Y-59128817D01*
X69704951Y-59156530D01*
X69704953Y-59156532D01*
X69744858Y-59189281D01*
X69805941Y-59239411D01*
X69959687Y-59321589D01*
X70126510Y-59372195D01*
X70256523Y-59385000D01*
X70256533Y-59385000D01*
X70299999Y-59389281D01*
X70343465Y-59385000D01*
X70837890Y-59385000D01*
X70854528Y-59439850D01*
X70936595Y-59593386D01*
X71047038Y-59727962D01*
X71181614Y-59838405D01*
X71283337Y-59892777D01*
X71219866Y-59944866D01*
X71034294Y-60170986D01*
X70896401Y-60428966D01*
X70811487Y-60708889D01*
X70782815Y-61000000D01*
X70811487Y-61291111D01*
X70896401Y-61571034D01*
X71034294Y-61829014D01*
X71219866Y-62055134D01*
X71445986Y-62240706D01*
X71463374Y-62250000D01*
X71445986Y-62259294D01*
X71219866Y-62444866D01*
X71034294Y-62670986D01*
X70896401Y-62928966D01*
X70822887Y-63171309D01*
X69285000Y-61633422D01*
X69285000Y-58736579D01*
X69643470Y-59095049D01*
G36*
X78034294Y-61829014D02*
G01*
X78219866Y-62055134D01*
X78445986Y-62240706D01*
X78463374Y-62250000D01*
X78445986Y-62259294D01*
X78349025Y-62338868D01*
X77795157Y-61785000D01*
X78010768Y-61785000D01*
X78034294Y-61829014D01*
G37*
X78034294Y-61829014D02*
X78219866Y-62055134D01*
X78445986Y-62240706D01*
X78463374Y-62250000D01*
X78445986Y-62259294D01*
X78349025Y-62338868D01*
X77795157Y-61785000D01*
X78010768Y-61785000D01*
X78034294Y-61829014D01*
G36*
X75294169Y-54024023D02*
G01*
X75334720Y-54073434D01*
X75367685Y-54113602D01*
X75367689Y-54113606D01*
X75392267Y-54143554D01*
X75422215Y-54168132D01*
X78334147Y-57080064D01*
X78181614Y-57161595D01*
X78047038Y-57272038D01*
X77936595Y-57406614D01*
X77854528Y-57560150D01*
X77803992Y-57726746D01*
X77786928Y-57900000D01*
X77786928Y-59100000D01*
X77803992Y-59273254D01*
X77854528Y-59439850D01*
X77936595Y-59593386D01*
X78047038Y-59727962D01*
X78181614Y-59838405D01*
X78283337Y-59892777D01*
X78219866Y-59944866D01*
X78034294Y-60170986D01*
X78010768Y-60215000D01*
X76932278Y-60215000D01*
X75235020Y-58517743D01*
X75235020Y-53913362D01*
X75294169Y-54024023D01*
G37*
X75294169Y-54024023D02*
X75334720Y-54073434D01*
X75367685Y-54113602D01*
X75367689Y-54113606D01*
X75392267Y-54143554D01*
X75422215Y-54168132D01*
X78334147Y-57080064D01*
X78181614Y-57161595D01*
X78047038Y-57272038D01*
X77936595Y-57406614D01*
X77854528Y-57560150D01*
X77803992Y-57726746D01*
X77786928Y-57900000D01*
X77786928Y-59100000D01*
X77803992Y-59273254D01*
X77854528Y-59439850D01*
X77936595Y-59593386D01*
X78047038Y-59727962D01*
X78181614Y-59838405D01*
X78283337Y-59892777D01*
X78219866Y-59944866D01*
X78034294Y-60170986D01*
X78010768Y-60215000D01*
X76932278Y-60215000D01*
X75235020Y-58517743D01*
X75235020Y-53913362D01*
X75294169Y-54024023D01*
G36*
X57400518Y-56625812D02*
G01*
X57495001Y-56635117D01*
X57495001Y-57829021D01*
X57490706Y-57820986D01*
X57305134Y-57594866D01*
X57079013Y-57409294D01*
X56821033Y-57271401D01*
X56541110Y-57186487D01*
X56250000Y-57157815D01*
X56135000Y-57169142D01*
X56135000Y-56638072D01*
X57225000Y-56638072D01*
X57348827Y-56625941D01*
X57374935Y-56618051D01*
X57400518Y-56625812D01*
G37*
X57400518Y-56625812D02*
X57495001Y-56635117D01*
X57495001Y-57829021D01*
X57490706Y-57820986D01*
X57305134Y-57594866D01*
X57079013Y-57409294D01*
X56821033Y-57271401D01*
X56541110Y-57186487D01*
X56250000Y-57157815D01*
X56135000Y-57169142D01*
X56135000Y-56638072D01*
X57225000Y-56638072D01*
X57348827Y-56625941D01*
X57374935Y-56618051D01*
X57400518Y-56625812D01*
G36*
X71294866Y-52705134D02*
G01*
X71520987Y-52890706D01*
X71778967Y-53028599D01*
X72058890Y-53113513D01*
X72350000Y-53142185D01*
X72565355Y-53120974D01*
X72578494Y-53124960D01*
X72850000Y-53151701D01*
X73121507Y-53124960D01*
X73165011Y-53111763D01*
X73165011Y-56611400D01*
X73165010Y-56611410D01*
X73165010Y-57015869D01*
X73125000Y-57011928D01*
X71675000Y-57011928D01*
X71501746Y-57028992D01*
X71335150Y-57079528D01*
X71181614Y-57161595D01*
X71047038Y-57272038D01*
X70936595Y-57406614D01*
X70854528Y-57560150D01*
X70837890Y-57615000D01*
X70666579Y-57615000D01*
X69085000Y-56033422D01*
X69085000Y-53121821D01*
X69176009Y-53130785D01*
X69176746Y-53131008D01*
X69350000Y-53148072D01*
X70350000Y-53148072D01*
X70523254Y-53131008D01*
X70523991Y-53130785D01*
X70623254Y-53121008D01*
X70789850Y-53070472D01*
X70943386Y-52988405D01*
X71077962Y-52877962D01*
X71188405Y-52743386D01*
X71242777Y-52641663D01*
X71294866Y-52705134D01*
G37*
X71294866Y-52705134D02*
X71520987Y-52890706D01*
X71778967Y-53028599D01*
X72058890Y-53113513D01*
X72350000Y-53142185D01*
X72565355Y-53120974D01*
X72578494Y-53124960D01*
X72850000Y-53151701D01*
X73121507Y-53124960D01*
X73165011Y-53111763D01*
X73165011Y-56611400D01*
X73165010Y-56611410D01*
X73165010Y-57015869D01*
X73125000Y-57011928D01*
X71675000Y-57011928D01*
X71501746Y-57028992D01*
X71335150Y-57079528D01*
X71181614Y-57161595D01*
X71047038Y-57272038D01*
X70936595Y-57406614D01*
X70854528Y-57560150D01*
X70837890Y-57615000D01*
X70666579Y-57615000D01*
X69085000Y-56033422D01*
X69085000Y-53121821D01*
X69176009Y-53130785D01*
X69176746Y-53131008D01*
X69350000Y-53148072D01*
X70350000Y-53148072D01*
X70523254Y-53131008D01*
X70523991Y-53130785D01*
X70623254Y-53121008D01*
X70789850Y-53070472D01*
X70943386Y-52988405D01*
X71077962Y-52877962D01*
X71188405Y-52743386D01*
X71242777Y-52641663D01*
X71294866Y-52705134D01*
G36*
X67315001Y-55963423D02*
G01*
X66385000Y-55033422D01*
X66385000Y-50722029D01*
X66479555Y-50761195D01*
X66724916Y-50810000D01*
X66975084Y-50810000D01*
X67220445Y-50761195D01*
X67315000Y-50722029D01*
X67315001Y-55963423D01*
G37*
X67315001Y-55963423D02*
X66385000Y-55033422D01*
X66385000Y-50722029D01*
X66479555Y-50761195D01*
X66724916Y-50810000D01*
X66975084Y-50810000D01*
X67220445Y-50761195D01*
X67315000Y-50722029D01*
X67315001Y-55963423D01*
G36*
X64615001Y-54659982D02*
G01*
X64540706Y-54520986D01*
X64355134Y-54294866D01*
X64291663Y-54242777D01*
X64393386Y-54188405D01*
X64527962Y-54077962D01*
X64615001Y-53971904D01*
X64615001Y-54659982D01*
G37*
X64615001Y-54659982D02*
X64540706Y-54520986D01*
X64355134Y-54294866D01*
X64291663Y-54242777D01*
X64393386Y-54188405D01*
X64527962Y-54077962D01*
X64615001Y-53971904D01*
X64615001Y-54659982D01*
G36*
X52606614Y-53188405D02*
G01*
X52760150Y-53270472D01*
X52926746Y-53321008D01*
X53100000Y-53338072D01*
X54015782Y-53338072D01*
X54265001Y-53587291D01*
X54265000Y-54096112D01*
X54226185Y-54048815D01*
X54129494Y-53969463D01*
X54019180Y-53910498D01*
X53899482Y-53874188D01*
X53775000Y-53861928D01*
X52625000Y-53861928D01*
X52535000Y-53870745D01*
X52535000Y-53129633D01*
X52606614Y-53188405D01*
G37*
X52606614Y-53188405D02*
X52760150Y-53270472D01*
X52926746Y-53321008D01*
X53100000Y-53338072D01*
X54015782Y-53338072D01*
X54265001Y-53587291D01*
X54265000Y-54096112D01*
X54226185Y-54048815D01*
X54129494Y-53969463D01*
X54019180Y-53910498D01*
X53899482Y-53874188D01*
X53775000Y-53861928D01*
X52625000Y-53861928D01*
X52535000Y-53870745D01*
X52535000Y-53129633D01*
X52606614Y-53188405D01*
G36*
X57495000Y-53864899D02*
G01*
X57399864Y-53874319D01*
X57374936Y-53881909D01*
X57349482Y-53874188D01*
X57225000Y-53861928D01*
X56135000Y-53861928D01*
X56135000Y-53335783D01*
X56200000Y-53342185D01*
X56491111Y-53313513D01*
X56771034Y-53228599D01*
X57029014Y-53090706D01*
X57255134Y-52905134D01*
X57440706Y-52679014D01*
X57495000Y-52577436D01*
X57495000Y-53864899D01*
G37*
X57495000Y-53864899D02*
X57399864Y-53874319D01*
X57374936Y-53881909D01*
X57349482Y-53874188D01*
X57225000Y-53861928D01*
X56135000Y-53861928D01*
X56135000Y-53335783D01*
X56200000Y-53342185D01*
X56491111Y-53313513D01*
X56771034Y-53228599D01*
X57029014Y-53090706D01*
X57255134Y-52905134D01*
X57440706Y-52679014D01*
X57495000Y-52577436D01*
X57495000Y-53864899D01*
G36*
X75236554Y-50657525D02*
G01*
X75235020Y-50660395D01*
X75235020Y-50656499D01*
X75236554Y-50657525D01*
G37*
X75236554Y-50657525D02*
X75235020Y-50660395D01*
X75235020Y-50656499D01*
X75236554Y-50657525D01*
G36*
X56828408Y-50202068D02*
G01*
X56771033Y-50171401D01*
X56491110Y-50086487D01*
X56200000Y-50057815D01*
X55908889Y-50086487D01*
X55628966Y-50171401D01*
X55370986Y-50309294D01*
X55144866Y-50494866D01*
X55092777Y-50558337D01*
X55038405Y-50456614D01*
X54927962Y-50322038D01*
X54793386Y-50211595D01*
X54639850Y-50129528D01*
X54473254Y-50078992D01*
X54300000Y-50061928D01*
X53100000Y-50061928D01*
X52926746Y-50078992D01*
X52760150Y-50129528D01*
X52606614Y-50211595D01*
X52535000Y-50270367D01*
X52535000Y-49116578D01*
X53545050Y-48106529D01*
X53578817Y-48078817D01*
X53616579Y-48032805D01*
X53689411Y-47944059D01*
X53771589Y-47790314D01*
X53822195Y-47623490D01*
X53822722Y-47618140D01*
X53835000Y-47493477D01*
X53835000Y-47493469D01*
X53839281Y-47450000D01*
X53835000Y-47406531D01*
X53835000Y-47208660D01*
X56828408Y-50202068D01*
G37*
X56828408Y-50202068D02*
X56771033Y-50171401D01*
X56491110Y-50086487D01*
X56200000Y-50057815D01*
X55908889Y-50086487D01*
X55628966Y-50171401D01*
X55370986Y-50309294D01*
X55144866Y-50494866D01*
X55092777Y-50558337D01*
X55038405Y-50456614D01*
X54927962Y-50322038D01*
X54793386Y-50211595D01*
X54639850Y-50129528D01*
X54473254Y-50078992D01*
X54300000Y-50061928D01*
X53100000Y-50061928D01*
X52926746Y-50078992D01*
X52760150Y-50129528D01*
X52606614Y-50211595D01*
X52535000Y-50270367D01*
X52535000Y-49116578D01*
X53545050Y-48106529D01*
X53578817Y-48078817D01*
X53616579Y-48032805D01*
X53689411Y-47944059D01*
X53771589Y-47790314D01*
X53822195Y-47623490D01*
X53822722Y-47618140D01*
X53835000Y-47493477D01*
X53835000Y-47493469D01*
X53839281Y-47450000D01*
X53835000Y-47406531D01*
X53835000Y-47208660D01*
X56828408Y-50202068D01*
G36*
X79604653Y-34704415D02*
G01*
X79586928Y-34884375D01*
X79586928Y-35940625D01*
X79604653Y-36120585D01*
X79657145Y-36293630D01*
X79742388Y-36453109D01*
X79857106Y-36592894D01*
X79987616Y-36700000D01*
X79857106Y-36807106D01*
X79742388Y-36946891D01*
X79739970Y-36951414D01*
X79597596Y-36738337D01*
X79271663Y-36412404D01*
X78888406Y-36156319D01*
X78462553Y-35979925D01*
X78010470Y-35890000D01*
X77549530Y-35890000D01*
X77097447Y-35979925D01*
X76671594Y-36156319D01*
X76288337Y-36412404D01*
X75962404Y-36738337D01*
X75706319Y-37121594D01*
X75529925Y-37547447D01*
X75526116Y-37566596D01*
X75382012Y-37218698D01*
X75148363Y-36869017D01*
X74850983Y-36571637D01*
X74501302Y-36337988D01*
X74112756Y-36177047D01*
X73700279Y-36095000D01*
X73279721Y-36095000D01*
X72867244Y-36177047D01*
X72478698Y-36337988D01*
X72129017Y-36571637D01*
X71831637Y-36869017D01*
X71597988Y-37218698D01*
X71437047Y-37607244D01*
X71355000Y-38019721D01*
X71355000Y-38440279D01*
X71437047Y-38852756D01*
X71597988Y-39241302D01*
X71831637Y-39590983D01*
X72129017Y-39888363D01*
X72478698Y-40122012D01*
X72867244Y-40282953D01*
X73279721Y-40365000D01*
X73700279Y-40365000D01*
X74112756Y-40282953D01*
X74501302Y-40122012D01*
X74850983Y-39888363D01*
X75148363Y-39590983D01*
X75382012Y-39241302D01*
X75526116Y-38893404D01*
X75529925Y-38912553D01*
X75706319Y-39338406D01*
X75962404Y-39721663D01*
X76288337Y-40047596D01*
X76671594Y-40303681D01*
X77097447Y-40480075D01*
X77549530Y-40570000D01*
X78010470Y-40570000D01*
X78462553Y-40480075D01*
X78888406Y-40303681D01*
X79271663Y-40047596D01*
X79597596Y-39721663D01*
X79853681Y-39338406D01*
X79907260Y-39209054D01*
X79996891Y-39282612D01*
X80056259Y-39314345D01*
X79985363Y-39385241D01*
X79828320Y-39620273D01*
X79720147Y-39881426D01*
X79665000Y-40158665D01*
X79665000Y-40441335D01*
X79720147Y-40718574D01*
X79828320Y-40979727D01*
X79985363Y-41214759D01*
X80185241Y-41414637D01*
X80315001Y-41501339D01*
X80315000Y-42040375D01*
X80225518Y-42049188D01*
X80105820Y-42085498D01*
X79995506Y-42144463D01*
X79898815Y-42223815D01*
X79819463Y-42320506D01*
X79782317Y-42390000D01*
X77030308Y-42390000D01*
X76981775Y-42146011D01*
X76877371Y-41893957D01*
X76725799Y-41667114D01*
X76532886Y-41474201D01*
X76306043Y-41322629D01*
X76053989Y-41218225D01*
X75786411Y-41165000D01*
X75493589Y-41165000D01*
X75226011Y-41218225D01*
X74973957Y-41322629D01*
X74747114Y-41474201D01*
X74554201Y-41667114D01*
X74402629Y-41893957D01*
X74298225Y-42146011D01*
X74245000Y-42413589D01*
X74245000Y-42686411D01*
X74298225Y-42953989D01*
X74402629Y-43206043D01*
X74554201Y-43432886D01*
X74747114Y-43625799D01*
X74973957Y-43777371D01*
X75226011Y-43881775D01*
X75493589Y-43935000D01*
X75786411Y-43935000D01*
X75965100Y-43899456D01*
X75973140Y-43903754D01*
X76076145Y-43935000D01*
X76121112Y-43948641D01*
X76135490Y-43950057D01*
X76236439Y-43960000D01*
X76236446Y-43960000D01*
X76274999Y-43963797D01*
X76313552Y-43960000D01*
X79713405Y-43960000D01*
X79711928Y-43975000D01*
X79711928Y-45125000D01*
X79724188Y-45249482D01*
X79760498Y-45369180D01*
X79819463Y-45479494D01*
X79898815Y-45576185D01*
X79995506Y-45655537D01*
X80105820Y-45714502D01*
X80225518Y-45750812D01*
X80315000Y-45759625D01*
X80315001Y-46481928D01*
X80300000Y-46481928D01*
X80175518Y-46494188D01*
X80055820Y-46530498D01*
X79945506Y-46589463D01*
X79848815Y-46668815D01*
X79769463Y-46765506D01*
X79742342Y-46816245D01*
X79785000Y-46601788D01*
X79785000Y-46378212D01*
X79741383Y-46158933D01*
X79655824Y-45952376D01*
X79531612Y-45766480D01*
X79373520Y-45608388D01*
X79187624Y-45484176D01*
X78981067Y-45398617D01*
X78761788Y-45355000D01*
X78538212Y-45355000D01*
X78318933Y-45398617D01*
X78112376Y-45484176D01*
X77926480Y-45608388D01*
X77768388Y-45766480D01*
X77644176Y-45952376D01*
X77558617Y-46158933D01*
X77515000Y-46378212D01*
X77515000Y-46601788D01*
X77558617Y-46821067D01*
X77644176Y-47027624D01*
X77768388Y-47213520D01*
X77926480Y-47371612D01*
X78112376Y-47495824D01*
X78267685Y-47560155D01*
X76940993Y-48886847D01*
X76836473Y-48730422D01*
X76659578Y-48553527D01*
X76451571Y-48414541D01*
X76220445Y-48318805D01*
X75975084Y-48270000D01*
X75724916Y-48270000D01*
X75479555Y-48318805D01*
X75248429Y-48414541D01*
X75235020Y-48423501D01*
X75235020Y-48225157D01*
X76177815Y-47282362D01*
X76207764Y-47257784D01*
X76305862Y-47138253D01*
X76378754Y-47001880D01*
X76380684Y-46995518D01*
X76423642Y-46853907D01*
X76432348Y-46765506D01*
X76435000Y-46738581D01*
X76435000Y-46738576D01*
X76438797Y-46700020D01*
X76437748Y-46689368D01*
X76532886Y-46625799D01*
X76725799Y-46432886D01*
X76877371Y-46206043D01*
X76981775Y-45953989D01*
X77035000Y-45686411D01*
X77035000Y-45413589D01*
X76981775Y-45146011D01*
X76877371Y-44893957D01*
X76725799Y-44667114D01*
X76532886Y-44474201D01*
X76306043Y-44322629D01*
X76053989Y-44218225D01*
X75786411Y-44165000D01*
X75493589Y-44165000D01*
X75226011Y-44218225D01*
X74973957Y-44322629D01*
X74747114Y-44474201D01*
X74554201Y-44667114D01*
X74402629Y-44893957D01*
X74298225Y-45146011D01*
X74245000Y-45413589D01*
X74245000Y-45686411D01*
X74298225Y-45953989D01*
X74393033Y-46182876D01*
X74012032Y-45801875D01*
X74035000Y-45686411D01*
X74035000Y-45413589D01*
X73981775Y-45146011D01*
X73877371Y-44893957D01*
X73725799Y-44667114D01*
X73532886Y-44474201D01*
X73306043Y-44322629D01*
X73053989Y-44218225D01*
X72786411Y-44165000D01*
X72493589Y-44165000D01*
X72226011Y-44218225D01*
X71973957Y-44322629D01*
X71747114Y-44474201D01*
X71554201Y-44667114D01*
X71402629Y-44893957D01*
X71298225Y-45146011D01*
X71245000Y-45413589D01*
X71245000Y-45686411D01*
X71298225Y-45953989D01*
X71402629Y-46206043D01*
X71554201Y-46432886D01*
X71747114Y-46625799D01*
X71973957Y-46777371D01*
X72226011Y-46881775D01*
X72493589Y-46935000D01*
X72786411Y-46935000D01*
X72901875Y-46912032D01*
X73165010Y-47175167D01*
X73165010Y-49888237D01*
X73121506Y-49875040D01*
X72850000Y-49848299D01*
X72578493Y-49875040D01*
X72565354Y-49879026D01*
X72350000Y-49857815D01*
X72058889Y-49886487D01*
X71778966Y-49971401D01*
X71520986Y-50109294D01*
X71294866Y-50294866D01*
X71242777Y-50358337D01*
X71188405Y-50256614D01*
X71077962Y-50122038D01*
X70943386Y-50011595D01*
X70789850Y-49929528D01*
X70623254Y-49878992D01*
X70523991Y-49869215D01*
X70523254Y-49868992D01*
X70350000Y-49851928D01*
X69350000Y-49851928D01*
X69176746Y-49868992D01*
X69176009Y-49869215D01*
X69085000Y-49878179D01*
X69085000Y-48293466D01*
X69089281Y-48249999D01*
X69085000Y-48206533D01*
X69085000Y-48206523D01*
X69072195Y-48076510D01*
X69021589Y-47909687D01*
X68939411Y-47755941D01*
X68828817Y-47621183D01*
X68795050Y-47593471D01*
X67680132Y-46478553D01*
X67725799Y-46432886D01*
X67877371Y-46206043D01*
X67981775Y-45953989D01*
X68035000Y-45686411D01*
X68035000Y-45413589D01*
X68245000Y-45413589D01*
X68245000Y-45686411D01*
X68298225Y-45953989D01*
X68402629Y-46206043D01*
X68554201Y-46432886D01*
X68747114Y-46625799D01*
X68973957Y-46777371D01*
X69226011Y-46881775D01*
X69493589Y-46935000D01*
X69786411Y-46935000D01*
X70053989Y-46881775D01*
X70306043Y-46777371D01*
X70532886Y-46625799D01*
X70725799Y-46432886D01*
X70877371Y-46206043D01*
X70981775Y-45953989D01*
X71035000Y-45686411D01*
X71035000Y-45413589D01*
X70981775Y-45146011D01*
X70877371Y-44893957D01*
X70725799Y-44667114D01*
X70532886Y-44474201D01*
X70306043Y-44322629D01*
X70053989Y-44218225D01*
X69786411Y-44165000D01*
X69493589Y-44165000D01*
X69226011Y-44218225D01*
X68973957Y-44322629D01*
X68747114Y-44474201D01*
X68554201Y-44667114D01*
X68402629Y-44893957D01*
X68298225Y-45146011D01*
X68245000Y-45413589D01*
X68035000Y-45413589D01*
X67981775Y-45146011D01*
X67877371Y-44893957D01*
X67725799Y-44667114D01*
X67532886Y-44474201D01*
X67306043Y-44322629D01*
X67053989Y-44218225D01*
X66786411Y-44165000D01*
X66493589Y-44165000D01*
X66235176Y-44216402D01*
X66516578Y-43935000D01*
X66786411Y-43935000D01*
X67053989Y-43881775D01*
X67306043Y-43777371D01*
X67532886Y-43625799D01*
X67725799Y-43432886D01*
X67877371Y-43206043D01*
X67981775Y-42953989D01*
X68035000Y-42686411D01*
X68035000Y-42413589D01*
X68245000Y-42413589D01*
X68245000Y-42686411D01*
X68298225Y-42953989D01*
X68402629Y-43206043D01*
X68554201Y-43432886D01*
X68747114Y-43625799D01*
X68973957Y-43777371D01*
X69226011Y-43881775D01*
X69493589Y-43935000D01*
X69786411Y-43935000D01*
X70053989Y-43881775D01*
X70306043Y-43777371D01*
X70532886Y-43625799D01*
X70725799Y-43432886D01*
X70877371Y-43206043D01*
X70981775Y-42953989D01*
X71035000Y-42686411D01*
X71035000Y-42413589D01*
X71245000Y-42413589D01*
X71245000Y-42686411D01*
X71298225Y-42953989D01*
X71402629Y-43206043D01*
X71554201Y-43432886D01*
X71747114Y-43625799D01*
X71973957Y-43777371D01*
X72226011Y-43881775D01*
X72493589Y-43935000D01*
X72786411Y-43935000D01*
X73053989Y-43881775D01*
X73306043Y-43777371D01*
X73532886Y-43625799D01*
X73725799Y-43432886D01*
X73877371Y-43206043D01*
X73981775Y-42953989D01*
X74035000Y-42686411D01*
X74035000Y-42413589D01*
X73981775Y-42146011D01*
X73877371Y-41893957D01*
X73725799Y-41667114D01*
X73532886Y-41474201D01*
X73306043Y-41322629D01*
X73053989Y-41218225D01*
X72786411Y-41165000D01*
X72493589Y-41165000D01*
X72226011Y-41218225D01*
X71973957Y-41322629D01*
X71747114Y-41474201D01*
X71554201Y-41667114D01*
X71402629Y-41893957D01*
X71298225Y-42146011D01*
X71245000Y-42413589D01*
X71035000Y-42413589D01*
X70981775Y-42146011D01*
X70877371Y-41893957D01*
X70725799Y-41667114D01*
X70532886Y-41474201D01*
X70306043Y-41322629D01*
X70053989Y-41218225D01*
X69786411Y-41165000D01*
X69493589Y-41165000D01*
X69226011Y-41218225D01*
X68973957Y-41322629D01*
X68747114Y-41474201D01*
X68554201Y-41667114D01*
X68402629Y-41893957D01*
X68298225Y-42146011D01*
X68245000Y-42413589D01*
X68035000Y-42413589D01*
X67981775Y-42146011D01*
X67877371Y-41893957D01*
X67725799Y-41667114D01*
X67532886Y-41474201D01*
X67306043Y-41322629D01*
X67053989Y-41218225D01*
X66786411Y-41165000D01*
X66493589Y-41165000D01*
X66226011Y-41218225D01*
X65973957Y-41322629D01*
X65747114Y-41474201D01*
X65554201Y-41667114D01*
X65402629Y-41893957D01*
X65298225Y-42146011D01*
X65245000Y-42413589D01*
X65245000Y-42686411D01*
X65247822Y-42700599D01*
X64972825Y-42975597D01*
X64981775Y-42953989D01*
X65035000Y-42686411D01*
X65035000Y-42413589D01*
X64981775Y-42146011D01*
X64877371Y-41893957D01*
X64725799Y-41667114D01*
X64532886Y-41474201D01*
X64306043Y-41322629D01*
X64053989Y-41218225D01*
X63786411Y-41165000D01*
X63493589Y-41165000D01*
X63226011Y-41218225D01*
X62973957Y-41322629D01*
X62747114Y-41474201D01*
X62554201Y-41667114D01*
X62402629Y-41893957D01*
X62298225Y-42146011D01*
X62245000Y-42413589D01*
X62245000Y-42686411D01*
X62298225Y-42953989D01*
X62402629Y-43206043D01*
X62554201Y-43432886D01*
X62747114Y-43625799D01*
X62973957Y-43777371D01*
X63226011Y-43881775D01*
X63493589Y-43935000D01*
X63786411Y-43935000D01*
X64053989Y-43881775D01*
X64306043Y-43777371D01*
X64439409Y-43688259D01*
X64427805Y-43726511D01*
X64415000Y-43856524D01*
X64415000Y-43856531D01*
X64410719Y-43900000D01*
X64415000Y-43943469D01*
X64415000Y-44395432D01*
X64306043Y-44322629D01*
X64053989Y-44218225D01*
X63786411Y-44165000D01*
X63493589Y-44165000D01*
X63226011Y-44218225D01*
X62973957Y-44322629D01*
X62747114Y-44474201D01*
X62554201Y-44667114D01*
X62402629Y-44893957D01*
X62298225Y-45146011D01*
X62245000Y-45413589D01*
X62245000Y-45686411D01*
X62298225Y-45953989D01*
X62307175Y-45975597D01*
X62032178Y-45700599D01*
X62035000Y-45686411D01*
X62035000Y-45413589D01*
X61981775Y-45146011D01*
X61877371Y-44893957D01*
X61725799Y-44667114D01*
X61532886Y-44474201D01*
X61306043Y-44322629D01*
X61053989Y-44218225D01*
X60786411Y-44165000D01*
X60516579Y-44165000D01*
X60235176Y-43883598D01*
X60493589Y-43935000D01*
X60786411Y-43935000D01*
X61053989Y-43881775D01*
X61306043Y-43777371D01*
X61532886Y-43625799D01*
X61725799Y-43432886D01*
X61877371Y-43206043D01*
X61981775Y-42953989D01*
X62035000Y-42686411D01*
X62035000Y-42413589D01*
X61981775Y-42146011D01*
X61877371Y-41893957D01*
X61725799Y-41667114D01*
X61532886Y-41474201D01*
X61306043Y-41322629D01*
X61053989Y-41218225D01*
X60786411Y-41165000D01*
X60493589Y-41165000D01*
X60226011Y-41218225D01*
X59973957Y-41322629D01*
X59747114Y-41474201D01*
X59554201Y-41667114D01*
X59402629Y-41893957D01*
X59298225Y-42146011D01*
X59245000Y-42413589D01*
X59245000Y-42686411D01*
X59298225Y-42953989D01*
X59384123Y-43161366D01*
X59273490Y-43127805D01*
X59143477Y-43115000D01*
X59143469Y-43115000D01*
X59100000Y-43110719D01*
X59056531Y-43115000D01*
X58915082Y-43115000D01*
X58981775Y-42953989D01*
X59035000Y-42686411D01*
X59035000Y-42413589D01*
X58981775Y-42146011D01*
X58877371Y-41893957D01*
X58725799Y-41667114D01*
X58532886Y-41474201D01*
X58306043Y-41322629D01*
X58053989Y-41218225D01*
X57786411Y-41165000D01*
X57493589Y-41165000D01*
X57226011Y-41218225D01*
X56973957Y-41322629D01*
X56747114Y-41474201D01*
X56554201Y-41667114D01*
X56402629Y-41893957D01*
X56298225Y-42146011D01*
X56245000Y-42413589D01*
X56245000Y-42686411D01*
X56298225Y-42953989D01*
X56364918Y-43115000D01*
X56031670Y-43115000D01*
X56038072Y-43050000D01*
X56038072Y-42050000D01*
X56021008Y-41876746D01*
X55970472Y-41710150D01*
X55888405Y-41556614D01*
X55777962Y-41422038D01*
X55643386Y-41311595D01*
X55489850Y-41229528D01*
X55323254Y-41178992D01*
X55150000Y-41161928D01*
X54130000Y-41161928D01*
X53956746Y-41178992D01*
X53790150Y-41229528D01*
X53636614Y-41311595D01*
X53502038Y-41422038D01*
X53391595Y-41556614D01*
X53309528Y-41710150D01*
X53258992Y-41876746D01*
X53241928Y-42050000D01*
X53241928Y-43050000D01*
X53257332Y-43206395D01*
X53155941Y-43260589D01*
X53155939Y-43260590D01*
X53155940Y-43260590D01*
X53054953Y-43343468D01*
X53054951Y-43343470D01*
X53021183Y-43371183D01*
X52993470Y-43404951D01*
X52354951Y-44043471D01*
X52321184Y-44071183D01*
X52293471Y-44104951D01*
X52293468Y-44104954D01*
X52210590Y-44205941D01*
X52128412Y-44359687D01*
X52077805Y-44526510D01*
X52060719Y-44700000D01*
X52065001Y-44743479D01*
X52065001Y-45433384D01*
X51981067Y-45398617D01*
X51761788Y-45355000D01*
X51538212Y-45355000D01*
X51318933Y-45398617D01*
X51160000Y-45464449D01*
X51160000Y-40162298D01*
X51371594Y-40303681D01*
X51797447Y-40480075D01*
X52249530Y-40570000D01*
X52710470Y-40570000D01*
X53162553Y-40480075D01*
X53588406Y-40303681D01*
X53971663Y-40047596D01*
X54297596Y-39721663D01*
X54553681Y-39338406D01*
X54730075Y-38912553D01*
X54740372Y-38860784D01*
X54897988Y-39241302D01*
X55131637Y-39590983D01*
X55429017Y-39888363D01*
X55778698Y-40122012D01*
X56167244Y-40282953D01*
X56579721Y-40365000D01*
X57000279Y-40365000D01*
X57412756Y-40282953D01*
X57801302Y-40122012D01*
X58150983Y-39888363D01*
X58448363Y-39590983D01*
X58682012Y-39241302D01*
X58842953Y-38852756D01*
X58925000Y-38440279D01*
X58925000Y-38019721D01*
X58842953Y-37607244D01*
X58682012Y-37218698D01*
X58448363Y-36869017D01*
X58150983Y-36571637D01*
X57801302Y-36337988D01*
X57412756Y-36177047D01*
X57000279Y-36095000D01*
X56579721Y-36095000D01*
X56167244Y-36177047D01*
X55778698Y-36337988D01*
X55429017Y-36571637D01*
X55131637Y-36869017D01*
X54897988Y-37218698D01*
X54740372Y-37599216D01*
X54730075Y-37547447D01*
X54553681Y-37121594D01*
X54297596Y-36738337D01*
X53971663Y-36412404D01*
X53588406Y-36156319D01*
X53162553Y-35979925D01*
X52710470Y-35890000D01*
X52249530Y-35890000D01*
X51797447Y-35979925D01*
X51371594Y-36156319D01*
X51160000Y-36297702D01*
X51160000Y-35715905D01*
X51162468Y-35710147D01*
X51190669Y-35577470D01*
X51191683Y-35567819D01*
X51213600Y-35344290D01*
X51258823Y-35194506D01*
X51332273Y-35056367D01*
X51431161Y-34935117D01*
X51551714Y-34835388D01*
X51689343Y-34760972D01*
X51838802Y-34714707D01*
X52062174Y-34691230D01*
X52084388Y-34686670D01*
X52137401Y-34681283D01*
X52192066Y-34664567D01*
X52195044Y-34663956D01*
X52197657Y-34662858D01*
X52207002Y-34660000D01*
X79618126Y-34660000D01*
X79604653Y-34704415D01*
G37*
X79604653Y-34704415D02*
X79586928Y-34884375D01*
X79586928Y-35940625D01*
X79604653Y-36120585D01*
X79657145Y-36293630D01*
X79742388Y-36453109D01*
X79857106Y-36592894D01*
X79987616Y-36700000D01*
X79857106Y-36807106D01*
X79742388Y-36946891D01*
X79739970Y-36951414D01*
X79597596Y-36738337D01*
X79271663Y-36412404D01*
X78888406Y-36156319D01*
X78462553Y-35979925D01*
X78010470Y-35890000D01*
X77549530Y-35890000D01*
X77097447Y-35979925D01*
X76671594Y-36156319D01*
X76288337Y-36412404D01*
X75962404Y-36738337D01*
X75706319Y-37121594D01*
X75529925Y-37547447D01*
X75526116Y-37566596D01*
X75382012Y-37218698D01*
X75148363Y-36869017D01*
X74850983Y-36571637D01*
X74501302Y-36337988D01*
X74112756Y-36177047D01*
X73700279Y-36095000D01*
X73279721Y-36095000D01*
X72867244Y-36177047D01*
X72478698Y-36337988D01*
X72129017Y-36571637D01*
X71831637Y-36869017D01*
X71597988Y-37218698D01*
X71437047Y-37607244D01*
X71355000Y-38019721D01*
X71355000Y-38440279D01*
X71437047Y-38852756D01*
X71597988Y-39241302D01*
X71831637Y-39590983D01*
X72129017Y-39888363D01*
X72478698Y-40122012D01*
X72867244Y-40282953D01*
X73279721Y-40365000D01*
X73700279Y-40365000D01*
X74112756Y-40282953D01*
X74501302Y-40122012D01*
X74850983Y-39888363D01*
X75148363Y-39590983D01*
X75382012Y-39241302D01*
X75526116Y-38893404D01*
X75529925Y-38912553D01*
X75706319Y-39338406D01*
X75962404Y-39721663D01*
X76288337Y-40047596D01*
X76671594Y-40303681D01*
X77097447Y-40480075D01*
X77549530Y-40570000D01*
X78010470Y-40570000D01*
X78462553Y-40480075D01*
X78888406Y-40303681D01*
X79271663Y-40047596D01*
X79597596Y-39721663D01*
X79853681Y-39338406D01*
X79907260Y-39209054D01*
X79996891Y-39282612D01*
X80056259Y-39314345D01*
X79985363Y-39385241D01*
X79828320Y-39620273D01*
X79720147Y-39881426D01*
X79665000Y-40158665D01*
X79665000Y-40441335D01*
X79720147Y-40718574D01*
X79828320Y-40979727D01*
X79985363Y-41214759D01*
X80185241Y-41414637D01*
X80315001Y-41501339D01*
X80315000Y-42040375D01*
X80225518Y-42049188D01*
X80105820Y-42085498D01*
X79995506Y-42144463D01*
X79898815Y-42223815D01*
X79819463Y-42320506D01*
X79782317Y-42390000D01*
X77030308Y-42390000D01*
X76981775Y-42146011D01*
X76877371Y-41893957D01*
X76725799Y-41667114D01*
X76532886Y-41474201D01*
X76306043Y-41322629D01*
X76053989Y-41218225D01*
X75786411Y-41165000D01*
X75493589Y-41165000D01*
X75226011Y-41218225D01*
X74973957Y-41322629D01*
X74747114Y-41474201D01*
X74554201Y-41667114D01*
X74402629Y-41893957D01*
X74298225Y-42146011D01*
X74245000Y-42413589D01*
X74245000Y-42686411D01*
X74298225Y-42953989D01*
X74402629Y-43206043D01*
X74554201Y-43432886D01*
X74747114Y-43625799D01*
X74973957Y-43777371D01*
X75226011Y-43881775D01*
X75493589Y-43935000D01*
X75786411Y-43935000D01*
X75965100Y-43899456D01*
X75973140Y-43903754D01*
X76076145Y-43935000D01*
X76121112Y-43948641D01*
X76135490Y-43950057D01*
X76236439Y-43960000D01*
X76236446Y-43960000D01*
X76274999Y-43963797D01*
X76313552Y-43960000D01*
X79713405Y-43960000D01*
X79711928Y-43975000D01*
X79711928Y-45125000D01*
X79724188Y-45249482D01*
X79760498Y-45369180D01*
X79819463Y-45479494D01*
X79898815Y-45576185D01*
X79995506Y-45655537D01*
X80105820Y-45714502D01*
X80225518Y-45750812D01*
X80315000Y-45759625D01*
X80315001Y-46481928D01*
X80300000Y-46481928D01*
X80175518Y-46494188D01*
X80055820Y-46530498D01*
X79945506Y-46589463D01*
X79848815Y-46668815D01*
X79769463Y-46765506D01*
X79742342Y-46816245D01*
X79785000Y-46601788D01*
X79785000Y-46378212D01*
X79741383Y-46158933D01*
X79655824Y-45952376D01*
X79531612Y-45766480D01*
X79373520Y-45608388D01*
X79187624Y-45484176D01*
X78981067Y-45398617D01*
X78761788Y-45355000D01*
X78538212Y-45355000D01*
X78318933Y-45398617D01*
X78112376Y-45484176D01*
X77926480Y-45608388D01*
X77768388Y-45766480D01*
X77644176Y-45952376D01*
X77558617Y-46158933D01*
X77515000Y-46378212D01*
X77515000Y-46601788D01*
X77558617Y-46821067D01*
X77644176Y-47027624D01*
X77768388Y-47213520D01*
X77926480Y-47371612D01*
X78112376Y-47495824D01*
X78267685Y-47560155D01*
X76940993Y-48886847D01*
X76836473Y-48730422D01*
X76659578Y-48553527D01*
X76451571Y-48414541D01*
X76220445Y-48318805D01*
X75975084Y-48270000D01*
X75724916Y-48270000D01*
X75479555Y-48318805D01*
X75248429Y-48414541D01*
X75235020Y-48423501D01*
X75235020Y-48225157D01*
X76177815Y-47282362D01*
X76207764Y-47257784D01*
X76305862Y-47138253D01*
X76378754Y-47001880D01*
X76380684Y-46995518D01*
X76423642Y-46853907D01*
X76432348Y-46765506D01*
X76435000Y-46738581D01*
X76435000Y-46738576D01*
X76438797Y-46700020D01*
X76437748Y-46689368D01*
X76532886Y-46625799D01*
X76725799Y-46432886D01*
X76877371Y-46206043D01*
X76981775Y-45953989D01*
X77035000Y-45686411D01*
X77035000Y-45413589D01*
X76981775Y-45146011D01*
X76877371Y-44893957D01*
X76725799Y-44667114D01*
X76532886Y-44474201D01*
X76306043Y-44322629D01*
X76053989Y-44218225D01*
X75786411Y-44165000D01*
X75493589Y-44165000D01*
X75226011Y-44218225D01*
X74973957Y-44322629D01*
X74747114Y-44474201D01*
X74554201Y-44667114D01*
X74402629Y-44893957D01*
X74298225Y-45146011D01*
X74245000Y-45413589D01*
X74245000Y-45686411D01*
X74298225Y-45953989D01*
X74393033Y-46182876D01*
X74012032Y-45801875D01*
X74035000Y-45686411D01*
X74035000Y-45413589D01*
X73981775Y-45146011D01*
X73877371Y-44893957D01*
X73725799Y-44667114D01*
X73532886Y-44474201D01*
X73306043Y-44322629D01*
X73053989Y-44218225D01*
X72786411Y-44165000D01*
X72493589Y-44165000D01*
X72226011Y-44218225D01*
X71973957Y-44322629D01*
X71747114Y-44474201D01*
X71554201Y-44667114D01*
X71402629Y-44893957D01*
X71298225Y-45146011D01*
X71245000Y-45413589D01*
X71245000Y-45686411D01*
X71298225Y-45953989D01*
X71402629Y-46206043D01*
X71554201Y-46432886D01*
X71747114Y-46625799D01*
X71973957Y-46777371D01*
X72226011Y-46881775D01*
X72493589Y-46935000D01*
X72786411Y-46935000D01*
X72901875Y-46912032D01*
X73165010Y-47175167D01*
X73165010Y-49888237D01*
X73121506Y-49875040D01*
X72850000Y-49848299D01*
X72578493Y-49875040D01*
X72565354Y-49879026D01*
X72350000Y-49857815D01*
X72058889Y-49886487D01*
X71778966Y-49971401D01*
X71520986Y-50109294D01*
X71294866Y-50294866D01*
X71242777Y-50358337D01*
X71188405Y-50256614D01*
X71077962Y-50122038D01*
X70943386Y-50011595D01*
X70789850Y-49929528D01*
X70623254Y-49878992D01*
X70523991Y-49869215D01*
X70523254Y-49868992D01*
X70350000Y-49851928D01*
X69350000Y-49851928D01*
X69176746Y-49868992D01*
X69176009Y-49869215D01*
X69085000Y-49878179D01*
X69085000Y-48293466D01*
X69089281Y-48249999D01*
X69085000Y-48206533D01*
X69085000Y-48206523D01*
X69072195Y-48076510D01*
X69021589Y-47909687D01*
X68939411Y-47755941D01*
X68828817Y-47621183D01*
X68795050Y-47593471D01*
X67680132Y-46478553D01*
X67725799Y-46432886D01*
X67877371Y-46206043D01*
X67981775Y-45953989D01*
X68035000Y-45686411D01*
X68035000Y-45413589D01*
X68245000Y-45413589D01*
X68245000Y-45686411D01*
X68298225Y-45953989D01*
X68402629Y-46206043D01*
X68554201Y-46432886D01*
X68747114Y-46625799D01*
X68973957Y-46777371D01*
X69226011Y-46881775D01*
X69493589Y-46935000D01*
X69786411Y-46935000D01*
X70053989Y-46881775D01*
X70306043Y-46777371D01*
X70532886Y-46625799D01*
X70725799Y-46432886D01*
X70877371Y-46206043D01*
X70981775Y-45953989D01*
X71035000Y-45686411D01*
X71035000Y-45413589D01*
X70981775Y-45146011D01*
X70877371Y-44893957D01*
X70725799Y-44667114D01*
X70532886Y-44474201D01*
X70306043Y-44322629D01*
X70053989Y-44218225D01*
X69786411Y-44165000D01*
X69493589Y-44165000D01*
X69226011Y-44218225D01*
X68973957Y-44322629D01*
X68747114Y-44474201D01*
X68554201Y-44667114D01*
X68402629Y-44893957D01*
X68298225Y-45146011D01*
X68245000Y-45413589D01*
X68035000Y-45413589D01*
X67981775Y-45146011D01*
X67877371Y-44893957D01*
X67725799Y-44667114D01*
X67532886Y-44474201D01*
X67306043Y-44322629D01*
X67053989Y-44218225D01*
X66786411Y-44165000D01*
X66493589Y-44165000D01*
X66235176Y-44216402D01*
X66516578Y-43935000D01*
X66786411Y-43935000D01*
X67053989Y-43881775D01*
X67306043Y-43777371D01*
X67532886Y-43625799D01*
X67725799Y-43432886D01*
X67877371Y-43206043D01*
X67981775Y-42953989D01*
X68035000Y-42686411D01*
X68035000Y-42413589D01*
X68245000Y-42413589D01*
X68245000Y-42686411D01*
X68298225Y-42953989D01*
X68402629Y-43206043D01*
X68554201Y-43432886D01*
X68747114Y-43625799D01*
X68973957Y-43777371D01*
X69226011Y-43881775D01*
X69493589Y-43935000D01*
X69786411Y-43935000D01*
X70053989Y-43881775D01*
X70306043Y-43777371D01*
X70532886Y-43625799D01*
X70725799Y-43432886D01*
X70877371Y-43206043D01*
X70981775Y-42953989D01*
X71035000Y-42686411D01*
X71035000Y-42413589D01*
X71245000Y-42413589D01*
X71245000Y-42686411D01*
X71298225Y-42953989D01*
X71402629Y-43206043D01*
X71554201Y-43432886D01*
X71747114Y-43625799D01*
X71973957Y-43777371D01*
X72226011Y-43881775D01*
X72493589Y-43935000D01*
X72786411Y-43935000D01*
X73053989Y-43881775D01*
X73306043Y-43777371D01*
X73532886Y-43625799D01*
X73725799Y-43432886D01*
X73877371Y-43206043D01*
X73981775Y-42953989D01*
X74035000Y-42686411D01*
X74035000Y-42413589D01*
X73981775Y-42146011D01*
X73877371Y-41893957D01*
X73725799Y-41667114D01*
X73532886Y-41474201D01*
X73306043Y-41322629D01*
X73053989Y-41218225D01*
X72786411Y-41165000D01*
X72493589Y-41165000D01*
X72226011Y-41218225D01*
X71973957Y-41322629D01*
X71747114Y-41474201D01*
X71554201Y-41667114D01*
X71402629Y-41893957D01*
X71298225Y-42146011D01*
X71245000Y-42413589D01*
X71035000Y-42413589D01*
X70981775Y-42146011D01*
X70877371Y-41893957D01*
X70725799Y-41667114D01*
X70532886Y-41474201D01*
X70306043Y-41322629D01*
X70053989Y-41218225D01*
X69786411Y-41165000D01*
X69493589Y-41165000D01*
X69226011Y-41218225D01*
X68973957Y-41322629D01*
X68747114Y-41474201D01*
X68554201Y-41667114D01*
X68402629Y-41893957D01*
X68298225Y-42146011D01*
X68245000Y-42413589D01*
X68035000Y-42413589D01*
X67981775Y-42146011D01*
X67877371Y-41893957D01*
X67725799Y-41667114D01*
X67532886Y-41474201D01*
X67306043Y-41322629D01*
X67053989Y-41218225D01*
X66786411Y-41165000D01*
X66493589Y-41165000D01*
X66226011Y-41218225D01*
X65973957Y-41322629D01*
X65747114Y-41474201D01*
X65554201Y-41667114D01*
X65402629Y-41893957D01*
X65298225Y-42146011D01*
X65245000Y-42413589D01*
X65245000Y-42686411D01*
X65247822Y-42700599D01*
X64972825Y-42975597D01*
X64981775Y-42953989D01*
X65035000Y-42686411D01*
X65035000Y-42413589D01*
X64981775Y-42146011D01*
X64877371Y-41893957D01*
X64725799Y-41667114D01*
X64532886Y-41474201D01*
X64306043Y-41322629D01*
X64053989Y-41218225D01*
X63786411Y-41165000D01*
X63493589Y-41165000D01*
X63226011Y-41218225D01*
X62973957Y-41322629D01*
X62747114Y-41474201D01*
X62554201Y-41667114D01*
X62402629Y-41893957D01*
X62298225Y-42146011D01*
X62245000Y-42413589D01*
X62245000Y-42686411D01*
X62298225Y-42953989D01*
X62402629Y-43206043D01*
X62554201Y-43432886D01*
X62747114Y-43625799D01*
X62973957Y-43777371D01*
X63226011Y-43881775D01*
X63493589Y-43935000D01*
X63786411Y-43935000D01*
X64053989Y-43881775D01*
X64306043Y-43777371D01*
X64439409Y-43688259D01*
X64427805Y-43726511D01*
X64415000Y-43856524D01*
X64415000Y-43856531D01*
X64410719Y-43900000D01*
X64415000Y-43943469D01*
X64415000Y-44395432D01*
X64306043Y-44322629D01*
X64053989Y-44218225D01*
X63786411Y-44165000D01*
X63493589Y-44165000D01*
X63226011Y-44218225D01*
X62973957Y-44322629D01*
X62747114Y-44474201D01*
X62554201Y-44667114D01*
X62402629Y-44893957D01*
X62298225Y-45146011D01*
X62245000Y-45413589D01*
X62245000Y-45686411D01*
X62298225Y-45953989D01*
X62307175Y-45975597D01*
X62032178Y-45700599D01*
X62035000Y-45686411D01*
X62035000Y-45413589D01*
X61981775Y-45146011D01*
X61877371Y-44893957D01*
X61725799Y-44667114D01*
X61532886Y-44474201D01*
X61306043Y-44322629D01*
X61053989Y-44218225D01*
X60786411Y-44165000D01*
X60516579Y-44165000D01*
X60235176Y-43883598D01*
X60493589Y-43935000D01*
X60786411Y-43935000D01*
X61053989Y-43881775D01*
X61306043Y-43777371D01*
X61532886Y-43625799D01*
X61725799Y-43432886D01*
X61877371Y-43206043D01*
X61981775Y-42953989D01*
X62035000Y-42686411D01*
X62035000Y-42413589D01*
X61981775Y-42146011D01*
X61877371Y-41893957D01*
X61725799Y-41667114D01*
X61532886Y-41474201D01*
X61306043Y-41322629D01*
X61053989Y-41218225D01*
X60786411Y-41165000D01*
X60493589Y-41165000D01*
X60226011Y-41218225D01*
X59973957Y-41322629D01*
X59747114Y-41474201D01*
X59554201Y-41667114D01*
X59402629Y-41893957D01*
X59298225Y-42146011D01*
X59245000Y-42413589D01*
X59245000Y-42686411D01*
X59298225Y-42953989D01*
X59384123Y-43161366D01*
X59273490Y-43127805D01*
X59143477Y-43115000D01*
X59143469Y-43115000D01*
X59100000Y-43110719D01*
X59056531Y-43115000D01*
X58915082Y-43115000D01*
X58981775Y-42953989D01*
X59035000Y-42686411D01*
X59035000Y-42413589D01*
X58981775Y-42146011D01*
X58877371Y-41893957D01*
X58725799Y-41667114D01*
X58532886Y-41474201D01*
X58306043Y-41322629D01*
X58053989Y-41218225D01*
X57786411Y-41165000D01*
X57493589Y-41165000D01*
X57226011Y-41218225D01*
X56973957Y-41322629D01*
X56747114Y-41474201D01*
X56554201Y-41667114D01*
X56402629Y-41893957D01*
X56298225Y-42146011D01*
X56245000Y-42413589D01*
X56245000Y-42686411D01*
X56298225Y-42953989D01*
X56364918Y-43115000D01*
X56031670Y-43115000D01*
X56038072Y-43050000D01*
X56038072Y-42050000D01*
X56021008Y-41876746D01*
X55970472Y-41710150D01*
X55888405Y-41556614D01*
X55777962Y-41422038D01*
X55643386Y-41311595D01*
X55489850Y-41229528D01*
X55323254Y-41178992D01*
X55150000Y-41161928D01*
X54130000Y-41161928D01*
X53956746Y-41178992D01*
X53790150Y-41229528D01*
X53636614Y-41311595D01*
X53502038Y-41422038D01*
X53391595Y-41556614D01*
X53309528Y-41710150D01*
X53258992Y-41876746D01*
X53241928Y-42050000D01*
X53241928Y-43050000D01*
X53257332Y-43206395D01*
X53155941Y-43260589D01*
X53155939Y-43260590D01*
X53155940Y-43260590D01*
X53054953Y-43343468D01*
X53054951Y-43343470D01*
X53021183Y-43371183D01*
X52993470Y-43404951D01*
X52354951Y-44043471D01*
X52321184Y-44071183D01*
X52293471Y-44104951D01*
X52293468Y-44104954D01*
X52210590Y-44205941D01*
X52128412Y-44359687D01*
X52077805Y-44526510D01*
X52060719Y-44700000D01*
X52065001Y-44743479D01*
X52065001Y-45433384D01*
X51981067Y-45398617D01*
X51761788Y-45355000D01*
X51538212Y-45355000D01*
X51318933Y-45398617D01*
X51160000Y-45464449D01*
X51160000Y-40162298D01*
X51371594Y-40303681D01*
X51797447Y-40480075D01*
X52249530Y-40570000D01*
X52710470Y-40570000D01*
X53162553Y-40480075D01*
X53588406Y-40303681D01*
X53971663Y-40047596D01*
X54297596Y-39721663D01*
X54553681Y-39338406D01*
X54730075Y-38912553D01*
X54740372Y-38860784D01*
X54897988Y-39241302D01*
X55131637Y-39590983D01*
X55429017Y-39888363D01*
X55778698Y-40122012D01*
X56167244Y-40282953D01*
X56579721Y-40365000D01*
X57000279Y-40365000D01*
X57412756Y-40282953D01*
X57801302Y-40122012D01*
X58150983Y-39888363D01*
X58448363Y-39590983D01*
X58682012Y-39241302D01*
X58842953Y-38852756D01*
X58925000Y-38440279D01*
X58925000Y-38019721D01*
X58842953Y-37607244D01*
X58682012Y-37218698D01*
X58448363Y-36869017D01*
X58150983Y-36571637D01*
X57801302Y-36337988D01*
X57412756Y-36177047D01*
X57000279Y-36095000D01*
X56579721Y-36095000D01*
X56167244Y-36177047D01*
X55778698Y-36337988D01*
X55429017Y-36571637D01*
X55131637Y-36869017D01*
X54897988Y-37218698D01*
X54740372Y-37599216D01*
X54730075Y-37547447D01*
X54553681Y-37121594D01*
X54297596Y-36738337D01*
X53971663Y-36412404D01*
X53588406Y-36156319D01*
X53162553Y-35979925D01*
X52710470Y-35890000D01*
X52249530Y-35890000D01*
X51797447Y-35979925D01*
X51371594Y-36156319D01*
X51160000Y-36297702D01*
X51160000Y-35715905D01*
X51162468Y-35710147D01*
X51190669Y-35577470D01*
X51191683Y-35567819D01*
X51213600Y-35344290D01*
X51258823Y-35194506D01*
X51332273Y-35056367D01*
X51431161Y-34935117D01*
X51551714Y-34835388D01*
X51689343Y-34760972D01*
X51838802Y-34714707D01*
X52062174Y-34691230D01*
X52084388Y-34686670D01*
X52137401Y-34681283D01*
X52192066Y-34664567D01*
X52195044Y-34663956D01*
X52197657Y-34662858D01*
X52207002Y-34660000D01*
X79618126Y-34660000D01*
X79604653Y-34704415D01*
G36*
X59247822Y-45399401D02*
G01*
X59245000Y-45413589D01*
X59245000Y-45686411D01*
X59298225Y-45953989D01*
X59402629Y-46206043D01*
X59554201Y-46432886D01*
X59747114Y-46625799D01*
X59973957Y-46777371D01*
X60226011Y-46881775D01*
X60493589Y-46935000D01*
X60763422Y-46935000D01*
X62711928Y-48883507D01*
X62711928Y-49211893D01*
X62700000Y-49210718D01*
X62681702Y-49212520D01*
X62664502Y-49155820D01*
X62605537Y-49045506D01*
X62526185Y-48948815D01*
X62429494Y-48869463D01*
X62319180Y-48810498D01*
X62199482Y-48774188D01*
X62075000Y-48761928D01*
X60925000Y-48761928D01*
X60801173Y-48774059D01*
X60775065Y-48781949D01*
X60749482Y-48774188D01*
X60674449Y-48766798D01*
X60593568Y-48700421D01*
X60292158Y-48539314D01*
X59977535Y-48443874D01*
X58309033Y-46775373D01*
X58532886Y-46625799D01*
X58725799Y-46432886D01*
X58877371Y-46206043D01*
X58981775Y-45953989D01*
X59035000Y-45686411D01*
X59035000Y-45413589D01*
X58981775Y-45146011D01*
X58972825Y-45124403D01*
X59247822Y-45399401D01*
G37*
X59247822Y-45399401D02*
X59245000Y-45413589D01*
X59245000Y-45686411D01*
X59298225Y-45953989D01*
X59402629Y-46206043D01*
X59554201Y-46432886D01*
X59747114Y-46625799D01*
X59973957Y-46777371D01*
X60226011Y-46881775D01*
X60493589Y-46935000D01*
X60763422Y-46935000D01*
X62711928Y-48883507D01*
X62711928Y-49211893D01*
X62700000Y-49210718D01*
X62681702Y-49212520D01*
X62664502Y-49155820D01*
X62605537Y-49045506D01*
X62526185Y-48948815D01*
X62429494Y-48869463D01*
X62319180Y-48810498D01*
X62199482Y-48774188D01*
X62075000Y-48761928D01*
X60925000Y-48761928D01*
X60801173Y-48774059D01*
X60775065Y-48781949D01*
X60749482Y-48774188D01*
X60674449Y-48766798D01*
X60593568Y-48700421D01*
X60292158Y-48539314D01*
X59977535Y-48443874D01*
X58309033Y-46775373D01*
X58532886Y-46625799D01*
X58725799Y-46432886D01*
X58877371Y-46206043D01*
X58981775Y-45953989D01*
X59035000Y-45686411D01*
X59035000Y-45413589D01*
X58981775Y-45146011D01*
X58972825Y-45124403D01*
X59247822Y-45399401D01*
G36*
X66968421Y-48270000D02*
G01*
X66724916Y-48270000D01*
X66479555Y-48318805D01*
X66288571Y-48397914D01*
X66239411Y-48305941D01*
X66185000Y-48239642D01*
X66185000Y-47486578D01*
X66968421Y-48270000D01*
G37*
X66968421Y-48270000D02*
X66724916Y-48270000D01*
X66479555Y-48318805D01*
X66288571Y-48397914D01*
X66239411Y-48305941D01*
X66185000Y-48239642D01*
X66185000Y-47486578D01*
X66968421Y-48270000D01*
G36*
X64415001Y-48100567D02*
G01*
X64369436Y-48045047D01*
X64336532Y-48004953D01*
X64336530Y-48004951D01*
X64308817Y-47971183D01*
X64275050Y-47943471D01*
X63204404Y-46872825D01*
X63226011Y-46881775D01*
X63493589Y-46935000D01*
X63786411Y-46935000D01*
X64053989Y-46881775D01*
X64306043Y-46777371D01*
X64415001Y-46704568D01*
X64415001Y-48100567D01*
G37*
X64415001Y-48100567D02*
X64369436Y-48045047D01*
X64336532Y-48004953D01*
X64336530Y-48004951D01*
X64308817Y-47971183D01*
X64275050Y-47943471D01*
X63204404Y-46872825D01*
X63226011Y-46881775D01*
X63493589Y-46935000D01*
X63786411Y-46935000D01*
X64053989Y-46881775D01*
X64306043Y-46777371D01*
X64415001Y-46704568D01*
X64415001Y-48100567D01*
G36*
X51318933Y-47581383D02*
G01*
X51525875Y-47622546D01*
X51160000Y-47988422D01*
X51160000Y-47515551D01*
X51318933Y-47581383D01*
G37*
X51318933Y-47581383D02*
X51525875Y-47622546D01*
X51160000Y-47988422D01*
X51160000Y-47515551D01*
X51318933Y-47581383D01*
G36*
X79674188Y-46995518D02*
G01*
X79661928Y-47120000D01*
X79661928Y-47135000D01*
X79584077Y-47135000D01*
X79655824Y-47027624D01*
X79688047Y-46949831D01*
X79674188Y-46995518D01*
G37*
X79674188Y-46995518D02*
X79661928Y-47120000D01*
X79661928Y-47135000D01*
X79584077Y-47135000D01*
X79655824Y-47027624D01*
X79688047Y-46949831D01*
X79674188Y-46995518D01*
G36*
X81940000Y-46485868D02*
G01*
X81900000Y-46481928D01*
X81885000Y-46481928D01*
X81885000Y-45759625D01*
X81940000Y-45754208D01*
X81940000Y-46485868D01*
G37*
X81940000Y-46485868D02*
X81900000Y-46481928D01*
X81885000Y-46481928D01*
X81885000Y-45759625D01*
X81940000Y-45754208D01*
X81940000Y-46485868D01*
G36*
X81940000Y-42045792D02*
G01*
X81885000Y-42040375D01*
X81885000Y-41501339D01*
X81940000Y-41464589D01*
X81940000Y-42045792D01*
G37*
X81940000Y-42045792D02*
X81885000Y-42040375D01*
X81885000Y-41501339D01*
X81940000Y-41464589D01*
X81940000Y-42045792D01*
M02*
