G04 #@! TF.GenerationSoftware,KiCad,Pcbnew,5.1.6+dfsg1-1*
G04 #@! TF.CreationDate,2021-01-08T01:16:49+01:00*
G04 #@! TF.ProjectId,carabiner,63617261-6269-46e6-9572-2e6b69636164,rev?*
G04 #@! TF.SameCoordinates,Original*
G04 #@! TF.FileFunction,Copper,L1,Top*
G04 #@! TF.FilePolarity,Positive*
%FSLAX46Y46*%
G04 Gerber Fmt 4.6, Leading zero omitted, Abs format (unit mm)*
G04 Created by KiCad (PCBNEW 5.1.6+dfsg1-1) date 2021-01-08 01:16:49*
%MOMM*%
%LPD*%
G01*
G04 APERTURE LIST*
G04 #@! TA.AperFunction,ComponentPad*
%ADD10O,1.500000X2.020000*%
G04 #@! TD*
G04 #@! TA.AperFunction,ComponentPad*
%ADD11C,1.500000*%
G04 #@! TD*
G04 #@! TA.AperFunction,ComponentPad*
%ADD12C,3.410000*%
G04 #@! TD*
G04 #@! TA.AperFunction,ComponentPad*
%ADD13O,2.000000X1.700000*%
G04 #@! TD*
G04 #@! TA.AperFunction,ComponentPad*
%ADD14O,1.700000X2.000000*%
G04 #@! TD*
G04 #@! TA.AperFunction,ComponentPad*
%ADD15O,1.950000X1.700000*%
G04 #@! TD*
G04 #@! TA.AperFunction,ComponentPad*
%ADD16O,2.020000X1.500000*%
G04 #@! TD*
G04 #@! TA.AperFunction,ComponentPad*
%ADD17C,5.600000*%
G04 #@! TD*
G04 #@! TA.AperFunction,ComponentPad*
%ADD18O,1.600000X1.600000*%
G04 #@! TD*
G04 #@! TA.AperFunction,ComponentPad*
%ADD19R,1.600000X1.600000*%
G04 #@! TD*
G04 #@! TA.AperFunction,Conductor*
%ADD20C,0.500000*%
G04 #@! TD*
G04 #@! TA.AperFunction,Conductor*
%ADD21C,0.800000*%
G04 #@! TD*
G04 #@! TA.AperFunction,Conductor*
%ADD22C,1.200000*%
G04 #@! TD*
G04 #@! TA.AperFunction,Conductor*
%ADD23C,0.300000*%
G04 #@! TD*
G04 #@! TA.AperFunction,Conductor*
%ADD24C,0.250000*%
G04 #@! TD*
G04 #@! TA.AperFunction,Conductor*
%ADD25C,0.400000*%
G04 #@! TD*
G04 #@! TA.AperFunction,NonConductor*
%ADD26C,0.254000*%
G04 #@! TD*
G04 APERTURE END LIST*
D10*
X72850000Y-51500000D03*
G04 #@! TA.AperFunction,ComponentPad*
G36*
G01*
X69100000Y-52260000D02*
X69100000Y-50740000D01*
G75*
G02*
X69350000Y-50490000I250000J0D01*
G01*
X70350000Y-50490000D01*
G75*
G02*
X70600000Y-50740000I0J-250000D01*
G01*
X70600000Y-52260000D01*
G75*
G02*
X70350000Y-52510000I-250000J0D01*
G01*
X69350000Y-52510000D01*
G75*
G02*
X69100000Y-52260000I0J250000D01*
G01*
G37*
G04 #@! TD.AperFunction*
D11*
X64950000Y-65100000D03*
G04 #@! TA.AperFunction,ComponentPad*
G36*
G01*
X64200000Y-62600000D02*
X64200000Y-61600000D01*
G75*
G02*
X64450000Y-61350000I250000J0D01*
G01*
X65450000Y-61350000D01*
G75*
G02*
X65700000Y-61600000I0J-250000D01*
G01*
X65700000Y-62600000D01*
G75*
G02*
X65450000Y-62850000I-250000J0D01*
G01*
X64450000Y-62850000D01*
G75*
G02*
X64200000Y-62600000I0J250000D01*
G01*
G37*
G04 #@! TD.AperFunction*
X75630000Y-45550000D03*
X72630000Y-45550000D03*
X69630000Y-45550000D03*
X66630000Y-45550000D03*
X63630000Y-45550000D03*
X60630000Y-45550000D03*
X57630000Y-45550000D03*
X54630000Y-45550000D03*
X75630000Y-42550000D03*
X72630000Y-42550000D03*
X69630000Y-42550000D03*
X66630000Y-42550000D03*
X63630000Y-42550000D03*
X60630000Y-42550000D03*
X57630000Y-42550000D03*
G04 #@! TA.AperFunction,ComponentPad*
G36*
G01*
X53880000Y-43050000D02*
X53880000Y-42050000D01*
G75*
G02*
X54130000Y-41800000I250000J0D01*
G01*
X55130000Y-41800000D01*
G75*
G02*
X55380000Y-42050000I0J-250000D01*
G01*
X55380000Y-43050000D01*
G75*
G02*
X55130000Y-43300000I-250000J0D01*
G01*
X54130000Y-43300000D01*
G75*
G02*
X53880000Y-43050000I0J250000D01*
G01*
G37*
G04 #@! TD.AperFunction*
D12*
X77780000Y-38230000D03*
X52480000Y-38230000D03*
D11*
X75650000Y-45550000D03*
X72650000Y-45550000D03*
X69650000Y-45550000D03*
X66650000Y-45550000D03*
X63650000Y-45550000D03*
X60650000Y-45550000D03*
X57650000Y-45550000D03*
X54650000Y-45550000D03*
X75650000Y-42550000D03*
X72650000Y-42550000D03*
X69650000Y-42550000D03*
X66650000Y-42550000D03*
X63650000Y-42550000D03*
X60650000Y-42550000D03*
X57650000Y-42550000D03*
G04 #@! TA.AperFunction,ComponentPad*
G36*
G01*
X53900000Y-43050000D02*
X53900000Y-42050000D01*
G75*
G02*
X54150000Y-41800000I250000J0D01*
G01*
X55150000Y-41800000D01*
G75*
G02*
X55400000Y-42050000I0J-250000D01*
G01*
X55400000Y-43050000D01*
G75*
G02*
X55150000Y-43300000I-250000J0D01*
G01*
X54150000Y-43300000D01*
G75*
G02*
X53900000Y-43050000I0J250000D01*
G01*
G37*
G04 #@! TD.AperFunction*
G04 #@! TA.AperFunction,ComponentPad*
G36*
G01*
X80509375Y-34600000D02*
X81690625Y-34600000D01*
G75*
G02*
X81975000Y-34884375I0J-284375D01*
G01*
X81975000Y-35940625D01*
G75*
G02*
X81690625Y-36225000I-284375J0D01*
G01*
X80509375Y-36225000D01*
G75*
G02*
X80225000Y-35940625I0J284375D01*
G01*
X80225000Y-34884375D01*
G75*
G02*
X80509375Y-34600000I284375J0D01*
G01*
G37*
G04 #@! TD.AperFunction*
G04 #@! TA.AperFunction,ComponentPad*
G36*
G01*
X80509375Y-37175000D02*
X81690625Y-37175000D01*
G75*
G02*
X81975000Y-37459375I0J-284375D01*
G01*
X81975000Y-38515625D01*
G75*
G02*
X81690625Y-38800000I-284375J0D01*
G01*
X80509375Y-38800000D01*
G75*
G02*
X80225000Y-38515625I0J284375D01*
G01*
X80225000Y-37459375D01*
G75*
G02*
X80509375Y-37175000I284375J0D01*
G01*
G37*
G04 #@! TD.AperFunction*
X75630000Y-45550000D03*
X72630000Y-45550000D03*
X69630000Y-45550000D03*
X66630000Y-45550000D03*
X63630000Y-45550000D03*
X60630000Y-45550000D03*
X57630000Y-45550000D03*
X54630000Y-45550000D03*
X75630000Y-42550000D03*
X72630000Y-42550000D03*
X69630000Y-42550000D03*
X66630000Y-42550000D03*
X63630000Y-42550000D03*
X60630000Y-42550000D03*
X57630000Y-42550000D03*
G04 #@! TA.AperFunction,ComponentPad*
G36*
G01*
X53880000Y-43050000D02*
X53880000Y-42050000D01*
G75*
G02*
X54130000Y-41800000I250000J0D01*
G01*
X55130000Y-41800000D01*
G75*
G02*
X55380000Y-42050000I0J-250000D01*
G01*
X55380000Y-43050000D01*
G75*
G02*
X55130000Y-43300000I-250000J0D01*
G01*
X54130000Y-43300000D01*
G75*
G02*
X53880000Y-43050000I0J250000D01*
G01*
G37*
G04 #@! TD.AperFunction*
G04 #@! TA.AperFunction,ComponentPad*
G36*
G01*
X64200000Y-61250000D02*
X65700000Y-61250000D01*
G75*
G02*
X65950000Y-61500000I0J-250000D01*
G01*
X65950000Y-62700000D01*
G75*
G02*
X65700000Y-62950000I-250000J0D01*
G01*
X64200000Y-62950000D01*
G75*
G02*
X63950000Y-62700000I0J250000D01*
G01*
X63950000Y-61500000D01*
G75*
G02*
X64200000Y-61250000I250000J0D01*
G01*
G37*
G04 #@! TD.AperFunction*
D13*
X64950000Y-64600000D03*
G04 #@! TA.AperFunction,ComponentPad*
G36*
G01*
X69000000Y-52250000D02*
X69000000Y-50750000D01*
G75*
G02*
X69250000Y-50500000I250000J0D01*
G01*
X70450000Y-50500000D01*
G75*
G02*
X70700000Y-50750000I0J-250000D01*
G01*
X70700000Y-52250000D01*
G75*
G02*
X70450000Y-52500000I-250000J0D01*
G01*
X69250000Y-52500000D01*
G75*
G02*
X69000000Y-52250000I0J250000D01*
G01*
G37*
G04 #@! TD.AperFunction*
D14*
X72350000Y-51500000D03*
D15*
X72400000Y-66000000D03*
X72400000Y-63500000D03*
X72400000Y-61000000D03*
G04 #@! TA.AperFunction,ComponentPad*
G36*
G01*
X71675000Y-57650000D02*
X73125000Y-57650000D01*
G75*
G02*
X73375000Y-57900000I0J-250000D01*
G01*
X73375000Y-59100000D01*
G75*
G02*
X73125000Y-59350000I-250000J0D01*
G01*
X71675000Y-59350000D01*
G75*
G02*
X71425000Y-59100000I0J250000D01*
G01*
X71425000Y-57900000D01*
G75*
G02*
X71675000Y-57650000I250000J0D01*
G01*
G37*
G04 #@! TD.AperFunction*
X79400000Y-66000000D03*
X79400000Y-63500000D03*
X79400000Y-61000000D03*
G04 #@! TA.AperFunction,ComponentPad*
G36*
G01*
X78675000Y-57650000D02*
X80125000Y-57650000D01*
G75*
G02*
X80375000Y-57900000I0J-250000D01*
G01*
X80375000Y-59100000D01*
G75*
G02*
X80125000Y-59350000I-250000J0D01*
G01*
X78675000Y-59350000D01*
G75*
G02*
X78425000Y-59100000I0J250000D01*
G01*
X78425000Y-57900000D01*
G75*
G02*
X78675000Y-57650000I250000J0D01*
G01*
G37*
G04 #@! TD.AperFunction*
D14*
X56250000Y-58800000D03*
G04 #@! TA.AperFunction,ComponentPad*
G36*
G01*
X52900000Y-59550000D02*
X52900000Y-58050000D01*
G75*
G02*
X53150000Y-57800000I250000J0D01*
G01*
X54350000Y-57800000D01*
G75*
G02*
X54600000Y-58050000I0J-250000D01*
G01*
X54600000Y-59550000D01*
G75*
G02*
X54350000Y-59800000I-250000J0D01*
G01*
X53150000Y-59800000D01*
G75*
G02*
X52900000Y-59550000I0J250000D01*
G01*
G37*
G04 #@! TD.AperFunction*
X56200000Y-51700000D03*
G04 #@! TA.AperFunction,ComponentPad*
G36*
G01*
X52850000Y-52450000D02*
X52850000Y-50950000D01*
G75*
G02*
X53100000Y-50700000I250000J0D01*
G01*
X54300000Y-50700000D01*
G75*
G02*
X54550000Y-50950000I0J-250000D01*
G01*
X54550000Y-52450000D01*
G75*
G02*
X54300000Y-52700000I-250000J0D01*
G01*
X53100000Y-52700000D01*
G75*
G02*
X52850000Y-52450000I0J250000D01*
G01*
G37*
G04 #@! TD.AperFunction*
D13*
X63150000Y-55350000D03*
G04 #@! TA.AperFunction,ComponentPad*
G36*
G01*
X62400000Y-52000000D02*
X63900000Y-52000000D01*
G75*
G02*
X64150000Y-52250000I0J-250000D01*
G01*
X64150000Y-53450000D01*
G75*
G02*
X63900000Y-53700000I-250000J0D01*
G01*
X62400000Y-53700000D01*
G75*
G02*
X62150000Y-53450000I0J250000D01*
G01*
X62150000Y-52250000D01*
G75*
G02*
X62400000Y-52000000I250000J0D01*
G01*
G37*
G04 #@! TD.AperFunction*
D16*
X64950000Y-65150000D03*
G04 #@! TA.AperFunction,ComponentPad*
G36*
G01*
X64190000Y-61400000D02*
X65710000Y-61400000D01*
G75*
G02*
X65960000Y-61650000I0J-250000D01*
G01*
X65960000Y-62650000D01*
G75*
G02*
X65710000Y-62900000I-250000J0D01*
G01*
X64190000Y-62900000D01*
G75*
G02*
X63940000Y-62650000I0J250000D01*
G01*
X63940000Y-61650000D01*
G75*
G02*
X64190000Y-61400000I250000J0D01*
G01*
G37*
G04 #@! TD.AperFunction*
D17*
X79700000Y-51900000D03*
X54050000Y-66050000D03*
D18*
X81100000Y-40300000D03*
D19*
X81100000Y-47920000D03*
D20*
X57650000Y-42550000D02*
X56200000Y-44000000D01*
X56200000Y-44000000D02*
X56200000Y-51700000D01*
X56200000Y-58750000D02*
X56250000Y-58800000D01*
X56200000Y-51700000D02*
X56200000Y-58750000D01*
X60650000Y-42550000D02*
X59100000Y-44100000D01*
X59100000Y-44100000D02*
X59100000Y-47200000D01*
X61000000Y-53200000D02*
X63150000Y-55350000D01*
X61000000Y-49100000D02*
X61000000Y-53200000D01*
X59100000Y-47200000D02*
X61000000Y-49100000D01*
X74100000Y-44000000D02*
X72650000Y-42550000D01*
X78467998Y-55800000D02*
X76000000Y-53332002D01*
X79750000Y-55800000D02*
X78467998Y-55800000D01*
X80975010Y-57025010D02*
X79750000Y-55800000D01*
X80975010Y-64424990D02*
X80975010Y-57025010D01*
X79400000Y-66000000D02*
X80975010Y-64424990D01*
X76000000Y-50995802D02*
X76000000Y-53332002D01*
X76935001Y-50060801D02*
X76000000Y-50995802D01*
X76365802Y-48450000D02*
X76935001Y-49019199D01*
X76935001Y-49019199D02*
X76935001Y-50060801D01*
X76350000Y-48450000D02*
X74100000Y-46200000D01*
X76365802Y-48450000D02*
X76350000Y-48450000D01*
X74100000Y-46200000D02*
X74100000Y-44000000D01*
D21*
X72400000Y-66000000D02*
X72275000Y-66000000D01*
X72400000Y-63500000D02*
X72400000Y-63175623D01*
D20*
X74750000Y-61150000D02*
X72400000Y-63500000D01*
X74900010Y-60999990D02*
X72400000Y-63500000D01*
X74900010Y-50110047D02*
X74900010Y-60999990D01*
X74750000Y-49960037D02*
X74900010Y-50110047D01*
X74750000Y-49747905D02*
X74750000Y-49960037D01*
X70850001Y-45847906D02*
X74750000Y-49747905D01*
X70850001Y-43750001D02*
X70850001Y-45847906D01*
X69650000Y-42550000D02*
X70850001Y-43750001D01*
X73650010Y-57249990D02*
X72400000Y-58500000D01*
X74200000Y-56700000D02*
X72400000Y-58500000D01*
X74200000Y-50400000D02*
X74200000Y-56700000D01*
X69078012Y-47998012D02*
X71798012Y-47998012D01*
X71798012Y-47998012D02*
X74200000Y-50400000D01*
X66630000Y-45550000D02*
X69078012Y-47998012D01*
D22*
X59750000Y-50100000D02*
X57630000Y-47980000D01*
X57630000Y-47980000D02*
X57630000Y-45550000D01*
X64950000Y-65100000D02*
X63350000Y-65100000D01*
X59750000Y-61500000D02*
X59750000Y-60250000D01*
X63350000Y-65100000D02*
X59750000Y-61500000D01*
X59750000Y-60250000D02*
X59750000Y-50100000D01*
D23*
X78900010Y-36100010D02*
X80987500Y-38187500D01*
X72600010Y-36100010D02*
X78900010Y-36100010D01*
X71400000Y-37300020D02*
X72600010Y-36100010D01*
X71400000Y-38900000D02*
X71400000Y-37300020D01*
X80987500Y-38187500D02*
X81100000Y-38187500D01*
X69199990Y-41100010D02*
X71400000Y-38900000D01*
X65079990Y-41100010D02*
X63630000Y-42550000D01*
X69199990Y-41100010D02*
X65079990Y-41100010D01*
D24*
X69850000Y-51500000D02*
X69850000Y-50992605D01*
D23*
X69850000Y-51000721D02*
X69850000Y-51500000D01*
X62479999Y-46829999D02*
X62479999Y-43720001D01*
X63350000Y-47700000D02*
X62479999Y-46829999D01*
X65742900Y-47700000D02*
X63350000Y-47700000D01*
X62479999Y-43720001D02*
X63650000Y-42550000D01*
X65751791Y-47691109D02*
X65742900Y-47700000D01*
X67215447Y-47691109D02*
X65751791Y-47691109D01*
X69850000Y-50325662D02*
X67215447Y-47691109D01*
X69850000Y-51500000D02*
X69850000Y-50325662D01*
D25*
X81012500Y-35600000D02*
X81200000Y-35412500D01*
D23*
X80712500Y-35600000D02*
X81100000Y-35212500D01*
X73300000Y-35600000D02*
X80712500Y-35600000D01*
X72392900Y-35600000D02*
X70899990Y-37092910D01*
X73300000Y-35600000D02*
X72392900Y-35600000D01*
X70899990Y-37092910D02*
X70899990Y-38692890D01*
X69092880Y-40500000D02*
X70899990Y-38692890D01*
X57430000Y-40500000D02*
X69092880Y-40500000D01*
X55380000Y-42550000D02*
X57430000Y-40500000D01*
X54630000Y-42550000D02*
X55380000Y-42550000D01*
D25*
X72300000Y-51900000D02*
X72300000Y-50900000D01*
X72200000Y-51500000D02*
X72200000Y-51350000D01*
D23*
X64317802Y-45550000D02*
X63630000Y-45550000D01*
X65958901Y-47191099D02*
X64317802Y-45550000D01*
X67422557Y-47191099D02*
X65958901Y-47191099D01*
X71258022Y-48598022D02*
X68829479Y-48598021D01*
X72850000Y-50190000D02*
X71258022Y-48598022D01*
X68829479Y-48598021D02*
X67422557Y-47191099D01*
X72850000Y-51500000D02*
X72850000Y-50190000D01*
D26*
G36*
X54897988Y-39241302D02*
G01*
X55131637Y-39590983D01*
X55429017Y-39888363D01*
X55778698Y-40122012D01*
X56167244Y-40282953D01*
X56475562Y-40344281D01*
X55555320Y-41264523D01*
X55489850Y-41229528D01*
X55323254Y-41178992D01*
X55150000Y-41161928D01*
X54130000Y-41161928D01*
X53956746Y-41178992D01*
X53790150Y-41229528D01*
X53636614Y-41311595D01*
X53502038Y-41422038D01*
X53391595Y-41556614D01*
X53309528Y-41710150D01*
X53258992Y-41876746D01*
X53241928Y-42050000D01*
X53241928Y-43050000D01*
X53258992Y-43223254D01*
X53309528Y-43389850D01*
X53391595Y-43543386D01*
X53502038Y-43677962D01*
X53636614Y-43788405D01*
X53790150Y-43870472D01*
X53956746Y-43921008D01*
X54130000Y-43938072D01*
X55150000Y-43938072D01*
X55318451Y-43921481D01*
X55315000Y-43956524D01*
X55315000Y-43956531D01*
X55310719Y-44000000D01*
X55315000Y-44043469D01*
X55315000Y-44328614D01*
X55306043Y-44322629D01*
X55053989Y-44218225D01*
X54786411Y-44165000D01*
X54493589Y-44165000D01*
X54226011Y-44218225D01*
X53973957Y-44322629D01*
X53747114Y-44474201D01*
X53554201Y-44667114D01*
X53402629Y-44893957D01*
X53298225Y-45146011D01*
X53245000Y-45413589D01*
X53245000Y-45686411D01*
X53298225Y-45953989D01*
X53402629Y-46206043D01*
X53554201Y-46432886D01*
X53747114Y-46625799D01*
X53973957Y-46777371D01*
X54226011Y-46881775D01*
X54493589Y-46935000D01*
X54786411Y-46935000D01*
X55053989Y-46881775D01*
X55306043Y-46777371D01*
X55315000Y-46771386D01*
X55315001Y-50355240D01*
X55144866Y-50494866D01*
X55092777Y-50558337D01*
X55038405Y-50456614D01*
X54927962Y-50322038D01*
X54793386Y-50211595D01*
X54639850Y-50129528D01*
X54473254Y-50078992D01*
X54300000Y-50061928D01*
X53100000Y-50061928D01*
X52926746Y-50078992D01*
X52760150Y-50129528D01*
X52606614Y-50211595D01*
X52472038Y-50322038D01*
X52361595Y-50456614D01*
X52279528Y-50610150D01*
X52228992Y-50776746D01*
X52211928Y-50950000D01*
X52211928Y-52450000D01*
X52228992Y-52623254D01*
X52279528Y-52789850D01*
X52361595Y-52943386D01*
X52472038Y-53077962D01*
X52606614Y-53188405D01*
X52760150Y-53270472D01*
X52926746Y-53321008D01*
X53100000Y-53338072D01*
X54300000Y-53338072D01*
X54473254Y-53321008D01*
X54639850Y-53270472D01*
X54793386Y-53188405D01*
X54927962Y-53077962D01*
X55038405Y-52943386D01*
X55092777Y-52841663D01*
X55144866Y-52905134D01*
X55315000Y-53044759D01*
X55315001Y-57496274D01*
X55194866Y-57594866D01*
X55142777Y-57658337D01*
X55088405Y-57556614D01*
X54977962Y-57422038D01*
X54843386Y-57311595D01*
X54689850Y-57229528D01*
X54523254Y-57178992D01*
X54350000Y-57161928D01*
X53150000Y-57161928D01*
X52976746Y-57178992D01*
X52810150Y-57229528D01*
X52656614Y-57311595D01*
X52522038Y-57422038D01*
X52411595Y-57556614D01*
X52329528Y-57710150D01*
X52278992Y-57876746D01*
X52261928Y-58050000D01*
X52261928Y-59550000D01*
X52278992Y-59723254D01*
X52329528Y-59889850D01*
X52411595Y-60043386D01*
X52522038Y-60177962D01*
X52656614Y-60288405D01*
X52810150Y-60370472D01*
X52976746Y-60421008D01*
X53150000Y-60438072D01*
X54350000Y-60438072D01*
X54523254Y-60421008D01*
X54689850Y-60370472D01*
X54843386Y-60288405D01*
X54977962Y-60177962D01*
X55088405Y-60043386D01*
X55142777Y-59941663D01*
X55194866Y-60005134D01*
X55420987Y-60190706D01*
X55678967Y-60328599D01*
X55958890Y-60413513D01*
X56250000Y-60442185D01*
X56541111Y-60413513D01*
X56821034Y-60328599D01*
X57079014Y-60190706D01*
X57305134Y-60005134D01*
X57490706Y-59779014D01*
X57628599Y-59521033D01*
X57713513Y-59241110D01*
X57735000Y-59022949D01*
X57735000Y-58577050D01*
X57713513Y-58358889D01*
X57628599Y-58078966D01*
X57490706Y-57820986D01*
X57305134Y-57594866D01*
X57085000Y-57414207D01*
X57085000Y-53044759D01*
X57255134Y-52905134D01*
X57440706Y-52679014D01*
X57578599Y-52421033D01*
X57663513Y-52141110D01*
X57685000Y-51922949D01*
X57685000Y-51477050D01*
X57663513Y-51258889D01*
X57578599Y-50978966D01*
X57440706Y-50720986D01*
X57255134Y-50494866D01*
X57085000Y-50355241D01*
X57085000Y-49181553D01*
X58515001Y-50611555D01*
X58515000Y-60189335D01*
X58515000Y-61439335D01*
X58509025Y-61500000D01*
X58532870Y-61742102D01*
X58556979Y-61821579D01*
X58603489Y-61974900D01*
X58718167Y-62189448D01*
X58872498Y-62377502D01*
X58919625Y-62416178D01*
X61500938Y-64997492D01*
X61412376Y-65034176D01*
X61226480Y-65158388D01*
X61068388Y-65316480D01*
X60944176Y-65502376D01*
X60858617Y-65708933D01*
X60815000Y-65928212D01*
X60815000Y-66151788D01*
X60858617Y-66371067D01*
X60944176Y-66577624D01*
X61068388Y-66763520D01*
X61226480Y-66921612D01*
X61412376Y-67045824D01*
X61618933Y-67131383D01*
X61838212Y-67175000D01*
X62061788Y-67175000D01*
X62281067Y-67131383D01*
X62487624Y-67045824D01*
X62673520Y-66921612D01*
X62831612Y-66763520D01*
X62955824Y-66577624D01*
X63041383Y-66371067D01*
X63055286Y-66301170D01*
X63107898Y-66317130D01*
X63350000Y-66340975D01*
X63410665Y-66335000D01*
X63968903Y-66335000D01*
X64157419Y-66435764D01*
X64418493Y-66514960D01*
X64621963Y-66535000D01*
X65278037Y-66535000D01*
X65481507Y-66514960D01*
X65742581Y-66435764D01*
X65983188Y-66307157D01*
X66194081Y-66134081D01*
X66367157Y-65923188D01*
X66495764Y-65682581D01*
X66574960Y-65421507D01*
X66601701Y-65150000D01*
X66574960Y-64878493D01*
X66567257Y-64853099D01*
X66592185Y-64600000D01*
X66563513Y-64308889D01*
X66478599Y-64028966D01*
X66340706Y-63770986D01*
X66155134Y-63544866D01*
X66091663Y-63492777D01*
X66193386Y-63438405D01*
X66327962Y-63327962D01*
X66438405Y-63193386D01*
X66520472Y-63039850D01*
X66571008Y-62873254D01*
X66573492Y-62848030D01*
X66581008Y-62823254D01*
X66598072Y-62650000D01*
X66598072Y-61650000D01*
X66588072Y-61548468D01*
X66588072Y-61500000D01*
X66571008Y-61326746D01*
X66520472Y-61160150D01*
X66438405Y-61006614D01*
X66327962Y-60872038D01*
X66193386Y-60761595D01*
X66039850Y-60679528D01*
X65873254Y-60628992D01*
X65700000Y-60611928D01*
X64200000Y-60611928D01*
X64026746Y-60628992D01*
X63860150Y-60679528D01*
X63706614Y-60761595D01*
X63572038Y-60872038D01*
X63461595Y-61006614D01*
X63379528Y-61160150D01*
X63328992Y-61326746D01*
X63311928Y-61500000D01*
X63311928Y-61548468D01*
X63301928Y-61650000D01*
X63301928Y-62650000D01*
X63318992Y-62823254D01*
X63326508Y-62848030D01*
X63328992Y-62873254D01*
X63379528Y-63039850D01*
X63461595Y-63193386D01*
X63572038Y-63327962D01*
X63706614Y-63438405D01*
X63808337Y-63492777D01*
X63744866Y-63544866D01*
X63653162Y-63656608D01*
X60985000Y-60988447D01*
X60985000Y-59024916D01*
X65640000Y-59024916D01*
X65640000Y-59275084D01*
X65688805Y-59520445D01*
X65784541Y-59751571D01*
X65923527Y-59959578D01*
X66100422Y-60136473D01*
X66308429Y-60275459D01*
X66539555Y-60371195D01*
X66784916Y-60420000D01*
X67035084Y-60420000D01*
X67280445Y-60371195D01*
X67511571Y-60275459D01*
X67719578Y-60136473D01*
X67896473Y-59959578D01*
X68035459Y-59751571D01*
X68131195Y-59520445D01*
X68180000Y-59275084D01*
X68180000Y-59024916D01*
X68131195Y-58779555D01*
X68035459Y-58548429D01*
X67896473Y-58340422D01*
X67719578Y-58163527D01*
X67511571Y-58024541D01*
X67280445Y-57928805D01*
X67035084Y-57880000D01*
X66784916Y-57880000D01*
X66539555Y-57928805D01*
X66308429Y-58024541D01*
X66100422Y-58163527D01*
X65923527Y-58340422D01*
X65784541Y-58548429D01*
X65688805Y-58779555D01*
X65640000Y-59024916D01*
X60985000Y-59024916D01*
X60985000Y-54436578D01*
X61552971Y-55004549D01*
X61536487Y-55058889D01*
X61507815Y-55350000D01*
X61536487Y-55641111D01*
X61621401Y-55921034D01*
X61759294Y-56179014D01*
X61944866Y-56405134D01*
X62170986Y-56590706D01*
X62428966Y-56728599D01*
X62708889Y-56813513D01*
X62927050Y-56835000D01*
X63372950Y-56835000D01*
X63591111Y-56813513D01*
X63871034Y-56728599D01*
X64129014Y-56590706D01*
X64355134Y-56405134D01*
X64540706Y-56179014D01*
X64678599Y-55921034D01*
X64763513Y-55641111D01*
X64792185Y-55350000D01*
X64763513Y-55058889D01*
X64678599Y-54778966D01*
X64540706Y-54520986D01*
X64355134Y-54294866D01*
X64291663Y-54242777D01*
X64393386Y-54188405D01*
X64527962Y-54077962D01*
X64638405Y-53943386D01*
X64720472Y-53789850D01*
X64771008Y-53623254D01*
X64788072Y-53450000D01*
X64788072Y-52250000D01*
X64771008Y-52076746D01*
X64720472Y-51910150D01*
X64638405Y-51756614D01*
X64527962Y-51622038D01*
X64393386Y-51511595D01*
X64239850Y-51429528D01*
X64073254Y-51378992D01*
X63900000Y-51361928D01*
X62400000Y-51361928D01*
X62226746Y-51378992D01*
X62060150Y-51429528D01*
X61906614Y-51511595D01*
X61885000Y-51529333D01*
X61885000Y-49143469D01*
X61889281Y-49100000D01*
X61885000Y-49056531D01*
X61885000Y-49056523D01*
X61872195Y-48926510D01*
X61821589Y-48759687D01*
X61739411Y-48605941D01*
X61628817Y-48471183D01*
X61595050Y-48443471D01*
X59985000Y-46833422D01*
X59985000Y-46781945D01*
X60226011Y-46881775D01*
X60493589Y-46935000D01*
X60786411Y-46935000D01*
X61053989Y-46881775D01*
X61306043Y-46777371D01*
X61532886Y-46625799D01*
X61694999Y-46463686D01*
X61694999Y-46791446D01*
X61691202Y-46829999D01*
X61694999Y-46868552D01*
X61694999Y-46868559D01*
X61706358Y-46983885D01*
X61751245Y-47131858D01*
X61824137Y-47268231D01*
X61922235Y-47387763D01*
X61952189Y-47412346D01*
X62767657Y-48227815D01*
X62792236Y-48257764D01*
X62822184Y-48282342D01*
X62822187Y-48282345D01*
X62851559Y-48306450D01*
X62911767Y-48355862D01*
X63048140Y-48428754D01*
X63161672Y-48463194D01*
X63196112Y-48473641D01*
X63210490Y-48475057D01*
X63311439Y-48485000D01*
X63311446Y-48485000D01*
X63349999Y-48488797D01*
X63388552Y-48485000D01*
X65704347Y-48485000D01*
X65742900Y-48488797D01*
X65781453Y-48485000D01*
X65781461Y-48485000D01*
X65871730Y-48476109D01*
X66156286Y-48476109D01*
X66040422Y-48553527D01*
X65863527Y-48730422D01*
X65724541Y-48938429D01*
X65628805Y-49169555D01*
X65580000Y-49414916D01*
X65580000Y-49665084D01*
X65628805Y-49910445D01*
X65724541Y-50141571D01*
X65863527Y-50349578D01*
X66040422Y-50526473D01*
X66248429Y-50665459D01*
X66479555Y-50761195D01*
X66724916Y-50810000D01*
X66975084Y-50810000D01*
X67220445Y-50761195D01*
X67451571Y-50665459D01*
X67659578Y-50526473D01*
X67836473Y-50349578D01*
X67975459Y-50141571D01*
X68071195Y-49910445D01*
X68113242Y-49699061D01*
X68583355Y-50169174D01*
X68511595Y-50256614D01*
X68429528Y-50410150D01*
X68378992Y-50576746D01*
X68361928Y-50750000D01*
X68361928Y-52250000D01*
X68378992Y-52423254D01*
X68429528Y-52589850D01*
X68511595Y-52743386D01*
X68622038Y-52877962D01*
X68756614Y-52988405D01*
X68910150Y-53070472D01*
X69076746Y-53121008D01*
X69176009Y-53130785D01*
X69176746Y-53131008D01*
X69350000Y-53148072D01*
X70350000Y-53148072D01*
X70523254Y-53131008D01*
X70523991Y-53130785D01*
X70623254Y-53121008D01*
X70789850Y-53070472D01*
X70943386Y-52988405D01*
X71077962Y-52877962D01*
X71188405Y-52743386D01*
X71242777Y-52641663D01*
X71294866Y-52705134D01*
X71520987Y-52890706D01*
X71778967Y-53028599D01*
X72058890Y-53113513D01*
X72350000Y-53142185D01*
X72565355Y-53120974D01*
X72578494Y-53124960D01*
X72850000Y-53151701D01*
X73121507Y-53124960D01*
X73315000Y-53066264D01*
X73315001Y-56333420D01*
X73054965Y-56593457D01*
X73054963Y-56593458D01*
X72636493Y-57011928D01*
X71675000Y-57011928D01*
X71501746Y-57028992D01*
X71335150Y-57079528D01*
X71181614Y-57161595D01*
X71047038Y-57272038D01*
X70936595Y-57406614D01*
X70854528Y-57560150D01*
X70803992Y-57726746D01*
X70786928Y-57900000D01*
X70786928Y-59100000D01*
X70803992Y-59273254D01*
X70854528Y-59439850D01*
X70936595Y-59593386D01*
X71047038Y-59727962D01*
X71181614Y-59838405D01*
X71283337Y-59892777D01*
X71219866Y-59944866D01*
X71034294Y-60170986D01*
X70896401Y-60428966D01*
X70811487Y-60708889D01*
X70782815Y-61000000D01*
X70811487Y-61291111D01*
X70896401Y-61571034D01*
X71034294Y-61829014D01*
X71219866Y-62055134D01*
X71445986Y-62240706D01*
X71463374Y-62250000D01*
X71445986Y-62259294D01*
X71219866Y-62444866D01*
X71034294Y-62670986D01*
X70896401Y-62928966D01*
X70811487Y-63208889D01*
X70782815Y-63500000D01*
X70811487Y-63791111D01*
X70896401Y-64071034D01*
X71034294Y-64329014D01*
X71219866Y-64555134D01*
X71445986Y-64740706D01*
X71463374Y-64750000D01*
X71445986Y-64759294D01*
X71219866Y-64944866D01*
X71034294Y-65170986D01*
X70896401Y-65428966D01*
X70811487Y-65708889D01*
X70782815Y-66000000D01*
X70811487Y-66291111D01*
X70896401Y-66571034D01*
X71034294Y-66829014D01*
X71219866Y-67055134D01*
X71445986Y-67240706D01*
X71703966Y-67378599D01*
X71983889Y-67463513D01*
X72202050Y-67485000D01*
X72597950Y-67485000D01*
X72816111Y-67463513D01*
X73096034Y-67378599D01*
X73354014Y-67240706D01*
X73580134Y-67055134D01*
X73765706Y-66829014D01*
X73903599Y-66571034D01*
X73988513Y-66291111D01*
X74017185Y-66000000D01*
X73988513Y-65708889D01*
X73903599Y-65428966D01*
X73765706Y-65170986D01*
X73580134Y-64944866D01*
X73354014Y-64759294D01*
X73336626Y-64750000D01*
X73354014Y-64740706D01*
X73580134Y-64555134D01*
X73765706Y-64329014D01*
X73903599Y-64071034D01*
X73988513Y-63791111D01*
X74017185Y-63500000D01*
X73988513Y-63208889D01*
X73977848Y-63173731D01*
X74178850Y-62972728D01*
X75406532Y-61745047D01*
X75495059Y-61656520D01*
X75528827Y-61628807D01*
X75576241Y-61571034D01*
X75639420Y-61494050D01*
X75641417Y-61490314D01*
X75721599Y-61340303D01*
X75772205Y-61173480D01*
X75785010Y-61043467D01*
X75785010Y-61043457D01*
X75789291Y-60999991D01*
X75785010Y-60956524D01*
X75785010Y-54368590D01*
X77811468Y-56395049D01*
X77839181Y-56428817D01*
X77872949Y-56456530D01*
X77872951Y-56456532D01*
X77938809Y-56510580D01*
X77973939Y-56539411D01*
X78127685Y-56621589D01*
X78294508Y-56672195D01*
X78424521Y-56685000D01*
X78424531Y-56685000D01*
X78467997Y-56689281D01*
X78511463Y-56685000D01*
X79383422Y-56685000D01*
X79710350Y-57011928D01*
X78675000Y-57011928D01*
X78501746Y-57028992D01*
X78335150Y-57079528D01*
X78181614Y-57161595D01*
X78047038Y-57272038D01*
X77936595Y-57406614D01*
X77854528Y-57560150D01*
X77803992Y-57726746D01*
X77786928Y-57900000D01*
X77786928Y-59100000D01*
X77803992Y-59273254D01*
X77854528Y-59439850D01*
X77936595Y-59593386D01*
X78047038Y-59727962D01*
X78181614Y-59838405D01*
X78283337Y-59892777D01*
X78219866Y-59944866D01*
X78034294Y-60170986D01*
X77896401Y-60428966D01*
X77811487Y-60708889D01*
X77782815Y-61000000D01*
X77811487Y-61291111D01*
X77896401Y-61571034D01*
X78034294Y-61829014D01*
X78219866Y-62055134D01*
X78445986Y-62240706D01*
X78463374Y-62250000D01*
X78445986Y-62259294D01*
X78219866Y-62444866D01*
X78034294Y-62670986D01*
X77896401Y-62928966D01*
X77811487Y-63208889D01*
X77782815Y-63500000D01*
X77811487Y-63791111D01*
X77896401Y-64071034D01*
X78034294Y-64329014D01*
X78219866Y-64555134D01*
X78445986Y-64740706D01*
X78463374Y-64750000D01*
X78445986Y-64759294D01*
X78219866Y-64944866D01*
X78034294Y-65170986D01*
X77896401Y-65428966D01*
X77811487Y-65708889D01*
X77782815Y-66000000D01*
X77811487Y-66291111D01*
X77896401Y-66571034D01*
X78034294Y-66829014D01*
X78219866Y-67055134D01*
X78445986Y-67240706D01*
X78703966Y-67378599D01*
X78983889Y-67463513D01*
X79202050Y-67485000D01*
X79597950Y-67485000D01*
X79816111Y-67463513D01*
X80096034Y-67378599D01*
X80354014Y-67240706D01*
X80580134Y-67055134D01*
X80765706Y-66829014D01*
X80903599Y-66571034D01*
X80988513Y-66291111D01*
X81017185Y-66000000D01*
X80988513Y-65708889D01*
X80977848Y-65673731D01*
X81570060Y-65081519D01*
X81603827Y-65053807D01*
X81714421Y-64919049D01*
X81736042Y-64878599D01*
X81796599Y-64765304D01*
X81847205Y-64598480D01*
X81852964Y-64540007D01*
X81860010Y-64468467D01*
X81860010Y-64468459D01*
X81864291Y-64424990D01*
X81860010Y-64381521D01*
X81860010Y-57068479D01*
X81864291Y-57025010D01*
X81860010Y-56981541D01*
X81860010Y-56981533D01*
X81847205Y-56851520D01*
X81796599Y-56684697D01*
X81714421Y-56530951D01*
X81697703Y-56510580D01*
X81631542Y-56429963D01*
X81631540Y-56429961D01*
X81603827Y-56396193D01*
X81570059Y-56368480D01*
X80453911Y-55252333D01*
X80701952Y-55202994D01*
X81327082Y-54944057D01*
X81889685Y-54568138D01*
X81940001Y-54517822D01*
X81940001Y-67784093D01*
X81937532Y-67789853D01*
X81909331Y-67922530D01*
X81908317Y-67932181D01*
X81886400Y-68155710D01*
X81841177Y-68305494D01*
X81767727Y-68443633D01*
X81668839Y-68564883D01*
X81548286Y-68664612D01*
X81410656Y-68739029D01*
X81261201Y-68785293D01*
X81037826Y-68808770D01*
X81015612Y-68813330D01*
X80962599Y-68818717D01*
X80907934Y-68835433D01*
X80904956Y-68836044D01*
X80902343Y-68837142D01*
X80892998Y-68840000D01*
X67976373Y-68840000D01*
X68035459Y-68751571D01*
X68131195Y-68520445D01*
X68180000Y-68275084D01*
X68180000Y-68024916D01*
X68131195Y-67779555D01*
X68035459Y-67548429D01*
X67896473Y-67340422D01*
X67719578Y-67163527D01*
X67693741Y-67146263D01*
X67838212Y-67175000D01*
X68061788Y-67175000D01*
X68281067Y-67131383D01*
X68487624Y-67045824D01*
X68673520Y-66921612D01*
X68831612Y-66763520D01*
X68955824Y-66577624D01*
X69041383Y-66371067D01*
X69085000Y-66151788D01*
X69085000Y-65928212D01*
X69041383Y-65708933D01*
X68955824Y-65502376D01*
X68831612Y-65316480D01*
X68673520Y-65158388D01*
X68487624Y-65034176D01*
X68281067Y-64948617D01*
X68061788Y-64905000D01*
X67838212Y-64905000D01*
X67618933Y-64948617D01*
X67412376Y-65034176D01*
X67226480Y-65158388D01*
X67068388Y-65316480D01*
X66944176Y-65502376D01*
X66858617Y-65708933D01*
X66815000Y-65928212D01*
X66815000Y-66151788D01*
X66858617Y-66371067D01*
X66944176Y-66577624D01*
X67068388Y-66763520D01*
X67222059Y-66917191D01*
X67035084Y-66880000D01*
X66784916Y-66880000D01*
X66539555Y-66928805D01*
X66308429Y-67024541D01*
X66100422Y-67163527D01*
X65923527Y-67340422D01*
X65784541Y-67548429D01*
X65688805Y-67779555D01*
X65640000Y-68024916D01*
X65640000Y-68275084D01*
X65688805Y-68520445D01*
X65784541Y-68751571D01*
X65843627Y-68840000D01*
X56057305Y-68840000D01*
X56239685Y-68718138D01*
X56718138Y-68239685D01*
X57094057Y-67677082D01*
X57352994Y-67051952D01*
X57485000Y-66388318D01*
X57485000Y-65711682D01*
X57352994Y-65048048D01*
X57094057Y-64422918D01*
X56718138Y-63860315D01*
X56239685Y-63381862D01*
X55677082Y-63005943D01*
X55051952Y-62747006D01*
X54388318Y-62615000D01*
X53711682Y-62615000D01*
X53048048Y-62747006D01*
X52422918Y-63005943D01*
X51860315Y-63381862D01*
X51381862Y-63860315D01*
X51160000Y-64192355D01*
X51160000Y-47515551D01*
X51318933Y-47581383D01*
X51538212Y-47625000D01*
X51761788Y-47625000D01*
X51981067Y-47581383D01*
X52187624Y-47495824D01*
X52373520Y-47371612D01*
X52531612Y-47213520D01*
X52655824Y-47027624D01*
X52741383Y-46821067D01*
X52785000Y-46601788D01*
X52785000Y-46378212D01*
X52741383Y-46158933D01*
X52655824Y-45952376D01*
X52531612Y-45766480D01*
X52373520Y-45608388D01*
X52187624Y-45484176D01*
X51981067Y-45398617D01*
X51761788Y-45355000D01*
X51538212Y-45355000D01*
X51318933Y-45398617D01*
X51160000Y-45464449D01*
X51160000Y-40162298D01*
X51371594Y-40303681D01*
X51797447Y-40480075D01*
X52249530Y-40570000D01*
X52710470Y-40570000D01*
X53162553Y-40480075D01*
X53588406Y-40303681D01*
X53971663Y-40047596D01*
X54297596Y-39721663D01*
X54553681Y-39338406D01*
X54730075Y-38912553D01*
X54740372Y-38860784D01*
X54897988Y-39241302D01*
G37*
X54897988Y-39241302D02*
X55131637Y-39590983D01*
X55429017Y-39888363D01*
X55778698Y-40122012D01*
X56167244Y-40282953D01*
X56475562Y-40344281D01*
X55555320Y-41264523D01*
X55489850Y-41229528D01*
X55323254Y-41178992D01*
X55150000Y-41161928D01*
X54130000Y-41161928D01*
X53956746Y-41178992D01*
X53790150Y-41229528D01*
X53636614Y-41311595D01*
X53502038Y-41422038D01*
X53391595Y-41556614D01*
X53309528Y-41710150D01*
X53258992Y-41876746D01*
X53241928Y-42050000D01*
X53241928Y-43050000D01*
X53258992Y-43223254D01*
X53309528Y-43389850D01*
X53391595Y-43543386D01*
X53502038Y-43677962D01*
X53636614Y-43788405D01*
X53790150Y-43870472D01*
X53956746Y-43921008D01*
X54130000Y-43938072D01*
X55150000Y-43938072D01*
X55318451Y-43921481D01*
X55315000Y-43956524D01*
X55315000Y-43956531D01*
X55310719Y-44000000D01*
X55315000Y-44043469D01*
X55315000Y-44328614D01*
X55306043Y-44322629D01*
X55053989Y-44218225D01*
X54786411Y-44165000D01*
X54493589Y-44165000D01*
X54226011Y-44218225D01*
X53973957Y-44322629D01*
X53747114Y-44474201D01*
X53554201Y-44667114D01*
X53402629Y-44893957D01*
X53298225Y-45146011D01*
X53245000Y-45413589D01*
X53245000Y-45686411D01*
X53298225Y-45953989D01*
X53402629Y-46206043D01*
X53554201Y-46432886D01*
X53747114Y-46625799D01*
X53973957Y-46777371D01*
X54226011Y-46881775D01*
X54493589Y-46935000D01*
X54786411Y-46935000D01*
X55053989Y-46881775D01*
X55306043Y-46777371D01*
X55315000Y-46771386D01*
X55315001Y-50355240D01*
X55144866Y-50494866D01*
X55092777Y-50558337D01*
X55038405Y-50456614D01*
X54927962Y-50322038D01*
X54793386Y-50211595D01*
X54639850Y-50129528D01*
X54473254Y-50078992D01*
X54300000Y-50061928D01*
X53100000Y-50061928D01*
X52926746Y-50078992D01*
X52760150Y-50129528D01*
X52606614Y-50211595D01*
X52472038Y-50322038D01*
X52361595Y-50456614D01*
X52279528Y-50610150D01*
X52228992Y-50776746D01*
X52211928Y-50950000D01*
X52211928Y-52450000D01*
X52228992Y-52623254D01*
X52279528Y-52789850D01*
X52361595Y-52943386D01*
X52472038Y-53077962D01*
X52606614Y-53188405D01*
X52760150Y-53270472D01*
X52926746Y-53321008D01*
X53100000Y-53338072D01*
X54300000Y-53338072D01*
X54473254Y-53321008D01*
X54639850Y-53270472D01*
X54793386Y-53188405D01*
X54927962Y-53077962D01*
X55038405Y-52943386D01*
X55092777Y-52841663D01*
X55144866Y-52905134D01*
X55315000Y-53044759D01*
X55315001Y-57496274D01*
X55194866Y-57594866D01*
X55142777Y-57658337D01*
X55088405Y-57556614D01*
X54977962Y-57422038D01*
X54843386Y-57311595D01*
X54689850Y-57229528D01*
X54523254Y-57178992D01*
X54350000Y-57161928D01*
X53150000Y-57161928D01*
X52976746Y-57178992D01*
X52810150Y-57229528D01*
X52656614Y-57311595D01*
X52522038Y-57422038D01*
X52411595Y-57556614D01*
X52329528Y-57710150D01*
X52278992Y-57876746D01*
X52261928Y-58050000D01*
X52261928Y-59550000D01*
X52278992Y-59723254D01*
X52329528Y-59889850D01*
X52411595Y-60043386D01*
X52522038Y-60177962D01*
X52656614Y-60288405D01*
X52810150Y-60370472D01*
X52976746Y-60421008D01*
X53150000Y-60438072D01*
X54350000Y-60438072D01*
X54523254Y-60421008D01*
X54689850Y-60370472D01*
X54843386Y-60288405D01*
X54977962Y-60177962D01*
X55088405Y-60043386D01*
X55142777Y-59941663D01*
X55194866Y-60005134D01*
X55420987Y-60190706D01*
X55678967Y-60328599D01*
X55958890Y-60413513D01*
X56250000Y-60442185D01*
X56541111Y-60413513D01*
X56821034Y-60328599D01*
X57079014Y-60190706D01*
X57305134Y-60005134D01*
X57490706Y-59779014D01*
X57628599Y-59521033D01*
X57713513Y-59241110D01*
X57735000Y-59022949D01*
X57735000Y-58577050D01*
X57713513Y-58358889D01*
X57628599Y-58078966D01*
X57490706Y-57820986D01*
X57305134Y-57594866D01*
X57085000Y-57414207D01*
X57085000Y-53044759D01*
X57255134Y-52905134D01*
X57440706Y-52679014D01*
X57578599Y-52421033D01*
X57663513Y-52141110D01*
X57685000Y-51922949D01*
X57685000Y-51477050D01*
X57663513Y-51258889D01*
X57578599Y-50978966D01*
X57440706Y-50720986D01*
X57255134Y-50494866D01*
X57085000Y-50355241D01*
X57085000Y-49181553D01*
X58515001Y-50611555D01*
X58515000Y-60189335D01*
X58515000Y-61439335D01*
X58509025Y-61500000D01*
X58532870Y-61742102D01*
X58556979Y-61821579D01*
X58603489Y-61974900D01*
X58718167Y-62189448D01*
X58872498Y-62377502D01*
X58919625Y-62416178D01*
X61500938Y-64997492D01*
X61412376Y-65034176D01*
X61226480Y-65158388D01*
X61068388Y-65316480D01*
X60944176Y-65502376D01*
X60858617Y-65708933D01*
X60815000Y-65928212D01*
X60815000Y-66151788D01*
X60858617Y-66371067D01*
X60944176Y-66577624D01*
X61068388Y-66763520D01*
X61226480Y-66921612D01*
X61412376Y-67045824D01*
X61618933Y-67131383D01*
X61838212Y-67175000D01*
X62061788Y-67175000D01*
X62281067Y-67131383D01*
X62487624Y-67045824D01*
X62673520Y-66921612D01*
X62831612Y-66763520D01*
X62955824Y-66577624D01*
X63041383Y-66371067D01*
X63055286Y-66301170D01*
X63107898Y-66317130D01*
X63350000Y-66340975D01*
X63410665Y-66335000D01*
X63968903Y-66335000D01*
X64157419Y-66435764D01*
X64418493Y-66514960D01*
X64621963Y-66535000D01*
X65278037Y-66535000D01*
X65481507Y-66514960D01*
X65742581Y-66435764D01*
X65983188Y-66307157D01*
X66194081Y-66134081D01*
X66367157Y-65923188D01*
X66495764Y-65682581D01*
X66574960Y-65421507D01*
X66601701Y-65150000D01*
X66574960Y-64878493D01*
X66567257Y-64853099D01*
X66592185Y-64600000D01*
X66563513Y-64308889D01*
X66478599Y-64028966D01*
X66340706Y-63770986D01*
X66155134Y-63544866D01*
X66091663Y-63492777D01*
X66193386Y-63438405D01*
X66327962Y-63327962D01*
X66438405Y-63193386D01*
X66520472Y-63039850D01*
X66571008Y-62873254D01*
X66573492Y-62848030D01*
X66581008Y-62823254D01*
X66598072Y-62650000D01*
X66598072Y-61650000D01*
X66588072Y-61548468D01*
X66588072Y-61500000D01*
X66571008Y-61326746D01*
X66520472Y-61160150D01*
X66438405Y-61006614D01*
X66327962Y-60872038D01*
X66193386Y-60761595D01*
X66039850Y-60679528D01*
X65873254Y-60628992D01*
X65700000Y-60611928D01*
X64200000Y-60611928D01*
X64026746Y-60628992D01*
X63860150Y-60679528D01*
X63706614Y-60761595D01*
X63572038Y-60872038D01*
X63461595Y-61006614D01*
X63379528Y-61160150D01*
X63328992Y-61326746D01*
X63311928Y-61500000D01*
X63311928Y-61548468D01*
X63301928Y-61650000D01*
X63301928Y-62650000D01*
X63318992Y-62823254D01*
X63326508Y-62848030D01*
X63328992Y-62873254D01*
X63379528Y-63039850D01*
X63461595Y-63193386D01*
X63572038Y-63327962D01*
X63706614Y-63438405D01*
X63808337Y-63492777D01*
X63744866Y-63544866D01*
X63653162Y-63656608D01*
X60985000Y-60988447D01*
X60985000Y-59024916D01*
X65640000Y-59024916D01*
X65640000Y-59275084D01*
X65688805Y-59520445D01*
X65784541Y-59751571D01*
X65923527Y-59959578D01*
X66100422Y-60136473D01*
X66308429Y-60275459D01*
X66539555Y-60371195D01*
X66784916Y-60420000D01*
X67035084Y-60420000D01*
X67280445Y-60371195D01*
X67511571Y-60275459D01*
X67719578Y-60136473D01*
X67896473Y-59959578D01*
X68035459Y-59751571D01*
X68131195Y-59520445D01*
X68180000Y-59275084D01*
X68180000Y-59024916D01*
X68131195Y-58779555D01*
X68035459Y-58548429D01*
X67896473Y-58340422D01*
X67719578Y-58163527D01*
X67511571Y-58024541D01*
X67280445Y-57928805D01*
X67035084Y-57880000D01*
X66784916Y-57880000D01*
X66539555Y-57928805D01*
X66308429Y-58024541D01*
X66100422Y-58163527D01*
X65923527Y-58340422D01*
X65784541Y-58548429D01*
X65688805Y-58779555D01*
X65640000Y-59024916D01*
X60985000Y-59024916D01*
X60985000Y-54436578D01*
X61552971Y-55004549D01*
X61536487Y-55058889D01*
X61507815Y-55350000D01*
X61536487Y-55641111D01*
X61621401Y-55921034D01*
X61759294Y-56179014D01*
X61944866Y-56405134D01*
X62170986Y-56590706D01*
X62428966Y-56728599D01*
X62708889Y-56813513D01*
X62927050Y-56835000D01*
X63372950Y-56835000D01*
X63591111Y-56813513D01*
X63871034Y-56728599D01*
X64129014Y-56590706D01*
X64355134Y-56405134D01*
X64540706Y-56179014D01*
X64678599Y-55921034D01*
X64763513Y-55641111D01*
X64792185Y-55350000D01*
X64763513Y-55058889D01*
X64678599Y-54778966D01*
X64540706Y-54520986D01*
X64355134Y-54294866D01*
X64291663Y-54242777D01*
X64393386Y-54188405D01*
X64527962Y-54077962D01*
X64638405Y-53943386D01*
X64720472Y-53789850D01*
X64771008Y-53623254D01*
X64788072Y-53450000D01*
X64788072Y-52250000D01*
X64771008Y-52076746D01*
X64720472Y-51910150D01*
X64638405Y-51756614D01*
X64527962Y-51622038D01*
X64393386Y-51511595D01*
X64239850Y-51429528D01*
X64073254Y-51378992D01*
X63900000Y-51361928D01*
X62400000Y-51361928D01*
X62226746Y-51378992D01*
X62060150Y-51429528D01*
X61906614Y-51511595D01*
X61885000Y-51529333D01*
X61885000Y-49143469D01*
X61889281Y-49100000D01*
X61885000Y-49056531D01*
X61885000Y-49056523D01*
X61872195Y-48926510D01*
X61821589Y-48759687D01*
X61739411Y-48605941D01*
X61628817Y-48471183D01*
X61595050Y-48443471D01*
X59985000Y-46833422D01*
X59985000Y-46781945D01*
X60226011Y-46881775D01*
X60493589Y-46935000D01*
X60786411Y-46935000D01*
X61053989Y-46881775D01*
X61306043Y-46777371D01*
X61532886Y-46625799D01*
X61694999Y-46463686D01*
X61694999Y-46791446D01*
X61691202Y-46829999D01*
X61694999Y-46868552D01*
X61694999Y-46868559D01*
X61706358Y-46983885D01*
X61751245Y-47131858D01*
X61824137Y-47268231D01*
X61922235Y-47387763D01*
X61952189Y-47412346D01*
X62767657Y-48227815D01*
X62792236Y-48257764D01*
X62822184Y-48282342D01*
X62822187Y-48282345D01*
X62851559Y-48306450D01*
X62911767Y-48355862D01*
X63048140Y-48428754D01*
X63161672Y-48463194D01*
X63196112Y-48473641D01*
X63210490Y-48475057D01*
X63311439Y-48485000D01*
X63311446Y-48485000D01*
X63349999Y-48488797D01*
X63388552Y-48485000D01*
X65704347Y-48485000D01*
X65742900Y-48488797D01*
X65781453Y-48485000D01*
X65781461Y-48485000D01*
X65871730Y-48476109D01*
X66156286Y-48476109D01*
X66040422Y-48553527D01*
X65863527Y-48730422D01*
X65724541Y-48938429D01*
X65628805Y-49169555D01*
X65580000Y-49414916D01*
X65580000Y-49665084D01*
X65628805Y-49910445D01*
X65724541Y-50141571D01*
X65863527Y-50349578D01*
X66040422Y-50526473D01*
X66248429Y-50665459D01*
X66479555Y-50761195D01*
X66724916Y-50810000D01*
X66975084Y-50810000D01*
X67220445Y-50761195D01*
X67451571Y-50665459D01*
X67659578Y-50526473D01*
X67836473Y-50349578D01*
X67975459Y-50141571D01*
X68071195Y-49910445D01*
X68113242Y-49699061D01*
X68583355Y-50169174D01*
X68511595Y-50256614D01*
X68429528Y-50410150D01*
X68378992Y-50576746D01*
X68361928Y-50750000D01*
X68361928Y-52250000D01*
X68378992Y-52423254D01*
X68429528Y-52589850D01*
X68511595Y-52743386D01*
X68622038Y-52877962D01*
X68756614Y-52988405D01*
X68910150Y-53070472D01*
X69076746Y-53121008D01*
X69176009Y-53130785D01*
X69176746Y-53131008D01*
X69350000Y-53148072D01*
X70350000Y-53148072D01*
X70523254Y-53131008D01*
X70523991Y-53130785D01*
X70623254Y-53121008D01*
X70789850Y-53070472D01*
X70943386Y-52988405D01*
X71077962Y-52877962D01*
X71188405Y-52743386D01*
X71242777Y-52641663D01*
X71294866Y-52705134D01*
X71520987Y-52890706D01*
X71778967Y-53028599D01*
X72058890Y-53113513D01*
X72350000Y-53142185D01*
X72565355Y-53120974D01*
X72578494Y-53124960D01*
X72850000Y-53151701D01*
X73121507Y-53124960D01*
X73315000Y-53066264D01*
X73315001Y-56333420D01*
X73054965Y-56593457D01*
X73054963Y-56593458D01*
X72636493Y-57011928D01*
X71675000Y-57011928D01*
X71501746Y-57028992D01*
X71335150Y-57079528D01*
X71181614Y-57161595D01*
X71047038Y-57272038D01*
X70936595Y-57406614D01*
X70854528Y-57560150D01*
X70803992Y-57726746D01*
X70786928Y-57900000D01*
X70786928Y-59100000D01*
X70803992Y-59273254D01*
X70854528Y-59439850D01*
X70936595Y-59593386D01*
X71047038Y-59727962D01*
X71181614Y-59838405D01*
X71283337Y-59892777D01*
X71219866Y-59944866D01*
X71034294Y-60170986D01*
X70896401Y-60428966D01*
X70811487Y-60708889D01*
X70782815Y-61000000D01*
X70811487Y-61291111D01*
X70896401Y-61571034D01*
X71034294Y-61829014D01*
X71219866Y-62055134D01*
X71445986Y-62240706D01*
X71463374Y-62250000D01*
X71445986Y-62259294D01*
X71219866Y-62444866D01*
X71034294Y-62670986D01*
X70896401Y-62928966D01*
X70811487Y-63208889D01*
X70782815Y-63500000D01*
X70811487Y-63791111D01*
X70896401Y-64071034D01*
X71034294Y-64329014D01*
X71219866Y-64555134D01*
X71445986Y-64740706D01*
X71463374Y-64750000D01*
X71445986Y-64759294D01*
X71219866Y-64944866D01*
X71034294Y-65170986D01*
X70896401Y-65428966D01*
X70811487Y-65708889D01*
X70782815Y-66000000D01*
X70811487Y-66291111D01*
X70896401Y-66571034D01*
X71034294Y-66829014D01*
X71219866Y-67055134D01*
X71445986Y-67240706D01*
X71703966Y-67378599D01*
X71983889Y-67463513D01*
X72202050Y-67485000D01*
X72597950Y-67485000D01*
X72816111Y-67463513D01*
X73096034Y-67378599D01*
X73354014Y-67240706D01*
X73580134Y-67055134D01*
X73765706Y-66829014D01*
X73903599Y-66571034D01*
X73988513Y-66291111D01*
X74017185Y-66000000D01*
X73988513Y-65708889D01*
X73903599Y-65428966D01*
X73765706Y-65170986D01*
X73580134Y-64944866D01*
X73354014Y-64759294D01*
X73336626Y-64750000D01*
X73354014Y-64740706D01*
X73580134Y-64555134D01*
X73765706Y-64329014D01*
X73903599Y-64071034D01*
X73988513Y-63791111D01*
X74017185Y-63500000D01*
X73988513Y-63208889D01*
X73977848Y-63173731D01*
X74178850Y-62972728D01*
X75406532Y-61745047D01*
X75495059Y-61656520D01*
X75528827Y-61628807D01*
X75576241Y-61571034D01*
X75639420Y-61494050D01*
X75641417Y-61490314D01*
X75721599Y-61340303D01*
X75772205Y-61173480D01*
X75785010Y-61043467D01*
X75785010Y-61043457D01*
X75789291Y-60999991D01*
X75785010Y-60956524D01*
X75785010Y-54368590D01*
X77811468Y-56395049D01*
X77839181Y-56428817D01*
X77872949Y-56456530D01*
X77872951Y-56456532D01*
X77938809Y-56510580D01*
X77973939Y-56539411D01*
X78127685Y-56621589D01*
X78294508Y-56672195D01*
X78424521Y-56685000D01*
X78424531Y-56685000D01*
X78467997Y-56689281D01*
X78511463Y-56685000D01*
X79383422Y-56685000D01*
X79710350Y-57011928D01*
X78675000Y-57011928D01*
X78501746Y-57028992D01*
X78335150Y-57079528D01*
X78181614Y-57161595D01*
X78047038Y-57272038D01*
X77936595Y-57406614D01*
X77854528Y-57560150D01*
X77803992Y-57726746D01*
X77786928Y-57900000D01*
X77786928Y-59100000D01*
X77803992Y-59273254D01*
X77854528Y-59439850D01*
X77936595Y-59593386D01*
X78047038Y-59727962D01*
X78181614Y-59838405D01*
X78283337Y-59892777D01*
X78219866Y-59944866D01*
X78034294Y-60170986D01*
X77896401Y-60428966D01*
X77811487Y-60708889D01*
X77782815Y-61000000D01*
X77811487Y-61291111D01*
X77896401Y-61571034D01*
X78034294Y-61829014D01*
X78219866Y-62055134D01*
X78445986Y-62240706D01*
X78463374Y-62250000D01*
X78445986Y-62259294D01*
X78219866Y-62444866D01*
X78034294Y-62670986D01*
X77896401Y-62928966D01*
X77811487Y-63208889D01*
X77782815Y-63500000D01*
X77811487Y-63791111D01*
X77896401Y-64071034D01*
X78034294Y-64329014D01*
X78219866Y-64555134D01*
X78445986Y-64740706D01*
X78463374Y-64750000D01*
X78445986Y-64759294D01*
X78219866Y-64944866D01*
X78034294Y-65170986D01*
X77896401Y-65428966D01*
X77811487Y-65708889D01*
X77782815Y-66000000D01*
X77811487Y-66291111D01*
X77896401Y-66571034D01*
X78034294Y-66829014D01*
X78219866Y-67055134D01*
X78445986Y-67240706D01*
X78703966Y-67378599D01*
X78983889Y-67463513D01*
X79202050Y-67485000D01*
X79597950Y-67485000D01*
X79816111Y-67463513D01*
X80096034Y-67378599D01*
X80354014Y-67240706D01*
X80580134Y-67055134D01*
X80765706Y-66829014D01*
X80903599Y-66571034D01*
X80988513Y-66291111D01*
X81017185Y-66000000D01*
X80988513Y-65708889D01*
X80977848Y-65673731D01*
X81570060Y-65081519D01*
X81603827Y-65053807D01*
X81714421Y-64919049D01*
X81736042Y-64878599D01*
X81796599Y-64765304D01*
X81847205Y-64598480D01*
X81852964Y-64540007D01*
X81860010Y-64468467D01*
X81860010Y-64468459D01*
X81864291Y-64424990D01*
X81860010Y-64381521D01*
X81860010Y-57068479D01*
X81864291Y-57025010D01*
X81860010Y-56981541D01*
X81860010Y-56981533D01*
X81847205Y-56851520D01*
X81796599Y-56684697D01*
X81714421Y-56530951D01*
X81697703Y-56510580D01*
X81631542Y-56429963D01*
X81631540Y-56429961D01*
X81603827Y-56396193D01*
X81570059Y-56368480D01*
X80453911Y-55252333D01*
X80701952Y-55202994D01*
X81327082Y-54944057D01*
X81889685Y-54568138D01*
X81940001Y-54517822D01*
X81940001Y-67784093D01*
X81937532Y-67789853D01*
X81909331Y-67922530D01*
X81908317Y-67932181D01*
X81886400Y-68155710D01*
X81841177Y-68305494D01*
X81767727Y-68443633D01*
X81668839Y-68564883D01*
X81548286Y-68664612D01*
X81410656Y-68739029D01*
X81261201Y-68785293D01*
X81037826Y-68808770D01*
X81015612Y-68813330D01*
X80962599Y-68818717D01*
X80907934Y-68835433D01*
X80904956Y-68836044D01*
X80902343Y-68837142D01*
X80892998Y-68840000D01*
X67976373Y-68840000D01*
X68035459Y-68751571D01*
X68131195Y-68520445D01*
X68180000Y-68275084D01*
X68180000Y-68024916D01*
X68131195Y-67779555D01*
X68035459Y-67548429D01*
X67896473Y-67340422D01*
X67719578Y-67163527D01*
X67693741Y-67146263D01*
X67838212Y-67175000D01*
X68061788Y-67175000D01*
X68281067Y-67131383D01*
X68487624Y-67045824D01*
X68673520Y-66921612D01*
X68831612Y-66763520D01*
X68955824Y-66577624D01*
X69041383Y-66371067D01*
X69085000Y-66151788D01*
X69085000Y-65928212D01*
X69041383Y-65708933D01*
X68955824Y-65502376D01*
X68831612Y-65316480D01*
X68673520Y-65158388D01*
X68487624Y-65034176D01*
X68281067Y-64948617D01*
X68061788Y-64905000D01*
X67838212Y-64905000D01*
X67618933Y-64948617D01*
X67412376Y-65034176D01*
X67226480Y-65158388D01*
X67068388Y-65316480D01*
X66944176Y-65502376D01*
X66858617Y-65708933D01*
X66815000Y-65928212D01*
X66815000Y-66151788D01*
X66858617Y-66371067D01*
X66944176Y-66577624D01*
X67068388Y-66763520D01*
X67222059Y-66917191D01*
X67035084Y-66880000D01*
X66784916Y-66880000D01*
X66539555Y-66928805D01*
X66308429Y-67024541D01*
X66100422Y-67163527D01*
X65923527Y-67340422D01*
X65784541Y-67548429D01*
X65688805Y-67779555D01*
X65640000Y-68024916D01*
X65640000Y-68275084D01*
X65688805Y-68520445D01*
X65784541Y-68751571D01*
X65843627Y-68840000D01*
X56057305Y-68840000D01*
X56239685Y-68718138D01*
X56718138Y-68239685D01*
X57094057Y-67677082D01*
X57352994Y-67051952D01*
X57485000Y-66388318D01*
X57485000Y-65711682D01*
X57352994Y-65048048D01*
X57094057Y-64422918D01*
X56718138Y-63860315D01*
X56239685Y-63381862D01*
X55677082Y-63005943D01*
X55051952Y-62747006D01*
X54388318Y-62615000D01*
X53711682Y-62615000D01*
X53048048Y-62747006D01*
X52422918Y-63005943D01*
X51860315Y-63381862D01*
X51381862Y-63860315D01*
X51160000Y-64192355D01*
X51160000Y-47515551D01*
X51318933Y-47581383D01*
X51538212Y-47625000D01*
X51761788Y-47625000D01*
X51981067Y-47581383D01*
X52187624Y-47495824D01*
X52373520Y-47371612D01*
X52531612Y-47213520D01*
X52655824Y-47027624D01*
X52741383Y-46821067D01*
X52785000Y-46601788D01*
X52785000Y-46378212D01*
X52741383Y-46158933D01*
X52655824Y-45952376D01*
X52531612Y-45766480D01*
X52373520Y-45608388D01*
X52187624Y-45484176D01*
X51981067Y-45398617D01*
X51761788Y-45355000D01*
X51538212Y-45355000D01*
X51318933Y-45398617D01*
X51160000Y-45464449D01*
X51160000Y-40162298D01*
X51371594Y-40303681D01*
X51797447Y-40480075D01*
X52249530Y-40570000D01*
X52710470Y-40570000D01*
X53162553Y-40480075D01*
X53588406Y-40303681D01*
X53971663Y-40047596D01*
X54297596Y-39721663D01*
X54553681Y-39338406D01*
X54730075Y-38912553D01*
X54740372Y-38860784D01*
X54897988Y-39241302D01*
G36*
X51381862Y-68239685D02*
G01*
X51860315Y-68718138D01*
X51982802Y-68799981D01*
X51844290Y-68786400D01*
X51694506Y-68741177D01*
X51556367Y-68667727D01*
X51435117Y-68568839D01*
X51335388Y-68448286D01*
X51260971Y-68310656D01*
X51214707Y-68161201D01*
X51193295Y-67957474D01*
X51381862Y-68239685D01*
G37*
X51381862Y-68239685D02*
X51860315Y-68718138D01*
X51982802Y-68799981D01*
X51844290Y-68786400D01*
X51694506Y-68741177D01*
X51556367Y-68667727D01*
X51435117Y-68568839D01*
X51335388Y-68448286D01*
X51260971Y-68310656D01*
X51214707Y-68161201D01*
X51193295Y-67957474D01*
X51381862Y-68239685D01*
G36*
X74015011Y-60633410D02*
G01*
X73977113Y-60671308D01*
X73903599Y-60428966D01*
X73765706Y-60170986D01*
X73580134Y-59944866D01*
X73516663Y-59892777D01*
X73618386Y-59838405D01*
X73752962Y-59727962D01*
X73863405Y-59593386D01*
X73945472Y-59439850D01*
X73996008Y-59273254D01*
X74013072Y-59100000D01*
X74013072Y-58138507D01*
X74015011Y-58136568D01*
X74015011Y-60633410D01*
G37*
X74015011Y-60633410D02*
X73977113Y-60671308D01*
X73903599Y-60428966D01*
X73765706Y-60170986D01*
X73580134Y-59944866D01*
X73516663Y-59892777D01*
X73618386Y-59838405D01*
X73752962Y-59727962D01*
X73863405Y-59593386D01*
X73945472Y-59439850D01*
X73996008Y-59273254D01*
X74013072Y-59100000D01*
X74013072Y-58138507D01*
X74015011Y-58136568D01*
X74015011Y-60633410D01*
G36*
X70932865Y-49383022D02*
G01*
X71611015Y-50061172D01*
X71520986Y-50109294D01*
X71294866Y-50294866D01*
X71242777Y-50358337D01*
X71188405Y-50256614D01*
X71077962Y-50122038D01*
X70943386Y-50011595D01*
X70789850Y-49929528D01*
X70623254Y-49878992D01*
X70523991Y-49869215D01*
X70523254Y-49868992D01*
X70487871Y-49865507D01*
X70407764Y-49767898D01*
X70377810Y-49743315D01*
X70017516Y-49383021D01*
X70932865Y-49383022D01*
G37*
X70932865Y-49383022D02*
X71611015Y-50061172D01*
X71520986Y-50109294D01*
X71294866Y-50294866D01*
X71242777Y-50358337D01*
X71188405Y-50256614D01*
X71077962Y-50122038D01*
X70943386Y-50011595D01*
X70789850Y-49929528D01*
X70623254Y-49878992D01*
X70523991Y-49869215D01*
X70523254Y-49868992D01*
X70487871Y-49865507D01*
X70407764Y-49767898D01*
X70377810Y-49743315D01*
X70017516Y-49383021D01*
X70932865Y-49383022D01*
G36*
X75529925Y-38912553D02*
G01*
X75706319Y-39338406D01*
X75962404Y-39721663D01*
X76288337Y-40047596D01*
X76671594Y-40303681D01*
X77097447Y-40480075D01*
X77549530Y-40570000D01*
X78010470Y-40570000D01*
X78462553Y-40480075D01*
X78888406Y-40303681D01*
X79271663Y-40047596D01*
X79597596Y-39721663D01*
X79853681Y-39338406D01*
X79907260Y-39209054D01*
X79996891Y-39282612D01*
X80056259Y-39314345D01*
X79985363Y-39385241D01*
X79828320Y-39620273D01*
X79720147Y-39881426D01*
X79665000Y-40158665D01*
X79665000Y-40441335D01*
X79720147Y-40718574D01*
X79828320Y-40979727D01*
X79985363Y-41214759D01*
X80185241Y-41414637D01*
X80420273Y-41571680D01*
X80681426Y-41679853D01*
X80958665Y-41735000D01*
X81241335Y-41735000D01*
X81518574Y-41679853D01*
X81779727Y-41571680D01*
X81940000Y-41464589D01*
X81940000Y-46485868D01*
X81900000Y-46481928D01*
X80300000Y-46481928D01*
X80175518Y-46494188D01*
X80055820Y-46530498D01*
X79945506Y-46589463D01*
X79848815Y-46668815D01*
X79769463Y-46765506D01*
X79742342Y-46816245D01*
X79785000Y-46601788D01*
X79785000Y-46378212D01*
X79741383Y-46158933D01*
X79655824Y-45952376D01*
X79531612Y-45766480D01*
X79373520Y-45608388D01*
X79187624Y-45484176D01*
X78981067Y-45398617D01*
X78761788Y-45355000D01*
X78538212Y-45355000D01*
X78318933Y-45398617D01*
X78112376Y-45484176D01*
X77926480Y-45608388D01*
X77768388Y-45766480D01*
X77644176Y-45952376D01*
X77558617Y-46158933D01*
X77515000Y-46378212D01*
X77515000Y-46601788D01*
X77558617Y-46821067D01*
X77644176Y-47027624D01*
X77768388Y-47213520D01*
X77926480Y-47371612D01*
X78112376Y-47495824D01*
X78318933Y-47581383D01*
X78538212Y-47625000D01*
X78761788Y-47625000D01*
X78981067Y-47581383D01*
X79187624Y-47495824D01*
X79373520Y-47371612D01*
X79531612Y-47213520D01*
X79655824Y-47027624D01*
X79688047Y-46949831D01*
X79674188Y-46995518D01*
X79661928Y-47120000D01*
X79661928Y-48465000D01*
X79361682Y-48465000D01*
X78698048Y-48597006D01*
X78072918Y-48855943D01*
X77823979Y-49022279D01*
X77824282Y-49019199D01*
X77820001Y-48975730D01*
X77820001Y-48975722D01*
X77808653Y-48860505D01*
X77807196Y-48845708D01*
X77781101Y-48759686D01*
X77756590Y-48678886D01*
X77674412Y-48525140D01*
X77563818Y-48390382D01*
X77530046Y-48362666D01*
X77022336Y-47854956D01*
X76994619Y-47821183D01*
X76872726Y-47721147D01*
X76036777Y-46885199D01*
X76053989Y-46881775D01*
X76306043Y-46777371D01*
X76532886Y-46625799D01*
X76725799Y-46432886D01*
X76877371Y-46206043D01*
X76981775Y-45953989D01*
X77035000Y-45686411D01*
X77035000Y-45413589D01*
X76981775Y-45146011D01*
X76877371Y-44893957D01*
X76725799Y-44667114D01*
X76532886Y-44474201D01*
X76306043Y-44322629D01*
X76053989Y-44218225D01*
X75786411Y-44165000D01*
X75493589Y-44165000D01*
X75226011Y-44218225D01*
X74985000Y-44318055D01*
X74985000Y-44043469D01*
X74989281Y-44000000D01*
X74985000Y-43956531D01*
X74985000Y-43956523D01*
X74972195Y-43826510D01*
X74957289Y-43777371D01*
X74953051Y-43763402D01*
X74973957Y-43777371D01*
X75226011Y-43881775D01*
X75493589Y-43935000D01*
X75786411Y-43935000D01*
X76053989Y-43881775D01*
X76306043Y-43777371D01*
X76532886Y-43625799D01*
X76725799Y-43432886D01*
X76877371Y-43206043D01*
X76981775Y-42953989D01*
X77035000Y-42686411D01*
X77035000Y-42413589D01*
X76981775Y-42146011D01*
X76877371Y-41893957D01*
X76725799Y-41667114D01*
X76532886Y-41474201D01*
X76306043Y-41322629D01*
X76053989Y-41218225D01*
X75786411Y-41165000D01*
X75493589Y-41165000D01*
X75226011Y-41218225D01*
X74973957Y-41322629D01*
X74747114Y-41474201D01*
X74554201Y-41667114D01*
X74402629Y-41893957D01*
X74298225Y-42146011D01*
X74245000Y-42413589D01*
X74245000Y-42686411D01*
X74296402Y-42944823D01*
X74035000Y-42683421D01*
X74035000Y-42413589D01*
X73981775Y-42146011D01*
X73877371Y-41893957D01*
X73725799Y-41667114D01*
X73532886Y-41474201D01*
X73306043Y-41322629D01*
X73053989Y-41218225D01*
X72786411Y-41165000D01*
X72493589Y-41165000D01*
X72226011Y-41218225D01*
X71973957Y-41322629D01*
X71747114Y-41474201D01*
X71554201Y-41667114D01*
X71402629Y-41893957D01*
X71298225Y-42146011D01*
X71245000Y-42413589D01*
X71245000Y-42686411D01*
X71296402Y-42944823D01*
X71035000Y-42683421D01*
X71035000Y-42413589D01*
X70981775Y-42146011D01*
X70877371Y-41893957D01*
X70725799Y-41667114D01*
X70532886Y-41474201D01*
X70306043Y-41322629D01*
X70151530Y-41258628D01*
X71826645Y-39583513D01*
X71831637Y-39590983D01*
X72129017Y-39888363D01*
X72478698Y-40122012D01*
X72867244Y-40282953D01*
X73279721Y-40365000D01*
X73700279Y-40365000D01*
X74112756Y-40282953D01*
X74501302Y-40122012D01*
X74850983Y-39888363D01*
X75148363Y-39590983D01*
X75382012Y-39241302D01*
X75526116Y-38893404D01*
X75529925Y-38912553D01*
G37*
X75529925Y-38912553D02*
X75706319Y-39338406D01*
X75962404Y-39721663D01*
X76288337Y-40047596D01*
X76671594Y-40303681D01*
X77097447Y-40480075D01*
X77549530Y-40570000D01*
X78010470Y-40570000D01*
X78462553Y-40480075D01*
X78888406Y-40303681D01*
X79271663Y-40047596D01*
X79597596Y-39721663D01*
X79853681Y-39338406D01*
X79907260Y-39209054D01*
X79996891Y-39282612D01*
X80056259Y-39314345D01*
X79985363Y-39385241D01*
X79828320Y-39620273D01*
X79720147Y-39881426D01*
X79665000Y-40158665D01*
X79665000Y-40441335D01*
X79720147Y-40718574D01*
X79828320Y-40979727D01*
X79985363Y-41214759D01*
X80185241Y-41414637D01*
X80420273Y-41571680D01*
X80681426Y-41679853D01*
X80958665Y-41735000D01*
X81241335Y-41735000D01*
X81518574Y-41679853D01*
X81779727Y-41571680D01*
X81940000Y-41464589D01*
X81940000Y-46485868D01*
X81900000Y-46481928D01*
X80300000Y-46481928D01*
X80175518Y-46494188D01*
X80055820Y-46530498D01*
X79945506Y-46589463D01*
X79848815Y-46668815D01*
X79769463Y-46765506D01*
X79742342Y-46816245D01*
X79785000Y-46601788D01*
X79785000Y-46378212D01*
X79741383Y-46158933D01*
X79655824Y-45952376D01*
X79531612Y-45766480D01*
X79373520Y-45608388D01*
X79187624Y-45484176D01*
X78981067Y-45398617D01*
X78761788Y-45355000D01*
X78538212Y-45355000D01*
X78318933Y-45398617D01*
X78112376Y-45484176D01*
X77926480Y-45608388D01*
X77768388Y-45766480D01*
X77644176Y-45952376D01*
X77558617Y-46158933D01*
X77515000Y-46378212D01*
X77515000Y-46601788D01*
X77558617Y-46821067D01*
X77644176Y-47027624D01*
X77768388Y-47213520D01*
X77926480Y-47371612D01*
X78112376Y-47495824D01*
X78318933Y-47581383D01*
X78538212Y-47625000D01*
X78761788Y-47625000D01*
X78981067Y-47581383D01*
X79187624Y-47495824D01*
X79373520Y-47371612D01*
X79531612Y-47213520D01*
X79655824Y-47027624D01*
X79688047Y-46949831D01*
X79674188Y-46995518D01*
X79661928Y-47120000D01*
X79661928Y-48465000D01*
X79361682Y-48465000D01*
X78698048Y-48597006D01*
X78072918Y-48855943D01*
X77823979Y-49022279D01*
X77824282Y-49019199D01*
X77820001Y-48975730D01*
X77820001Y-48975722D01*
X77808653Y-48860505D01*
X77807196Y-48845708D01*
X77781101Y-48759686D01*
X77756590Y-48678886D01*
X77674412Y-48525140D01*
X77563818Y-48390382D01*
X77530046Y-48362666D01*
X77022336Y-47854956D01*
X76994619Y-47821183D01*
X76872726Y-47721147D01*
X76036777Y-46885199D01*
X76053989Y-46881775D01*
X76306043Y-46777371D01*
X76532886Y-46625799D01*
X76725799Y-46432886D01*
X76877371Y-46206043D01*
X76981775Y-45953989D01*
X77035000Y-45686411D01*
X77035000Y-45413589D01*
X76981775Y-45146011D01*
X76877371Y-44893957D01*
X76725799Y-44667114D01*
X76532886Y-44474201D01*
X76306043Y-44322629D01*
X76053989Y-44218225D01*
X75786411Y-44165000D01*
X75493589Y-44165000D01*
X75226011Y-44218225D01*
X74985000Y-44318055D01*
X74985000Y-44043469D01*
X74989281Y-44000000D01*
X74985000Y-43956531D01*
X74985000Y-43956523D01*
X74972195Y-43826510D01*
X74957289Y-43777371D01*
X74953051Y-43763402D01*
X74973957Y-43777371D01*
X75226011Y-43881775D01*
X75493589Y-43935000D01*
X75786411Y-43935000D01*
X76053989Y-43881775D01*
X76306043Y-43777371D01*
X76532886Y-43625799D01*
X76725799Y-43432886D01*
X76877371Y-43206043D01*
X76981775Y-42953989D01*
X77035000Y-42686411D01*
X77035000Y-42413589D01*
X76981775Y-42146011D01*
X76877371Y-41893957D01*
X76725799Y-41667114D01*
X76532886Y-41474201D01*
X76306043Y-41322629D01*
X76053989Y-41218225D01*
X75786411Y-41165000D01*
X75493589Y-41165000D01*
X75226011Y-41218225D01*
X74973957Y-41322629D01*
X74747114Y-41474201D01*
X74554201Y-41667114D01*
X74402629Y-41893957D01*
X74298225Y-42146011D01*
X74245000Y-42413589D01*
X74245000Y-42686411D01*
X74296402Y-42944823D01*
X74035000Y-42683421D01*
X74035000Y-42413589D01*
X73981775Y-42146011D01*
X73877371Y-41893957D01*
X73725799Y-41667114D01*
X73532886Y-41474201D01*
X73306043Y-41322629D01*
X73053989Y-41218225D01*
X72786411Y-41165000D01*
X72493589Y-41165000D01*
X72226011Y-41218225D01*
X71973957Y-41322629D01*
X71747114Y-41474201D01*
X71554201Y-41667114D01*
X71402629Y-41893957D01*
X71298225Y-42146011D01*
X71245000Y-42413589D01*
X71245000Y-42686411D01*
X71296402Y-42944823D01*
X71035000Y-42683421D01*
X71035000Y-42413589D01*
X70981775Y-42146011D01*
X70877371Y-41893957D01*
X70725799Y-41667114D01*
X70532886Y-41474201D01*
X70306043Y-41322629D01*
X70151530Y-41258628D01*
X71826645Y-39583513D01*
X71831637Y-39590983D01*
X72129017Y-39888363D01*
X72478698Y-40122012D01*
X72867244Y-40282953D01*
X73279721Y-40365000D01*
X73700279Y-40365000D01*
X74112756Y-40282953D01*
X74501302Y-40122012D01*
X74850983Y-39888363D01*
X75148363Y-39590983D01*
X75382012Y-39241302D01*
X75526116Y-38893404D01*
X75529925Y-38912553D01*
G36*
X73471183Y-46828817D02*
G01*
X73504956Y-46856534D01*
X75137250Y-48488829D01*
X75040422Y-48553527D01*
X74923811Y-48670138D01*
X73111590Y-46857916D01*
X73306043Y-46777371D01*
X73385430Y-46724326D01*
X73471183Y-46828817D01*
G37*
X73471183Y-46828817D02*
X73504956Y-46856534D01*
X75137250Y-48488829D01*
X75040422Y-48553527D01*
X74923811Y-48670138D01*
X73111590Y-46857916D01*
X73306043Y-46777371D01*
X73385430Y-46724326D01*
X73471183Y-46828817D01*
G36*
X70863529Y-47113012D02*
G01*
X69444591Y-47113012D01*
X69204404Y-46872825D01*
X69226011Y-46881775D01*
X69493589Y-46935000D01*
X69786411Y-46935000D01*
X70053989Y-46881775D01*
X70306043Y-46777371D01*
X70439029Y-46688512D01*
X70863529Y-47113012D01*
G37*
X70863529Y-47113012D02*
X69444591Y-47113012D01*
X69204404Y-46872825D01*
X69226011Y-46881775D01*
X69493589Y-46935000D01*
X69786411Y-46935000D01*
X70053989Y-46881775D01*
X70306043Y-46777371D01*
X70439029Y-46688512D01*
X70863529Y-47113012D01*
G36*
X64572645Y-46915000D02*
G01*
X63886957Y-46915000D01*
X64053989Y-46881775D01*
X64306043Y-46777371D01*
X64383356Y-46725712D01*
X64572645Y-46915000D01*
G37*
X64572645Y-46915000D02*
X63886957Y-46915000D01*
X64053989Y-46881775D01*
X64306043Y-46777371D01*
X64383356Y-46725712D01*
X64572645Y-46915000D01*
G36*
X65402629Y-41893957D02*
G01*
X65298225Y-42146011D01*
X65245000Y-42413589D01*
X65245000Y-42686411D01*
X65298225Y-42953989D01*
X65402629Y-43206043D01*
X65554201Y-43432886D01*
X65747114Y-43625799D01*
X65973957Y-43777371D01*
X66226011Y-43881775D01*
X66493589Y-43935000D01*
X66786411Y-43935000D01*
X67053989Y-43881775D01*
X67306043Y-43777371D01*
X67532886Y-43625799D01*
X67725799Y-43432886D01*
X67877371Y-43206043D01*
X67981775Y-42953989D01*
X68035000Y-42686411D01*
X68035000Y-42413589D01*
X67981775Y-42146011D01*
X67877371Y-41893957D01*
X67871393Y-41885010D01*
X68408607Y-41885010D01*
X68402629Y-41893957D01*
X68298225Y-42146011D01*
X68245000Y-42413589D01*
X68245000Y-42686411D01*
X68298225Y-42953989D01*
X68402629Y-43206043D01*
X68554201Y-43432886D01*
X68747114Y-43625799D01*
X68973957Y-43777371D01*
X69226011Y-43881775D01*
X69493589Y-43935000D01*
X69783421Y-43935000D01*
X69965001Y-44116580D01*
X69965001Y-44200524D01*
X69786411Y-44165000D01*
X69493589Y-44165000D01*
X69226011Y-44218225D01*
X68973957Y-44322629D01*
X68747114Y-44474201D01*
X68554201Y-44667114D01*
X68402629Y-44893957D01*
X68298225Y-45146011D01*
X68245000Y-45413589D01*
X68245000Y-45686411D01*
X68298225Y-45953989D01*
X68307175Y-45975597D01*
X68032178Y-45700599D01*
X68035000Y-45686411D01*
X68035000Y-45413589D01*
X67981775Y-45146011D01*
X67877371Y-44893957D01*
X67725799Y-44667114D01*
X67532886Y-44474201D01*
X67306043Y-44322629D01*
X67053989Y-44218225D01*
X66786411Y-44165000D01*
X66493589Y-44165000D01*
X66226011Y-44218225D01*
X65973957Y-44322629D01*
X65747114Y-44474201D01*
X65554201Y-44667114D01*
X65402629Y-44893957D01*
X65298225Y-45146011D01*
X65252723Y-45374764D01*
X64951939Y-45073980D01*
X64877371Y-44893957D01*
X64725799Y-44667114D01*
X64532886Y-44474201D01*
X64306043Y-44322629D01*
X64053989Y-44218225D01*
X63786411Y-44165000D01*
X63493589Y-44165000D01*
X63264999Y-44210470D01*
X63264999Y-44045158D01*
X63394807Y-43915351D01*
X63493589Y-43935000D01*
X63786411Y-43935000D01*
X64053989Y-43881775D01*
X64306043Y-43777371D01*
X64532886Y-43625799D01*
X64725799Y-43432886D01*
X64877371Y-43206043D01*
X64981775Y-42953989D01*
X65035000Y-42686411D01*
X65035000Y-42413589D01*
X65008714Y-42281443D01*
X65405147Y-41885010D01*
X65408607Y-41885010D01*
X65402629Y-41893957D01*
G37*
X65402629Y-41893957D02*
X65298225Y-42146011D01*
X65245000Y-42413589D01*
X65245000Y-42686411D01*
X65298225Y-42953989D01*
X65402629Y-43206043D01*
X65554201Y-43432886D01*
X65747114Y-43625799D01*
X65973957Y-43777371D01*
X66226011Y-43881775D01*
X66493589Y-43935000D01*
X66786411Y-43935000D01*
X67053989Y-43881775D01*
X67306043Y-43777371D01*
X67532886Y-43625799D01*
X67725799Y-43432886D01*
X67877371Y-43206043D01*
X67981775Y-42953989D01*
X68035000Y-42686411D01*
X68035000Y-42413589D01*
X67981775Y-42146011D01*
X67877371Y-41893957D01*
X67871393Y-41885010D01*
X68408607Y-41885010D01*
X68402629Y-41893957D01*
X68298225Y-42146011D01*
X68245000Y-42413589D01*
X68245000Y-42686411D01*
X68298225Y-42953989D01*
X68402629Y-43206043D01*
X68554201Y-43432886D01*
X68747114Y-43625799D01*
X68973957Y-43777371D01*
X69226011Y-43881775D01*
X69493589Y-43935000D01*
X69783421Y-43935000D01*
X69965001Y-44116580D01*
X69965001Y-44200524D01*
X69786411Y-44165000D01*
X69493589Y-44165000D01*
X69226011Y-44218225D01*
X68973957Y-44322629D01*
X68747114Y-44474201D01*
X68554201Y-44667114D01*
X68402629Y-44893957D01*
X68298225Y-45146011D01*
X68245000Y-45413589D01*
X68245000Y-45686411D01*
X68298225Y-45953989D01*
X68307175Y-45975597D01*
X68032178Y-45700599D01*
X68035000Y-45686411D01*
X68035000Y-45413589D01*
X67981775Y-45146011D01*
X67877371Y-44893957D01*
X67725799Y-44667114D01*
X67532886Y-44474201D01*
X67306043Y-44322629D01*
X67053989Y-44218225D01*
X66786411Y-44165000D01*
X66493589Y-44165000D01*
X66226011Y-44218225D01*
X65973957Y-44322629D01*
X65747114Y-44474201D01*
X65554201Y-44667114D01*
X65402629Y-44893957D01*
X65298225Y-45146011D01*
X65252723Y-45374764D01*
X64951939Y-45073980D01*
X64877371Y-44893957D01*
X64725799Y-44667114D01*
X64532886Y-44474201D01*
X64306043Y-44322629D01*
X64053989Y-44218225D01*
X63786411Y-44165000D01*
X63493589Y-44165000D01*
X63264999Y-44210470D01*
X63264999Y-44045158D01*
X63394807Y-43915351D01*
X63493589Y-43935000D01*
X63786411Y-43935000D01*
X64053989Y-43881775D01*
X64306043Y-43777371D01*
X64532886Y-43625799D01*
X64725799Y-43432886D01*
X64877371Y-43206043D01*
X64981775Y-42953989D01*
X65035000Y-42686411D01*
X65035000Y-42413589D01*
X65008714Y-42281443D01*
X65405147Y-41885010D01*
X65408607Y-41885010D01*
X65402629Y-41893957D01*
G36*
X61801757Y-43323641D02*
G01*
X61751245Y-43418142D01*
X61706358Y-43566115D01*
X61691202Y-43720001D01*
X61695000Y-43758564D01*
X61695000Y-44636315D01*
X61532886Y-44474201D01*
X61306043Y-44322629D01*
X61053989Y-44218225D01*
X60786411Y-44165000D01*
X60493589Y-44165000D01*
X60235176Y-44216402D01*
X60516579Y-43935000D01*
X60786411Y-43935000D01*
X61053989Y-43881775D01*
X61306043Y-43777371D01*
X61532886Y-43625799D01*
X61725799Y-43432886D01*
X61813602Y-43301480D01*
X61801757Y-43323641D01*
G37*
X61801757Y-43323641D02*
X61751245Y-43418142D01*
X61706358Y-43566115D01*
X61691202Y-43720001D01*
X61695000Y-43758564D01*
X61695000Y-44636315D01*
X61532886Y-44474201D01*
X61306043Y-44322629D01*
X61053989Y-44218225D01*
X60786411Y-44165000D01*
X60493589Y-44165000D01*
X60235176Y-44216402D01*
X60516579Y-43935000D01*
X60786411Y-43935000D01*
X61053989Y-43881775D01*
X61306043Y-43777371D01*
X61532886Y-43625799D01*
X61725799Y-43432886D01*
X61813602Y-43301480D01*
X61801757Y-43323641D01*
G36*
X71747114Y-43625799D02*
G01*
X71973957Y-43777371D01*
X72226011Y-43881775D01*
X72493589Y-43935000D01*
X72783421Y-43935000D01*
X73075596Y-44227175D01*
X73053989Y-44218225D01*
X72786411Y-44165000D01*
X72493589Y-44165000D01*
X72226011Y-44218225D01*
X71973957Y-44322629D01*
X71747114Y-44474201D01*
X71735001Y-44486314D01*
X71735001Y-43793470D01*
X71739282Y-43750001D01*
X71735001Y-43706532D01*
X71735001Y-43706524D01*
X71724858Y-43603543D01*
X71747114Y-43625799D01*
G37*
X71747114Y-43625799D02*
X71973957Y-43777371D01*
X72226011Y-43881775D01*
X72493589Y-43935000D01*
X72783421Y-43935000D01*
X73075596Y-44227175D01*
X73053989Y-44218225D01*
X72786411Y-44165000D01*
X72493589Y-44165000D01*
X72226011Y-44218225D01*
X71973957Y-44322629D01*
X71747114Y-44474201D01*
X71735001Y-44486314D01*
X71735001Y-43793470D01*
X71739282Y-43750001D01*
X71735001Y-43706532D01*
X71735001Y-43706524D01*
X71724858Y-43603543D01*
X71747114Y-43625799D01*
G36*
X58227805Y-43926511D02*
G01*
X58215000Y-44056524D01*
X58215000Y-44056531D01*
X58210719Y-44100000D01*
X58215000Y-44143469D01*
X58215000Y-44284918D01*
X58053989Y-44218225D01*
X57786411Y-44165000D01*
X57493589Y-44165000D01*
X57235176Y-44216402D01*
X57516578Y-43935000D01*
X57786411Y-43935000D01*
X58053989Y-43881775D01*
X58268305Y-43793003D01*
X58227805Y-43926511D01*
G37*
X58227805Y-43926511D02*
X58215000Y-44056524D01*
X58215000Y-44056531D01*
X58210719Y-44100000D01*
X58215000Y-44143469D01*
X58215000Y-44284918D01*
X58053989Y-44218225D01*
X57786411Y-44165000D01*
X57493589Y-44165000D01*
X57235176Y-44216402D01*
X57516578Y-43935000D01*
X57786411Y-43935000D01*
X58053989Y-43881775D01*
X58268305Y-43793003D01*
X58227805Y-43926511D01*
G36*
X62973957Y-41322629D02*
G01*
X62747114Y-41474201D01*
X62554201Y-41667114D01*
X62402629Y-41893957D01*
X62298225Y-42146011D01*
X62245000Y-42413589D01*
X62245000Y-42686411D01*
X62271286Y-42818557D01*
X61952184Y-43137659D01*
X61922236Y-43162237D01*
X61897658Y-43192185D01*
X61897654Y-43192189D01*
X61882448Y-43210718D01*
X61838318Y-43264490D01*
X61877371Y-43206043D01*
X61981775Y-42953989D01*
X62035000Y-42686411D01*
X62035000Y-42413589D01*
X61981775Y-42146011D01*
X61877371Y-41893957D01*
X61725799Y-41667114D01*
X61532886Y-41474201D01*
X61306043Y-41322629D01*
X61215198Y-41285000D01*
X63064802Y-41285000D01*
X62973957Y-41322629D01*
G37*
X62973957Y-41322629D02*
X62747114Y-41474201D01*
X62554201Y-41667114D01*
X62402629Y-41893957D01*
X62298225Y-42146011D01*
X62245000Y-42413589D01*
X62245000Y-42686411D01*
X62271286Y-42818557D01*
X61952184Y-43137659D01*
X61922236Y-43162237D01*
X61897658Y-43192185D01*
X61897654Y-43192189D01*
X61882448Y-43210718D01*
X61838318Y-43264490D01*
X61877371Y-43206043D01*
X61981775Y-42953989D01*
X62035000Y-42686411D01*
X62035000Y-42413589D01*
X61981775Y-42146011D01*
X61877371Y-41893957D01*
X61725799Y-41667114D01*
X61532886Y-41474201D01*
X61306043Y-41322629D01*
X61215198Y-41285000D01*
X63064802Y-41285000D01*
X62973957Y-41322629D01*
G36*
X59973957Y-41322629D02*
G01*
X59747114Y-41474201D01*
X59554201Y-41667114D01*
X59402629Y-41893957D01*
X59298225Y-42146011D01*
X59245000Y-42413589D01*
X59245000Y-42686411D01*
X59247822Y-42700599D01*
X58972825Y-42975597D01*
X58981775Y-42953989D01*
X59035000Y-42686411D01*
X59035000Y-42413589D01*
X58981775Y-42146011D01*
X58877371Y-41893957D01*
X58725799Y-41667114D01*
X58532886Y-41474201D01*
X58306043Y-41322629D01*
X58215198Y-41285000D01*
X60064802Y-41285000D01*
X59973957Y-41322629D01*
G37*
X59973957Y-41322629D02*
X59747114Y-41474201D01*
X59554201Y-41667114D01*
X59402629Y-41893957D01*
X59298225Y-42146011D01*
X59245000Y-42413589D01*
X59245000Y-42686411D01*
X59247822Y-42700599D01*
X58972825Y-42975597D01*
X58981775Y-42953989D01*
X59035000Y-42686411D01*
X59035000Y-42413589D01*
X58981775Y-42146011D01*
X58877371Y-41893957D01*
X58725799Y-41667114D01*
X58532886Y-41474201D01*
X58306043Y-41322629D01*
X58215198Y-41285000D01*
X60064802Y-41285000D01*
X59973957Y-41322629D01*
G36*
X79604653Y-34704415D02*
G01*
X79593761Y-34815000D01*
X72431456Y-34815000D01*
X72392900Y-34811203D01*
X72354344Y-34815000D01*
X72354339Y-34815000D01*
X72313926Y-34818980D01*
X72239013Y-34826358D01*
X72092543Y-34870790D01*
X72091040Y-34871246D01*
X71954667Y-34944138D01*
X71835136Y-35042236D01*
X71810555Y-35072188D01*
X70372180Y-36510563D01*
X70342226Y-36535146D01*
X70244128Y-36654678D01*
X70171236Y-36791051D01*
X70126349Y-36939024D01*
X70114990Y-37054350D01*
X70114990Y-37054357D01*
X70111193Y-37092910D01*
X70114990Y-37131463D01*
X70114991Y-38367731D01*
X68767723Y-39715000D01*
X58324346Y-39715000D01*
X58448363Y-39590983D01*
X58682012Y-39241302D01*
X58842953Y-38852756D01*
X58925000Y-38440279D01*
X58925000Y-38019721D01*
X58842953Y-37607244D01*
X58682012Y-37218698D01*
X58448363Y-36869017D01*
X58150983Y-36571637D01*
X57801302Y-36337988D01*
X57412756Y-36177047D01*
X57000279Y-36095000D01*
X56579721Y-36095000D01*
X56167244Y-36177047D01*
X55778698Y-36337988D01*
X55429017Y-36571637D01*
X55131637Y-36869017D01*
X54897988Y-37218698D01*
X54740372Y-37599216D01*
X54730075Y-37547447D01*
X54553681Y-37121594D01*
X54297596Y-36738337D01*
X53971663Y-36412404D01*
X53588406Y-36156319D01*
X53162553Y-35979925D01*
X52710470Y-35890000D01*
X52249530Y-35890000D01*
X51797447Y-35979925D01*
X51371594Y-36156319D01*
X51160000Y-36297702D01*
X51160000Y-35715905D01*
X51162468Y-35710147D01*
X51190669Y-35577470D01*
X51191683Y-35567819D01*
X51213600Y-35344290D01*
X51258823Y-35194506D01*
X51332273Y-35056367D01*
X51431161Y-34935117D01*
X51551714Y-34835388D01*
X51689343Y-34760972D01*
X51838802Y-34714707D01*
X52062174Y-34691230D01*
X52084388Y-34686670D01*
X52137401Y-34681283D01*
X52192066Y-34664567D01*
X52195044Y-34663956D01*
X52197657Y-34662858D01*
X52207002Y-34660000D01*
X79618126Y-34660000D01*
X79604653Y-34704415D01*
G37*
X79604653Y-34704415D02*
X79593761Y-34815000D01*
X72431456Y-34815000D01*
X72392900Y-34811203D01*
X72354344Y-34815000D01*
X72354339Y-34815000D01*
X72313926Y-34818980D01*
X72239013Y-34826358D01*
X72092543Y-34870790D01*
X72091040Y-34871246D01*
X71954667Y-34944138D01*
X71835136Y-35042236D01*
X71810555Y-35072188D01*
X70372180Y-36510563D01*
X70342226Y-36535146D01*
X70244128Y-36654678D01*
X70171236Y-36791051D01*
X70126349Y-36939024D01*
X70114990Y-37054350D01*
X70114990Y-37054357D01*
X70111193Y-37092910D01*
X70114990Y-37131463D01*
X70114991Y-38367731D01*
X68767723Y-39715000D01*
X58324346Y-39715000D01*
X58448363Y-39590983D01*
X58682012Y-39241302D01*
X58842953Y-38852756D01*
X58925000Y-38440279D01*
X58925000Y-38019721D01*
X58842953Y-37607244D01*
X58682012Y-37218698D01*
X58448363Y-36869017D01*
X58150983Y-36571637D01*
X57801302Y-36337988D01*
X57412756Y-36177047D01*
X57000279Y-36095000D01*
X56579721Y-36095000D01*
X56167244Y-36177047D01*
X55778698Y-36337988D01*
X55429017Y-36571637D01*
X55131637Y-36869017D01*
X54897988Y-37218698D01*
X54740372Y-37599216D01*
X54730075Y-37547447D01*
X54553681Y-37121594D01*
X54297596Y-36738337D01*
X53971663Y-36412404D01*
X53588406Y-36156319D01*
X53162553Y-35979925D01*
X52710470Y-35890000D01*
X52249530Y-35890000D01*
X51797447Y-35979925D01*
X51371594Y-36156319D01*
X51160000Y-36297702D01*
X51160000Y-35715905D01*
X51162468Y-35710147D01*
X51190669Y-35577470D01*
X51191683Y-35567819D01*
X51213600Y-35344290D01*
X51258823Y-35194506D01*
X51332273Y-35056367D01*
X51431161Y-34935117D01*
X51551714Y-34835388D01*
X51689343Y-34760972D01*
X51838802Y-34714707D01*
X52062174Y-34691230D01*
X52084388Y-34686670D01*
X52137401Y-34681283D01*
X52192066Y-34664567D01*
X52195044Y-34663956D01*
X52197657Y-34662858D01*
X52207002Y-34660000D01*
X79618126Y-34660000D01*
X79604653Y-34704415D01*
G36*
X75706319Y-37121594D02*
G01*
X75529925Y-37547447D01*
X75526116Y-37566596D01*
X75382012Y-37218698D01*
X75159049Y-36885010D01*
X75864400Y-36885010D01*
X75706319Y-37121594D01*
G37*
X75706319Y-37121594D02*
X75529925Y-37547447D01*
X75526116Y-37566596D01*
X75382012Y-37218698D01*
X75159049Y-36885010D01*
X75864400Y-36885010D01*
X75706319Y-37121594D01*
M02*
