G04 #@! TF.GenerationSoftware,KiCad,Pcbnew,5.1.6+dfsg1-1*
G04 #@! TF.CreationDate,2021-01-26T23:50:46+01:00*
G04 #@! TF.ProjectId,carabiner,63617261-6269-46e6-9572-2e6b69636164,rev?*
G04 #@! TF.SameCoordinates,Original*
G04 #@! TF.FileFunction,Soldermask,Top*
G04 #@! TF.FilePolarity,Negative*
%FSLAX46Y46*%
G04 Gerber Fmt 4.6, Leading zero omitted, Abs format (unit mm)*
G04 Created by KiCad (PCBNEW 5.1.6+dfsg1-1) date 2021-01-26 23:50:46*
%MOMM*%
%LPD*%
G01*
G04 APERTURE LIST*
%ADD10C,0.010000*%
%ADD11C,0.100000*%
G04 APERTURE END LIST*
D10*
G36*
X62480508Y-37612946D02*
G01*
X62512531Y-37623195D01*
X62551294Y-37645304D01*
X62601506Y-37683387D01*
X62667875Y-37741558D01*
X62755108Y-37823929D01*
X62867914Y-37934615D01*
X63011000Y-38077728D01*
X63177241Y-38245422D01*
X63805444Y-38880400D01*
X64203596Y-38880444D01*
X64664520Y-39346111D01*
X64796055Y-39478242D01*
X64914526Y-39595811D01*
X65014163Y-39693206D01*
X65089195Y-39764820D01*
X65133851Y-39805042D01*
X65143593Y-39811777D01*
X65170162Y-39793014D01*
X65226181Y-39742736D01*
X65301822Y-39669962D01*
X65343555Y-39628333D01*
X65525369Y-39444888D01*
X65892828Y-39444888D01*
X66153924Y-39184878D01*
X66415021Y-38924867D01*
X66601487Y-39105597D01*
X67303621Y-38400354D01*
X67467568Y-38236549D01*
X67619651Y-38086261D01*
X67755151Y-37954025D01*
X67869350Y-37844377D01*
X67957531Y-37761851D01*
X68014974Y-37710983D01*
X68036378Y-37696008D01*
X68082290Y-37712500D01*
X68114900Y-37733309D01*
X68123658Y-37745949D01*
X68121000Y-37766075D01*
X68103567Y-37797425D01*
X68068000Y-37843734D01*
X68010940Y-37908741D01*
X67929028Y-37996183D01*
X67818905Y-38109796D01*
X67677211Y-38253318D01*
X67500588Y-38430486D01*
X67379762Y-38551186D01*
X66596724Y-39332660D01*
X66504818Y-39242805D01*
X66412912Y-39152949D01*
X66195109Y-39369474D01*
X65977307Y-39586000D01*
X65606873Y-39586000D01*
X65378656Y-39811777D01*
X65287395Y-39901304D01*
X65211798Y-39974033D01*
X65160210Y-40022031D01*
X65141164Y-40037531D01*
X65119507Y-40018431D01*
X65063500Y-39964734D01*
X64978634Y-39881829D01*
X64870400Y-39775102D01*
X64744289Y-39649939D01*
X64638000Y-39543935D01*
X64144111Y-39050363D01*
X63946344Y-39050070D01*
X63748576Y-39049777D01*
X63050288Y-38351070D01*
X62887600Y-38187706D01*
X62738345Y-38036718D01*
X62607061Y-37902783D01*
X62498286Y-37790576D01*
X62416555Y-37704774D01*
X62366408Y-37650052D01*
X62352000Y-37631403D01*
X62376826Y-37617530D01*
X62437844Y-37610618D01*
X62450519Y-37610444D01*
X62480508Y-37612946D01*
G37*
X62480508Y-37612946D02*
X62512531Y-37623195D01*
X62551294Y-37645304D01*
X62601506Y-37683387D01*
X62667875Y-37741558D01*
X62755108Y-37823929D01*
X62867914Y-37934615D01*
X63011000Y-38077728D01*
X63177241Y-38245422D01*
X63805444Y-38880400D01*
X64203596Y-38880444D01*
X64664520Y-39346111D01*
X64796055Y-39478242D01*
X64914526Y-39595811D01*
X65014163Y-39693206D01*
X65089195Y-39764820D01*
X65133851Y-39805042D01*
X65143593Y-39811777D01*
X65170162Y-39793014D01*
X65226181Y-39742736D01*
X65301822Y-39669962D01*
X65343555Y-39628333D01*
X65525369Y-39444888D01*
X65892828Y-39444888D01*
X66153924Y-39184878D01*
X66415021Y-38924867D01*
X66601487Y-39105597D01*
X67303621Y-38400354D01*
X67467568Y-38236549D01*
X67619651Y-38086261D01*
X67755151Y-37954025D01*
X67869350Y-37844377D01*
X67957531Y-37761851D01*
X68014974Y-37710983D01*
X68036378Y-37696008D01*
X68082290Y-37712500D01*
X68114900Y-37733309D01*
X68123658Y-37745949D01*
X68121000Y-37766075D01*
X68103567Y-37797425D01*
X68068000Y-37843734D01*
X68010940Y-37908741D01*
X67929028Y-37996183D01*
X67818905Y-38109796D01*
X67677211Y-38253318D01*
X67500588Y-38430486D01*
X67379762Y-38551186D01*
X66596724Y-39332660D01*
X66504818Y-39242805D01*
X66412912Y-39152949D01*
X66195109Y-39369474D01*
X65977307Y-39586000D01*
X65606873Y-39586000D01*
X65378656Y-39811777D01*
X65287395Y-39901304D01*
X65211798Y-39974033D01*
X65160210Y-40022031D01*
X65141164Y-40037531D01*
X65119507Y-40018431D01*
X65063500Y-39964734D01*
X64978634Y-39881829D01*
X64870400Y-39775102D01*
X64744289Y-39649939D01*
X64638000Y-39543935D01*
X64144111Y-39050363D01*
X63946344Y-39050070D01*
X63748576Y-39049777D01*
X63050288Y-38351070D01*
X62887600Y-38187706D01*
X62738345Y-38036718D01*
X62607061Y-37902783D01*
X62498286Y-37790576D01*
X62416555Y-37704774D01*
X62366408Y-37650052D01*
X62352000Y-37631403D01*
X62376826Y-37617530D01*
X62437844Y-37610618D01*
X62450519Y-37610444D01*
X62480508Y-37612946D01*
G36*
X62970273Y-37618361D02*
G01*
X63006648Y-37633787D01*
X63052113Y-37664778D01*
X63112553Y-37716005D01*
X63193852Y-37792143D01*
X63301893Y-37897864D01*
X63442561Y-38037840D01*
X63479462Y-38074686D01*
X63948288Y-38542903D01*
X64130866Y-38544541D01*
X64313444Y-38546180D01*
X64723431Y-38953623D01*
X65133418Y-39361067D01*
X65258474Y-39233644D01*
X65327865Y-39165511D01*
X65381391Y-39127393D01*
X65440420Y-39110575D01*
X65526322Y-39106343D01*
X65570934Y-39106222D01*
X65758338Y-39106222D01*
X66078658Y-38781558D01*
X66398979Y-38456895D01*
X66492783Y-38547813D01*
X66586586Y-38638731D01*
X67103285Y-38122599D01*
X67260317Y-37965972D01*
X67382984Y-37844839D01*
X67476798Y-37754744D01*
X67547271Y-37691232D01*
X67599912Y-37649847D01*
X67640235Y-37626135D01*
X67673751Y-37615640D01*
X67705970Y-37613907D01*
X67730578Y-37615511D01*
X67841173Y-37624555D01*
X67225065Y-38231333D01*
X67071260Y-38382413D01*
X66930157Y-38520257D01*
X66806820Y-38639979D01*
X66706313Y-38736691D01*
X66633700Y-38805506D01*
X66594046Y-38841536D01*
X66588463Y-38845708D01*
X66557438Y-38832383D01*
X66508426Y-38789758D01*
X66501176Y-38782208D01*
X66447695Y-38734033D01*
X66406341Y-38711364D01*
X66403495Y-38711111D01*
X66373416Y-38730140D01*
X66312020Y-38782389D01*
X66227328Y-38860604D01*
X66127365Y-38957527D01*
X66091444Y-38993333D01*
X65810281Y-39275555D01*
X65443970Y-39275555D01*
X65130732Y-39585525D01*
X64694207Y-39148318D01*
X64257683Y-38711111D01*
X63890111Y-38710009D01*
X63340996Y-38167282D01*
X62791880Y-37624555D01*
X62901258Y-37615512D01*
X62937105Y-37613827D01*
X62970273Y-37618361D01*
G37*
X62970273Y-37618361D02*
X63006648Y-37633787D01*
X63052113Y-37664778D01*
X63112553Y-37716005D01*
X63193852Y-37792143D01*
X63301893Y-37897864D01*
X63442561Y-38037840D01*
X63479462Y-38074686D01*
X63948288Y-38542903D01*
X64130866Y-38544541D01*
X64313444Y-38546180D01*
X64723431Y-38953623D01*
X65133418Y-39361067D01*
X65258474Y-39233644D01*
X65327865Y-39165511D01*
X65381391Y-39127393D01*
X65440420Y-39110575D01*
X65526322Y-39106343D01*
X65570934Y-39106222D01*
X65758338Y-39106222D01*
X66078658Y-38781558D01*
X66398979Y-38456895D01*
X66492783Y-38547813D01*
X66586586Y-38638731D01*
X67103285Y-38122599D01*
X67260317Y-37965972D01*
X67382984Y-37844839D01*
X67476798Y-37754744D01*
X67547271Y-37691232D01*
X67599912Y-37649847D01*
X67640235Y-37626135D01*
X67673751Y-37615640D01*
X67705970Y-37613907D01*
X67730578Y-37615511D01*
X67841173Y-37624555D01*
X67225065Y-38231333D01*
X67071260Y-38382413D01*
X66930157Y-38520257D01*
X66806820Y-38639979D01*
X66706313Y-38736691D01*
X66633700Y-38805506D01*
X66594046Y-38841536D01*
X66588463Y-38845708D01*
X66557438Y-38832383D01*
X66508426Y-38789758D01*
X66501176Y-38782208D01*
X66447695Y-38734033D01*
X66406341Y-38711364D01*
X66403495Y-38711111D01*
X66373416Y-38730140D01*
X66312020Y-38782389D01*
X66227328Y-38860604D01*
X66127365Y-38957527D01*
X66091444Y-38993333D01*
X65810281Y-39275555D01*
X65443970Y-39275555D01*
X65130732Y-39585525D01*
X64694207Y-39148318D01*
X64257683Y-38711111D01*
X63890111Y-38710009D01*
X63340996Y-38167282D01*
X62791880Y-37624555D01*
X62901258Y-37615512D01*
X62937105Y-37613827D01*
X62970273Y-37618361D01*
G36*
X67262084Y-37614786D02*
G01*
X67264780Y-37614943D01*
X67378226Y-37621637D01*
X66582778Y-38414777D01*
X66496459Y-38319330D01*
X66410139Y-38223883D01*
X66052844Y-38580386D01*
X65695548Y-38936888D01*
X65510721Y-38936888D01*
X65407021Y-38939366D01*
X65340351Y-38950902D01*
X65291372Y-38977655D01*
X65244778Y-39021555D01*
X65190836Y-39074226D01*
X65153767Y-39103831D01*
X65147775Y-39106190D01*
X65123515Y-39087343D01*
X65065923Y-39035040D01*
X64981714Y-38955606D01*
X64877601Y-38855364D01*
X64773273Y-38753412D01*
X64414658Y-38400666D01*
X64030438Y-38400666D01*
X63656885Y-38026343D01*
X63539429Y-37907514D01*
X63437119Y-37801847D01*
X63356182Y-37715952D01*
X63302846Y-37656440D01*
X63283336Y-37629919D01*
X63283333Y-37629821D01*
X63308166Y-37618446D01*
X63370253Y-37616906D01*
X63396095Y-37618898D01*
X63444274Y-37627293D01*
X63491074Y-37646363D01*
X63544793Y-37682424D01*
X63613729Y-37741792D01*
X63706180Y-37830783D01*
X63805816Y-37930753D01*
X64102775Y-38231333D01*
X64296237Y-38231333D01*
X64399811Y-38232858D01*
X64466880Y-38242636D01*
X64517380Y-38268467D01*
X64571251Y-38318153D01*
X64602756Y-38351277D01*
X64672983Y-38424078D01*
X64768371Y-38520698D01*
X64873568Y-38625656D01*
X64930166Y-38681447D01*
X65144520Y-38891673D01*
X65210579Y-38829614D01*
X65259923Y-38793822D01*
X65322863Y-38774775D01*
X65417637Y-38767918D01*
X65459147Y-38767555D01*
X65641657Y-38767555D01*
X66015710Y-38386555D01*
X66133912Y-38267304D01*
X66239132Y-38163322D01*
X66324856Y-38080868D01*
X66384574Y-38026202D01*
X66411773Y-38005583D01*
X66412073Y-38005555D01*
X66444716Y-38024244D01*
X66494712Y-38069866D01*
X66500666Y-38076111D01*
X66553308Y-38124004D01*
X66593027Y-38146435D01*
X66595561Y-38146666D01*
X66624884Y-38127514D01*
X66685036Y-38075074D01*
X66767856Y-37996865D01*
X66865178Y-37900409D01*
X66887753Y-37877458D01*
X66995289Y-37768507D01*
X67072746Y-37693995D01*
X67129140Y-37647643D01*
X67173484Y-37623176D01*
X67214794Y-37614316D01*
X67262084Y-37614786D01*
G37*
X67262084Y-37614786D02*
X67264780Y-37614943D01*
X67378226Y-37621637D01*
X66582778Y-38414777D01*
X66496459Y-38319330D01*
X66410139Y-38223883D01*
X66052844Y-38580386D01*
X65695548Y-38936888D01*
X65510721Y-38936888D01*
X65407021Y-38939366D01*
X65340351Y-38950902D01*
X65291372Y-38977655D01*
X65244778Y-39021555D01*
X65190836Y-39074226D01*
X65153767Y-39103831D01*
X65147775Y-39106190D01*
X65123515Y-39087343D01*
X65065923Y-39035040D01*
X64981714Y-38955606D01*
X64877601Y-38855364D01*
X64773273Y-38753412D01*
X64414658Y-38400666D01*
X64030438Y-38400666D01*
X63656885Y-38026343D01*
X63539429Y-37907514D01*
X63437119Y-37801847D01*
X63356182Y-37715952D01*
X63302846Y-37656440D01*
X63283336Y-37629919D01*
X63283333Y-37629821D01*
X63308166Y-37618446D01*
X63370253Y-37616906D01*
X63396095Y-37618898D01*
X63444274Y-37627293D01*
X63491074Y-37646363D01*
X63544793Y-37682424D01*
X63613729Y-37741792D01*
X63706180Y-37830783D01*
X63805816Y-37930753D01*
X64102775Y-38231333D01*
X64296237Y-38231333D01*
X64399811Y-38232858D01*
X64466880Y-38242636D01*
X64517380Y-38268467D01*
X64571251Y-38318153D01*
X64602756Y-38351277D01*
X64672983Y-38424078D01*
X64768371Y-38520698D01*
X64873568Y-38625656D01*
X64930166Y-38681447D01*
X65144520Y-38891673D01*
X65210579Y-38829614D01*
X65259923Y-38793822D01*
X65322863Y-38774775D01*
X65417637Y-38767918D01*
X65459147Y-38767555D01*
X65641657Y-38767555D01*
X66015710Y-38386555D01*
X66133912Y-38267304D01*
X66239132Y-38163322D01*
X66324856Y-38080868D01*
X66384574Y-38026202D01*
X66411773Y-38005583D01*
X66412073Y-38005555D01*
X66444716Y-38024244D01*
X66494712Y-38069866D01*
X66500666Y-38076111D01*
X66553308Y-38124004D01*
X66593027Y-38146435D01*
X66595561Y-38146666D01*
X66624884Y-38127514D01*
X66685036Y-38075074D01*
X66767856Y-37996865D01*
X66865178Y-37900409D01*
X66887753Y-37877458D01*
X66995289Y-37768507D01*
X67072746Y-37693995D01*
X67129140Y-37647643D01*
X67173484Y-37623176D01*
X67214794Y-37614316D01*
X67262084Y-37614786D01*
G36*
X66723696Y-37612717D02*
G01*
X66820307Y-37617238D01*
X66880949Y-37625152D01*
X66895778Y-37632764D01*
X66876270Y-37662329D01*
X66826564Y-37715639D01*
X66759887Y-37780377D01*
X66689464Y-37844228D01*
X66628521Y-37894877D01*
X66590284Y-37920006D01*
X66586360Y-37920888D01*
X66555775Y-37902278D01*
X66506844Y-37856821D01*
X66500666Y-37850333D01*
X66451116Y-37802741D01*
X66418005Y-37780083D01*
X66416005Y-37779777D01*
X66391145Y-37798555D01*
X66332213Y-37851012D01*
X66245464Y-37931338D01*
X66137151Y-38033718D01*
X66013531Y-38152341D01*
X65976424Y-38188259D01*
X65555222Y-38596740D01*
X65314776Y-38597481D01*
X65074329Y-38598222D01*
X64540337Y-38062000D01*
X64160263Y-38062000D01*
X63947576Y-37848621D01*
X63860668Y-37760359D01*
X63790913Y-37687480D01*
X63746556Y-37638726D01*
X63734889Y-37623046D01*
X63759894Y-37616348D01*
X63822269Y-37614561D01*
X63846282Y-37615215D01*
X63915876Y-37624729D01*
X63977110Y-37653637D01*
X64047263Y-37711841D01*
X64092166Y-37756123D01*
X64165417Y-37828318D01*
X64220255Y-37869148D01*
X64277785Y-37887552D01*
X64359109Y-37892471D01*
X64414497Y-37892666D01*
X64602338Y-37892666D01*
X64882400Y-38174888D01*
X65162461Y-38457111D01*
X65471261Y-38457111D01*
X65890575Y-38037097D01*
X66309888Y-37617083D01*
X66602833Y-37612404D01*
X66723696Y-37612717D01*
G37*
X66723696Y-37612717D02*
X66820307Y-37617238D01*
X66880949Y-37625152D01*
X66895778Y-37632764D01*
X66876270Y-37662329D01*
X66826564Y-37715639D01*
X66759887Y-37780377D01*
X66689464Y-37844228D01*
X66628521Y-37894877D01*
X66590284Y-37920006D01*
X66586360Y-37920888D01*
X66555775Y-37902278D01*
X66506844Y-37856821D01*
X66500666Y-37850333D01*
X66451116Y-37802741D01*
X66418005Y-37780083D01*
X66416005Y-37779777D01*
X66391145Y-37798555D01*
X66332213Y-37851012D01*
X66245464Y-37931338D01*
X66137151Y-38033718D01*
X66013531Y-38152341D01*
X65976424Y-38188259D01*
X65555222Y-38596740D01*
X65314776Y-38597481D01*
X65074329Y-38598222D01*
X64540337Y-38062000D01*
X64160263Y-38062000D01*
X63947576Y-37848621D01*
X63860668Y-37760359D01*
X63790913Y-37687480D01*
X63746556Y-37638726D01*
X63734889Y-37623046D01*
X63759894Y-37616348D01*
X63822269Y-37614561D01*
X63846282Y-37615215D01*
X63915876Y-37624729D01*
X63977110Y-37653637D01*
X64047263Y-37711841D01*
X64092166Y-37756123D01*
X64165417Y-37828318D01*
X64220255Y-37869148D01*
X64277785Y-37887552D01*
X64359109Y-37892471D01*
X64414497Y-37892666D01*
X64602338Y-37892666D01*
X64882400Y-38174888D01*
X65162461Y-38457111D01*
X65471261Y-38457111D01*
X65890575Y-38037097D01*
X66309888Y-37617083D01*
X66602833Y-37612404D01*
X66723696Y-37612717D01*
G36*
X65045722Y-37864444D02*
G01*
X65145179Y-37959967D01*
X65231460Y-38039086D01*
X65296081Y-38094286D01*
X65330558Y-38118053D01*
X65332501Y-38118444D01*
X65361707Y-38099253D01*
X65421307Y-38046873D01*
X65502880Y-37969096D01*
X65598006Y-37873714D01*
X65607030Y-37864444D01*
X65713213Y-37756896D01*
X65790442Y-37684416D01*
X65847759Y-37640336D01*
X65894208Y-37617985D01*
X65938833Y-37610695D01*
X65951449Y-37610444D01*
X66016315Y-37615938D01*
X66048379Y-37629426D01*
X66049111Y-37632071D01*
X66030105Y-37658370D01*
X65977612Y-37716992D01*
X65898416Y-37800710D01*
X65799300Y-37902297D01*
X65731169Y-37970738D01*
X65592974Y-38107636D01*
X65485586Y-38205761D01*
X65399195Y-38265532D01*
X65323989Y-38287368D01*
X65250156Y-38271688D01*
X65167887Y-38218910D01*
X65067368Y-38129455D01*
X64939610Y-38004551D01*
X64652111Y-37721325D01*
X64476872Y-37726739D01*
X64344963Y-37720849D01*
X64256701Y-37694830D01*
X64216632Y-37650270D01*
X64214666Y-37635211D01*
X64240906Y-37624878D01*
X64311714Y-37616659D01*
X64415225Y-37611580D01*
X64500690Y-37610444D01*
X64786714Y-37610444D01*
X65045722Y-37864444D01*
G37*
X65045722Y-37864444D02*
X65145179Y-37959967D01*
X65231460Y-38039086D01*
X65296081Y-38094286D01*
X65330558Y-38118053D01*
X65332501Y-38118444D01*
X65361707Y-38099253D01*
X65421307Y-38046873D01*
X65502880Y-37969096D01*
X65598006Y-37873714D01*
X65607030Y-37864444D01*
X65713213Y-37756896D01*
X65790442Y-37684416D01*
X65847759Y-37640336D01*
X65894208Y-37617985D01*
X65938833Y-37610695D01*
X65951449Y-37610444D01*
X66016315Y-37615938D01*
X66048379Y-37629426D01*
X66049111Y-37632071D01*
X66030105Y-37658370D01*
X65977612Y-37716992D01*
X65898416Y-37800710D01*
X65799300Y-37902297D01*
X65731169Y-37970738D01*
X65592974Y-38107636D01*
X65485586Y-38205761D01*
X65399195Y-38265532D01*
X65323989Y-38287368D01*
X65250156Y-38271688D01*
X65167887Y-38218910D01*
X65067368Y-38129455D01*
X64939610Y-38004551D01*
X64652111Y-37721325D01*
X64476872Y-37726739D01*
X64344963Y-37720849D01*
X64256701Y-37694830D01*
X64216632Y-37650270D01*
X64214666Y-37635211D01*
X64240906Y-37624878D01*
X64311714Y-37616659D01*
X64415225Y-37611580D01*
X64500690Y-37610444D01*
X64786714Y-37610444D01*
X65045722Y-37864444D01*
G36*
X65311157Y-37614946D02*
G01*
X65430580Y-37616062D01*
X65525600Y-37618579D01*
X65584355Y-37622085D01*
X65597555Y-37624913D01*
X65579789Y-37648564D01*
X65533073Y-37701924D01*
X65467286Y-37773730D01*
X65463135Y-37778179D01*
X65328714Y-37922102D01*
X65176736Y-37768212D01*
X65024758Y-37614323D01*
X65311157Y-37614946D01*
G37*
X65311157Y-37614946D02*
X65430580Y-37616062D01*
X65525600Y-37618579D01*
X65584355Y-37622085D01*
X65597555Y-37624913D01*
X65579789Y-37648564D01*
X65533073Y-37701924D01*
X65467286Y-37773730D01*
X65463135Y-37778179D01*
X65328714Y-37922102D01*
X65176736Y-37768212D01*
X65024758Y-37614323D01*
X65311157Y-37614946D01*
G36*
X65366613Y-34955839D02*
G01*
X65595948Y-35183333D01*
X65972365Y-35183333D01*
X66180626Y-35395000D01*
X66268548Y-35482289D01*
X66342716Y-35552076D01*
X66393907Y-35595909D01*
X66411635Y-35606666D01*
X66444589Y-35587965D01*
X66494746Y-35542319D01*
X66500666Y-35536111D01*
X66551925Y-35488351D01*
X66588688Y-35465818D01*
X66591015Y-35465555D01*
X66616631Y-35484682D01*
X66676662Y-35538619D01*
X66765674Y-35622199D01*
X66878234Y-35730256D01*
X67008908Y-35857622D01*
X67152263Y-35999132D01*
X67154926Y-36001777D01*
X67317066Y-36162404D01*
X67444772Y-36287407D01*
X67543374Y-36381223D01*
X67618201Y-36448287D01*
X67674584Y-36493037D01*
X67717852Y-36519907D01*
X67753335Y-36533336D01*
X67786363Y-36537758D01*
X67799154Y-36538000D01*
X67911388Y-36559651D01*
X67991844Y-36616731D01*
X68039635Y-36697426D01*
X68053876Y-36789923D01*
X68033678Y-36882411D01*
X67978156Y-36963075D01*
X67886424Y-37020104D01*
X67836400Y-37034264D01*
X67769806Y-37037587D01*
X67709244Y-37010892D01*
X67655245Y-36967291D01*
X67593570Y-36902651D01*
X67567936Y-36840735D01*
X67565991Y-36790168D01*
X67744920Y-36790168D01*
X67758821Y-36837977D01*
X67772386Y-36849507D01*
X67830680Y-36861118D01*
X67871209Y-36829160D01*
X67877992Y-36781352D01*
X67848901Y-36730879D01*
X67813386Y-36721444D01*
X67765819Y-36742858D01*
X67744920Y-36790168D01*
X67565991Y-36790168D01*
X67565291Y-36771984D01*
X67565292Y-36735995D01*
X67559088Y-36702191D01*
X67542037Y-36664825D01*
X67509498Y-36618151D01*
X67456827Y-36556422D01*
X67379382Y-36473892D01*
X67272521Y-36364815D01*
X67131601Y-36223443D01*
X67082560Y-36174444D01*
X66595403Y-35687884D01*
X66505136Y-35780211D01*
X66414870Y-35872537D01*
X66153849Y-35612602D01*
X65892828Y-35352666D01*
X65520456Y-35352666D01*
X65332675Y-35163030D01*
X65144893Y-34973394D01*
X64672422Y-35445252D01*
X64199950Y-35917111D01*
X63807931Y-35917111D01*
X63157577Y-36566054D01*
X62507222Y-37214998D01*
X65305258Y-37215165D01*
X65769100Y-37215118D01*
X66179681Y-37214884D01*
X66540187Y-37214416D01*
X66853802Y-37213667D01*
X67123710Y-37212588D01*
X67353095Y-37211132D01*
X67545143Y-37209251D01*
X67703036Y-37206897D01*
X67829960Y-37204023D01*
X67929099Y-37200581D01*
X68003637Y-37196522D01*
X68056758Y-37191800D01*
X68091648Y-37186367D01*
X68111490Y-37180174D01*
X68119468Y-37173174D01*
X68119555Y-37172958D01*
X68154303Y-37133594D01*
X68218894Y-37091298D01*
X68232423Y-37084514D01*
X68298246Y-37057296D01*
X68348721Y-37055393D01*
X68412144Y-37079790D01*
X68436366Y-37091611D01*
X68532579Y-37165037D01*
X68580203Y-37259558D01*
X68577459Y-37364726D01*
X68522566Y-37470092D01*
X68504437Y-37491061D01*
X68418622Y-37546088D01*
X68317852Y-37553174D01*
X68215558Y-37513167D01*
X68161564Y-37469461D01*
X68077026Y-37384923D01*
X65099750Y-37377739D01*
X62122475Y-37370555D01*
X62176832Y-37315864D01*
X68252873Y-37315864D01*
X68275500Y-37360293D01*
X68327297Y-37380484D01*
X68342040Y-37379590D01*
X68395238Y-37351585D01*
X68405666Y-37314497D01*
X68383237Y-37266074D01*
X68332572Y-37245405D01*
X68278608Y-37261302D01*
X68271921Y-37267234D01*
X68252873Y-37315864D01*
X62176832Y-37315864D01*
X62944428Y-36543560D01*
X63766382Y-35716566D01*
X63941135Y-35728944D01*
X64115889Y-35741322D01*
X64626583Y-35234833D01*
X65137277Y-34728345D01*
X65366613Y-34955839D01*
G37*
X65366613Y-34955839D02*
X65595948Y-35183333D01*
X65972365Y-35183333D01*
X66180626Y-35395000D01*
X66268548Y-35482289D01*
X66342716Y-35552076D01*
X66393907Y-35595909D01*
X66411635Y-35606666D01*
X66444589Y-35587965D01*
X66494746Y-35542319D01*
X66500666Y-35536111D01*
X66551925Y-35488351D01*
X66588688Y-35465818D01*
X66591015Y-35465555D01*
X66616631Y-35484682D01*
X66676662Y-35538619D01*
X66765674Y-35622199D01*
X66878234Y-35730256D01*
X67008908Y-35857622D01*
X67152263Y-35999132D01*
X67154926Y-36001777D01*
X67317066Y-36162404D01*
X67444772Y-36287407D01*
X67543374Y-36381223D01*
X67618201Y-36448287D01*
X67674584Y-36493037D01*
X67717852Y-36519907D01*
X67753335Y-36533336D01*
X67786363Y-36537758D01*
X67799154Y-36538000D01*
X67911388Y-36559651D01*
X67991844Y-36616731D01*
X68039635Y-36697426D01*
X68053876Y-36789923D01*
X68033678Y-36882411D01*
X67978156Y-36963075D01*
X67886424Y-37020104D01*
X67836400Y-37034264D01*
X67769806Y-37037587D01*
X67709244Y-37010892D01*
X67655245Y-36967291D01*
X67593570Y-36902651D01*
X67567936Y-36840735D01*
X67565991Y-36790168D01*
X67744920Y-36790168D01*
X67758821Y-36837977D01*
X67772386Y-36849507D01*
X67830680Y-36861118D01*
X67871209Y-36829160D01*
X67877992Y-36781352D01*
X67848901Y-36730879D01*
X67813386Y-36721444D01*
X67765819Y-36742858D01*
X67744920Y-36790168D01*
X67565991Y-36790168D01*
X67565291Y-36771984D01*
X67565292Y-36735995D01*
X67559088Y-36702191D01*
X67542037Y-36664825D01*
X67509498Y-36618151D01*
X67456827Y-36556422D01*
X67379382Y-36473892D01*
X67272521Y-36364815D01*
X67131601Y-36223443D01*
X67082560Y-36174444D01*
X66595403Y-35687884D01*
X66505136Y-35780211D01*
X66414870Y-35872537D01*
X66153849Y-35612602D01*
X65892828Y-35352666D01*
X65520456Y-35352666D01*
X65332675Y-35163030D01*
X65144893Y-34973394D01*
X64672422Y-35445252D01*
X64199950Y-35917111D01*
X63807931Y-35917111D01*
X63157577Y-36566054D01*
X62507222Y-37214998D01*
X65305258Y-37215165D01*
X65769100Y-37215118D01*
X66179681Y-37214884D01*
X66540187Y-37214416D01*
X66853802Y-37213667D01*
X67123710Y-37212588D01*
X67353095Y-37211132D01*
X67545143Y-37209251D01*
X67703036Y-37206897D01*
X67829960Y-37204023D01*
X67929099Y-37200581D01*
X68003637Y-37196522D01*
X68056758Y-37191800D01*
X68091648Y-37186367D01*
X68111490Y-37180174D01*
X68119468Y-37173174D01*
X68119555Y-37172958D01*
X68154303Y-37133594D01*
X68218894Y-37091298D01*
X68232423Y-37084514D01*
X68298246Y-37057296D01*
X68348721Y-37055393D01*
X68412144Y-37079790D01*
X68436366Y-37091611D01*
X68532579Y-37165037D01*
X68580203Y-37259558D01*
X68577459Y-37364726D01*
X68522566Y-37470092D01*
X68504437Y-37491061D01*
X68418622Y-37546088D01*
X68317852Y-37553174D01*
X68215558Y-37513167D01*
X68161564Y-37469461D01*
X68077026Y-37384923D01*
X65099750Y-37377739D01*
X62122475Y-37370555D01*
X62176832Y-37315864D01*
X68252873Y-37315864D01*
X68275500Y-37360293D01*
X68327297Y-37380484D01*
X68342040Y-37379590D01*
X68395238Y-37351585D01*
X68405666Y-37314497D01*
X68383237Y-37266074D01*
X68332572Y-37245405D01*
X68278608Y-37261302D01*
X68271921Y-37267234D01*
X68252873Y-37315864D01*
X62176832Y-37315864D01*
X62944428Y-36543560D01*
X63766382Y-35716566D01*
X63941135Y-35728944D01*
X64115889Y-35741322D01*
X64626583Y-35234833D01*
X65137277Y-34728345D01*
X65366613Y-34955839D01*
G36*
X65242877Y-36105784D02*
G01*
X65319512Y-36162280D01*
X65369601Y-36243864D01*
X65382748Y-36343286D01*
X65356613Y-36437455D01*
X65289199Y-36522822D01*
X65196377Y-36569141D01*
X65094088Y-36574022D01*
X64998274Y-36535076D01*
X64956853Y-36497355D01*
X64932018Y-36470250D01*
X64905391Y-36450946D01*
X64867638Y-36438120D01*
X64809426Y-36430447D01*
X64721418Y-36426604D01*
X64594281Y-36425267D01*
X64447526Y-36425111D01*
X64000344Y-36425111D01*
X63890157Y-36537952D01*
X63825072Y-36610648D01*
X63793289Y-36669343D01*
X63784838Y-36736278D01*
X63785779Y-36770785D01*
X63775291Y-36886515D01*
X63726616Y-36965828D01*
X63639029Y-37016668D01*
X63573180Y-37038803D01*
X63528504Y-37040520D01*
X63480889Y-37026068D01*
X63388969Y-36968864D01*
X63333506Y-36886540D01*
X63312963Y-36791667D01*
X63313165Y-36790168D01*
X63483364Y-36790168D01*
X63497265Y-36837977D01*
X63510830Y-36849507D01*
X63569125Y-36861118D01*
X63609653Y-36829160D01*
X63616436Y-36781352D01*
X63587346Y-36730879D01*
X63551831Y-36721444D01*
X63504263Y-36742858D01*
X63483364Y-36790168D01*
X63313165Y-36790168D01*
X63325804Y-36696817D01*
X63370490Y-36614565D01*
X63445486Y-36557481D01*
X63540554Y-36538000D01*
X63600231Y-36528357D01*
X63664286Y-36494207D01*
X63745597Y-36427715D01*
X63790258Y-36386100D01*
X63853286Y-36325981D01*
X65065647Y-36325981D01*
X65072858Y-36357992D01*
X65106817Y-36390838D01*
X65152699Y-36384517D01*
X65189406Y-36345641D01*
X65197351Y-36318989D01*
X65191781Y-36269261D01*
X65149628Y-36255777D01*
X65086335Y-36275042D01*
X65065647Y-36325981D01*
X63853286Y-36325981D01*
X63949508Y-36234201D01*
X64417157Y-36233192D01*
X64589571Y-36232583D01*
X64714808Y-36230769D01*
X64802134Y-36226486D01*
X64860817Y-36218465D01*
X64900123Y-36205441D01*
X64929319Y-36186147D01*
X64957674Y-36159316D01*
X64957676Y-36159313D01*
X65051561Y-36097051D01*
X65150094Y-36081625D01*
X65242877Y-36105784D01*
G37*
X65242877Y-36105784D02*
X65319512Y-36162280D01*
X65369601Y-36243864D01*
X65382748Y-36343286D01*
X65356613Y-36437455D01*
X65289199Y-36522822D01*
X65196377Y-36569141D01*
X65094088Y-36574022D01*
X64998274Y-36535076D01*
X64956853Y-36497355D01*
X64932018Y-36470250D01*
X64905391Y-36450946D01*
X64867638Y-36438120D01*
X64809426Y-36430447D01*
X64721418Y-36426604D01*
X64594281Y-36425267D01*
X64447526Y-36425111D01*
X64000344Y-36425111D01*
X63890157Y-36537952D01*
X63825072Y-36610648D01*
X63793289Y-36669343D01*
X63784838Y-36736278D01*
X63785779Y-36770785D01*
X63775291Y-36886515D01*
X63726616Y-36965828D01*
X63639029Y-37016668D01*
X63573180Y-37038803D01*
X63528504Y-37040520D01*
X63480889Y-37026068D01*
X63388969Y-36968864D01*
X63333506Y-36886540D01*
X63312963Y-36791667D01*
X63313165Y-36790168D01*
X63483364Y-36790168D01*
X63497265Y-36837977D01*
X63510830Y-36849507D01*
X63569125Y-36861118D01*
X63609653Y-36829160D01*
X63616436Y-36781352D01*
X63587346Y-36730879D01*
X63551831Y-36721444D01*
X63504263Y-36742858D01*
X63483364Y-36790168D01*
X63313165Y-36790168D01*
X63325804Y-36696817D01*
X63370490Y-36614565D01*
X63445486Y-36557481D01*
X63540554Y-36538000D01*
X63600231Y-36528357D01*
X63664286Y-36494207D01*
X63745597Y-36427715D01*
X63790258Y-36386100D01*
X63853286Y-36325981D01*
X65065647Y-36325981D01*
X65072858Y-36357992D01*
X65106817Y-36390838D01*
X65152699Y-36384517D01*
X65189406Y-36345641D01*
X65197351Y-36318989D01*
X65191781Y-36269261D01*
X65149628Y-36255777D01*
X65086335Y-36275042D01*
X65065647Y-36325981D01*
X63853286Y-36325981D01*
X63949508Y-36234201D01*
X64417157Y-36233192D01*
X64589571Y-36232583D01*
X64714808Y-36230769D01*
X64802134Y-36226486D01*
X64860817Y-36218465D01*
X64900123Y-36205441D01*
X64929319Y-36186147D01*
X64957674Y-36159316D01*
X64957676Y-36159313D01*
X65051561Y-36097051D01*
X65150094Y-36081625D01*
X65242877Y-36105784D01*
G36*
X64426039Y-36582984D02*
G01*
X64473008Y-36622666D01*
X64557675Y-36707333D01*
X65762547Y-36707333D01*
X65847213Y-36622666D01*
X65942088Y-36557956D01*
X66039147Y-36540321D01*
X66129719Y-36561830D01*
X66205132Y-36614552D01*
X66256717Y-36690554D01*
X66275800Y-36781905D01*
X66253711Y-36880673D01*
X66207328Y-36952062D01*
X66120534Y-37015513D01*
X66017936Y-37036161D01*
X65917319Y-37013930D01*
X65840253Y-36953636D01*
X65778879Y-36876666D01*
X65151995Y-36876666D01*
X64925383Y-36877939D01*
X64747441Y-36881697D01*
X64620175Y-36887849D01*
X64545590Y-36896302D01*
X64525111Y-36905303D01*
X64502214Y-36938607D01*
X64446766Y-36980646D01*
X64378628Y-37019212D01*
X64317662Y-37042094D01*
X64299333Y-37044105D01*
X64239398Y-37032457D01*
X64196519Y-37018015D01*
X64109213Y-36955889D01*
X64059122Y-36864841D01*
X64051063Y-36779743D01*
X64222075Y-36779743D01*
X64243187Y-36834692D01*
X64276214Y-36869754D01*
X64302545Y-36866816D01*
X64340625Y-36831343D01*
X64369584Y-36786399D01*
X65967164Y-36786399D01*
X65974650Y-36834333D01*
X66007704Y-36873404D01*
X66053586Y-36858556D01*
X66077035Y-36834692D01*
X66098470Y-36778317D01*
X66081502Y-36728293D01*
X66035000Y-36707333D01*
X65987772Y-36730728D01*
X65967164Y-36786399D01*
X64369584Y-36786399D01*
X64369674Y-36786260D01*
X64353296Y-36746676D01*
X64304791Y-36712494D01*
X64280881Y-36707333D01*
X64236865Y-36729350D01*
X64222075Y-36779743D01*
X64051063Y-36779743D01*
X64049274Y-36760861D01*
X64082696Y-36659938D01*
X64119737Y-36612404D01*
X64217015Y-36548656D01*
X64321804Y-36538927D01*
X64426039Y-36582984D01*
G37*
X64426039Y-36582984D02*
X64473008Y-36622666D01*
X64557675Y-36707333D01*
X65762547Y-36707333D01*
X65847213Y-36622666D01*
X65942088Y-36557956D01*
X66039147Y-36540321D01*
X66129719Y-36561830D01*
X66205132Y-36614552D01*
X66256717Y-36690554D01*
X66275800Y-36781905D01*
X66253711Y-36880673D01*
X66207328Y-36952062D01*
X66120534Y-37015513D01*
X66017936Y-37036161D01*
X65917319Y-37013930D01*
X65840253Y-36953636D01*
X65778879Y-36876666D01*
X65151995Y-36876666D01*
X64925383Y-36877939D01*
X64747441Y-36881697D01*
X64620175Y-36887849D01*
X64545590Y-36896302D01*
X64525111Y-36905303D01*
X64502214Y-36938607D01*
X64446766Y-36980646D01*
X64378628Y-37019212D01*
X64317662Y-37042094D01*
X64299333Y-37044105D01*
X64239398Y-37032457D01*
X64196519Y-37018015D01*
X64109213Y-36955889D01*
X64059122Y-36864841D01*
X64051063Y-36779743D01*
X64222075Y-36779743D01*
X64243187Y-36834692D01*
X64276214Y-36869754D01*
X64302545Y-36866816D01*
X64340625Y-36831343D01*
X64369584Y-36786399D01*
X65967164Y-36786399D01*
X65974650Y-36834333D01*
X66007704Y-36873404D01*
X66053586Y-36858556D01*
X66077035Y-36834692D01*
X66098470Y-36778317D01*
X66081502Y-36728293D01*
X66035000Y-36707333D01*
X65987772Y-36730728D01*
X65967164Y-36786399D01*
X64369584Y-36786399D01*
X64369674Y-36786260D01*
X64353296Y-36746676D01*
X64304791Y-36712494D01*
X64280881Y-36707333D01*
X64236865Y-36729350D01*
X64222075Y-36779743D01*
X64051063Y-36779743D01*
X64049274Y-36760861D01*
X64082696Y-36659938D01*
X64119737Y-36612404D01*
X64217015Y-36548656D01*
X64321804Y-36538927D01*
X64426039Y-36582984D01*
G36*
X65215450Y-35352425D02*
G01*
X65223594Y-35354989D01*
X65309859Y-35409552D01*
X65367700Y-35496338D01*
X65386105Y-35595839D01*
X65380472Y-35632912D01*
X65380190Y-35668929D01*
X65401212Y-35713881D01*
X65449437Y-35775997D01*
X65530762Y-35863509D01*
X65585900Y-35919581D01*
X65807898Y-36142888D01*
X66670000Y-36142888D01*
X66670000Y-36425111D01*
X66670475Y-36553191D01*
X66673564Y-36635131D01*
X66681765Y-36681235D01*
X66697574Y-36701806D01*
X66723488Y-36707151D01*
X66738384Y-36707333D01*
X66802787Y-36687440D01*
X66875749Y-36637369D01*
X66891436Y-36622666D01*
X66984811Y-36559284D01*
X67081240Y-36541839D01*
X67171983Y-36562579D01*
X67248297Y-36613752D01*
X67301443Y-36687604D01*
X67322681Y-36776383D01*
X67303269Y-36872337D01*
X67255611Y-36945678D01*
X67160853Y-37016382D01*
X67052943Y-37033802D01*
X66940494Y-36996734D01*
X66931055Y-36991065D01*
X66871818Y-36947355D01*
X66840708Y-36911099D01*
X66839333Y-36905303D01*
X66813513Y-36889763D01*
X66745522Y-36879481D01*
X66671022Y-36876666D01*
X66502710Y-36876666D01*
X66500354Y-36796370D01*
X67012425Y-36796370D01*
X67032306Y-36844364D01*
X67041167Y-36851097D01*
X67088939Y-36854604D01*
X67129188Y-36821146D01*
X67143935Y-36769229D01*
X67139611Y-36749769D01*
X67101029Y-36714634D01*
X67072576Y-36712627D01*
X67027871Y-36743540D01*
X67012425Y-36796370D01*
X66500354Y-36796370D01*
X66494633Y-36601500D01*
X66486555Y-36326333D01*
X66112190Y-36318455D01*
X65737825Y-36310578D01*
X65493866Y-36071511D01*
X65388176Y-35969469D01*
X65311858Y-35901274D01*
X65255009Y-35860230D01*
X65207726Y-35839644D01*
X65160107Y-35832821D01*
X65140226Y-35832444D01*
X65029477Y-35810358D01*
X64949775Y-35752140D01*
X64902780Y-35669850D01*
X64892383Y-35592203D01*
X65065647Y-35592203D01*
X65072858Y-35624215D01*
X65106817Y-35657060D01*
X65152699Y-35650739D01*
X65189406Y-35611863D01*
X65197351Y-35585211D01*
X65191781Y-35535483D01*
X65149628Y-35522000D01*
X65086335Y-35541264D01*
X65065647Y-35592203D01*
X64892383Y-35592203D01*
X64890152Y-35575546D01*
X64913552Y-35481290D01*
X64974641Y-35399140D01*
X65072696Y-35341993D01*
X65135081Y-35337611D01*
X65215450Y-35352425D01*
G37*
X65215450Y-35352425D02*
X65223594Y-35354989D01*
X65309859Y-35409552D01*
X65367700Y-35496338D01*
X65386105Y-35595839D01*
X65380472Y-35632912D01*
X65380190Y-35668929D01*
X65401212Y-35713881D01*
X65449437Y-35775997D01*
X65530762Y-35863509D01*
X65585900Y-35919581D01*
X65807898Y-36142888D01*
X66670000Y-36142888D01*
X66670000Y-36425111D01*
X66670475Y-36553191D01*
X66673564Y-36635131D01*
X66681765Y-36681235D01*
X66697574Y-36701806D01*
X66723488Y-36707151D01*
X66738384Y-36707333D01*
X66802787Y-36687440D01*
X66875749Y-36637369D01*
X66891436Y-36622666D01*
X66984811Y-36559284D01*
X67081240Y-36541839D01*
X67171983Y-36562579D01*
X67248297Y-36613752D01*
X67301443Y-36687604D01*
X67322681Y-36776383D01*
X67303269Y-36872337D01*
X67255611Y-36945678D01*
X67160853Y-37016382D01*
X67052943Y-37033802D01*
X66940494Y-36996734D01*
X66931055Y-36991065D01*
X66871818Y-36947355D01*
X66840708Y-36911099D01*
X66839333Y-36905303D01*
X66813513Y-36889763D01*
X66745522Y-36879481D01*
X66671022Y-36876666D01*
X66502710Y-36876666D01*
X66500354Y-36796370D01*
X67012425Y-36796370D01*
X67032306Y-36844364D01*
X67041167Y-36851097D01*
X67088939Y-36854604D01*
X67129188Y-36821146D01*
X67143935Y-36769229D01*
X67139611Y-36749769D01*
X67101029Y-36714634D01*
X67072576Y-36712627D01*
X67027871Y-36743540D01*
X67012425Y-36796370D01*
X66500354Y-36796370D01*
X66494633Y-36601500D01*
X66486555Y-36326333D01*
X66112190Y-36318455D01*
X65737825Y-36310578D01*
X65493866Y-36071511D01*
X65388176Y-35969469D01*
X65311858Y-35901274D01*
X65255009Y-35860230D01*
X65207726Y-35839644D01*
X65160107Y-35832821D01*
X65140226Y-35832444D01*
X65029477Y-35810358D01*
X64949775Y-35752140D01*
X64902780Y-35669850D01*
X64892383Y-35592203D01*
X65065647Y-35592203D01*
X65072858Y-35624215D01*
X65106817Y-35657060D01*
X65152699Y-35650739D01*
X65189406Y-35611863D01*
X65197351Y-35585211D01*
X65191781Y-35535483D01*
X65149628Y-35522000D01*
X65086335Y-35541264D01*
X65065647Y-35592203D01*
X64892383Y-35592203D01*
X64890152Y-35575546D01*
X64913552Y-35481290D01*
X64974641Y-35399140D01*
X65072696Y-35341993D01*
X65135081Y-35337611D01*
X65215450Y-35352425D01*
G36*
X66643465Y-34459854D02*
G01*
X66743807Y-34519657D01*
X66756837Y-34532051D01*
X66824798Y-34631727D01*
X66842992Y-34734719D01*
X66815222Y-34829302D01*
X66745289Y-34903754D01*
X66636996Y-34946351D01*
X66621685Y-34948755D01*
X66539700Y-34953802D01*
X66481987Y-34934458D01*
X66419535Y-34880762D01*
X66417362Y-34878593D01*
X66350685Y-34790882D01*
X66337012Y-34713692D01*
X66516467Y-34713692D01*
X66536738Y-34756560D01*
X66592611Y-34786573D01*
X66639304Y-34767085D01*
X66652961Y-34743342D01*
X66656888Y-34681435D01*
X66614090Y-34649841D01*
X66586687Y-34647111D01*
X66534283Y-34667553D01*
X66516467Y-34713692D01*
X66337012Y-34713692D01*
X66335201Y-34703471D01*
X66368566Y-34600770D01*
X66373959Y-34590101D01*
X66447977Y-34496677D01*
X66541334Y-34452727D01*
X66643465Y-34459854D01*
G37*
X66643465Y-34459854D02*
X66743807Y-34519657D01*
X66756837Y-34532051D01*
X66824798Y-34631727D01*
X66842992Y-34734719D01*
X66815222Y-34829302D01*
X66745289Y-34903754D01*
X66636996Y-34946351D01*
X66621685Y-34948755D01*
X66539700Y-34953802D01*
X66481987Y-34934458D01*
X66419535Y-34880762D01*
X66417362Y-34878593D01*
X66350685Y-34790882D01*
X66337012Y-34713692D01*
X66516467Y-34713692D01*
X66536738Y-34756560D01*
X66592611Y-34786573D01*
X66639304Y-34767085D01*
X66652961Y-34743342D01*
X66656888Y-34681435D01*
X66614090Y-34649841D01*
X66586687Y-34647111D01*
X66534283Y-34667553D01*
X66516467Y-34713692D01*
X66337012Y-34713692D01*
X66335201Y-34703471D01*
X66368566Y-34600770D01*
X66373959Y-34590101D01*
X66447977Y-34496677D01*
X66541334Y-34452727D01*
X66643465Y-34459854D01*
D11*
G36*
X54881606Y-63308562D02*
G01*
X55400455Y-63523476D01*
X55759761Y-63763557D01*
X55867406Y-63835483D01*
X56264517Y-64232594D01*
X56308888Y-64299000D01*
X56576524Y-64699545D01*
X56791438Y-65218394D01*
X56839101Y-65458012D01*
X56877993Y-65653534D01*
X56901000Y-65769201D01*
X56901000Y-66330799D01*
X56791438Y-66881606D01*
X56576524Y-67400455D01*
X56481896Y-67542075D01*
X56292814Y-67825057D01*
X56264516Y-67867407D01*
X55867407Y-68264516D01*
X55400455Y-68576524D01*
X54881606Y-68791438D01*
X54657577Y-68836000D01*
X54330800Y-68901000D01*
X53769200Y-68901000D01*
X53442423Y-68836000D01*
X53218394Y-68791438D01*
X52699545Y-68576524D01*
X52232593Y-68264516D01*
X51835484Y-67867407D01*
X51807187Y-67825057D01*
X51618104Y-67542075D01*
X51523476Y-67400455D01*
X51308562Y-66881606D01*
X51199000Y-66330799D01*
X51199000Y-65769201D01*
X51222008Y-65653534D01*
X51260899Y-65458012D01*
X51308562Y-65218394D01*
X51523476Y-64699545D01*
X51791112Y-64299000D01*
X51835483Y-64232594D01*
X52232594Y-63835483D01*
X52340239Y-63763557D01*
X52699545Y-63523476D01*
X53218394Y-63308562D01*
X53769200Y-63199000D01*
X54330800Y-63199000D01*
X54881606Y-63308562D01*
G37*
G36*
X67110098Y-67490362D02*
G01*
X67234941Y-67542074D01*
X67234943Y-67542075D01*
X67347299Y-67617149D01*
X67442851Y-67712701D01*
X67517926Y-67825059D01*
X67569638Y-67949902D01*
X67596000Y-68082434D01*
X67596000Y-68217566D01*
X67569638Y-68350098D01*
X67517926Y-68474941D01*
X67517925Y-68474943D01*
X67442851Y-68587299D01*
X67347299Y-68682851D01*
X67234943Y-68757925D01*
X67234942Y-68757926D01*
X67234941Y-68757926D01*
X67110098Y-68809638D01*
X66977566Y-68836000D01*
X66842434Y-68836000D01*
X66709902Y-68809638D01*
X66585059Y-68757926D01*
X66585058Y-68757926D01*
X66585057Y-68757925D01*
X66472701Y-68682851D01*
X66377149Y-68587299D01*
X66302075Y-68474943D01*
X66302074Y-68474941D01*
X66250362Y-68350098D01*
X66224000Y-68217566D01*
X66224000Y-68082434D01*
X66250362Y-67949902D01*
X66302074Y-67825059D01*
X66377149Y-67712701D01*
X66472701Y-67617149D01*
X66585057Y-67542075D01*
X66585059Y-67542074D01*
X66709902Y-67490362D01*
X66842434Y-67464000D01*
X66977566Y-67464000D01*
X67110098Y-67490362D01*
G37*
G36*
X72635442Y-65105518D02*
G01*
X72701627Y-65112037D01*
X72871466Y-65163557D01*
X73027991Y-65247222D01*
X73063729Y-65276552D01*
X73165186Y-65359814D01*
X73245774Y-65458012D01*
X73277778Y-65497009D01*
X73361443Y-65653534D01*
X73412963Y-65823373D01*
X73430359Y-66000000D01*
X73412963Y-66176627D01*
X73361443Y-66346466D01*
X73277778Y-66502991D01*
X73248448Y-66538729D01*
X73165186Y-66640186D01*
X73063729Y-66723448D01*
X73027991Y-66752778D01*
X72871466Y-66836443D01*
X72701627Y-66887963D01*
X72635443Y-66894481D01*
X72569260Y-66901000D01*
X72230740Y-66901000D01*
X72164557Y-66894481D01*
X72098373Y-66887963D01*
X71928534Y-66836443D01*
X71772009Y-66752778D01*
X71736271Y-66723448D01*
X71634814Y-66640186D01*
X71551552Y-66538729D01*
X71522222Y-66502991D01*
X71438557Y-66346466D01*
X71387037Y-66176627D01*
X71369641Y-66000000D01*
X71387037Y-65823373D01*
X71438557Y-65653534D01*
X71522222Y-65497009D01*
X71554226Y-65458012D01*
X71634814Y-65359814D01*
X71736271Y-65276552D01*
X71772009Y-65247222D01*
X71928534Y-65163557D01*
X72098373Y-65112037D01*
X72164558Y-65105518D01*
X72230740Y-65099000D01*
X72569260Y-65099000D01*
X72635442Y-65105518D01*
G37*
G36*
X79635442Y-65105518D02*
G01*
X79701627Y-65112037D01*
X79871466Y-65163557D01*
X80027991Y-65247222D01*
X80063729Y-65276552D01*
X80165186Y-65359814D01*
X80245774Y-65458012D01*
X80277778Y-65497009D01*
X80361443Y-65653534D01*
X80412963Y-65823373D01*
X80430359Y-66000000D01*
X80412963Y-66176627D01*
X80361443Y-66346466D01*
X80277778Y-66502991D01*
X80248448Y-66538729D01*
X80165186Y-66640186D01*
X80063729Y-66723448D01*
X80027991Y-66752778D01*
X79871466Y-66836443D01*
X79701627Y-66887963D01*
X79635443Y-66894481D01*
X79569260Y-66901000D01*
X79230740Y-66901000D01*
X79164557Y-66894481D01*
X79098373Y-66887963D01*
X78928534Y-66836443D01*
X78772009Y-66752778D01*
X78736271Y-66723448D01*
X78634814Y-66640186D01*
X78551552Y-66538729D01*
X78522222Y-66502991D01*
X78438557Y-66346466D01*
X78387037Y-66176627D01*
X78369641Y-66000000D01*
X78387037Y-65823373D01*
X78438557Y-65653534D01*
X78522222Y-65497009D01*
X78554226Y-65458012D01*
X78634814Y-65359814D01*
X78736271Y-65276552D01*
X78772009Y-65247222D01*
X78928534Y-65163557D01*
X79098373Y-65112037D01*
X79164558Y-65105518D01*
X79230740Y-65099000D01*
X79569260Y-65099000D01*
X79635442Y-65105518D01*
G37*
G36*
X68110721Y-65510174D02*
G01*
X68210995Y-65551709D01*
X68210996Y-65551710D01*
X68301242Y-65612010D01*
X68377990Y-65688758D01*
X68377991Y-65688760D01*
X68438291Y-65779005D01*
X68479826Y-65879279D01*
X68501000Y-65985730D01*
X68501000Y-66094270D01*
X68479826Y-66200721D01*
X68438291Y-66300995D01*
X68418376Y-66330800D01*
X68377990Y-66391242D01*
X68301242Y-66467990D01*
X68255812Y-66498345D01*
X68210995Y-66528291D01*
X68110721Y-66569826D01*
X68004270Y-66591000D01*
X67895730Y-66591000D01*
X67789279Y-66569826D01*
X67689005Y-66528291D01*
X67644188Y-66498345D01*
X67598758Y-66467990D01*
X67522010Y-66391242D01*
X67481624Y-66330800D01*
X67461709Y-66300995D01*
X67420174Y-66200721D01*
X67399000Y-66094270D01*
X67399000Y-65985730D01*
X67420174Y-65879279D01*
X67461709Y-65779005D01*
X67522009Y-65688760D01*
X67522010Y-65688758D01*
X67598758Y-65612010D01*
X67689004Y-65551710D01*
X67689005Y-65551709D01*
X67789279Y-65510174D01*
X67895730Y-65489000D01*
X68004270Y-65489000D01*
X68110721Y-65510174D01*
G37*
G36*
X62110721Y-65510174D02*
G01*
X62210995Y-65551709D01*
X62210996Y-65551710D01*
X62301242Y-65612010D01*
X62377990Y-65688758D01*
X62377991Y-65688760D01*
X62438291Y-65779005D01*
X62479826Y-65879279D01*
X62501000Y-65985730D01*
X62501000Y-66094270D01*
X62479826Y-66200721D01*
X62438291Y-66300995D01*
X62418376Y-66330800D01*
X62377990Y-66391242D01*
X62301242Y-66467990D01*
X62255812Y-66498345D01*
X62210995Y-66528291D01*
X62110721Y-66569826D01*
X62004270Y-66591000D01*
X61895730Y-66591000D01*
X61789279Y-66569826D01*
X61689005Y-66528291D01*
X61644188Y-66498345D01*
X61598758Y-66467990D01*
X61522010Y-66391242D01*
X61481624Y-66330800D01*
X61461709Y-66300995D01*
X61420174Y-66200721D01*
X61399000Y-66094270D01*
X61399000Y-65985730D01*
X61420174Y-65879279D01*
X61461709Y-65779005D01*
X61522009Y-65688760D01*
X61522010Y-65688758D01*
X61598758Y-65612010D01*
X61689004Y-65551710D01*
X61689005Y-65551709D01*
X61789279Y-65510174D01*
X61895730Y-65489000D01*
X62004270Y-65489000D01*
X62110721Y-65510174D01*
G37*
G36*
X65210442Y-63705518D02*
G01*
X65276627Y-63712037D01*
X65446466Y-63763557D01*
X65602991Y-63847222D01*
X65638729Y-63876552D01*
X65740186Y-63959814D01*
X65823448Y-64061271D01*
X65852778Y-64097009D01*
X65852779Y-64097011D01*
X65936040Y-64252779D01*
X65936443Y-64253534D01*
X65987963Y-64423373D01*
X65987963Y-64423375D01*
X66005359Y-64600000D01*
X65987963Y-64776628D01*
X65971879Y-64829648D01*
X65967098Y-64853682D01*
X65967098Y-64878186D01*
X65971876Y-64902211D01*
X65999410Y-64992977D01*
X66014875Y-65150000D01*
X65999410Y-65307023D01*
X65968875Y-65407682D01*
X65953608Y-65458013D01*
X65879229Y-65597165D01*
X65779133Y-65719133D01*
X65657165Y-65819229D01*
X65518013Y-65893608D01*
X65493644Y-65901000D01*
X65367023Y-65939410D01*
X65288571Y-65947137D01*
X65249346Y-65951000D01*
X64650654Y-65951000D01*
X64611429Y-65947137D01*
X64532977Y-65939410D01*
X64406356Y-65901000D01*
X64381987Y-65893608D01*
X64242835Y-65819229D01*
X64120867Y-65719133D01*
X64020771Y-65597165D01*
X63946392Y-65458013D01*
X63931125Y-65407682D01*
X63900590Y-65307023D01*
X63885125Y-65150000D01*
X63900590Y-64992977D01*
X63928124Y-64902211D01*
X63932902Y-64878186D01*
X63932902Y-64853682D01*
X63928121Y-64829648D01*
X63912037Y-64776628D01*
X63894641Y-64600000D01*
X63912037Y-64423375D01*
X63912037Y-64423373D01*
X63963557Y-64253534D01*
X63963961Y-64252779D01*
X64047221Y-64097011D01*
X64047222Y-64097009D01*
X64076552Y-64061271D01*
X64159814Y-63959814D01*
X64261271Y-63876552D01*
X64297009Y-63847222D01*
X64453534Y-63763557D01*
X64623373Y-63712037D01*
X64689558Y-63705518D01*
X64755740Y-63699000D01*
X65144260Y-63699000D01*
X65210442Y-63705518D01*
G37*
G36*
X72635442Y-62605518D02*
G01*
X72701627Y-62612037D01*
X72871466Y-62663557D01*
X73027991Y-62747222D01*
X73063729Y-62776552D01*
X73165186Y-62859814D01*
X73223340Y-62930676D01*
X73277778Y-62997009D01*
X73361443Y-63153534D01*
X73412963Y-63323373D01*
X73430359Y-63500000D01*
X73412963Y-63676627D01*
X73364774Y-63835484D01*
X73361442Y-63846468D01*
X73361039Y-63847222D01*
X73277778Y-64002991D01*
X73248448Y-64038729D01*
X73165186Y-64140186D01*
X73063729Y-64223448D01*
X73027991Y-64252778D01*
X72871466Y-64336443D01*
X72701627Y-64387963D01*
X72635442Y-64394482D01*
X72569260Y-64401000D01*
X72230740Y-64401000D01*
X72164558Y-64394482D01*
X72098373Y-64387963D01*
X71928534Y-64336443D01*
X71772009Y-64252778D01*
X71736271Y-64223448D01*
X71634814Y-64140186D01*
X71551552Y-64038729D01*
X71522222Y-64002991D01*
X71438961Y-63847222D01*
X71438558Y-63846468D01*
X71435226Y-63835484D01*
X71387037Y-63676627D01*
X71369641Y-63500000D01*
X71387037Y-63323373D01*
X71438557Y-63153534D01*
X71522222Y-62997009D01*
X71576660Y-62930676D01*
X71634814Y-62859814D01*
X71736271Y-62776552D01*
X71772009Y-62747222D01*
X71928534Y-62663557D01*
X72098373Y-62612037D01*
X72164558Y-62605518D01*
X72230740Y-62599000D01*
X72569260Y-62599000D01*
X72635442Y-62605518D01*
G37*
G36*
X79635442Y-62605518D02*
G01*
X79701627Y-62612037D01*
X79871466Y-62663557D01*
X80027991Y-62747222D01*
X80063729Y-62776552D01*
X80165186Y-62859814D01*
X80223340Y-62930676D01*
X80277778Y-62997009D01*
X80361443Y-63153534D01*
X80412963Y-63323373D01*
X80430359Y-63500000D01*
X80412963Y-63676627D01*
X80364774Y-63835484D01*
X80361442Y-63846468D01*
X80361039Y-63847222D01*
X80277778Y-64002991D01*
X80248448Y-64038729D01*
X80165186Y-64140186D01*
X80063729Y-64223448D01*
X80027991Y-64252778D01*
X79871466Y-64336443D01*
X79701627Y-64387963D01*
X79635442Y-64394482D01*
X79569260Y-64401000D01*
X79230740Y-64401000D01*
X79164558Y-64394482D01*
X79098373Y-64387963D01*
X78928534Y-64336443D01*
X78772009Y-64252778D01*
X78736271Y-64223448D01*
X78634814Y-64140186D01*
X78551552Y-64038729D01*
X78522222Y-64002991D01*
X78438961Y-63847222D01*
X78438558Y-63846468D01*
X78435226Y-63835484D01*
X78387037Y-63676627D01*
X78369641Y-63500000D01*
X78387037Y-63323373D01*
X78438557Y-63153534D01*
X78522222Y-62997009D01*
X78576660Y-62930676D01*
X78634814Y-62859814D01*
X78736271Y-62776552D01*
X78772009Y-62747222D01*
X78928534Y-62663557D01*
X79098373Y-62612037D01*
X79164558Y-62605518D01*
X79230740Y-62599000D01*
X79569260Y-62599000D01*
X79635442Y-62605518D01*
G37*
G36*
X65858600Y-61202989D02*
G01*
X65891652Y-61213015D01*
X65922103Y-61229292D01*
X65948799Y-61251201D01*
X65970708Y-61277897D01*
X65986985Y-61308348D01*
X65997011Y-61341400D01*
X66001000Y-61381903D01*
X66001000Y-61459036D01*
X66003402Y-61483422D01*
X66006383Y-61495323D01*
X66006878Y-61496954D01*
X66011000Y-61538807D01*
X66011000Y-62761193D01*
X66006878Y-62803046D01*
X66003943Y-62812720D01*
X65999162Y-62836757D01*
X65997011Y-62858600D01*
X65986985Y-62891652D01*
X65970708Y-62922103D01*
X65948799Y-62948799D01*
X65922103Y-62970708D01*
X65891652Y-62986985D01*
X65858600Y-62997011D01*
X65818097Y-63001000D01*
X64081903Y-63001000D01*
X64041400Y-62997011D01*
X64008348Y-62986985D01*
X63977897Y-62970708D01*
X63951201Y-62948799D01*
X63929292Y-62922103D01*
X63913015Y-62891652D01*
X63902989Y-62858600D01*
X63900838Y-62836757D01*
X63896057Y-62812720D01*
X63893122Y-62803046D01*
X63889000Y-62761193D01*
X63889000Y-61538807D01*
X63893122Y-61496954D01*
X63893617Y-61495323D01*
X63898398Y-61471290D01*
X63899000Y-61459036D01*
X63899000Y-61381903D01*
X63902989Y-61341400D01*
X63913015Y-61308348D01*
X63929292Y-61277897D01*
X63951201Y-61251201D01*
X63977897Y-61229292D01*
X64008348Y-61213015D01*
X64041400Y-61202989D01*
X64081903Y-61199000D01*
X65818097Y-61199000D01*
X65858600Y-61202989D01*
G37*
G36*
X79635442Y-60105518D02*
G01*
X79701627Y-60112037D01*
X79871466Y-60163557D01*
X80027991Y-60247222D01*
X80063729Y-60276552D01*
X80165186Y-60359814D01*
X80248448Y-60461271D01*
X80277778Y-60497009D01*
X80361443Y-60653534D01*
X80412963Y-60823373D01*
X80430359Y-61000000D01*
X80412963Y-61176627D01*
X80361443Y-61346466D01*
X80361442Y-61346468D01*
X80352825Y-61362589D01*
X80277778Y-61502991D01*
X80268816Y-61513911D01*
X80165186Y-61640186D01*
X80063729Y-61723448D01*
X80027991Y-61752778D01*
X79871466Y-61836443D01*
X79701627Y-61887963D01*
X79635443Y-61894481D01*
X79569260Y-61901000D01*
X79230740Y-61901000D01*
X79164557Y-61894481D01*
X79098373Y-61887963D01*
X78928534Y-61836443D01*
X78772009Y-61752778D01*
X78736271Y-61723448D01*
X78634814Y-61640186D01*
X78531184Y-61513911D01*
X78522222Y-61502991D01*
X78447175Y-61362589D01*
X78438558Y-61346468D01*
X78438557Y-61346466D01*
X78387037Y-61176627D01*
X78369641Y-61000000D01*
X78387037Y-60823373D01*
X78438557Y-60653534D01*
X78522222Y-60497009D01*
X78551552Y-60461271D01*
X78634814Y-60359814D01*
X78736271Y-60276552D01*
X78772009Y-60247222D01*
X78928534Y-60163557D01*
X79098373Y-60112037D01*
X79164558Y-60105518D01*
X79230740Y-60099000D01*
X79569260Y-60099000D01*
X79635442Y-60105518D01*
G37*
G36*
X72635442Y-60105518D02*
G01*
X72701627Y-60112037D01*
X72871466Y-60163557D01*
X73027991Y-60247222D01*
X73063729Y-60276552D01*
X73165186Y-60359814D01*
X73248448Y-60461271D01*
X73277778Y-60497009D01*
X73361443Y-60653534D01*
X73412963Y-60823373D01*
X73430359Y-61000000D01*
X73412963Y-61176627D01*
X73361443Y-61346466D01*
X73361442Y-61346468D01*
X73352825Y-61362589D01*
X73277778Y-61502991D01*
X73268816Y-61513911D01*
X73165186Y-61640186D01*
X73063729Y-61723448D01*
X73027991Y-61752778D01*
X72871466Y-61836443D01*
X72701627Y-61887963D01*
X72635443Y-61894481D01*
X72569260Y-61901000D01*
X72230740Y-61901000D01*
X72164557Y-61894481D01*
X72098373Y-61887963D01*
X71928534Y-61836443D01*
X71772009Y-61752778D01*
X71736271Y-61723448D01*
X71634814Y-61640186D01*
X71531184Y-61513911D01*
X71522222Y-61502991D01*
X71447175Y-61362589D01*
X71438558Y-61346468D01*
X71438557Y-61346466D01*
X71387037Y-61176627D01*
X71369641Y-61000000D01*
X71387037Y-60823373D01*
X71438557Y-60653534D01*
X71522222Y-60497009D01*
X71551552Y-60461271D01*
X71634814Y-60359814D01*
X71736271Y-60276552D01*
X71772009Y-60247222D01*
X71928534Y-60163557D01*
X72098373Y-60112037D01*
X72164558Y-60105518D01*
X72230740Y-60099000D01*
X72569260Y-60099000D01*
X72635442Y-60105518D01*
G37*
G36*
X56426626Y-57762037D02*
G01*
X56596465Y-57813557D01*
X56596467Y-57813558D01*
X56752989Y-57897221D01*
X56890186Y-58009814D01*
X56973448Y-58111271D01*
X57002778Y-58147009D01*
X57086443Y-58303534D01*
X57137963Y-58473373D01*
X57151000Y-58605742D01*
X57151000Y-58994257D01*
X57137963Y-59126626D01*
X57086443Y-59296466D01*
X57002778Y-59452991D01*
X56984764Y-59474941D01*
X56890186Y-59590186D01*
X56795250Y-59668097D01*
X56752991Y-59702778D01*
X56596466Y-59786443D01*
X56426627Y-59837963D01*
X56250000Y-59855359D01*
X56073374Y-59837963D01*
X55903535Y-59786443D01*
X55747010Y-59702778D01*
X55609815Y-59590185D01*
X55497222Y-59452991D01*
X55413557Y-59296466D01*
X55362037Y-59126627D01*
X55349000Y-58994258D01*
X55349000Y-58605743D01*
X55362037Y-58473374D01*
X55413557Y-58303535D01*
X55497222Y-58147010D01*
X55497223Y-58147009D01*
X55609814Y-58009814D01*
X55711271Y-57926552D01*
X55747009Y-57897222D01*
X55903534Y-57813557D01*
X56073373Y-57762037D01*
X56250000Y-57744641D01*
X56426626Y-57762037D01*
G37*
G36*
X54508600Y-57752989D02*
G01*
X54541652Y-57763015D01*
X54572103Y-57779292D01*
X54598799Y-57801201D01*
X54620708Y-57827897D01*
X54636985Y-57858348D01*
X54647011Y-57891400D01*
X54651000Y-57931903D01*
X54651000Y-59668097D01*
X54647011Y-59708600D01*
X54636985Y-59741652D01*
X54620708Y-59772103D01*
X54598799Y-59798799D01*
X54572103Y-59820708D01*
X54541652Y-59836985D01*
X54508600Y-59847011D01*
X54468097Y-59851000D01*
X53031903Y-59851000D01*
X52991400Y-59847011D01*
X52958348Y-59836985D01*
X52927897Y-59820708D01*
X52901201Y-59798799D01*
X52879292Y-59772103D01*
X52863015Y-59741652D01*
X52852989Y-59708600D01*
X52849000Y-59668097D01*
X52849000Y-57931903D01*
X52852989Y-57891400D01*
X52863015Y-57858348D01*
X52879292Y-57827897D01*
X52901201Y-57801201D01*
X52927897Y-57779292D01*
X52958348Y-57763015D01*
X52991400Y-57752989D01*
X53031903Y-57749000D01*
X54468097Y-57749000D01*
X54508600Y-57752989D01*
G37*
G36*
X67110098Y-58490362D02*
G01*
X67234941Y-58542074D01*
X67234943Y-58542075D01*
X67330224Y-58605740D01*
X67347299Y-58617149D01*
X67442851Y-58712701D01*
X67517926Y-58825059D01*
X67569638Y-58949902D01*
X67596000Y-59082434D01*
X67596000Y-59217566D01*
X67569638Y-59350098D01*
X67527019Y-59452989D01*
X67517925Y-59474943D01*
X67442851Y-59587299D01*
X67347299Y-59682851D01*
X67234943Y-59757925D01*
X67234942Y-59757926D01*
X67234941Y-59757926D01*
X67110098Y-59809638D01*
X66977566Y-59836000D01*
X66842434Y-59836000D01*
X66709902Y-59809638D01*
X66585059Y-59757926D01*
X66585058Y-59757926D01*
X66585057Y-59757925D01*
X66472701Y-59682851D01*
X66377149Y-59587299D01*
X66302075Y-59474943D01*
X66292981Y-59452989D01*
X66250362Y-59350098D01*
X66224000Y-59217566D01*
X66224000Y-59082434D01*
X66250362Y-58949902D01*
X66302074Y-58825059D01*
X66377149Y-58712701D01*
X66472701Y-58617149D01*
X66489776Y-58605740D01*
X66585057Y-58542075D01*
X66585059Y-58542074D01*
X66709902Y-58490362D01*
X66842434Y-58464000D01*
X66977566Y-58464000D01*
X67110098Y-58490362D01*
G37*
G36*
X73283600Y-57602989D02*
G01*
X73316652Y-57613015D01*
X73347103Y-57629292D01*
X73373799Y-57651201D01*
X73395708Y-57677897D01*
X73411985Y-57708348D01*
X73422011Y-57741400D01*
X73426000Y-57781903D01*
X73426000Y-59218097D01*
X73422011Y-59258600D01*
X73411985Y-59291652D01*
X73395708Y-59322103D01*
X73373799Y-59348799D01*
X73347103Y-59370708D01*
X73316652Y-59386985D01*
X73283600Y-59397011D01*
X73243097Y-59401000D01*
X71556903Y-59401000D01*
X71516400Y-59397011D01*
X71483348Y-59386985D01*
X71452897Y-59370708D01*
X71426201Y-59348799D01*
X71404292Y-59322103D01*
X71388015Y-59291652D01*
X71377989Y-59258600D01*
X71374000Y-59218097D01*
X71374000Y-57781903D01*
X71377989Y-57741400D01*
X71388015Y-57708348D01*
X71404292Y-57677897D01*
X71426201Y-57651201D01*
X71452897Y-57629292D01*
X71483348Y-57613015D01*
X71516400Y-57602989D01*
X71556903Y-57599000D01*
X73243097Y-57599000D01*
X73283600Y-57602989D01*
G37*
G36*
X80283600Y-57602989D02*
G01*
X80316652Y-57613015D01*
X80347103Y-57629292D01*
X80373799Y-57651201D01*
X80395708Y-57677897D01*
X80411985Y-57708348D01*
X80422011Y-57741400D01*
X80426000Y-57781903D01*
X80426000Y-59218097D01*
X80422011Y-59258600D01*
X80411985Y-59291652D01*
X80395708Y-59322103D01*
X80373799Y-59348799D01*
X80347103Y-59370708D01*
X80316652Y-59386985D01*
X80283600Y-59397011D01*
X80243097Y-59401000D01*
X78556903Y-59401000D01*
X78516400Y-59397011D01*
X78483348Y-59386985D01*
X78452897Y-59370708D01*
X78426201Y-59348799D01*
X78404292Y-59322103D01*
X78388015Y-59291652D01*
X78377989Y-59258600D01*
X78374000Y-59218097D01*
X78374000Y-57781903D01*
X78377989Y-57741400D01*
X78388015Y-57708348D01*
X78404292Y-57677897D01*
X78426201Y-57651201D01*
X78452897Y-57629292D01*
X78483348Y-57613015D01*
X78516400Y-57602989D01*
X78556903Y-57599000D01*
X80243097Y-57599000D01*
X80283600Y-57602989D01*
G37*
G36*
X63410443Y-54455519D02*
G01*
X63476627Y-54462037D01*
X63646466Y-54513557D01*
X63802991Y-54597222D01*
X63838729Y-54626552D01*
X63940186Y-54709814D01*
X64023448Y-54811271D01*
X64052778Y-54847009D01*
X64136443Y-55003534D01*
X64187963Y-55173373D01*
X64205359Y-55350000D01*
X64187963Y-55526627D01*
X64136443Y-55696466D01*
X64052778Y-55852991D01*
X64023448Y-55888729D01*
X63940186Y-55990186D01*
X63838729Y-56073448D01*
X63802991Y-56102778D01*
X63646466Y-56186443D01*
X63476627Y-56237963D01*
X63410442Y-56244482D01*
X63344260Y-56251000D01*
X62955740Y-56251000D01*
X62889558Y-56244482D01*
X62823373Y-56237963D01*
X62653534Y-56186443D01*
X62497009Y-56102778D01*
X62461271Y-56073448D01*
X62359814Y-55990186D01*
X62276552Y-55888729D01*
X62247222Y-55852991D01*
X62163557Y-55696466D01*
X62112037Y-55526627D01*
X62094641Y-55350000D01*
X62112037Y-55173373D01*
X62163557Y-55003534D01*
X62247222Y-54847009D01*
X62276552Y-54811271D01*
X62359814Y-54709814D01*
X62461271Y-54626552D01*
X62497009Y-54597222D01*
X62653534Y-54513557D01*
X62823373Y-54462037D01*
X62889557Y-54455519D01*
X62955740Y-54449000D01*
X63344260Y-54449000D01*
X63410443Y-54455519D01*
G37*
G36*
X80250773Y-49102701D02*
G01*
X80531606Y-49158562D01*
X81050455Y-49373476D01*
X81517407Y-49685484D01*
X81914516Y-50082593D01*
X82226524Y-50549545D01*
X82441438Y-51068394D01*
X82551000Y-51619200D01*
X82551000Y-52180800D01*
X82544396Y-52214000D01*
X82441438Y-52731606D01*
X82226524Y-53250455D01*
X82034593Y-53537699D01*
X81921912Y-53706339D01*
X81914516Y-53717407D01*
X81517407Y-54114516D01*
X81050455Y-54426524D01*
X80531606Y-54641438D01*
X80256202Y-54696219D01*
X79980800Y-54751000D01*
X79419200Y-54751000D01*
X79143798Y-54696219D01*
X78868394Y-54641438D01*
X78349545Y-54426524D01*
X77882593Y-54114516D01*
X77485484Y-53717407D01*
X77478089Y-53706339D01*
X77365407Y-53537699D01*
X77173476Y-53250455D01*
X76958562Y-52731606D01*
X76855604Y-52214000D01*
X76849000Y-52180800D01*
X76849000Y-51619200D01*
X76958562Y-51068394D01*
X77173476Y-50549545D01*
X77485484Y-50082593D01*
X77882593Y-49685484D01*
X78349545Y-49373476D01*
X78868394Y-49158562D01*
X79149227Y-49102701D01*
X79419200Y-49049000D01*
X79980800Y-49049000D01*
X80250773Y-49102701D01*
G37*
G36*
X64058600Y-51952989D02*
G01*
X64091652Y-51963015D01*
X64122103Y-51979292D01*
X64148799Y-52001201D01*
X64170708Y-52027897D01*
X64186985Y-52058348D01*
X64197011Y-52091400D01*
X64201000Y-52131903D01*
X64201000Y-53568097D01*
X64197011Y-53608600D01*
X64186985Y-53641652D01*
X64170708Y-53672103D01*
X64148799Y-53698799D01*
X64122103Y-53720708D01*
X64091652Y-53736985D01*
X64058600Y-53747011D01*
X64018097Y-53751000D01*
X62281903Y-53751000D01*
X62241400Y-53747011D01*
X62208348Y-53736985D01*
X62177897Y-53720708D01*
X62151201Y-53698799D01*
X62129292Y-53672103D01*
X62113015Y-53641652D01*
X62102989Y-53608600D01*
X62099000Y-53568097D01*
X62099000Y-52131903D01*
X62102989Y-52091400D01*
X62113015Y-52058348D01*
X62129292Y-52027897D01*
X62151201Y-52001201D01*
X62177897Y-51979292D01*
X62208348Y-51963015D01*
X62241400Y-51952989D01*
X62281903Y-51949000D01*
X64018097Y-51949000D01*
X64058600Y-51952989D01*
G37*
G36*
X56376626Y-50662037D02*
G01*
X56546465Y-50713557D01*
X56546467Y-50713558D01*
X56702989Y-50797221D01*
X56840186Y-50909814D01*
X56917098Y-51003533D01*
X56952778Y-51047009D01*
X56994610Y-51125271D01*
X57020322Y-51173373D01*
X57036443Y-51203534D01*
X57087963Y-51373373D01*
X57087963Y-51373375D01*
X57101000Y-51505740D01*
X57101000Y-51894259D01*
X57095107Y-51954092D01*
X57087963Y-52026626D01*
X57036443Y-52196466D01*
X56952778Y-52352991D01*
X56924530Y-52387411D01*
X56840186Y-52490186D01*
X56749176Y-52564875D01*
X56702991Y-52602778D01*
X56546466Y-52686443D01*
X56376627Y-52737963D01*
X56200000Y-52755359D01*
X56023374Y-52737963D01*
X55853535Y-52686443D01*
X55697010Y-52602778D01*
X55559815Y-52490185D01*
X55447222Y-52352991D01*
X55363557Y-52196466D01*
X55312037Y-52026627D01*
X55304784Y-51952989D01*
X55299000Y-51894260D01*
X55299000Y-51505741D01*
X55312037Y-51373376D01*
X55312037Y-51373374D01*
X55363557Y-51203535D01*
X55379677Y-51173376D01*
X55447221Y-51047011D01*
X55559814Y-50909814D01*
X55661271Y-50826552D01*
X55697009Y-50797222D01*
X55853534Y-50713557D01*
X56023373Y-50662037D01*
X56200000Y-50644641D01*
X56376626Y-50662037D01*
G37*
G36*
X54458600Y-50652989D02*
G01*
X54491652Y-50663015D01*
X54522103Y-50679292D01*
X54548799Y-50701201D01*
X54570708Y-50727897D01*
X54586985Y-50758348D01*
X54597011Y-50791400D01*
X54601000Y-50831903D01*
X54601000Y-52568097D01*
X54597011Y-52608600D01*
X54586985Y-52641652D01*
X54570708Y-52672103D01*
X54548799Y-52698799D01*
X54522103Y-52720708D01*
X54491652Y-52736985D01*
X54458600Y-52747011D01*
X54418097Y-52751000D01*
X52981903Y-52751000D01*
X52941400Y-52747011D01*
X52908348Y-52736985D01*
X52877897Y-52720708D01*
X52851201Y-52698799D01*
X52829292Y-52672103D01*
X52813015Y-52641652D01*
X52802989Y-52608600D01*
X52799000Y-52568097D01*
X52799000Y-50831903D01*
X52802989Y-50791400D01*
X52813015Y-50758348D01*
X52829292Y-50727897D01*
X52851201Y-50701201D01*
X52877897Y-50679292D01*
X52908348Y-50663015D01*
X52941400Y-50652989D01*
X52981903Y-50649000D01*
X54418097Y-50649000D01*
X54458600Y-50652989D01*
G37*
G36*
X73007022Y-50450590D02*
G01*
X73088539Y-50475318D01*
X73158012Y-50496392D01*
X73196944Y-50517202D01*
X73297164Y-50570771D01*
X73419133Y-50670867D01*
X73465936Y-50727897D01*
X73519229Y-50792835D01*
X73593608Y-50931987D01*
X73608875Y-50982318D01*
X73639410Y-51082977D01*
X73651000Y-51200655D01*
X73651000Y-51799345D01*
X73639410Y-51917023D01*
X73620521Y-51979292D01*
X73593608Y-52068013D01*
X73519229Y-52207165D01*
X73419133Y-52329133D01*
X73297165Y-52429229D01*
X73158013Y-52503608D01*
X73107682Y-52518875D01*
X73007023Y-52549410D01*
X72850000Y-52564875D01*
X72692978Y-52549410D01*
X72627217Y-52529462D01*
X72603185Y-52524682D01*
X72578681Y-52524682D01*
X72554655Y-52529461D01*
X72526627Y-52537963D01*
X72350000Y-52555359D01*
X72173374Y-52537963D01*
X72003535Y-52486443D01*
X71847010Y-52402778D01*
X71709815Y-52290185D01*
X71597222Y-52152991D01*
X71530357Y-52027897D01*
X71513558Y-51996468D01*
X71513557Y-51996466D01*
X71462037Y-51826627D01*
X71449000Y-51694258D01*
X71449000Y-51305743D01*
X71462037Y-51173374D01*
X71513557Y-51003535D01*
X71561415Y-50914000D01*
X71597221Y-50847011D01*
X71709814Y-50709814D01*
X71811271Y-50626552D01*
X71847009Y-50597222D01*
X72003534Y-50513557D01*
X72173373Y-50462037D01*
X72350000Y-50444641D01*
X72526626Y-50462037D01*
X72554654Y-50470539D01*
X72578681Y-50475318D01*
X72603185Y-50475318D01*
X72627216Y-50470538D01*
X72692977Y-50450590D01*
X72850000Y-50435125D01*
X73007022Y-50450590D01*
G37*
G36*
X70503046Y-50443122D02*
G01*
X70504677Y-50443617D01*
X70528710Y-50448398D01*
X70540964Y-50449000D01*
X70568097Y-50449000D01*
X70608600Y-50452989D01*
X70641652Y-50463015D01*
X70672103Y-50479292D01*
X70698799Y-50501201D01*
X70720708Y-50527897D01*
X70736985Y-50558348D01*
X70747011Y-50591400D01*
X70751000Y-50631903D01*
X70751000Y-52368097D01*
X70747011Y-52408600D01*
X70736985Y-52441652D01*
X70720708Y-52472103D01*
X70698799Y-52498799D01*
X70672103Y-52520708D01*
X70641652Y-52536985D01*
X70608600Y-52547011D01*
X70568097Y-52551000D01*
X70540964Y-52551000D01*
X70516578Y-52553402D01*
X70504677Y-52556383D01*
X70503046Y-52556878D01*
X70461193Y-52561000D01*
X69238807Y-52561000D01*
X69196954Y-52556878D01*
X69195323Y-52556383D01*
X69171290Y-52551602D01*
X69159036Y-52551000D01*
X69131903Y-52551000D01*
X69091400Y-52547011D01*
X69058348Y-52536985D01*
X69027897Y-52520708D01*
X69001201Y-52498799D01*
X68979292Y-52472103D01*
X68963015Y-52441652D01*
X68952989Y-52408600D01*
X68949000Y-52368097D01*
X68949000Y-50631903D01*
X68952989Y-50591400D01*
X68963015Y-50558348D01*
X68979292Y-50527897D01*
X69001201Y-50501201D01*
X69027897Y-50479292D01*
X69058348Y-50463015D01*
X69091400Y-50452989D01*
X69131903Y-50449000D01*
X69159036Y-50449000D01*
X69183422Y-50446598D01*
X69195323Y-50443617D01*
X69196954Y-50443122D01*
X69238807Y-50439000D01*
X70461193Y-50439000D01*
X70503046Y-50443122D01*
G37*
G36*
X67050098Y-48880362D02*
G01*
X67174941Y-48932074D01*
X67174943Y-48932075D01*
X67287299Y-49007149D01*
X67382851Y-49102701D01*
X67457926Y-49215059D01*
X67509638Y-49339902D01*
X67536000Y-49472434D01*
X67536000Y-49607566D01*
X67509638Y-49740098D01*
X67457926Y-49864941D01*
X67457925Y-49864943D01*
X67382851Y-49977299D01*
X67287299Y-50072851D01*
X67174943Y-50147925D01*
X67174942Y-50147926D01*
X67174941Y-50147926D01*
X67050098Y-50199638D01*
X66917566Y-50226000D01*
X66782434Y-50226000D01*
X66649902Y-50199638D01*
X66525059Y-50147926D01*
X66525058Y-50147926D01*
X66525057Y-50147925D01*
X66412701Y-50072851D01*
X66317149Y-49977299D01*
X66242075Y-49864943D01*
X66242074Y-49864941D01*
X66190362Y-49740098D01*
X66164000Y-49607566D01*
X66164000Y-49472434D01*
X66190362Y-49339902D01*
X66242074Y-49215059D01*
X66317149Y-49102701D01*
X66412701Y-49007149D01*
X66525057Y-48932075D01*
X66525059Y-48932074D01*
X66649902Y-48880362D01*
X66782434Y-48854000D01*
X66917566Y-48854000D01*
X67050098Y-48880362D01*
G37*
G36*
X76050098Y-48880362D02*
G01*
X76174941Y-48932074D01*
X76174943Y-48932075D01*
X76287299Y-49007149D01*
X76382851Y-49102701D01*
X76457926Y-49215059D01*
X76509638Y-49339902D01*
X76536000Y-49472434D01*
X76536000Y-49607566D01*
X76509638Y-49740098D01*
X76457926Y-49864941D01*
X76457925Y-49864943D01*
X76382851Y-49977299D01*
X76287299Y-50072851D01*
X76174943Y-50147925D01*
X76174942Y-50147926D01*
X76174941Y-50147926D01*
X76050098Y-50199638D01*
X75917566Y-50226000D01*
X75782434Y-50226000D01*
X75649902Y-50199638D01*
X75525059Y-50147926D01*
X75525058Y-50147926D01*
X75525057Y-50147925D01*
X75412701Y-50072851D01*
X75317149Y-49977299D01*
X75242075Y-49864943D01*
X75242074Y-49864941D01*
X75190362Y-49740098D01*
X75164000Y-49607566D01*
X75164000Y-49472434D01*
X75190362Y-49339902D01*
X75242074Y-49215059D01*
X75317149Y-49102701D01*
X75412701Y-49007149D01*
X75525057Y-48932075D01*
X75525059Y-48932074D01*
X75649902Y-48880362D01*
X75782434Y-48854000D01*
X75917566Y-48854000D01*
X76050098Y-48880362D01*
G37*
G36*
X81951000Y-48771000D02*
G01*
X80249000Y-48771000D01*
X80249000Y-47069000D01*
X81951000Y-47069000D01*
X81951000Y-48771000D01*
G37*
G36*
X78810721Y-45960174D02*
G01*
X78910995Y-46001709D01*
X78910996Y-46001710D01*
X79001242Y-46062010D01*
X79077990Y-46138758D01*
X79077991Y-46138760D01*
X79138291Y-46229005D01*
X79179826Y-46329279D01*
X79201000Y-46435730D01*
X79201000Y-46544270D01*
X79179826Y-46650721D01*
X79138291Y-46750995D01*
X79138290Y-46750996D01*
X79077990Y-46841242D01*
X79001242Y-46917990D01*
X78955812Y-46948345D01*
X78910995Y-46978291D01*
X78810721Y-47019826D01*
X78704270Y-47041000D01*
X78595730Y-47041000D01*
X78489279Y-47019826D01*
X78389005Y-46978291D01*
X78344188Y-46948345D01*
X78298758Y-46917990D01*
X78222010Y-46841242D01*
X78161710Y-46750996D01*
X78161709Y-46750995D01*
X78120174Y-46650721D01*
X78099000Y-46544270D01*
X78099000Y-46435730D01*
X78120174Y-46329279D01*
X78161709Y-46229005D01*
X78222009Y-46138760D01*
X78222010Y-46138758D01*
X78298758Y-46062010D01*
X78389004Y-46001710D01*
X78389005Y-46001709D01*
X78489279Y-45960174D01*
X78595730Y-45939000D01*
X78704270Y-45939000D01*
X78810721Y-45960174D01*
G37*
G36*
X51810721Y-45960174D02*
G01*
X51910995Y-46001709D01*
X51910996Y-46001710D01*
X52001242Y-46062010D01*
X52077990Y-46138758D01*
X52077991Y-46138760D01*
X52138291Y-46229005D01*
X52179826Y-46329279D01*
X52201000Y-46435730D01*
X52201000Y-46544270D01*
X52179826Y-46650721D01*
X52138291Y-46750995D01*
X52138290Y-46750996D01*
X52077990Y-46841242D01*
X52001242Y-46917990D01*
X51955812Y-46948345D01*
X51910995Y-46978291D01*
X51810721Y-47019826D01*
X51704270Y-47041000D01*
X51595730Y-47041000D01*
X51489279Y-47019826D01*
X51389005Y-46978291D01*
X51344188Y-46948345D01*
X51298758Y-46917990D01*
X51222010Y-46841242D01*
X51161710Y-46750996D01*
X51161709Y-46750995D01*
X51120174Y-46650721D01*
X51099000Y-46544270D01*
X51099000Y-46435730D01*
X51120174Y-46329279D01*
X51161709Y-46229005D01*
X51222009Y-46138760D01*
X51222010Y-46138758D01*
X51298758Y-46062010D01*
X51389004Y-46001710D01*
X51389005Y-46001709D01*
X51489279Y-45960174D01*
X51595730Y-45939000D01*
X51704270Y-45939000D01*
X51810721Y-45960174D01*
G37*
G36*
X60883642Y-44779781D02*
G01*
X61029414Y-44840162D01*
X61029416Y-44840163D01*
X61160608Y-44927822D01*
X61272178Y-45039392D01*
X61359837Y-45170584D01*
X61359838Y-45170586D01*
X61420219Y-45316358D01*
X61451000Y-45471107D01*
X61451000Y-45628893D01*
X61420219Y-45783642D01*
X61359838Y-45929414D01*
X61359837Y-45929416D01*
X61272178Y-46060608D01*
X61160608Y-46172178D01*
X61029416Y-46259837D01*
X61029415Y-46259838D01*
X61029414Y-46259838D01*
X60883642Y-46320219D01*
X60728893Y-46351000D01*
X60551107Y-46351000D01*
X60396358Y-46320219D01*
X60250586Y-46259838D01*
X60250585Y-46259838D01*
X60250584Y-46259837D01*
X60119392Y-46172178D01*
X60007822Y-46060608D01*
X59920163Y-45929416D01*
X59920162Y-45929414D01*
X59859781Y-45783642D01*
X59829000Y-45628893D01*
X59829000Y-45471107D01*
X59859781Y-45316358D01*
X59920162Y-45170586D01*
X59920163Y-45170584D01*
X60007822Y-45039392D01*
X60119392Y-44927822D01*
X60250584Y-44840163D01*
X60250586Y-44840162D01*
X60396358Y-44779781D01*
X60551107Y-44749000D01*
X60728893Y-44749000D01*
X60883642Y-44779781D01*
G37*
G36*
X69883642Y-44779781D02*
G01*
X70029414Y-44840162D01*
X70029416Y-44840163D01*
X70160608Y-44927822D01*
X70272178Y-45039392D01*
X70359837Y-45170584D01*
X70359838Y-45170586D01*
X70420219Y-45316358D01*
X70451000Y-45471107D01*
X70451000Y-45628893D01*
X70420219Y-45783642D01*
X70359838Y-45929414D01*
X70359837Y-45929416D01*
X70272178Y-46060608D01*
X70160608Y-46172178D01*
X70029416Y-46259837D01*
X70029415Y-46259838D01*
X70029414Y-46259838D01*
X69883642Y-46320219D01*
X69728893Y-46351000D01*
X69551107Y-46351000D01*
X69396358Y-46320219D01*
X69250586Y-46259838D01*
X69250585Y-46259838D01*
X69250584Y-46259837D01*
X69119392Y-46172178D01*
X69007822Y-46060608D01*
X68920163Y-45929416D01*
X68920162Y-45929414D01*
X68859781Y-45783642D01*
X68829000Y-45628893D01*
X68829000Y-45471107D01*
X68859781Y-45316358D01*
X68920162Y-45170586D01*
X68920163Y-45170584D01*
X69007822Y-45039392D01*
X69119392Y-44927822D01*
X69250584Y-44840163D01*
X69250586Y-44840162D01*
X69396358Y-44779781D01*
X69551107Y-44749000D01*
X69728893Y-44749000D01*
X69883642Y-44779781D01*
G37*
G36*
X57883642Y-44779781D02*
G01*
X58029414Y-44840162D01*
X58029416Y-44840163D01*
X58160608Y-44927822D01*
X58272178Y-45039392D01*
X58359837Y-45170584D01*
X58359838Y-45170586D01*
X58420219Y-45316358D01*
X58451000Y-45471107D01*
X58451000Y-45628893D01*
X58420219Y-45783642D01*
X58359838Y-45929414D01*
X58359837Y-45929416D01*
X58272178Y-46060608D01*
X58160608Y-46172178D01*
X58029416Y-46259837D01*
X58029415Y-46259838D01*
X58029414Y-46259838D01*
X57883642Y-46320219D01*
X57728893Y-46351000D01*
X57551107Y-46351000D01*
X57396358Y-46320219D01*
X57250586Y-46259838D01*
X57250585Y-46259838D01*
X57250584Y-46259837D01*
X57119392Y-46172178D01*
X57007822Y-46060608D01*
X56920163Y-45929416D01*
X56920162Y-45929414D01*
X56859781Y-45783642D01*
X56829000Y-45628893D01*
X56829000Y-45471107D01*
X56859781Y-45316358D01*
X56920162Y-45170586D01*
X56920163Y-45170584D01*
X57007822Y-45039392D01*
X57119392Y-44927822D01*
X57250584Y-44840163D01*
X57250586Y-44840162D01*
X57396358Y-44779781D01*
X57551107Y-44749000D01*
X57728893Y-44749000D01*
X57883642Y-44779781D01*
G37*
G36*
X54883642Y-44779781D02*
G01*
X55029414Y-44840162D01*
X55029416Y-44840163D01*
X55160608Y-44927822D01*
X55272178Y-45039392D01*
X55359837Y-45170584D01*
X55359838Y-45170586D01*
X55420219Y-45316358D01*
X55451000Y-45471107D01*
X55451000Y-45628893D01*
X55420219Y-45783642D01*
X55359838Y-45929414D01*
X55359837Y-45929416D01*
X55272178Y-46060608D01*
X55160608Y-46172178D01*
X55029416Y-46259837D01*
X55029415Y-46259838D01*
X55029414Y-46259838D01*
X54883642Y-46320219D01*
X54728893Y-46351000D01*
X54551107Y-46351000D01*
X54396358Y-46320219D01*
X54250586Y-46259838D01*
X54250585Y-46259838D01*
X54250584Y-46259837D01*
X54119392Y-46172178D01*
X54007822Y-46060608D01*
X53920163Y-45929416D01*
X53920162Y-45929414D01*
X53859781Y-45783642D01*
X53829000Y-45628893D01*
X53829000Y-45471107D01*
X53859781Y-45316358D01*
X53920162Y-45170586D01*
X53920163Y-45170584D01*
X54007822Y-45039392D01*
X54119392Y-44927822D01*
X54250584Y-44840163D01*
X54250586Y-44840162D01*
X54396358Y-44779781D01*
X54551107Y-44749000D01*
X54728893Y-44749000D01*
X54883642Y-44779781D01*
G37*
G36*
X75883642Y-44779781D02*
G01*
X76029414Y-44840162D01*
X76029416Y-44840163D01*
X76160608Y-44927822D01*
X76272178Y-45039392D01*
X76359837Y-45170584D01*
X76359838Y-45170586D01*
X76420219Y-45316358D01*
X76451000Y-45471107D01*
X76451000Y-45628893D01*
X76420219Y-45783642D01*
X76359838Y-45929414D01*
X76359837Y-45929416D01*
X76272178Y-46060608D01*
X76160608Y-46172178D01*
X76029416Y-46259837D01*
X76029415Y-46259838D01*
X76029414Y-46259838D01*
X75883642Y-46320219D01*
X75728893Y-46351000D01*
X75551107Y-46351000D01*
X75396358Y-46320219D01*
X75250586Y-46259838D01*
X75250585Y-46259838D01*
X75250584Y-46259837D01*
X75119392Y-46172178D01*
X75007822Y-46060608D01*
X74920163Y-45929416D01*
X74920162Y-45929414D01*
X74859781Y-45783642D01*
X74829000Y-45628893D01*
X74829000Y-45471107D01*
X74859781Y-45316358D01*
X74920162Y-45170586D01*
X74920163Y-45170584D01*
X75007822Y-45039392D01*
X75119392Y-44927822D01*
X75250584Y-44840163D01*
X75250586Y-44840162D01*
X75396358Y-44779781D01*
X75551107Y-44749000D01*
X75728893Y-44749000D01*
X75883642Y-44779781D01*
G37*
G36*
X72883642Y-44779781D02*
G01*
X73029414Y-44840162D01*
X73029416Y-44840163D01*
X73160608Y-44927822D01*
X73272178Y-45039392D01*
X73359837Y-45170584D01*
X73359838Y-45170586D01*
X73420219Y-45316358D01*
X73451000Y-45471107D01*
X73451000Y-45628893D01*
X73420219Y-45783642D01*
X73359838Y-45929414D01*
X73359837Y-45929416D01*
X73272178Y-46060608D01*
X73160608Y-46172178D01*
X73029416Y-46259837D01*
X73029415Y-46259838D01*
X73029414Y-46259838D01*
X72883642Y-46320219D01*
X72728893Y-46351000D01*
X72551107Y-46351000D01*
X72396358Y-46320219D01*
X72250586Y-46259838D01*
X72250585Y-46259838D01*
X72250584Y-46259837D01*
X72119392Y-46172178D01*
X72007822Y-46060608D01*
X71920163Y-45929416D01*
X71920162Y-45929414D01*
X71859781Y-45783642D01*
X71829000Y-45628893D01*
X71829000Y-45471107D01*
X71859781Y-45316358D01*
X71920162Y-45170586D01*
X71920163Y-45170584D01*
X72007822Y-45039392D01*
X72119392Y-44927822D01*
X72250584Y-44840163D01*
X72250586Y-44840162D01*
X72396358Y-44779781D01*
X72551107Y-44749000D01*
X72728893Y-44749000D01*
X72883642Y-44779781D01*
G37*
G36*
X66883642Y-44779781D02*
G01*
X67029414Y-44840162D01*
X67029416Y-44840163D01*
X67160608Y-44927822D01*
X67272178Y-45039392D01*
X67359837Y-45170584D01*
X67359838Y-45170586D01*
X67420219Y-45316358D01*
X67451000Y-45471107D01*
X67451000Y-45628893D01*
X67420219Y-45783642D01*
X67359838Y-45929414D01*
X67359837Y-45929416D01*
X67272178Y-46060608D01*
X67160608Y-46172178D01*
X67029416Y-46259837D01*
X67029415Y-46259838D01*
X67029414Y-46259838D01*
X66883642Y-46320219D01*
X66728893Y-46351000D01*
X66551107Y-46351000D01*
X66396358Y-46320219D01*
X66250586Y-46259838D01*
X66250585Y-46259838D01*
X66250584Y-46259837D01*
X66119392Y-46172178D01*
X66007822Y-46060608D01*
X65920163Y-45929416D01*
X65920162Y-45929414D01*
X65859781Y-45783642D01*
X65829000Y-45628893D01*
X65829000Y-45471107D01*
X65859781Y-45316358D01*
X65920162Y-45170586D01*
X65920163Y-45170584D01*
X66007822Y-45039392D01*
X66119392Y-44927822D01*
X66250584Y-44840163D01*
X66250586Y-44840162D01*
X66396358Y-44779781D01*
X66551107Y-44749000D01*
X66728893Y-44749000D01*
X66883642Y-44779781D01*
G37*
G36*
X63883642Y-44779781D02*
G01*
X64029414Y-44840162D01*
X64029416Y-44840163D01*
X64160608Y-44927822D01*
X64272178Y-45039392D01*
X64359837Y-45170584D01*
X64359838Y-45170586D01*
X64420219Y-45316358D01*
X64451000Y-45471107D01*
X64451000Y-45628893D01*
X64420219Y-45783642D01*
X64359838Y-45929414D01*
X64359837Y-45929416D01*
X64272178Y-46060608D01*
X64160608Y-46172178D01*
X64029416Y-46259837D01*
X64029415Y-46259838D01*
X64029414Y-46259838D01*
X63883642Y-46320219D01*
X63728893Y-46351000D01*
X63551107Y-46351000D01*
X63396358Y-46320219D01*
X63250586Y-46259838D01*
X63250585Y-46259838D01*
X63250584Y-46259837D01*
X63119392Y-46172178D01*
X63007822Y-46060608D01*
X62920163Y-45929416D01*
X62920162Y-45929414D01*
X62859781Y-45783642D01*
X62829000Y-45628893D01*
X62829000Y-45471107D01*
X62859781Y-45316358D01*
X62920162Y-45170586D01*
X62920163Y-45170584D01*
X63007822Y-45039392D01*
X63119392Y-44927822D01*
X63250584Y-44840163D01*
X63250586Y-44840162D01*
X63396358Y-44779781D01*
X63551107Y-44749000D01*
X63728893Y-44749000D01*
X63883642Y-44779781D01*
G37*
G36*
X57883642Y-41779781D02*
G01*
X58007208Y-41830964D01*
X58029416Y-41840163D01*
X58160608Y-41927822D01*
X58272178Y-42039392D01*
X58359837Y-42170584D01*
X58359838Y-42170586D01*
X58420219Y-42316358D01*
X58451000Y-42471107D01*
X58451000Y-42628893D01*
X58420219Y-42783642D01*
X58359838Y-42929414D01*
X58359837Y-42929416D01*
X58272178Y-43060608D01*
X58160608Y-43172178D01*
X58029416Y-43259837D01*
X58029415Y-43259838D01*
X58029414Y-43259838D01*
X57883642Y-43320219D01*
X57728893Y-43351000D01*
X57551107Y-43351000D01*
X57396358Y-43320219D01*
X57250586Y-43259838D01*
X57250585Y-43259838D01*
X57250584Y-43259837D01*
X57119392Y-43172178D01*
X57007822Y-43060608D01*
X56920163Y-42929416D01*
X56920162Y-42929414D01*
X56859781Y-42783642D01*
X56829000Y-42628893D01*
X56829000Y-42471107D01*
X56859781Y-42316358D01*
X56920162Y-42170586D01*
X56920163Y-42170584D01*
X57007822Y-42039392D01*
X57119392Y-41927822D01*
X57250584Y-41840163D01*
X57272792Y-41830964D01*
X57396358Y-41779781D01*
X57551107Y-41749000D01*
X57728893Y-41749000D01*
X57883642Y-41779781D01*
G37*
G36*
X75883642Y-41779781D02*
G01*
X76007208Y-41830964D01*
X76029416Y-41840163D01*
X76160608Y-41927822D01*
X76272178Y-42039392D01*
X76359837Y-42170584D01*
X76359838Y-42170586D01*
X76420219Y-42316358D01*
X76451000Y-42471107D01*
X76451000Y-42628893D01*
X76420219Y-42783642D01*
X76359838Y-42929414D01*
X76359837Y-42929416D01*
X76272178Y-43060608D01*
X76160608Y-43172178D01*
X76029416Y-43259837D01*
X76029415Y-43259838D01*
X76029414Y-43259838D01*
X75883642Y-43320219D01*
X75728893Y-43351000D01*
X75551107Y-43351000D01*
X75396358Y-43320219D01*
X75250586Y-43259838D01*
X75250585Y-43259838D01*
X75250584Y-43259837D01*
X75119392Y-43172178D01*
X75007822Y-43060608D01*
X74920163Y-42929416D01*
X74920162Y-42929414D01*
X74859781Y-42783642D01*
X74829000Y-42628893D01*
X74829000Y-42471107D01*
X74859781Y-42316358D01*
X74920162Y-42170586D01*
X74920163Y-42170584D01*
X75007822Y-42039392D01*
X75119392Y-41927822D01*
X75250584Y-41840163D01*
X75272792Y-41830964D01*
X75396358Y-41779781D01*
X75551107Y-41749000D01*
X75728893Y-41749000D01*
X75883642Y-41779781D01*
G37*
G36*
X72883642Y-41779781D02*
G01*
X73007208Y-41830964D01*
X73029416Y-41840163D01*
X73160608Y-41927822D01*
X73272178Y-42039392D01*
X73359837Y-42170584D01*
X73359838Y-42170586D01*
X73420219Y-42316358D01*
X73451000Y-42471107D01*
X73451000Y-42628893D01*
X73420219Y-42783642D01*
X73359838Y-42929414D01*
X73359837Y-42929416D01*
X73272178Y-43060608D01*
X73160608Y-43172178D01*
X73029416Y-43259837D01*
X73029415Y-43259838D01*
X73029414Y-43259838D01*
X72883642Y-43320219D01*
X72728893Y-43351000D01*
X72551107Y-43351000D01*
X72396358Y-43320219D01*
X72250586Y-43259838D01*
X72250585Y-43259838D01*
X72250584Y-43259837D01*
X72119392Y-43172178D01*
X72007822Y-43060608D01*
X71920163Y-42929416D01*
X71920162Y-42929414D01*
X71859781Y-42783642D01*
X71829000Y-42628893D01*
X71829000Y-42471107D01*
X71859781Y-42316358D01*
X71920162Y-42170586D01*
X71920163Y-42170584D01*
X72007822Y-42039392D01*
X72119392Y-41927822D01*
X72250584Y-41840163D01*
X72272792Y-41830964D01*
X72396358Y-41779781D01*
X72551107Y-41749000D01*
X72728893Y-41749000D01*
X72883642Y-41779781D01*
G37*
G36*
X69883642Y-41779781D02*
G01*
X70007208Y-41830964D01*
X70029416Y-41840163D01*
X70160608Y-41927822D01*
X70272178Y-42039392D01*
X70359837Y-42170584D01*
X70359838Y-42170586D01*
X70420219Y-42316358D01*
X70451000Y-42471107D01*
X70451000Y-42628893D01*
X70420219Y-42783642D01*
X70359838Y-42929414D01*
X70359837Y-42929416D01*
X70272178Y-43060608D01*
X70160608Y-43172178D01*
X70029416Y-43259837D01*
X70029415Y-43259838D01*
X70029414Y-43259838D01*
X69883642Y-43320219D01*
X69728893Y-43351000D01*
X69551107Y-43351000D01*
X69396358Y-43320219D01*
X69250586Y-43259838D01*
X69250585Y-43259838D01*
X69250584Y-43259837D01*
X69119392Y-43172178D01*
X69007822Y-43060608D01*
X68920163Y-42929416D01*
X68920162Y-42929414D01*
X68859781Y-42783642D01*
X68829000Y-42628893D01*
X68829000Y-42471107D01*
X68859781Y-42316358D01*
X68920162Y-42170586D01*
X68920163Y-42170584D01*
X69007822Y-42039392D01*
X69119392Y-41927822D01*
X69250584Y-41840163D01*
X69272792Y-41830964D01*
X69396358Y-41779781D01*
X69551107Y-41749000D01*
X69728893Y-41749000D01*
X69883642Y-41779781D01*
G37*
G36*
X66883642Y-41779781D02*
G01*
X67007208Y-41830964D01*
X67029416Y-41840163D01*
X67160608Y-41927822D01*
X67272178Y-42039392D01*
X67359837Y-42170584D01*
X67359838Y-42170586D01*
X67420219Y-42316358D01*
X67451000Y-42471107D01*
X67451000Y-42628893D01*
X67420219Y-42783642D01*
X67359838Y-42929414D01*
X67359837Y-42929416D01*
X67272178Y-43060608D01*
X67160608Y-43172178D01*
X67029416Y-43259837D01*
X67029415Y-43259838D01*
X67029414Y-43259838D01*
X66883642Y-43320219D01*
X66728893Y-43351000D01*
X66551107Y-43351000D01*
X66396358Y-43320219D01*
X66250586Y-43259838D01*
X66250585Y-43259838D01*
X66250584Y-43259837D01*
X66119392Y-43172178D01*
X66007822Y-43060608D01*
X65920163Y-42929416D01*
X65920162Y-42929414D01*
X65859781Y-42783642D01*
X65829000Y-42628893D01*
X65829000Y-42471107D01*
X65859781Y-42316358D01*
X65920162Y-42170586D01*
X65920163Y-42170584D01*
X66007822Y-42039392D01*
X66119392Y-41927822D01*
X66250584Y-41840163D01*
X66272792Y-41830964D01*
X66396358Y-41779781D01*
X66551107Y-41749000D01*
X66728893Y-41749000D01*
X66883642Y-41779781D01*
G37*
G36*
X63883642Y-41779781D02*
G01*
X64007208Y-41830964D01*
X64029416Y-41840163D01*
X64160608Y-41927822D01*
X64272178Y-42039392D01*
X64359837Y-42170584D01*
X64359838Y-42170586D01*
X64420219Y-42316358D01*
X64451000Y-42471107D01*
X64451000Y-42628893D01*
X64420219Y-42783642D01*
X64359838Y-42929414D01*
X64359837Y-42929416D01*
X64272178Y-43060608D01*
X64160608Y-43172178D01*
X64029416Y-43259837D01*
X64029415Y-43259838D01*
X64029414Y-43259838D01*
X63883642Y-43320219D01*
X63728893Y-43351000D01*
X63551107Y-43351000D01*
X63396358Y-43320219D01*
X63250586Y-43259838D01*
X63250585Y-43259838D01*
X63250584Y-43259837D01*
X63119392Y-43172178D01*
X63007822Y-43060608D01*
X62920163Y-42929416D01*
X62920162Y-42929414D01*
X62859781Y-42783642D01*
X62829000Y-42628893D01*
X62829000Y-42471107D01*
X62859781Y-42316358D01*
X62920162Y-42170586D01*
X62920163Y-42170584D01*
X63007822Y-42039392D01*
X63119392Y-41927822D01*
X63250584Y-41840163D01*
X63272792Y-41830964D01*
X63396358Y-41779781D01*
X63551107Y-41749000D01*
X63728893Y-41749000D01*
X63883642Y-41779781D01*
G37*
G36*
X60883642Y-41779781D02*
G01*
X61007208Y-41830964D01*
X61029416Y-41840163D01*
X61160608Y-41927822D01*
X61272178Y-42039392D01*
X61359837Y-42170584D01*
X61359838Y-42170586D01*
X61420219Y-42316358D01*
X61451000Y-42471107D01*
X61451000Y-42628893D01*
X61420219Y-42783642D01*
X61359838Y-42929414D01*
X61359837Y-42929416D01*
X61272178Y-43060608D01*
X61160608Y-43172178D01*
X61029416Y-43259837D01*
X61029415Y-43259838D01*
X61029414Y-43259838D01*
X60883642Y-43320219D01*
X60728893Y-43351000D01*
X60551107Y-43351000D01*
X60396358Y-43320219D01*
X60250586Y-43259838D01*
X60250585Y-43259838D01*
X60250584Y-43259837D01*
X60119392Y-43172178D01*
X60007822Y-43060608D01*
X59920163Y-42929416D01*
X59920162Y-42929414D01*
X59859781Y-42783642D01*
X59829000Y-42628893D01*
X59829000Y-42471107D01*
X59859781Y-42316358D01*
X59920162Y-42170586D01*
X59920163Y-42170584D01*
X60007822Y-42039392D01*
X60119392Y-41927822D01*
X60250584Y-41840163D01*
X60272792Y-41830964D01*
X60396358Y-41779781D01*
X60551107Y-41749000D01*
X60728893Y-41749000D01*
X60883642Y-41779781D01*
G37*
G36*
X55303048Y-41753122D02*
G01*
X55337387Y-41763539D01*
X55369036Y-41780456D01*
X55396778Y-41803222D01*
X55419544Y-41830964D01*
X55436461Y-41862613D01*
X55446878Y-41896952D01*
X55451000Y-41938807D01*
X55451000Y-43161193D01*
X55446878Y-43203048D01*
X55436461Y-43237387D01*
X55419544Y-43269036D01*
X55396778Y-43296778D01*
X55369036Y-43319544D01*
X55337387Y-43336461D01*
X55303048Y-43346878D01*
X55261193Y-43351000D01*
X54018807Y-43351000D01*
X53976952Y-43346878D01*
X53942613Y-43336461D01*
X53910964Y-43319544D01*
X53883222Y-43296778D01*
X53860456Y-43269036D01*
X53843539Y-43237387D01*
X53833122Y-43203048D01*
X53829000Y-43161193D01*
X53829000Y-41938807D01*
X53833122Y-41896952D01*
X53843539Y-41862613D01*
X53860456Y-41830964D01*
X53883222Y-41803222D01*
X53910964Y-41780456D01*
X53942613Y-41763539D01*
X53976952Y-41753122D01*
X54018807Y-41749000D01*
X55261193Y-41749000D01*
X55303048Y-41753122D01*
G37*
G36*
X81348228Y-39481703D02*
G01*
X81503100Y-39545853D01*
X81642481Y-39638985D01*
X81761015Y-39757519D01*
X81854147Y-39896900D01*
X81918297Y-40051772D01*
X81951000Y-40216184D01*
X81951000Y-40383816D01*
X81918297Y-40548228D01*
X81854147Y-40703100D01*
X81761015Y-40842481D01*
X81642481Y-40961015D01*
X81503100Y-41054147D01*
X81348228Y-41118297D01*
X81183816Y-41151000D01*
X81016184Y-41151000D01*
X80851772Y-41118297D01*
X80696900Y-41054147D01*
X80557519Y-40961015D01*
X80438985Y-40842481D01*
X80345853Y-40703100D01*
X80281703Y-40548228D01*
X80249000Y-40383816D01*
X80249000Y-40216184D01*
X80281703Y-40051772D01*
X80345853Y-39896900D01*
X80438985Y-39757519D01*
X80557519Y-39638985D01*
X80696900Y-39545853D01*
X80851772Y-39481703D01*
X81016184Y-39449000D01*
X81183816Y-39449000D01*
X81348228Y-39481703D01*
G37*
G36*
X78292206Y-36541482D02*
G01*
X78611778Y-36673853D01*
X78899385Y-36866025D01*
X79143975Y-37110615D01*
X79336147Y-37398222D01*
X79468518Y-37717794D01*
X79536000Y-38057049D01*
X79536000Y-38402951D01*
X79468518Y-38742206D01*
X79336147Y-39061778D01*
X79143975Y-39349385D01*
X78899385Y-39593975D01*
X78611778Y-39786147D01*
X78292206Y-39918518D01*
X78122578Y-39952259D01*
X77952952Y-39986000D01*
X77607048Y-39986000D01*
X77437422Y-39952259D01*
X77267794Y-39918518D01*
X76948222Y-39786147D01*
X76660615Y-39593975D01*
X76416025Y-39349385D01*
X76223853Y-39061778D01*
X76091482Y-38742206D01*
X76024000Y-38402951D01*
X76024000Y-38057049D01*
X76091482Y-37717794D01*
X76223853Y-37398222D01*
X76416025Y-37110615D01*
X76660615Y-36866025D01*
X76948222Y-36673853D01*
X77267794Y-36541482D01*
X77607048Y-36474000D01*
X77952952Y-36474000D01*
X78292206Y-36541482D01*
G37*
G36*
X52992206Y-36541482D02*
G01*
X53311778Y-36673853D01*
X53599385Y-36866025D01*
X53843975Y-37110615D01*
X54036147Y-37398222D01*
X54168518Y-37717794D01*
X54236000Y-38057049D01*
X54236000Y-38402951D01*
X54168518Y-38742206D01*
X54036147Y-39061778D01*
X53843975Y-39349385D01*
X53599385Y-39593975D01*
X53311778Y-39786147D01*
X52992206Y-39918518D01*
X52822578Y-39952259D01*
X52652952Y-39986000D01*
X52307048Y-39986000D01*
X52137422Y-39952259D01*
X51967794Y-39918518D01*
X51648222Y-39786147D01*
X51360615Y-39593975D01*
X51116025Y-39349385D01*
X50923853Y-39061778D01*
X50791482Y-38742206D01*
X50724000Y-38402951D01*
X50724000Y-38057049D01*
X50791482Y-37717794D01*
X50923853Y-37398222D01*
X51116025Y-37110615D01*
X51360615Y-36866025D01*
X51648222Y-36673853D01*
X51967794Y-36541482D01*
X52307048Y-36474000D01*
X52652952Y-36474000D01*
X52992206Y-36541482D01*
G37*
G36*
X57092585Y-36708802D02*
G01*
X57242410Y-36738604D01*
X57524674Y-36855521D01*
X57778705Y-37025259D01*
X57994741Y-37241295D01*
X58164479Y-37495326D01*
X58281396Y-37777590D01*
X58341000Y-38077240D01*
X58341000Y-38382760D01*
X58281396Y-38682410D01*
X58164479Y-38964674D01*
X57994741Y-39218705D01*
X57778705Y-39434741D01*
X57524674Y-39604479D01*
X57242410Y-39721396D01*
X57092585Y-39751198D01*
X56942761Y-39781000D01*
X56637239Y-39781000D01*
X56487415Y-39751198D01*
X56337590Y-39721396D01*
X56055326Y-39604479D01*
X55801295Y-39434741D01*
X55585259Y-39218705D01*
X55415521Y-38964674D01*
X55298604Y-38682410D01*
X55239000Y-38382760D01*
X55239000Y-38077240D01*
X55298604Y-37777590D01*
X55415521Y-37495326D01*
X55585259Y-37241295D01*
X55801295Y-37025259D01*
X56055326Y-36855521D01*
X56337590Y-36738604D01*
X56487415Y-36708802D01*
X56637239Y-36679000D01*
X56942761Y-36679000D01*
X57092585Y-36708802D01*
G37*
G36*
X73792585Y-36708802D02*
G01*
X73942410Y-36738604D01*
X74224674Y-36855521D01*
X74478705Y-37025259D01*
X74694741Y-37241295D01*
X74864479Y-37495326D01*
X74981396Y-37777590D01*
X75041000Y-38077240D01*
X75041000Y-38382760D01*
X74981396Y-38682410D01*
X74864479Y-38964674D01*
X74694741Y-39218705D01*
X74478705Y-39434741D01*
X74224674Y-39604479D01*
X73942410Y-39721396D01*
X73792585Y-39751198D01*
X73642761Y-39781000D01*
X73337239Y-39781000D01*
X73187415Y-39751198D01*
X73037590Y-39721396D01*
X72755326Y-39604479D01*
X72501295Y-39434741D01*
X72285259Y-39218705D01*
X72115521Y-38964674D01*
X71998604Y-38682410D01*
X71939000Y-38382760D01*
X71939000Y-38077240D01*
X71998604Y-37777590D01*
X72115521Y-37495326D01*
X72285259Y-37241295D01*
X72501295Y-37025259D01*
X72755326Y-36855521D01*
X73037590Y-36738604D01*
X73187415Y-36708802D01*
X73337239Y-36679000D01*
X73642761Y-36679000D01*
X73792585Y-36708802D01*
G37*
G36*
X81848015Y-37128839D02*
G01*
X81889361Y-37141381D01*
X81927455Y-37161743D01*
X81960851Y-37189149D01*
X81988257Y-37222545D01*
X82008619Y-37260639D01*
X82021161Y-37301985D01*
X82026000Y-37351115D01*
X82026000Y-38623885D01*
X82021161Y-38673015D01*
X82008619Y-38714361D01*
X81988257Y-38752455D01*
X81960851Y-38785851D01*
X81927455Y-38813257D01*
X81889361Y-38833619D01*
X81848015Y-38846161D01*
X81798885Y-38851000D01*
X80401115Y-38851000D01*
X80351985Y-38846161D01*
X80310639Y-38833619D01*
X80272545Y-38813257D01*
X80239149Y-38785851D01*
X80211743Y-38752455D01*
X80191381Y-38714361D01*
X80178839Y-38673015D01*
X80174000Y-38623885D01*
X80174000Y-37351115D01*
X80178839Y-37301985D01*
X80191381Y-37260639D01*
X80211743Y-37222545D01*
X80239149Y-37189149D01*
X80272545Y-37161743D01*
X80310639Y-37141381D01*
X80351985Y-37128839D01*
X80401115Y-37124000D01*
X81798885Y-37124000D01*
X81848015Y-37128839D01*
G37*
G36*
X81848015Y-34553839D02*
G01*
X81889361Y-34566381D01*
X81927455Y-34586743D01*
X81960851Y-34614149D01*
X81988257Y-34647545D01*
X82008619Y-34685639D01*
X82021161Y-34726985D01*
X82026000Y-34776115D01*
X82026000Y-36048885D01*
X82021161Y-36098015D01*
X82008619Y-36139361D01*
X81988257Y-36177455D01*
X81960851Y-36210851D01*
X81927455Y-36238257D01*
X81889361Y-36258619D01*
X81848015Y-36271161D01*
X81798885Y-36276000D01*
X80401115Y-36276000D01*
X80351985Y-36271161D01*
X80310639Y-36258619D01*
X80272545Y-36238257D01*
X80239149Y-36210851D01*
X80211743Y-36177455D01*
X80191381Y-36139361D01*
X80178839Y-36098015D01*
X80174000Y-36048885D01*
X80174000Y-34776115D01*
X80178839Y-34726985D01*
X80191381Y-34685639D01*
X80211743Y-34647545D01*
X80239149Y-34614149D01*
X80272545Y-34586743D01*
X80310639Y-34566381D01*
X80351985Y-34553839D01*
X80401115Y-34549000D01*
X81798885Y-34549000D01*
X81848015Y-34553839D01*
G37*
M02*
