G04 #@! TF.GenerationSoftware,KiCad,Pcbnew,5.1.5+dfsg1-2build2*
G04 #@! TF.CreationDate,2020-08-03T14:51:06+02:00*
G04 #@! TF.ProjectId,carabiner,63617261-6269-46e6-9572-2e6b69636164,rev?*
G04 #@! TF.SameCoordinates,Original*
G04 #@! TF.FileFunction,Paste,Top*
G04 #@! TF.FilePolarity,Positive*
%FSLAX46Y46*%
G04 Gerber Fmt 4.6, Leading zero omitted, Abs format (unit mm)*
G04 Created by KiCad (PCBNEW 5.1.5+dfsg1-2build2) date 2020-08-03 14:51:06*
%MOMM*%
%LPD*%
G04 APERTURE LIST*
%ADD10C,0.100000*%
G04 APERTURE END LIST*
D10*
G36*
X81460779Y-47151144D02*
G01*
X81483834Y-47154563D01*
X81506443Y-47160227D01*
X81528387Y-47168079D01*
X81549457Y-47178044D01*
X81569448Y-47190026D01*
X81588168Y-47203910D01*
X81605438Y-47219562D01*
X81621090Y-47236832D01*
X81634974Y-47255552D01*
X81646956Y-47275543D01*
X81656921Y-47296613D01*
X81664773Y-47318557D01*
X81670437Y-47341166D01*
X81673856Y-47364221D01*
X81675000Y-47387500D01*
X81675000Y-47962500D01*
X81673856Y-47985779D01*
X81670437Y-48008834D01*
X81664773Y-48031443D01*
X81656921Y-48053387D01*
X81646956Y-48074457D01*
X81634974Y-48094448D01*
X81621090Y-48113168D01*
X81605438Y-48130438D01*
X81588168Y-48146090D01*
X81569448Y-48159974D01*
X81549457Y-48171956D01*
X81528387Y-48181921D01*
X81506443Y-48189773D01*
X81483834Y-48195437D01*
X81460779Y-48198856D01*
X81437500Y-48200000D01*
X80962500Y-48200000D01*
X80939221Y-48198856D01*
X80916166Y-48195437D01*
X80893557Y-48189773D01*
X80871613Y-48181921D01*
X80850543Y-48171956D01*
X80830552Y-48159974D01*
X80811832Y-48146090D01*
X80794562Y-48130438D01*
X80778910Y-48113168D01*
X80765026Y-48094448D01*
X80753044Y-48074457D01*
X80743079Y-48053387D01*
X80735227Y-48031443D01*
X80729563Y-48008834D01*
X80726144Y-47985779D01*
X80725000Y-47962500D01*
X80725000Y-47387500D01*
X80726144Y-47364221D01*
X80729563Y-47341166D01*
X80735227Y-47318557D01*
X80743079Y-47296613D01*
X80753044Y-47275543D01*
X80765026Y-47255552D01*
X80778910Y-47236832D01*
X80794562Y-47219562D01*
X80811832Y-47203910D01*
X80830552Y-47190026D01*
X80850543Y-47178044D01*
X80871613Y-47168079D01*
X80893557Y-47160227D01*
X80916166Y-47154563D01*
X80939221Y-47151144D01*
X80962500Y-47150000D01*
X81437500Y-47150000D01*
X81460779Y-47151144D01*
G37*
G36*
X81460779Y-45401144D02*
G01*
X81483834Y-45404563D01*
X81506443Y-45410227D01*
X81528387Y-45418079D01*
X81549457Y-45428044D01*
X81569448Y-45440026D01*
X81588168Y-45453910D01*
X81605438Y-45469562D01*
X81621090Y-45486832D01*
X81634974Y-45505552D01*
X81646956Y-45525543D01*
X81656921Y-45546613D01*
X81664773Y-45568557D01*
X81670437Y-45591166D01*
X81673856Y-45614221D01*
X81675000Y-45637500D01*
X81675000Y-46212500D01*
X81673856Y-46235779D01*
X81670437Y-46258834D01*
X81664773Y-46281443D01*
X81656921Y-46303387D01*
X81646956Y-46324457D01*
X81634974Y-46344448D01*
X81621090Y-46363168D01*
X81605438Y-46380438D01*
X81588168Y-46396090D01*
X81569448Y-46409974D01*
X81549457Y-46421956D01*
X81528387Y-46431921D01*
X81506443Y-46439773D01*
X81483834Y-46445437D01*
X81460779Y-46448856D01*
X81437500Y-46450000D01*
X80962500Y-46450000D01*
X80939221Y-46448856D01*
X80916166Y-46445437D01*
X80893557Y-46439773D01*
X80871613Y-46431921D01*
X80850543Y-46421956D01*
X80830552Y-46409974D01*
X80811832Y-46396090D01*
X80794562Y-46380438D01*
X80778910Y-46363168D01*
X80765026Y-46344448D01*
X80753044Y-46324457D01*
X80743079Y-46303387D01*
X80735227Y-46281443D01*
X80729563Y-46258834D01*
X80726144Y-46235779D01*
X80725000Y-46212500D01*
X80725000Y-45637500D01*
X80726144Y-45614221D01*
X80729563Y-45591166D01*
X80735227Y-45568557D01*
X80743079Y-45546613D01*
X80753044Y-45525543D01*
X80765026Y-45505552D01*
X80778910Y-45486832D01*
X80794562Y-45469562D01*
X80811832Y-45453910D01*
X80830552Y-45440026D01*
X80850543Y-45428044D01*
X80871613Y-45418079D01*
X80893557Y-45410227D01*
X80916166Y-45404563D01*
X80939221Y-45401144D01*
X80962500Y-45400000D01*
X81437500Y-45400000D01*
X81460779Y-45401144D01*
G37*
M02*
