M48
; DRILL file {KiCad 5.1.5+dfsg1-2build2} date Mo 17 Aug 2020 22:14:18
; FORMAT={-:-/ absolute / inch / decimal}
; #@! TF.CreationDate,2020-08-17T22:14:18+02:00
; #@! TF.GenerationSoftware,Kicad,Pcbnew,5.1.5+dfsg1-2build2
; #@! TF.FileFunction,Plated,1,2,PTH
FMAT,2
INCH
T1C0.0315
T2C0.0374
T3C0.0394
T4C0.0402
T5C0.1260
%
G90
G05
T1
X3.2008Y-1.3898
X3.2008Y-1.6898
X3.2008Y-1.7721
X3.2008Y-1.8893
T2
X3.126Y-2.3031
X3.126Y-2.4016
X3.126Y-2.5
X3.126Y-2.5984
X2.8504Y-2.3031
X2.8504Y-2.4016
X2.8504Y-2.5
X2.8504Y-2.5984
T3
X2.1142Y-2.5787
X2.2126Y-2.5787
X2.7441Y-2.0276
X2.8425Y-2.0276
X2.1508Y-1.6748
X2.1508Y-1.7929
X2.2689Y-1.6748
X2.2689Y-1.7929
X2.387Y-1.6748
X2.387Y-1.7929
X2.5051Y-1.6748
X2.5051Y-1.7929
X2.6232Y-1.6748
X2.6232Y-1.7929
X2.7413Y-1.6748
X2.7413Y-1.7929
X2.8594Y-1.6748
X2.8594Y-1.7929
X2.9776Y-1.6748
X2.9776Y-1.7929
X2.5748Y-2.4291
X2.5748Y-2.5276
X2.1142Y-2.3071
X2.2126Y-2.3071
X2.4921Y-2.0433
X2.4921Y-2.1417
T4
X2.1508Y-1.6752
X2.1508Y-1.7933
X2.2689Y-1.6752
X2.2689Y-1.7933
X2.387Y-1.6752
X2.387Y-1.7933
X2.5051Y-1.6752
X2.5051Y-1.7933
X2.6232Y-1.6752
X2.6232Y-1.7933
X2.7413Y-1.6752
X2.7413Y-1.7933
X2.8594Y-1.6752
X2.8594Y-1.7933
X2.9776Y-1.6752
X2.9776Y-1.7933
X2.4921Y-2.0394
X2.4921Y-2.1575
T5
X2.1102Y-2.0472
X3.1378Y-2.0472
T0
M30
