G04 #@! TF.GenerationSoftware,KiCad,Pcbnew,5.99.0-unknown-e02bb80bf3~131~ubuntu20.10.1*
G04 #@! TF.CreationDate,2021-07-20T00:02:42+02:00*
G04 #@! TF.ProjectId,carabiner,63617261-6269-46e6-9572-2e6b69636164,rev?*
G04 #@! TF.SameCoordinates,Original*
G04 #@! TF.FileFunction,Legend,Bot*
G04 #@! TF.FilePolarity,Positive*
%FSLAX46Y46*%
G04 Gerber Fmt 4.6, Leading zero omitted, Abs format (unit mm)*
G04 Created by KiCad (PCBNEW 5.99.0-unknown-e02bb80bf3~131~ubuntu20.10.1) date 2021-07-20 00:02:42*
%MOMM*%
%LPD*%
G01*
G04 APERTURE LIST*
%ADD10C,0.200000*%
%ADD11C,0.100000*%
%ADD12C,0.150000*%
%ADD13C,0.120000*%
G04 APERTURE END LIST*
D10*
X55769047Y-49678571D02*
X56530952Y-49678571D01*
X53671428Y-49269047D02*
X53671428Y-50030952D01*
X54052380Y-49650000D02*
X53290476Y-49650000D01*
D11*
X77283333Y-64500000D02*
X77283333Y-64166666D01*
X77083333Y-64566666D02*
X77783333Y-64333333D01*
X77083333Y-64100000D01*
X77550000Y-63566666D02*
X77083333Y-63566666D01*
X77550000Y-63866666D02*
X77183333Y-63866666D01*
X77116666Y-63833333D01*
X77083333Y-63766666D01*
X77083333Y-63666666D01*
X77116666Y-63600000D01*
X77150000Y-63566666D01*
X77083333Y-63300000D02*
X77550000Y-62933333D01*
X77550000Y-63300000D02*
X77083333Y-62933333D01*
X77716666Y-62700000D02*
X77750000Y-62666666D01*
X77783333Y-62600000D01*
X77783333Y-62433333D01*
X77750000Y-62366666D01*
X77716666Y-62333333D01*
X77650000Y-62300000D01*
X77583333Y-62300000D01*
X77483333Y-62333333D01*
X77083333Y-62733333D01*
X77083333Y-62300000D01*
X62283333Y-65700000D02*
X62983333Y-65700000D01*
X62650000Y-65700000D02*
X62650000Y-65300000D01*
X62283333Y-65300000D02*
X62983333Y-65300000D01*
X62650000Y-64966666D02*
X62650000Y-64733333D01*
X62283333Y-64633333D02*
X62283333Y-64966666D01*
X62983333Y-64966666D01*
X62983333Y-64633333D01*
X62550000Y-64333333D02*
X62550000Y-63800000D01*
X73400000Y-54416666D02*
X73000000Y-54416666D01*
X73200000Y-55116666D02*
X73200000Y-54416666D01*
X72766666Y-55116666D02*
X72766666Y-54416666D01*
X72466666Y-55116666D02*
X72466666Y-54750000D01*
X72500000Y-54683333D01*
X72566666Y-54650000D01*
X72666666Y-54650000D01*
X72733333Y-54683333D01*
X72766666Y-54716666D01*
X72133333Y-55116666D02*
X72133333Y-54416666D01*
X72133333Y-54750000D02*
X71733333Y-54750000D01*
X71733333Y-55116666D02*
X71733333Y-54416666D01*
X71400000Y-54750000D02*
X71166666Y-54750000D01*
X71066666Y-55116666D02*
X71400000Y-55116666D01*
X71400000Y-54416666D01*
X71066666Y-54416666D01*
X64850000Y-47816666D02*
X64450000Y-47816666D01*
X64650000Y-48516666D02*
X64650000Y-47816666D01*
X64216666Y-48516666D02*
X64216666Y-47816666D01*
X63916666Y-48516666D02*
X63916666Y-48150000D01*
X63950000Y-48083333D01*
X64016666Y-48050000D01*
X64116666Y-48050000D01*
X64183333Y-48083333D01*
X64216666Y-48116666D01*
X63583333Y-48516666D02*
X63583333Y-47816666D01*
X63583333Y-48150000D02*
X63183333Y-48150000D01*
X63183333Y-48516666D02*
X63183333Y-47816666D01*
X62850000Y-48150000D02*
X62616666Y-48150000D01*
X62516666Y-48516666D02*
X62850000Y-48516666D01*
X62850000Y-47816666D01*
X62516666Y-47816666D01*
X69083333Y-60233333D02*
X69783333Y-60233333D01*
X69283333Y-60000000D01*
X69783333Y-59766666D01*
X69083333Y-59766666D01*
X69083333Y-59333333D02*
X69116666Y-59400000D01*
X69150000Y-59433333D01*
X69216666Y-59466666D01*
X69416666Y-59466666D01*
X69483333Y-59433333D01*
X69516666Y-59400000D01*
X69550000Y-59333333D01*
X69550000Y-59233333D01*
X69516666Y-59166666D01*
X69483333Y-59133333D01*
X69416666Y-59100000D01*
X69216666Y-59100000D01*
X69150000Y-59133333D01*
X69116666Y-59166666D01*
X69083333Y-59233333D01*
X69083333Y-59333333D01*
X69550000Y-58900000D02*
X69550000Y-58633333D01*
X69783333Y-58800000D02*
X69183333Y-58800000D01*
X69116666Y-58766666D01*
X69083333Y-58700000D01*
X69083333Y-58633333D01*
X69083333Y-58300000D02*
X69116666Y-58366666D01*
X69150000Y-58400000D01*
X69216666Y-58433333D01*
X69416666Y-58433333D01*
X69483333Y-58400000D01*
X69516666Y-58366666D01*
X69550000Y-58300000D01*
X69550000Y-58200000D01*
X69516666Y-58133333D01*
X69483333Y-58100000D01*
X69416666Y-58066666D01*
X69216666Y-58066666D01*
X69150000Y-58100000D01*
X69116666Y-58133333D01*
X69083333Y-58200000D01*
X69083333Y-58300000D01*
X69083333Y-57766666D02*
X69550000Y-57766666D01*
X69416666Y-57766666D02*
X69483333Y-57733333D01*
X69516666Y-57700000D01*
X69550000Y-57633333D01*
X69550000Y-57566666D01*
X69083333Y-57333333D02*
X69783333Y-57333333D01*
X69783333Y-57166666D01*
X69750000Y-57066666D01*
X69683333Y-57000000D01*
X69616666Y-56966666D01*
X69483333Y-56933333D01*
X69383333Y-56933333D01*
X69250000Y-56966666D01*
X69183333Y-57000000D01*
X69116666Y-57066666D01*
X69083333Y-57166666D01*
X69083333Y-57333333D01*
X79068333Y-35503166D02*
X79068333Y-34969833D01*
X79101666Y-35469833D02*
X79101666Y-35003166D01*
X79135000Y-35469833D02*
X79135000Y-35003166D01*
X79168333Y-35436500D02*
X79168333Y-35036500D01*
X79201666Y-35436500D02*
X79201666Y-35036500D01*
X79235000Y-35403166D02*
X79235000Y-35069833D01*
X79268333Y-35403166D02*
X79268333Y-35069833D01*
X79301666Y-35369833D02*
X79301666Y-35103166D01*
X79335000Y-35336500D02*
X79335000Y-35136500D01*
X79368333Y-35336500D02*
X79368333Y-35136500D01*
X79401666Y-35303166D02*
X79401666Y-35169833D01*
X79435000Y-35303166D02*
X79435000Y-35169833D01*
X79468333Y-35236500D02*
X79501666Y-35236500D01*
X79468333Y-35269833D02*
X79468333Y-35203166D01*
X79035000Y-35503166D02*
X79535000Y-35236500D01*
X79035000Y-34969833D01*
X79568333Y-35236500D02*
X79035000Y-34936500D01*
X79035000Y-35536500D01*
X79568333Y-35236500D01*
X78268333Y-34803166D02*
X77868333Y-34803166D01*
X78068333Y-35503166D02*
X78068333Y-34803166D01*
X77635000Y-35503166D02*
X77635000Y-34803166D01*
X77335000Y-35503166D02*
X77335000Y-35136500D01*
X77368333Y-35069833D01*
X77435000Y-35036500D01*
X77535000Y-35036500D01*
X77601666Y-35069833D01*
X77635000Y-35103166D01*
X76601666Y-35436500D02*
X76635000Y-35469833D01*
X76735000Y-35503166D01*
X76801666Y-35503166D01*
X76901666Y-35469833D01*
X76968333Y-35403166D01*
X77001666Y-35336500D01*
X77035000Y-35203166D01*
X77035000Y-35103166D01*
X77001666Y-34969833D01*
X76968333Y-34903166D01*
X76901666Y-34836500D01*
X76801666Y-34803166D01*
X76735000Y-34803166D01*
X76635000Y-34836500D01*
X76601666Y-34869833D01*
X76301666Y-35503166D02*
X76301666Y-34803166D01*
X76001666Y-35503166D02*
X76001666Y-35136500D01*
X76035000Y-35069833D01*
X76101666Y-35036500D01*
X76201666Y-35036500D01*
X76268333Y-35069833D01*
X76301666Y-35103166D01*
X75368333Y-35503166D02*
X75368333Y-35136500D01*
X75401666Y-35069833D01*
X75468333Y-35036500D01*
X75601666Y-35036500D01*
X75668333Y-35069833D01*
X75368333Y-35469833D02*
X75435000Y-35503166D01*
X75601666Y-35503166D01*
X75668333Y-35469833D01*
X75701666Y-35403166D01*
X75701666Y-35336500D01*
X75668333Y-35269833D01*
X75601666Y-35236500D01*
X75435000Y-35236500D01*
X75368333Y-35203166D01*
X75035000Y-35503166D02*
X75035000Y-35036500D01*
X75035000Y-35103166D02*
X75001666Y-35069833D01*
X74935000Y-35036500D01*
X74835000Y-35036500D01*
X74768333Y-35069833D01*
X74735000Y-35136500D01*
X74735000Y-35503166D01*
X74735000Y-35136500D02*
X74701666Y-35069833D01*
X74635000Y-35036500D01*
X74535000Y-35036500D01*
X74468333Y-35069833D01*
X74435000Y-35136500D01*
X74435000Y-35503166D01*
X74101666Y-35503166D02*
X74101666Y-34803166D01*
X74101666Y-35069833D02*
X74035000Y-35036500D01*
X73901666Y-35036500D01*
X73835000Y-35069833D01*
X73801666Y-35103166D01*
X73768333Y-35169833D01*
X73768333Y-35369833D01*
X73801666Y-35436500D01*
X73835000Y-35469833D01*
X73901666Y-35503166D01*
X74035000Y-35503166D01*
X74101666Y-35469833D01*
D12*
X57881714Y-63741023D02*
X57919809Y-63698166D01*
X57957904Y-63579119D01*
X57957904Y-63502928D01*
X57919809Y-63393404D01*
X57843619Y-63326738D01*
X57767428Y-63298166D01*
X57615047Y-63279119D01*
X57500761Y-63293404D01*
X57348380Y-63350547D01*
X57272190Y-63398166D01*
X57196000Y-63483880D01*
X57157904Y-63602928D01*
X57157904Y-63679119D01*
X57196000Y-63788642D01*
X57234095Y-63821976D01*
X57957904Y-64417214D02*
X57538857Y-64469595D01*
X57462666Y-64441023D01*
X57424571Y-64369595D01*
X57424571Y-64217214D01*
X57462666Y-64136261D01*
X57919809Y-64421976D02*
X57957904Y-64341023D01*
X57957904Y-64150547D01*
X57919809Y-64079119D01*
X57843619Y-64050547D01*
X57767428Y-64060071D01*
X57691238Y-64107690D01*
X57653142Y-64188642D01*
X57653142Y-64379119D01*
X57615047Y-64460071D01*
X57957904Y-64798166D02*
X57424571Y-64864833D01*
X57576952Y-64845785D02*
X57500761Y-64893404D01*
X57462666Y-64936261D01*
X57424571Y-65017214D01*
X57424571Y-65093404D01*
X57957904Y-65636261D02*
X57538857Y-65688642D01*
X57462666Y-65660071D01*
X57424571Y-65588642D01*
X57424571Y-65436261D01*
X57462666Y-65355309D01*
X57919809Y-65641023D02*
X57957904Y-65560071D01*
X57957904Y-65369595D01*
X57919809Y-65298166D01*
X57843619Y-65269595D01*
X57767428Y-65279119D01*
X57691238Y-65326738D01*
X57653142Y-65407690D01*
X57653142Y-65598166D01*
X57615047Y-65679119D01*
X57957904Y-66017214D02*
X57157904Y-66117214D01*
X57462666Y-66079119D02*
X57424571Y-66160071D01*
X57424571Y-66312452D01*
X57462666Y-66383880D01*
X57500761Y-66417214D01*
X57576952Y-66445785D01*
X57805523Y-66417214D01*
X57881714Y-66369595D01*
X57919809Y-66326738D01*
X57957904Y-66245785D01*
X57957904Y-66093404D01*
X57919809Y-66021976D01*
X57957904Y-66741023D02*
X57424571Y-66807690D01*
X57157904Y-66841023D02*
X57196000Y-66798166D01*
X57234095Y-66831500D01*
X57196000Y-66874357D01*
X57157904Y-66841023D01*
X57234095Y-66831500D01*
X57424571Y-67188642D02*
X57957904Y-67121976D01*
X57500761Y-67179119D02*
X57462666Y-67221976D01*
X57424571Y-67302928D01*
X57424571Y-67417214D01*
X57462666Y-67488642D01*
X57538857Y-67517214D01*
X57957904Y-67464833D01*
X57919809Y-68155309D02*
X57957904Y-68074357D01*
X57957904Y-67921976D01*
X57919809Y-67850547D01*
X57843619Y-67821976D01*
X57538857Y-67860071D01*
X57462666Y-67907690D01*
X57424571Y-67988642D01*
X57424571Y-68141023D01*
X57462666Y-68212452D01*
X57538857Y-68241023D01*
X57615047Y-68231500D01*
X57691238Y-67841023D01*
X57957904Y-68531500D02*
X57424571Y-68598166D01*
X57576952Y-68579119D02*
X57500761Y-68626738D01*
X57462666Y-68669595D01*
X57424571Y-68750547D01*
X57424571Y-68826738D01*
X59245904Y-65636261D02*
X58864952Y-65417214D01*
X59245904Y-65179119D02*
X58445904Y-65279119D01*
X58445904Y-65583880D01*
X58484000Y-65655309D01*
X58522095Y-65688642D01*
X58598285Y-65717214D01*
X58712571Y-65702928D01*
X58788761Y-65655309D01*
X58826857Y-65612452D01*
X58864952Y-65531500D01*
X58864952Y-65226738D01*
X59245904Y-66398166D02*
X59245904Y-65941023D01*
X59245904Y-66169595D02*
X58445904Y-66269595D01*
X58560190Y-66179119D01*
X58636380Y-66093404D01*
X58674476Y-66012452D01*
X59169714Y-66750547D02*
X59207809Y-66783880D01*
X59245904Y-66741023D01*
X59207809Y-66707690D01*
X59169714Y-66750547D01*
X59245904Y-66741023D01*
X58445904Y-67374357D02*
X58445904Y-67450547D01*
X58484000Y-67521976D01*
X58522095Y-67555309D01*
X58598285Y-67583880D01*
X58750666Y-67602928D01*
X58941142Y-67579119D01*
X59093523Y-67521976D01*
X59169714Y-67474357D01*
X59207809Y-67431500D01*
X59245904Y-67350547D01*
X59245904Y-67274357D01*
X59207809Y-67202928D01*
X59169714Y-67169595D01*
X59093523Y-67141023D01*
X58941142Y-67121976D01*
X58750666Y-67145785D01*
X58598285Y-67202928D01*
X58522095Y-67250547D01*
X58484000Y-67293404D01*
X58445904Y-67374357D01*
X59169714Y-67893404D02*
X59207809Y-67926738D01*
X59245904Y-67883880D01*
X59207809Y-67850547D01*
X59169714Y-67893404D01*
X59245904Y-67883880D01*
X59245904Y-68683880D02*
X59245904Y-68226738D01*
X59245904Y-68455309D02*
X58445904Y-68555309D01*
X58560190Y-68464833D01*
X58636380Y-68379119D01*
X58674476Y-68298166D01*
D11*
X76383333Y-66800000D02*
X76383333Y-66466666D01*
X76183333Y-66866666D02*
X76883333Y-66633333D01*
X76183333Y-66400000D01*
X76650000Y-65866666D02*
X76183333Y-65866666D01*
X76650000Y-66166666D02*
X76283333Y-66166666D01*
X76216666Y-66133333D01*
X76183333Y-66066666D01*
X76183333Y-65966666D01*
X76216666Y-65900000D01*
X76250000Y-65866666D01*
X76183333Y-65600000D02*
X76650000Y-65233333D01*
X76650000Y-65600000D02*
X76183333Y-65233333D01*
X76183333Y-64600000D02*
X76183333Y-65000000D01*
X76183333Y-64800000D02*
X76883333Y-64800000D01*
X76783333Y-64866666D01*
X76716666Y-64933333D01*
X76683333Y-65000000D01*
X62300000Y-41416666D02*
X62300000Y-40716666D01*
X62300000Y-41050000D02*
X61900000Y-41050000D01*
X61900000Y-41416666D02*
X61900000Y-40716666D01*
X61566666Y-41050000D02*
X61333333Y-41050000D01*
X61233333Y-41416666D02*
X61566666Y-41416666D01*
X61566666Y-40716666D01*
X61233333Y-40716666D01*
X60700000Y-41050000D02*
X60933333Y-41050000D01*
X60933333Y-41416666D02*
X60933333Y-40716666D01*
X60600000Y-40716666D01*
X59966666Y-40750000D02*
X60033333Y-40716666D01*
X60133333Y-40716666D01*
X60233333Y-40750000D01*
X60300000Y-40816666D01*
X60333333Y-40883333D01*
X60366666Y-41016666D01*
X60366666Y-41116666D01*
X60333333Y-41250000D01*
X60300000Y-41316666D01*
X60233333Y-41383333D01*
X60133333Y-41416666D01*
X60066666Y-41416666D01*
X59966666Y-41383333D01*
X59933333Y-41350000D01*
X59933333Y-41116666D01*
X60066666Y-41116666D01*
X59633333Y-40950000D02*
X59633333Y-41416666D01*
X59633333Y-41016666D02*
X59600000Y-40983333D01*
X59533333Y-40950000D01*
X59433333Y-40950000D01*
X59366666Y-40983333D01*
X59333333Y-41050000D01*
X59333333Y-41416666D01*
X58700000Y-41416666D02*
X58700000Y-40716666D01*
X58700000Y-41383333D02*
X58766666Y-41416666D01*
X58900000Y-41416666D01*
X58966666Y-41383333D01*
X59000000Y-41350000D01*
X59033333Y-41283333D01*
X59033333Y-41083333D01*
X59000000Y-41016666D01*
X58966666Y-40983333D01*
X58900000Y-40950000D01*
X58766666Y-40950000D01*
X58700000Y-40983333D01*
X76700000Y-48316666D02*
X76366666Y-48316666D01*
X76766666Y-48516666D02*
X76533333Y-47816666D01*
X76300000Y-48516666D01*
X75766666Y-48050000D02*
X75766666Y-48516666D01*
X76066666Y-48050000D02*
X76066666Y-48416666D01*
X76033333Y-48483333D01*
X75966666Y-48516666D01*
X75866666Y-48516666D01*
X75800000Y-48483333D01*
X75766666Y-48450000D01*
X75500000Y-48516666D02*
X75133333Y-48050000D01*
X75500000Y-48050000D02*
X75133333Y-48516666D01*
X74933333Y-47816666D02*
X74500000Y-47816666D01*
X74733333Y-48083333D01*
X74633333Y-48083333D01*
X74566666Y-48116666D01*
X74533333Y-48150000D01*
X74500000Y-48216666D01*
X74500000Y-48383333D01*
X74533333Y-48450000D01*
X74566666Y-48483333D01*
X74633333Y-48516666D01*
X74833333Y-48516666D01*
X74900000Y-48483333D01*
X74933333Y-48450000D01*
X76283333Y-62100000D02*
X76283333Y-61766666D01*
X76083333Y-62166666D02*
X76783333Y-61933333D01*
X76083333Y-61700000D01*
X76550000Y-61166666D02*
X76083333Y-61166666D01*
X76550000Y-61466666D02*
X76183333Y-61466666D01*
X76116666Y-61433333D01*
X76083333Y-61366666D01*
X76083333Y-61266666D01*
X76116666Y-61200000D01*
X76150000Y-61166666D01*
X76083333Y-60900000D02*
X76550000Y-60533333D01*
X76550000Y-60900000D02*
X76083333Y-60533333D01*
X76783333Y-60333333D02*
X76783333Y-59900000D01*
X76516666Y-60133333D01*
X76516666Y-60033333D01*
X76483333Y-59966666D01*
X76450000Y-59933333D01*
X76383333Y-59900000D01*
X76216666Y-59900000D01*
X76150000Y-59933333D01*
X76116666Y-59966666D01*
X76083333Y-60033333D01*
X76083333Y-60233333D01*
X76116666Y-60300000D01*
X76150000Y-60333333D01*
X73700000Y-41216666D02*
X73366666Y-41216666D01*
X73766666Y-41416666D02*
X73533333Y-40716666D01*
X73300000Y-41416666D01*
X72766666Y-40950000D02*
X72766666Y-41416666D01*
X73066666Y-40950000D02*
X73066666Y-41316666D01*
X73033333Y-41383333D01*
X72966666Y-41416666D01*
X72866666Y-41416666D01*
X72800000Y-41383333D01*
X72766666Y-41350000D01*
X72500000Y-41416666D02*
X72133333Y-40950000D01*
X72500000Y-40950000D02*
X72133333Y-41416666D01*
X71500000Y-41416666D02*
X71900000Y-41416666D01*
X71700000Y-41416666D02*
X71700000Y-40716666D01*
X71766666Y-40816666D01*
X71833333Y-40883333D01*
X71900000Y-40916666D01*
X71233333Y-48516666D02*
X71233333Y-47816666D01*
X71000000Y-48316666D01*
X70766666Y-47816666D01*
X70766666Y-48516666D01*
X70333333Y-48516666D02*
X70400000Y-48483333D01*
X70433333Y-48450000D01*
X70466666Y-48383333D01*
X70466666Y-48183333D01*
X70433333Y-48116666D01*
X70400000Y-48083333D01*
X70333333Y-48050000D01*
X70233333Y-48050000D01*
X70166666Y-48083333D01*
X70133333Y-48116666D01*
X70100000Y-48183333D01*
X70100000Y-48383333D01*
X70133333Y-48450000D01*
X70166666Y-48483333D01*
X70233333Y-48516666D01*
X70333333Y-48516666D01*
X69900000Y-48050000D02*
X69633333Y-48050000D01*
X69800000Y-47816666D02*
X69800000Y-48416666D01*
X69766666Y-48483333D01*
X69700000Y-48516666D01*
X69633333Y-48516666D01*
X69300000Y-48516666D02*
X69366666Y-48483333D01*
X69400000Y-48450000D01*
X69433333Y-48383333D01*
X69433333Y-48183333D01*
X69400000Y-48116666D01*
X69366666Y-48083333D01*
X69300000Y-48050000D01*
X69200000Y-48050000D01*
X69133333Y-48083333D01*
X69100000Y-48116666D01*
X69066666Y-48183333D01*
X69066666Y-48383333D01*
X69100000Y-48450000D01*
X69133333Y-48483333D01*
X69200000Y-48516666D01*
X69300000Y-48516666D01*
X68766666Y-48516666D02*
X68766666Y-48050000D01*
X68766666Y-48183333D02*
X68733333Y-48116666D01*
X68700000Y-48083333D01*
X68633333Y-48050000D01*
X68566666Y-48050000D01*
X67933333Y-48450000D02*
X67966666Y-48483333D01*
X68066666Y-48516666D01*
X68133333Y-48516666D01*
X68233333Y-48483333D01*
X68300000Y-48416666D01*
X68333333Y-48350000D01*
X68366666Y-48216666D01*
X68366666Y-48116666D01*
X68333333Y-47983333D01*
X68300000Y-47916666D01*
X68233333Y-47850000D01*
X68133333Y-47816666D01*
X68066666Y-47816666D01*
X67966666Y-47850000D01*
X67933333Y-47883333D01*
D10*
X53671428Y-60319047D02*
X53671428Y-61080952D01*
X54052380Y-60700000D02*
X53290476Y-60700000D01*
D11*
X62150000Y-47416666D02*
X61816666Y-47416666D01*
X62216666Y-47616666D02*
X61983333Y-46916666D01*
X61750000Y-47616666D01*
X61416666Y-47616666D02*
X61483333Y-47583333D01*
X61516666Y-47516666D01*
X61516666Y-46916666D01*
X61250000Y-47150000D02*
X60983333Y-47150000D01*
X61150000Y-46916666D02*
X61150000Y-47516666D01*
X61116666Y-47583333D01*
X61050000Y-47616666D01*
X60983333Y-47616666D01*
X60850000Y-46916666D02*
X60616666Y-47616666D01*
X60383333Y-46916666D01*
X60050000Y-47616666D02*
X60116666Y-47583333D01*
X60150000Y-47550000D01*
X60183333Y-47483333D01*
X60183333Y-47283333D01*
X60150000Y-47216666D01*
X60116666Y-47183333D01*
X60050000Y-47150000D01*
X59950000Y-47150000D01*
X59883333Y-47183333D01*
X59850000Y-47216666D01*
X59816666Y-47283333D01*
X59816666Y-47483333D01*
X59850000Y-47550000D01*
X59883333Y-47583333D01*
X59950000Y-47616666D01*
X60050000Y-47616666D01*
X59416666Y-47616666D02*
X59483333Y-47583333D01*
X59516666Y-47516666D01*
X59516666Y-46916666D01*
X59250000Y-47150000D02*
X58983333Y-47150000D01*
X59150000Y-46916666D02*
X59150000Y-47516666D01*
X59116666Y-47583333D01*
X59050000Y-47616666D01*
X58983333Y-47616666D01*
X62283333Y-62983333D02*
X62983333Y-62983333D01*
X62483333Y-62750000D01*
X62983333Y-62516666D01*
X62283333Y-62516666D01*
X62283333Y-61883333D02*
X62650000Y-61883333D01*
X62716666Y-61916666D01*
X62750000Y-61983333D01*
X62750000Y-62116666D01*
X62716666Y-62183333D01*
X62316666Y-61883333D02*
X62283333Y-61950000D01*
X62283333Y-62116666D01*
X62316666Y-62183333D01*
X62383333Y-62216666D01*
X62450000Y-62216666D01*
X62516666Y-62183333D01*
X62550000Y-62116666D01*
X62550000Y-61950000D01*
X62583333Y-61883333D01*
X62283333Y-61550000D02*
X62750000Y-61550000D01*
X62983333Y-61550000D02*
X62950000Y-61583333D01*
X62916666Y-61550000D01*
X62950000Y-61516666D01*
X62983333Y-61550000D01*
X62916666Y-61550000D01*
X62750000Y-61216666D02*
X62283333Y-61216666D01*
X62683333Y-61216666D02*
X62716666Y-61183333D01*
X62750000Y-61116666D01*
X62750000Y-61016666D01*
X62716666Y-60950000D01*
X62650000Y-60916666D01*
X62283333Y-60916666D01*
X70083333Y-62633333D02*
X70783333Y-62633333D01*
X70283333Y-62400000D01*
X70783333Y-62166666D01*
X70083333Y-62166666D01*
X70083333Y-61733333D02*
X70116666Y-61800000D01*
X70150000Y-61833333D01*
X70216666Y-61866666D01*
X70416666Y-61866666D01*
X70483333Y-61833333D01*
X70516666Y-61800000D01*
X70550000Y-61733333D01*
X70550000Y-61633333D01*
X70516666Y-61566666D01*
X70483333Y-61533333D01*
X70416666Y-61500000D01*
X70216666Y-61500000D01*
X70150000Y-61533333D01*
X70116666Y-61566666D01*
X70083333Y-61633333D01*
X70083333Y-61733333D01*
X70550000Y-61300000D02*
X70550000Y-61033333D01*
X70783333Y-61200000D02*
X70183333Y-61200000D01*
X70116666Y-61166666D01*
X70083333Y-61100000D01*
X70083333Y-61033333D01*
X70083333Y-60700000D02*
X70116666Y-60766666D01*
X70150000Y-60800000D01*
X70216666Y-60833333D01*
X70416666Y-60833333D01*
X70483333Y-60800000D01*
X70516666Y-60766666D01*
X70550000Y-60700000D01*
X70550000Y-60600000D01*
X70516666Y-60533333D01*
X70483333Y-60500000D01*
X70416666Y-60466666D01*
X70216666Y-60466666D01*
X70150000Y-60500000D01*
X70116666Y-60533333D01*
X70083333Y-60600000D01*
X70083333Y-60700000D01*
X70083333Y-60166666D02*
X70550000Y-60166666D01*
X70416666Y-60166666D02*
X70483333Y-60133333D01*
X70516666Y-60100000D01*
X70550000Y-60033333D01*
X70550000Y-59966666D01*
X70150000Y-59333333D02*
X70116666Y-59366666D01*
X70083333Y-59466666D01*
X70083333Y-59533333D01*
X70116666Y-59633333D01*
X70183333Y-59700000D01*
X70250000Y-59733333D01*
X70383333Y-59766666D01*
X70483333Y-59766666D01*
X70616666Y-59733333D01*
X70683333Y-59700000D01*
X70750000Y-59633333D01*
X70783333Y-59533333D01*
X70783333Y-59466666D01*
X70750000Y-59366666D01*
X70716666Y-59333333D01*
X65000000Y-39716666D02*
X64600000Y-39716666D01*
X64800000Y-40416666D02*
X64800000Y-39716666D01*
X64366666Y-40416666D02*
X64366666Y-39716666D01*
X64066666Y-40416666D02*
X64066666Y-40050000D01*
X64100000Y-39983333D01*
X64166666Y-39950000D01*
X64266666Y-39950000D01*
X64333333Y-39983333D01*
X64366666Y-40016666D01*
X63366666Y-39750000D02*
X63433333Y-39716666D01*
X63533333Y-39716666D01*
X63633333Y-39750000D01*
X63700000Y-39816666D01*
X63733333Y-39883333D01*
X63766666Y-40016666D01*
X63766666Y-40116666D01*
X63733333Y-40250000D01*
X63700000Y-40316666D01*
X63633333Y-40383333D01*
X63533333Y-40416666D01*
X63466666Y-40416666D01*
X63366666Y-40383333D01*
X63333333Y-40350000D01*
X63333333Y-40116666D01*
X63466666Y-40116666D01*
X63033333Y-39950000D02*
X63033333Y-40416666D01*
X63033333Y-40016666D02*
X63000000Y-39983333D01*
X62933333Y-39950000D01*
X62833333Y-39950000D01*
X62766666Y-39983333D01*
X62733333Y-40050000D01*
X62733333Y-40416666D01*
X62100000Y-40416666D02*
X62100000Y-39716666D01*
X62100000Y-40383333D02*
X62166666Y-40416666D01*
X62300000Y-40416666D01*
X62366666Y-40383333D01*
X62400000Y-40350000D01*
X62433333Y-40283333D01*
X62433333Y-40083333D01*
X62400000Y-40016666D01*
X62366666Y-39983333D01*
X62300000Y-39950000D01*
X62166666Y-39950000D01*
X62100000Y-39983333D01*
D12*
X56018554Y-35704096D02*
X55909030Y-35742191D01*
X55718554Y-35742191D01*
X55637602Y-35704096D01*
X55594745Y-35666001D01*
X55547126Y-35589810D01*
X55537602Y-35513620D01*
X55566173Y-35437429D01*
X55599507Y-35399334D01*
X55670935Y-35361239D01*
X55818554Y-35323144D01*
X55889983Y-35285048D01*
X55923316Y-35246953D01*
X55951887Y-35170763D01*
X55942364Y-35094572D01*
X55894745Y-35018382D01*
X55851887Y-34980287D01*
X55770935Y-34942191D01*
X55580459Y-34942191D01*
X55470935Y-34980287D01*
X55223316Y-35742191D02*
X55156649Y-35208858D01*
X55123316Y-34942191D02*
X55166173Y-34980287D01*
X55132840Y-35018382D01*
X55089983Y-34980287D01*
X55123316Y-34942191D01*
X55132840Y-35018382D01*
X54499507Y-35742191D02*
X54399507Y-34942191D01*
X54494745Y-35704096D02*
X54575697Y-35742191D01*
X54728078Y-35742191D01*
X54799507Y-35704096D01*
X54832840Y-35666001D01*
X54861411Y-35589810D01*
X54832840Y-35361239D01*
X54785221Y-35285048D01*
X54742364Y-35246953D01*
X54661411Y-35208858D01*
X54509030Y-35208858D01*
X54437602Y-35246953D01*
X53809030Y-35704096D02*
X53889983Y-35742191D01*
X54042364Y-35742191D01*
X54113792Y-35704096D01*
X54142364Y-35627906D01*
X54104268Y-35323144D01*
X54056649Y-35246953D01*
X53975697Y-35208858D01*
X53823316Y-35208858D01*
X53751887Y-35246953D01*
X53723316Y-35323144D01*
X53732840Y-35399334D01*
X54123316Y-35475525D01*
X52504268Y-35323144D02*
X52394745Y-35361239D01*
X52361411Y-35399334D01*
X52332840Y-35475525D01*
X52347126Y-35589810D01*
X52394745Y-35666001D01*
X52437602Y-35704096D01*
X52518554Y-35742191D01*
X52823316Y-35742191D01*
X52723316Y-34942191D01*
X52456649Y-34942191D01*
X52385221Y-34980287D01*
X52351887Y-35018382D01*
X52323316Y-35094572D01*
X52332840Y-35170763D01*
X52380459Y-35246953D01*
X52423316Y-35285048D01*
X52504268Y-35323144D01*
X52770935Y-35323144D01*
D11*
X71200000Y-53316666D02*
X70800000Y-53316666D01*
X71000000Y-54016666D02*
X71000000Y-53316666D01*
X70566666Y-54016666D02*
X70566666Y-53316666D01*
X70266666Y-54016666D02*
X70266666Y-53650000D01*
X70300000Y-53583333D01*
X70366666Y-53550000D01*
X70466666Y-53550000D01*
X70533333Y-53583333D01*
X70566666Y-53616666D01*
X69566666Y-53350000D02*
X69633333Y-53316666D01*
X69733333Y-53316666D01*
X69833333Y-53350000D01*
X69900000Y-53416666D01*
X69933333Y-53483333D01*
X69966666Y-53616666D01*
X69966666Y-53716666D01*
X69933333Y-53850000D01*
X69900000Y-53916666D01*
X69833333Y-53983333D01*
X69733333Y-54016666D01*
X69666666Y-54016666D01*
X69566666Y-53983333D01*
X69533333Y-53950000D01*
X69533333Y-53716666D01*
X69666666Y-53716666D01*
X69233333Y-53550000D02*
X69233333Y-54016666D01*
X69233333Y-53616666D02*
X69200000Y-53583333D01*
X69133333Y-53550000D01*
X69033333Y-53550000D01*
X68966666Y-53583333D01*
X68933333Y-53650000D01*
X68933333Y-54016666D01*
X68300000Y-54016666D02*
X68300000Y-53316666D01*
X68300000Y-53983333D02*
X68366666Y-54016666D01*
X68500000Y-54016666D01*
X68566666Y-53983333D01*
X68600000Y-53950000D01*
X68633333Y-53883333D01*
X68633333Y-53683333D01*
X68600000Y-53616666D01*
X68566666Y-53583333D01*
X68500000Y-53550000D01*
X68366666Y-53550000D01*
X68300000Y-53583333D01*
X73600000Y-47416666D02*
X73266666Y-47416666D01*
X73666666Y-47616666D02*
X73433333Y-46916666D01*
X73200000Y-47616666D01*
X72666666Y-47150000D02*
X72666666Y-47616666D01*
X72966666Y-47150000D02*
X72966666Y-47516666D01*
X72933333Y-47583333D01*
X72866666Y-47616666D01*
X72766666Y-47616666D01*
X72700000Y-47583333D01*
X72666666Y-47550000D01*
X72400000Y-47616666D02*
X72033333Y-47150000D01*
X72400000Y-47150000D02*
X72033333Y-47616666D01*
X71800000Y-46983333D02*
X71766666Y-46950000D01*
X71700000Y-46916666D01*
X71533333Y-46916666D01*
X71466666Y-46950000D01*
X71433333Y-46983333D01*
X71400000Y-47050000D01*
X71400000Y-47116666D01*
X71433333Y-47216666D01*
X71833333Y-47616666D01*
X71400000Y-47616666D01*
X68083333Y-41416666D02*
X68083333Y-40716666D01*
X67850000Y-41216666D01*
X67616666Y-40716666D01*
X67616666Y-41416666D01*
X67183333Y-41416666D02*
X67250000Y-41383333D01*
X67283333Y-41350000D01*
X67316666Y-41283333D01*
X67316666Y-41083333D01*
X67283333Y-41016666D01*
X67250000Y-40983333D01*
X67183333Y-40950000D01*
X67083333Y-40950000D01*
X67016666Y-40983333D01*
X66983333Y-41016666D01*
X66950000Y-41083333D01*
X66950000Y-41283333D01*
X66983333Y-41350000D01*
X67016666Y-41383333D01*
X67083333Y-41416666D01*
X67183333Y-41416666D01*
X66750000Y-40950000D02*
X66483333Y-40950000D01*
X66650000Y-40716666D02*
X66650000Y-41316666D01*
X66616666Y-41383333D01*
X66550000Y-41416666D01*
X66483333Y-41416666D01*
X66150000Y-41416666D02*
X66216666Y-41383333D01*
X66250000Y-41350000D01*
X66283333Y-41283333D01*
X66283333Y-41083333D01*
X66250000Y-41016666D01*
X66216666Y-40983333D01*
X66150000Y-40950000D01*
X66050000Y-40950000D01*
X65983333Y-40983333D01*
X65950000Y-41016666D01*
X65916666Y-41083333D01*
X65916666Y-41283333D01*
X65950000Y-41350000D01*
X65983333Y-41383333D01*
X66050000Y-41416666D01*
X66150000Y-41416666D01*
X65616666Y-41416666D02*
X65616666Y-40950000D01*
X65616666Y-41083333D02*
X65583333Y-41016666D01*
X65550000Y-40983333D01*
X65483333Y-40950000D01*
X65416666Y-40950000D01*
X65216666Y-41216666D02*
X64883333Y-41216666D01*
X65283333Y-41416666D02*
X65050000Y-40716666D01*
X64816666Y-41416666D01*
X70283333Y-67483333D02*
X70983333Y-67483333D01*
X70483333Y-67250000D01*
X70983333Y-67016666D01*
X70283333Y-67016666D01*
X70283333Y-66583333D02*
X70316666Y-66650000D01*
X70350000Y-66683333D01*
X70416666Y-66716666D01*
X70616666Y-66716666D01*
X70683333Y-66683333D01*
X70716666Y-66650000D01*
X70750000Y-66583333D01*
X70750000Y-66483333D01*
X70716666Y-66416666D01*
X70683333Y-66383333D01*
X70616666Y-66350000D01*
X70416666Y-66350000D01*
X70350000Y-66383333D01*
X70316666Y-66416666D01*
X70283333Y-66483333D01*
X70283333Y-66583333D01*
X70750000Y-66150000D02*
X70750000Y-65883333D01*
X70983333Y-66050000D02*
X70383333Y-66050000D01*
X70316666Y-66016666D01*
X70283333Y-65950000D01*
X70283333Y-65883333D01*
X70283333Y-65550000D02*
X70316666Y-65616666D01*
X70350000Y-65650000D01*
X70416666Y-65683333D01*
X70616666Y-65683333D01*
X70683333Y-65650000D01*
X70716666Y-65616666D01*
X70750000Y-65550000D01*
X70750000Y-65450000D01*
X70716666Y-65383333D01*
X70683333Y-65350000D01*
X70616666Y-65316666D01*
X70416666Y-65316666D01*
X70350000Y-65350000D01*
X70316666Y-65383333D01*
X70283333Y-65450000D01*
X70283333Y-65550000D01*
X70283333Y-65016666D02*
X70750000Y-65016666D01*
X70616666Y-65016666D02*
X70683333Y-64983333D01*
X70716666Y-64950000D01*
X70750000Y-64883333D01*
X70750000Y-64816666D01*
X70483333Y-64616666D02*
X70483333Y-64283333D01*
X70283333Y-64683333D02*
X70983333Y-64450000D01*
X70283333Y-64216666D01*
X71133333Y-40416666D02*
X71133333Y-39716666D01*
X70900000Y-40216666D01*
X70666666Y-39716666D01*
X70666666Y-40416666D01*
X70233333Y-40416666D02*
X70300000Y-40383333D01*
X70333333Y-40350000D01*
X70366666Y-40283333D01*
X70366666Y-40083333D01*
X70333333Y-40016666D01*
X70300000Y-39983333D01*
X70233333Y-39950000D01*
X70133333Y-39950000D01*
X70066666Y-39983333D01*
X70033333Y-40016666D01*
X70000000Y-40083333D01*
X70000000Y-40283333D01*
X70033333Y-40350000D01*
X70066666Y-40383333D01*
X70133333Y-40416666D01*
X70233333Y-40416666D01*
X69800000Y-39950000D02*
X69533333Y-39950000D01*
X69700000Y-39716666D02*
X69700000Y-40316666D01*
X69666666Y-40383333D01*
X69600000Y-40416666D01*
X69533333Y-40416666D01*
X69200000Y-40416666D02*
X69266666Y-40383333D01*
X69300000Y-40350000D01*
X69333333Y-40283333D01*
X69333333Y-40083333D01*
X69300000Y-40016666D01*
X69266666Y-39983333D01*
X69200000Y-39950000D01*
X69100000Y-39950000D01*
X69033333Y-39983333D01*
X69000000Y-40016666D01*
X68966666Y-40083333D01*
X68966666Y-40283333D01*
X69000000Y-40350000D01*
X69033333Y-40383333D01*
X69100000Y-40416666D01*
X69200000Y-40416666D01*
X68666666Y-40416666D02*
X68666666Y-39950000D01*
X68666666Y-40083333D02*
X68633333Y-40016666D01*
X68600000Y-39983333D01*
X68533333Y-39950000D01*
X68466666Y-39950000D01*
X68000000Y-40050000D02*
X67900000Y-40083333D01*
X67866666Y-40116666D01*
X67833333Y-40183333D01*
X67833333Y-40283333D01*
X67866666Y-40350000D01*
X67900000Y-40383333D01*
X67966666Y-40416666D01*
X68233333Y-40416666D01*
X68233333Y-39716666D01*
X68000000Y-39716666D01*
X67933333Y-39750000D01*
X67900000Y-39783333D01*
X67866666Y-39850000D01*
X67866666Y-39916666D01*
X67900000Y-39983333D01*
X67933333Y-40016666D01*
X68000000Y-40050000D01*
X68233333Y-40050000D01*
X58350000Y-48616666D02*
X58350000Y-47916666D01*
X58350000Y-48250000D02*
X57950000Y-48250000D01*
X57950000Y-48616666D02*
X57950000Y-47916666D01*
X57616666Y-48250000D02*
X57383333Y-48250000D01*
X57283333Y-48616666D02*
X57616666Y-48616666D01*
X57616666Y-47916666D01*
X57283333Y-47916666D01*
X56983333Y-48350000D02*
X56450000Y-48350000D01*
D10*
X61271428Y-54719047D02*
X61271428Y-55480952D01*
D11*
X56100000Y-47616666D02*
X56100000Y-46916666D01*
X56100000Y-47250000D02*
X55700000Y-47250000D01*
X55700000Y-47616666D02*
X55700000Y-46916666D01*
X55100000Y-47583333D02*
X55166666Y-47616666D01*
X55300000Y-47616666D01*
X55366666Y-47583333D01*
X55400000Y-47516666D01*
X55400000Y-47250000D01*
X55366666Y-47183333D01*
X55300000Y-47150000D01*
X55166666Y-47150000D01*
X55100000Y-47183333D01*
X55066666Y-47250000D01*
X55066666Y-47316666D01*
X55400000Y-47383333D01*
X54866666Y-46916666D02*
X54633333Y-47616666D01*
X54400000Y-46916666D01*
X54066666Y-47616666D02*
X54133333Y-47583333D01*
X54166666Y-47550000D01*
X54200000Y-47483333D01*
X54200000Y-47283333D01*
X54166666Y-47216666D01*
X54133333Y-47183333D01*
X54066666Y-47150000D01*
X53966666Y-47150000D01*
X53900000Y-47183333D01*
X53866666Y-47216666D01*
X53833333Y-47283333D01*
X53833333Y-47483333D01*
X53866666Y-47550000D01*
X53900000Y-47583333D01*
X53966666Y-47616666D01*
X54066666Y-47616666D01*
X53433333Y-47616666D02*
X53500000Y-47583333D01*
X53533333Y-47516666D01*
X53533333Y-46916666D01*
X53266666Y-47150000D02*
X53000000Y-47150000D01*
X53166666Y-46916666D02*
X53166666Y-47516666D01*
X53133333Y-47583333D01*
X53066666Y-47616666D01*
X53000000Y-47616666D01*
X77283333Y-59600000D02*
X77283333Y-59266666D01*
X77083333Y-59666666D02*
X77783333Y-59433333D01*
X77083333Y-59200000D01*
X77550000Y-58666666D02*
X77083333Y-58666666D01*
X77550000Y-58966666D02*
X77183333Y-58966666D01*
X77116666Y-58933333D01*
X77083333Y-58866666D01*
X77083333Y-58766666D01*
X77116666Y-58700000D01*
X77150000Y-58666666D01*
X77083333Y-58400000D02*
X77550000Y-58033333D01*
X77550000Y-58400000D02*
X77083333Y-58033333D01*
X77550000Y-57466666D02*
X77083333Y-57466666D01*
X77816666Y-57633333D02*
X77316666Y-57800000D01*
X77316666Y-57366666D01*
X68333333Y-47616666D02*
X68333333Y-46916666D01*
X68100000Y-47416666D01*
X67866666Y-46916666D01*
X67866666Y-47616666D01*
X67433333Y-47616666D02*
X67500000Y-47583333D01*
X67533333Y-47550000D01*
X67566666Y-47483333D01*
X67566666Y-47283333D01*
X67533333Y-47216666D01*
X67500000Y-47183333D01*
X67433333Y-47150000D01*
X67333333Y-47150000D01*
X67266666Y-47183333D01*
X67233333Y-47216666D01*
X67200000Y-47283333D01*
X67200000Y-47483333D01*
X67233333Y-47550000D01*
X67266666Y-47583333D01*
X67333333Y-47616666D01*
X67433333Y-47616666D01*
X67000000Y-47150000D02*
X66733333Y-47150000D01*
X66900000Y-46916666D02*
X66900000Y-47516666D01*
X66866666Y-47583333D01*
X66800000Y-47616666D01*
X66733333Y-47616666D01*
X66400000Y-47616666D02*
X66466666Y-47583333D01*
X66500000Y-47550000D01*
X66533333Y-47483333D01*
X66533333Y-47283333D01*
X66500000Y-47216666D01*
X66466666Y-47183333D01*
X66400000Y-47150000D01*
X66300000Y-47150000D01*
X66233333Y-47183333D01*
X66200000Y-47216666D01*
X66166666Y-47283333D01*
X66166666Y-47483333D01*
X66200000Y-47550000D01*
X66233333Y-47583333D01*
X66300000Y-47616666D01*
X66400000Y-47616666D01*
X65866666Y-47616666D02*
X65866666Y-47150000D01*
X65866666Y-47283333D02*
X65833333Y-47216666D01*
X65800000Y-47183333D01*
X65733333Y-47150000D01*
X65666666Y-47150000D01*
X65433333Y-47616666D02*
X65433333Y-46916666D01*
X65266666Y-46916666D01*
X65166666Y-46950000D01*
X65100000Y-47016666D01*
X65066666Y-47083333D01*
X65033333Y-47216666D01*
X65033333Y-47316666D01*
X65066666Y-47450000D01*
X65100000Y-47516666D01*
X65166666Y-47583333D01*
X65266666Y-47616666D01*
X65433333Y-47616666D01*
X69083333Y-65233333D02*
X69783333Y-65233333D01*
X69283333Y-65000000D01*
X69783333Y-64766666D01*
X69083333Y-64766666D01*
X69083333Y-64333333D02*
X69116666Y-64400000D01*
X69150000Y-64433333D01*
X69216666Y-64466666D01*
X69416666Y-64466666D01*
X69483333Y-64433333D01*
X69516666Y-64400000D01*
X69550000Y-64333333D01*
X69550000Y-64233333D01*
X69516666Y-64166666D01*
X69483333Y-64133333D01*
X69416666Y-64100000D01*
X69216666Y-64100000D01*
X69150000Y-64133333D01*
X69116666Y-64166666D01*
X69083333Y-64233333D01*
X69083333Y-64333333D01*
X69550000Y-63900000D02*
X69550000Y-63633333D01*
X69783333Y-63800000D02*
X69183333Y-63800000D01*
X69116666Y-63766666D01*
X69083333Y-63700000D01*
X69083333Y-63633333D01*
X69083333Y-63300000D02*
X69116666Y-63366666D01*
X69150000Y-63400000D01*
X69216666Y-63433333D01*
X69416666Y-63433333D01*
X69483333Y-63400000D01*
X69516666Y-63366666D01*
X69550000Y-63300000D01*
X69550000Y-63200000D01*
X69516666Y-63133333D01*
X69483333Y-63100000D01*
X69416666Y-63066666D01*
X69216666Y-63066666D01*
X69150000Y-63100000D01*
X69116666Y-63133333D01*
X69083333Y-63200000D01*
X69083333Y-63300000D01*
X69083333Y-62766666D02*
X69550000Y-62766666D01*
X69416666Y-62766666D02*
X69483333Y-62733333D01*
X69516666Y-62700000D01*
X69550000Y-62633333D01*
X69550000Y-62566666D01*
X69450000Y-62100000D02*
X69416666Y-62000000D01*
X69383333Y-61966666D01*
X69316666Y-61933333D01*
X69216666Y-61933333D01*
X69150000Y-61966666D01*
X69116666Y-62000000D01*
X69083333Y-62066666D01*
X69083333Y-62333333D01*
X69783333Y-62333333D01*
X69783333Y-62100000D01*
X69750000Y-62033333D01*
X69716666Y-62000000D01*
X69650000Y-61966666D01*
X69583333Y-61966666D01*
X69516666Y-62000000D01*
X69483333Y-62033333D01*
X69450000Y-62100000D01*
X69450000Y-62333333D01*
X56366666Y-40716666D02*
X55966666Y-40716666D01*
X56166666Y-41416666D02*
X56166666Y-40716666D01*
X55733333Y-41416666D02*
X55733333Y-40716666D01*
X55433333Y-41416666D02*
X55433333Y-41050000D01*
X55466666Y-40983333D01*
X55533333Y-40950000D01*
X55633333Y-40950000D01*
X55700000Y-40983333D01*
X55733333Y-41016666D01*
X54700000Y-41350000D02*
X54733333Y-41383333D01*
X54833333Y-41416666D01*
X54900000Y-41416666D01*
X55000000Y-41383333D01*
X55066666Y-41316666D01*
X55100000Y-41250000D01*
X55133333Y-41116666D01*
X55133333Y-41016666D01*
X55100000Y-40883333D01*
X55066666Y-40816666D01*
X55000000Y-40750000D01*
X54900000Y-40716666D01*
X54833333Y-40716666D01*
X54733333Y-40750000D01*
X54700000Y-40783333D01*
X54400000Y-41416666D02*
X54400000Y-40716666D01*
X54100000Y-41416666D02*
X54100000Y-41050000D01*
X54133333Y-40983333D01*
X54200000Y-40950000D01*
X54300000Y-40950000D01*
X54366666Y-40983333D01*
X54400000Y-41016666D01*
X53466666Y-41416666D02*
X53466666Y-41050000D01*
X53500000Y-40983333D01*
X53566666Y-40950000D01*
X53700000Y-40950000D01*
X53766666Y-40983333D01*
X53466666Y-41383333D02*
X53533333Y-41416666D01*
X53700000Y-41416666D01*
X53766666Y-41383333D01*
X53800000Y-41316666D01*
X53800000Y-41250000D01*
X53766666Y-41183333D01*
X53700000Y-41150000D01*
X53533333Y-41150000D01*
X53466666Y-41116666D01*
X53133333Y-41416666D02*
X53133333Y-40950000D01*
X53133333Y-41016666D02*
X53100000Y-40983333D01*
X53033333Y-40950000D01*
X52933333Y-40950000D01*
X52866666Y-40983333D01*
X52833333Y-41050000D01*
X52833333Y-41416666D01*
X52833333Y-41050000D02*
X52800000Y-40983333D01*
X52733333Y-40950000D01*
X52633333Y-40950000D01*
X52566666Y-40983333D01*
X52533333Y-41050000D01*
X52533333Y-41416666D01*
X76700000Y-40216666D02*
X76366666Y-40216666D01*
X76766666Y-40416666D02*
X76533333Y-39716666D01*
X76300000Y-40416666D01*
X75766666Y-39950000D02*
X75766666Y-40416666D01*
X76066666Y-39950000D02*
X76066666Y-40316666D01*
X76033333Y-40383333D01*
X75966666Y-40416666D01*
X75866666Y-40416666D01*
X75800000Y-40383333D01*
X75766666Y-40350000D01*
X75500000Y-40416666D02*
X75133333Y-39950000D01*
X75500000Y-39950000D02*
X75133333Y-40416666D01*
X74566666Y-39950000D02*
X74566666Y-40416666D01*
X74733333Y-39683333D02*
X74900000Y-40183333D01*
X74466666Y-40183333D01*
X59816666Y-40516666D02*
X59816666Y-39816666D01*
X59550000Y-39816666D01*
X59483333Y-39850000D01*
X59450000Y-39883333D01*
X59416666Y-39950000D01*
X59416666Y-40050000D01*
X59450000Y-40116666D01*
X59483333Y-40150000D01*
X59550000Y-40183333D01*
X59816666Y-40183333D01*
X58716666Y-40450000D02*
X58750000Y-40483333D01*
X58850000Y-40516666D01*
X58916666Y-40516666D01*
X59016666Y-40483333D01*
X59083333Y-40416666D01*
X59116666Y-40350000D01*
X59150000Y-40216666D01*
X59150000Y-40116666D01*
X59116666Y-39983333D01*
X59083333Y-39916666D01*
X59016666Y-39850000D01*
X58916666Y-39816666D01*
X58850000Y-39816666D01*
X58750000Y-39850000D01*
X58716666Y-39883333D01*
X58183333Y-40150000D02*
X58416666Y-40150000D01*
X58416666Y-40516666D02*
X58416666Y-39816666D01*
X58083333Y-39816666D01*
X57450000Y-39850000D02*
X57516666Y-39816666D01*
X57616666Y-39816666D01*
X57716666Y-39850000D01*
X57783333Y-39916666D01*
X57816666Y-39983333D01*
X57850000Y-40116666D01*
X57850000Y-40216666D01*
X57816666Y-40350000D01*
X57783333Y-40416666D01*
X57716666Y-40483333D01*
X57616666Y-40516666D01*
X57550000Y-40516666D01*
X57450000Y-40483333D01*
X57416666Y-40450000D01*
X57416666Y-40216666D01*
X57550000Y-40216666D01*
X57116666Y-40050000D02*
X57116666Y-40516666D01*
X57116666Y-40116666D02*
X57083333Y-40083333D01*
X57016666Y-40050000D01*
X56916666Y-40050000D01*
X56850000Y-40083333D01*
X56816666Y-40150000D01*
X56816666Y-40516666D01*
X56183333Y-40516666D02*
X56183333Y-39816666D01*
X56183333Y-40483333D02*
X56250000Y-40516666D01*
X56383333Y-40516666D01*
X56450000Y-40483333D01*
X56483333Y-40450000D01*
X56516666Y-40383333D01*
X56516666Y-40183333D01*
X56483333Y-40116666D01*
X56450000Y-40083333D01*
X56383333Y-40050000D01*
X56250000Y-40050000D01*
X56183333Y-40083333D01*
D10*
X55819047Y-60728571D02*
X56580952Y-60728571D01*
X61580952Y-52821428D02*
X60819047Y-52821428D01*
X61200000Y-53202380D02*
X61200000Y-52440476D01*
D12*
X78752380Y-41780952D02*
X79466666Y-41780952D01*
X79609523Y-41733333D01*
X79704761Y-41638095D01*
X79752380Y-41495238D01*
X79752380Y-41400000D01*
X79752380Y-42257142D02*
X78752380Y-42257142D01*
X78752380Y-42638095D01*
X78800000Y-42733333D01*
X78847619Y-42780952D01*
X78942857Y-42828571D01*
X79085714Y-42828571D01*
X79180952Y-42780952D01*
X79228571Y-42733333D01*
X79276190Y-42638095D01*
X79276190Y-42257142D01*
X79466666Y-43209523D02*
X79466666Y-43685714D01*
X79752380Y-43114285D02*
X78752380Y-43447619D01*
X79752380Y-43780952D01*
X79085714Y-44542857D02*
X79752380Y-44542857D01*
X79085714Y-44114285D02*
X79609523Y-44114285D01*
X79704761Y-44161904D01*
X79752380Y-44257142D01*
X79752380Y-44400000D01*
X79704761Y-44495238D01*
X79657142Y-44542857D01*
X79752380Y-44923809D02*
X79085714Y-45447619D01*
X79085714Y-44923809D02*
X79752380Y-45447619D01*
X79085714Y-46257142D02*
X79752380Y-46257142D01*
X78704761Y-46019047D02*
X79419047Y-45780952D01*
X79419047Y-46400000D01*
D11*
X68833333Y-51566666D02*
X68833333Y-52066666D01*
X68866666Y-52166666D01*
X68933333Y-52233333D01*
X69033333Y-52266666D01*
X69100000Y-52266666D01*
X68500000Y-52266666D02*
X68500000Y-51566666D01*
X68233333Y-51566666D01*
X68166666Y-51600000D01*
X68133333Y-51633333D01*
X68100000Y-51700000D01*
X68100000Y-51800000D01*
X68133333Y-51866666D01*
X68166666Y-51900000D01*
X68233333Y-51933333D01*
X68500000Y-51933333D01*
X67966666Y-52333333D02*
X67433333Y-52333333D01*
X67266666Y-52266666D02*
X67266666Y-51566666D01*
X67266666Y-51900000D02*
X66866666Y-51900000D01*
X66866666Y-52266666D02*
X66866666Y-51566666D01*
X66533333Y-51900000D02*
X66300000Y-51900000D01*
X66200000Y-52266666D02*
X66533333Y-52266666D01*
X66533333Y-51566666D01*
X66200000Y-51566666D01*
X65666666Y-51900000D02*
X65900000Y-51900000D01*
X65900000Y-52266666D02*
X65900000Y-51566666D01*
X65566666Y-51566666D01*
X65466666Y-52333333D02*
X64933333Y-52333333D01*
X64800000Y-52066666D02*
X64466666Y-52066666D01*
X64866666Y-52266666D02*
X64633333Y-51566666D01*
X64400000Y-52266666D01*
X64066666Y-52266666D02*
X64133333Y-52233333D01*
X64166666Y-52166666D01*
X64166666Y-51566666D01*
X63900000Y-51800000D02*
X63633333Y-51800000D01*
X63800000Y-51566666D02*
X63800000Y-52166666D01*
X63766666Y-52233333D01*
X63700000Y-52266666D01*
X63633333Y-52266666D01*
X63033333Y-52266666D02*
X63433333Y-52266666D01*
X63233333Y-52266666D02*
X63233333Y-51566666D01*
X63300000Y-51666666D01*
X63366666Y-51733333D01*
X63433333Y-51766666D01*
X63400000Y-51366666D02*
X63400000Y-51866666D01*
X63433333Y-51966666D01*
X63500000Y-52033333D01*
X63600000Y-52066666D01*
X63666666Y-52066666D01*
X63066666Y-52066666D02*
X63066666Y-51366666D01*
X62800000Y-51366666D01*
X62733333Y-51400000D01*
X62700000Y-51433333D01*
X62666666Y-51500000D01*
X62666666Y-51600000D01*
X62700000Y-51666666D01*
X62733333Y-51700000D01*
X62800000Y-51733333D01*
X63066666Y-51733333D01*
X62533333Y-52133333D02*
X62000000Y-52133333D01*
X61833333Y-52066666D02*
X61833333Y-51366666D01*
X61833333Y-51700000D02*
X61433333Y-51700000D01*
X61433333Y-52066666D02*
X61433333Y-51366666D01*
X61100000Y-51700000D02*
X60866666Y-51700000D01*
X60766666Y-52066666D02*
X61100000Y-52066666D01*
X61100000Y-51366666D01*
X60766666Y-51366666D01*
X60233333Y-51700000D02*
X60466666Y-51700000D01*
X60466666Y-52066666D02*
X60466666Y-51366666D01*
X60133333Y-51366666D01*
X60033333Y-52133333D02*
X59500000Y-52133333D01*
X59333333Y-52066666D02*
X59333333Y-51366666D01*
X59100000Y-51866666D01*
X58866666Y-51366666D01*
X58866666Y-52066666D01*
X58233333Y-52066666D02*
X58233333Y-51700000D01*
X58266666Y-51633333D01*
X58333333Y-51600000D01*
X58466666Y-51600000D01*
X58533333Y-51633333D01*
X58233333Y-52033333D02*
X58300000Y-52066666D01*
X58466666Y-52066666D01*
X58533333Y-52033333D01*
X58566666Y-51966666D01*
X58566666Y-51900000D01*
X58533333Y-51833333D01*
X58466666Y-51800000D01*
X58300000Y-51800000D01*
X58233333Y-51766666D01*
X57900000Y-52066666D02*
X57900000Y-51600000D01*
X57900000Y-51366666D02*
X57933333Y-51400000D01*
X57900000Y-51433333D01*
X57866666Y-51400000D01*
X57900000Y-51366666D01*
X57900000Y-51433333D01*
X57566666Y-51600000D02*
X57566666Y-52066666D01*
X57566666Y-51666666D02*
X57533333Y-51633333D01*
X57466666Y-51600000D01*
X57366666Y-51600000D01*
X57300000Y-51633333D01*
X57266666Y-51700000D01*
X57266666Y-52066666D01*
X56566666Y-52066666D02*
X56966666Y-52066666D01*
X56766666Y-52066666D02*
X56766666Y-51366666D01*
X56833333Y-51466666D01*
X56900000Y-51533333D01*
X56966666Y-51566666D01*
X55300000Y-53166666D02*
X55300000Y-53666666D01*
X55333333Y-53766666D01*
X55400000Y-53833333D01*
X55500000Y-53866666D01*
X55566666Y-53866666D01*
X54966666Y-53866666D02*
X54966666Y-53166666D01*
X54700000Y-53166666D01*
X54633333Y-53200000D01*
X54600000Y-53233333D01*
X54566666Y-53300000D01*
X54566666Y-53400000D01*
X54600000Y-53466666D01*
X54633333Y-53500000D01*
X54700000Y-53533333D01*
X54966666Y-53533333D01*
X54433333Y-53933333D02*
X53900000Y-53933333D01*
X53733333Y-53866666D02*
X53733333Y-53166666D01*
X53466666Y-53166666D01*
X53400000Y-53200000D01*
X53366666Y-53233333D01*
X53333333Y-53300000D01*
X53333333Y-53400000D01*
X53366666Y-53466666D01*
X53400000Y-53500000D01*
X53466666Y-53533333D01*
X53733333Y-53533333D01*
X52633333Y-53800000D02*
X52666666Y-53833333D01*
X52766666Y-53866666D01*
X52833333Y-53866666D01*
X52933333Y-53833333D01*
X53000000Y-53766666D01*
X53033333Y-53700000D01*
X53066666Y-53566666D01*
X53066666Y-53466666D01*
X53033333Y-53333333D01*
X53000000Y-53266666D01*
X52933333Y-53200000D01*
X52833333Y-53166666D01*
X52766666Y-53166666D01*
X52666666Y-53200000D01*
X52633333Y-53233333D01*
X52100000Y-53500000D02*
X52333333Y-53500000D01*
X52333333Y-53866666D02*
X52333333Y-53166666D01*
X52000000Y-53166666D01*
X51900000Y-53933333D02*
X51366666Y-53933333D01*
X51233333Y-53666666D02*
X50900000Y-53666666D01*
X51300000Y-53866666D02*
X51066666Y-53166666D01*
X50833333Y-53866666D01*
X50500000Y-53866666D02*
X50566666Y-53833333D01*
X50600000Y-53766666D01*
X50600000Y-53166666D01*
X50333333Y-53400000D02*
X50066666Y-53400000D01*
X50233333Y-53166666D02*
X50233333Y-53766666D01*
X50200000Y-53833333D01*
X50133333Y-53866666D01*
X50066666Y-53866666D01*
X49466666Y-53866666D02*
X49866666Y-53866666D01*
X49666666Y-53866666D02*
X49666666Y-53166666D01*
X49733333Y-53266666D01*
X49800000Y-53333333D01*
X49866666Y-53366666D01*
X60666666Y-53216666D02*
X60666666Y-53716666D01*
X60700000Y-53816666D01*
X60766666Y-53883333D01*
X60866666Y-53916666D01*
X60933333Y-53916666D01*
X60333333Y-53916666D02*
X60333333Y-53216666D01*
X60066666Y-53216666D01*
X60000000Y-53250000D01*
X59966666Y-53283333D01*
X59933333Y-53350000D01*
X59933333Y-53450000D01*
X59966666Y-53516666D01*
X60000000Y-53550000D01*
X60066666Y-53583333D01*
X60333333Y-53583333D01*
X59800000Y-53983333D02*
X59266666Y-53983333D01*
X59100000Y-53916666D02*
X59100000Y-53216666D01*
X58833333Y-53216666D01*
X58766666Y-53250000D01*
X58733333Y-53283333D01*
X58700000Y-53350000D01*
X58700000Y-53450000D01*
X58733333Y-53516666D01*
X58766666Y-53550000D01*
X58833333Y-53583333D01*
X59100000Y-53583333D01*
X58000000Y-53850000D02*
X58033333Y-53883333D01*
X58133333Y-53916666D01*
X58200000Y-53916666D01*
X58300000Y-53883333D01*
X58366666Y-53816666D01*
X58400000Y-53750000D01*
X58433333Y-53616666D01*
X58433333Y-53516666D01*
X58400000Y-53383333D01*
X58366666Y-53316666D01*
X58300000Y-53250000D01*
X58200000Y-53216666D01*
X58133333Y-53216666D01*
X58033333Y-53250000D01*
X58000000Y-53283333D01*
X57466666Y-53550000D02*
X57700000Y-53550000D01*
X57700000Y-53916666D02*
X57700000Y-53216666D01*
X57366666Y-53216666D01*
X57266666Y-53983333D02*
X56733333Y-53983333D01*
X56566666Y-53916666D02*
X56566666Y-53216666D01*
X56333333Y-53716666D01*
X56100000Y-53216666D01*
X56100000Y-53916666D01*
X55466666Y-53916666D02*
X55466666Y-53550000D01*
X55500000Y-53483333D01*
X55566666Y-53450000D01*
X55700000Y-53450000D01*
X55766666Y-53483333D01*
X55466666Y-53883333D02*
X55533333Y-53916666D01*
X55700000Y-53916666D01*
X55766666Y-53883333D01*
X55800000Y-53816666D01*
X55800000Y-53750000D01*
X55766666Y-53683333D01*
X55700000Y-53650000D01*
X55533333Y-53650000D01*
X55466666Y-53616666D01*
X55133333Y-53916666D02*
X55133333Y-53450000D01*
X55133333Y-53216666D02*
X55166666Y-53250000D01*
X55133333Y-53283333D01*
X55100000Y-53250000D01*
X55133333Y-53216666D01*
X55133333Y-53283333D01*
X54800000Y-53450000D02*
X54800000Y-53916666D01*
X54800000Y-53516666D02*
X54766666Y-53483333D01*
X54700000Y-53450000D01*
X54600000Y-53450000D01*
X54533333Y-53483333D01*
X54500000Y-53550000D01*
X54500000Y-53916666D01*
X53800000Y-53916666D02*
X54200000Y-53916666D01*
X54000000Y-53916666D02*
X54000000Y-53216666D01*
X54066666Y-53316666D01*
X54133333Y-53383333D01*
X54200000Y-53416666D01*
D13*
X82100000Y-45300000D02*
X82100000Y-42500000D01*
X82100000Y-42500000D02*
X80100000Y-42500000D01*
X80100000Y-45300000D02*
X82100000Y-45300000D01*
X80100000Y-42500000D02*
X80100000Y-45300000D01*
X63100000Y-51450000D02*
X65100000Y-51450000D01*
X63100000Y-48650000D02*
X63100000Y-51450000D01*
X65100000Y-48650000D02*
X63100000Y-48650000D01*
X65100000Y-51450000D02*
X65100000Y-48650000D01*
X62250000Y-51150000D02*
X62250000Y-49150000D01*
X59450000Y-51150000D02*
X62250000Y-51150000D01*
X59450000Y-49150000D02*
X59450000Y-51150000D01*
X62250000Y-49150000D02*
X59450000Y-49150000D01*
X51150000Y-54250000D02*
X51150000Y-56250000D01*
X51150000Y-56250000D02*
X53950000Y-56250000D01*
X53950000Y-56250000D02*
X53950000Y-54250000D01*
X53950000Y-54250000D02*
X51150000Y-54250000D01*
X55900000Y-56250000D02*
X58700000Y-56250000D01*
X55900000Y-54250000D02*
X55900000Y-56250000D01*
X58700000Y-56250000D02*
X58700000Y-54250000D01*
X58700000Y-54250000D02*
X55900000Y-54250000D01*
M02*
