G04*
G04 #@! TF.GenerationSoftware,Altium Limited,Altium Designer,19.1.9 (167)*
G04*
G04 Layer_Color=8388736*
%FSLAX25Y25*%
%MOIN*%
G70*
G01*
G75*
%ADD14C,0.00800*%
%ADD18C,0.01000*%
D14*
X370079Y0D02*
Y385827D01*
X200787Y0D02*
Y385827D01*
X185039Y0D02*
Y385827D01*
X15748Y0D02*
Y385827D01*
D18*
X368018Y401575D02*
X372016D01*
X374016Y403574D01*
X372016Y405574D01*
X368018D01*
X369017Y417570D02*
X368018Y416570D01*
Y414571D01*
X369017Y413571D01*
X373016D01*
X374016Y414571D01*
Y416570D01*
X373016Y417570D01*
X370017Y419569D02*
X373016D01*
X374016Y420569D01*
Y423568D01*
X370017D01*
X369017Y426567D02*
X370017D01*
Y425567D01*
Y427566D01*
Y426567D01*
X373016D01*
X374016Y427566D01*
X198726Y401575D02*
X202725D01*
X204724Y403574D01*
X202725Y405574D01*
X198726D01*
X199726Y417570D02*
X198726Y416570D01*
Y414571D01*
X199726Y413571D01*
X203725D01*
X204724Y414571D01*
Y416570D01*
X203725Y417570D01*
X200726Y419569D02*
X203725D01*
X204724Y420569D01*
Y423568D01*
X200726D01*
X199726Y426567D02*
X200726D01*
Y425567D01*
Y427566D01*
Y426567D01*
X203725D01*
X204724Y427566D01*
X182978Y401575D02*
X186977D01*
X188976Y403574D01*
X186977Y405574D01*
X182978D01*
X183978Y417570D02*
X182978Y416570D01*
Y414571D01*
X183978Y413571D01*
X187977D01*
X188976Y414571D01*
Y416570D01*
X187977Y417570D01*
X184978Y419569D02*
X187977D01*
X188976Y420569D01*
Y423568D01*
X184978D01*
X183978Y426567D02*
X184978D01*
Y425567D01*
Y427566D01*
Y426567D01*
X187977D01*
X188976Y427566D01*
X13687Y401575D02*
X17686D01*
X19685Y403574D01*
X17686Y405574D01*
X13687D01*
X14687Y417570D02*
X13687Y416570D01*
Y414571D01*
X14687Y413571D01*
X18685D01*
X19685Y414571D01*
Y416570D01*
X18685Y417570D01*
X15686Y419569D02*
X18685D01*
X19685Y420569D01*
Y423568D01*
X15686D01*
X14687Y426567D02*
X15686D01*
Y425567D01*
Y427566D01*
Y426567D01*
X18685D01*
X19685Y427566D01*
M02*
