M48
;Layer_Color=9474304
;FILE_FORMAT=2:5
INCH,LZ
;TYPE=PLATED
T1F00S00C0.01200
T2F00S00C0.04016
%
T01
X0046437Y0005531
X0049587Y0022461
X0050102Y0027867
X0053102Y0025367
X0047102Y0030367
X0044102Y0032867
X0041102Y0035367
X0038102Y0037867
X0035102Y0040367
X0032102Y0042867
X0027539Y0043327
X0019272Y0048445
Y003309
X0039744Y0030728
X0033839Y0018524
X0059823Y0003169
X0079902
X0112185
X012439Y0009075
X0123102Y0015867
X0128602Y0019867
X0101161Y0017343
X0099587Y005002
X0072815Y0050413
X0155102Y0049867
X0155602Y0053867
X0159602Y0047867
X0163102Y0045367
X0167102Y0042867
X0170059Y0049232
X0169602Y0035867
X0169102Y0031367
X0174784Y002561
X0181476Y0037815
X0204311Y003309
Y0048445
X0162185Y0003563
X0142894
X0231476Y0005531
X0244862Y0003169
X0264941
X0297224
X0309429Y0009075
X0308141Y0015867
X0313641Y0019867
X0286201Y0017343
X0284626Y005002
X0257854Y0050413
X0238141Y0025367
X0235141Y0027867
X0232141Y0030367
X0229141Y0032867
X0226141Y0035367
X0223141Y0037867
X0220141Y0040367
X0217141Y0042867
X0212579Y0043327
X0224783Y0030728
X0218878Y0018524
X0234626Y0022461
X0327933Y0003563
X0347224
X0359823Y002561
X0354141Y0031367
X0354641Y0035867
X0352141Y0042867
X0348141Y0045367
X0344641Y0047867
X0340141Y0049867
X0340641Y0053867
X0355098Y0049232
X0366516Y0037815
X0345256Y0059469
X0347224Y0082303
X0327933
X0325177Y0067343
X0305098
X0297224Y0081909
X0309429Y0087815
X0308141Y0094608
X0313641Y0098607
X0286201Y0096083
X0284626Y012876
X0270847Y0137421
X0259429Y0146083
X0243681
X0244862Y016065
X0231476Y0163012
X0234626Y0179941
X0235141Y0185348
X0238141Y0182848
X0232141Y0187848
X0229141Y0190348
X0226141Y0192848
X0223141Y0195348
X0220141Y0197848
X0217141Y0200348
X0212579Y0200807
X0224783Y0188209
X0218878Y0176004
X0223602Y0146083
X0223141Y0116607
X0226141Y0114108
X0229141Y0111608
X0232141Y0109107
X0235141Y0106607
X0238141Y0104107
X0234626Y0101201
X0224783Y0109468
X0220141Y0119107
X0217141Y0121607
X0212579Y0122067
X0218878Y0097264
X0231476Y0084272
X0244862Y0081909
X0243681Y0067343
X0259429
X0270847Y0058681
X0264941Y0081909
X0257854Y0129154
X0264941Y016065
X0297224
X0309429Y0166555
X0308141Y0173348
X0313641Y0177348
X0286201Y0174823
X0284626Y02075
X0257854Y0207894
X0340141Y0207348
X0340641Y0211348
X0344641Y0205348
X0348141Y0202848
X0352141Y0200348
X0355098Y0206713
X0354641Y0193348
X0354141Y0188848
X0359823Y018309
X0366516Y0195295
X0347224Y0161043
X0327933
X0325177Y0146083
X0305098
X0345256Y0138209
X0340641Y0132607
X0340141Y0128607
X0344641Y0126608
X0348141Y0124108
X0352141Y0121607
X0355098Y0127972
X0354641Y0114608
X0354141Y0110108
X0359823Y010435
X0366516Y0116555
X0223602Y0067343
X0204311Y0111831
Y0127185
X0181476Y0116555
X0169602Y0114608
X0169102Y0110108
X0174784Y010435
X0167102Y0121607
X0163102Y0124108
X0159602Y0126608
X0155102Y0128607
X0155602Y0132607
X0160216Y0138209
X0170059Y0127972
X0162185Y0161043
X0142894
X0140138Y0146083
X0120059
X0112185Y016065
X012439Y0166555
X0123102Y0173348
X0128602Y0177348
X0101161Y0174823
X0099587Y02075
X0072815Y0207894
X0079902Y016065
X0059823
X0058642Y0146083
X007439
X0072815Y0129154
X0085807Y0137421
X0099587Y012876
X0101161Y0096083
X0123102Y0094608
X012439Y0087815
X0128602Y0098607
X0142894Y0082303
X0140138Y0067343
X0120059
X0112185Y0081909
X0079902
X0059823
X0058642Y0067343
X007439
X0085807Y0058681
X0160216Y0059469
X0162185Y0082303
X0174784Y018309
X0169102Y0188848
X0169602Y0193348
X0167102Y0200348
X0163102Y0202848
X0159602Y0205348
X0155102Y0207348
X0155602Y0211348
X0170059Y0206713
X0181476Y0195295
X0204311Y0190571
Y0205925
X0053102Y0182848
X0050102Y0185348
X0047102Y0187848
X0044102Y0190348
X0041102Y0192848
X0038102Y0195348
X0035102Y0197848
X0032102Y0200348
X0027539Y0200807
X0019272Y0205925
Y0190571
X0039744Y0188209
X0033839Y0176004
X0049587Y0179941
X0046437Y0163012
X0038563Y0146083
X0038102Y0116607
X0041102Y0114108
X0044102Y0111608
X0047102Y0109107
X0050102Y0106607
X0053102Y0104107
X0049587Y0101201
X0039744Y0109468
X0035102Y0119107
X0032102Y0121607
X0027539Y0122067
X0019272Y0127185
Y0111831
X0033839Y0097264
X0046437Y0084272
X0038563Y0067343
Y0224823
X0046437Y0241752
X0049587Y0258681
X0050102Y0264088
X0053102Y0261588
X0047102Y0266588
X0044102Y0269088
X0041102Y0271588
X0038102Y0274088
X0035102Y0276588
X0032102Y0279088
X0027539Y0279547
X0019272Y0284665
Y0269311
X0039744Y0266949
X0033839Y0254744
X0038563Y0303563
X0046437Y0320492
X0049587Y0337421
X0050102Y0342828
X0053102Y0340328
X0047102Y0345328
X0044102Y0347828
X0041102Y0350328
X0038102Y0352828
X0035102Y0355328
X0032102Y0357828
X0027539Y0358287
X0019272Y0363405
Y0348051
X0039744Y0345689
X0033839Y0333484
X0059823Y031813
X0058642Y0303563
X007439
X0072815Y0286634
X0085807Y0294902
X0099587Y028624
X0101161Y0253563
X0123102Y0252088
X012439Y0245295
X0128602Y0256088
X0142894Y0239784
X0140138Y0224823
X0120059
X0112185Y023939
X0079902
X0059823
X0058642Y0224823
X007439
X0085807Y0216161
X0160216Y0216949
X0162185Y0239784
X0174784Y0261831
X0169102Y0267588
X0169602Y0272088
X0167102Y0279088
X0163102Y0281588
X0159602Y0284088
X0155102Y0286088
X0155602Y0290088
X0160216Y0295689
X0170059Y0285453
X0181476Y0274035
X0204311Y0269311
Y0284665
Y0348051
Y0363405
X0181476Y0352776
X0169602Y0350828
X0169102Y0346328
X0174784Y0340571
X0167102Y0357828
X0163102Y0360328
X0159602Y0362828
X0155102Y0364828
X0170059Y0364193
X0162185Y0318524
X0142894
X0140138Y0303563
X0120059
X0112185Y031813
X012439Y0324035
X0123102Y0330828
X0128602Y0334828
X0101161Y0332303
X0099587Y036498
X0072815Y0365374
X0079902Y031813
X0231476Y0320492
X0244862Y031813
X0243681Y0303563
X0259429
X0257854Y0286634
X0270847Y0294902
X0284626Y028624
X0286201Y0253563
X0308141Y0252088
X0309429Y0245295
X0313641Y0256088
X0327933Y0239784
X0325177Y0224823
X0305098
X0297224Y023939
X0264941
X0244862
X0231476Y0241752
X0234626Y0258681
X0235141Y0264088
X0238141Y0261588
X0232141Y0266588
X0229141Y0269088
X0226141Y0271588
X0223141Y0274088
X0220141Y0276588
X0217141Y0279088
X0212579Y0279547
X0224783Y0266949
X0218878Y0254744
X0223602Y0224823
X0243681
X0259429
X0270847Y0216161
X0345256Y0216949
X0347224Y0239784
X0359823Y0261831
X0354141Y0267588
X0354641Y0272088
X0352141Y0279088
X0348141Y0281588
X0344641Y0284088
X0340141Y0286088
X0340641Y0290088
X0345256Y0295689
X0355098Y0285453
X0366516Y0274035
X0347224Y0318524
X0327933
X0325177Y0303563
X0305098
X0297224Y031813
X0309429Y0324035
X0308141Y0330828
X0313641Y0334828
X0286201Y0332303
X0284626Y036498
X0257854Y0365374
X0238141Y0340328
X0235141Y0342828
X0232141Y0345328
X0229141Y0347828
X0226141Y0350328
X0223141Y0352828
X0220141Y0355328
X0217141Y0357828
X0212579Y0358287
X0224783Y0345689
X0218878Y0333484
X0234626Y0337421
X0223602Y0303563
X0264941Y031813
X0359823Y0340571
X0354141Y0346328
X0354641Y0350828
X0352141Y0357828
X0348141Y0360328
X0344641Y0362828
X0340141Y0364828
X0355098Y0364193
X0366516Y0352776
X0340641Y0368828
X0345256Y0374429
X0325177Y0382303
X0305098
X0270847Y0373642
X0259429Y0382303
X0243681
X0223602
X0160216Y0374429
X0155602Y0368828
X0140138Y0382303
X0120059
X0085807Y0373642
X007439Y0382303
X0058642
X0038563
T02
X0054862Y00083
X0054862Y0018051
X0053602Y0052867
X0043602
X0033602
X0023602
X0063602
X0064862Y0018051
X0064862Y00083
X0074862
X0074862Y0018051
X0084862
X0084862Y00083
X0094862
X0094862Y0018051
X0137461
X013746Y00083
X014746
X0147461Y0018051
X0157461
X015746Y00083
X016746
X0167461Y0018051
X0177461
X017746Y00083
X0208641Y0052867
X0145102
X0135102
X0125102
X0115102
X0105102
X0218641
X0228641
X0238641
X0248641
X0249902Y0018051
X0249901Y00083
X0239901
X0239902Y0018051
X0259902
X0259901Y00083
X0269901
X0269902Y0018051
X0279902
X0279901Y00083
X0322499
X03225Y0018051
X03325
X0332499Y00083
X0342499
X03425Y0018051
X03525
X0352499Y00083
X0362499
X03625Y0018051
X0330141Y0052867
X0320141
X0310141
X0300141
X0290141
X0290142Y0062618
X0300142
X0310142
X0320142
X0330142
X0332499Y0087041
X03325Y0096791
X03425
X0342499Y0087041
X0352499
X03525Y0096791
X03625
X0362499Y0087041
X0322499
X03225Y0096791
X0320141Y0131607
X0320142Y0141358
X0330142
X0330141Y0131607
X0310141
X0310142Y0141358
X0300142
X0300141Y0131607
X0290141
X0290142Y0141358
X0279901Y0165781
X0279902Y0175531
X0269902
X0269901Y0165781
X0259901
X0259902Y0175531
X0249902
X0249901Y0165781
X0239901
X0239902Y0175531
X0238642Y0141358
X0238641Y0131607
X0228641
X0228642Y0141358
X0218642
X0218641Y0131607
X0248641
X0248642Y0141358
X0249902Y0096791
X0249901Y0087041
X0239901
X0239902Y0096791
X0259902
X0259901Y0087041
X0269901
X0269902Y0096791
X0279902
X0279901Y0087041
X0248642Y0062618
X0238642
X0228642
X0218642
X0218641Y0210348
X0228641
X0238641
X0248641
X0290141
X0300141
X0310141
X0320141
X0330141
X03325Y0175531
X0332499Y0165781
X0322499
X03225Y0175531
X03425
X0342499Y0165781
X0352499
X03525Y0175531
X03625
X0362499Y0165781
X0208642Y0141358
X0208641Y0131607
X0145102
X0145102Y0141358
X0135102
X0135102Y0131607
X0125102
X0125102Y0141358
X0115102
X0115102Y0131607
X0105102
X0105102Y0141358
X0094862Y0165781
X0094862Y0175531
X0084862
X0084862Y0165781
X0074862
X0074862Y0175531
X0064862
X0064862Y0165781
X0063602Y0141358
X0063602Y0131607
X0064862Y0096791
X0064862Y0087041
X0074862
X0074862Y0096791
X0084862
X0084862Y0087041
X0094862
X0094862Y0096791
X0137461
X013746Y0087041
X014746
X0147461Y0096791
X0157461
X015746Y0087041
X016746
X0167461Y0096791
X0177461
X017746Y0087041
X0208642Y0062618
X0145102
X0135102
X0125102
X0115102
X0105102
X0063602
X0063602Y0210348
X0105102
X0115102
X0125102
X0135102
X0145102
X0147461Y0175531
X014746Y0165781
X013746
X0137461Y0175531
X0157461
X015746Y0165781
X016746
X0167461Y0175531
X0177461
X017746Y0165781
X0208641Y0210348
X0053602
X0043602
X0033602
X0023602
X0054862Y0175531
X0054862Y0165781
X0053602Y0141358
X0053602Y0131607
X0043602
X0043602Y0141358
X0033602
X0033602Y0131607
X0023602
X0023602Y0141358
X0054862Y0096791
X0054862Y0087041
X0053602Y0062618
X0043602
X0033602
X0023602
Y0220098
X0033602
X0043602
X0053602
X0054862Y0244521
X0054862Y0254272
X0053602Y0289088
X0053602Y0298839
X0043602
X0043602Y0289088
X0033602
X0033602Y0298839
X0023602
X0023602Y0289088
X0054862Y0323261
X0054862Y0333012
X0053602Y0367828
X0043602
X0033602
X0023602
X0063602
X0064862Y0333012
X0064862Y0323261
X0074862
X0074862Y0333012
X0084862
X0084862Y0323261
X0094862
X0094862Y0333012
X0137461
X013746Y0323261
X014746
X0147461Y0333012
X0157461
X015746Y0323261
X016746
X0167461Y0333012
X0177461
X017746Y0323261
X0208642Y0298839
X0208641Y0289088
X0145102
X0145102Y0298839
X0135102
X0135102Y0289088
X0125102
X0125102Y0298839
X0115102
X0115102Y0289088
X0105102
X0105102Y0298839
X0063602
X0063602Y0289088
X0064862Y0254272
X0064862Y0244521
X0074862
X0074862Y0254272
X0084862
X0084862Y0244521
X0094862
X0094862Y0254272
X0137461
X013746Y0244521
X014746
X0147461Y0254272
X0157461
X015746Y0244521
X016746
X0167461Y0254272
X0177461
X017746Y0244521
X0208642Y0220098
X0145102
X0135102
X0125102
X0115102
X0105102
X0063602
X0105102Y0367828
X0115102
X0125102
X0135102
X0145102
X0208641
X0218641
X0228641
X0238641
X0248641
X0249902Y0333012
X0249901Y0323261
X0239901
X0239902Y0333012
X0259902
X0259901Y0323261
X0269901
X0269902Y0333012
X0279902
X0279901Y0323261
X0290142Y0298839
X0290141Y0289088
X0300141
X0300142Y0298839
X0310142
X0310141Y0289088
X0320141
X0320142Y0298839
X0330142
X0330141Y0289088
X0332499Y0323261
X03325Y0333012
X03425
X0342499Y0323261
X0352499
X03525Y0333012
X03625
X0362499Y0323261
X0322499
X03225Y0333012
X0320141Y0367828
X0310141
X0300141
X0290141
X0330141
X03325Y0254272
X0332499Y0244521
X0322499
X03225Y0254272
X03425
X0342499Y0244521
X0352499
X03525Y0254272
X03625
X0362499Y0244521
X0330142Y0220098
X0320142
X0310142
X0300142
X0290142
X0279901Y0244521
X0279902Y0254272
X0269902
X0269901Y0244521
X0259901
X0259902Y0254272
X0249902
X0249901Y0244521
X0239901
X0239902Y0254272
X0238642Y0220098
X0248642
X0228642
X0218642
X0218641Y0289088
X0218642Y0298839
X0228642
X0228641Y0289088
X0238641
X0238642Y0298839
X0248642
X0248641Y0289088
X0248642Y0377579
X0238642
X0228642
X0218642
X0290142
X0300142
X0310142
X0320142
X0330142
X0208642
X0145102
X0135102
X0125102
X0115102
X0105102
X0063602
X0053602
X0043602
X0033602
X0023602
M30
