G04*
G04 #@! TF.GenerationSoftware,Altium Limited,Altium Designer,19.1.9 (167)*
G04*
G04 Layer_Color=16711935*
%FSLAX25Y25*%
%MOIN*%
G70*
G01*
G75*
%ADD17C,0.00039*%
D17*
X-0Y385827D02*
X0Y0D01*
X-0Y385827D02*
X385827Y385827D01*
X385827Y-0D02*
X385827Y385827D01*
X0Y0D02*
X385827Y-0D01*
X15748Y349718D02*
G03*
X18054Y344150I7874J0D01*
G01*
X23622Y385827D02*
G03*
X15748Y377953I-0J-7874D01*
G01*
X155850Y383521D02*
G03*
X150282Y385827I-5568J-5568D01*
G01*
X185039Y351069D02*
G03*
X182733Y356637I-7874J-0D01*
G01*
X177165Y314961D02*
G03*
X185039Y322835I0J7874D01*
G01*
X44938Y317267D02*
G03*
X50506Y314961I5568J5568D01*
G01*
X18054Y344150D02*
X44938Y317267D01*
X15748Y377953D02*
Y349718D01*
X23622Y385827D02*
X150282D01*
X155850Y383521D02*
X182733Y356637D01*
X185039Y351069D02*
Y322835D01*
X50506Y314961D02*
X177165D01*
X15748Y270978D02*
G03*
X18054Y265410I7874J0D01*
G01*
X23622Y307087D02*
G03*
X15748Y299213I-0J-7874D01*
G01*
X155850Y304780D02*
G03*
X150282Y307087I-5568J-5568D01*
G01*
X185039Y272329D02*
G03*
X182733Y277897I-7874J-0D01*
G01*
X177165Y236220D02*
G03*
X185039Y244094I0J7874D01*
G01*
X44938Y238527D02*
G03*
X50506Y236220I5568J5568D01*
G01*
X18054Y265410D02*
X44938Y238527D01*
X15748Y299213D02*
Y270978D01*
X23622Y307087D02*
X150282D01*
X155850Y304780D02*
X182733Y277897D01*
X185039Y272329D02*
Y244094D01*
X50506Y236220D02*
X177165D01*
X15748Y192238D02*
G03*
X18054Y186670I7874J0D01*
G01*
X23622Y228346D02*
G03*
X15748Y220472I-0J-7874D01*
G01*
X155850Y226040D02*
G03*
X150282Y228346I-5568J-5568D01*
G01*
X185039Y193589D02*
G03*
X182733Y199157I-7874J-0D01*
G01*
X177165Y157480D02*
G03*
X185039Y165354I0J7874D01*
G01*
X44938Y159786D02*
G03*
X50506Y157480I5568J5568D01*
G01*
X18054Y186670D02*
X44938Y159786D01*
X15748Y220472D02*
Y192238D01*
X23622Y228346D02*
X150282D01*
X155850Y226040D02*
X182733Y199157D01*
X185039Y193589D02*
Y165354D01*
X50506Y157480D02*
X177165D01*
X15748Y113498D02*
G03*
X18054Y107930I7874J0D01*
G01*
X23622Y149606D02*
G03*
X15748Y141732I-0J-7874D01*
G01*
X155850Y147300D02*
G03*
X150282Y149606I-5568J-5568D01*
G01*
X185039Y114849D02*
G03*
X182733Y120416I-7874J-0D01*
G01*
X177165Y78740D02*
G03*
X185039Y86614I0J7874D01*
G01*
X44938Y81046D02*
G03*
X50506Y78740I5568J5568D01*
G01*
X18054Y107930D02*
X44938Y81046D01*
X15748Y141732D02*
Y113498D01*
X23622Y149606D02*
X150282D01*
X155850Y147300D02*
X182733Y120416D01*
X185039Y114849D02*
Y86614D01*
X50506Y78740D02*
X177165D01*
X15748Y34758D02*
G03*
X18054Y29190I7874J0D01*
G01*
X23622Y70866D02*
G03*
X15748Y62992I-0J-7874D01*
G01*
X155850Y68560D02*
G03*
X150282Y70866I-5568J-5568D01*
G01*
X185039Y36108D02*
G03*
X182733Y41676I-7874J-0D01*
G01*
X177165Y-0D02*
G03*
X185039Y7874I0J7874D01*
G01*
X44938Y2306D02*
G03*
X50506Y-0I5568J5568D01*
G01*
X18054Y29190D02*
X44938Y2306D01*
X15748Y62992D02*
Y34758D01*
X23622Y70866D02*
X150282D01*
X155850Y68560D02*
X182733Y41676D01*
X185039Y36108D02*
Y7874D01*
X50506Y-0D02*
X177165D01*
X200787Y349718D02*
G03*
X203094Y344150I7874J0D01*
G01*
X208661Y385827D02*
G03*
X200787Y377953I-0J-7874D01*
G01*
X340889Y383521D02*
G03*
X335321Y385827I-5568J-5568D01*
G01*
X370079Y351069D02*
G03*
X367773Y356637I-7874J-0D01*
G01*
X362205Y314961D02*
G03*
X370079Y322835I0J7874D01*
G01*
X229977Y317267D02*
G03*
X235545Y314961I5568J5568D01*
G01*
X203094Y344150D02*
X229977Y317267D01*
X200787Y377953D02*
Y349718D01*
X208661Y385827D02*
X335321D01*
X340889Y383521D02*
X367773Y356637D01*
X370079Y351069D02*
Y322835D01*
X235545Y314961D02*
X362205D01*
X200787Y270978D02*
G03*
X203094Y265410I7874J0D01*
G01*
X208661Y307087D02*
G03*
X200787Y299213I-0J-7874D01*
G01*
X340889Y304780D02*
G03*
X335321Y307087I-5568J-5568D01*
G01*
X370079Y272329D02*
G03*
X367773Y277897I-7874J-0D01*
G01*
X362205Y236220D02*
G03*
X370079Y244094I0J7874D01*
G01*
X229977Y238527D02*
G03*
X235545Y236220I5568J5568D01*
G01*
X203094Y265410D02*
X229977Y238527D01*
X200787Y299213D02*
Y270978D01*
X208661Y307087D02*
X335321D01*
X340889Y304780D02*
X367773Y277897D01*
X370079Y272329D02*
Y244094D01*
X235545Y236220D02*
X362205D01*
X200787Y192238D02*
G03*
X203094Y186670I7874J0D01*
G01*
X208661Y228346D02*
G03*
X200787Y220472I-0J-7874D01*
G01*
X340889Y226040D02*
G03*
X335321Y228346I-5568J-5568D01*
G01*
X370079Y193589D02*
G03*
X367773Y199157I-7874J-0D01*
G01*
X362205Y157480D02*
G03*
X370079Y165354I0J7874D01*
G01*
X229977Y159786D02*
G03*
X235545Y157480I5568J5568D01*
G01*
X203094Y186670D02*
X229977Y159786D01*
X200787Y220472D02*
Y192238D01*
X208661Y228346D02*
X335321D01*
X340889Y226040D02*
X367773Y199157D01*
X370079Y193589D02*
Y165354D01*
X235545Y157480D02*
X362205D01*
X200787Y113498D02*
G03*
X203094Y107930I7874J0D01*
G01*
X208661Y149606D02*
G03*
X200787Y141732I-0J-7874D01*
G01*
X340889Y147300D02*
G03*
X335321Y149606I-5568J-5568D01*
G01*
X370079Y114849D02*
G03*
X367773Y120416I-7874J-0D01*
G01*
X362205Y78740D02*
G03*
X370079Y86614I0J7874D01*
G01*
X229977Y81046D02*
G03*
X235545Y78740I5568J5568D01*
G01*
X203094Y107930D02*
X229977Y81046D01*
X200787Y141732D02*
Y113498D01*
X208661Y149606D02*
X335321D01*
X340889Y147300D02*
X367773Y120416D01*
X370079Y114849D02*
Y86614D01*
X235545Y78740D02*
X362205D01*
X200787Y34758D02*
G03*
X203094Y29190I7874J0D01*
G01*
X208661Y70866D02*
G03*
X200787Y62992I-0J-7874D01*
G01*
X340889Y68560D02*
G03*
X335321Y70866I-5568J-5568D01*
G01*
X370079Y36108D02*
G03*
X367773Y41676I-7874J-0D01*
G01*
X362205Y-0D02*
G03*
X370079Y7874I0J7874D01*
G01*
X229977Y2306D02*
G03*
X235545Y-0I5568J5568D01*
G01*
X203094Y29190D02*
X229977Y2306D01*
X200787Y62992D02*
Y34758D01*
X208661Y70866D02*
X335321D01*
X340889Y68560D02*
X367773Y41676D01*
X370079Y36108D02*
Y7874D01*
X235545Y-0D02*
X362205D01*
M02*
