G04 #@! TF.GenerationSoftware,KiCad,Pcbnew,6.0.7-f9a2dced07~116~ubuntu22.04.1*
G04 #@! TF.CreationDate,2022-08-21T20:53:51+02:00*
G04 #@! TF.ProjectId,carabiner-distributor,63617261-6269-46e6-9572-2d6469737472,rev?*
G04 #@! TF.SameCoordinates,Original*
G04 #@! TF.FileFunction,Copper,L1,Top*
G04 #@! TF.FilePolarity,Positive*
%FSLAX46Y46*%
G04 Gerber Fmt 4.6, Leading zero omitted, Abs format (unit mm)*
G04 Created by KiCad (PCBNEW 6.0.7-f9a2dced07~116~ubuntu22.04.1) date 2022-08-21 20:53:51*
%MOMM*%
%LPD*%
G01*
G04 APERTURE LIST*
G04 Aperture macros list*
%AMRoundRect*
0 Rectangle with rounded corners*
0 $1 Rounding radius*
0 $2 $3 $4 $5 $6 $7 $8 $9 X,Y pos of 4 corners*
0 Add a 4 corners polygon primitive as box body*
4,1,4,$2,$3,$4,$5,$6,$7,$8,$9,$2,$3,0*
0 Add four circle primitives for the rounded corners*
1,1,$1+$1,$2,$3*
1,1,$1+$1,$4,$5*
1,1,$1+$1,$6,$7*
1,1,$1+$1,$8,$9*
0 Add four rect primitives between the rounded corners*
20,1,$1+$1,$2,$3,$4,$5,0*
20,1,$1+$1,$4,$5,$6,$7,0*
20,1,$1+$1,$6,$7,$8,$9,0*
20,1,$1+$1,$8,$9,$2,$3,0*%
G04 Aperture macros list end*
G04 #@! TA.AperFunction,ComponentPad*
%ADD10RoundRect,0.250001X-0.499999X-0.499999X0.499999X-0.499999X0.499999X0.499999X-0.499999X0.499999X0*%
G04 #@! TD*
G04 #@! TA.AperFunction,ComponentPad*
%ADD11C,1.500000*%
G04 #@! TD*
G04 #@! TA.AperFunction,ComponentPad*
%ADD12C,3.410000*%
G04 #@! TD*
G04 #@! TA.AperFunction,ComponentPad*
%ADD13RoundRect,0.250001X-0.759999X0.499999X-0.759999X-0.499999X0.759999X-0.499999X0.759999X0.499999X0*%
G04 #@! TD*
G04 #@! TA.AperFunction,ComponentPad*
%ADD14O,2.020000X1.500000*%
G04 #@! TD*
G04 #@! TA.AperFunction,ComponentPad*
%ADD15RoundRect,0.250000X-0.725000X0.600000X-0.725000X-0.600000X0.725000X-0.600000X0.725000X0.600000X0*%
G04 #@! TD*
G04 #@! TA.AperFunction,ComponentPad*
%ADD16O,1.950000X1.700000*%
G04 #@! TD*
G04 #@! TA.AperFunction,ComponentPad*
%ADD17RoundRect,0.250000X-0.600000X-0.750000X0.600000X-0.750000X0.600000X0.750000X-0.600000X0.750000X0*%
G04 #@! TD*
G04 #@! TA.AperFunction,ComponentPad*
%ADD18O,1.700000X2.000000*%
G04 #@! TD*
G04 #@! TA.AperFunction,ComponentPad*
%ADD19RoundRect,0.250000X-0.750000X0.600000X-0.750000X-0.600000X0.750000X-0.600000X0.750000X0.600000X0*%
G04 #@! TD*
G04 #@! TA.AperFunction,ComponentPad*
%ADD20O,2.000000X1.700000*%
G04 #@! TD*
G04 #@! TA.AperFunction,SMDPad,CuDef*
%ADD21R,2.500000X2.500000*%
G04 #@! TD*
G04 #@! TA.AperFunction,ComponentPad*
%ADD22C,5.600000*%
G04 #@! TD*
G04 #@! TA.AperFunction,ViaPad*
%ADD23C,0.800000*%
G04 #@! TD*
G04 #@! TA.AperFunction,Conductor*
%ADD24C,0.300000*%
G04 #@! TD*
G04 #@! TA.AperFunction,Conductor*
%ADD25C,0.500000*%
G04 #@! TD*
G04 #@! TA.AperFunction,Conductor*
%ADD26C,2.500000*%
G04 #@! TD*
G04 #@! TA.AperFunction,Conductor*
%ADD27C,1.000000*%
G04 #@! TD*
G04 APERTURE END LIST*
D10*
X80000000Y-30000000D03*
D11*
X83000000Y-30000000D03*
X86000000Y-30000000D03*
X89000000Y-30000000D03*
X92000000Y-30000000D03*
X95000000Y-30000000D03*
X98000000Y-30000000D03*
X101000000Y-30000000D03*
X80000000Y-33000000D03*
X83000000Y-33000000D03*
X86000000Y-33000000D03*
X89000000Y-33000000D03*
X92000000Y-33000000D03*
X95000000Y-33000000D03*
X98000000Y-33000000D03*
X101000000Y-33000000D03*
D12*
X77850000Y-25680000D03*
X103150000Y-25680000D03*
D13*
X90000000Y-41500000D03*
D14*
X90000000Y-44500000D03*
D15*
X101000000Y-41500000D03*
D16*
X101000000Y-44000000D03*
X101000000Y-46500000D03*
X101000000Y-49000000D03*
D17*
X80000000Y-52500000D03*
D18*
X82500000Y-52500000D03*
D19*
X90000000Y-41500000D03*
D20*
X90000000Y-44000000D03*
D21*
X104500000Y-54600000D03*
D22*
X110000000Y-31000000D03*
X70000000Y-31000000D03*
D19*
X70000000Y-40000000D03*
D20*
X70000000Y-42500000D03*
D21*
X100000000Y-54600000D03*
D10*
X80000000Y-30000000D03*
D11*
X83000000Y-30000000D03*
X86000000Y-30000000D03*
X89000000Y-30000000D03*
X92000000Y-30000000D03*
X95000000Y-30000000D03*
X98000000Y-30000000D03*
X101000000Y-30000000D03*
X80000000Y-33000000D03*
X83000000Y-33000000D03*
X86000000Y-33000000D03*
X89000000Y-33000000D03*
X92000000Y-33000000D03*
X95000000Y-33000000D03*
X98000000Y-33000000D03*
X101000000Y-33000000D03*
D17*
X90000000Y-52500000D03*
D18*
X92500000Y-52500000D03*
D13*
X70000000Y-40000000D03*
D14*
X70000000Y-43000000D03*
D17*
X70000000Y-52500000D03*
D18*
X72500000Y-52500000D03*
D10*
X70000000Y-40000000D03*
D11*
X70000000Y-43000000D03*
D10*
X80000000Y-30000000D03*
D11*
X83000000Y-30000000D03*
X86000000Y-30000000D03*
X89000000Y-30000000D03*
X92000000Y-30000000D03*
X95000000Y-30000000D03*
X98000000Y-30000000D03*
X101000000Y-30000000D03*
X80000000Y-33000000D03*
X83000000Y-33000000D03*
X86000000Y-33000000D03*
X89000000Y-33000000D03*
X92000000Y-33000000D03*
X95000000Y-33000000D03*
X98000000Y-33000000D03*
X101000000Y-33000000D03*
D19*
X80000000Y-41500000D03*
D20*
X80000000Y-44000000D03*
D15*
X110000000Y-39460000D03*
D16*
X110000000Y-41960000D03*
X110000000Y-44460000D03*
X110000000Y-46960000D03*
X110000000Y-49460000D03*
D23*
X102000000Y-52100000D03*
X97700000Y-54600000D03*
D24*
X99170000Y-34070000D02*
X98940000Y-33840000D01*
X98940000Y-33840000D02*
X98840000Y-33840000D01*
X98840000Y-33840000D02*
X98000000Y-33000000D01*
X110000000Y-44460000D02*
X109460000Y-44460000D01*
X109460000Y-44460000D02*
X99120000Y-34120000D01*
X99120000Y-34120000D02*
X99170000Y-34070000D01*
X110000000Y-41960000D02*
X107666428Y-41960000D01*
X105590717Y-38554868D02*
G75*
G02*
X105590722Y-38979127I-212117J-212132D01*
G01*
X104501742Y-38795314D02*
X104501741Y-38795313D01*
X103653169Y-37946831D02*
G75*
G03*
X104077478Y-37946784I212131J212131D01*
G01*
X104317931Y-37706334D02*
X104077479Y-37946785D01*
X101000000Y-35293572D02*
X101000000Y-33000000D01*
X107666428Y-41960000D02*
X105350269Y-39643841D01*
X104317932Y-37706335D02*
G75*
G02*
X104742194Y-37706335I212131J-212131D01*
G01*
X105590723Y-38979126D02*
X105590722Y-38979127D01*
X104742160Y-37706369D02*
G75*
G02*
X104742193Y-38130598I-212060J-212131D01*
G01*
X104501760Y-38371068D02*
G75*
G03*
X104501741Y-38795313I212140J-212132D01*
G01*
X104501769Y-38795287D02*
G75*
G03*
X104926006Y-38795312I212131J212087D01*
G01*
X105350269Y-39219577D02*
X105590723Y-38979126D01*
X105350260Y-39219568D02*
G75*
G03*
X105350269Y-39643841I212140J-212132D01*
G01*
X105166460Y-38554863D02*
G75*
G02*
X105590722Y-38554863I212131J-212131D01*
G01*
X105166459Y-38554862D02*
X104926007Y-38795313D01*
X104501741Y-38371049D02*
X104742195Y-38130598D01*
X104742195Y-38130598D02*
X104742194Y-38130599D01*
X103653214Y-37946786D02*
X101000000Y-35293572D01*
X101000000Y-30000000D02*
X102800000Y-31800000D01*
X107260000Y-39460000D02*
X110000000Y-39460000D01*
X102800000Y-35000000D02*
X107260000Y-39460000D01*
X102800000Y-31800000D02*
X102800000Y-35000000D01*
D25*
X101300000Y-39800000D02*
X101900000Y-39800000D01*
X103200000Y-42300000D02*
X101000000Y-44500000D01*
X95000000Y-35010730D02*
X99789270Y-39800000D01*
X103200000Y-41100000D02*
X103200000Y-42300000D01*
X95000000Y-33000000D02*
X95000000Y-35010730D01*
X99789270Y-39800000D02*
X101300000Y-39800000D01*
X101900000Y-39800000D02*
X103200000Y-41100000D01*
X92000000Y-33000000D02*
X101000000Y-42000000D01*
D26*
X71500000Y-42500000D02*
X70000000Y-42500000D01*
X76341151Y-37658849D02*
X71500000Y-42500000D01*
X79958849Y-37658849D02*
X76341151Y-37658849D01*
X83000000Y-33000000D02*
X83000000Y-34617698D01*
X83000000Y-34617698D02*
X79958849Y-37658849D01*
D24*
X99143572Y-34850000D02*
X97750000Y-34850000D01*
X109460000Y-46960000D02*
X107900000Y-45400000D01*
X96750000Y-31250000D02*
X98000000Y-30000000D01*
X107900000Y-43606428D02*
X99143572Y-34850000D01*
X96750000Y-33850000D02*
X96750000Y-31250000D01*
X107900000Y-45400000D02*
X107900000Y-43606428D01*
X97750000Y-34850000D02*
X96750000Y-33850000D01*
X110000000Y-46960000D02*
X109460000Y-46960000D01*
D27*
X86000000Y-36000000D02*
X80500000Y-41500000D01*
X80500000Y-41500000D02*
X80000000Y-41500000D01*
X86000000Y-33000000D02*
X86000000Y-36000000D01*
D24*
X90400000Y-31400000D02*
X90400000Y-34100000D01*
X102000000Y-52100000D02*
X100100000Y-52100000D01*
X100100000Y-52100000D02*
X98850000Y-50850000D01*
X90000000Y-42000000D02*
X90000000Y-34500000D01*
X90000000Y-41500000D02*
X91200000Y-41500000D01*
X91200000Y-41500000D02*
X98850000Y-49150000D01*
X89000000Y-30000000D02*
X90400000Y-31400000D01*
X90000000Y-34500000D02*
X90400000Y-34100000D01*
X104500000Y-54600000D02*
X102000000Y-52100000D01*
X98850000Y-49150000D02*
X98850000Y-50850000D01*
X86800000Y-28300000D02*
X87400000Y-28900000D01*
X81700000Y-28300000D02*
X86800000Y-28300000D01*
X87400000Y-28900000D02*
X87400000Y-49900000D01*
X80000000Y-30000000D02*
X81700000Y-28300000D01*
X87400000Y-49900000D02*
X90000000Y-52500000D01*
X87899520Y-34100480D02*
X89000000Y-33000000D01*
X90000000Y-44500000D02*
X87899520Y-42399520D01*
X87899520Y-42399520D02*
X87899520Y-34100480D01*
X92500000Y-52500000D02*
X94600000Y-54600000D01*
X94600000Y-54600000D02*
X100000000Y-54600000D01*
M02*
