G04 #@! TF.GenerationSoftware,KiCad,Pcbnew,6.0.7-f9a2dced07~116~ubuntu22.04.1*
G04 #@! TF.CreationDate,2022-08-21T20:53:52+02:00*
G04 #@! TF.ProjectId,carabiner-distributor,63617261-6269-46e6-9572-2d6469737472,rev?*
G04 #@! TF.SameCoordinates,Original*
G04 #@! TF.FileFunction,Legend,Bot*
G04 #@! TF.FilePolarity,Positive*
%FSLAX46Y46*%
G04 Gerber Fmt 4.6, Leading zero omitted, Abs format (unit mm)*
G04 Created by KiCad (PCBNEW 6.0.7-f9a2dced07~116~ubuntu22.04.1) date 2022-08-21 20:53:52*
%MOMM*%
%LPD*%
G01*
G04 APERTURE LIST*
%ADD10C,0.120000*%
%ADD11C,0.100000*%
%ADD12C,0.150000*%
%ADD13C,0.010000*%
G04 APERTURE END LIST*
D10*
X112500000Y-40750000D02*
X104500000Y-40750000D01*
X103500000Y-42750000D02*
X95500000Y-42750000D01*
X66490000Y-41250000D02*
X75000000Y-41250000D01*
X81250000Y-56010000D02*
X81250000Y-48050000D01*
X103500000Y-45290000D02*
X95500000Y-45290000D01*
X112500000Y-43290000D02*
X104500000Y-43290000D01*
X94460000Y-42750000D02*
X87250000Y-42750000D01*
X103500000Y-47830000D02*
X95500000Y-47830000D01*
X91250000Y-56010000D02*
X91250000Y-48040000D01*
X112500000Y-45830000D02*
X104500000Y-45830000D01*
X76490000Y-42750000D02*
X84460000Y-42750000D01*
X112500000Y-48200000D02*
X104500000Y-48200000D01*
X71250000Y-56010000D02*
X71250000Y-48050000D01*
D11*
X94790476Y-40217904D02*
X94333333Y-40217904D01*
X94561904Y-41017904D02*
X94561904Y-40217904D01*
X94066666Y-41017904D02*
X94066666Y-40217904D01*
X93723809Y-41017904D02*
X93723809Y-40598857D01*
X93761904Y-40522666D01*
X93838095Y-40484571D01*
X93952380Y-40484571D01*
X94028571Y-40522666D01*
X94066666Y-40560761D01*
X94714285Y-41544000D02*
X94790476Y-41505904D01*
X94904761Y-41505904D01*
X95019047Y-41544000D01*
X95095238Y-41620190D01*
X95133333Y-41696380D01*
X95171428Y-41848761D01*
X95171428Y-41963047D01*
X95133333Y-42115428D01*
X95095238Y-42191619D01*
X95019047Y-42267809D01*
X94904761Y-42305904D01*
X94828571Y-42305904D01*
X94714285Y-42267809D01*
X94676190Y-42229714D01*
X94676190Y-41963047D01*
X94828571Y-41963047D01*
X94333333Y-41772571D02*
X94333333Y-42305904D01*
X94333333Y-41848761D02*
X94295238Y-41810666D01*
X94219047Y-41772571D01*
X94104761Y-41772571D01*
X94028571Y-41810666D01*
X93990476Y-41886857D01*
X93990476Y-42305904D01*
X93266666Y-42305904D02*
X93266666Y-41505904D01*
X93266666Y-42267809D02*
X93342857Y-42305904D01*
X93495238Y-42305904D01*
X93571428Y-42267809D01*
X93609523Y-42229714D01*
X93647619Y-42153523D01*
X93647619Y-41924952D01*
X93609523Y-41848761D01*
X93571428Y-41810666D01*
X93495238Y-41772571D01*
X93342857Y-41772571D01*
X93266666Y-41810666D01*
X97390476Y-53417904D02*
X96933333Y-53417904D01*
X97161904Y-54217904D02*
X97161904Y-53417904D01*
X96666666Y-54217904D02*
X96666666Y-53417904D01*
X96323809Y-54217904D02*
X96323809Y-53798857D01*
X96361904Y-53722666D01*
X96438095Y-53684571D01*
X96552380Y-53684571D01*
X96628571Y-53722666D01*
X96666666Y-53760761D01*
X97923809Y-54705904D02*
X97466666Y-54705904D01*
X97695238Y-55505904D02*
X97695238Y-54705904D01*
X96895238Y-55467809D02*
X96971428Y-55505904D01*
X97123809Y-55505904D01*
X97200000Y-55467809D01*
X97238095Y-55391619D01*
X97238095Y-55086857D01*
X97200000Y-55010666D01*
X97123809Y-54972571D01*
X96971428Y-54972571D01*
X96895238Y-55010666D01*
X96857142Y-55086857D01*
X96857142Y-55163047D01*
X97238095Y-55239238D01*
X96552380Y-55467809D02*
X96476190Y-55505904D01*
X96323809Y-55505904D01*
X96247619Y-55467809D01*
X96209523Y-55391619D01*
X96209523Y-55353523D01*
X96247619Y-55277333D01*
X96323809Y-55239238D01*
X96438095Y-55239238D01*
X96514285Y-55201142D01*
X96552380Y-55124952D01*
X96552380Y-55086857D01*
X96514285Y-55010666D01*
X96438095Y-54972571D01*
X96323809Y-54972571D01*
X96247619Y-55010666D01*
X95980952Y-54972571D02*
X95676190Y-54972571D01*
X95866666Y-54705904D02*
X95866666Y-55391619D01*
X95828571Y-55467809D01*
X95752380Y-55505904D01*
X95676190Y-55505904D01*
X105971428Y-42133333D02*
X105590476Y-42133333D01*
X106047619Y-42361904D02*
X105780952Y-41561904D01*
X105514285Y-42361904D01*
X105323809Y-41561904D02*
X104828571Y-41561904D01*
X105095238Y-41866666D01*
X104980952Y-41866666D01*
X104904761Y-41904761D01*
X104866666Y-41942857D01*
X104828571Y-42019047D01*
X104828571Y-42209523D01*
X104866666Y-42285714D01*
X104904761Y-42323809D01*
X104980952Y-42361904D01*
X105209523Y-42361904D01*
X105285714Y-42323809D01*
X105323809Y-42285714D01*
X85209523Y-44561904D02*
X85209523Y-43761904D01*
X84752380Y-44561904D01*
X84752380Y-43761904D01*
X84371428Y-44485714D02*
X84333333Y-44523809D01*
X84371428Y-44561904D01*
X84409523Y-44523809D01*
X84371428Y-44485714D01*
X84371428Y-44561904D01*
X83533333Y-44485714D02*
X83571428Y-44523809D01*
X83685714Y-44561904D01*
X83761904Y-44561904D01*
X83876190Y-44523809D01*
X83952380Y-44447619D01*
X83990476Y-44371428D01*
X84028571Y-44219047D01*
X84028571Y-44104761D01*
X83990476Y-43952380D01*
X83952380Y-43876190D01*
X83876190Y-43800000D01*
X83761904Y-43761904D01*
X83685714Y-43761904D01*
X83571428Y-43800000D01*
X83533333Y-43838095D01*
X83190476Y-44485714D02*
X83152380Y-44523809D01*
X83190476Y-44561904D01*
X83228571Y-44523809D01*
X83190476Y-44485714D01*
X83190476Y-44561904D01*
X95290476Y-48661904D02*
X94833333Y-48661904D01*
X95061904Y-49461904D02*
X95061904Y-48661904D01*
X94566666Y-49461904D02*
X94566666Y-48661904D01*
X94223809Y-49461904D02*
X94223809Y-49042857D01*
X94261904Y-48966666D01*
X94338095Y-48928571D01*
X94452380Y-48928571D01*
X94528571Y-48966666D01*
X94566666Y-49004761D01*
X93957142Y-48661904D02*
X93500000Y-48661904D01*
X93728571Y-49461904D02*
X93728571Y-48661904D01*
X92928571Y-49423809D02*
X93004761Y-49461904D01*
X93157142Y-49461904D01*
X93233333Y-49423809D01*
X93271428Y-49347619D01*
X93271428Y-49042857D01*
X93233333Y-48966666D01*
X93157142Y-48928571D01*
X93004761Y-48928571D01*
X92928571Y-48966666D01*
X92890476Y-49042857D01*
X92890476Y-49119047D01*
X93271428Y-49195238D01*
X92585714Y-49423809D02*
X92509523Y-49461904D01*
X92357142Y-49461904D01*
X92280952Y-49423809D01*
X92242857Y-49347619D01*
X92242857Y-49309523D01*
X92280952Y-49233333D01*
X92357142Y-49195238D01*
X92471428Y-49195238D01*
X92547619Y-49157142D01*
X92585714Y-49080952D01*
X92585714Y-49042857D01*
X92547619Y-48966666D01*
X92471428Y-48928571D01*
X92357142Y-48928571D01*
X92280952Y-48966666D01*
X92014285Y-48928571D02*
X91709523Y-48928571D01*
X91900000Y-48661904D02*
X91900000Y-49347619D01*
X91861904Y-49423809D01*
X91785714Y-49461904D01*
X91709523Y-49461904D01*
X73652380Y-48217904D02*
X73652380Y-47417904D01*
X73347619Y-47417904D01*
X73271428Y-47456000D01*
X73233333Y-47494095D01*
X73195238Y-47570285D01*
X73195238Y-47684571D01*
X73233333Y-47760761D01*
X73271428Y-47798857D01*
X73347619Y-47836952D01*
X73652380Y-47836952D01*
X72395238Y-48141714D02*
X72433333Y-48179809D01*
X72547619Y-48217904D01*
X72623809Y-48217904D01*
X72738095Y-48179809D01*
X72814285Y-48103619D01*
X72852380Y-48027428D01*
X72890476Y-47875047D01*
X72890476Y-47760761D01*
X72852380Y-47608380D01*
X72814285Y-47532190D01*
X72738095Y-47456000D01*
X72623809Y-47417904D01*
X72547619Y-47417904D01*
X72433333Y-47456000D01*
X72395238Y-47494095D01*
X71785714Y-47798857D02*
X72052380Y-47798857D01*
X72052380Y-48217904D02*
X72052380Y-47417904D01*
X71671428Y-47417904D01*
X73004761Y-49201142D02*
X72395238Y-49201142D01*
X90858809Y-48661904D02*
X90401666Y-48661904D01*
X90630238Y-49461904D02*
X90630238Y-48661904D01*
X90135000Y-49461904D02*
X90135000Y-48661904D01*
X89792142Y-49461904D02*
X89792142Y-49042857D01*
X89830238Y-48966666D01*
X89906428Y-48928571D01*
X90020714Y-48928571D01*
X90096904Y-48966666D01*
X90135000Y-49004761D01*
X88954047Y-49385714D02*
X88992142Y-49423809D01*
X89106428Y-49461904D01*
X89182619Y-49461904D01*
X89296904Y-49423809D01*
X89373095Y-49347619D01*
X89411190Y-49271428D01*
X89449285Y-49119047D01*
X89449285Y-49004761D01*
X89411190Y-48852380D01*
X89373095Y-48776190D01*
X89296904Y-48700000D01*
X89182619Y-48661904D01*
X89106428Y-48661904D01*
X88992142Y-48700000D01*
X88954047Y-48738095D01*
X88611190Y-49461904D02*
X88611190Y-48661904D01*
X88268333Y-49461904D02*
X88268333Y-49042857D01*
X88306428Y-48966666D01*
X88382619Y-48928571D01*
X88496904Y-48928571D01*
X88573095Y-48966666D01*
X88611190Y-49004761D01*
X87544523Y-49461904D02*
X87544523Y-49042857D01*
X87582619Y-48966666D01*
X87658809Y-48928571D01*
X87811190Y-48928571D01*
X87887380Y-48966666D01*
X87544523Y-49423809D02*
X87620714Y-49461904D01*
X87811190Y-49461904D01*
X87887380Y-49423809D01*
X87925476Y-49347619D01*
X87925476Y-49271428D01*
X87887380Y-49195238D01*
X87811190Y-49157142D01*
X87620714Y-49157142D01*
X87544523Y-49119047D01*
X87163571Y-49461904D02*
X87163571Y-48928571D01*
X87163571Y-49004761D02*
X87125476Y-48966666D01*
X87049285Y-48928571D01*
X86935000Y-48928571D01*
X86858809Y-48966666D01*
X86820714Y-49042857D01*
X86820714Y-49461904D01*
X86820714Y-49042857D02*
X86782619Y-48966666D01*
X86706428Y-48928571D01*
X86592142Y-48928571D01*
X86515952Y-48966666D01*
X86477857Y-49042857D01*
X86477857Y-49461904D01*
X86096904Y-49461904D02*
X86096904Y-48661904D01*
X86096904Y-48966666D02*
X86020714Y-48928571D01*
X85868333Y-48928571D01*
X85792142Y-48966666D01*
X85754047Y-49004761D01*
X85715952Y-49080952D01*
X85715952Y-49309523D01*
X85754047Y-49385714D01*
X85792142Y-49423809D01*
X85868333Y-49461904D01*
X86020714Y-49461904D01*
X86096904Y-49423809D01*
X105971428Y-44633333D02*
X105590476Y-44633333D01*
X106047619Y-44861904D02*
X105780952Y-44061904D01*
X105514285Y-44861904D01*
X105285714Y-44138095D02*
X105247619Y-44100000D01*
X105171428Y-44061904D01*
X104980952Y-44061904D01*
X104904761Y-44100000D01*
X104866666Y-44138095D01*
X104828571Y-44214285D01*
X104828571Y-44290476D01*
X104866666Y-44404761D01*
X105323809Y-44861904D01*
X104828571Y-44861904D01*
X75390476Y-42517904D02*
X75390476Y-41717904D01*
X75390476Y-42098857D02*
X74933333Y-42098857D01*
X74933333Y-42517904D02*
X74933333Y-41717904D01*
X74552380Y-42098857D02*
X74285714Y-42098857D01*
X74171428Y-42517904D02*
X74552380Y-42517904D01*
X74552380Y-41717904D01*
X74171428Y-41717904D01*
X75104761Y-43501142D02*
X74495238Y-43501142D01*
X96571428Y-46861904D02*
X97028571Y-46861904D01*
X96800000Y-46861904D02*
X96800000Y-46061904D01*
X96876190Y-46176190D01*
X96952380Y-46252380D01*
X97028571Y-46290476D01*
X95961904Y-46442857D02*
X95847619Y-46480952D01*
X95809523Y-46519047D01*
X95771428Y-46595238D01*
X95771428Y-46709523D01*
X95809523Y-46785714D01*
X95847619Y-46823809D01*
X95923809Y-46861904D01*
X96228571Y-46861904D01*
X96228571Y-46061904D01*
X95961904Y-46061904D01*
X95885714Y-46100000D01*
X95847619Y-46138095D01*
X95809523Y-46214285D01*
X95809523Y-46290476D01*
X95847619Y-46366666D01*
X95885714Y-46404761D01*
X95961904Y-46442857D01*
X96228571Y-46442857D01*
X96414285Y-49161904D02*
X96871428Y-49161904D01*
X96642857Y-49161904D02*
X96642857Y-48361904D01*
X96719047Y-48476190D01*
X96795238Y-48552380D01*
X96871428Y-48590476D01*
X96109523Y-48933333D02*
X95728571Y-48933333D01*
X96185714Y-49161904D02*
X95919047Y-48361904D01*
X95652380Y-49161904D01*
D12*
X74414285Y-32061904D02*
X73938095Y-32204761D01*
X73842857Y-32252380D01*
X73795238Y-32300000D01*
X73747619Y-32395238D01*
X73747619Y-32490476D01*
X73795238Y-32585714D01*
X73842857Y-32633333D01*
X73985714Y-32680952D01*
X74176190Y-32680952D01*
X74319047Y-32633333D01*
X74366666Y-32585714D01*
X74414285Y-32490476D01*
X74414285Y-32395238D01*
X74366666Y-32300000D01*
X74319047Y-32252380D01*
X74223809Y-32204761D01*
X73890476Y-32157142D01*
X73795238Y-32109523D01*
X73747619Y-32014285D01*
X74747619Y-30680952D02*
X74747619Y-30585714D01*
X74700000Y-30490476D01*
X74652380Y-30442857D01*
X74557142Y-30395238D01*
X74366666Y-30347619D01*
X74128571Y-30347619D01*
X73938095Y-30395238D01*
X73842857Y-30442857D01*
X73795238Y-30490476D01*
X73747619Y-30585714D01*
X73747619Y-30680952D01*
X73795238Y-30776190D01*
X73842857Y-30823809D01*
X73938095Y-30871428D01*
X74128571Y-30919047D01*
X74366666Y-30919047D01*
X74557142Y-30871428D01*
X74652380Y-30823809D01*
X74700000Y-30776190D01*
X74747619Y-30680952D01*
X73842857Y-29919047D02*
X73795238Y-29871428D01*
X73747619Y-29919047D01*
X73795238Y-29966666D01*
X73842857Y-29919047D01*
X73747619Y-29919047D01*
X73747619Y-28919047D02*
X73747619Y-29490476D01*
X73747619Y-29204761D02*
X74747619Y-29204761D01*
X74604761Y-29300000D01*
X74509523Y-29395238D01*
X74461904Y-29490476D01*
D11*
X105909523Y-49761904D02*
X105909523Y-48961904D01*
X105452380Y-49761904D01*
X105452380Y-48961904D01*
X105071428Y-49685714D02*
X105033333Y-49723809D01*
X105071428Y-49761904D01*
X105109523Y-49723809D01*
X105071428Y-49685714D01*
X105071428Y-49761904D01*
X104233333Y-49685714D02*
X104271428Y-49723809D01*
X104385714Y-49761904D01*
X104461904Y-49761904D01*
X104576190Y-49723809D01*
X104652380Y-49647619D01*
X104690476Y-49571428D01*
X104728571Y-49419047D01*
X104728571Y-49304761D01*
X104690476Y-49152380D01*
X104652380Y-49076190D01*
X104576190Y-49000000D01*
X104461904Y-48961904D01*
X104385714Y-48961904D01*
X104271428Y-49000000D01*
X104233333Y-49038095D01*
X103890476Y-49685714D02*
X103852380Y-49723809D01*
X103890476Y-49761904D01*
X103928571Y-49723809D01*
X103890476Y-49685714D01*
X103890476Y-49761904D01*
D12*
X74166666Y-25852142D02*
X74214285Y-25899761D01*
X74357142Y-25947380D01*
X74452380Y-25947380D01*
X74595238Y-25899761D01*
X74690476Y-25804523D01*
X74738095Y-25709285D01*
X74785714Y-25518809D01*
X74785714Y-25375952D01*
X74738095Y-25185476D01*
X74690476Y-25090238D01*
X74595238Y-24995000D01*
X74452380Y-24947380D01*
X74357142Y-24947380D01*
X74214285Y-24995000D01*
X74166666Y-25042619D01*
X73309523Y-25947380D02*
X73309523Y-25423571D01*
X73357142Y-25328333D01*
X73452380Y-25280714D01*
X73642857Y-25280714D01*
X73738095Y-25328333D01*
X73309523Y-25899761D02*
X73404761Y-25947380D01*
X73642857Y-25947380D01*
X73738095Y-25899761D01*
X73785714Y-25804523D01*
X73785714Y-25709285D01*
X73738095Y-25614047D01*
X73642857Y-25566428D01*
X73404761Y-25566428D01*
X73309523Y-25518809D01*
X72833333Y-25947380D02*
X72833333Y-25280714D01*
X72833333Y-25471190D02*
X72785714Y-25375952D01*
X72738095Y-25328333D01*
X72642857Y-25280714D01*
X72547619Y-25280714D01*
X71785714Y-25947380D02*
X71785714Y-25423571D01*
X71833333Y-25328333D01*
X71928571Y-25280714D01*
X72119047Y-25280714D01*
X72214285Y-25328333D01*
X71785714Y-25899761D02*
X71880952Y-25947380D01*
X72119047Y-25947380D01*
X72214285Y-25899761D01*
X72261904Y-25804523D01*
X72261904Y-25709285D01*
X72214285Y-25614047D01*
X72119047Y-25566428D01*
X71880952Y-25566428D01*
X71785714Y-25518809D01*
X71309523Y-25947380D02*
X71309523Y-24947380D01*
X71309523Y-25328333D02*
X71214285Y-25280714D01*
X71023809Y-25280714D01*
X70928571Y-25328333D01*
X70880952Y-25375952D01*
X70833333Y-25471190D01*
X70833333Y-25756904D01*
X70880952Y-25852142D01*
X70928571Y-25899761D01*
X71023809Y-25947380D01*
X71214285Y-25947380D01*
X71309523Y-25899761D01*
X70404761Y-25947380D02*
X70404761Y-25280714D01*
X70404761Y-24947380D02*
X70452380Y-24995000D01*
X70404761Y-25042619D01*
X70357142Y-24995000D01*
X70404761Y-24947380D01*
X70404761Y-25042619D01*
X69928571Y-25280714D02*
X69928571Y-25947380D01*
X69928571Y-25375952D02*
X69880952Y-25328333D01*
X69785714Y-25280714D01*
X69642857Y-25280714D01*
X69547619Y-25328333D01*
X69500000Y-25423571D01*
X69500000Y-25947380D01*
X68642857Y-25899761D02*
X68738095Y-25947380D01*
X68928571Y-25947380D01*
X69023809Y-25899761D01*
X69071428Y-25804523D01*
X69071428Y-25423571D01*
X69023809Y-25328333D01*
X68928571Y-25280714D01*
X68738095Y-25280714D01*
X68642857Y-25328333D01*
X68595238Y-25423571D01*
X68595238Y-25518809D01*
X69071428Y-25614047D01*
X68166666Y-25947380D02*
X68166666Y-25280714D01*
X68166666Y-25471190D02*
X68119047Y-25375952D01*
X68071428Y-25328333D01*
X67976190Y-25280714D01*
X67880952Y-25280714D01*
X74690476Y-27557380D02*
X74690476Y-26557380D01*
X74452380Y-26557380D01*
X74309523Y-26605000D01*
X74214285Y-26700238D01*
X74166666Y-26795476D01*
X74119047Y-26985952D01*
X74119047Y-27128809D01*
X74166666Y-27319285D01*
X74214285Y-27414523D01*
X74309523Y-27509761D01*
X74452380Y-27557380D01*
X74690476Y-27557380D01*
X73690476Y-27557380D02*
X73690476Y-26890714D01*
X73690476Y-26557380D02*
X73738095Y-26605000D01*
X73690476Y-26652619D01*
X73642857Y-26605000D01*
X73690476Y-26557380D01*
X73690476Y-26652619D01*
X73261904Y-27509761D02*
X73166666Y-27557380D01*
X72976190Y-27557380D01*
X72880952Y-27509761D01*
X72833333Y-27414523D01*
X72833333Y-27366904D01*
X72880952Y-27271666D01*
X72976190Y-27224047D01*
X73119047Y-27224047D01*
X73214285Y-27176428D01*
X73261904Y-27081190D01*
X73261904Y-27033571D01*
X73214285Y-26938333D01*
X73119047Y-26890714D01*
X72976190Y-26890714D01*
X72880952Y-26938333D01*
X72547619Y-26890714D02*
X72166666Y-26890714D01*
X72404761Y-26557380D02*
X72404761Y-27414523D01*
X72357142Y-27509761D01*
X72261904Y-27557380D01*
X72166666Y-27557380D01*
X71833333Y-27557380D02*
X71833333Y-26890714D01*
X71833333Y-27081190D02*
X71785714Y-26985952D01*
X71738095Y-26938333D01*
X71642857Y-26890714D01*
X71547619Y-26890714D01*
X71214285Y-27557380D02*
X71214285Y-26890714D01*
X71214285Y-26557380D02*
X71261904Y-26605000D01*
X71214285Y-26652619D01*
X71166666Y-26605000D01*
X71214285Y-26557380D01*
X71214285Y-26652619D01*
X70738095Y-27557380D02*
X70738095Y-26557380D01*
X70738095Y-26938333D02*
X70642857Y-26890714D01*
X70452380Y-26890714D01*
X70357142Y-26938333D01*
X70309523Y-26985952D01*
X70261904Y-27081190D01*
X70261904Y-27366904D01*
X70309523Y-27462142D01*
X70357142Y-27509761D01*
X70452380Y-27557380D01*
X70642857Y-27557380D01*
X70738095Y-27509761D01*
X69404761Y-26890714D02*
X69404761Y-27557380D01*
X69833333Y-26890714D02*
X69833333Y-27414523D01*
X69785714Y-27509761D01*
X69690476Y-27557380D01*
X69547619Y-27557380D01*
X69452380Y-27509761D01*
X69404761Y-27462142D01*
X69071428Y-26890714D02*
X68690476Y-26890714D01*
X68928571Y-26557380D02*
X68928571Y-27414523D01*
X68880952Y-27509761D01*
X68785714Y-27557380D01*
X68690476Y-27557380D01*
X68214285Y-27557380D02*
X68309523Y-27509761D01*
X68357142Y-27462142D01*
X68404761Y-27366904D01*
X68404761Y-27081190D01*
X68357142Y-26985952D01*
X68309523Y-26938333D01*
X68214285Y-26890714D01*
X68071428Y-26890714D01*
X67976190Y-26938333D01*
X67928571Y-26985952D01*
X67880952Y-27081190D01*
X67880952Y-27366904D01*
X67928571Y-27462142D01*
X67976190Y-27509761D01*
X68071428Y-27557380D01*
X68214285Y-27557380D01*
X67452380Y-27557380D02*
X67452380Y-26890714D01*
X67452380Y-27081190D02*
X67404761Y-26985952D01*
X67357142Y-26938333D01*
X67261904Y-26890714D01*
X67166666Y-26890714D01*
D11*
X70509523Y-48861904D02*
X70509523Y-48061904D01*
X70052380Y-48861904D01*
X70052380Y-48061904D01*
X69671428Y-48785714D02*
X69633333Y-48823809D01*
X69671428Y-48861904D01*
X69709523Y-48823809D01*
X69671428Y-48785714D01*
X69671428Y-48861904D01*
X68833333Y-48785714D02*
X68871428Y-48823809D01*
X68985714Y-48861904D01*
X69061904Y-48861904D01*
X69176190Y-48823809D01*
X69252380Y-48747619D01*
X69290476Y-48671428D01*
X69328571Y-48519047D01*
X69328571Y-48404761D01*
X69290476Y-48252380D01*
X69252380Y-48176190D01*
X69176190Y-48100000D01*
X69061904Y-48061904D01*
X68985714Y-48061904D01*
X68871428Y-48100000D01*
X68833333Y-48138095D01*
X68490476Y-48785714D02*
X68452380Y-48823809D01*
X68490476Y-48861904D01*
X68528571Y-48823809D01*
X68490476Y-48785714D01*
X68490476Y-48861904D01*
X76080952Y-39717904D02*
X76080952Y-38917904D01*
X75814285Y-39489333D01*
X75547619Y-38917904D01*
X75547619Y-39717904D01*
X74823809Y-39717904D02*
X74823809Y-39298857D01*
X74861904Y-39222666D01*
X74938095Y-39184571D01*
X75090476Y-39184571D01*
X75166666Y-39222666D01*
X74823809Y-39679809D02*
X74900000Y-39717904D01*
X75090476Y-39717904D01*
X75166666Y-39679809D01*
X75204761Y-39603619D01*
X75204761Y-39527428D01*
X75166666Y-39451238D01*
X75090476Y-39413142D01*
X74900000Y-39413142D01*
X74823809Y-39375047D01*
X74442857Y-39717904D02*
X74442857Y-39184571D01*
X74442857Y-38917904D02*
X74480952Y-38956000D01*
X74442857Y-38994095D01*
X74404761Y-38956000D01*
X74442857Y-38917904D01*
X74442857Y-38994095D01*
X74061904Y-39184571D02*
X74061904Y-39717904D01*
X74061904Y-39260761D02*
X74023809Y-39222666D01*
X73947619Y-39184571D01*
X73833333Y-39184571D01*
X73757142Y-39222666D01*
X73719047Y-39298857D01*
X73719047Y-39717904D01*
X75204761Y-40701142D02*
X74595238Y-40701142D01*
X74900000Y-41005904D02*
X74900000Y-40396380D01*
X97028571Y-41138095D02*
X96990476Y-41100000D01*
X96914285Y-41061904D01*
X96723809Y-41061904D01*
X96647619Y-41100000D01*
X96609523Y-41138095D01*
X96571428Y-41214285D01*
X96571428Y-41290476D01*
X96609523Y-41404761D01*
X97066666Y-41861904D01*
X96571428Y-41861904D01*
X95961904Y-41442857D02*
X95847619Y-41480952D01*
X95809523Y-41519047D01*
X95771428Y-41595238D01*
X95771428Y-41709523D01*
X95809523Y-41785714D01*
X95847619Y-41823809D01*
X95923809Y-41861904D01*
X96228571Y-41861904D01*
X96228571Y-41061904D01*
X95961904Y-41061904D01*
X95885714Y-41100000D01*
X95847619Y-41138095D01*
X95809523Y-41214285D01*
X95809523Y-41290476D01*
X95847619Y-41366666D01*
X95885714Y-41404761D01*
X95961904Y-41442857D01*
X96228571Y-41442857D01*
D12*
X105540882Y-33108916D02*
X106207548Y-33108916D01*
X106112310Y-33108916D02*
X106159929Y-33061297D01*
X106207548Y-32966059D01*
X106207548Y-32823202D01*
X106159929Y-32727964D01*
X106064691Y-32680345D01*
X105540882Y-32680345D01*
X106064691Y-32680345D02*
X106159929Y-32632726D01*
X106207548Y-32537488D01*
X106207548Y-32394630D01*
X106159929Y-32299392D01*
X106064691Y-32251773D01*
X105540882Y-32251773D01*
X105540882Y-31632726D02*
X105588501Y-31727964D01*
X105636120Y-31775583D01*
X105731358Y-31823202D01*
X106017072Y-31823202D01*
X106112310Y-31775583D01*
X106159929Y-31727964D01*
X106207548Y-31632726D01*
X106207548Y-31489869D01*
X106159929Y-31394630D01*
X106112310Y-31347011D01*
X106017072Y-31299392D01*
X105731358Y-31299392D01*
X105636120Y-31347011D01*
X105588501Y-31394630D01*
X105540882Y-31489869D01*
X105540882Y-31632726D01*
X105540882Y-30870821D02*
X106207548Y-30870821D01*
X106017072Y-30870821D02*
X106112310Y-30823202D01*
X106159929Y-30775583D01*
X106207548Y-30680345D01*
X106207548Y-30585107D01*
X105588501Y-29870821D02*
X105540882Y-29966059D01*
X105540882Y-30156535D01*
X105588501Y-30251773D01*
X105683739Y-30299392D01*
X106064691Y-30299392D01*
X106159929Y-30251773D01*
X106207548Y-30156535D01*
X106207548Y-29966059D01*
X106159929Y-29870821D01*
X106064691Y-29823202D01*
X105969453Y-29823202D01*
X105874215Y-30299392D01*
X105540882Y-28632726D02*
X106540882Y-28632726D01*
X106159929Y-28632726D02*
X106207548Y-28537488D01*
X106207548Y-28347011D01*
X106159929Y-28251773D01*
X106112310Y-28204154D01*
X106017072Y-28156535D01*
X105731358Y-28156535D01*
X105636120Y-28204154D01*
X105588501Y-28251773D01*
X105540882Y-28347011D01*
X105540882Y-28537488D01*
X105588501Y-28632726D01*
X105540882Y-27299392D02*
X106064691Y-27299392D01*
X106159929Y-27347011D01*
X106207548Y-27442250D01*
X106207548Y-27632726D01*
X106159929Y-27727964D01*
X105588501Y-27299392D02*
X105540882Y-27394630D01*
X105540882Y-27632726D01*
X105588501Y-27727964D01*
X105683739Y-27775583D01*
X105778977Y-27775583D01*
X105874215Y-27727964D01*
X105921834Y-27632726D01*
X105921834Y-27394630D01*
X105969453Y-27299392D01*
X105588501Y-26394630D02*
X105540882Y-26489869D01*
X105540882Y-26680345D01*
X105588501Y-26775583D01*
X105636120Y-26823202D01*
X105731358Y-26870821D01*
X106017072Y-26870821D01*
X106112310Y-26823202D01*
X106159929Y-26775583D01*
X106207548Y-26680345D01*
X106207548Y-26489869D01*
X106159929Y-26394630D01*
X105540882Y-25823202D02*
X105588501Y-25918440D01*
X105636120Y-25966059D01*
X105731358Y-26013678D01*
X106017072Y-26013678D01*
X106112310Y-25966059D01*
X106159929Y-25918440D01*
X106207548Y-25823202D01*
X106207548Y-25680345D01*
X106159929Y-25585107D01*
X106112310Y-25537488D01*
X106017072Y-25489869D01*
X105731358Y-25489869D01*
X105636120Y-25537488D01*
X105588501Y-25585107D01*
X105540882Y-25680345D01*
X105540882Y-25823202D01*
X106207548Y-25061297D02*
X105540882Y-25061297D01*
X106112310Y-25061297D02*
X106159929Y-25013678D01*
X106207548Y-24918440D01*
X106207548Y-24775583D01*
X106159929Y-24680345D01*
X106064691Y-24632726D01*
X105540882Y-24632726D01*
X105636120Y-24013678D02*
X105588501Y-23966059D01*
X105540882Y-24013678D01*
X105588501Y-24061297D01*
X105636120Y-24013678D01*
X105540882Y-24013678D01*
X106493263Y-24204154D02*
X106540882Y-24108916D01*
X106540882Y-23870821D01*
X106493263Y-23775583D01*
X106398024Y-23727964D01*
X106302786Y-23727964D01*
X106207548Y-23775583D01*
X106159929Y-23823202D01*
X106112310Y-23918440D01*
X106064691Y-23966059D01*
X105969453Y-24013678D01*
X105921834Y-24013678D01*
D11*
X105971428Y-39633333D02*
X105590476Y-39633333D01*
X106047619Y-39861904D02*
X105780952Y-39061904D01*
X105514285Y-39861904D01*
X104904761Y-39328571D02*
X104904761Y-39861904D01*
X105095238Y-39023809D02*
X105285714Y-39595238D01*
X104790476Y-39595238D01*
X94690476Y-43217904D02*
X94233333Y-43217904D01*
X94461904Y-44017904D02*
X94461904Y-43217904D01*
X93966666Y-44017904D02*
X93966666Y-43217904D01*
X93623809Y-44017904D02*
X93623809Y-43598857D01*
X93661904Y-43522666D01*
X93738095Y-43484571D01*
X93852380Y-43484571D01*
X93928571Y-43522666D01*
X93966666Y-43560761D01*
X94690476Y-45305904D02*
X94690476Y-44505904D01*
X94690476Y-44886857D02*
X94233333Y-44886857D01*
X94233333Y-45305904D02*
X94233333Y-44505904D01*
X93852380Y-44886857D02*
X93585714Y-44886857D01*
X93471428Y-45305904D02*
X93852380Y-45305904D01*
X93852380Y-44505904D01*
X93471428Y-44505904D01*
X80509523Y-48961904D02*
X80509523Y-48161904D01*
X80052380Y-48961904D01*
X80052380Y-48161904D01*
X79671428Y-48885714D02*
X79633333Y-48923809D01*
X79671428Y-48961904D01*
X79709523Y-48923809D01*
X79671428Y-48885714D01*
X79671428Y-48961904D01*
X78833333Y-48885714D02*
X78871428Y-48923809D01*
X78985714Y-48961904D01*
X79061904Y-48961904D01*
X79176190Y-48923809D01*
X79252380Y-48847619D01*
X79290476Y-48771428D01*
X79328571Y-48619047D01*
X79328571Y-48504761D01*
X79290476Y-48352380D01*
X79252380Y-48276190D01*
X79176190Y-48200000D01*
X79061904Y-48161904D01*
X78985714Y-48161904D01*
X78871428Y-48200000D01*
X78833333Y-48238095D01*
X78490476Y-48885714D02*
X78452380Y-48923809D01*
X78490476Y-48961904D01*
X78528571Y-48923809D01*
X78490476Y-48885714D01*
X78490476Y-48961904D01*
X84928571Y-40889333D02*
X84547619Y-40889333D01*
X85004761Y-41117904D02*
X84738095Y-40317904D01*
X84471428Y-41117904D01*
X84090476Y-41117904D02*
X84166666Y-41079809D01*
X84204761Y-41003619D01*
X84204761Y-40317904D01*
X83900000Y-40584571D02*
X83595238Y-40584571D01*
X83785714Y-40317904D02*
X83785714Y-41003619D01*
X83747619Y-41079809D01*
X83671428Y-41117904D01*
X83595238Y-41117904D01*
X84604761Y-42101142D02*
X83995238Y-42101142D01*
X84300000Y-42405904D02*
X84300000Y-41796380D01*
X83633333Y-48217904D02*
X83633333Y-47417904D01*
X83633333Y-47798857D02*
X83176190Y-47798857D01*
X83176190Y-48217904D02*
X83176190Y-47417904D01*
X82795238Y-47798857D02*
X82528571Y-47798857D01*
X82414285Y-48217904D02*
X82795238Y-48217904D01*
X82795238Y-47417904D01*
X82414285Y-47417904D01*
X81804761Y-47798857D02*
X82071428Y-47798857D01*
X82071428Y-48217904D02*
X82071428Y-47417904D01*
X81690476Y-47417904D01*
X83004761Y-49201142D02*
X82395238Y-49201142D01*
X96971428Y-43638095D02*
X96933333Y-43600000D01*
X96857142Y-43561904D01*
X96666666Y-43561904D01*
X96590476Y-43600000D01*
X96552380Y-43638095D01*
X96514285Y-43714285D01*
X96514285Y-43790476D01*
X96552380Y-43904761D01*
X97009523Y-44361904D01*
X96514285Y-44361904D01*
X96209523Y-44133333D02*
X95828571Y-44133333D01*
X96285714Y-44361904D02*
X96019047Y-43561904D01*
X95752380Y-44361904D01*
D12*
X74742857Y-24385714D02*
X74571428Y-24442857D01*
X74285714Y-24442857D01*
X74171428Y-24385714D01*
X74114285Y-24328571D01*
X74057142Y-24214285D01*
X74057142Y-24100000D01*
X74114285Y-23985714D01*
X74171428Y-23928571D01*
X74285714Y-23871428D01*
X74514285Y-23814285D01*
X74628571Y-23757142D01*
X74685714Y-23700000D01*
X74742857Y-23585714D01*
X74742857Y-23471428D01*
X74685714Y-23357142D01*
X74628571Y-23300000D01*
X74514285Y-23242857D01*
X74228571Y-23242857D01*
X74057142Y-23300000D01*
X73542857Y-24442857D02*
X73542857Y-23642857D01*
X73542857Y-23242857D02*
X73600000Y-23300000D01*
X73542857Y-23357142D01*
X73485714Y-23300000D01*
X73542857Y-23242857D01*
X73542857Y-23357142D01*
X72457142Y-24442857D02*
X72457142Y-23242857D01*
X72457142Y-24385714D02*
X72571428Y-24442857D01*
X72800000Y-24442857D01*
X72914285Y-24385714D01*
X72971428Y-24328571D01*
X73028571Y-24214285D01*
X73028571Y-23871428D01*
X72971428Y-23757142D01*
X72914285Y-23700000D01*
X72800000Y-23642857D01*
X72571428Y-23642857D01*
X72457142Y-23700000D01*
X71428571Y-24385714D02*
X71542857Y-24442857D01*
X71771428Y-24442857D01*
X71885714Y-24385714D01*
X71942857Y-24271428D01*
X71942857Y-23814285D01*
X71885714Y-23700000D01*
X71771428Y-23642857D01*
X71542857Y-23642857D01*
X71428571Y-23700000D01*
X71371428Y-23814285D01*
X71371428Y-23928571D01*
X71942857Y-24042857D01*
X69542857Y-23814285D02*
X69371428Y-23871428D01*
X69314285Y-23928571D01*
X69257142Y-24042857D01*
X69257142Y-24214285D01*
X69314285Y-24328571D01*
X69371428Y-24385714D01*
X69485714Y-24442857D01*
X69942857Y-24442857D01*
X69942857Y-23242857D01*
X69542857Y-23242857D01*
X69428571Y-23300000D01*
X69371428Y-23357142D01*
X69314285Y-23471428D01*
X69314285Y-23585714D01*
X69371428Y-23700000D01*
X69428571Y-23757142D01*
X69542857Y-23814285D01*
X69942857Y-23814285D01*
D11*
X105871428Y-46933333D02*
X105490476Y-46933333D01*
X105947619Y-47161904D02*
X105680952Y-46361904D01*
X105414285Y-47161904D01*
X104728571Y-47161904D02*
X105185714Y-47161904D01*
X104957142Y-47161904D02*
X104957142Y-46361904D01*
X105033333Y-46476190D01*
X105109523Y-46552380D01*
X105185714Y-46590476D01*
X108390476Y-53517904D02*
X107933333Y-53517904D01*
X108161904Y-54317904D02*
X108161904Y-53517904D01*
X107666666Y-54317904D02*
X107666666Y-53517904D01*
X107323809Y-54317904D02*
X107323809Y-53898857D01*
X107361904Y-53822666D01*
X107438095Y-53784571D01*
X107552380Y-53784571D01*
X107628571Y-53822666D01*
X107666666Y-53860761D01*
X108314285Y-54844000D02*
X108390476Y-54805904D01*
X108504761Y-54805904D01*
X108619047Y-54844000D01*
X108695238Y-54920190D01*
X108733333Y-54996380D01*
X108771428Y-55148761D01*
X108771428Y-55263047D01*
X108733333Y-55415428D01*
X108695238Y-55491619D01*
X108619047Y-55567809D01*
X108504761Y-55605904D01*
X108428571Y-55605904D01*
X108314285Y-55567809D01*
X108276190Y-55529714D01*
X108276190Y-55263047D01*
X108428571Y-55263047D01*
X107933333Y-55072571D02*
X107933333Y-55605904D01*
X107933333Y-55148761D02*
X107895238Y-55110666D01*
X107819047Y-55072571D01*
X107704761Y-55072571D01*
X107628571Y-55110666D01*
X107590476Y-55186857D01*
X107590476Y-55605904D01*
X106866666Y-55605904D02*
X106866666Y-54805904D01*
X106866666Y-55567809D02*
X106942857Y-55605904D01*
X107095238Y-55605904D01*
X107171428Y-55567809D01*
X107209523Y-55529714D01*
X107247619Y-55453523D01*
X107247619Y-55224952D01*
X107209523Y-55148761D01*
X107171428Y-55110666D01*
X107095238Y-55072571D01*
X106942857Y-55072571D01*
X106866666Y-55110666D01*
D10*
X103050000Y-53150000D02*
X103050000Y-56050000D01*
X103050000Y-56050000D02*
X105950000Y-56050000D01*
X105950000Y-53150000D02*
X103050000Y-53150000D01*
X105950000Y-56050000D02*
X105950000Y-53150000D01*
G36*
X91223264Y-25968212D02*
G01*
X91071286Y-26122102D01*
X90936865Y-25978179D01*
X90932714Y-25973730D01*
X90866927Y-25901924D01*
X90820211Y-25848564D01*
X90802445Y-25824913D01*
X90815645Y-25822085D01*
X90874400Y-25818579D01*
X90969420Y-25816062D01*
X91088843Y-25814946D01*
X91375242Y-25814323D01*
X91223264Y-25968212D01*
G37*
D13*
X91223264Y-25968212D02*
X91071286Y-26122102D01*
X90936865Y-25978179D01*
X90932714Y-25973730D01*
X90866927Y-25901924D01*
X90820211Y-25848564D01*
X90802445Y-25824913D01*
X90815645Y-25822085D01*
X90874400Y-25818579D01*
X90969420Y-25816062D01*
X91088843Y-25814946D01*
X91375242Y-25814323D01*
X91223264Y-25968212D01*
G36*
X89226516Y-25823176D02*
G01*
X89270860Y-25847643D01*
X89327254Y-25893995D01*
X89404711Y-25968507D01*
X89512247Y-26077458D01*
X89534822Y-26100409D01*
X89632144Y-26196865D01*
X89714964Y-26275074D01*
X89775116Y-26327514D01*
X89804439Y-26346666D01*
X89806973Y-26346435D01*
X89846692Y-26324004D01*
X89899334Y-26276111D01*
X89905288Y-26269866D01*
X89955284Y-26224244D01*
X89987927Y-26205555D01*
X89988227Y-26205583D01*
X90015426Y-26226202D01*
X90075144Y-26280868D01*
X90160868Y-26363322D01*
X90266088Y-26467304D01*
X90384290Y-26586555D01*
X90758343Y-26967555D01*
X90940853Y-26967555D01*
X90982363Y-26967918D01*
X91077137Y-26974775D01*
X91140077Y-26993822D01*
X91189421Y-27029614D01*
X91255480Y-27091673D01*
X91469834Y-26881447D01*
X91526432Y-26825656D01*
X91631629Y-26720698D01*
X91727017Y-26624078D01*
X91797244Y-26551277D01*
X91828749Y-26518153D01*
X91882620Y-26468467D01*
X91933120Y-26442636D01*
X92000189Y-26432858D01*
X92103763Y-26431333D01*
X92297225Y-26431333D01*
X92594184Y-26130753D01*
X92693820Y-26030783D01*
X92786271Y-25941792D01*
X92855207Y-25882424D01*
X92908926Y-25846363D01*
X92955726Y-25827293D01*
X93003905Y-25818898D01*
X93029747Y-25816906D01*
X93091834Y-25818446D01*
X93116667Y-25829821D01*
X93116664Y-25829919D01*
X93097154Y-25856440D01*
X93043818Y-25915952D01*
X92962881Y-26001847D01*
X92860571Y-26107514D01*
X92743115Y-26226343D01*
X92369562Y-26600666D01*
X91985342Y-26600666D01*
X91626727Y-26953412D01*
X91522399Y-27055364D01*
X91418286Y-27155606D01*
X91334077Y-27235040D01*
X91276485Y-27287343D01*
X91252225Y-27306190D01*
X91246233Y-27303831D01*
X91209164Y-27274226D01*
X91155222Y-27221555D01*
X91108628Y-27177655D01*
X91059649Y-27150902D01*
X90992979Y-27139366D01*
X90889279Y-27136888D01*
X90704452Y-27136888D01*
X90347156Y-26780386D01*
X89989861Y-26423883D01*
X89903541Y-26519330D01*
X89817222Y-26614777D01*
X89021774Y-25821637D01*
X89135220Y-25814943D01*
X89137916Y-25814786D01*
X89185206Y-25814316D01*
X89226516Y-25823176D01*
G37*
X89226516Y-25823176D02*
X89270860Y-25847643D01*
X89327254Y-25893995D01*
X89404711Y-25968507D01*
X89512247Y-26077458D01*
X89534822Y-26100409D01*
X89632144Y-26196865D01*
X89714964Y-26275074D01*
X89775116Y-26327514D01*
X89804439Y-26346666D01*
X89806973Y-26346435D01*
X89846692Y-26324004D01*
X89899334Y-26276111D01*
X89905288Y-26269866D01*
X89955284Y-26224244D01*
X89987927Y-26205555D01*
X89988227Y-26205583D01*
X90015426Y-26226202D01*
X90075144Y-26280868D01*
X90160868Y-26363322D01*
X90266088Y-26467304D01*
X90384290Y-26586555D01*
X90758343Y-26967555D01*
X90940853Y-26967555D01*
X90982363Y-26967918D01*
X91077137Y-26974775D01*
X91140077Y-26993822D01*
X91189421Y-27029614D01*
X91255480Y-27091673D01*
X91469834Y-26881447D01*
X91526432Y-26825656D01*
X91631629Y-26720698D01*
X91727017Y-26624078D01*
X91797244Y-26551277D01*
X91828749Y-26518153D01*
X91882620Y-26468467D01*
X91933120Y-26442636D01*
X92000189Y-26432858D01*
X92103763Y-26431333D01*
X92297225Y-26431333D01*
X92594184Y-26130753D01*
X92693820Y-26030783D01*
X92786271Y-25941792D01*
X92855207Y-25882424D01*
X92908926Y-25846363D01*
X92955726Y-25827293D01*
X93003905Y-25818898D01*
X93029747Y-25816906D01*
X93091834Y-25818446D01*
X93116667Y-25829821D01*
X93116664Y-25829919D01*
X93097154Y-25856440D01*
X93043818Y-25915952D01*
X92962881Y-26001847D01*
X92860571Y-26107514D01*
X92743115Y-26226343D01*
X92369562Y-26600666D01*
X91985342Y-26600666D01*
X91626727Y-26953412D01*
X91522399Y-27055364D01*
X91418286Y-27155606D01*
X91334077Y-27235040D01*
X91276485Y-27287343D01*
X91252225Y-27306190D01*
X91246233Y-27303831D01*
X91209164Y-27274226D01*
X91155222Y-27221555D01*
X91108628Y-27177655D01*
X91059649Y-27150902D01*
X90992979Y-27139366D01*
X90889279Y-27136888D01*
X90704452Y-27136888D01*
X90347156Y-26780386D01*
X89989861Y-26423883D01*
X89903541Y-26519330D01*
X89817222Y-26614777D01*
X89021774Y-25821637D01*
X89135220Y-25814943D01*
X89137916Y-25814786D01*
X89185206Y-25814316D01*
X89226516Y-25823176D01*
G36*
X89728978Y-25076666D02*
G01*
X89654478Y-25079481D01*
X89586487Y-25089763D01*
X89560667Y-25105303D01*
X89559292Y-25111099D01*
X89528182Y-25147355D01*
X89468945Y-25191065D01*
X89459506Y-25196734D01*
X89347057Y-25233802D01*
X89239147Y-25216382D01*
X89144389Y-25145678D01*
X89096731Y-25072337D01*
X89077319Y-24976383D01*
X89079030Y-24969229D01*
X89256065Y-24969229D01*
X89270812Y-25021146D01*
X89311061Y-25054604D01*
X89358833Y-25051097D01*
X89367694Y-25044364D01*
X89387575Y-24996370D01*
X89372129Y-24943540D01*
X89327424Y-24912627D01*
X89298971Y-24914634D01*
X89260389Y-24949769D01*
X89256065Y-24969229D01*
X89079030Y-24969229D01*
X89098557Y-24887604D01*
X89151703Y-24813752D01*
X89228017Y-24762579D01*
X89318760Y-24741839D01*
X89415189Y-24759284D01*
X89508564Y-24822666D01*
X89524251Y-24837369D01*
X89597213Y-24887440D01*
X89661616Y-24907333D01*
X89676512Y-24907151D01*
X89702426Y-24901806D01*
X89718235Y-24881235D01*
X89726436Y-24835131D01*
X89729525Y-24753191D01*
X89730000Y-24625111D01*
X89730000Y-24342888D01*
X90592102Y-24342888D01*
X90814100Y-24119581D01*
X90869238Y-24063509D01*
X90950563Y-23975997D01*
X90998788Y-23913881D01*
X91019810Y-23868929D01*
X91019528Y-23832912D01*
X91013895Y-23795839D01*
X91015861Y-23785211D01*
X91202649Y-23785211D01*
X91210594Y-23811863D01*
X91247301Y-23850739D01*
X91293183Y-23857060D01*
X91327142Y-23824215D01*
X91334353Y-23792203D01*
X91313665Y-23741264D01*
X91250372Y-23722000D01*
X91208219Y-23735483D01*
X91202649Y-23785211D01*
X91015861Y-23785211D01*
X91032300Y-23696338D01*
X91090141Y-23609552D01*
X91176406Y-23554989D01*
X91184550Y-23552425D01*
X91264919Y-23537611D01*
X91327304Y-23541993D01*
X91425359Y-23599140D01*
X91486448Y-23681290D01*
X91509848Y-23775546D01*
X91507617Y-23792203D01*
X91497220Y-23869850D01*
X91450225Y-23952140D01*
X91370523Y-24010358D01*
X91259774Y-24032444D01*
X91239893Y-24032821D01*
X91192274Y-24039644D01*
X91144991Y-24060230D01*
X91088142Y-24101274D01*
X91011824Y-24169469D01*
X90906134Y-24271511D01*
X90662175Y-24510578D01*
X90287810Y-24518455D01*
X89913445Y-24526333D01*
X89905367Y-24801500D01*
X89899646Y-24996370D01*
X89897290Y-25076666D01*
X89728978Y-25076666D01*
G37*
X89728978Y-25076666D02*
X89654478Y-25079481D01*
X89586487Y-25089763D01*
X89560667Y-25105303D01*
X89559292Y-25111099D01*
X89528182Y-25147355D01*
X89468945Y-25191065D01*
X89459506Y-25196734D01*
X89347057Y-25233802D01*
X89239147Y-25216382D01*
X89144389Y-25145678D01*
X89096731Y-25072337D01*
X89077319Y-24976383D01*
X89079030Y-24969229D01*
X89256065Y-24969229D01*
X89270812Y-25021146D01*
X89311061Y-25054604D01*
X89358833Y-25051097D01*
X89367694Y-25044364D01*
X89387575Y-24996370D01*
X89372129Y-24943540D01*
X89327424Y-24912627D01*
X89298971Y-24914634D01*
X89260389Y-24949769D01*
X89256065Y-24969229D01*
X89079030Y-24969229D01*
X89098557Y-24887604D01*
X89151703Y-24813752D01*
X89228017Y-24762579D01*
X89318760Y-24741839D01*
X89415189Y-24759284D01*
X89508564Y-24822666D01*
X89524251Y-24837369D01*
X89597213Y-24887440D01*
X89661616Y-24907333D01*
X89676512Y-24907151D01*
X89702426Y-24901806D01*
X89718235Y-24881235D01*
X89726436Y-24835131D01*
X89729525Y-24753191D01*
X89730000Y-24625111D01*
X89730000Y-24342888D01*
X90592102Y-24342888D01*
X90814100Y-24119581D01*
X90869238Y-24063509D01*
X90950563Y-23975997D01*
X90998788Y-23913881D01*
X91019810Y-23868929D01*
X91019528Y-23832912D01*
X91013895Y-23795839D01*
X91015861Y-23785211D01*
X91202649Y-23785211D01*
X91210594Y-23811863D01*
X91247301Y-23850739D01*
X91293183Y-23857060D01*
X91327142Y-23824215D01*
X91334353Y-23792203D01*
X91313665Y-23741264D01*
X91250372Y-23722000D01*
X91208219Y-23735483D01*
X91202649Y-23785211D01*
X91015861Y-23785211D01*
X91032300Y-23696338D01*
X91090141Y-23609552D01*
X91176406Y-23554989D01*
X91184550Y-23552425D01*
X91264919Y-23537611D01*
X91327304Y-23541993D01*
X91425359Y-23599140D01*
X91486448Y-23681290D01*
X91509848Y-23775546D01*
X91507617Y-23792203D01*
X91497220Y-23869850D01*
X91450225Y-23952140D01*
X91370523Y-24010358D01*
X91259774Y-24032444D01*
X91239893Y-24032821D01*
X91192274Y-24039644D01*
X91144991Y-24060230D01*
X91088142Y-24101274D01*
X91011824Y-24169469D01*
X90906134Y-24271511D01*
X90662175Y-24510578D01*
X90287810Y-24518455D01*
X89913445Y-24526333D01*
X89905367Y-24801500D01*
X89899646Y-24996370D01*
X89897290Y-25076666D01*
X89728978Y-25076666D01*
G36*
X91300250Y-25577739D02*
G01*
X88322974Y-25584923D01*
X88238436Y-25669461D01*
X88184442Y-25713167D01*
X88082148Y-25753174D01*
X87981378Y-25746088D01*
X87895563Y-25691061D01*
X87877434Y-25670092D01*
X87822541Y-25564726D01*
X87821230Y-25514497D01*
X87994334Y-25514497D01*
X88004762Y-25551585D01*
X88057960Y-25579590D01*
X88072703Y-25580484D01*
X88124500Y-25560293D01*
X88147127Y-25515864D01*
X88128079Y-25467234D01*
X88121392Y-25461302D01*
X88067428Y-25445405D01*
X88016763Y-25466074D01*
X87994334Y-25514497D01*
X87821230Y-25514497D01*
X87819797Y-25459558D01*
X87867421Y-25365037D01*
X87963634Y-25291611D01*
X87987856Y-25279790D01*
X88051279Y-25255393D01*
X88101754Y-25257296D01*
X88167577Y-25284514D01*
X88181106Y-25291298D01*
X88245697Y-25333594D01*
X88280445Y-25372958D01*
X88280532Y-25373174D01*
X88288510Y-25380174D01*
X88308352Y-25386367D01*
X88343242Y-25391800D01*
X88396363Y-25396522D01*
X88470901Y-25400581D01*
X88570040Y-25404023D01*
X88696964Y-25406897D01*
X88854857Y-25409251D01*
X89046905Y-25411132D01*
X89276290Y-25412588D01*
X89546198Y-25413667D01*
X89859813Y-25414416D01*
X90220319Y-25414884D01*
X90630900Y-25415118D01*
X91094742Y-25415165D01*
X93892778Y-25414998D01*
X93242423Y-24766054D01*
X92592069Y-24117111D01*
X92200050Y-24117111D01*
X91727578Y-23645252D01*
X91255107Y-23173394D01*
X91067325Y-23363030D01*
X90879544Y-23552666D01*
X90507172Y-23552666D01*
X90246151Y-23812602D01*
X89985130Y-24072537D01*
X89894864Y-23980211D01*
X89804597Y-23887884D01*
X89317440Y-24374444D01*
X89268399Y-24423443D01*
X89127479Y-24564815D01*
X89020618Y-24673892D01*
X88943173Y-24756422D01*
X88890502Y-24818151D01*
X88857963Y-24864825D01*
X88840912Y-24902191D01*
X88834708Y-24935995D01*
X88834709Y-24971984D01*
X88834009Y-24990168D01*
X88832064Y-25040735D01*
X88806430Y-25102651D01*
X88744755Y-25167291D01*
X88690756Y-25210892D01*
X88630194Y-25237587D01*
X88563600Y-25234264D01*
X88513576Y-25220104D01*
X88421844Y-25163075D01*
X88366322Y-25082411D01*
X88346124Y-24989923D01*
X88347444Y-24981352D01*
X88522008Y-24981352D01*
X88528791Y-25029160D01*
X88569320Y-25061118D01*
X88627614Y-25049507D01*
X88641179Y-25037977D01*
X88655080Y-24990168D01*
X88634181Y-24942858D01*
X88586614Y-24921444D01*
X88551099Y-24930879D01*
X88522008Y-24981352D01*
X88347444Y-24981352D01*
X88360365Y-24897426D01*
X88408156Y-24816731D01*
X88488612Y-24759651D01*
X88600846Y-24738000D01*
X88613637Y-24737758D01*
X88646665Y-24733336D01*
X88682148Y-24719907D01*
X88725416Y-24693037D01*
X88781799Y-24648287D01*
X88856626Y-24581223D01*
X88955228Y-24487407D01*
X89082934Y-24362404D01*
X89245074Y-24201777D01*
X89247737Y-24199132D01*
X89391092Y-24057622D01*
X89521766Y-23930256D01*
X89634326Y-23822199D01*
X89723338Y-23738619D01*
X89783369Y-23684682D01*
X89808985Y-23665555D01*
X89811312Y-23665818D01*
X89848075Y-23688351D01*
X89899334Y-23736111D01*
X89905254Y-23742319D01*
X89955411Y-23787965D01*
X89988365Y-23806666D01*
X90006093Y-23795909D01*
X90057284Y-23752076D01*
X90131452Y-23682289D01*
X90219374Y-23595000D01*
X90427635Y-23383333D01*
X90804052Y-23383333D01*
X91033387Y-23155839D01*
X91262723Y-22928345D01*
X91773417Y-23434833D01*
X92284111Y-23941322D01*
X92458865Y-23928944D01*
X92633618Y-23916566D01*
X93455572Y-24743560D01*
X94223168Y-25515864D01*
X94277525Y-25570555D01*
X91300250Y-25577739D01*
G37*
X91300250Y-25577739D02*
X88322974Y-25584923D01*
X88238436Y-25669461D01*
X88184442Y-25713167D01*
X88082148Y-25753174D01*
X87981378Y-25746088D01*
X87895563Y-25691061D01*
X87877434Y-25670092D01*
X87822541Y-25564726D01*
X87821230Y-25514497D01*
X87994334Y-25514497D01*
X88004762Y-25551585D01*
X88057960Y-25579590D01*
X88072703Y-25580484D01*
X88124500Y-25560293D01*
X88147127Y-25515864D01*
X88128079Y-25467234D01*
X88121392Y-25461302D01*
X88067428Y-25445405D01*
X88016763Y-25466074D01*
X87994334Y-25514497D01*
X87821230Y-25514497D01*
X87819797Y-25459558D01*
X87867421Y-25365037D01*
X87963634Y-25291611D01*
X87987856Y-25279790D01*
X88051279Y-25255393D01*
X88101754Y-25257296D01*
X88167577Y-25284514D01*
X88181106Y-25291298D01*
X88245697Y-25333594D01*
X88280445Y-25372958D01*
X88280532Y-25373174D01*
X88288510Y-25380174D01*
X88308352Y-25386367D01*
X88343242Y-25391800D01*
X88396363Y-25396522D01*
X88470901Y-25400581D01*
X88570040Y-25404023D01*
X88696964Y-25406897D01*
X88854857Y-25409251D01*
X89046905Y-25411132D01*
X89276290Y-25412588D01*
X89546198Y-25413667D01*
X89859813Y-25414416D01*
X90220319Y-25414884D01*
X90630900Y-25415118D01*
X91094742Y-25415165D01*
X93892778Y-25414998D01*
X93242423Y-24766054D01*
X92592069Y-24117111D01*
X92200050Y-24117111D01*
X91727578Y-23645252D01*
X91255107Y-23173394D01*
X91067325Y-23363030D01*
X90879544Y-23552666D01*
X90507172Y-23552666D01*
X90246151Y-23812602D01*
X89985130Y-24072537D01*
X89894864Y-23980211D01*
X89804597Y-23887884D01*
X89317440Y-24374444D01*
X89268399Y-24423443D01*
X89127479Y-24564815D01*
X89020618Y-24673892D01*
X88943173Y-24756422D01*
X88890502Y-24818151D01*
X88857963Y-24864825D01*
X88840912Y-24902191D01*
X88834708Y-24935995D01*
X88834709Y-24971984D01*
X88834009Y-24990168D01*
X88832064Y-25040735D01*
X88806430Y-25102651D01*
X88744755Y-25167291D01*
X88690756Y-25210892D01*
X88630194Y-25237587D01*
X88563600Y-25234264D01*
X88513576Y-25220104D01*
X88421844Y-25163075D01*
X88366322Y-25082411D01*
X88346124Y-24989923D01*
X88347444Y-24981352D01*
X88522008Y-24981352D01*
X88528791Y-25029160D01*
X88569320Y-25061118D01*
X88627614Y-25049507D01*
X88641179Y-25037977D01*
X88655080Y-24990168D01*
X88634181Y-24942858D01*
X88586614Y-24921444D01*
X88551099Y-24930879D01*
X88522008Y-24981352D01*
X88347444Y-24981352D01*
X88360365Y-24897426D01*
X88408156Y-24816731D01*
X88488612Y-24759651D01*
X88600846Y-24738000D01*
X88613637Y-24737758D01*
X88646665Y-24733336D01*
X88682148Y-24719907D01*
X88725416Y-24693037D01*
X88781799Y-24648287D01*
X88856626Y-24581223D01*
X88955228Y-24487407D01*
X89082934Y-24362404D01*
X89245074Y-24201777D01*
X89247737Y-24199132D01*
X89391092Y-24057622D01*
X89521766Y-23930256D01*
X89634326Y-23822199D01*
X89723338Y-23738619D01*
X89783369Y-23684682D01*
X89808985Y-23665555D01*
X89811312Y-23665818D01*
X89848075Y-23688351D01*
X89899334Y-23736111D01*
X89905254Y-23742319D01*
X89955411Y-23787965D01*
X89988365Y-23806666D01*
X90006093Y-23795909D01*
X90057284Y-23752076D01*
X90131452Y-23682289D01*
X90219374Y-23595000D01*
X90427635Y-23383333D01*
X90804052Y-23383333D01*
X91033387Y-23155839D01*
X91262723Y-22928345D01*
X91773417Y-23434833D01*
X92284111Y-23941322D01*
X92458865Y-23928944D01*
X92633618Y-23916566D01*
X93455572Y-24743560D01*
X94223168Y-25515864D01*
X94277525Y-25570555D01*
X91300250Y-25577739D01*
G36*
X92290787Y-25155889D02*
G01*
X92203481Y-25218015D01*
X92160602Y-25232457D01*
X92100667Y-25244105D01*
X92082338Y-25242094D01*
X92021372Y-25219212D01*
X91953234Y-25180646D01*
X91897786Y-25138607D01*
X91874889Y-25105303D01*
X91854410Y-25096302D01*
X91779825Y-25087849D01*
X91652559Y-25081697D01*
X91474617Y-25077939D01*
X91248005Y-25076666D01*
X90621121Y-25076666D01*
X90559747Y-25153636D01*
X90482681Y-25213930D01*
X90382064Y-25236161D01*
X90279466Y-25215513D01*
X90192672Y-25152062D01*
X90146289Y-25080673D01*
X90124200Y-24981905D01*
X90124950Y-24978317D01*
X90301530Y-24978317D01*
X90322965Y-25034692D01*
X90346414Y-25058556D01*
X90392296Y-25073404D01*
X90425350Y-25034333D01*
X90432836Y-24986399D01*
X90432785Y-24986260D01*
X92030326Y-24986260D01*
X92030416Y-24986399D01*
X92059375Y-25031343D01*
X92097455Y-25066816D01*
X92123786Y-25069754D01*
X92156813Y-25034692D01*
X92177925Y-24979743D01*
X92163135Y-24929350D01*
X92119119Y-24907333D01*
X92095209Y-24912494D01*
X92046704Y-24946676D01*
X92030326Y-24986260D01*
X90432785Y-24986260D01*
X90412228Y-24930728D01*
X90365000Y-24907333D01*
X90318498Y-24928293D01*
X90301530Y-24978317D01*
X90124950Y-24978317D01*
X90143283Y-24890554D01*
X90194868Y-24814552D01*
X90270281Y-24761830D01*
X90360853Y-24740321D01*
X90457912Y-24757956D01*
X90552787Y-24822666D01*
X90637453Y-24907333D01*
X91842325Y-24907333D01*
X91926992Y-24822666D01*
X91973961Y-24782984D01*
X92078196Y-24738927D01*
X92182985Y-24748656D01*
X92280263Y-24812404D01*
X92317304Y-24859938D01*
X92350726Y-24960861D01*
X92348937Y-24979743D01*
X92340878Y-25064841D01*
X92290787Y-25155889D01*
G37*
X92290787Y-25155889D02*
X92203481Y-25218015D01*
X92160602Y-25232457D01*
X92100667Y-25244105D01*
X92082338Y-25242094D01*
X92021372Y-25219212D01*
X91953234Y-25180646D01*
X91897786Y-25138607D01*
X91874889Y-25105303D01*
X91854410Y-25096302D01*
X91779825Y-25087849D01*
X91652559Y-25081697D01*
X91474617Y-25077939D01*
X91248005Y-25076666D01*
X90621121Y-25076666D01*
X90559747Y-25153636D01*
X90482681Y-25213930D01*
X90382064Y-25236161D01*
X90279466Y-25215513D01*
X90192672Y-25152062D01*
X90146289Y-25080673D01*
X90124200Y-24981905D01*
X90124950Y-24978317D01*
X90301530Y-24978317D01*
X90322965Y-25034692D01*
X90346414Y-25058556D01*
X90392296Y-25073404D01*
X90425350Y-25034333D01*
X90432836Y-24986399D01*
X90432785Y-24986260D01*
X92030326Y-24986260D01*
X92030416Y-24986399D01*
X92059375Y-25031343D01*
X92097455Y-25066816D01*
X92123786Y-25069754D01*
X92156813Y-25034692D01*
X92177925Y-24979743D01*
X92163135Y-24929350D01*
X92119119Y-24907333D01*
X92095209Y-24912494D01*
X92046704Y-24946676D01*
X92030326Y-24986260D01*
X90432785Y-24986260D01*
X90412228Y-24930728D01*
X90365000Y-24907333D01*
X90318498Y-24928293D01*
X90301530Y-24978317D01*
X90124950Y-24978317D01*
X90143283Y-24890554D01*
X90194868Y-24814552D01*
X90270281Y-24761830D01*
X90360853Y-24740321D01*
X90457912Y-24757956D01*
X90552787Y-24822666D01*
X90637453Y-24907333D01*
X91842325Y-24907333D01*
X91926992Y-24822666D01*
X91973961Y-24782984D01*
X92078196Y-24738927D01*
X92182985Y-24748656D01*
X92280263Y-24812404D01*
X92317304Y-24859938D01*
X92350726Y-24960861D01*
X92348937Y-24979743D01*
X92340878Y-25064841D01*
X92290787Y-25155889D01*
G36*
X93498742Y-25815512D02*
G01*
X93608120Y-25824555D01*
X93059004Y-26367282D01*
X92509889Y-26910009D01*
X92142317Y-26911111D01*
X91705793Y-27348318D01*
X91269268Y-27785525D01*
X90956030Y-27475555D01*
X90589719Y-27475555D01*
X90308556Y-27193333D01*
X90272635Y-27157527D01*
X90172672Y-27060604D01*
X90087980Y-26982389D01*
X90026584Y-26930140D01*
X89996505Y-26911111D01*
X89993659Y-26911364D01*
X89952305Y-26934033D01*
X89898824Y-26982208D01*
X89891574Y-26989758D01*
X89842562Y-27032383D01*
X89811537Y-27045708D01*
X89805954Y-27041536D01*
X89766300Y-27005506D01*
X89693687Y-26936691D01*
X89593180Y-26839979D01*
X89469843Y-26720257D01*
X89328740Y-26582413D01*
X89174935Y-26431333D01*
X88558827Y-25824555D01*
X88669422Y-25815511D01*
X88694030Y-25813907D01*
X88726249Y-25815640D01*
X88759765Y-25826135D01*
X88800088Y-25849847D01*
X88852729Y-25891232D01*
X88923202Y-25954744D01*
X89017016Y-26044839D01*
X89139683Y-26165972D01*
X89296715Y-26322599D01*
X89813414Y-26838731D01*
X89907217Y-26747813D01*
X90001021Y-26656895D01*
X90321342Y-26981558D01*
X90641662Y-27306222D01*
X90829066Y-27306222D01*
X90873678Y-27306343D01*
X90959580Y-27310575D01*
X91018609Y-27327393D01*
X91072135Y-27365511D01*
X91141526Y-27433644D01*
X91266582Y-27561067D01*
X91676569Y-27153623D01*
X92086556Y-26746180D01*
X92269134Y-26744541D01*
X92451712Y-26742903D01*
X92920538Y-26274686D01*
X92957439Y-26237840D01*
X93098107Y-26097864D01*
X93206148Y-25992143D01*
X93287447Y-25916005D01*
X93347887Y-25864778D01*
X93393352Y-25833787D01*
X93429727Y-25818361D01*
X93462895Y-25813827D01*
X93498742Y-25815512D01*
G37*
X93498742Y-25815512D02*
X93608120Y-25824555D01*
X93059004Y-26367282D01*
X92509889Y-26910009D01*
X92142317Y-26911111D01*
X91705793Y-27348318D01*
X91269268Y-27785525D01*
X90956030Y-27475555D01*
X90589719Y-27475555D01*
X90308556Y-27193333D01*
X90272635Y-27157527D01*
X90172672Y-27060604D01*
X90087980Y-26982389D01*
X90026584Y-26930140D01*
X89996505Y-26911111D01*
X89993659Y-26911364D01*
X89952305Y-26934033D01*
X89898824Y-26982208D01*
X89891574Y-26989758D01*
X89842562Y-27032383D01*
X89811537Y-27045708D01*
X89805954Y-27041536D01*
X89766300Y-27005506D01*
X89693687Y-26936691D01*
X89593180Y-26839979D01*
X89469843Y-26720257D01*
X89328740Y-26582413D01*
X89174935Y-26431333D01*
X88558827Y-25824555D01*
X88669422Y-25815511D01*
X88694030Y-25813907D01*
X88726249Y-25815640D01*
X88759765Y-25826135D01*
X88800088Y-25849847D01*
X88852729Y-25891232D01*
X88923202Y-25954744D01*
X89017016Y-26044839D01*
X89139683Y-26165972D01*
X89296715Y-26322599D01*
X89813414Y-26838731D01*
X89907217Y-26747813D01*
X90001021Y-26656895D01*
X90321342Y-26981558D01*
X90641662Y-27306222D01*
X90829066Y-27306222D01*
X90873678Y-27306343D01*
X90959580Y-27310575D01*
X91018609Y-27327393D01*
X91072135Y-27365511D01*
X91141526Y-27433644D01*
X91266582Y-27561067D01*
X91676569Y-27153623D01*
X92086556Y-26746180D01*
X92269134Y-26744541D01*
X92451712Y-26742903D01*
X92920538Y-26274686D01*
X92957439Y-26237840D01*
X93098107Y-26097864D01*
X93206148Y-25992143D01*
X93287447Y-25916005D01*
X93347887Y-25864778D01*
X93393352Y-25833787D01*
X93429727Y-25818361D01*
X93462895Y-25813827D01*
X93498742Y-25815512D01*
G36*
X93962156Y-25810618D02*
G01*
X94023174Y-25817530D01*
X94048000Y-25831403D01*
X94033592Y-25850052D01*
X93983445Y-25904774D01*
X93901714Y-25990576D01*
X93792939Y-26102783D01*
X93661655Y-26236718D01*
X93512400Y-26387706D01*
X93349712Y-26551070D01*
X92651424Y-27249777D01*
X92453656Y-27250070D01*
X92255889Y-27250363D01*
X91762000Y-27743935D01*
X91655711Y-27849939D01*
X91529600Y-27975102D01*
X91421366Y-28081829D01*
X91336500Y-28164734D01*
X91280493Y-28218431D01*
X91258836Y-28237531D01*
X91239790Y-28222031D01*
X91188202Y-28174033D01*
X91112605Y-28101304D01*
X91021344Y-28011777D01*
X90793127Y-27786000D01*
X90422693Y-27786000D01*
X90204891Y-27569474D01*
X89987088Y-27352949D01*
X89895182Y-27442805D01*
X89803276Y-27532660D01*
X89020238Y-26751186D01*
X88899412Y-26630486D01*
X88722789Y-26453318D01*
X88581095Y-26309796D01*
X88470972Y-26196183D01*
X88389060Y-26108741D01*
X88332000Y-26043734D01*
X88296433Y-25997425D01*
X88279000Y-25966075D01*
X88276342Y-25945949D01*
X88285100Y-25933309D01*
X88317710Y-25912500D01*
X88363622Y-25896008D01*
X88385026Y-25910983D01*
X88442469Y-25961851D01*
X88530650Y-26044377D01*
X88644849Y-26154025D01*
X88780349Y-26286261D01*
X88932432Y-26436549D01*
X89096379Y-26600354D01*
X89798513Y-27305597D01*
X89984979Y-27124867D01*
X90246076Y-27384878D01*
X90507172Y-27644888D01*
X90874631Y-27644888D01*
X91056445Y-27828333D01*
X91098178Y-27869962D01*
X91173819Y-27942736D01*
X91229838Y-27993014D01*
X91256407Y-28011777D01*
X91266149Y-28005042D01*
X91310805Y-27964820D01*
X91385837Y-27893206D01*
X91485474Y-27795811D01*
X91603945Y-27678242D01*
X91735480Y-27546111D01*
X92196404Y-27080444D01*
X92594556Y-27080400D01*
X93222759Y-26445422D01*
X93389000Y-26277728D01*
X93532086Y-26134615D01*
X93644892Y-26023929D01*
X93732125Y-25941558D01*
X93798494Y-25883387D01*
X93848706Y-25845304D01*
X93887469Y-25823195D01*
X93919492Y-25812946D01*
X93949481Y-25810444D01*
X93962156Y-25810618D01*
G37*
X93962156Y-25810618D02*
X94023174Y-25817530D01*
X94048000Y-25831403D01*
X94033592Y-25850052D01*
X93983445Y-25904774D01*
X93901714Y-25990576D01*
X93792939Y-26102783D01*
X93661655Y-26236718D01*
X93512400Y-26387706D01*
X93349712Y-26551070D01*
X92651424Y-27249777D01*
X92453656Y-27250070D01*
X92255889Y-27250363D01*
X91762000Y-27743935D01*
X91655711Y-27849939D01*
X91529600Y-27975102D01*
X91421366Y-28081829D01*
X91336500Y-28164734D01*
X91280493Y-28218431D01*
X91258836Y-28237531D01*
X91239790Y-28222031D01*
X91188202Y-28174033D01*
X91112605Y-28101304D01*
X91021344Y-28011777D01*
X90793127Y-27786000D01*
X90422693Y-27786000D01*
X90204891Y-27569474D01*
X89987088Y-27352949D01*
X89895182Y-27442805D01*
X89803276Y-27532660D01*
X89020238Y-26751186D01*
X88899412Y-26630486D01*
X88722789Y-26453318D01*
X88581095Y-26309796D01*
X88470972Y-26196183D01*
X88389060Y-26108741D01*
X88332000Y-26043734D01*
X88296433Y-25997425D01*
X88279000Y-25966075D01*
X88276342Y-25945949D01*
X88285100Y-25933309D01*
X88317710Y-25912500D01*
X88363622Y-25896008D01*
X88385026Y-25910983D01*
X88442469Y-25961851D01*
X88530650Y-26044377D01*
X88644849Y-26154025D01*
X88780349Y-26286261D01*
X88932432Y-26436549D01*
X89096379Y-26600354D01*
X89798513Y-27305597D01*
X89984979Y-27124867D01*
X90246076Y-27384878D01*
X90507172Y-27644888D01*
X90874631Y-27644888D01*
X91056445Y-27828333D01*
X91098178Y-27869962D01*
X91173819Y-27942736D01*
X91229838Y-27993014D01*
X91256407Y-28011777D01*
X91266149Y-28005042D01*
X91310805Y-27964820D01*
X91385837Y-27893206D01*
X91485474Y-27795811D01*
X91603945Y-27678242D01*
X91735480Y-27546111D01*
X92196404Y-27080444D01*
X92594556Y-27080400D01*
X93222759Y-26445422D01*
X93389000Y-26277728D01*
X93532086Y-26134615D01*
X93644892Y-26023929D01*
X93732125Y-25941558D01*
X93798494Y-25883387D01*
X93848706Y-25845304D01*
X93887469Y-25823195D01*
X93919492Y-25812946D01*
X93949481Y-25810444D01*
X93962156Y-25810618D01*
G36*
X90090112Y-25817083D02*
G01*
X90509425Y-26237097D01*
X90928739Y-26657111D01*
X91237539Y-26657111D01*
X91517600Y-26374888D01*
X91797662Y-26092666D01*
X91985503Y-26092666D01*
X92040891Y-26092471D01*
X92122215Y-26087552D01*
X92179745Y-26069148D01*
X92234583Y-26028318D01*
X92307834Y-25956123D01*
X92352737Y-25911841D01*
X92422890Y-25853637D01*
X92484124Y-25824729D01*
X92553718Y-25815215D01*
X92577731Y-25814561D01*
X92640106Y-25816348D01*
X92665111Y-25823046D01*
X92653444Y-25838726D01*
X92609087Y-25887480D01*
X92539332Y-25960359D01*
X92452424Y-26048621D01*
X92239737Y-26262000D01*
X91859663Y-26262000D01*
X91325671Y-26798222D01*
X91085224Y-26797481D01*
X90844778Y-26796740D01*
X90423576Y-26388259D01*
X90386469Y-26352341D01*
X90262849Y-26233718D01*
X90154536Y-26131338D01*
X90067787Y-26051012D01*
X90008855Y-25998555D01*
X89983995Y-25979777D01*
X89981995Y-25980083D01*
X89948884Y-26002741D01*
X89899334Y-26050333D01*
X89893156Y-26056821D01*
X89844225Y-26102278D01*
X89813640Y-26120888D01*
X89809716Y-26120006D01*
X89771479Y-26094877D01*
X89710536Y-26044228D01*
X89640113Y-25980377D01*
X89573436Y-25915639D01*
X89523730Y-25862329D01*
X89504222Y-25832764D01*
X89519051Y-25825152D01*
X89579693Y-25817238D01*
X89676304Y-25812717D01*
X89797167Y-25812404D01*
X90090112Y-25817083D01*
G37*
X90090112Y-25817083D02*
X90509425Y-26237097D01*
X90928739Y-26657111D01*
X91237539Y-26657111D01*
X91517600Y-26374888D01*
X91797662Y-26092666D01*
X91985503Y-26092666D01*
X92040891Y-26092471D01*
X92122215Y-26087552D01*
X92179745Y-26069148D01*
X92234583Y-26028318D01*
X92307834Y-25956123D01*
X92352737Y-25911841D01*
X92422890Y-25853637D01*
X92484124Y-25824729D01*
X92553718Y-25815215D01*
X92577731Y-25814561D01*
X92640106Y-25816348D01*
X92665111Y-25823046D01*
X92653444Y-25838726D01*
X92609087Y-25887480D01*
X92539332Y-25960359D01*
X92452424Y-26048621D01*
X92239737Y-26262000D01*
X91859663Y-26262000D01*
X91325671Y-26798222D01*
X91085224Y-26797481D01*
X90844778Y-26796740D01*
X90423576Y-26388259D01*
X90386469Y-26352341D01*
X90262849Y-26233718D01*
X90154536Y-26131338D01*
X90067787Y-26051012D01*
X90008855Y-25998555D01*
X89983995Y-25979777D01*
X89981995Y-25980083D01*
X89948884Y-26002741D01*
X89899334Y-26050333D01*
X89893156Y-26056821D01*
X89844225Y-26102278D01*
X89813640Y-26120888D01*
X89809716Y-26120006D01*
X89771479Y-26094877D01*
X89710536Y-26044228D01*
X89640113Y-25980377D01*
X89573436Y-25915639D01*
X89523730Y-25862329D01*
X89504222Y-25832764D01*
X89519051Y-25825152D01*
X89579693Y-25817238D01*
X89676304Y-25812717D01*
X89797167Y-25812404D01*
X90090112Y-25817083D01*
G36*
X91984775Y-25811580D02*
G01*
X92088286Y-25816659D01*
X92159094Y-25824878D01*
X92185334Y-25835211D01*
X92183368Y-25850270D01*
X92143299Y-25894830D01*
X92055037Y-25920849D01*
X91923128Y-25926739D01*
X91747889Y-25921325D01*
X91460390Y-26204551D01*
X91332632Y-26329455D01*
X91232113Y-26418910D01*
X91149844Y-26471688D01*
X91076011Y-26487368D01*
X91000805Y-26465532D01*
X90914414Y-26405761D01*
X90807026Y-26307636D01*
X90668831Y-26170738D01*
X90600700Y-26102297D01*
X90501584Y-26000710D01*
X90422388Y-25916992D01*
X90369895Y-25858370D01*
X90350889Y-25832071D01*
X90351621Y-25829426D01*
X90383685Y-25815938D01*
X90448551Y-25810444D01*
X90461167Y-25810695D01*
X90505792Y-25817985D01*
X90552241Y-25840336D01*
X90609558Y-25884416D01*
X90686787Y-25956896D01*
X90792970Y-26064444D01*
X90801994Y-26073714D01*
X90897120Y-26169096D01*
X90978693Y-26246873D01*
X91038293Y-26299253D01*
X91067499Y-26318444D01*
X91069442Y-26318053D01*
X91103919Y-26294286D01*
X91168540Y-26239086D01*
X91254821Y-26159967D01*
X91354278Y-26064444D01*
X91613286Y-25810444D01*
X91899310Y-25810444D01*
X91984775Y-25811580D01*
G37*
X91984775Y-25811580D02*
X92088286Y-25816659D01*
X92159094Y-25824878D01*
X92185334Y-25835211D01*
X92183368Y-25850270D01*
X92143299Y-25894830D01*
X92055037Y-25920849D01*
X91923128Y-25926739D01*
X91747889Y-25921325D01*
X91460390Y-26204551D01*
X91332632Y-26329455D01*
X91232113Y-26418910D01*
X91149844Y-26471688D01*
X91076011Y-26487368D01*
X91000805Y-26465532D01*
X90914414Y-26405761D01*
X90807026Y-26307636D01*
X90668831Y-26170738D01*
X90600700Y-26102297D01*
X90501584Y-26000710D01*
X90422388Y-25916992D01*
X90369895Y-25858370D01*
X90350889Y-25832071D01*
X90351621Y-25829426D01*
X90383685Y-25815938D01*
X90448551Y-25810444D01*
X90461167Y-25810695D01*
X90505792Y-25817985D01*
X90552241Y-25840336D01*
X90609558Y-25884416D01*
X90686787Y-25956896D01*
X90792970Y-26064444D01*
X90801994Y-26073714D01*
X90897120Y-26169096D01*
X90978693Y-26246873D01*
X91038293Y-26299253D01*
X91067499Y-26318444D01*
X91069442Y-26318053D01*
X91103919Y-26294286D01*
X91168540Y-26239086D01*
X91254821Y-26159967D01*
X91354278Y-26064444D01*
X91613286Y-25810444D01*
X91899310Y-25810444D01*
X91984775Y-25811580D01*
G36*
X89982638Y-23078593D02*
G01*
X89980465Y-23080762D01*
X89918013Y-23134458D01*
X89860300Y-23153802D01*
X89778315Y-23148755D01*
X89763004Y-23146351D01*
X89654711Y-23103754D01*
X89584778Y-23029302D01*
X89557008Y-22934719D01*
X89566421Y-22881435D01*
X89743112Y-22881435D01*
X89747039Y-22943342D01*
X89760696Y-22967085D01*
X89807389Y-22986573D01*
X89863262Y-22956560D01*
X89883533Y-22913692D01*
X89865717Y-22867553D01*
X89813313Y-22847111D01*
X89785910Y-22849841D01*
X89743112Y-22881435D01*
X89566421Y-22881435D01*
X89575202Y-22831727D01*
X89643163Y-22732051D01*
X89656193Y-22719657D01*
X89756535Y-22659854D01*
X89858666Y-22652727D01*
X89952023Y-22696677D01*
X90026041Y-22790101D01*
X90031434Y-22800770D01*
X90064799Y-22903471D01*
X90062988Y-22913692D01*
X90049315Y-22990882D01*
X89982638Y-23078593D01*
G37*
X89982638Y-23078593D02*
X89980465Y-23080762D01*
X89918013Y-23134458D01*
X89860300Y-23153802D01*
X89778315Y-23148755D01*
X89763004Y-23146351D01*
X89654711Y-23103754D01*
X89584778Y-23029302D01*
X89557008Y-22934719D01*
X89566421Y-22881435D01*
X89743112Y-22881435D01*
X89747039Y-22943342D01*
X89760696Y-22967085D01*
X89807389Y-22986573D01*
X89863262Y-22956560D01*
X89883533Y-22913692D01*
X89865717Y-22867553D01*
X89813313Y-22847111D01*
X89785910Y-22849841D01*
X89743112Y-22881435D01*
X89566421Y-22881435D01*
X89575202Y-22831727D01*
X89643163Y-22732051D01*
X89656193Y-22719657D01*
X89756535Y-22659854D01*
X89858666Y-22652727D01*
X89952023Y-22696677D01*
X90026041Y-22790101D01*
X90031434Y-22800770D01*
X90064799Y-22903471D01*
X90062988Y-22913692D01*
X90049315Y-22990882D01*
X89982638Y-23078593D01*
G36*
X93066494Y-25086540D02*
G01*
X93011031Y-25168864D01*
X92919111Y-25226068D01*
X92871496Y-25240520D01*
X92826820Y-25238803D01*
X92760971Y-25216668D01*
X92673384Y-25165828D01*
X92624709Y-25086515D01*
X92615179Y-24981352D01*
X92783564Y-24981352D01*
X92790347Y-25029160D01*
X92830875Y-25061118D01*
X92889170Y-25049507D01*
X92902735Y-25037977D01*
X92916636Y-24990168D01*
X92895737Y-24942858D01*
X92848169Y-24921444D01*
X92812654Y-24930879D01*
X92783564Y-24981352D01*
X92615179Y-24981352D01*
X92614221Y-24970785D01*
X92615162Y-24936278D01*
X92606711Y-24869343D01*
X92574928Y-24810648D01*
X92509843Y-24737952D01*
X92399656Y-24625111D01*
X91952474Y-24625111D01*
X91805719Y-24625267D01*
X91678582Y-24626604D01*
X91590574Y-24630447D01*
X91532362Y-24638120D01*
X91494609Y-24650946D01*
X91467982Y-24670250D01*
X91443147Y-24697355D01*
X91401726Y-24735076D01*
X91305912Y-24774022D01*
X91203623Y-24769141D01*
X91110801Y-24722822D01*
X91043387Y-24637455D01*
X91017252Y-24543286D01*
X91020465Y-24518989D01*
X91202649Y-24518989D01*
X91210594Y-24545641D01*
X91247301Y-24584517D01*
X91293183Y-24590838D01*
X91327142Y-24557992D01*
X91334353Y-24525981D01*
X91313665Y-24475042D01*
X91250372Y-24455777D01*
X91208219Y-24469261D01*
X91202649Y-24518989D01*
X91020465Y-24518989D01*
X91030399Y-24443864D01*
X91080488Y-24362280D01*
X91157123Y-24305784D01*
X91249906Y-24281625D01*
X91348439Y-24297051D01*
X91442324Y-24359313D01*
X91442326Y-24359316D01*
X91470681Y-24386147D01*
X91499877Y-24405441D01*
X91539183Y-24418465D01*
X91597866Y-24426486D01*
X91685192Y-24430769D01*
X91810429Y-24432583D01*
X91982843Y-24433192D01*
X92450492Y-24434201D01*
X92546714Y-24525981D01*
X92609742Y-24586100D01*
X92654403Y-24627715D01*
X92735714Y-24694207D01*
X92799769Y-24728357D01*
X92859446Y-24738000D01*
X92954514Y-24757481D01*
X93029510Y-24814565D01*
X93074196Y-24896817D01*
X93086835Y-24990168D01*
X93087037Y-24991667D01*
X93066494Y-25086540D01*
G37*
X93066494Y-25086540D02*
X93011031Y-25168864D01*
X92919111Y-25226068D01*
X92871496Y-25240520D01*
X92826820Y-25238803D01*
X92760971Y-25216668D01*
X92673384Y-25165828D01*
X92624709Y-25086515D01*
X92615179Y-24981352D01*
X92783564Y-24981352D01*
X92790347Y-25029160D01*
X92830875Y-25061118D01*
X92889170Y-25049507D01*
X92902735Y-25037977D01*
X92916636Y-24990168D01*
X92895737Y-24942858D01*
X92848169Y-24921444D01*
X92812654Y-24930879D01*
X92783564Y-24981352D01*
X92615179Y-24981352D01*
X92614221Y-24970785D01*
X92615162Y-24936278D01*
X92606711Y-24869343D01*
X92574928Y-24810648D01*
X92509843Y-24737952D01*
X92399656Y-24625111D01*
X91952474Y-24625111D01*
X91805719Y-24625267D01*
X91678582Y-24626604D01*
X91590574Y-24630447D01*
X91532362Y-24638120D01*
X91494609Y-24650946D01*
X91467982Y-24670250D01*
X91443147Y-24697355D01*
X91401726Y-24735076D01*
X91305912Y-24774022D01*
X91203623Y-24769141D01*
X91110801Y-24722822D01*
X91043387Y-24637455D01*
X91017252Y-24543286D01*
X91020465Y-24518989D01*
X91202649Y-24518989D01*
X91210594Y-24545641D01*
X91247301Y-24584517D01*
X91293183Y-24590838D01*
X91327142Y-24557992D01*
X91334353Y-24525981D01*
X91313665Y-24475042D01*
X91250372Y-24455777D01*
X91208219Y-24469261D01*
X91202649Y-24518989D01*
X91020465Y-24518989D01*
X91030399Y-24443864D01*
X91080488Y-24362280D01*
X91157123Y-24305784D01*
X91249906Y-24281625D01*
X91348439Y-24297051D01*
X91442324Y-24359313D01*
X91442326Y-24359316D01*
X91470681Y-24386147D01*
X91499877Y-24405441D01*
X91539183Y-24418465D01*
X91597866Y-24426486D01*
X91685192Y-24430769D01*
X91810429Y-24432583D01*
X91982843Y-24433192D01*
X92450492Y-24434201D01*
X92546714Y-24525981D01*
X92609742Y-24586100D01*
X92654403Y-24627715D01*
X92735714Y-24694207D01*
X92799769Y-24728357D01*
X92859446Y-24738000D01*
X92954514Y-24757481D01*
X93029510Y-24814565D01*
X93074196Y-24896817D01*
X93086835Y-24990168D01*
X93087037Y-24991667D01*
X93066494Y-25086540D01*
D10*
X98550000Y-53150000D02*
X98550000Y-56050000D01*
X101450000Y-56050000D02*
X101450000Y-53150000D01*
X98550000Y-56050000D02*
X101450000Y-56050000D01*
X101450000Y-53150000D02*
X98550000Y-53150000D01*
M02*
