G04 #@! TF.GenerationSoftware,KiCad,Pcbnew,6.0.7-f9a2dced07~116~ubuntu22.04.1*
G04 #@! TF.CreationDate,2022-08-21T20:36:42+02:00*
G04 #@! TF.ProjectId,carabiner,63617261-6269-46e6-9572-2e6b69636164,rev?*
G04 #@! TF.SameCoordinates,Original*
G04 #@! TF.FileFunction,Soldermask,Top*
G04 #@! TF.FilePolarity,Negative*
%FSLAX46Y46*%
G04 Gerber Fmt 4.6, Leading zero omitted, Abs format (unit mm)*
G04 Created by KiCad (PCBNEW 6.0.7-f9a2dced07~116~ubuntu22.04.1) date 2022-08-21 20:36:42*
%MOMM*%
%LPD*%
G01*
G04 APERTURE LIST*
G04 Aperture macros list*
%AMRoundRect*
0 Rectangle with rounded corners*
0 $1 Rounding radius*
0 $2 $3 $4 $5 $6 $7 $8 $9 X,Y pos of 4 corners*
0 Add a 4 corners polygon primitive as box body*
4,1,4,$2,$3,$4,$5,$6,$7,$8,$9,$2,$3,0*
0 Add four circle primitives for the rounded corners*
1,1,$1+$1,$2,$3*
1,1,$1+$1,$4,$5*
1,1,$1+$1,$6,$7*
1,1,$1+$1,$8,$9*
0 Add four rect primitives between the rounded corners*
20,1,$1+$1,$2,$3,$4,$5,0*
20,1,$1+$1,$4,$5,$6,$7,0*
20,1,$1+$1,$6,$7,$8,$9,0*
20,1,$1+$1,$8,$9,$2,$3,0*%
G04 Aperture macros list end*
%ADD10C,0.010000*%
%ADD11RoundRect,0.051000X0.800000X-0.800000X0.800000X0.800000X-0.800000X0.800000X-0.800000X-0.800000X0*%
%ADD12O,1.702000X1.702000*%
%ADD13C,5.702000*%
%ADD14C,1.372000*%
%ADD15RoundRect,0.301001X-0.759999X0.499999X-0.759999X-0.499999X0.759999X-0.499999X0.759999X0.499999X0*%
%ADD16O,2.122000X1.602000*%
%ADD17RoundRect,0.301000X-0.750000X0.600000X-0.750000X-0.600000X0.750000X-0.600000X0.750000X0.600000X0*%
%ADD18O,2.102000X1.802000*%
%ADD19C,3.102000*%
%ADD20RoundRect,0.301001X-0.499999X-0.499999X0.499999X-0.499999X0.499999X0.499999X-0.499999X0.499999X0*%
%ADD21C,1.602000*%
%ADD22RoundRect,0.301000X-0.600000X-0.750000X0.600000X-0.750000X0.600000X0.750000X-0.600000X0.750000X0*%
%ADD23O,1.802000X2.102000*%
%ADD24RoundRect,0.301000X-0.725000X0.600000X-0.725000X-0.600000X0.725000X-0.600000X0.725000X0.600000X0*%
%ADD25O,2.052000X1.802000*%
%ADD26RoundRect,0.348500X-0.577500X0.552500X-0.577500X-0.552500X0.577500X-0.552500X0.577500X0.552500X0*%
%ADD27C,1.102000*%
%ADD28RoundRect,0.301001X-0.499999X-0.759999X0.499999X-0.759999X0.499999X0.759999X-0.499999X0.759999X0*%
%ADD29O,1.602000X2.122000*%
%ADD30C,3.512000*%
G04 APERTURE END LIST*
G36*
X62970273Y-37618361D02*
G01*
X63006648Y-37633787D01*
X63052113Y-37664778D01*
X63112553Y-37716005D01*
X63193852Y-37792143D01*
X63301893Y-37897864D01*
X63442561Y-38037840D01*
X63479462Y-38074686D01*
X63948288Y-38542903D01*
X64130866Y-38544541D01*
X64313444Y-38546180D01*
X64723431Y-38953623D01*
X65133418Y-39361067D01*
X65258474Y-39233644D01*
X65327865Y-39165511D01*
X65381391Y-39127393D01*
X65440420Y-39110575D01*
X65526322Y-39106343D01*
X65570934Y-39106222D01*
X65758338Y-39106222D01*
X66078658Y-38781558D01*
X66398979Y-38456895D01*
X66492783Y-38547813D01*
X66586586Y-38638731D01*
X67103285Y-38122599D01*
X67260317Y-37965972D01*
X67382984Y-37844839D01*
X67476798Y-37754744D01*
X67547271Y-37691232D01*
X67599912Y-37649847D01*
X67640235Y-37626135D01*
X67673751Y-37615640D01*
X67705970Y-37613907D01*
X67730578Y-37615511D01*
X67841173Y-37624555D01*
X67225065Y-38231333D01*
X67071260Y-38382413D01*
X66930157Y-38520257D01*
X66806820Y-38639979D01*
X66706313Y-38736691D01*
X66633700Y-38805506D01*
X66594046Y-38841536D01*
X66588463Y-38845708D01*
X66557438Y-38832383D01*
X66508426Y-38789758D01*
X66501176Y-38782208D01*
X66447695Y-38734033D01*
X66406341Y-38711364D01*
X66403495Y-38711111D01*
X66373416Y-38730140D01*
X66312020Y-38782389D01*
X66227328Y-38860604D01*
X66127365Y-38957527D01*
X66091444Y-38993333D01*
X65810281Y-39275555D01*
X65443970Y-39275555D01*
X65130732Y-39585525D01*
X64694207Y-39148318D01*
X64257683Y-38711111D01*
X63890111Y-38710009D01*
X63340996Y-38167282D01*
X62791880Y-37624555D01*
X62901258Y-37615512D01*
X62937105Y-37613827D01*
X62970273Y-37618361D01*
G37*
D10*
X62970273Y-37618361D02*
X63006648Y-37633787D01*
X63052113Y-37664778D01*
X63112553Y-37716005D01*
X63193852Y-37792143D01*
X63301893Y-37897864D01*
X63442561Y-38037840D01*
X63479462Y-38074686D01*
X63948288Y-38542903D01*
X64130866Y-38544541D01*
X64313444Y-38546180D01*
X64723431Y-38953623D01*
X65133418Y-39361067D01*
X65258474Y-39233644D01*
X65327865Y-39165511D01*
X65381391Y-39127393D01*
X65440420Y-39110575D01*
X65526322Y-39106343D01*
X65570934Y-39106222D01*
X65758338Y-39106222D01*
X66078658Y-38781558D01*
X66398979Y-38456895D01*
X66492783Y-38547813D01*
X66586586Y-38638731D01*
X67103285Y-38122599D01*
X67260317Y-37965972D01*
X67382984Y-37844839D01*
X67476798Y-37754744D01*
X67547271Y-37691232D01*
X67599912Y-37649847D01*
X67640235Y-37626135D01*
X67673751Y-37615640D01*
X67705970Y-37613907D01*
X67730578Y-37615511D01*
X67841173Y-37624555D01*
X67225065Y-38231333D01*
X67071260Y-38382413D01*
X66930157Y-38520257D01*
X66806820Y-38639979D01*
X66706313Y-38736691D01*
X66633700Y-38805506D01*
X66594046Y-38841536D01*
X66588463Y-38845708D01*
X66557438Y-38832383D01*
X66508426Y-38789758D01*
X66501176Y-38782208D01*
X66447695Y-38734033D01*
X66406341Y-38711364D01*
X66403495Y-38711111D01*
X66373416Y-38730140D01*
X66312020Y-38782389D01*
X66227328Y-38860604D01*
X66127365Y-38957527D01*
X66091444Y-38993333D01*
X65810281Y-39275555D01*
X65443970Y-39275555D01*
X65130732Y-39585525D01*
X64694207Y-39148318D01*
X64257683Y-38711111D01*
X63890111Y-38710009D01*
X63340996Y-38167282D01*
X62791880Y-37624555D01*
X62901258Y-37615512D01*
X62937105Y-37613827D01*
X62970273Y-37618361D01*
G36*
X63766382Y-35716566D02*
G01*
X63941135Y-35728944D01*
X64115889Y-35741322D01*
X64626583Y-35234833D01*
X65137277Y-34728345D01*
X65366613Y-34955839D01*
X65595948Y-35183333D01*
X65972365Y-35183333D01*
X66180626Y-35395000D01*
X66268548Y-35482289D01*
X66342716Y-35552076D01*
X66393907Y-35595909D01*
X66411635Y-35606666D01*
X66444589Y-35587965D01*
X66494746Y-35542319D01*
X66500666Y-35536111D01*
X66551925Y-35488351D01*
X66588688Y-35465818D01*
X66591015Y-35465555D01*
X66616631Y-35484682D01*
X66676662Y-35538619D01*
X66765674Y-35622199D01*
X66878234Y-35730256D01*
X67008908Y-35857622D01*
X67152263Y-35999132D01*
X67154926Y-36001777D01*
X67317066Y-36162404D01*
X67444772Y-36287407D01*
X67543374Y-36381223D01*
X67618201Y-36448287D01*
X67674584Y-36493037D01*
X67717852Y-36519907D01*
X67753335Y-36533336D01*
X67786363Y-36537758D01*
X67799154Y-36538000D01*
X67911388Y-36559651D01*
X67991844Y-36616731D01*
X68039635Y-36697426D01*
X68053876Y-36789923D01*
X68033678Y-36882411D01*
X67978156Y-36963075D01*
X67886424Y-37020104D01*
X67836400Y-37034264D01*
X67769806Y-37037587D01*
X67709244Y-37010892D01*
X67655245Y-36967291D01*
X67593570Y-36902651D01*
X67567936Y-36840735D01*
X67565991Y-36790168D01*
X67744920Y-36790168D01*
X67758821Y-36837977D01*
X67772386Y-36849507D01*
X67830680Y-36861118D01*
X67871209Y-36829160D01*
X67877992Y-36781352D01*
X67848901Y-36730879D01*
X67813386Y-36721444D01*
X67765819Y-36742858D01*
X67744920Y-36790168D01*
X67565991Y-36790168D01*
X67565291Y-36771984D01*
X67565292Y-36735995D01*
X67559088Y-36702191D01*
X67542037Y-36664825D01*
X67509498Y-36618151D01*
X67456827Y-36556422D01*
X67379382Y-36473892D01*
X67272521Y-36364815D01*
X67131601Y-36223443D01*
X67082560Y-36174444D01*
X66595403Y-35687884D01*
X66505136Y-35780211D01*
X66414870Y-35872537D01*
X66153849Y-35612602D01*
X65892828Y-35352666D01*
X65520456Y-35352666D01*
X65332675Y-35163030D01*
X65144893Y-34973394D01*
X64672422Y-35445252D01*
X64199950Y-35917111D01*
X63807931Y-35917111D01*
X63157577Y-36566054D01*
X62507222Y-37214998D01*
X65305258Y-37215165D01*
X65769100Y-37215118D01*
X66179681Y-37214884D01*
X66540187Y-37214416D01*
X66853802Y-37213667D01*
X67123710Y-37212588D01*
X67353095Y-37211132D01*
X67545143Y-37209251D01*
X67703036Y-37206897D01*
X67829960Y-37204023D01*
X67929099Y-37200581D01*
X68003637Y-37196522D01*
X68056758Y-37191800D01*
X68091648Y-37186367D01*
X68111490Y-37180174D01*
X68119468Y-37173174D01*
X68119555Y-37172958D01*
X68154303Y-37133594D01*
X68218894Y-37091298D01*
X68232423Y-37084514D01*
X68298246Y-37057296D01*
X68348721Y-37055393D01*
X68412144Y-37079790D01*
X68436366Y-37091611D01*
X68532579Y-37165037D01*
X68580203Y-37259558D01*
X68577459Y-37364726D01*
X68522566Y-37470092D01*
X68504437Y-37491061D01*
X68418622Y-37546088D01*
X68317852Y-37553174D01*
X68215558Y-37513167D01*
X68161564Y-37469461D01*
X68077026Y-37384923D01*
X65099750Y-37377739D01*
X62122475Y-37370555D01*
X62176832Y-37315864D01*
X68252873Y-37315864D01*
X68275500Y-37360293D01*
X68327297Y-37380484D01*
X68342040Y-37379590D01*
X68395238Y-37351585D01*
X68405666Y-37314497D01*
X68383237Y-37266074D01*
X68332572Y-37245405D01*
X68278608Y-37261302D01*
X68271921Y-37267234D01*
X68252873Y-37315864D01*
X62176832Y-37315864D01*
X62944428Y-36543560D01*
X63766382Y-35716566D01*
G37*
X63766382Y-35716566D02*
X63941135Y-35728944D01*
X64115889Y-35741322D01*
X64626583Y-35234833D01*
X65137277Y-34728345D01*
X65366613Y-34955839D01*
X65595948Y-35183333D01*
X65972365Y-35183333D01*
X66180626Y-35395000D01*
X66268548Y-35482289D01*
X66342716Y-35552076D01*
X66393907Y-35595909D01*
X66411635Y-35606666D01*
X66444589Y-35587965D01*
X66494746Y-35542319D01*
X66500666Y-35536111D01*
X66551925Y-35488351D01*
X66588688Y-35465818D01*
X66591015Y-35465555D01*
X66616631Y-35484682D01*
X66676662Y-35538619D01*
X66765674Y-35622199D01*
X66878234Y-35730256D01*
X67008908Y-35857622D01*
X67152263Y-35999132D01*
X67154926Y-36001777D01*
X67317066Y-36162404D01*
X67444772Y-36287407D01*
X67543374Y-36381223D01*
X67618201Y-36448287D01*
X67674584Y-36493037D01*
X67717852Y-36519907D01*
X67753335Y-36533336D01*
X67786363Y-36537758D01*
X67799154Y-36538000D01*
X67911388Y-36559651D01*
X67991844Y-36616731D01*
X68039635Y-36697426D01*
X68053876Y-36789923D01*
X68033678Y-36882411D01*
X67978156Y-36963075D01*
X67886424Y-37020104D01*
X67836400Y-37034264D01*
X67769806Y-37037587D01*
X67709244Y-37010892D01*
X67655245Y-36967291D01*
X67593570Y-36902651D01*
X67567936Y-36840735D01*
X67565991Y-36790168D01*
X67744920Y-36790168D01*
X67758821Y-36837977D01*
X67772386Y-36849507D01*
X67830680Y-36861118D01*
X67871209Y-36829160D01*
X67877992Y-36781352D01*
X67848901Y-36730879D01*
X67813386Y-36721444D01*
X67765819Y-36742858D01*
X67744920Y-36790168D01*
X67565991Y-36790168D01*
X67565291Y-36771984D01*
X67565292Y-36735995D01*
X67559088Y-36702191D01*
X67542037Y-36664825D01*
X67509498Y-36618151D01*
X67456827Y-36556422D01*
X67379382Y-36473892D01*
X67272521Y-36364815D01*
X67131601Y-36223443D01*
X67082560Y-36174444D01*
X66595403Y-35687884D01*
X66505136Y-35780211D01*
X66414870Y-35872537D01*
X66153849Y-35612602D01*
X65892828Y-35352666D01*
X65520456Y-35352666D01*
X65332675Y-35163030D01*
X65144893Y-34973394D01*
X64672422Y-35445252D01*
X64199950Y-35917111D01*
X63807931Y-35917111D01*
X63157577Y-36566054D01*
X62507222Y-37214998D01*
X65305258Y-37215165D01*
X65769100Y-37215118D01*
X66179681Y-37214884D01*
X66540187Y-37214416D01*
X66853802Y-37213667D01*
X67123710Y-37212588D01*
X67353095Y-37211132D01*
X67545143Y-37209251D01*
X67703036Y-37206897D01*
X67829960Y-37204023D01*
X67929099Y-37200581D01*
X68003637Y-37196522D01*
X68056758Y-37191800D01*
X68091648Y-37186367D01*
X68111490Y-37180174D01*
X68119468Y-37173174D01*
X68119555Y-37172958D01*
X68154303Y-37133594D01*
X68218894Y-37091298D01*
X68232423Y-37084514D01*
X68298246Y-37057296D01*
X68348721Y-37055393D01*
X68412144Y-37079790D01*
X68436366Y-37091611D01*
X68532579Y-37165037D01*
X68580203Y-37259558D01*
X68577459Y-37364726D01*
X68522566Y-37470092D01*
X68504437Y-37491061D01*
X68418622Y-37546088D01*
X68317852Y-37553174D01*
X68215558Y-37513167D01*
X68161564Y-37469461D01*
X68077026Y-37384923D01*
X65099750Y-37377739D01*
X62122475Y-37370555D01*
X62176832Y-37315864D01*
X68252873Y-37315864D01*
X68275500Y-37360293D01*
X68327297Y-37380484D01*
X68342040Y-37379590D01*
X68395238Y-37351585D01*
X68405666Y-37314497D01*
X68383237Y-37266074D01*
X68332572Y-37245405D01*
X68278608Y-37261302D01*
X68271921Y-37267234D01*
X68252873Y-37315864D01*
X62176832Y-37315864D01*
X62944428Y-36543560D01*
X63766382Y-35716566D01*
G36*
X63370490Y-36614565D02*
G01*
X63445486Y-36557481D01*
X63540554Y-36538000D01*
X63600231Y-36528357D01*
X63664286Y-36494207D01*
X63745597Y-36427715D01*
X63790258Y-36386100D01*
X63853286Y-36325981D01*
X65065647Y-36325981D01*
X65072858Y-36357992D01*
X65106817Y-36390838D01*
X65152699Y-36384517D01*
X65189406Y-36345641D01*
X65197351Y-36318989D01*
X65191781Y-36269261D01*
X65149628Y-36255777D01*
X65086335Y-36275042D01*
X65065647Y-36325981D01*
X63853286Y-36325981D01*
X63949508Y-36234201D01*
X64417157Y-36233192D01*
X64589571Y-36232583D01*
X64714808Y-36230769D01*
X64802134Y-36226486D01*
X64860817Y-36218465D01*
X64900123Y-36205441D01*
X64929319Y-36186147D01*
X64957674Y-36159316D01*
X64957676Y-36159313D01*
X65051561Y-36097051D01*
X65150094Y-36081625D01*
X65242877Y-36105784D01*
X65319512Y-36162280D01*
X65369601Y-36243864D01*
X65382748Y-36343286D01*
X65356613Y-36437455D01*
X65289199Y-36522822D01*
X65196377Y-36569141D01*
X65094088Y-36574022D01*
X64998274Y-36535076D01*
X64956853Y-36497355D01*
X64932018Y-36470250D01*
X64905391Y-36450946D01*
X64867638Y-36438120D01*
X64809426Y-36430447D01*
X64721418Y-36426604D01*
X64594281Y-36425267D01*
X64447526Y-36425111D01*
X64000344Y-36425111D01*
X63890157Y-36537952D01*
X63825072Y-36610648D01*
X63793289Y-36669343D01*
X63784838Y-36736278D01*
X63785779Y-36770785D01*
X63775291Y-36886515D01*
X63726616Y-36965828D01*
X63639029Y-37016668D01*
X63573180Y-37038803D01*
X63528504Y-37040520D01*
X63480889Y-37026068D01*
X63388969Y-36968864D01*
X63333506Y-36886540D01*
X63312963Y-36791667D01*
X63313165Y-36790168D01*
X63483364Y-36790168D01*
X63497265Y-36837977D01*
X63510830Y-36849507D01*
X63569125Y-36861118D01*
X63609653Y-36829160D01*
X63616436Y-36781352D01*
X63587346Y-36730879D01*
X63551831Y-36721444D01*
X63504263Y-36742858D01*
X63483364Y-36790168D01*
X63313165Y-36790168D01*
X63325804Y-36696817D01*
X63370490Y-36614565D01*
G37*
X63370490Y-36614565D02*
X63445486Y-36557481D01*
X63540554Y-36538000D01*
X63600231Y-36528357D01*
X63664286Y-36494207D01*
X63745597Y-36427715D01*
X63790258Y-36386100D01*
X63853286Y-36325981D01*
X65065647Y-36325981D01*
X65072858Y-36357992D01*
X65106817Y-36390838D01*
X65152699Y-36384517D01*
X65189406Y-36345641D01*
X65197351Y-36318989D01*
X65191781Y-36269261D01*
X65149628Y-36255777D01*
X65086335Y-36275042D01*
X65065647Y-36325981D01*
X63853286Y-36325981D01*
X63949508Y-36234201D01*
X64417157Y-36233192D01*
X64589571Y-36232583D01*
X64714808Y-36230769D01*
X64802134Y-36226486D01*
X64860817Y-36218465D01*
X64900123Y-36205441D01*
X64929319Y-36186147D01*
X64957674Y-36159316D01*
X64957676Y-36159313D01*
X65051561Y-36097051D01*
X65150094Y-36081625D01*
X65242877Y-36105784D01*
X65319512Y-36162280D01*
X65369601Y-36243864D01*
X65382748Y-36343286D01*
X65356613Y-36437455D01*
X65289199Y-36522822D01*
X65196377Y-36569141D01*
X65094088Y-36574022D01*
X64998274Y-36535076D01*
X64956853Y-36497355D01*
X64932018Y-36470250D01*
X64905391Y-36450946D01*
X64867638Y-36438120D01*
X64809426Y-36430447D01*
X64721418Y-36426604D01*
X64594281Y-36425267D01*
X64447526Y-36425111D01*
X64000344Y-36425111D01*
X63890157Y-36537952D01*
X63825072Y-36610648D01*
X63793289Y-36669343D01*
X63784838Y-36736278D01*
X63785779Y-36770785D01*
X63775291Y-36886515D01*
X63726616Y-36965828D01*
X63639029Y-37016668D01*
X63573180Y-37038803D01*
X63528504Y-37040520D01*
X63480889Y-37026068D01*
X63388969Y-36968864D01*
X63333506Y-36886540D01*
X63312963Y-36791667D01*
X63313165Y-36790168D01*
X63483364Y-36790168D01*
X63497265Y-36837977D01*
X63510830Y-36849507D01*
X63569125Y-36861118D01*
X63609653Y-36829160D01*
X63616436Y-36781352D01*
X63587346Y-36730879D01*
X63551831Y-36721444D01*
X63504263Y-36742858D01*
X63483364Y-36790168D01*
X63313165Y-36790168D01*
X63325804Y-36696817D01*
X63370490Y-36614565D01*
G36*
X65311157Y-37614946D02*
G01*
X65430580Y-37616062D01*
X65525600Y-37618579D01*
X65584355Y-37622085D01*
X65597555Y-37624913D01*
X65579789Y-37648564D01*
X65533073Y-37701924D01*
X65467286Y-37773730D01*
X65463135Y-37778179D01*
X65328714Y-37922102D01*
X65176736Y-37768212D01*
X65024758Y-37614323D01*
X65311157Y-37614946D01*
G37*
X65311157Y-37614946D02*
X65430580Y-37616062D01*
X65525600Y-37618579D01*
X65584355Y-37622085D01*
X65597555Y-37624913D01*
X65579789Y-37648564D01*
X65533073Y-37701924D01*
X65467286Y-37773730D01*
X65463135Y-37778179D01*
X65328714Y-37922102D01*
X65176736Y-37768212D01*
X65024758Y-37614323D01*
X65311157Y-37614946D01*
G36*
X65045722Y-37864444D02*
G01*
X65145179Y-37959967D01*
X65231460Y-38039086D01*
X65296081Y-38094286D01*
X65330558Y-38118053D01*
X65332501Y-38118444D01*
X65361707Y-38099253D01*
X65421307Y-38046873D01*
X65502880Y-37969096D01*
X65598006Y-37873714D01*
X65607030Y-37864444D01*
X65713213Y-37756896D01*
X65790442Y-37684416D01*
X65847759Y-37640336D01*
X65894208Y-37617985D01*
X65938833Y-37610695D01*
X65951449Y-37610444D01*
X66016315Y-37615938D01*
X66048379Y-37629426D01*
X66049111Y-37632071D01*
X66030105Y-37658370D01*
X65977612Y-37716992D01*
X65898416Y-37800710D01*
X65799300Y-37902297D01*
X65731169Y-37970738D01*
X65592974Y-38107636D01*
X65485586Y-38205761D01*
X65399195Y-38265532D01*
X65323989Y-38287368D01*
X65250156Y-38271688D01*
X65167887Y-38218910D01*
X65067368Y-38129455D01*
X64939610Y-38004551D01*
X64652111Y-37721325D01*
X64476872Y-37726739D01*
X64344963Y-37720849D01*
X64256701Y-37694830D01*
X64216632Y-37650270D01*
X64214666Y-37635211D01*
X64240906Y-37624878D01*
X64311714Y-37616659D01*
X64415225Y-37611580D01*
X64500690Y-37610444D01*
X64786714Y-37610444D01*
X65045722Y-37864444D01*
G37*
X65045722Y-37864444D02*
X65145179Y-37959967D01*
X65231460Y-38039086D01*
X65296081Y-38094286D01*
X65330558Y-38118053D01*
X65332501Y-38118444D01*
X65361707Y-38099253D01*
X65421307Y-38046873D01*
X65502880Y-37969096D01*
X65598006Y-37873714D01*
X65607030Y-37864444D01*
X65713213Y-37756896D01*
X65790442Y-37684416D01*
X65847759Y-37640336D01*
X65894208Y-37617985D01*
X65938833Y-37610695D01*
X65951449Y-37610444D01*
X66016315Y-37615938D01*
X66048379Y-37629426D01*
X66049111Y-37632071D01*
X66030105Y-37658370D01*
X65977612Y-37716992D01*
X65898416Y-37800710D01*
X65799300Y-37902297D01*
X65731169Y-37970738D01*
X65592974Y-38107636D01*
X65485586Y-38205761D01*
X65399195Y-38265532D01*
X65323989Y-38287368D01*
X65250156Y-38271688D01*
X65167887Y-38218910D01*
X65067368Y-38129455D01*
X64939610Y-38004551D01*
X64652111Y-37721325D01*
X64476872Y-37726739D01*
X64344963Y-37720849D01*
X64256701Y-37694830D01*
X64216632Y-37650270D01*
X64214666Y-37635211D01*
X64240906Y-37624878D01*
X64311714Y-37616659D01*
X64415225Y-37611580D01*
X64500690Y-37610444D01*
X64786714Y-37610444D01*
X65045722Y-37864444D01*
G36*
X66723696Y-37612717D02*
G01*
X66820307Y-37617238D01*
X66880949Y-37625152D01*
X66895778Y-37632764D01*
X66876270Y-37662329D01*
X66826564Y-37715639D01*
X66759887Y-37780377D01*
X66689464Y-37844228D01*
X66628521Y-37894877D01*
X66590284Y-37920006D01*
X66586360Y-37920888D01*
X66555775Y-37902278D01*
X66506844Y-37856821D01*
X66500666Y-37850333D01*
X66451116Y-37802741D01*
X66418005Y-37780083D01*
X66416005Y-37779777D01*
X66391145Y-37798555D01*
X66332213Y-37851012D01*
X66245464Y-37931338D01*
X66137151Y-38033718D01*
X66013531Y-38152341D01*
X65976424Y-38188259D01*
X65555222Y-38596740D01*
X65314776Y-38597481D01*
X65074329Y-38598222D01*
X64540337Y-38062000D01*
X64160263Y-38062000D01*
X63947576Y-37848621D01*
X63860668Y-37760359D01*
X63790913Y-37687480D01*
X63746556Y-37638726D01*
X63734889Y-37623046D01*
X63759894Y-37616348D01*
X63822269Y-37614561D01*
X63846282Y-37615215D01*
X63915876Y-37624729D01*
X63977110Y-37653637D01*
X64047263Y-37711841D01*
X64092166Y-37756123D01*
X64165417Y-37828318D01*
X64220255Y-37869148D01*
X64277785Y-37887552D01*
X64359109Y-37892471D01*
X64414497Y-37892666D01*
X64602338Y-37892666D01*
X64882400Y-38174888D01*
X65162461Y-38457111D01*
X65471261Y-38457111D01*
X65890575Y-38037097D01*
X66309888Y-37617083D01*
X66602833Y-37612404D01*
X66723696Y-37612717D01*
G37*
X66723696Y-37612717D02*
X66820307Y-37617238D01*
X66880949Y-37625152D01*
X66895778Y-37632764D01*
X66876270Y-37662329D01*
X66826564Y-37715639D01*
X66759887Y-37780377D01*
X66689464Y-37844228D01*
X66628521Y-37894877D01*
X66590284Y-37920006D01*
X66586360Y-37920888D01*
X66555775Y-37902278D01*
X66506844Y-37856821D01*
X66500666Y-37850333D01*
X66451116Y-37802741D01*
X66418005Y-37780083D01*
X66416005Y-37779777D01*
X66391145Y-37798555D01*
X66332213Y-37851012D01*
X66245464Y-37931338D01*
X66137151Y-38033718D01*
X66013531Y-38152341D01*
X65976424Y-38188259D01*
X65555222Y-38596740D01*
X65314776Y-38597481D01*
X65074329Y-38598222D01*
X64540337Y-38062000D01*
X64160263Y-38062000D01*
X63947576Y-37848621D01*
X63860668Y-37760359D01*
X63790913Y-37687480D01*
X63746556Y-37638726D01*
X63734889Y-37623046D01*
X63759894Y-37616348D01*
X63822269Y-37614561D01*
X63846282Y-37615215D01*
X63915876Y-37624729D01*
X63977110Y-37653637D01*
X64047263Y-37711841D01*
X64092166Y-37756123D01*
X64165417Y-37828318D01*
X64220255Y-37869148D01*
X64277785Y-37887552D01*
X64359109Y-37892471D01*
X64414497Y-37892666D01*
X64602338Y-37892666D01*
X64882400Y-38174888D01*
X65162461Y-38457111D01*
X65471261Y-38457111D01*
X65890575Y-38037097D01*
X66309888Y-37617083D01*
X66602833Y-37612404D01*
X66723696Y-37612717D01*
G36*
X64082696Y-36659938D02*
G01*
X64119737Y-36612404D01*
X64217015Y-36548656D01*
X64321804Y-36538927D01*
X64426039Y-36582984D01*
X64473008Y-36622666D01*
X64557675Y-36707333D01*
X65762547Y-36707333D01*
X65847213Y-36622666D01*
X65942088Y-36557956D01*
X66039147Y-36540321D01*
X66129719Y-36561830D01*
X66205132Y-36614552D01*
X66256717Y-36690554D01*
X66275800Y-36781905D01*
X66253711Y-36880673D01*
X66207328Y-36952062D01*
X66120534Y-37015513D01*
X66017936Y-37036161D01*
X65917319Y-37013930D01*
X65840253Y-36953636D01*
X65778879Y-36876666D01*
X65151995Y-36876666D01*
X64925383Y-36877939D01*
X64747441Y-36881697D01*
X64620175Y-36887849D01*
X64545590Y-36896302D01*
X64525111Y-36905303D01*
X64502214Y-36938607D01*
X64446766Y-36980646D01*
X64378628Y-37019212D01*
X64317662Y-37042094D01*
X64299333Y-37044105D01*
X64239398Y-37032457D01*
X64196519Y-37018015D01*
X64109213Y-36955889D01*
X64059122Y-36864841D01*
X64051063Y-36779743D01*
X64222075Y-36779743D01*
X64243187Y-36834692D01*
X64276214Y-36869754D01*
X64302545Y-36866816D01*
X64340625Y-36831343D01*
X64369584Y-36786399D01*
X65967164Y-36786399D01*
X65974650Y-36834333D01*
X66007704Y-36873404D01*
X66053586Y-36858556D01*
X66077035Y-36834692D01*
X66098470Y-36778317D01*
X66081502Y-36728293D01*
X66035000Y-36707333D01*
X65987772Y-36730728D01*
X65967164Y-36786399D01*
X64369584Y-36786399D01*
X64369674Y-36786260D01*
X64353296Y-36746676D01*
X64304791Y-36712494D01*
X64280881Y-36707333D01*
X64236865Y-36729350D01*
X64222075Y-36779743D01*
X64051063Y-36779743D01*
X64049274Y-36760861D01*
X64082696Y-36659938D01*
G37*
X64082696Y-36659938D02*
X64119737Y-36612404D01*
X64217015Y-36548656D01*
X64321804Y-36538927D01*
X64426039Y-36582984D01*
X64473008Y-36622666D01*
X64557675Y-36707333D01*
X65762547Y-36707333D01*
X65847213Y-36622666D01*
X65942088Y-36557956D01*
X66039147Y-36540321D01*
X66129719Y-36561830D01*
X66205132Y-36614552D01*
X66256717Y-36690554D01*
X66275800Y-36781905D01*
X66253711Y-36880673D01*
X66207328Y-36952062D01*
X66120534Y-37015513D01*
X66017936Y-37036161D01*
X65917319Y-37013930D01*
X65840253Y-36953636D01*
X65778879Y-36876666D01*
X65151995Y-36876666D01*
X64925383Y-36877939D01*
X64747441Y-36881697D01*
X64620175Y-36887849D01*
X64545590Y-36896302D01*
X64525111Y-36905303D01*
X64502214Y-36938607D01*
X64446766Y-36980646D01*
X64378628Y-37019212D01*
X64317662Y-37042094D01*
X64299333Y-37044105D01*
X64239398Y-37032457D01*
X64196519Y-37018015D01*
X64109213Y-36955889D01*
X64059122Y-36864841D01*
X64051063Y-36779743D01*
X64222075Y-36779743D01*
X64243187Y-36834692D01*
X64276214Y-36869754D01*
X64302545Y-36866816D01*
X64340625Y-36831343D01*
X64369584Y-36786399D01*
X65967164Y-36786399D01*
X65974650Y-36834333D01*
X66007704Y-36873404D01*
X66053586Y-36858556D01*
X66077035Y-36834692D01*
X66098470Y-36778317D01*
X66081502Y-36728293D01*
X66035000Y-36707333D01*
X65987772Y-36730728D01*
X65967164Y-36786399D01*
X64369584Y-36786399D01*
X64369674Y-36786260D01*
X64353296Y-36746676D01*
X64304791Y-36712494D01*
X64280881Y-36707333D01*
X64236865Y-36729350D01*
X64222075Y-36779743D01*
X64051063Y-36779743D01*
X64049274Y-36760861D01*
X64082696Y-36659938D01*
G36*
X67262084Y-37614786D02*
G01*
X67264780Y-37614943D01*
X67378226Y-37621637D01*
X66582778Y-38414777D01*
X66496459Y-38319330D01*
X66410139Y-38223883D01*
X66052844Y-38580386D01*
X65695548Y-38936888D01*
X65510721Y-38936888D01*
X65407021Y-38939366D01*
X65340351Y-38950902D01*
X65291372Y-38977655D01*
X65244778Y-39021555D01*
X65190836Y-39074226D01*
X65153767Y-39103831D01*
X65147775Y-39106190D01*
X65123515Y-39087343D01*
X65065923Y-39035040D01*
X64981714Y-38955606D01*
X64877601Y-38855364D01*
X64773273Y-38753412D01*
X64414658Y-38400666D01*
X64030438Y-38400666D01*
X63656885Y-38026343D01*
X63539429Y-37907514D01*
X63437119Y-37801847D01*
X63356182Y-37715952D01*
X63302846Y-37656440D01*
X63283336Y-37629919D01*
X63283333Y-37629821D01*
X63308166Y-37618446D01*
X63370253Y-37616906D01*
X63396095Y-37618898D01*
X63444274Y-37627293D01*
X63491074Y-37646363D01*
X63544793Y-37682424D01*
X63613729Y-37741792D01*
X63706180Y-37830783D01*
X63805816Y-37930753D01*
X64102775Y-38231333D01*
X64296237Y-38231333D01*
X64399811Y-38232858D01*
X64466880Y-38242636D01*
X64517380Y-38268467D01*
X64571251Y-38318153D01*
X64602756Y-38351277D01*
X64672983Y-38424078D01*
X64768371Y-38520698D01*
X64873568Y-38625656D01*
X64930166Y-38681447D01*
X65144520Y-38891673D01*
X65210579Y-38829614D01*
X65259923Y-38793822D01*
X65322863Y-38774775D01*
X65417637Y-38767918D01*
X65459147Y-38767555D01*
X65641657Y-38767555D01*
X66015710Y-38386555D01*
X66133912Y-38267304D01*
X66239132Y-38163322D01*
X66324856Y-38080868D01*
X66384574Y-38026202D01*
X66411773Y-38005583D01*
X66412073Y-38005555D01*
X66444716Y-38024244D01*
X66494712Y-38069866D01*
X66500666Y-38076111D01*
X66553308Y-38124004D01*
X66593027Y-38146435D01*
X66595561Y-38146666D01*
X66624884Y-38127514D01*
X66685036Y-38075074D01*
X66767856Y-37996865D01*
X66865178Y-37900409D01*
X66887753Y-37877458D01*
X66995289Y-37768507D01*
X67072746Y-37693995D01*
X67129140Y-37647643D01*
X67173484Y-37623176D01*
X67214794Y-37614316D01*
X67262084Y-37614786D01*
G37*
X67262084Y-37614786D02*
X67264780Y-37614943D01*
X67378226Y-37621637D01*
X66582778Y-38414777D01*
X66496459Y-38319330D01*
X66410139Y-38223883D01*
X66052844Y-38580386D01*
X65695548Y-38936888D01*
X65510721Y-38936888D01*
X65407021Y-38939366D01*
X65340351Y-38950902D01*
X65291372Y-38977655D01*
X65244778Y-39021555D01*
X65190836Y-39074226D01*
X65153767Y-39103831D01*
X65147775Y-39106190D01*
X65123515Y-39087343D01*
X65065923Y-39035040D01*
X64981714Y-38955606D01*
X64877601Y-38855364D01*
X64773273Y-38753412D01*
X64414658Y-38400666D01*
X64030438Y-38400666D01*
X63656885Y-38026343D01*
X63539429Y-37907514D01*
X63437119Y-37801847D01*
X63356182Y-37715952D01*
X63302846Y-37656440D01*
X63283336Y-37629919D01*
X63283333Y-37629821D01*
X63308166Y-37618446D01*
X63370253Y-37616906D01*
X63396095Y-37618898D01*
X63444274Y-37627293D01*
X63491074Y-37646363D01*
X63544793Y-37682424D01*
X63613729Y-37741792D01*
X63706180Y-37830783D01*
X63805816Y-37930753D01*
X64102775Y-38231333D01*
X64296237Y-38231333D01*
X64399811Y-38232858D01*
X64466880Y-38242636D01*
X64517380Y-38268467D01*
X64571251Y-38318153D01*
X64602756Y-38351277D01*
X64672983Y-38424078D01*
X64768371Y-38520698D01*
X64873568Y-38625656D01*
X64930166Y-38681447D01*
X65144520Y-38891673D01*
X65210579Y-38829614D01*
X65259923Y-38793822D01*
X65322863Y-38774775D01*
X65417637Y-38767918D01*
X65459147Y-38767555D01*
X65641657Y-38767555D01*
X66015710Y-38386555D01*
X66133912Y-38267304D01*
X66239132Y-38163322D01*
X66324856Y-38080868D01*
X66384574Y-38026202D01*
X66411773Y-38005583D01*
X66412073Y-38005555D01*
X66444716Y-38024244D01*
X66494712Y-38069866D01*
X66500666Y-38076111D01*
X66553308Y-38124004D01*
X66593027Y-38146435D01*
X66595561Y-38146666D01*
X66624884Y-38127514D01*
X66685036Y-38075074D01*
X66767856Y-37996865D01*
X66865178Y-37900409D01*
X66887753Y-37877458D01*
X66995289Y-37768507D01*
X67072746Y-37693995D01*
X67129140Y-37647643D01*
X67173484Y-37623176D01*
X67214794Y-37614316D01*
X67262084Y-37614786D01*
G36*
X66486555Y-36326333D02*
G01*
X66112190Y-36318455D01*
X65737825Y-36310578D01*
X65493866Y-36071511D01*
X65388176Y-35969469D01*
X65311858Y-35901274D01*
X65255009Y-35860230D01*
X65207726Y-35839644D01*
X65160107Y-35832821D01*
X65140226Y-35832444D01*
X65029477Y-35810358D01*
X64949775Y-35752140D01*
X64902780Y-35669850D01*
X64892383Y-35592203D01*
X65065647Y-35592203D01*
X65072858Y-35624215D01*
X65106817Y-35657060D01*
X65152699Y-35650739D01*
X65189406Y-35611863D01*
X65197351Y-35585211D01*
X65191781Y-35535483D01*
X65149628Y-35522000D01*
X65086335Y-35541264D01*
X65065647Y-35592203D01*
X64892383Y-35592203D01*
X64890152Y-35575546D01*
X64913552Y-35481290D01*
X64974641Y-35399140D01*
X65072696Y-35341993D01*
X65135081Y-35337611D01*
X65215450Y-35352425D01*
X65223594Y-35354989D01*
X65309859Y-35409552D01*
X65367700Y-35496338D01*
X65386105Y-35595839D01*
X65380472Y-35632912D01*
X65380190Y-35668929D01*
X65401212Y-35713881D01*
X65449437Y-35775997D01*
X65530762Y-35863509D01*
X65585900Y-35919581D01*
X65807898Y-36142888D01*
X66670000Y-36142888D01*
X66670000Y-36425111D01*
X66670475Y-36553191D01*
X66673564Y-36635131D01*
X66681765Y-36681235D01*
X66697574Y-36701806D01*
X66723488Y-36707151D01*
X66738384Y-36707333D01*
X66802787Y-36687440D01*
X66875749Y-36637369D01*
X66891436Y-36622666D01*
X66984811Y-36559284D01*
X67081240Y-36541839D01*
X67171983Y-36562579D01*
X67248297Y-36613752D01*
X67301443Y-36687604D01*
X67322681Y-36776383D01*
X67303269Y-36872337D01*
X67255611Y-36945678D01*
X67160853Y-37016382D01*
X67052943Y-37033802D01*
X66940494Y-36996734D01*
X66931055Y-36991065D01*
X66871818Y-36947355D01*
X66840708Y-36911099D01*
X66839333Y-36905303D01*
X66813513Y-36889763D01*
X66745522Y-36879481D01*
X66671022Y-36876666D01*
X66502710Y-36876666D01*
X66500354Y-36796370D01*
X67012425Y-36796370D01*
X67032306Y-36844364D01*
X67041167Y-36851097D01*
X67088939Y-36854604D01*
X67129188Y-36821146D01*
X67143935Y-36769229D01*
X67139611Y-36749769D01*
X67101029Y-36714634D01*
X67072576Y-36712627D01*
X67027871Y-36743540D01*
X67012425Y-36796370D01*
X66500354Y-36796370D01*
X66494633Y-36601500D01*
X66486555Y-36326333D01*
G37*
X66486555Y-36326333D02*
X66112190Y-36318455D01*
X65737825Y-36310578D01*
X65493866Y-36071511D01*
X65388176Y-35969469D01*
X65311858Y-35901274D01*
X65255009Y-35860230D01*
X65207726Y-35839644D01*
X65160107Y-35832821D01*
X65140226Y-35832444D01*
X65029477Y-35810358D01*
X64949775Y-35752140D01*
X64902780Y-35669850D01*
X64892383Y-35592203D01*
X65065647Y-35592203D01*
X65072858Y-35624215D01*
X65106817Y-35657060D01*
X65152699Y-35650739D01*
X65189406Y-35611863D01*
X65197351Y-35585211D01*
X65191781Y-35535483D01*
X65149628Y-35522000D01*
X65086335Y-35541264D01*
X65065647Y-35592203D01*
X64892383Y-35592203D01*
X64890152Y-35575546D01*
X64913552Y-35481290D01*
X64974641Y-35399140D01*
X65072696Y-35341993D01*
X65135081Y-35337611D01*
X65215450Y-35352425D01*
X65223594Y-35354989D01*
X65309859Y-35409552D01*
X65367700Y-35496338D01*
X65386105Y-35595839D01*
X65380472Y-35632912D01*
X65380190Y-35668929D01*
X65401212Y-35713881D01*
X65449437Y-35775997D01*
X65530762Y-35863509D01*
X65585900Y-35919581D01*
X65807898Y-36142888D01*
X66670000Y-36142888D01*
X66670000Y-36425111D01*
X66670475Y-36553191D01*
X66673564Y-36635131D01*
X66681765Y-36681235D01*
X66697574Y-36701806D01*
X66723488Y-36707151D01*
X66738384Y-36707333D01*
X66802787Y-36687440D01*
X66875749Y-36637369D01*
X66891436Y-36622666D01*
X66984811Y-36559284D01*
X67081240Y-36541839D01*
X67171983Y-36562579D01*
X67248297Y-36613752D01*
X67301443Y-36687604D01*
X67322681Y-36776383D01*
X67303269Y-36872337D01*
X67255611Y-36945678D01*
X67160853Y-37016382D01*
X67052943Y-37033802D01*
X66940494Y-36996734D01*
X66931055Y-36991065D01*
X66871818Y-36947355D01*
X66840708Y-36911099D01*
X66839333Y-36905303D01*
X66813513Y-36889763D01*
X66745522Y-36879481D01*
X66671022Y-36876666D01*
X66502710Y-36876666D01*
X66500354Y-36796370D01*
X67012425Y-36796370D01*
X67032306Y-36844364D01*
X67041167Y-36851097D01*
X67088939Y-36854604D01*
X67129188Y-36821146D01*
X67143935Y-36769229D01*
X67139611Y-36749769D01*
X67101029Y-36714634D01*
X67072576Y-36712627D01*
X67027871Y-36743540D01*
X67012425Y-36796370D01*
X66500354Y-36796370D01*
X66494633Y-36601500D01*
X66486555Y-36326333D01*
G36*
X62480508Y-37612946D02*
G01*
X62512531Y-37623195D01*
X62551294Y-37645304D01*
X62601506Y-37683387D01*
X62667875Y-37741558D01*
X62755108Y-37823929D01*
X62867914Y-37934615D01*
X63011000Y-38077728D01*
X63177241Y-38245422D01*
X63805444Y-38880400D01*
X64203596Y-38880444D01*
X64664520Y-39346111D01*
X64796055Y-39478242D01*
X64914526Y-39595811D01*
X65014163Y-39693206D01*
X65089195Y-39764820D01*
X65133851Y-39805042D01*
X65143593Y-39811777D01*
X65170162Y-39793014D01*
X65226181Y-39742736D01*
X65301822Y-39669962D01*
X65343555Y-39628333D01*
X65525369Y-39444888D01*
X65892828Y-39444888D01*
X66153924Y-39184878D01*
X66415021Y-38924867D01*
X66601487Y-39105597D01*
X67303621Y-38400354D01*
X67467568Y-38236549D01*
X67619651Y-38086261D01*
X67755151Y-37954025D01*
X67869350Y-37844377D01*
X67957531Y-37761851D01*
X68014974Y-37710983D01*
X68036378Y-37696008D01*
X68082290Y-37712500D01*
X68114900Y-37733309D01*
X68123658Y-37745949D01*
X68121000Y-37766075D01*
X68103567Y-37797425D01*
X68068000Y-37843734D01*
X68010940Y-37908741D01*
X67929028Y-37996183D01*
X67818905Y-38109796D01*
X67677211Y-38253318D01*
X67500588Y-38430486D01*
X67379762Y-38551186D01*
X66596724Y-39332660D01*
X66504818Y-39242805D01*
X66412912Y-39152949D01*
X66195109Y-39369474D01*
X65977307Y-39586000D01*
X65606873Y-39586000D01*
X65378656Y-39811777D01*
X65287395Y-39901304D01*
X65211798Y-39974033D01*
X65160210Y-40022031D01*
X65141164Y-40037531D01*
X65119507Y-40018431D01*
X65063500Y-39964734D01*
X64978634Y-39881829D01*
X64870400Y-39775102D01*
X64744289Y-39649939D01*
X64638000Y-39543935D01*
X64144111Y-39050363D01*
X63946344Y-39050070D01*
X63748576Y-39049777D01*
X63050288Y-38351070D01*
X62887600Y-38187706D01*
X62738345Y-38036718D01*
X62607061Y-37902783D01*
X62498286Y-37790576D01*
X62416555Y-37704774D01*
X62366408Y-37650052D01*
X62352000Y-37631403D01*
X62376826Y-37617530D01*
X62437844Y-37610618D01*
X62450519Y-37610444D01*
X62480508Y-37612946D01*
G37*
X62480508Y-37612946D02*
X62512531Y-37623195D01*
X62551294Y-37645304D01*
X62601506Y-37683387D01*
X62667875Y-37741558D01*
X62755108Y-37823929D01*
X62867914Y-37934615D01*
X63011000Y-38077728D01*
X63177241Y-38245422D01*
X63805444Y-38880400D01*
X64203596Y-38880444D01*
X64664520Y-39346111D01*
X64796055Y-39478242D01*
X64914526Y-39595811D01*
X65014163Y-39693206D01*
X65089195Y-39764820D01*
X65133851Y-39805042D01*
X65143593Y-39811777D01*
X65170162Y-39793014D01*
X65226181Y-39742736D01*
X65301822Y-39669962D01*
X65343555Y-39628333D01*
X65525369Y-39444888D01*
X65892828Y-39444888D01*
X66153924Y-39184878D01*
X66415021Y-38924867D01*
X66601487Y-39105597D01*
X67303621Y-38400354D01*
X67467568Y-38236549D01*
X67619651Y-38086261D01*
X67755151Y-37954025D01*
X67869350Y-37844377D01*
X67957531Y-37761851D01*
X68014974Y-37710983D01*
X68036378Y-37696008D01*
X68082290Y-37712500D01*
X68114900Y-37733309D01*
X68123658Y-37745949D01*
X68121000Y-37766075D01*
X68103567Y-37797425D01*
X68068000Y-37843734D01*
X68010940Y-37908741D01*
X67929028Y-37996183D01*
X67818905Y-38109796D01*
X67677211Y-38253318D01*
X67500588Y-38430486D01*
X67379762Y-38551186D01*
X66596724Y-39332660D01*
X66504818Y-39242805D01*
X66412912Y-39152949D01*
X66195109Y-39369474D01*
X65977307Y-39586000D01*
X65606873Y-39586000D01*
X65378656Y-39811777D01*
X65287395Y-39901304D01*
X65211798Y-39974033D01*
X65160210Y-40022031D01*
X65141164Y-40037531D01*
X65119507Y-40018431D01*
X65063500Y-39964734D01*
X64978634Y-39881829D01*
X64870400Y-39775102D01*
X64744289Y-39649939D01*
X64638000Y-39543935D01*
X64144111Y-39050363D01*
X63946344Y-39050070D01*
X63748576Y-39049777D01*
X63050288Y-38351070D01*
X62887600Y-38187706D01*
X62738345Y-38036718D01*
X62607061Y-37902783D01*
X62498286Y-37790576D01*
X62416555Y-37704774D01*
X62366408Y-37650052D01*
X62352000Y-37631403D01*
X62376826Y-37617530D01*
X62437844Y-37610618D01*
X62450519Y-37610444D01*
X62480508Y-37612946D01*
G36*
X66368566Y-34600770D02*
G01*
X66373959Y-34590101D01*
X66447977Y-34496677D01*
X66541334Y-34452727D01*
X66643465Y-34459854D01*
X66743807Y-34519657D01*
X66756837Y-34532051D01*
X66824798Y-34631727D01*
X66842992Y-34734719D01*
X66815222Y-34829302D01*
X66745289Y-34903754D01*
X66636996Y-34946351D01*
X66621685Y-34948755D01*
X66539700Y-34953802D01*
X66481987Y-34934458D01*
X66419535Y-34880762D01*
X66417362Y-34878593D01*
X66350685Y-34790882D01*
X66337012Y-34713692D01*
X66516467Y-34713692D01*
X66536738Y-34756560D01*
X66592611Y-34786573D01*
X66639304Y-34767085D01*
X66652961Y-34743342D01*
X66656888Y-34681435D01*
X66614090Y-34649841D01*
X66586687Y-34647111D01*
X66534283Y-34667553D01*
X66516467Y-34713692D01*
X66337012Y-34713692D01*
X66335201Y-34703471D01*
X66368566Y-34600770D01*
G37*
X66368566Y-34600770D02*
X66373959Y-34590101D01*
X66447977Y-34496677D01*
X66541334Y-34452727D01*
X66643465Y-34459854D01*
X66743807Y-34519657D01*
X66756837Y-34532051D01*
X66824798Y-34631727D01*
X66842992Y-34734719D01*
X66815222Y-34829302D01*
X66745289Y-34903754D01*
X66636996Y-34946351D01*
X66621685Y-34948755D01*
X66539700Y-34953802D01*
X66481987Y-34934458D01*
X66419535Y-34880762D01*
X66417362Y-34878593D01*
X66350685Y-34790882D01*
X66337012Y-34713692D01*
X66516467Y-34713692D01*
X66536738Y-34756560D01*
X66592611Y-34786573D01*
X66639304Y-34767085D01*
X66652961Y-34743342D01*
X66656888Y-34681435D01*
X66614090Y-34649841D01*
X66586687Y-34647111D01*
X66534283Y-34667553D01*
X66516467Y-34713692D01*
X66337012Y-34713692D01*
X66335201Y-34703471D01*
X66368566Y-34600770D01*
G36*
X62970273Y-37618361D02*
G01*
X63006648Y-37633787D01*
X63052113Y-37664778D01*
X63112553Y-37716005D01*
X63193852Y-37792143D01*
X63301893Y-37897864D01*
X63442561Y-38037840D01*
X63479462Y-38074686D01*
X63948288Y-38542903D01*
X64130866Y-38544541D01*
X64313444Y-38546180D01*
X64723431Y-38953623D01*
X65133418Y-39361067D01*
X65258474Y-39233644D01*
X65327865Y-39165511D01*
X65381391Y-39127393D01*
X65440420Y-39110575D01*
X65526322Y-39106343D01*
X65570934Y-39106222D01*
X65758338Y-39106222D01*
X66078658Y-38781558D01*
X66398979Y-38456895D01*
X66492783Y-38547813D01*
X66586586Y-38638731D01*
X67103285Y-38122599D01*
X67260317Y-37965972D01*
X67382984Y-37844839D01*
X67476798Y-37754744D01*
X67547271Y-37691232D01*
X67599912Y-37649847D01*
X67640235Y-37626135D01*
X67673751Y-37615640D01*
X67705970Y-37613907D01*
X67730578Y-37615511D01*
X67841173Y-37624555D01*
X67225065Y-38231333D01*
X67071260Y-38382413D01*
X66930157Y-38520257D01*
X66806820Y-38639979D01*
X66706313Y-38736691D01*
X66633700Y-38805506D01*
X66594046Y-38841536D01*
X66588463Y-38845708D01*
X66557438Y-38832383D01*
X66508426Y-38789758D01*
X66501176Y-38782208D01*
X66447695Y-38734033D01*
X66406341Y-38711364D01*
X66403495Y-38711111D01*
X66373416Y-38730140D01*
X66312020Y-38782389D01*
X66227328Y-38860604D01*
X66127365Y-38957527D01*
X66091444Y-38993333D01*
X65810281Y-39275555D01*
X65443970Y-39275555D01*
X65130732Y-39585525D01*
X64694207Y-39148318D01*
X64257683Y-38711111D01*
X63890111Y-38710009D01*
X63340996Y-38167282D01*
X62791880Y-37624555D01*
X62901258Y-37615512D01*
X62937105Y-37613827D01*
X62970273Y-37618361D01*
G37*
X62970273Y-37618361D02*
X63006648Y-37633787D01*
X63052113Y-37664778D01*
X63112553Y-37716005D01*
X63193852Y-37792143D01*
X63301893Y-37897864D01*
X63442561Y-38037840D01*
X63479462Y-38074686D01*
X63948288Y-38542903D01*
X64130866Y-38544541D01*
X64313444Y-38546180D01*
X64723431Y-38953623D01*
X65133418Y-39361067D01*
X65258474Y-39233644D01*
X65327865Y-39165511D01*
X65381391Y-39127393D01*
X65440420Y-39110575D01*
X65526322Y-39106343D01*
X65570934Y-39106222D01*
X65758338Y-39106222D01*
X66078658Y-38781558D01*
X66398979Y-38456895D01*
X66492783Y-38547813D01*
X66586586Y-38638731D01*
X67103285Y-38122599D01*
X67260317Y-37965972D01*
X67382984Y-37844839D01*
X67476798Y-37754744D01*
X67547271Y-37691232D01*
X67599912Y-37649847D01*
X67640235Y-37626135D01*
X67673751Y-37615640D01*
X67705970Y-37613907D01*
X67730578Y-37615511D01*
X67841173Y-37624555D01*
X67225065Y-38231333D01*
X67071260Y-38382413D01*
X66930157Y-38520257D01*
X66806820Y-38639979D01*
X66706313Y-38736691D01*
X66633700Y-38805506D01*
X66594046Y-38841536D01*
X66588463Y-38845708D01*
X66557438Y-38832383D01*
X66508426Y-38789758D01*
X66501176Y-38782208D01*
X66447695Y-38734033D01*
X66406341Y-38711364D01*
X66403495Y-38711111D01*
X66373416Y-38730140D01*
X66312020Y-38782389D01*
X66227328Y-38860604D01*
X66127365Y-38957527D01*
X66091444Y-38993333D01*
X65810281Y-39275555D01*
X65443970Y-39275555D01*
X65130732Y-39585525D01*
X64694207Y-39148318D01*
X64257683Y-38711111D01*
X63890111Y-38710009D01*
X63340996Y-38167282D01*
X62791880Y-37624555D01*
X62901258Y-37615512D01*
X62937105Y-37613827D01*
X62970273Y-37618361D01*
G36*
X63766382Y-35716566D02*
G01*
X63941135Y-35728944D01*
X64115889Y-35741322D01*
X64626583Y-35234833D01*
X65137277Y-34728345D01*
X65366613Y-34955839D01*
X65595948Y-35183333D01*
X65972365Y-35183333D01*
X66180626Y-35395000D01*
X66268548Y-35482289D01*
X66342716Y-35552076D01*
X66393907Y-35595909D01*
X66411635Y-35606666D01*
X66444589Y-35587965D01*
X66494746Y-35542319D01*
X66500666Y-35536111D01*
X66551925Y-35488351D01*
X66588688Y-35465818D01*
X66591015Y-35465555D01*
X66616631Y-35484682D01*
X66676662Y-35538619D01*
X66765674Y-35622199D01*
X66878234Y-35730256D01*
X67008908Y-35857622D01*
X67152263Y-35999132D01*
X67154926Y-36001777D01*
X67317066Y-36162404D01*
X67444772Y-36287407D01*
X67543374Y-36381223D01*
X67618201Y-36448287D01*
X67674584Y-36493037D01*
X67717852Y-36519907D01*
X67753335Y-36533336D01*
X67786363Y-36537758D01*
X67799154Y-36538000D01*
X67911388Y-36559651D01*
X67991844Y-36616731D01*
X68039635Y-36697426D01*
X68053876Y-36789923D01*
X68033678Y-36882411D01*
X67978156Y-36963075D01*
X67886424Y-37020104D01*
X67836400Y-37034264D01*
X67769806Y-37037587D01*
X67709244Y-37010892D01*
X67655245Y-36967291D01*
X67593570Y-36902651D01*
X67567936Y-36840735D01*
X67565991Y-36790168D01*
X67744920Y-36790168D01*
X67758821Y-36837977D01*
X67772386Y-36849507D01*
X67830680Y-36861118D01*
X67871209Y-36829160D01*
X67877992Y-36781352D01*
X67848901Y-36730879D01*
X67813386Y-36721444D01*
X67765819Y-36742858D01*
X67744920Y-36790168D01*
X67565991Y-36790168D01*
X67565291Y-36771984D01*
X67565292Y-36735995D01*
X67559088Y-36702191D01*
X67542037Y-36664825D01*
X67509498Y-36618151D01*
X67456827Y-36556422D01*
X67379382Y-36473892D01*
X67272521Y-36364815D01*
X67131601Y-36223443D01*
X67082560Y-36174444D01*
X66595403Y-35687884D01*
X66505136Y-35780211D01*
X66414870Y-35872537D01*
X66153849Y-35612602D01*
X65892828Y-35352666D01*
X65520456Y-35352666D01*
X65332675Y-35163030D01*
X65144893Y-34973394D01*
X64672422Y-35445252D01*
X64199950Y-35917111D01*
X63807931Y-35917111D01*
X63157577Y-36566054D01*
X62507222Y-37214998D01*
X65305258Y-37215165D01*
X65769100Y-37215118D01*
X66179681Y-37214884D01*
X66540187Y-37214416D01*
X66853802Y-37213667D01*
X67123710Y-37212588D01*
X67353095Y-37211132D01*
X67545143Y-37209251D01*
X67703036Y-37206897D01*
X67829960Y-37204023D01*
X67929099Y-37200581D01*
X68003637Y-37196522D01*
X68056758Y-37191800D01*
X68091648Y-37186367D01*
X68111490Y-37180174D01*
X68119468Y-37173174D01*
X68119555Y-37172958D01*
X68154303Y-37133594D01*
X68218894Y-37091298D01*
X68232423Y-37084514D01*
X68298246Y-37057296D01*
X68348721Y-37055393D01*
X68412144Y-37079790D01*
X68436366Y-37091611D01*
X68532579Y-37165037D01*
X68580203Y-37259558D01*
X68577459Y-37364726D01*
X68522566Y-37470092D01*
X68504437Y-37491061D01*
X68418622Y-37546088D01*
X68317852Y-37553174D01*
X68215558Y-37513167D01*
X68161564Y-37469461D01*
X68077026Y-37384923D01*
X65099750Y-37377739D01*
X62122475Y-37370555D01*
X62176832Y-37315864D01*
X68252873Y-37315864D01*
X68275500Y-37360293D01*
X68327297Y-37380484D01*
X68342040Y-37379590D01*
X68395238Y-37351585D01*
X68405666Y-37314497D01*
X68383237Y-37266074D01*
X68332572Y-37245405D01*
X68278608Y-37261302D01*
X68271921Y-37267234D01*
X68252873Y-37315864D01*
X62176832Y-37315864D01*
X62944428Y-36543560D01*
X63766382Y-35716566D01*
G37*
X63766382Y-35716566D02*
X63941135Y-35728944D01*
X64115889Y-35741322D01*
X64626583Y-35234833D01*
X65137277Y-34728345D01*
X65366613Y-34955839D01*
X65595948Y-35183333D01*
X65972365Y-35183333D01*
X66180626Y-35395000D01*
X66268548Y-35482289D01*
X66342716Y-35552076D01*
X66393907Y-35595909D01*
X66411635Y-35606666D01*
X66444589Y-35587965D01*
X66494746Y-35542319D01*
X66500666Y-35536111D01*
X66551925Y-35488351D01*
X66588688Y-35465818D01*
X66591015Y-35465555D01*
X66616631Y-35484682D01*
X66676662Y-35538619D01*
X66765674Y-35622199D01*
X66878234Y-35730256D01*
X67008908Y-35857622D01*
X67152263Y-35999132D01*
X67154926Y-36001777D01*
X67317066Y-36162404D01*
X67444772Y-36287407D01*
X67543374Y-36381223D01*
X67618201Y-36448287D01*
X67674584Y-36493037D01*
X67717852Y-36519907D01*
X67753335Y-36533336D01*
X67786363Y-36537758D01*
X67799154Y-36538000D01*
X67911388Y-36559651D01*
X67991844Y-36616731D01*
X68039635Y-36697426D01*
X68053876Y-36789923D01*
X68033678Y-36882411D01*
X67978156Y-36963075D01*
X67886424Y-37020104D01*
X67836400Y-37034264D01*
X67769806Y-37037587D01*
X67709244Y-37010892D01*
X67655245Y-36967291D01*
X67593570Y-36902651D01*
X67567936Y-36840735D01*
X67565991Y-36790168D01*
X67744920Y-36790168D01*
X67758821Y-36837977D01*
X67772386Y-36849507D01*
X67830680Y-36861118D01*
X67871209Y-36829160D01*
X67877992Y-36781352D01*
X67848901Y-36730879D01*
X67813386Y-36721444D01*
X67765819Y-36742858D01*
X67744920Y-36790168D01*
X67565991Y-36790168D01*
X67565291Y-36771984D01*
X67565292Y-36735995D01*
X67559088Y-36702191D01*
X67542037Y-36664825D01*
X67509498Y-36618151D01*
X67456827Y-36556422D01*
X67379382Y-36473892D01*
X67272521Y-36364815D01*
X67131601Y-36223443D01*
X67082560Y-36174444D01*
X66595403Y-35687884D01*
X66505136Y-35780211D01*
X66414870Y-35872537D01*
X66153849Y-35612602D01*
X65892828Y-35352666D01*
X65520456Y-35352666D01*
X65332675Y-35163030D01*
X65144893Y-34973394D01*
X64672422Y-35445252D01*
X64199950Y-35917111D01*
X63807931Y-35917111D01*
X63157577Y-36566054D01*
X62507222Y-37214998D01*
X65305258Y-37215165D01*
X65769100Y-37215118D01*
X66179681Y-37214884D01*
X66540187Y-37214416D01*
X66853802Y-37213667D01*
X67123710Y-37212588D01*
X67353095Y-37211132D01*
X67545143Y-37209251D01*
X67703036Y-37206897D01*
X67829960Y-37204023D01*
X67929099Y-37200581D01*
X68003637Y-37196522D01*
X68056758Y-37191800D01*
X68091648Y-37186367D01*
X68111490Y-37180174D01*
X68119468Y-37173174D01*
X68119555Y-37172958D01*
X68154303Y-37133594D01*
X68218894Y-37091298D01*
X68232423Y-37084514D01*
X68298246Y-37057296D01*
X68348721Y-37055393D01*
X68412144Y-37079790D01*
X68436366Y-37091611D01*
X68532579Y-37165037D01*
X68580203Y-37259558D01*
X68577459Y-37364726D01*
X68522566Y-37470092D01*
X68504437Y-37491061D01*
X68418622Y-37546088D01*
X68317852Y-37553174D01*
X68215558Y-37513167D01*
X68161564Y-37469461D01*
X68077026Y-37384923D01*
X65099750Y-37377739D01*
X62122475Y-37370555D01*
X62176832Y-37315864D01*
X68252873Y-37315864D01*
X68275500Y-37360293D01*
X68327297Y-37380484D01*
X68342040Y-37379590D01*
X68395238Y-37351585D01*
X68405666Y-37314497D01*
X68383237Y-37266074D01*
X68332572Y-37245405D01*
X68278608Y-37261302D01*
X68271921Y-37267234D01*
X68252873Y-37315864D01*
X62176832Y-37315864D01*
X62944428Y-36543560D01*
X63766382Y-35716566D01*
G36*
X63370490Y-36614565D02*
G01*
X63445486Y-36557481D01*
X63540554Y-36538000D01*
X63600231Y-36528357D01*
X63664286Y-36494207D01*
X63745597Y-36427715D01*
X63790258Y-36386100D01*
X63853286Y-36325981D01*
X65065647Y-36325981D01*
X65072858Y-36357992D01*
X65106817Y-36390838D01*
X65152699Y-36384517D01*
X65189406Y-36345641D01*
X65197351Y-36318989D01*
X65191781Y-36269261D01*
X65149628Y-36255777D01*
X65086335Y-36275042D01*
X65065647Y-36325981D01*
X63853286Y-36325981D01*
X63949508Y-36234201D01*
X64417157Y-36233192D01*
X64589571Y-36232583D01*
X64714808Y-36230769D01*
X64802134Y-36226486D01*
X64860817Y-36218465D01*
X64900123Y-36205441D01*
X64929319Y-36186147D01*
X64957674Y-36159316D01*
X64957676Y-36159313D01*
X65051561Y-36097051D01*
X65150094Y-36081625D01*
X65242877Y-36105784D01*
X65319512Y-36162280D01*
X65369601Y-36243864D01*
X65382748Y-36343286D01*
X65356613Y-36437455D01*
X65289199Y-36522822D01*
X65196377Y-36569141D01*
X65094088Y-36574022D01*
X64998274Y-36535076D01*
X64956853Y-36497355D01*
X64932018Y-36470250D01*
X64905391Y-36450946D01*
X64867638Y-36438120D01*
X64809426Y-36430447D01*
X64721418Y-36426604D01*
X64594281Y-36425267D01*
X64447526Y-36425111D01*
X64000344Y-36425111D01*
X63890157Y-36537952D01*
X63825072Y-36610648D01*
X63793289Y-36669343D01*
X63784838Y-36736278D01*
X63785779Y-36770785D01*
X63775291Y-36886515D01*
X63726616Y-36965828D01*
X63639029Y-37016668D01*
X63573180Y-37038803D01*
X63528504Y-37040520D01*
X63480889Y-37026068D01*
X63388969Y-36968864D01*
X63333506Y-36886540D01*
X63312963Y-36791667D01*
X63313165Y-36790168D01*
X63483364Y-36790168D01*
X63497265Y-36837977D01*
X63510830Y-36849507D01*
X63569125Y-36861118D01*
X63609653Y-36829160D01*
X63616436Y-36781352D01*
X63587346Y-36730879D01*
X63551831Y-36721444D01*
X63504263Y-36742858D01*
X63483364Y-36790168D01*
X63313165Y-36790168D01*
X63325804Y-36696817D01*
X63370490Y-36614565D01*
G37*
X63370490Y-36614565D02*
X63445486Y-36557481D01*
X63540554Y-36538000D01*
X63600231Y-36528357D01*
X63664286Y-36494207D01*
X63745597Y-36427715D01*
X63790258Y-36386100D01*
X63853286Y-36325981D01*
X65065647Y-36325981D01*
X65072858Y-36357992D01*
X65106817Y-36390838D01*
X65152699Y-36384517D01*
X65189406Y-36345641D01*
X65197351Y-36318989D01*
X65191781Y-36269261D01*
X65149628Y-36255777D01*
X65086335Y-36275042D01*
X65065647Y-36325981D01*
X63853286Y-36325981D01*
X63949508Y-36234201D01*
X64417157Y-36233192D01*
X64589571Y-36232583D01*
X64714808Y-36230769D01*
X64802134Y-36226486D01*
X64860817Y-36218465D01*
X64900123Y-36205441D01*
X64929319Y-36186147D01*
X64957674Y-36159316D01*
X64957676Y-36159313D01*
X65051561Y-36097051D01*
X65150094Y-36081625D01*
X65242877Y-36105784D01*
X65319512Y-36162280D01*
X65369601Y-36243864D01*
X65382748Y-36343286D01*
X65356613Y-36437455D01*
X65289199Y-36522822D01*
X65196377Y-36569141D01*
X65094088Y-36574022D01*
X64998274Y-36535076D01*
X64956853Y-36497355D01*
X64932018Y-36470250D01*
X64905391Y-36450946D01*
X64867638Y-36438120D01*
X64809426Y-36430447D01*
X64721418Y-36426604D01*
X64594281Y-36425267D01*
X64447526Y-36425111D01*
X64000344Y-36425111D01*
X63890157Y-36537952D01*
X63825072Y-36610648D01*
X63793289Y-36669343D01*
X63784838Y-36736278D01*
X63785779Y-36770785D01*
X63775291Y-36886515D01*
X63726616Y-36965828D01*
X63639029Y-37016668D01*
X63573180Y-37038803D01*
X63528504Y-37040520D01*
X63480889Y-37026068D01*
X63388969Y-36968864D01*
X63333506Y-36886540D01*
X63312963Y-36791667D01*
X63313165Y-36790168D01*
X63483364Y-36790168D01*
X63497265Y-36837977D01*
X63510830Y-36849507D01*
X63569125Y-36861118D01*
X63609653Y-36829160D01*
X63616436Y-36781352D01*
X63587346Y-36730879D01*
X63551831Y-36721444D01*
X63504263Y-36742858D01*
X63483364Y-36790168D01*
X63313165Y-36790168D01*
X63325804Y-36696817D01*
X63370490Y-36614565D01*
G36*
X65311157Y-37614946D02*
G01*
X65430580Y-37616062D01*
X65525600Y-37618579D01*
X65584355Y-37622085D01*
X65597555Y-37624913D01*
X65579789Y-37648564D01*
X65533073Y-37701924D01*
X65467286Y-37773730D01*
X65463135Y-37778179D01*
X65328714Y-37922102D01*
X65176736Y-37768212D01*
X65024758Y-37614323D01*
X65311157Y-37614946D01*
G37*
X65311157Y-37614946D02*
X65430580Y-37616062D01*
X65525600Y-37618579D01*
X65584355Y-37622085D01*
X65597555Y-37624913D01*
X65579789Y-37648564D01*
X65533073Y-37701924D01*
X65467286Y-37773730D01*
X65463135Y-37778179D01*
X65328714Y-37922102D01*
X65176736Y-37768212D01*
X65024758Y-37614323D01*
X65311157Y-37614946D01*
G36*
X65045722Y-37864444D02*
G01*
X65145179Y-37959967D01*
X65231460Y-38039086D01*
X65296081Y-38094286D01*
X65330558Y-38118053D01*
X65332501Y-38118444D01*
X65361707Y-38099253D01*
X65421307Y-38046873D01*
X65502880Y-37969096D01*
X65598006Y-37873714D01*
X65607030Y-37864444D01*
X65713213Y-37756896D01*
X65790442Y-37684416D01*
X65847759Y-37640336D01*
X65894208Y-37617985D01*
X65938833Y-37610695D01*
X65951449Y-37610444D01*
X66016315Y-37615938D01*
X66048379Y-37629426D01*
X66049111Y-37632071D01*
X66030105Y-37658370D01*
X65977612Y-37716992D01*
X65898416Y-37800710D01*
X65799300Y-37902297D01*
X65731169Y-37970738D01*
X65592974Y-38107636D01*
X65485586Y-38205761D01*
X65399195Y-38265532D01*
X65323989Y-38287368D01*
X65250156Y-38271688D01*
X65167887Y-38218910D01*
X65067368Y-38129455D01*
X64939610Y-38004551D01*
X64652111Y-37721325D01*
X64476872Y-37726739D01*
X64344963Y-37720849D01*
X64256701Y-37694830D01*
X64216632Y-37650270D01*
X64214666Y-37635211D01*
X64240906Y-37624878D01*
X64311714Y-37616659D01*
X64415225Y-37611580D01*
X64500690Y-37610444D01*
X64786714Y-37610444D01*
X65045722Y-37864444D01*
G37*
X65045722Y-37864444D02*
X65145179Y-37959967D01*
X65231460Y-38039086D01*
X65296081Y-38094286D01*
X65330558Y-38118053D01*
X65332501Y-38118444D01*
X65361707Y-38099253D01*
X65421307Y-38046873D01*
X65502880Y-37969096D01*
X65598006Y-37873714D01*
X65607030Y-37864444D01*
X65713213Y-37756896D01*
X65790442Y-37684416D01*
X65847759Y-37640336D01*
X65894208Y-37617985D01*
X65938833Y-37610695D01*
X65951449Y-37610444D01*
X66016315Y-37615938D01*
X66048379Y-37629426D01*
X66049111Y-37632071D01*
X66030105Y-37658370D01*
X65977612Y-37716992D01*
X65898416Y-37800710D01*
X65799300Y-37902297D01*
X65731169Y-37970738D01*
X65592974Y-38107636D01*
X65485586Y-38205761D01*
X65399195Y-38265532D01*
X65323989Y-38287368D01*
X65250156Y-38271688D01*
X65167887Y-38218910D01*
X65067368Y-38129455D01*
X64939610Y-38004551D01*
X64652111Y-37721325D01*
X64476872Y-37726739D01*
X64344963Y-37720849D01*
X64256701Y-37694830D01*
X64216632Y-37650270D01*
X64214666Y-37635211D01*
X64240906Y-37624878D01*
X64311714Y-37616659D01*
X64415225Y-37611580D01*
X64500690Y-37610444D01*
X64786714Y-37610444D01*
X65045722Y-37864444D01*
G36*
X66723696Y-37612717D02*
G01*
X66820307Y-37617238D01*
X66880949Y-37625152D01*
X66895778Y-37632764D01*
X66876270Y-37662329D01*
X66826564Y-37715639D01*
X66759887Y-37780377D01*
X66689464Y-37844228D01*
X66628521Y-37894877D01*
X66590284Y-37920006D01*
X66586360Y-37920888D01*
X66555775Y-37902278D01*
X66506844Y-37856821D01*
X66500666Y-37850333D01*
X66451116Y-37802741D01*
X66418005Y-37780083D01*
X66416005Y-37779777D01*
X66391145Y-37798555D01*
X66332213Y-37851012D01*
X66245464Y-37931338D01*
X66137151Y-38033718D01*
X66013531Y-38152341D01*
X65976424Y-38188259D01*
X65555222Y-38596740D01*
X65314776Y-38597481D01*
X65074329Y-38598222D01*
X64540337Y-38062000D01*
X64160263Y-38062000D01*
X63947576Y-37848621D01*
X63860668Y-37760359D01*
X63790913Y-37687480D01*
X63746556Y-37638726D01*
X63734889Y-37623046D01*
X63759894Y-37616348D01*
X63822269Y-37614561D01*
X63846282Y-37615215D01*
X63915876Y-37624729D01*
X63977110Y-37653637D01*
X64047263Y-37711841D01*
X64092166Y-37756123D01*
X64165417Y-37828318D01*
X64220255Y-37869148D01*
X64277785Y-37887552D01*
X64359109Y-37892471D01*
X64414497Y-37892666D01*
X64602338Y-37892666D01*
X64882400Y-38174888D01*
X65162461Y-38457111D01*
X65471261Y-38457111D01*
X65890575Y-38037097D01*
X66309888Y-37617083D01*
X66602833Y-37612404D01*
X66723696Y-37612717D01*
G37*
X66723696Y-37612717D02*
X66820307Y-37617238D01*
X66880949Y-37625152D01*
X66895778Y-37632764D01*
X66876270Y-37662329D01*
X66826564Y-37715639D01*
X66759887Y-37780377D01*
X66689464Y-37844228D01*
X66628521Y-37894877D01*
X66590284Y-37920006D01*
X66586360Y-37920888D01*
X66555775Y-37902278D01*
X66506844Y-37856821D01*
X66500666Y-37850333D01*
X66451116Y-37802741D01*
X66418005Y-37780083D01*
X66416005Y-37779777D01*
X66391145Y-37798555D01*
X66332213Y-37851012D01*
X66245464Y-37931338D01*
X66137151Y-38033718D01*
X66013531Y-38152341D01*
X65976424Y-38188259D01*
X65555222Y-38596740D01*
X65314776Y-38597481D01*
X65074329Y-38598222D01*
X64540337Y-38062000D01*
X64160263Y-38062000D01*
X63947576Y-37848621D01*
X63860668Y-37760359D01*
X63790913Y-37687480D01*
X63746556Y-37638726D01*
X63734889Y-37623046D01*
X63759894Y-37616348D01*
X63822269Y-37614561D01*
X63846282Y-37615215D01*
X63915876Y-37624729D01*
X63977110Y-37653637D01*
X64047263Y-37711841D01*
X64092166Y-37756123D01*
X64165417Y-37828318D01*
X64220255Y-37869148D01*
X64277785Y-37887552D01*
X64359109Y-37892471D01*
X64414497Y-37892666D01*
X64602338Y-37892666D01*
X64882400Y-38174888D01*
X65162461Y-38457111D01*
X65471261Y-38457111D01*
X65890575Y-38037097D01*
X66309888Y-37617083D01*
X66602833Y-37612404D01*
X66723696Y-37612717D01*
G36*
X64082696Y-36659938D02*
G01*
X64119737Y-36612404D01*
X64217015Y-36548656D01*
X64321804Y-36538927D01*
X64426039Y-36582984D01*
X64473008Y-36622666D01*
X64557675Y-36707333D01*
X65762547Y-36707333D01*
X65847213Y-36622666D01*
X65942088Y-36557956D01*
X66039147Y-36540321D01*
X66129719Y-36561830D01*
X66205132Y-36614552D01*
X66256717Y-36690554D01*
X66275800Y-36781905D01*
X66253711Y-36880673D01*
X66207328Y-36952062D01*
X66120534Y-37015513D01*
X66017936Y-37036161D01*
X65917319Y-37013930D01*
X65840253Y-36953636D01*
X65778879Y-36876666D01*
X65151995Y-36876666D01*
X64925383Y-36877939D01*
X64747441Y-36881697D01*
X64620175Y-36887849D01*
X64545590Y-36896302D01*
X64525111Y-36905303D01*
X64502214Y-36938607D01*
X64446766Y-36980646D01*
X64378628Y-37019212D01*
X64317662Y-37042094D01*
X64299333Y-37044105D01*
X64239398Y-37032457D01*
X64196519Y-37018015D01*
X64109213Y-36955889D01*
X64059122Y-36864841D01*
X64051063Y-36779743D01*
X64222075Y-36779743D01*
X64243187Y-36834692D01*
X64276214Y-36869754D01*
X64302545Y-36866816D01*
X64340625Y-36831343D01*
X64369584Y-36786399D01*
X65967164Y-36786399D01*
X65974650Y-36834333D01*
X66007704Y-36873404D01*
X66053586Y-36858556D01*
X66077035Y-36834692D01*
X66098470Y-36778317D01*
X66081502Y-36728293D01*
X66035000Y-36707333D01*
X65987772Y-36730728D01*
X65967164Y-36786399D01*
X64369584Y-36786399D01*
X64369674Y-36786260D01*
X64353296Y-36746676D01*
X64304791Y-36712494D01*
X64280881Y-36707333D01*
X64236865Y-36729350D01*
X64222075Y-36779743D01*
X64051063Y-36779743D01*
X64049274Y-36760861D01*
X64082696Y-36659938D01*
G37*
X64082696Y-36659938D02*
X64119737Y-36612404D01*
X64217015Y-36548656D01*
X64321804Y-36538927D01*
X64426039Y-36582984D01*
X64473008Y-36622666D01*
X64557675Y-36707333D01*
X65762547Y-36707333D01*
X65847213Y-36622666D01*
X65942088Y-36557956D01*
X66039147Y-36540321D01*
X66129719Y-36561830D01*
X66205132Y-36614552D01*
X66256717Y-36690554D01*
X66275800Y-36781905D01*
X66253711Y-36880673D01*
X66207328Y-36952062D01*
X66120534Y-37015513D01*
X66017936Y-37036161D01*
X65917319Y-37013930D01*
X65840253Y-36953636D01*
X65778879Y-36876666D01*
X65151995Y-36876666D01*
X64925383Y-36877939D01*
X64747441Y-36881697D01*
X64620175Y-36887849D01*
X64545590Y-36896302D01*
X64525111Y-36905303D01*
X64502214Y-36938607D01*
X64446766Y-36980646D01*
X64378628Y-37019212D01*
X64317662Y-37042094D01*
X64299333Y-37044105D01*
X64239398Y-37032457D01*
X64196519Y-37018015D01*
X64109213Y-36955889D01*
X64059122Y-36864841D01*
X64051063Y-36779743D01*
X64222075Y-36779743D01*
X64243187Y-36834692D01*
X64276214Y-36869754D01*
X64302545Y-36866816D01*
X64340625Y-36831343D01*
X64369584Y-36786399D01*
X65967164Y-36786399D01*
X65974650Y-36834333D01*
X66007704Y-36873404D01*
X66053586Y-36858556D01*
X66077035Y-36834692D01*
X66098470Y-36778317D01*
X66081502Y-36728293D01*
X66035000Y-36707333D01*
X65987772Y-36730728D01*
X65967164Y-36786399D01*
X64369584Y-36786399D01*
X64369674Y-36786260D01*
X64353296Y-36746676D01*
X64304791Y-36712494D01*
X64280881Y-36707333D01*
X64236865Y-36729350D01*
X64222075Y-36779743D01*
X64051063Y-36779743D01*
X64049274Y-36760861D01*
X64082696Y-36659938D01*
G36*
X67262084Y-37614786D02*
G01*
X67264780Y-37614943D01*
X67378226Y-37621637D01*
X66582778Y-38414777D01*
X66496459Y-38319330D01*
X66410139Y-38223883D01*
X66052844Y-38580386D01*
X65695548Y-38936888D01*
X65510721Y-38936888D01*
X65407021Y-38939366D01*
X65340351Y-38950902D01*
X65291372Y-38977655D01*
X65244778Y-39021555D01*
X65190836Y-39074226D01*
X65153767Y-39103831D01*
X65147775Y-39106190D01*
X65123515Y-39087343D01*
X65065923Y-39035040D01*
X64981714Y-38955606D01*
X64877601Y-38855364D01*
X64773273Y-38753412D01*
X64414658Y-38400666D01*
X64030438Y-38400666D01*
X63656885Y-38026343D01*
X63539429Y-37907514D01*
X63437119Y-37801847D01*
X63356182Y-37715952D01*
X63302846Y-37656440D01*
X63283336Y-37629919D01*
X63283333Y-37629821D01*
X63308166Y-37618446D01*
X63370253Y-37616906D01*
X63396095Y-37618898D01*
X63444274Y-37627293D01*
X63491074Y-37646363D01*
X63544793Y-37682424D01*
X63613729Y-37741792D01*
X63706180Y-37830783D01*
X63805816Y-37930753D01*
X64102775Y-38231333D01*
X64296237Y-38231333D01*
X64399811Y-38232858D01*
X64466880Y-38242636D01*
X64517380Y-38268467D01*
X64571251Y-38318153D01*
X64602756Y-38351277D01*
X64672983Y-38424078D01*
X64768371Y-38520698D01*
X64873568Y-38625656D01*
X64930166Y-38681447D01*
X65144520Y-38891673D01*
X65210579Y-38829614D01*
X65259923Y-38793822D01*
X65322863Y-38774775D01*
X65417637Y-38767918D01*
X65459147Y-38767555D01*
X65641657Y-38767555D01*
X66015710Y-38386555D01*
X66133912Y-38267304D01*
X66239132Y-38163322D01*
X66324856Y-38080868D01*
X66384574Y-38026202D01*
X66411773Y-38005583D01*
X66412073Y-38005555D01*
X66444716Y-38024244D01*
X66494712Y-38069866D01*
X66500666Y-38076111D01*
X66553308Y-38124004D01*
X66593027Y-38146435D01*
X66595561Y-38146666D01*
X66624884Y-38127514D01*
X66685036Y-38075074D01*
X66767856Y-37996865D01*
X66865178Y-37900409D01*
X66887753Y-37877458D01*
X66995289Y-37768507D01*
X67072746Y-37693995D01*
X67129140Y-37647643D01*
X67173484Y-37623176D01*
X67214794Y-37614316D01*
X67262084Y-37614786D01*
G37*
X67262084Y-37614786D02*
X67264780Y-37614943D01*
X67378226Y-37621637D01*
X66582778Y-38414777D01*
X66496459Y-38319330D01*
X66410139Y-38223883D01*
X66052844Y-38580386D01*
X65695548Y-38936888D01*
X65510721Y-38936888D01*
X65407021Y-38939366D01*
X65340351Y-38950902D01*
X65291372Y-38977655D01*
X65244778Y-39021555D01*
X65190836Y-39074226D01*
X65153767Y-39103831D01*
X65147775Y-39106190D01*
X65123515Y-39087343D01*
X65065923Y-39035040D01*
X64981714Y-38955606D01*
X64877601Y-38855364D01*
X64773273Y-38753412D01*
X64414658Y-38400666D01*
X64030438Y-38400666D01*
X63656885Y-38026343D01*
X63539429Y-37907514D01*
X63437119Y-37801847D01*
X63356182Y-37715952D01*
X63302846Y-37656440D01*
X63283336Y-37629919D01*
X63283333Y-37629821D01*
X63308166Y-37618446D01*
X63370253Y-37616906D01*
X63396095Y-37618898D01*
X63444274Y-37627293D01*
X63491074Y-37646363D01*
X63544793Y-37682424D01*
X63613729Y-37741792D01*
X63706180Y-37830783D01*
X63805816Y-37930753D01*
X64102775Y-38231333D01*
X64296237Y-38231333D01*
X64399811Y-38232858D01*
X64466880Y-38242636D01*
X64517380Y-38268467D01*
X64571251Y-38318153D01*
X64602756Y-38351277D01*
X64672983Y-38424078D01*
X64768371Y-38520698D01*
X64873568Y-38625656D01*
X64930166Y-38681447D01*
X65144520Y-38891673D01*
X65210579Y-38829614D01*
X65259923Y-38793822D01*
X65322863Y-38774775D01*
X65417637Y-38767918D01*
X65459147Y-38767555D01*
X65641657Y-38767555D01*
X66015710Y-38386555D01*
X66133912Y-38267304D01*
X66239132Y-38163322D01*
X66324856Y-38080868D01*
X66384574Y-38026202D01*
X66411773Y-38005583D01*
X66412073Y-38005555D01*
X66444716Y-38024244D01*
X66494712Y-38069866D01*
X66500666Y-38076111D01*
X66553308Y-38124004D01*
X66593027Y-38146435D01*
X66595561Y-38146666D01*
X66624884Y-38127514D01*
X66685036Y-38075074D01*
X66767856Y-37996865D01*
X66865178Y-37900409D01*
X66887753Y-37877458D01*
X66995289Y-37768507D01*
X67072746Y-37693995D01*
X67129140Y-37647643D01*
X67173484Y-37623176D01*
X67214794Y-37614316D01*
X67262084Y-37614786D01*
G36*
X66486555Y-36326333D02*
G01*
X66112190Y-36318455D01*
X65737825Y-36310578D01*
X65493866Y-36071511D01*
X65388176Y-35969469D01*
X65311858Y-35901274D01*
X65255009Y-35860230D01*
X65207726Y-35839644D01*
X65160107Y-35832821D01*
X65140226Y-35832444D01*
X65029477Y-35810358D01*
X64949775Y-35752140D01*
X64902780Y-35669850D01*
X64892383Y-35592203D01*
X65065647Y-35592203D01*
X65072858Y-35624215D01*
X65106817Y-35657060D01*
X65152699Y-35650739D01*
X65189406Y-35611863D01*
X65197351Y-35585211D01*
X65191781Y-35535483D01*
X65149628Y-35522000D01*
X65086335Y-35541264D01*
X65065647Y-35592203D01*
X64892383Y-35592203D01*
X64890152Y-35575546D01*
X64913552Y-35481290D01*
X64974641Y-35399140D01*
X65072696Y-35341993D01*
X65135081Y-35337611D01*
X65215450Y-35352425D01*
X65223594Y-35354989D01*
X65309859Y-35409552D01*
X65367700Y-35496338D01*
X65386105Y-35595839D01*
X65380472Y-35632912D01*
X65380190Y-35668929D01*
X65401212Y-35713881D01*
X65449437Y-35775997D01*
X65530762Y-35863509D01*
X65585900Y-35919581D01*
X65807898Y-36142888D01*
X66670000Y-36142888D01*
X66670000Y-36425111D01*
X66670475Y-36553191D01*
X66673564Y-36635131D01*
X66681765Y-36681235D01*
X66697574Y-36701806D01*
X66723488Y-36707151D01*
X66738384Y-36707333D01*
X66802787Y-36687440D01*
X66875749Y-36637369D01*
X66891436Y-36622666D01*
X66984811Y-36559284D01*
X67081240Y-36541839D01*
X67171983Y-36562579D01*
X67248297Y-36613752D01*
X67301443Y-36687604D01*
X67322681Y-36776383D01*
X67303269Y-36872337D01*
X67255611Y-36945678D01*
X67160853Y-37016382D01*
X67052943Y-37033802D01*
X66940494Y-36996734D01*
X66931055Y-36991065D01*
X66871818Y-36947355D01*
X66840708Y-36911099D01*
X66839333Y-36905303D01*
X66813513Y-36889763D01*
X66745522Y-36879481D01*
X66671022Y-36876666D01*
X66502710Y-36876666D01*
X66500354Y-36796370D01*
X67012425Y-36796370D01*
X67032306Y-36844364D01*
X67041167Y-36851097D01*
X67088939Y-36854604D01*
X67129188Y-36821146D01*
X67143935Y-36769229D01*
X67139611Y-36749769D01*
X67101029Y-36714634D01*
X67072576Y-36712627D01*
X67027871Y-36743540D01*
X67012425Y-36796370D01*
X66500354Y-36796370D01*
X66494633Y-36601500D01*
X66486555Y-36326333D01*
G37*
X66486555Y-36326333D02*
X66112190Y-36318455D01*
X65737825Y-36310578D01*
X65493866Y-36071511D01*
X65388176Y-35969469D01*
X65311858Y-35901274D01*
X65255009Y-35860230D01*
X65207726Y-35839644D01*
X65160107Y-35832821D01*
X65140226Y-35832444D01*
X65029477Y-35810358D01*
X64949775Y-35752140D01*
X64902780Y-35669850D01*
X64892383Y-35592203D01*
X65065647Y-35592203D01*
X65072858Y-35624215D01*
X65106817Y-35657060D01*
X65152699Y-35650739D01*
X65189406Y-35611863D01*
X65197351Y-35585211D01*
X65191781Y-35535483D01*
X65149628Y-35522000D01*
X65086335Y-35541264D01*
X65065647Y-35592203D01*
X64892383Y-35592203D01*
X64890152Y-35575546D01*
X64913552Y-35481290D01*
X64974641Y-35399140D01*
X65072696Y-35341993D01*
X65135081Y-35337611D01*
X65215450Y-35352425D01*
X65223594Y-35354989D01*
X65309859Y-35409552D01*
X65367700Y-35496338D01*
X65386105Y-35595839D01*
X65380472Y-35632912D01*
X65380190Y-35668929D01*
X65401212Y-35713881D01*
X65449437Y-35775997D01*
X65530762Y-35863509D01*
X65585900Y-35919581D01*
X65807898Y-36142888D01*
X66670000Y-36142888D01*
X66670000Y-36425111D01*
X66670475Y-36553191D01*
X66673564Y-36635131D01*
X66681765Y-36681235D01*
X66697574Y-36701806D01*
X66723488Y-36707151D01*
X66738384Y-36707333D01*
X66802787Y-36687440D01*
X66875749Y-36637369D01*
X66891436Y-36622666D01*
X66984811Y-36559284D01*
X67081240Y-36541839D01*
X67171983Y-36562579D01*
X67248297Y-36613752D01*
X67301443Y-36687604D01*
X67322681Y-36776383D01*
X67303269Y-36872337D01*
X67255611Y-36945678D01*
X67160853Y-37016382D01*
X67052943Y-37033802D01*
X66940494Y-36996734D01*
X66931055Y-36991065D01*
X66871818Y-36947355D01*
X66840708Y-36911099D01*
X66839333Y-36905303D01*
X66813513Y-36889763D01*
X66745522Y-36879481D01*
X66671022Y-36876666D01*
X66502710Y-36876666D01*
X66500354Y-36796370D01*
X67012425Y-36796370D01*
X67032306Y-36844364D01*
X67041167Y-36851097D01*
X67088939Y-36854604D01*
X67129188Y-36821146D01*
X67143935Y-36769229D01*
X67139611Y-36749769D01*
X67101029Y-36714634D01*
X67072576Y-36712627D01*
X67027871Y-36743540D01*
X67012425Y-36796370D01*
X66500354Y-36796370D01*
X66494633Y-36601500D01*
X66486555Y-36326333D01*
G36*
X62480508Y-37612946D02*
G01*
X62512531Y-37623195D01*
X62551294Y-37645304D01*
X62601506Y-37683387D01*
X62667875Y-37741558D01*
X62755108Y-37823929D01*
X62867914Y-37934615D01*
X63011000Y-38077728D01*
X63177241Y-38245422D01*
X63805444Y-38880400D01*
X64203596Y-38880444D01*
X64664520Y-39346111D01*
X64796055Y-39478242D01*
X64914526Y-39595811D01*
X65014163Y-39693206D01*
X65089195Y-39764820D01*
X65133851Y-39805042D01*
X65143593Y-39811777D01*
X65170162Y-39793014D01*
X65226181Y-39742736D01*
X65301822Y-39669962D01*
X65343555Y-39628333D01*
X65525369Y-39444888D01*
X65892828Y-39444888D01*
X66153924Y-39184878D01*
X66415021Y-38924867D01*
X66601487Y-39105597D01*
X67303621Y-38400354D01*
X67467568Y-38236549D01*
X67619651Y-38086261D01*
X67755151Y-37954025D01*
X67869350Y-37844377D01*
X67957531Y-37761851D01*
X68014974Y-37710983D01*
X68036378Y-37696008D01*
X68082290Y-37712500D01*
X68114900Y-37733309D01*
X68123658Y-37745949D01*
X68121000Y-37766075D01*
X68103567Y-37797425D01*
X68068000Y-37843734D01*
X68010940Y-37908741D01*
X67929028Y-37996183D01*
X67818905Y-38109796D01*
X67677211Y-38253318D01*
X67500588Y-38430486D01*
X67379762Y-38551186D01*
X66596724Y-39332660D01*
X66504818Y-39242805D01*
X66412912Y-39152949D01*
X66195109Y-39369474D01*
X65977307Y-39586000D01*
X65606873Y-39586000D01*
X65378656Y-39811777D01*
X65287395Y-39901304D01*
X65211798Y-39974033D01*
X65160210Y-40022031D01*
X65141164Y-40037531D01*
X65119507Y-40018431D01*
X65063500Y-39964734D01*
X64978634Y-39881829D01*
X64870400Y-39775102D01*
X64744289Y-39649939D01*
X64638000Y-39543935D01*
X64144111Y-39050363D01*
X63946344Y-39050070D01*
X63748576Y-39049777D01*
X63050288Y-38351070D01*
X62887600Y-38187706D01*
X62738345Y-38036718D01*
X62607061Y-37902783D01*
X62498286Y-37790576D01*
X62416555Y-37704774D01*
X62366408Y-37650052D01*
X62352000Y-37631403D01*
X62376826Y-37617530D01*
X62437844Y-37610618D01*
X62450519Y-37610444D01*
X62480508Y-37612946D01*
G37*
X62480508Y-37612946D02*
X62512531Y-37623195D01*
X62551294Y-37645304D01*
X62601506Y-37683387D01*
X62667875Y-37741558D01*
X62755108Y-37823929D01*
X62867914Y-37934615D01*
X63011000Y-38077728D01*
X63177241Y-38245422D01*
X63805444Y-38880400D01*
X64203596Y-38880444D01*
X64664520Y-39346111D01*
X64796055Y-39478242D01*
X64914526Y-39595811D01*
X65014163Y-39693206D01*
X65089195Y-39764820D01*
X65133851Y-39805042D01*
X65143593Y-39811777D01*
X65170162Y-39793014D01*
X65226181Y-39742736D01*
X65301822Y-39669962D01*
X65343555Y-39628333D01*
X65525369Y-39444888D01*
X65892828Y-39444888D01*
X66153924Y-39184878D01*
X66415021Y-38924867D01*
X66601487Y-39105597D01*
X67303621Y-38400354D01*
X67467568Y-38236549D01*
X67619651Y-38086261D01*
X67755151Y-37954025D01*
X67869350Y-37844377D01*
X67957531Y-37761851D01*
X68014974Y-37710983D01*
X68036378Y-37696008D01*
X68082290Y-37712500D01*
X68114900Y-37733309D01*
X68123658Y-37745949D01*
X68121000Y-37766075D01*
X68103567Y-37797425D01*
X68068000Y-37843734D01*
X68010940Y-37908741D01*
X67929028Y-37996183D01*
X67818905Y-38109796D01*
X67677211Y-38253318D01*
X67500588Y-38430486D01*
X67379762Y-38551186D01*
X66596724Y-39332660D01*
X66504818Y-39242805D01*
X66412912Y-39152949D01*
X66195109Y-39369474D01*
X65977307Y-39586000D01*
X65606873Y-39586000D01*
X65378656Y-39811777D01*
X65287395Y-39901304D01*
X65211798Y-39974033D01*
X65160210Y-40022031D01*
X65141164Y-40037531D01*
X65119507Y-40018431D01*
X65063500Y-39964734D01*
X64978634Y-39881829D01*
X64870400Y-39775102D01*
X64744289Y-39649939D01*
X64638000Y-39543935D01*
X64144111Y-39050363D01*
X63946344Y-39050070D01*
X63748576Y-39049777D01*
X63050288Y-38351070D01*
X62887600Y-38187706D01*
X62738345Y-38036718D01*
X62607061Y-37902783D01*
X62498286Y-37790576D01*
X62416555Y-37704774D01*
X62366408Y-37650052D01*
X62352000Y-37631403D01*
X62376826Y-37617530D01*
X62437844Y-37610618D01*
X62450519Y-37610444D01*
X62480508Y-37612946D01*
G36*
X66368566Y-34600770D02*
G01*
X66373959Y-34590101D01*
X66447977Y-34496677D01*
X66541334Y-34452727D01*
X66643465Y-34459854D01*
X66743807Y-34519657D01*
X66756837Y-34532051D01*
X66824798Y-34631727D01*
X66842992Y-34734719D01*
X66815222Y-34829302D01*
X66745289Y-34903754D01*
X66636996Y-34946351D01*
X66621685Y-34948755D01*
X66539700Y-34953802D01*
X66481987Y-34934458D01*
X66419535Y-34880762D01*
X66417362Y-34878593D01*
X66350685Y-34790882D01*
X66337012Y-34713692D01*
X66516467Y-34713692D01*
X66536738Y-34756560D01*
X66592611Y-34786573D01*
X66639304Y-34767085D01*
X66652961Y-34743342D01*
X66656888Y-34681435D01*
X66614090Y-34649841D01*
X66586687Y-34647111D01*
X66534283Y-34667553D01*
X66516467Y-34713692D01*
X66337012Y-34713692D01*
X66335201Y-34703471D01*
X66368566Y-34600770D01*
G37*
X66368566Y-34600770D02*
X66373959Y-34590101D01*
X66447977Y-34496677D01*
X66541334Y-34452727D01*
X66643465Y-34459854D01*
X66743807Y-34519657D01*
X66756837Y-34532051D01*
X66824798Y-34631727D01*
X66842992Y-34734719D01*
X66815222Y-34829302D01*
X66745289Y-34903754D01*
X66636996Y-34946351D01*
X66621685Y-34948755D01*
X66539700Y-34953802D01*
X66481987Y-34934458D01*
X66419535Y-34880762D01*
X66417362Y-34878593D01*
X66350685Y-34790882D01*
X66337012Y-34713692D01*
X66516467Y-34713692D01*
X66536738Y-34756560D01*
X66592611Y-34786573D01*
X66639304Y-34767085D01*
X66652961Y-34743342D01*
X66656888Y-34681435D01*
X66614090Y-34649841D01*
X66586687Y-34647111D01*
X66534283Y-34667553D01*
X66516467Y-34713692D01*
X66337012Y-34713692D01*
X66335201Y-34703471D01*
X66368566Y-34600770D01*
D11*
X81100000Y-47920000D03*
D12*
X81100000Y-40300000D03*
D13*
X54050000Y-66050000D03*
X79700000Y-51900000D03*
D14*
X66910000Y-59150000D03*
X66910000Y-68150000D03*
D15*
X64950000Y-62150000D03*
D16*
X64950000Y-65150000D03*
D17*
X63150000Y-52850000D03*
D18*
X63150000Y-55350000D03*
D19*
X56790000Y-38230000D03*
X73490000Y-38230000D03*
D20*
X54630000Y-42550000D03*
D21*
X57630000Y-42550000D03*
X60630000Y-42550000D03*
X63630000Y-42550000D03*
X66630000Y-42550000D03*
X69630000Y-42550000D03*
X72630000Y-42550000D03*
X75630000Y-42550000D03*
X54630000Y-45550000D03*
X57630000Y-45550000D03*
X60630000Y-45550000D03*
X63630000Y-45550000D03*
X66630000Y-45550000D03*
X69630000Y-45550000D03*
X72630000Y-45550000D03*
X75630000Y-45550000D03*
D22*
X53700000Y-51700000D03*
D23*
X56200000Y-51700000D03*
D22*
X53750000Y-58800000D03*
D23*
X56250000Y-58800000D03*
D24*
X79400000Y-58500000D03*
D25*
X79400000Y-61000000D03*
X79400000Y-63500000D03*
X79400000Y-66000000D03*
X79400000Y-68500000D03*
D24*
X72400000Y-58500000D03*
D25*
X72400000Y-61000000D03*
X72400000Y-63500000D03*
X72400000Y-66000000D03*
D22*
X69850000Y-51500000D03*
D23*
X72350000Y-51500000D03*
D26*
X81100000Y-35430000D03*
X81100000Y-37970000D03*
D17*
X64950000Y-62100000D03*
D18*
X64950000Y-64600000D03*
D27*
X78650000Y-46490000D03*
X51650000Y-46490000D03*
D20*
X54650000Y-42550000D03*
D21*
X57650000Y-42550000D03*
X60650000Y-42550000D03*
X63650000Y-42550000D03*
X66650000Y-42550000D03*
X69650000Y-42550000D03*
X72650000Y-42550000D03*
X75650000Y-42550000D03*
X54650000Y-45550000D03*
X57650000Y-45550000D03*
X60650000Y-45550000D03*
X63650000Y-45550000D03*
X66650000Y-45550000D03*
X69650000Y-45550000D03*
X72650000Y-45550000D03*
X75650000Y-45550000D03*
D14*
X66850000Y-49540000D03*
X75850000Y-49540000D03*
D28*
X69850000Y-51500000D03*
D29*
X72850000Y-51500000D03*
D20*
X54630000Y-42550000D03*
D21*
X57630000Y-42550000D03*
X60630000Y-42550000D03*
X63630000Y-42550000D03*
X66630000Y-42550000D03*
X69630000Y-42550000D03*
X72630000Y-42550000D03*
X75630000Y-42550000D03*
X54630000Y-45550000D03*
X57630000Y-45550000D03*
X60630000Y-45550000D03*
X63630000Y-45550000D03*
X66630000Y-45550000D03*
X69630000Y-45550000D03*
X72630000Y-45550000D03*
X75630000Y-45550000D03*
D30*
X77780000Y-38230000D03*
X52480000Y-38230000D03*
D27*
X61950000Y-66040000D03*
X67950000Y-66040000D03*
D20*
X64950000Y-62100000D03*
D21*
X64950000Y-65100000D03*
M02*
