M48
; DRILL file {KiCad (6.0.7)} date Do 29 Sep 2022 20:41:49
; FORMAT={-:-/ absolute / inch / decimal}
; #@! TF.CreationDate,2022-09-29T20:41:49+02:00
; #@! TF.GenerationSoftware,Kicad,Pcbnew,(6.0.7)
; #@! TF.FileFunction,Plated,1,2,PTH
FMAT,2
INCH
; #@! TA.AperFunction,Plated,PTH,ComponentDrill
T1C0.0315
; #@! TA.AperFunction,Plated,PTH,ComponentDrill
T2C0.0374
; #@! TA.AperFunction,Plated,PTH,ComponentDrill
T3C0.0394
; #@! TA.AperFunction,Plated,PTH,ComponentDrill
T4C0.0402
; #@! TA.AperFunction,Plated,PTH,ComponentDrill
T5C0.0949
; #@! TA.AperFunction,Plated,PTH,ComponentDrill
T6C0.1260
%
G90
G05
T1
X3.1929Y-1.3949
X3.1929Y-1.4949
X3.1929Y-1.5866
X3.1929Y-1.8866
T2
X2.8504Y-2.3031
X2.8504Y-2.4016
X2.8504Y-2.5
X2.8504Y-2.5984
X3.126Y-2.3031
X3.126Y-2.4016
X3.126Y-2.5
X3.126Y-2.5984
X3.126Y-2.6969
T3
X2.1142Y-2.0354
X2.1161Y-2.315
X2.1516Y-1.6752
X2.1516Y-1.7933
X2.2126Y-2.0354
X2.2146Y-2.315
X2.2697Y-1.6752
X2.2697Y-1.7933
X2.3878Y-1.6752
X2.3878Y-1.7933
X2.4862Y-2.0807
X2.4862Y-2.1791
X2.5059Y-1.6752
X2.5059Y-1.7933
X2.5571Y-2.4449
X2.5571Y-2.4449
X2.5571Y-2.5433
X2.5571Y-2.563
X2.624Y-1.6752
X2.624Y-1.7933
X2.7421Y-1.6752
X2.7421Y-1.7933
X2.75Y-2.0276
X2.8484Y-2.0276
X2.8602Y-1.6752
X2.8602Y-1.7933
X2.9783Y-1.6752
X2.9783Y-1.7933
T4
X2.1508Y-1.6752
X2.1508Y-1.6752
X2.1508Y-1.7933
X2.1508Y-1.7933
X2.2689Y-1.6752
X2.2689Y-1.6752
X2.2689Y-1.7933
X2.2689Y-1.7933
X2.387Y-1.6752
X2.387Y-1.6752
X2.387Y-1.7933
X2.387Y-1.7933
X2.5051Y-1.6752
X2.5051Y-1.6752
X2.5051Y-1.7933
X2.5051Y-1.7933
X2.5571Y-2.4469
X2.5571Y-2.565
X2.6232Y-1.6752
X2.6232Y-1.6752
X2.6232Y-1.7933
X2.6232Y-1.7933
X2.7413Y-1.6752
X2.7413Y-1.6752
X2.7413Y-1.7933
X2.7413Y-1.7933
X2.75Y-2.0276
X2.8594Y-1.6752
X2.8594Y-1.6752
X2.8594Y-1.7933
X2.8594Y-1.7933
X2.8681Y-2.0276
X2.9776Y-1.6752
X2.9776Y-1.6752
X2.9776Y-1.7933
X2.9776Y-1.7933
T5
X2.0661Y-1.5051
X3.0622Y-1.5051
T6
X2.128Y-2.6004
X3.1378Y-2.0433
T0
M30
