G04 #@! TF.GenerationSoftware,KiCad,Pcbnew,(6.0.7)*
G04 #@! TF.CreationDate,2022-09-29T20:41:47+02:00*
G04 #@! TF.ProjectId,carabiner,63617261-6269-46e6-9572-2e6b69636164,rev?*
G04 #@! TF.SameCoordinates,Original*
G04 #@! TF.FileFunction,Legend,Top*
G04 #@! TF.FilePolarity,Positive*
%FSLAX46Y46*%
G04 Gerber Fmt 4.6, Leading zero omitted, Abs format (unit mm)*
G04 Created by KiCad (PCBNEW (6.0.7)) date 2022-09-29 20:41:47*
%MOMM*%
%LPD*%
G01*
G04 APERTURE LIST*
%ADD10C,0.150000*%
%ADD11C,0.120000*%
G04 APERTURE END LIST*
D10*
X52277595Y-35733809D02*
X52387119Y-35771904D01*
X52577595Y-35771904D01*
X52658547Y-35733809D01*
X52701404Y-35695714D01*
X52749023Y-35619523D01*
X52758547Y-35543333D01*
X52729976Y-35467142D01*
X52696642Y-35429047D01*
X52625214Y-35390952D01*
X52477595Y-35352857D01*
X52406166Y-35314761D01*
X52372833Y-35276666D01*
X52344261Y-35200476D01*
X52353785Y-35124285D01*
X52401404Y-35048095D01*
X52444261Y-35010000D01*
X52525214Y-34971904D01*
X52715690Y-34971904D01*
X52825214Y-35010000D01*
X53072833Y-35771904D02*
X53139500Y-35238571D01*
X53172833Y-34971904D02*
X53129976Y-35010000D01*
X53163309Y-35048095D01*
X53206166Y-35010000D01*
X53172833Y-34971904D01*
X53163309Y-35048095D01*
X53796642Y-35771904D02*
X53896642Y-34971904D01*
X53801404Y-35733809D02*
X53720452Y-35771904D01*
X53568071Y-35771904D01*
X53496642Y-35733809D01*
X53463309Y-35695714D01*
X53434738Y-35619523D01*
X53463309Y-35390952D01*
X53510928Y-35314761D01*
X53553785Y-35276666D01*
X53634738Y-35238571D01*
X53787119Y-35238571D01*
X53858547Y-35276666D01*
X54487119Y-35733809D02*
X54406166Y-35771904D01*
X54253785Y-35771904D01*
X54182357Y-35733809D01*
X54153785Y-35657619D01*
X54191880Y-35352857D01*
X54239500Y-35276666D01*
X54320452Y-35238571D01*
X54472833Y-35238571D01*
X54544261Y-35276666D01*
X54572833Y-35352857D01*
X54563309Y-35429047D01*
X54172833Y-35505238D01*
X55463309Y-35543333D02*
X55844261Y-35543333D01*
X55358547Y-35771904D02*
X55725214Y-34971904D01*
X55891880Y-35771904D01*
X80661904Y-65995238D02*
X81233333Y-65995238D01*
X81347619Y-66033333D01*
X81423809Y-66109523D01*
X81461904Y-66223809D01*
X81461904Y-66300000D01*
X81461904Y-65233333D02*
X81461904Y-65614285D01*
X80661904Y-65614285D01*
X81385714Y-64509523D02*
X81423809Y-64547619D01*
X81461904Y-64661904D01*
X81461904Y-64738095D01*
X81423809Y-64852380D01*
X81347619Y-64928571D01*
X81271428Y-64966666D01*
X81119047Y-65004761D01*
X81004761Y-65004761D01*
X80852380Y-64966666D01*
X80776190Y-64928571D01*
X80700000Y-64852380D01*
X80661904Y-64738095D01*
X80661904Y-64661904D01*
X80700000Y-64547619D01*
X80738095Y-64509523D01*
X80661904Y-63938095D02*
X81233333Y-63938095D01*
X81347619Y-63976190D01*
X81423809Y-64052380D01*
X81461904Y-64166666D01*
X81461904Y-64242857D01*
X81461904Y-63176190D02*
X81461904Y-63557142D01*
X80661904Y-63557142D01*
X81385714Y-62452380D02*
X81423809Y-62490476D01*
X81461904Y-62604761D01*
X81461904Y-62680952D01*
X81423809Y-62795238D01*
X81347619Y-62871428D01*
X81271428Y-62909523D01*
X81119047Y-62947619D01*
X81004761Y-62947619D01*
X80852380Y-62909523D01*
X80776190Y-62871428D01*
X80700000Y-62795238D01*
X80661904Y-62680952D01*
X80661904Y-62604761D01*
X80700000Y-62490476D01*
X80738095Y-62452380D01*
X80661904Y-61880952D02*
X81233333Y-61880952D01*
X81347619Y-61919047D01*
X81423809Y-61995238D01*
X81461904Y-62109523D01*
X81461904Y-62185714D01*
X81461904Y-61119047D02*
X81461904Y-61500000D01*
X80661904Y-61500000D01*
X81385714Y-60395238D02*
X81423809Y-60433333D01*
X81461904Y-60547619D01*
X81461904Y-60623809D01*
X81423809Y-60738095D01*
X81347619Y-60814285D01*
X81271428Y-60852380D01*
X81119047Y-60890476D01*
X81004761Y-60890476D01*
X80852380Y-60852380D01*
X80776190Y-60814285D01*
X80700000Y-60738095D01*
X80661904Y-60623809D01*
X80661904Y-60547619D01*
X80700000Y-60433333D01*
X80738095Y-60395238D01*
X80661904Y-59823809D02*
X81233333Y-59823809D01*
X81347619Y-59861904D01*
X81423809Y-59938095D01*
X81461904Y-60052380D01*
X81461904Y-60128571D01*
X81461904Y-59061904D02*
X81461904Y-59442857D01*
X80661904Y-59442857D01*
X81385714Y-58338095D02*
X81423809Y-58376190D01*
X81461904Y-58490476D01*
X81461904Y-58566666D01*
X81423809Y-58680952D01*
X81347619Y-58757142D01*
X81271428Y-58795238D01*
X81119047Y-58833333D01*
X81004761Y-58833333D01*
X80852380Y-58795238D01*
X80776190Y-58757142D01*
X80700000Y-58680952D01*
X80661904Y-58566666D01*
X80661904Y-58490476D01*
X80700000Y-58376190D01*
X80738095Y-58338095D01*
X57841714Y-68318976D02*
X57879809Y-68361833D01*
X57917904Y-68480880D01*
X57917904Y-68557071D01*
X57879809Y-68666595D01*
X57803619Y-68733261D01*
X57727428Y-68761833D01*
X57575047Y-68780880D01*
X57460761Y-68766595D01*
X57308380Y-68709452D01*
X57232190Y-68661833D01*
X57156000Y-68576119D01*
X57117904Y-68457071D01*
X57117904Y-68380880D01*
X57156000Y-68271357D01*
X57194095Y-68238023D01*
X57917904Y-67642785D02*
X57498857Y-67590404D01*
X57422666Y-67618976D01*
X57384571Y-67690404D01*
X57384571Y-67842785D01*
X57422666Y-67923738D01*
X57879809Y-67638023D02*
X57917904Y-67718976D01*
X57917904Y-67909452D01*
X57879809Y-67980880D01*
X57803619Y-68009452D01*
X57727428Y-67999928D01*
X57651238Y-67952309D01*
X57613142Y-67871357D01*
X57613142Y-67680880D01*
X57575047Y-67599928D01*
X57917904Y-67261833D02*
X57384571Y-67195166D01*
X57536952Y-67214214D02*
X57460761Y-67166595D01*
X57422666Y-67123738D01*
X57384571Y-67042785D01*
X57384571Y-66966595D01*
X57917904Y-66423738D02*
X57498857Y-66371357D01*
X57422666Y-66399928D01*
X57384571Y-66471357D01*
X57384571Y-66623738D01*
X57422666Y-66704690D01*
X57879809Y-66418976D02*
X57917904Y-66499928D01*
X57917904Y-66690404D01*
X57879809Y-66761833D01*
X57803619Y-66790404D01*
X57727428Y-66780880D01*
X57651238Y-66733261D01*
X57613142Y-66652309D01*
X57613142Y-66461833D01*
X57575047Y-66380880D01*
X57917904Y-66042785D02*
X57117904Y-65942785D01*
X57422666Y-65980880D02*
X57384571Y-65899928D01*
X57384571Y-65747547D01*
X57422666Y-65676119D01*
X57460761Y-65642785D01*
X57536952Y-65614214D01*
X57765523Y-65642785D01*
X57841714Y-65690404D01*
X57879809Y-65733261D01*
X57917904Y-65814214D01*
X57917904Y-65966595D01*
X57879809Y-66038023D01*
X57917904Y-65318976D02*
X57384571Y-65252309D01*
X57117904Y-65218976D02*
X57156000Y-65261833D01*
X57194095Y-65228500D01*
X57156000Y-65185642D01*
X57117904Y-65218976D01*
X57194095Y-65228500D01*
X57384571Y-64871357D02*
X57917904Y-64938023D01*
X57460761Y-64880880D02*
X57422666Y-64838023D01*
X57384571Y-64757071D01*
X57384571Y-64642785D01*
X57422666Y-64571357D01*
X57498857Y-64542785D01*
X57917904Y-64595166D01*
X57879809Y-63904690D02*
X57917904Y-63985642D01*
X57917904Y-64138023D01*
X57879809Y-64209452D01*
X57803619Y-64238023D01*
X57498857Y-64199928D01*
X57422666Y-64152309D01*
X57384571Y-64071357D01*
X57384571Y-63918976D01*
X57422666Y-63847547D01*
X57498857Y-63818976D01*
X57575047Y-63828500D01*
X57651238Y-64218976D01*
X57917904Y-63528500D02*
X57384571Y-63461833D01*
X57536952Y-63480880D02*
X57460761Y-63433261D01*
X57422666Y-63390404D01*
X57384571Y-63309452D01*
X57384571Y-63233261D01*
X59205904Y-66423738D02*
X58824952Y-66642785D01*
X59205904Y-66880880D02*
X58405904Y-66780880D01*
X58405904Y-66476119D01*
X58444000Y-66404690D01*
X58482095Y-66371357D01*
X58558285Y-66342785D01*
X58672571Y-66357071D01*
X58748761Y-66404690D01*
X58786857Y-66447547D01*
X58824952Y-66528500D01*
X58824952Y-66833261D01*
X59205904Y-65661833D02*
X59205904Y-66118976D01*
X59205904Y-65890404D02*
X58405904Y-65790404D01*
X58520190Y-65880880D01*
X58596380Y-65966595D01*
X58634476Y-66047547D01*
X59129714Y-65309452D02*
X59167809Y-65276119D01*
X59205904Y-65318976D01*
X59167809Y-65352309D01*
X59129714Y-65309452D01*
X59205904Y-65318976D01*
X58482095Y-64885642D02*
X58444000Y-64842785D01*
X58405904Y-64761833D01*
X58405904Y-64571357D01*
X58444000Y-64499928D01*
X58482095Y-64466595D01*
X58558285Y-64438023D01*
X58634476Y-64447547D01*
X58748761Y-64499928D01*
X59205904Y-65014214D01*
X59205904Y-64518976D01*
X59129714Y-64166595D02*
X59167809Y-64133261D01*
X59205904Y-64176119D01*
X59167809Y-64209452D01*
X59129714Y-64166595D01*
X59205904Y-64176119D01*
X59205904Y-63376119D02*
X59205904Y-63833261D01*
X59205904Y-63604690D02*
X58405904Y-63504690D01*
X58520190Y-63595166D01*
X58596380Y-63680880D01*
X58634476Y-63761833D01*
X61002380Y-66883333D02*
X60002380Y-66883333D01*
X60478571Y-66883333D02*
X60478571Y-66311904D01*
X61002380Y-66311904D02*
X60002380Y-66311904D01*
X61002380Y-65692857D02*
X60954761Y-65788095D01*
X60907142Y-65835714D01*
X60811904Y-65883333D01*
X60526190Y-65883333D01*
X60430952Y-65835714D01*
X60383333Y-65788095D01*
X60335714Y-65692857D01*
X60335714Y-65549999D01*
X60383333Y-65454761D01*
X60430952Y-65407142D01*
X60526190Y-65359523D01*
X60811904Y-65359523D01*
X60907142Y-65407142D01*
X60954761Y-65454761D01*
X61002380Y-65549999D01*
X61002380Y-65692857D01*
X60335714Y-65073809D02*
X60335714Y-64692857D01*
X60002380Y-64930952D02*
X60859523Y-64930952D01*
X60954761Y-64883333D01*
X61002380Y-64788095D01*
X61002380Y-64692857D01*
X60954761Y-63978571D02*
X61002380Y-64073809D01*
X61002380Y-64264285D01*
X60954761Y-64359523D01*
X60859523Y-64407142D01*
X60478571Y-64407142D01*
X60383333Y-64359523D01*
X60335714Y-64264285D01*
X60335714Y-64073809D01*
X60383333Y-63978571D01*
X60478571Y-63930952D01*
X60573809Y-63930952D01*
X60669047Y-64407142D01*
X60335714Y-63502380D02*
X61002380Y-63502380D01*
X60430952Y-63502380D02*
X60383333Y-63454761D01*
X60335714Y-63359523D01*
X60335714Y-63216666D01*
X60383333Y-63121428D01*
X60478571Y-63073809D01*
X61002380Y-63073809D01*
X61002380Y-62169047D02*
X60002380Y-62169047D01*
X60954761Y-62169047D02*
X61002380Y-62264285D01*
X61002380Y-62454761D01*
X60954761Y-62550000D01*
X60907142Y-62597619D01*
X60811904Y-62645238D01*
X60526190Y-62645238D01*
X60430952Y-62597619D01*
X60383333Y-62550000D01*
X60335714Y-62454761D01*
X60335714Y-62264285D01*
X60383333Y-62169047D01*
X61002380Y-61692857D02*
X60002380Y-61692857D01*
X60716666Y-61359523D01*
X60002380Y-61026190D01*
X61002380Y-61026190D01*
X60478571Y-60216666D02*
X60478571Y-60550000D01*
X61002380Y-60550000D02*
X60002380Y-60550000D01*
X60002380Y-60073809D01*
X61002380Y-59169047D02*
X61002380Y-59740476D01*
X61002380Y-59454761D02*
X60002380Y-59454761D01*
X60145238Y-59550000D01*
X60240476Y-59645238D01*
X60288095Y-59740476D01*
X61602380Y-55692857D02*
X60602380Y-55692857D01*
X61078571Y-55692857D02*
X61078571Y-55121428D01*
X61602380Y-55121428D02*
X60602380Y-55121428D01*
X61078571Y-54645238D02*
X61078571Y-54311904D01*
X61602380Y-54169047D02*
X61602380Y-54645238D01*
X60602380Y-54645238D01*
X60602380Y-54169047D01*
X61078571Y-53407142D02*
X61078571Y-53740476D01*
X61602380Y-53740476D02*
X60602380Y-53740476D01*
X60602380Y-53264285D01*
X61602380Y-52359523D02*
X61602380Y-52930952D01*
X61602380Y-52645238D02*
X60602380Y-52645238D01*
X60745238Y-52740476D01*
X60840476Y-52835714D01*
X60888095Y-52930952D01*
X53283333Y-54152380D02*
X53283333Y-53152380D01*
X53664285Y-53152380D01*
X53759523Y-53200000D01*
X53807142Y-53247619D01*
X53854761Y-53342857D01*
X53854761Y-53485714D01*
X53807142Y-53580952D01*
X53759523Y-53628571D01*
X53664285Y-53676190D01*
X53283333Y-53676190D01*
X54854761Y-54057142D02*
X54807142Y-54104761D01*
X54664285Y-54152380D01*
X54569047Y-54152380D01*
X54426190Y-54104761D01*
X54330952Y-54009523D01*
X54283333Y-53914285D01*
X54235714Y-53723809D01*
X54235714Y-53580952D01*
X54283333Y-53390476D01*
X54330952Y-53295238D01*
X54426190Y-53200000D01*
X54569047Y-53152380D01*
X54664285Y-53152380D01*
X54807142Y-53200000D01*
X54854761Y-53247619D01*
X55616666Y-53628571D02*
X55283333Y-53628571D01*
X55283333Y-54152380D02*
X55283333Y-53152380D01*
X55759523Y-53152380D01*
X56664285Y-54152380D02*
X56092857Y-54152380D01*
X56378571Y-54152380D02*
X56378571Y-53152380D01*
X56283333Y-53295238D01*
X56188095Y-53390476D01*
X56092857Y-53438095D01*
X53333333Y-61352380D02*
X53333333Y-60352380D01*
X53714285Y-60352380D01*
X53809523Y-60400000D01*
X53857142Y-60447619D01*
X53904761Y-60542857D01*
X53904761Y-60685714D01*
X53857142Y-60780952D01*
X53809523Y-60828571D01*
X53714285Y-60876190D01*
X53333333Y-60876190D01*
X54904761Y-61257142D02*
X54857142Y-61304761D01*
X54714285Y-61352380D01*
X54619047Y-61352380D01*
X54476190Y-61304761D01*
X54380952Y-61209523D01*
X54333333Y-61114285D01*
X54285714Y-60923809D01*
X54285714Y-60780952D01*
X54333333Y-60590476D01*
X54380952Y-60495238D01*
X54476190Y-60400000D01*
X54619047Y-60352380D01*
X54714285Y-60352380D01*
X54857142Y-60400000D01*
X54904761Y-60447619D01*
X55666666Y-60828571D02*
X55333333Y-60828571D01*
X55333333Y-61352380D02*
X55333333Y-60352380D01*
X55809523Y-60352380D01*
X56142857Y-60447619D02*
X56190476Y-60400000D01*
X56285714Y-60352380D01*
X56523809Y-60352380D01*
X56619047Y-60400000D01*
X56666666Y-60447619D01*
X56714285Y-60542857D01*
X56714285Y-60638095D01*
X56666666Y-60780952D01*
X56095238Y-61352380D01*
X56714285Y-61352380D01*
X77792380Y-65060952D02*
X76792380Y-65060952D01*
X76792380Y-64680000D01*
X76840000Y-64584761D01*
X76887619Y-64537142D01*
X76982857Y-64489523D01*
X77125714Y-64489523D01*
X77220952Y-64537142D01*
X77268571Y-64584761D01*
X77316190Y-64680000D01*
X77316190Y-65060952D01*
X77792380Y-64060952D02*
X77125714Y-64060952D01*
X77316190Y-64060952D02*
X77220952Y-64013333D01*
X77173333Y-63965714D01*
X77125714Y-63870476D01*
X77125714Y-63775238D01*
X77792380Y-63299047D02*
X77744761Y-63394285D01*
X77697142Y-63441904D01*
X77601904Y-63489523D01*
X77316190Y-63489523D01*
X77220952Y-63441904D01*
X77173333Y-63394285D01*
X77125714Y-63299047D01*
X77125714Y-63156190D01*
X77173333Y-63060952D01*
X77220952Y-63013333D01*
X77316190Y-62965714D01*
X77601904Y-62965714D01*
X77697142Y-63013333D01*
X77744761Y-63060952D01*
X77792380Y-63156190D01*
X77792380Y-63299047D01*
X77792380Y-62537142D02*
X76792380Y-62537142D01*
X77173333Y-62537142D02*
X77125714Y-62441904D01*
X77125714Y-62251428D01*
X77173333Y-62156190D01*
X77220952Y-62108571D01*
X77316190Y-62060952D01*
X77601904Y-62060952D01*
X77697142Y-62108571D01*
X77744761Y-62156190D01*
X77792380Y-62251428D01*
X77792380Y-62441904D01*
X77744761Y-62537142D01*
X77744761Y-61251428D02*
X77792380Y-61346666D01*
X77792380Y-61537142D01*
X77744761Y-61632380D01*
X77649523Y-61680000D01*
X77268571Y-61680000D01*
X77173333Y-61632380D01*
X77125714Y-61537142D01*
X77125714Y-61346666D01*
X77173333Y-61251428D01*
X77268571Y-61203809D01*
X77363809Y-61203809D01*
X77459047Y-61680000D01*
X77792380Y-60251428D02*
X77792380Y-60822857D01*
X77792380Y-60537142D02*
X76792380Y-60537142D01*
X76935238Y-60632380D01*
X77030476Y-60727619D01*
X77078095Y-60822857D01*
X70804761Y-65319047D02*
X70852380Y-65176190D01*
X70852380Y-64938095D01*
X70804761Y-64842857D01*
X70757142Y-64795238D01*
X70661904Y-64747619D01*
X70566666Y-64747619D01*
X70471428Y-64795238D01*
X70423809Y-64842857D01*
X70376190Y-64938095D01*
X70328571Y-65128571D01*
X70280952Y-65223809D01*
X70233333Y-65271428D01*
X70138095Y-65319047D01*
X70042857Y-65319047D01*
X69947619Y-65271428D01*
X69900000Y-65223809D01*
X69852380Y-65128571D01*
X69852380Y-64890476D01*
X69900000Y-64747619D01*
X70185714Y-64461904D02*
X70185714Y-64080952D01*
X69852380Y-64319047D02*
X70709523Y-64319047D01*
X70804761Y-64271428D01*
X70852380Y-64176190D01*
X70852380Y-64080952D01*
X70804761Y-63366666D02*
X70852380Y-63461904D01*
X70852380Y-63652380D01*
X70804761Y-63747619D01*
X70709523Y-63795238D01*
X70328571Y-63795238D01*
X70233333Y-63747619D01*
X70185714Y-63652380D01*
X70185714Y-63461904D01*
X70233333Y-63366666D01*
X70328571Y-63319047D01*
X70423809Y-63319047D01*
X70519047Y-63795238D01*
X70185714Y-62890476D02*
X71185714Y-62890476D01*
X70233333Y-62890476D02*
X70185714Y-62795238D01*
X70185714Y-62604761D01*
X70233333Y-62509523D01*
X70280952Y-62461904D01*
X70376190Y-62414285D01*
X70661904Y-62414285D01*
X70757142Y-62461904D01*
X70804761Y-62509523D01*
X70852380Y-62604761D01*
X70852380Y-62795238D01*
X70804761Y-62890476D01*
X70185714Y-61985714D02*
X71185714Y-61985714D01*
X70233333Y-61985714D02*
X70185714Y-61890476D01*
X70185714Y-61700000D01*
X70233333Y-61604761D01*
X70280952Y-61557142D01*
X70376190Y-61509523D01*
X70661904Y-61509523D01*
X70757142Y-61557142D01*
X70804761Y-61604761D01*
X70852380Y-61700000D01*
X70852380Y-61890476D01*
X70804761Y-61985714D01*
X70804761Y-60700000D02*
X70852380Y-60795238D01*
X70852380Y-60985714D01*
X70804761Y-61080952D01*
X70709523Y-61128571D01*
X70328571Y-61128571D01*
X70233333Y-61080952D01*
X70185714Y-60985714D01*
X70185714Y-60795238D01*
X70233333Y-60700000D01*
X70328571Y-60652380D01*
X70423809Y-60652380D01*
X70519047Y-61128571D01*
X70852380Y-60223809D02*
X70185714Y-60223809D01*
X70376190Y-60223809D02*
X70280952Y-60176190D01*
X70233333Y-60128571D01*
X70185714Y-60033333D01*
X70185714Y-59938095D01*
X70852380Y-59080952D02*
X70852380Y-59652380D01*
X70852380Y-59366666D02*
X69852380Y-59366666D01*
X69995238Y-59461904D01*
X70090476Y-59557142D01*
X70138095Y-59652380D01*
X68959523Y-52952380D02*
X69530952Y-52952380D01*
X69245238Y-53952380D02*
X69245238Y-52952380D01*
X69864285Y-53952380D02*
X69864285Y-52952380D01*
X70292857Y-53952380D02*
X70292857Y-53428571D01*
X70245238Y-53333333D01*
X70150000Y-53285714D01*
X70007142Y-53285714D01*
X69911904Y-53333333D01*
X69864285Y-53380952D01*
X70769047Y-53952380D02*
X70769047Y-52952380D01*
X70769047Y-53428571D02*
X71340476Y-53428571D01*
X71340476Y-53952380D02*
X71340476Y-52952380D01*
X71816666Y-53428571D02*
X72150000Y-53428571D01*
X72292857Y-53952380D02*
X71816666Y-53952380D01*
X71816666Y-52952380D01*
X72292857Y-52952380D01*
X73245238Y-53952380D02*
X72673809Y-53952380D01*
X72959523Y-53952380D02*
X72959523Y-52952380D01*
X72864285Y-53095238D01*
X72769047Y-53190476D01*
X72673809Y-53238095D01*
X83277142Y-39628571D02*
X83324761Y-39676190D01*
X83372380Y-39819047D01*
X83372380Y-39914285D01*
X83324761Y-40057142D01*
X83229523Y-40152380D01*
X83134285Y-40200000D01*
X82943809Y-40247619D01*
X82800952Y-40247619D01*
X82610476Y-40200000D01*
X82515238Y-40152380D01*
X82420000Y-40057142D01*
X82372380Y-39914285D01*
X82372380Y-39819047D01*
X82420000Y-39676190D01*
X82467619Y-39628571D01*
X83372380Y-39200000D02*
X82372380Y-39200000D01*
X83372380Y-38771428D02*
X82848571Y-38771428D01*
X82753333Y-38819047D01*
X82705714Y-38914285D01*
X82705714Y-39057142D01*
X82753333Y-39152380D01*
X82800952Y-39200000D01*
X83372380Y-37866666D02*
X82848571Y-37866666D01*
X82753333Y-37914285D01*
X82705714Y-38009523D01*
X82705714Y-38200000D01*
X82753333Y-38295238D01*
X83324761Y-37866666D02*
X83372380Y-37961904D01*
X83372380Y-38200000D01*
X83324761Y-38295238D01*
X83229523Y-38342857D01*
X83134285Y-38342857D01*
X83039047Y-38295238D01*
X82991428Y-38200000D01*
X82991428Y-37961904D01*
X82943809Y-37866666D01*
X83372380Y-37390476D02*
X82705714Y-37390476D01*
X82800952Y-37390476D02*
X82753333Y-37342857D01*
X82705714Y-37247619D01*
X82705714Y-37104761D01*
X82753333Y-37009523D01*
X82848571Y-36961904D01*
X83372380Y-36961904D01*
X82848571Y-36961904D02*
X82753333Y-36914285D01*
X82705714Y-36819047D01*
X82705714Y-36676190D01*
X82753333Y-36580952D01*
X82848571Y-36533333D01*
X83372380Y-36533333D01*
X83372380Y-36057142D02*
X82372380Y-36057142D01*
X82753333Y-36057142D02*
X82705714Y-35961904D01*
X82705714Y-35771428D01*
X82753333Y-35676190D01*
X82800952Y-35628571D01*
X82896190Y-35580952D01*
X83181904Y-35580952D01*
X83277142Y-35628571D01*
X83324761Y-35676190D01*
X83372380Y-35771428D01*
X83372380Y-35961904D01*
X83324761Y-36057142D01*
X83324761Y-34771428D02*
X83372380Y-34866666D01*
X83372380Y-35057142D01*
X83324761Y-35152380D01*
X83229523Y-35200000D01*
X82848571Y-35200000D01*
X82753333Y-35152380D01*
X82705714Y-35057142D01*
X82705714Y-34866666D01*
X82753333Y-34771428D01*
X82848571Y-34723809D01*
X82943809Y-34723809D01*
X83039047Y-35200000D01*
X83372380Y-34295238D02*
X82705714Y-34295238D01*
X82896190Y-34295238D02*
X82800952Y-34247619D01*
X82753333Y-34200000D01*
X82705714Y-34104761D01*
X82705714Y-34009523D01*
X83372380Y-33152380D02*
X83372380Y-33723809D01*
X83372380Y-33438095D02*
X82372380Y-33438095D01*
X82515238Y-33533333D01*
X82610476Y-33628571D01*
X82658095Y-33723809D01*
D11*
X79980000Y-45510000D02*
X82220000Y-45510000D01*
X79980000Y-41990000D02*
X79980000Y-46230000D01*
X81100000Y-41340000D02*
X81100000Y-41990000D01*
X79980000Y-45390000D02*
X82220000Y-45390000D01*
X79980000Y-45630000D02*
X82220000Y-45630000D01*
X79980000Y-46230000D02*
X82220000Y-46230000D01*
X82220000Y-46230000D02*
X82220000Y-41990000D01*
X81100000Y-46880000D02*
X81100000Y-46230000D01*
X82220000Y-41990000D02*
X79980000Y-41990000D01*
X66015000Y-58715000D02*
X62940000Y-58715000D01*
X62940000Y-58715000D02*
X62940000Y-68585000D01*
X67030000Y-67165000D02*
X67530000Y-67165000D01*
X62940000Y-68585000D02*
X66015000Y-68585000D01*
X67530000Y-60135000D02*
X67030000Y-60135000D01*
X67530000Y-67165000D02*
X67530000Y-67145000D01*
X67030000Y-60135000D02*
X67030000Y-67165000D01*
X67530000Y-60155000D02*
X67530000Y-60135000D01*
X64850000Y-50300000D02*
X64850000Y-52100000D01*
X64850000Y-54600000D02*
X65600000Y-54600000D01*
X63350000Y-50300000D02*
X63350000Y-51050000D01*
X65610000Y-57910000D02*
X65610000Y-50290000D01*
X65610000Y-50290000D02*
X59640000Y-50290000D01*
X59640000Y-50290000D02*
X59640000Y-57910000D01*
X60400000Y-51050000D02*
X60400000Y-54100000D01*
X64850000Y-53600000D02*
X64850000Y-54600000D01*
X65600000Y-54600000D02*
X65600000Y-53600000D01*
X65600000Y-56100000D02*
X64850000Y-56100000D01*
X63350000Y-57150000D02*
X60400000Y-57150000D01*
X65600000Y-52100000D02*
X65600000Y-50300000D01*
X63350000Y-51050000D02*
X60400000Y-51050000D01*
X64850000Y-57900000D02*
X65600000Y-57900000D01*
X60400000Y-57150000D02*
X60400000Y-54100000D01*
X59640000Y-57910000D02*
X65610000Y-57910000D01*
X65600000Y-53600000D02*
X64850000Y-53600000D01*
X64850000Y-56100000D02*
X64850000Y-57900000D01*
X65600000Y-57900000D02*
X65600000Y-56100000D01*
X65600000Y-50300000D02*
X64850000Y-50300000D01*
X63350000Y-57900000D02*
X63350000Y-57150000D01*
X64850000Y-52100000D02*
X65600000Y-52100000D01*
X65900000Y-51250000D02*
X65900000Y-50000000D01*
X65900000Y-50000000D02*
X64650000Y-50000000D01*
X79315000Y-43650000D02*
X50945000Y-43650000D01*
X51945000Y-33520000D02*
X78315000Y-33520000D01*
X78315000Y-33520000D02*
X79315000Y-34520000D01*
X79315000Y-34520000D02*
X79315000Y-43650000D01*
X50945000Y-34520000D02*
X51945000Y-33520000D01*
X50945000Y-43650000D02*
X50945000Y-34520000D01*
X58760000Y-55210000D02*
X58760000Y-49240000D01*
X51150000Y-51500000D02*
X51900000Y-51500000D01*
X51900000Y-51500000D02*
X51900000Y-54450000D01*
X52950000Y-49250000D02*
X51150000Y-49250000D01*
X56950000Y-49250000D02*
X56950000Y-50000000D01*
X55450000Y-50000000D02*
X55450000Y-49250000D01*
X52950000Y-50000000D02*
X52950000Y-49250000D01*
X58760000Y-49240000D02*
X51140000Y-49240000D01*
X51150000Y-49250000D02*
X51150000Y-50000000D01*
X51900000Y-54450000D02*
X54950000Y-54450000D01*
X58750000Y-50000000D02*
X58750000Y-49250000D01*
X56950000Y-50000000D02*
X58750000Y-50000000D01*
X58000000Y-51500000D02*
X58000000Y-54450000D01*
X54450000Y-50000000D02*
X55450000Y-50000000D01*
X55450000Y-49250000D02*
X54450000Y-49250000D01*
X51140000Y-49240000D02*
X51140000Y-55210000D01*
X51150000Y-50000000D02*
X52950000Y-50000000D01*
X51140000Y-55210000D02*
X58760000Y-55210000D01*
X52100000Y-48950000D02*
X50850000Y-48950000D01*
X58750000Y-49250000D02*
X56950000Y-49250000D01*
X54450000Y-49250000D02*
X54450000Y-50000000D01*
X50850000Y-48950000D02*
X50850000Y-50200000D01*
X58000000Y-54450000D02*
X54950000Y-54450000D01*
X58750000Y-51500000D02*
X58000000Y-51500000D01*
X58800000Y-57100000D02*
X58800000Y-56350000D01*
X53000000Y-56350000D02*
X51200000Y-56350000D01*
X51950000Y-58600000D02*
X51950000Y-61550000D01*
X53000000Y-57100000D02*
X53000000Y-56350000D01*
X55500000Y-57100000D02*
X55500000Y-56350000D01*
X58810000Y-56340000D02*
X51190000Y-56340000D01*
X58800000Y-56350000D02*
X57000000Y-56350000D01*
X51190000Y-62310000D02*
X58810000Y-62310000D01*
X54500000Y-57100000D02*
X55500000Y-57100000D01*
X54500000Y-56350000D02*
X54500000Y-57100000D01*
X58800000Y-58600000D02*
X58050000Y-58600000D01*
X51200000Y-58600000D02*
X51950000Y-58600000D01*
X55500000Y-56350000D02*
X54500000Y-56350000D01*
X52150000Y-56050000D02*
X50900000Y-56050000D01*
X50900000Y-56050000D02*
X50900000Y-57300000D01*
X58050000Y-58600000D02*
X58050000Y-61550000D01*
X51950000Y-61550000D02*
X55000000Y-61550000D01*
X57000000Y-57100000D02*
X58800000Y-57100000D01*
X51200000Y-56350000D02*
X51200000Y-57100000D01*
X58810000Y-62310000D02*
X58810000Y-56340000D01*
X51200000Y-57100000D02*
X53000000Y-57100000D01*
X57000000Y-56350000D02*
X57000000Y-57100000D01*
X51190000Y-56340000D02*
X51190000Y-62310000D01*
X58050000Y-61550000D02*
X55000000Y-61550000D01*
X82150000Y-55650000D02*
X80900000Y-55650000D01*
X75890000Y-55940000D02*
X75890000Y-71060000D01*
X81100000Y-71050000D02*
X81850000Y-71050000D01*
X81860000Y-71060000D02*
X81860000Y-55940000D01*
X81850000Y-67750000D02*
X81850000Y-59250000D01*
X81100000Y-67750000D02*
X81850000Y-67750000D01*
X81100000Y-57750000D02*
X81850000Y-57750000D01*
X81100000Y-69250000D02*
X81100000Y-71050000D01*
X81850000Y-57750000D02*
X81850000Y-55950000D01*
X81850000Y-59250000D02*
X81100000Y-59250000D01*
X81850000Y-55950000D02*
X81100000Y-55950000D01*
X79600000Y-56700000D02*
X76650000Y-56700000D01*
X81100000Y-59250000D02*
X81100000Y-67750000D01*
X76650000Y-56700000D02*
X76650000Y-63500000D01*
X79600000Y-71050000D02*
X79600000Y-70300000D01*
X81850000Y-71050000D02*
X81850000Y-69250000D01*
X79600000Y-55950000D02*
X79600000Y-56700000D01*
X81860000Y-55940000D02*
X75890000Y-55940000D01*
X82150000Y-56900000D02*
X82150000Y-55650000D01*
X76650000Y-70300000D02*
X76650000Y-63500000D01*
X79600000Y-70300000D02*
X76650000Y-70300000D01*
X81850000Y-69250000D02*
X81100000Y-69250000D01*
X75890000Y-71060000D02*
X81860000Y-71060000D01*
X81100000Y-55950000D02*
X81100000Y-57750000D01*
X72600000Y-67800000D02*
X69650000Y-67800000D01*
X74860000Y-68560000D02*
X74860000Y-55940000D01*
X69650000Y-56700000D02*
X69650000Y-62250000D01*
X74100000Y-65250000D02*
X74850000Y-65250000D01*
X74850000Y-65250000D02*
X74850000Y-59250000D01*
X75150000Y-55650000D02*
X73900000Y-55650000D01*
X74100000Y-59250000D02*
X74100000Y-65250000D01*
X75150000Y-56900000D02*
X75150000Y-55650000D01*
X74850000Y-66750000D02*
X74100000Y-66750000D01*
X74100000Y-55950000D02*
X74100000Y-57750000D01*
X74850000Y-59250000D02*
X74100000Y-59250000D01*
X69650000Y-67800000D02*
X69650000Y-62250000D01*
X72600000Y-55950000D02*
X72600000Y-56700000D01*
X68890000Y-68560000D02*
X74860000Y-68560000D01*
X72600000Y-68550000D02*
X72600000Y-67800000D01*
X74850000Y-55950000D02*
X74100000Y-55950000D01*
X74860000Y-55940000D02*
X68890000Y-55940000D01*
X74850000Y-68550000D02*
X74850000Y-66750000D01*
X74100000Y-66750000D02*
X74100000Y-68550000D01*
X74850000Y-57750000D02*
X74850000Y-55950000D01*
X74100000Y-57750000D02*
X74850000Y-57750000D01*
X74100000Y-68550000D02*
X74850000Y-68550000D01*
X68890000Y-55940000D02*
X68890000Y-68560000D01*
X72600000Y-56700000D02*
X69650000Y-56700000D01*
X68050000Y-51300000D02*
X68050000Y-54250000D01*
X67300000Y-49050000D02*
X67300000Y-49800000D01*
X68050000Y-54250000D02*
X71100000Y-54250000D01*
X67300000Y-51300000D02*
X68050000Y-51300000D01*
X67290000Y-55010000D02*
X74910000Y-55010000D01*
X73100000Y-49050000D02*
X73100000Y-49800000D01*
X74910000Y-49040000D02*
X67290000Y-49040000D01*
X74150000Y-51300000D02*
X74150000Y-54250000D01*
X73100000Y-49800000D02*
X74900000Y-49800000D01*
X70600000Y-49050000D02*
X70600000Y-49800000D01*
X67290000Y-49040000D02*
X67290000Y-55010000D01*
X70600000Y-49800000D02*
X71600000Y-49800000D01*
X74910000Y-55010000D02*
X74910000Y-49040000D01*
X67000000Y-48750000D02*
X67000000Y-50000000D01*
X67300000Y-49800000D02*
X69100000Y-49800000D01*
X74900000Y-49050000D02*
X73100000Y-49050000D01*
X68250000Y-48750000D02*
X67000000Y-48750000D01*
X71600000Y-49050000D02*
X70600000Y-49050000D01*
X69100000Y-49800000D02*
X69100000Y-49050000D01*
X74900000Y-49800000D02*
X74900000Y-49050000D01*
X71600000Y-49800000D02*
X71600000Y-49050000D01*
X69100000Y-49050000D02*
X67300000Y-49050000D01*
X74150000Y-54250000D02*
X71100000Y-54250000D01*
X74900000Y-51300000D02*
X74150000Y-51300000D01*
X82235000Y-34240000D02*
X79965000Y-34240000D01*
X82235000Y-38300000D02*
X82235000Y-34240000D01*
X79965000Y-34240000D02*
X79965000Y-38300000D01*
X62200000Y-66400000D02*
X62200000Y-63350000D01*
X67700000Y-59250000D02*
X66450000Y-59250000D01*
X67400000Y-67150000D02*
X67400000Y-65350000D01*
X66650000Y-62850000D02*
X66650000Y-63850000D01*
X62200000Y-60300000D02*
X62200000Y-63350000D01*
X67410000Y-67160000D02*
X67410000Y-59540000D01*
X65150000Y-59550000D02*
X65150000Y-60300000D01*
X67400000Y-59550000D02*
X66650000Y-59550000D01*
X61440000Y-59540000D02*
X61440000Y-67160000D01*
X66650000Y-63850000D02*
X67400000Y-63850000D01*
X67400000Y-65350000D02*
X66650000Y-65350000D01*
X65150000Y-66400000D02*
X62200000Y-66400000D01*
X66650000Y-65350000D02*
X66650000Y-67150000D01*
X67700000Y-60500000D02*
X67700000Y-59250000D01*
X66650000Y-59550000D02*
X66650000Y-61350000D01*
X65150000Y-60300000D02*
X62200000Y-60300000D01*
X67400000Y-62850000D02*
X66650000Y-62850000D01*
X66650000Y-67150000D02*
X67400000Y-67150000D01*
X61440000Y-67160000D02*
X67410000Y-67160000D01*
X67400000Y-63850000D02*
X67400000Y-62850000D01*
X66650000Y-61350000D02*
X67400000Y-61350000D01*
X67400000Y-61350000D02*
X67400000Y-59550000D01*
X67410000Y-59540000D02*
X61440000Y-59540000D01*
X65150000Y-67150000D02*
X65150000Y-66400000D01*
X51215000Y-39970000D02*
X52635000Y-39970000D01*
X77665000Y-39970000D02*
X79085000Y-39970000D01*
X51215000Y-45730000D02*
X51215000Y-39970000D01*
X52635000Y-39970000D02*
X52635000Y-40470000D01*
X51215000Y-47250000D02*
X51215000Y-47560000D01*
X52635000Y-40470000D02*
X77665000Y-40470000D01*
X51215000Y-47560000D02*
X79085000Y-47560000D01*
X79085000Y-39970000D02*
X79085000Y-45730000D01*
X79085000Y-47560000D02*
X79085000Y-47250000D01*
X77665000Y-40470000D02*
X77665000Y-39970000D01*
X74865000Y-48920000D02*
X74845000Y-48920000D01*
X67835000Y-49420000D02*
X74865000Y-49420000D01*
X67835000Y-48920000D02*
X67835000Y-49420000D01*
X67855000Y-48920000D02*
X67835000Y-48920000D01*
X66415000Y-53510000D02*
X76285000Y-53510000D01*
X76285000Y-53510000D02*
X76285000Y-50435000D01*
X66415000Y-50435000D02*
X66415000Y-53510000D01*
X74865000Y-49420000D02*
X74865000Y-48920000D01*
X79315000Y-43650000D02*
X79315000Y-39825000D01*
X50945000Y-34520000D02*
X51945000Y-33520000D01*
X79315000Y-34520000D02*
X79315000Y-36635000D01*
X50945000Y-39825000D02*
X50945000Y-43650000D01*
X50945000Y-43650000D02*
X79315000Y-43650000D01*
X51945000Y-33520000D02*
X78315000Y-33520000D01*
X50945000Y-36635000D02*
X50945000Y-34520000D01*
X78315000Y-33520000D02*
X79315000Y-34520000D01*
X61515000Y-59520000D02*
X62935000Y-59520000D01*
X68385000Y-59520000D02*
X68385000Y-65280000D01*
X61515000Y-65280000D02*
X61515000Y-59520000D01*
X66965000Y-60020000D02*
X66965000Y-59520000D01*
X62935000Y-60020000D02*
X66965000Y-60020000D01*
X68385000Y-67110000D02*
X68385000Y-66800000D01*
X61515000Y-67110000D02*
X68385000Y-67110000D01*
X61515000Y-66800000D02*
X61515000Y-67110000D01*
X62935000Y-59520000D02*
X62935000Y-60020000D01*
X66965000Y-59520000D02*
X68385000Y-59520000D01*
M02*
