G04*
G04 #@! TF.GenerationSoftware,Altium Limited,Altium Designer,19.1.9 (167)*
G04*
G04 Layer_Physical_Order=1*
G04 Layer_Color=255*
%FSLAX25Y25*%
%MOIN*%
G70*
G01*
G75*
%ADD12C,0.01200*%
%ADD13P,0.06818X8X112.5*%
%ADD14C,0.02400*%
G36*
X64833Y167440D02*
X65969Y166969D01*
X66991Y166286D01*
X67861Y165417D01*
X68544Y164394D01*
X69015Y163258D01*
X69254Y162052D01*
Y161437D01*
X69254Y34777D01*
Y34163D01*
X69015Y32956D01*
X68544Y31820D01*
X67861Y30798D01*
X67426Y30363D01*
X40543Y3479D01*
X40108Y3045D01*
X39085Y2362D01*
X37949Y1891D01*
X36743Y1651D01*
X7894D01*
X7279Y1651D01*
X6073Y1891D01*
X4937Y2362D01*
X3914Y3045D01*
X3045Y3914D01*
X2362Y4937D01*
X1891Y6073D01*
X1651Y7279D01*
X1651Y7894D01*
Y134553D01*
X1651Y135168D01*
X1891Y136374D01*
X2362Y137510D01*
X3045Y138533D01*
X3479Y138968D01*
X30363Y165851D01*
X30798Y166286D01*
X31820Y166969D01*
X32956Y167440D01*
X34163Y167680D01*
X34777Y167680D01*
X63627D01*
X64833Y167440D01*
D02*
G37*
%LPC*%
G36*
X64660Y165881D02*
X63085D01*
Y162232D01*
X66735D01*
Y163806D01*
X64660Y165881D01*
D02*
G37*
G36*
X62085D02*
X60511D01*
X58436Y163806D01*
Y162232D01*
X62085D01*
Y165881D01*
D02*
G37*
G36*
X66735Y161232D02*
X63085D01*
Y157582D01*
X64660D01*
X66735Y159657D01*
Y161232D01*
D02*
G37*
G36*
X62085D02*
X58436D01*
Y159657D01*
X60511Y157582D01*
X62085D01*
Y161232D01*
D02*
G37*
G36*
X54909Y165882D02*
X50760D01*
X48685Y163807D01*
Y159847D01*
X42857Y154019D01*
X41848Y154189D01*
X41503Y154362D01*
X41105Y154959D01*
X40377Y155446D01*
X39518Y155616D01*
X38660Y155446D01*
X38167Y155116D01*
X37817Y154991D01*
X36714Y155296D01*
X36605Y155459D01*
X35877Y155946D01*
X35018Y156116D01*
X34160Y155946D01*
X33432Y155459D01*
X32946Y154732D01*
X32793Y153962D01*
X32787Y153953D01*
X32763Y153925D01*
X31274Y152436D01*
X31032Y152394D01*
X29803Y152662D01*
X29605Y152960D01*
X28877Y153446D01*
X28018Y153616D01*
X27160Y153446D01*
X26432Y152960D01*
X25946Y152232D01*
X25775Y151373D01*
X25896Y150765D01*
X25725Y150245D01*
X25152Y149544D01*
X24660Y149446D01*
X23932Y148960D01*
X23446Y148232D01*
X23275Y147373D01*
X23293Y147285D01*
X23067Y146324D01*
X22419Y145997D01*
X22160Y145946D01*
X21432Y145459D01*
X20946Y144732D01*
X20775Y143873D01*
X20946Y143015D01*
X21113Y142766D01*
X21102Y142640D01*
X20573Y141528D01*
X20160Y141446D01*
X20013Y141347D01*
X19432Y140960D01*
X18410Y141589D01*
X17877Y141946D01*
X17018Y142116D01*
X16160Y141946D01*
X15507Y141509D01*
X15496Y141508D01*
X15460Y141505D01*
X15018D01*
X14394Y141381D01*
X13865Y141027D01*
X7365Y134527D01*
X7011Y133998D01*
X6917Y133524D01*
X6193D01*
X4118Y131449D01*
Y127299D01*
X6193Y125224D01*
X10343D01*
X11212Y124397D01*
X11214Y124349D01*
X11039Y124183D01*
X10131Y123524D01*
X6193D01*
X4118Y121449D01*
Y117299D01*
X6193Y115224D01*
X9833D01*
X10256Y114665D01*
X9615Y113524D01*
X6193D01*
X4118Y111449D01*
Y107299D01*
X6193Y105224D01*
X9833D01*
X10256Y104665D01*
X9615Y103524D01*
X6193D01*
X4118Y101449D01*
Y97299D01*
X6193Y95224D01*
X10343D01*
X10601Y95483D01*
X12864Y93221D01*
X13394Y92867D01*
X13558Y92834D01*
X14037Y91616D01*
X13869Y91448D01*
Y87299D01*
X15944Y85224D01*
X20093D01*
X21158Y86288D01*
X22358Y85791D01*
Y51456D01*
X21158Y50959D01*
X20093Y52023D01*
X15944D01*
X13869Y49948D01*
Y45799D01*
X15944Y43724D01*
X20093D01*
X21158Y44788D01*
X22358Y44291D01*
Y41456D01*
X21158Y40958D01*
X20093Y42023D01*
X15944D01*
X13869Y39948D01*
Y35799D01*
X15944Y33724D01*
X20093D01*
X21158Y34788D01*
X22358Y34291D01*
Y31456D01*
X21158Y30959D01*
X20093Y32023D01*
X15944D01*
X13869Y29948D01*
Y25799D01*
X15944Y23724D01*
X20093D01*
X21158Y24788D01*
X22358Y24291D01*
Y21456D01*
X21158Y20958D01*
X20093Y22023D01*
X15944D01*
X13869Y19948D01*
Y15799D01*
X15944Y13724D01*
X19366D01*
X20007Y12583D01*
X19583Y12023D01*
X15944D01*
X13869Y9948D01*
Y5799D01*
X15944Y3724D01*
X20093D01*
X22168Y5799D01*
Y9714D01*
X22177Y9725D01*
X25143Y12690D01*
X25496Y13220D01*
X25620Y13844D01*
Y13996D01*
X25640Y14015D01*
X26820Y14528D01*
X27160Y14301D01*
X28018Y14130D01*
X28877Y14301D01*
X29605Y14787D01*
X30091Y15515D01*
X30261Y16373D01*
X31303Y17286D01*
X31377Y17301D01*
X32105Y17787D01*
X32591Y18515D01*
X32761Y19373D01*
X33803Y20286D01*
X33877Y20301D01*
X34605Y20787D01*
X35091Y21515D01*
X35261Y22373D01*
X36303Y23286D01*
X36377Y23301D01*
X37105Y23787D01*
X37591Y24515D01*
X37762Y25373D01*
X38803Y26286D01*
X38877Y26301D01*
X39605Y26787D01*
X40091Y27515D01*
X40262Y28373D01*
X41303Y29286D01*
X41377Y29301D01*
X42105Y29787D01*
X42591Y30515D01*
X42761Y31373D01*
X43803Y32286D01*
X43877Y32301D01*
X44605Y32787D01*
X45091Y33515D01*
X45261Y34373D01*
X46303Y35286D01*
X46377Y35301D01*
X47105Y35787D01*
X47591Y36515D01*
X47630Y36710D01*
X48883Y36861D01*
X50760Y34984D01*
X54909D01*
X56984Y37059D01*
Y41209D01*
X54909Y43284D01*
X50760D01*
X48685Y41209D01*
Y38590D01*
X48112Y38402D01*
X47485Y38390D01*
X47105Y38960D01*
X46377Y39446D01*
X45650Y39590D01*
Y80198D01*
X59672Y94220D01*
X60026Y94749D01*
X60150Y95373D01*
Y109698D01*
X63739Y113287D01*
X64092Y113816D01*
X64217Y114440D01*
Y117582D01*
X64660D01*
X66735Y119657D01*
Y123806D01*
X64660Y125881D01*
X61238D01*
X60597Y127022D01*
X61020Y127582D01*
X64660D01*
X66735Y129657D01*
Y133806D01*
X64660Y135881D01*
X61238D01*
X60597Y137022D01*
X61020Y137582D01*
X64660D01*
X66735Y139657D01*
Y143806D01*
X64660Y145881D01*
X61238D01*
X60597Y147022D01*
X61020Y147582D01*
X64660D01*
X66735Y149657D01*
Y153806D01*
X64660Y155881D01*
X60511D01*
X58436Y153806D01*
Y150816D01*
X58184Y150650D01*
X56984Y151297D01*
Y153807D01*
X54909Y155882D01*
X51588D01*
X50967Y157055D01*
X51361Y157583D01*
X54909D01*
X56984Y159658D01*
Y163807D01*
X54909Y165882D01*
D02*
G37*
G36*
X10343Y93524D02*
X8768D01*
Y89874D01*
X12417D01*
Y91449D01*
X10343Y93524D01*
D02*
G37*
G36*
X7768D02*
X6193D01*
X4118Y91449D01*
Y89874D01*
X7768D01*
Y93524D01*
D02*
G37*
G36*
X12417Y88874D02*
X8768D01*
Y85224D01*
X10343D01*
X12417Y87299D01*
Y88874D01*
D02*
G37*
G36*
X7768D02*
X4118D01*
Y87299D01*
X6193Y85224D01*
X7768D01*
Y88874D01*
D02*
G37*
G36*
X64660Y83283D02*
X63085D01*
Y79633D01*
X66735D01*
Y81208D01*
X64660Y83283D01*
D02*
G37*
G36*
X62085D02*
X60511D01*
X58436Y81208D01*
Y79633D01*
X62085D01*
Y83283D01*
D02*
G37*
G36*
X54909Y83284D02*
X50760D01*
X48685Y81209D01*
Y77059D01*
X50760Y74984D01*
X54909D01*
X56984Y77059D01*
Y81209D01*
X54909Y83284D01*
D02*
G37*
G36*
X66735Y78633D02*
X63085D01*
Y74984D01*
X64660D01*
X66735Y77058D01*
Y78633D01*
D02*
G37*
G36*
X62085D02*
X58436D01*
Y77058D01*
X60511Y74984D01*
X62085D01*
Y78633D01*
D02*
G37*
G36*
X54909Y73283D02*
X50760D01*
X48685Y71209D01*
Y67059D01*
X50760Y64984D01*
X54909D01*
X56984Y67059D01*
Y71209D01*
X54909Y73283D01*
D02*
G37*
G36*
X64660Y73283D02*
X60511D01*
X58436Y71208D01*
Y67058D01*
X60511Y64984D01*
X64660D01*
X66735Y67058D01*
Y71208D01*
X64660Y73283D01*
D02*
G37*
G36*
X54909Y63283D02*
X50760D01*
X48685Y61209D01*
Y57059D01*
X50760Y54984D01*
X54909D01*
X56984Y57059D01*
Y61209D01*
X54909Y63283D01*
D02*
G37*
G36*
X64660Y63283D02*
X60511D01*
X58436Y61208D01*
Y57058D01*
X60511Y54984D01*
X64660D01*
X66735Y57058D01*
Y61208D01*
X64660Y63283D01*
D02*
G37*
G36*
X54909Y53284D02*
X50760D01*
X48685Y51209D01*
Y47059D01*
X50760Y44984D01*
X54909D01*
X56984Y47059D01*
Y51209D01*
X54909Y53284D01*
D02*
G37*
G36*
X64660Y53283D02*
X60511D01*
X58436Y51208D01*
Y47058D01*
X60511Y44984D01*
X64660D01*
X66735Y47058D01*
Y51208D01*
X64660Y53283D01*
D02*
G37*
G36*
X10343Y52024D02*
X6193D01*
X4118Y49949D01*
Y45799D01*
X6193Y43724D01*
X10343D01*
X12417Y45799D01*
Y49949D01*
X10343Y52024D01*
D02*
G37*
G36*
X64660Y43283D02*
X60511D01*
X58436Y41208D01*
Y37058D01*
X60511Y34984D01*
X64660D01*
X66735Y37058D01*
Y41208D01*
X64660Y43283D01*
D02*
G37*
G36*
X10343Y42024D02*
X6193D01*
X4118Y39949D01*
Y35799D01*
X6193Y33724D01*
X10343D01*
X12417Y35799D01*
Y39949D01*
X10343Y42024D01*
D02*
G37*
G36*
Y32024D02*
X6193D01*
X4118Y29949D01*
Y25799D01*
X6193Y23724D01*
X10343D01*
X12417Y25799D01*
Y29949D01*
X10343Y32024D01*
D02*
G37*
G36*
Y22024D02*
X6193D01*
X4118Y19949D01*
Y15799D01*
X6193Y13724D01*
X10343D01*
X12417Y15799D01*
Y19949D01*
X10343Y22024D01*
D02*
G37*
G36*
Y12024D02*
X8768D01*
Y8374D01*
X12417D01*
Y9949D01*
X10343Y12024D01*
D02*
G37*
G36*
X7768D02*
X6193D01*
X4118Y9949D01*
Y8374D01*
X7768D01*
Y12024D01*
D02*
G37*
G36*
X12417Y7374D02*
X8768D01*
Y3724D01*
X10343D01*
X12417Y5799D01*
Y7374D01*
D02*
G37*
G36*
X7768D02*
X4118D01*
Y5799D01*
X6193Y3724D01*
X7768D01*
Y7374D01*
D02*
G37*
%LPD*%
G36*
X51437Y158607D02*
X51346Y158675D01*
X51245Y158716D01*
X51134Y158731D01*
X51014Y158719D01*
X50883Y158680D01*
X50742Y158615D01*
X50591Y158522D01*
X50430Y158403D01*
X50259Y158257D01*
X50078Y158085D01*
X49230Y158933D01*
X49398Y159110D01*
X49540Y159277D01*
X49654Y159433D01*
X49742Y159580D01*
X49804Y159716D01*
X49838Y159843D01*
X49846Y159959D01*
X49827Y160066D01*
X49782Y160162D01*
X49709Y160249D01*
X51437Y158607D01*
D02*
G37*
G36*
X35006Y152673D02*
X34938Y152669D01*
X34867Y152656D01*
X34793Y152633D01*
X34716Y152600D01*
X34637Y152558D01*
X34554Y152506D01*
X34470Y152445D01*
X34382Y152375D01*
X34199Y152205D01*
X33350Y153054D01*
X33440Y153147D01*
X33590Y153324D01*
X33652Y153409D01*
X33703Y153491D01*
X33745Y153571D01*
X33778Y153648D01*
X33801Y153721D01*
X33814Y153793D01*
X33819Y153861D01*
X35006Y152673D01*
D02*
G37*
G36*
X39506Y152173D02*
X39438Y152169D01*
X39367Y152156D01*
X39293Y152133D01*
X39216Y152100D01*
X39136Y152058D01*
X39054Y152006D01*
X38969Y151945D01*
X38882Y151875D01*
X38699Y151705D01*
X37850Y152554D01*
X37940Y152647D01*
X38090Y152824D01*
X38151Y152909D01*
X38203Y152991D01*
X38245Y153071D01*
X38278Y153148D01*
X38301Y153221D01*
X38314Y153293D01*
X38318Y153361D01*
X39506Y152173D01*
D02*
G37*
G36*
X49709Y150173D02*
X49697Y150287D01*
X49661Y150389D01*
X49600Y150479D01*
X49515Y150557D01*
X49406Y150623D01*
X49273Y150677D01*
X49115Y150719D01*
X48933Y150749D01*
X48727Y150767D01*
X48497Y150773D01*
Y151973D01*
X48727Y151979D01*
X48933Y151997D01*
X49115Y152027D01*
X49273Y152069D01*
X49406Y152123D01*
X49515Y152189D01*
X49600Y152267D01*
X49661Y152357D01*
X49697Y152459D01*
X49709Y152573D01*
Y150173D01*
D02*
G37*
G36*
X61145Y148606D02*
X61056Y148676D01*
X60957Y148720D01*
X60849Y148737D01*
X60730Y148727D01*
X60602Y148690D01*
X60463Y148627D01*
X60314Y148537D01*
X60155Y148420D01*
X59987Y148276D01*
X59808Y148106D01*
X58959Y148954D01*
X59130Y149133D01*
X59273Y149302D01*
X59390Y149460D01*
X59480Y149609D01*
X59544Y149748D01*
X59580Y149876D01*
X59590Y149995D01*
X59574Y150104D01*
X59530Y150202D01*
X59460Y150291D01*
X61145Y148606D01*
D02*
G37*
G36*
X50110Y139768D02*
X50079Y139898D01*
X50027Y139990D01*
X49954Y140045D01*
X49860Y140061D01*
X49744Y140039D01*
X49608Y139978D01*
X49450Y139880D01*
X49270Y139743D01*
X49070Y139568D01*
X48849Y139355D01*
Y141052D01*
X49030Y141242D01*
X49329Y141608D01*
X49447Y141784D01*
X49543Y141956D01*
X49619Y142124D01*
X49673Y142287D01*
X49706Y142445D01*
X49718Y142599D01*
X49709Y142749D01*
X50110Y139768D01*
D02*
G37*
G36*
X16161Y139033D02*
X16110Y139079D01*
X16050Y139120D01*
X15981Y139156D01*
X15904Y139187D01*
X15818Y139213D01*
X15724Y139235D01*
X15621Y139252D01*
X15509Y139264D01*
X15259Y139273D01*
Y140473D01*
X15388Y140476D01*
X15621Y140495D01*
X15724Y140512D01*
X15818Y140533D01*
X15904Y140560D01*
X15981Y140591D01*
X16050Y140627D01*
X16110Y140668D01*
X16161Y140713D01*
Y139033D01*
D02*
G37*
G36*
X61145Y138606D02*
X61056Y138676D01*
X60957Y138720D01*
X60849Y138737D01*
X60730Y138727D01*
X60602Y138690D01*
X60463Y138627D01*
X60314Y138537D01*
X60155Y138420D01*
X59987Y138276D01*
X59808Y138106D01*
X58959Y138954D01*
X59130Y139133D01*
X59273Y139302D01*
X59390Y139460D01*
X59480Y139609D01*
X59544Y139748D01*
X59580Y139876D01*
X59590Y139995D01*
X59574Y140104D01*
X59530Y140202D01*
X59460Y140291D01*
X61145Y138606D01*
D02*
G37*
G36*
X21006Y138173D02*
X20938Y138169D01*
X20867Y138156D01*
X20793Y138133D01*
X20716Y138100D01*
X20637Y138058D01*
X20554Y138006D01*
X20470Y137945D01*
X20382Y137875D01*
X20199Y137705D01*
X19350Y138554D01*
X19440Y138647D01*
X19590Y138824D01*
X19651Y138909D01*
X19703Y138991D01*
X19745Y139071D01*
X19778Y139148D01*
X19801Y139222D01*
X19814Y139293D01*
X19818Y139361D01*
X21006Y138173D01*
D02*
G37*
G36*
X9121Y133207D02*
X9142Y132928D01*
X9160Y132814D01*
X9184Y132718D01*
X9213Y132639D01*
X9247Y132578D01*
X9286Y132535D01*
X9330Y132508D01*
X9380Y132500D01*
X7657D01*
X7706Y132508D01*
X7751Y132535D01*
X7790Y132578D01*
X7824Y132639D01*
X7853Y132718D01*
X7877Y132814D01*
X7895Y132928D01*
X7908Y133059D01*
X7918Y133373D01*
X9118D01*
X9121Y133207D01*
D02*
G37*
G36*
X61145Y128606D02*
X61056Y128676D01*
X60957Y128720D01*
X60849Y128737D01*
X60730Y128727D01*
X60602Y128690D01*
X60463Y128627D01*
X60314Y128536D01*
X60155Y128420D01*
X59987Y128276D01*
X59808Y128106D01*
X58959Y128954D01*
X59130Y129133D01*
X59273Y129302D01*
X59390Y129460D01*
X59480Y129609D01*
X59544Y129748D01*
X59580Y129876D01*
X59590Y129995D01*
X59574Y130104D01*
X59530Y130202D01*
X59460Y130291D01*
X61145Y128606D01*
D02*
G37*
G36*
X15420Y122829D02*
X15588Y122685D01*
X15747Y122569D01*
X15896Y122478D01*
X16035Y122415D01*
X16163Y122378D01*
X16282Y122368D01*
X16391Y122385D01*
X16489Y122429D01*
X16578Y122499D01*
X14893Y120814D01*
X14963Y120903D01*
X15007Y121001D01*
X15023Y121110D01*
X15013Y121229D01*
X14977Y121357D01*
X14913Y121496D01*
X14823Y121645D01*
X14706Y121803D01*
X14563Y121972D01*
X14392Y122151D01*
X15241Y122999D01*
X15420Y122829D01*
D02*
G37*
G36*
X63671Y118594D02*
X63569Y118558D01*
X63479Y118497D01*
X63401Y118412D01*
X63335Y118303D01*
X63281Y118170D01*
X63239Y118012D01*
X63209Y117830D01*
X63191Y117624D01*
X63185Y117394D01*
X61985D01*
X61979Y117624D01*
X61961Y117830D01*
X61931Y118012D01*
X61889Y118170D01*
X61835Y118303D01*
X61769Y118412D01*
X61691Y118497D01*
X61601Y118558D01*
X61499Y118594D01*
X61385Y118606D01*
X63785D01*
X63671Y118594D01*
D02*
G37*
G36*
X11323Y117845D02*
X11280Y117746D01*
X11263Y117638D01*
X11273Y117519D01*
X11309Y117390D01*
X11373Y117251D01*
X11463Y117103D01*
X11580Y116944D01*
X11723Y116775D01*
X11894Y116597D01*
X11045Y115748D01*
X10866Y115918D01*
X10698Y116062D01*
X10539Y116179D01*
X10390Y116269D01*
X10252Y116332D01*
X10123Y116369D01*
X10004Y116379D01*
X9896Y116362D01*
X9797Y116319D01*
X9708Y116248D01*
X11393Y117933D01*
X11323Y117845D01*
D02*
G37*
G36*
X51006Y111673D02*
X50938Y111669D01*
X50867Y111656D01*
X50793Y111633D01*
X50716Y111600D01*
X50637Y111558D01*
X50554Y111506D01*
X50469Y111445D01*
X50382Y111375D01*
X50199Y111205D01*
X49350Y112054D01*
X49440Y112147D01*
X49590Y112325D01*
X49652Y112409D01*
X49703Y112491D01*
X49745Y112571D01*
X49778Y112648D01*
X49801Y112722D01*
X49814Y112793D01*
X49819Y112861D01*
X51006Y111673D01*
D02*
G37*
G36*
X21168Y110459D02*
X21204Y110357D01*
X21264Y110267D01*
X21348Y110189D01*
X21456Y110123D01*
X21588Y110069D01*
X21744Y110027D01*
X21924Y109997D01*
X22128Y109979D01*
X22356Y109973D01*
Y108773D01*
X22128Y108767D01*
X21924Y108749D01*
X21744Y108719D01*
X21588Y108677D01*
X21456Y108623D01*
X21348Y108557D01*
X21264Y108479D01*
X21204Y108389D01*
X21168Y108287D01*
X21156Y108173D01*
Y110573D01*
X21168Y110459D01*
D02*
G37*
G36*
X11323Y107845D02*
X11280Y107746D01*
X11263Y107638D01*
X11273Y107519D01*
X11309Y107390D01*
X11373Y107251D01*
X11463Y107103D01*
X11580Y106944D01*
X11723Y106775D01*
X11894Y106597D01*
X11045Y105748D01*
X10866Y105918D01*
X10698Y106062D01*
X10539Y106179D01*
X10390Y106269D01*
X10252Y106332D01*
X10123Y106369D01*
X10004Y106379D01*
X9896Y106362D01*
X9797Y106319D01*
X9708Y106248D01*
X11393Y107933D01*
X11323Y107845D01*
D02*
G37*
G36*
X55813Y106465D02*
X55772Y106405D01*
X55736Y106336D01*
X55705Y106259D01*
X55678Y106173D01*
X55657Y106079D01*
X55640Y105975D01*
X55628Y105864D01*
X55618Y105614D01*
X54418D01*
X54416Y105743D01*
X54397Y105975D01*
X54380Y106079D01*
X54358Y106173D01*
X54332Y106259D01*
X54301Y106336D01*
X54265Y106405D01*
X54224Y106465D01*
X54178Y106516D01*
X55858D01*
X55813Y106465D01*
D02*
G37*
G36*
X21011Y101021D02*
X21052Y100945D01*
X21116Y100878D01*
X21203Y100819D01*
X21313Y100770D01*
X21445Y100730D01*
X21600Y100699D01*
X21779Y100676D01*
X21980Y100663D01*
X22203Y100658D01*
Y99458D01*
X21998Y99454D01*
X21655Y99418D01*
X21516Y99387D01*
X21400Y99347D01*
X21307Y99297D01*
X21236Y99239D01*
X21187Y99172D01*
X21160Y99096D01*
X21156Y99011D01*
X20992Y101106D01*
X21011Y101021D01*
D02*
G37*
G36*
X11346Y98572D02*
X11328Y98447D01*
X11340Y98310D01*
X11382Y98159D01*
X11453Y97996D01*
X11554Y97820D01*
X11685Y97631D01*
X11845Y97429D01*
X12034Y97214D01*
X12254Y96987D01*
X11420Y96123D01*
X11233Y96301D01*
X11060Y96450D01*
X10899Y96568D01*
X10751Y96656D01*
X10617Y96715D01*
X10495Y96743D01*
X10386Y96741D01*
X10291Y96709D01*
X10208Y96648D01*
X10139Y96556D01*
X11393Y98684D01*
X11346Y98572D01*
D02*
G37*
G36*
X44792Y38952D02*
X44969Y38801D01*
X45054Y38740D01*
X45136Y38689D01*
X45216Y38647D01*
X45293Y38614D01*
X45367Y38591D01*
X45438Y38577D01*
X45506Y38573D01*
X44319Y37385D01*
X44314Y37454D01*
X44301Y37525D01*
X44278Y37599D01*
X44245Y37676D01*
X44203Y37755D01*
X44151Y37837D01*
X44090Y37922D01*
X44020Y38010D01*
X43850Y38193D01*
X44699Y39042D01*
X44792Y38952D01*
D02*
G37*
G36*
X42292Y35952D02*
X42469Y35801D01*
X42554Y35740D01*
X42636Y35689D01*
X42716Y35647D01*
X42793Y35614D01*
X42867Y35591D01*
X42938Y35577D01*
X43006Y35573D01*
X41818Y34385D01*
X41814Y34454D01*
X41801Y34525D01*
X41778Y34599D01*
X41745Y34676D01*
X41703Y34755D01*
X41651Y34837D01*
X41590Y34922D01*
X41520Y35010D01*
X41350Y35193D01*
X42199Y36042D01*
X42292Y35952D01*
D02*
G37*
G36*
X39792Y32952D02*
X39970Y32801D01*
X40054Y32740D01*
X40137Y32689D01*
X40216Y32647D01*
X40293Y32614D01*
X40367Y32591D01*
X40438Y32577D01*
X40506Y32573D01*
X39318Y31385D01*
X39314Y31454D01*
X39301Y31525D01*
X39278Y31599D01*
X39245Y31676D01*
X39203Y31755D01*
X39151Y31837D01*
X39090Y31922D01*
X39020Y32010D01*
X38850Y32193D01*
X39699Y33042D01*
X39792Y32952D01*
D02*
G37*
G36*
X37292Y29952D02*
X37470Y29801D01*
X37554Y29740D01*
X37637Y29689D01*
X37716Y29647D01*
X37793Y29614D01*
X37867Y29591D01*
X37938Y29577D01*
X38006Y29573D01*
X36819Y28385D01*
X36814Y28454D01*
X36801Y28525D01*
X36778Y28599D01*
X36745Y28676D01*
X36703Y28755D01*
X36652Y28837D01*
X36590Y28922D01*
X36520Y29010D01*
X36350Y29193D01*
X37199Y30042D01*
X37292Y29952D01*
D02*
G37*
G36*
X34900Y26975D02*
X35077Y26822D01*
X35161Y26759D01*
X35241Y26705D01*
X35319Y26660D01*
X35394Y26624D01*
X35466Y26597D01*
X35534Y26579D01*
X35600Y26571D01*
X34323Y25479D01*
X34324Y25548D01*
X34315Y25621D01*
X34296Y25696D01*
X34267Y25774D01*
X34228Y25854D01*
X34179Y25937D01*
X34119Y26022D01*
X34050Y26110D01*
X33971Y26200D01*
X33882Y26293D01*
X34807Y27065D01*
X34900Y26975D01*
D02*
G37*
G36*
X32292Y23952D02*
X32469Y23801D01*
X32554Y23740D01*
X32636Y23689D01*
X32716Y23647D01*
X32793Y23614D01*
X32867Y23591D01*
X32938Y23577D01*
X33006Y23573D01*
X31819Y22385D01*
X31814Y22454D01*
X31801Y22525D01*
X31778Y22599D01*
X31745Y22676D01*
X31703Y22755D01*
X31651Y22838D01*
X31590Y22922D01*
X31520Y23010D01*
X31350Y23193D01*
X32199Y24042D01*
X32292Y23952D01*
D02*
G37*
G36*
X29792Y20952D02*
X29969Y20801D01*
X30054Y20740D01*
X30136Y20689D01*
X30216Y20647D01*
X30293Y20614D01*
X30367Y20591D01*
X30438Y20577D01*
X30506Y20573D01*
X29318Y19385D01*
X29314Y19454D01*
X29301Y19525D01*
X29278Y19599D01*
X29245Y19676D01*
X29203Y19755D01*
X29151Y19838D01*
X29090Y19922D01*
X29020Y20010D01*
X28850Y20193D01*
X29699Y21042D01*
X29792Y20952D01*
D02*
G37*
G36*
X27292Y17952D02*
X27470Y17801D01*
X27554Y17740D01*
X27637Y17689D01*
X27716Y17647D01*
X27793Y17614D01*
X27867Y17591D01*
X27938Y17577D01*
X28006Y17573D01*
X26818Y16385D01*
X26814Y16454D01*
X26801Y16525D01*
X26778Y16599D01*
X26745Y16676D01*
X26703Y16755D01*
X26651Y16838D01*
X26590Y16922D01*
X26520Y17010D01*
X26350Y17193D01*
X27199Y18042D01*
X27292Y17952D01*
D02*
G37*
G36*
X21644Y10651D02*
X21474Y10472D01*
X21330Y10303D01*
X21214Y10145D01*
X21123Y9996D01*
X21060Y9857D01*
X21023Y9729D01*
X21013Y9610D01*
X21030Y9501D01*
X21074Y9403D01*
X21144Y9314D01*
X19459Y10999D01*
X19548Y10929D01*
X19646Y10885D01*
X19755Y10868D01*
X19874Y10878D01*
X20002Y10915D01*
X20141Y10978D01*
X20290Y11068D01*
X20448Y11185D01*
X20617Y11329D01*
X20796Y11499D01*
X21644Y10651D01*
D02*
G37*
D12*
X36518Y29873D02*
X38018Y28373D01*
X57677Y126823D02*
X62585Y131732D01*
X57677Y114532D02*
Y126823D01*
X51518Y108373D02*
X57677Y114532D01*
X13189Y133044D02*
X15518Y135373D01*
X13189Y124203D02*
Y133044D01*
Y124203D02*
X18018Y119373D01*
X21019Y114374D02*
X24018Y117373D01*
X13268Y114374D02*
X21019D01*
X8268Y119374D02*
X13268Y114374D01*
X22019Y104374D02*
X29018Y111373D01*
X13268Y104374D02*
X22019D01*
X8268Y109374D02*
X13268Y104374D01*
X21019Y94374D02*
X34018Y107373D01*
X14018Y94374D02*
X21019D01*
X9018Y99374D02*
X14018Y94374D01*
X44018Y38873D02*
X45518Y37373D01*
X41518Y35873D02*
X43018Y34373D01*
X39018Y32873D02*
X40518Y31373D01*
X34018Y27005D02*
X35433Y25591D01*
X31518Y23873D02*
X33018Y22373D01*
X29018Y20873D02*
X30518Y19373D01*
X26518Y17873D02*
X28018Y16373D01*
X26518Y17873D02*
Y91373D01*
X15518Y135373D02*
X17018D01*
X8268Y99374D02*
X9018D01*
X57727Y136873D02*
X62585Y141732D01*
X49518Y136873D02*
X57727D01*
Y146873D02*
X62585Y151732D01*
X50518Y146873D02*
X57727D01*
X17018Y135373D02*
X21018Y139373D01*
X15018Y139873D02*
X17018D01*
X8518Y133373D02*
X15018Y139873D01*
X8518Y129625D02*
Y133373D01*
X8268Y129374D02*
X8518Y129625D01*
X23018Y143873D02*
X24018Y142873D01*
X25518Y147373D02*
X26518Y146373D01*
Y113373D02*
Y146373D01*
X28018Y151373D02*
X29018Y150373D01*
Y111373D02*
Y150373D01*
X31518D02*
X35018Y153873D01*
X31518Y109373D02*
Y150373D01*
X34018Y147873D02*
X39518Y153373D01*
X34018Y107373D02*
Y147873D01*
X55018Y95873D02*
Y107373D01*
X41518Y82373D02*
X55018Y95873D01*
X62585Y114440D02*
Y121732D01*
X58518Y110373D02*
X62585Y114440D01*
X58518Y95373D02*
Y110373D01*
X44018Y80873D02*
X58518Y95373D01*
X51518Y96373D02*
Y108373D01*
X39018Y83873D02*
X51518Y96373D01*
X50377Y141732D02*
X52835D01*
X44018Y135373D02*
X50377Y141732D01*
X44018Y100873D02*
Y135373D01*
X49018Y110873D02*
X50768Y112623D01*
X49018Y97873D02*
Y110873D01*
X36518Y85373D02*
X49018Y97873D01*
X46518Y133873D02*
X49518Y136873D01*
X46518Y99373D02*
Y133873D01*
X34018Y86873D02*
X46518Y99373D01*
X31518Y88373D02*
X44018Y100873D01*
X52476Y151373D02*
X52835Y151732D01*
X48018Y151373D02*
X52476D01*
X39018Y142373D02*
X48018Y151373D01*
X39018Y103873D02*
Y142373D01*
X41518Y137873D02*
X50518Y146873D01*
X41518Y102373D02*
Y137873D01*
X29018Y89873D02*
X41518Y102373D01*
X26518Y91373D02*
X39018Y103873D01*
X36518Y145373D02*
X52835Y161690D01*
X36518Y105373D02*
Y145373D01*
X23989Y92844D02*
X36518Y105373D01*
X22203Y100058D02*
X31518Y109373D01*
X18703Y100058D02*
X22203D01*
X18018Y99373D02*
X18703Y100058D01*
X24018Y117373D02*
Y142873D01*
X52779Y79134D02*
X52835D01*
X18018Y87873D02*
Y89373D01*
X22518Y109373D02*
X26518Y113373D01*
X18018Y109373D02*
X22518D01*
X23989Y13844D02*
Y92844D01*
X52835Y161690D02*
Y161732D01*
X29018Y20873D02*
Y89873D01*
X31518Y23873D02*
Y88373D01*
X34018Y27005D02*
Y86873D01*
X36518Y29873D02*
Y85373D01*
X44018Y38873D02*
Y80873D01*
X39018Y32873D02*
Y83873D01*
X41518Y35873D02*
Y82373D01*
X18018Y7873D02*
X23989Y13844D01*
D13*
X52835Y59134D02*
D03*
Y49134D02*
D03*
Y39134D02*
D03*
Y69134D02*
D03*
Y79134D02*
D03*
X62585Y79133D02*
D03*
Y69133D02*
D03*
Y39133D02*
D03*
Y49133D02*
D03*
Y59133D02*
D03*
X52835Y141732D02*
D03*
Y131732D02*
D03*
Y121732D02*
D03*
Y151732D02*
D03*
Y161732D02*
D03*
X62585Y161732D02*
D03*
Y151732D02*
D03*
Y121732D02*
D03*
Y131732D02*
D03*
Y141732D02*
D03*
X18018Y27873D02*
D03*
Y17873D02*
D03*
Y7873D02*
D03*
Y37873D02*
D03*
Y47873D02*
D03*
X8268Y47874D02*
D03*
Y37874D02*
D03*
Y7874D02*
D03*
Y17874D02*
D03*
Y27874D02*
D03*
X18018Y109373D02*
D03*
Y99373D02*
D03*
Y89373D02*
D03*
Y119373D02*
D03*
Y129373D02*
D03*
X8268Y129374D02*
D03*
Y119374D02*
D03*
Y89374D02*
D03*
Y99374D02*
D03*
Y109374D02*
D03*
D14*
X21654Y154331D02*
D03*
X45276Y159055D02*
D03*
X33071Y165748D02*
D03*
X11417Y144488D02*
D03*
X3543Y124409D02*
D03*
Y104331D02*
D03*
X12205Y70079D02*
D03*
X20866Y83858D02*
D03*
X3543Y58661D02*
D03*
X20472Y57087D02*
D03*
X3543Y42913D02*
D03*
Y22835D02*
D03*
X22441Y3543D02*
D03*
X52362Y18110D02*
D03*
X37795Y3543D02*
D03*
X40157Y24016D02*
D03*
X48425Y33858D02*
D03*
X27559Y11811D02*
D03*
X65354Y30709D02*
D03*
X67716Y44094D02*
D03*
Y64173D02*
D03*
Y96457D02*
D03*
X67323Y127165D02*
D03*
Y146457D02*
D03*
X61811Y108661D02*
D03*
X53543Y85433D02*
D03*
X45518Y37373D02*
D03*
X28018Y16373D02*
D03*
X17018Y139873D02*
D03*
X23018Y143873D02*
D03*
X21018Y139373D02*
D03*
X25518Y147373D02*
D03*
X28018Y151373D02*
D03*
X35018Y153873D02*
D03*
X39518Y153373D02*
D03*
X55018Y107373D02*
D03*
X51018Y112873D02*
D03*
X43018Y34373D02*
D03*
X40518Y31373D02*
D03*
X38018Y28373D02*
D03*
X35518Y25373D02*
D03*
X33018Y22373D02*
D03*
X30518Y19373D02*
D03*
M02*
