M48
;Layer_Color=9474304
;FILE_FORMAT=2:5
INCH,LZ
;TYPE=PLATED
T1F00S00C0.01200
T2F00S00C0.04016
%
T01
X0003543Y0022835
Y0042913
Y0058661
X0020472Y0057087
X0045518Y0037373
X0043018Y0034373
X0040518Y0031373
X0038018Y0028373
X0035518Y0025373
X0033018Y0022373
X0030518Y0019373
X0028018Y0016373
X0027559Y0011811
X0022441Y0003543
X0037795
X0040157Y0024016
X0052362Y001811
X0048425Y0033858
X0065354Y0030709
X0067716Y0044094
Y0064173
Y0096457
X0061811Y0108661
X0055018Y0107373
X0051018Y0112873
X0053543Y0085433
X0020866Y0083858
X0021018Y0139373
X0023018Y0143873
X0025518Y0147373
X0028018Y0151373
X0021654Y0154331
X0035018Y0153873
X0039518Y0153373
X0045276Y0159055
X0033071Y0165748
X0067323Y0146457
Y0127165
X0017018Y0139873
X0011417Y0144488
X0003543Y0124409
Y0104331
X0012205Y0070079
T02
X0008268Y0007874
Y0017874
Y0027874
Y0037874
Y0047874
X0018018Y0047873
Y0037873
Y0027873
Y0017873
Y0007873
X0052835Y0039134
X0062585Y0039133
Y0049133
X0052835Y0049134
Y0059134
X0062585Y0059133
Y0069133
X0052835Y0069134
Y0079134
X0062585Y0079133
Y0121732
X0052835Y0121732
Y0131732
X0062585Y0131732
Y0141732
X0052835Y0141732
Y0151732
X0062585Y0151732
Y0161732
X0052835Y0161732
X0018018Y0129373
Y0119373
Y0109373
Y0099373
Y0089373
X0008268Y0089374
Y0099374
Y0109374
Y0119374
Y0129374
M30
