G04*
G04 #@! TF.GenerationSoftware,Altium Limited,Altium Designer,19.1.9 (167)*
G04*
G04 Layer_Physical_Order=2*
G04 Layer_Color=16711680*
%FSLAX25Y25*%
%MOIN*%
G70*
G01*
G75*
%ADD12C,0.01200*%
%ADD13P,0.06818X8X112.5*%
%ADD14C,0.02400*%
G36*
X64833Y167440D02*
X65969Y166969D01*
X66991Y166286D01*
X67861Y165417D01*
X68544Y164394D01*
X69015Y163258D01*
X69254Y162052D01*
Y161437D01*
X69254Y34777D01*
Y34163D01*
X69015Y32956D01*
X68544Y31820D01*
X67861Y30798D01*
X67426Y30363D01*
X40543Y3479D01*
X40108Y3045D01*
X39085Y2362D01*
X37949Y1891D01*
X36743Y1651D01*
X7894D01*
X7279Y1651D01*
X6073Y1891D01*
X4937Y2362D01*
X3914Y3045D01*
X3045Y3914D01*
X2362Y4937D01*
X1891Y6073D01*
X1651Y7279D01*
X1651Y7894D01*
Y134553D01*
X1651Y135168D01*
X1891Y136374D01*
X2362Y137510D01*
X3045Y138533D01*
X3479Y138968D01*
X30363Y165851D01*
X30798Y166286D01*
X31820Y166969D01*
X32956Y167440D01*
X34163Y167680D01*
X34777Y167680D01*
X63627D01*
X64833Y167440D01*
D02*
G37*
%LPC*%
G36*
X64660Y165881D02*
X63085D01*
Y162232D01*
X66735D01*
Y163806D01*
X64660Y165881D01*
D02*
G37*
G36*
X62085D02*
X60511D01*
X58436Y163806D01*
Y162232D01*
X62085D01*
Y165881D01*
D02*
G37*
G36*
X54909Y165882D02*
X50760D01*
X48685Y163807D01*
Y159658D01*
X50760Y157583D01*
X54909D01*
X56984Y159658D01*
Y163807D01*
X54909Y165882D01*
D02*
G37*
G36*
X66735Y161232D02*
X63085D01*
Y157582D01*
X64660D01*
X66735Y159657D01*
Y161232D01*
D02*
G37*
G36*
X62085D02*
X58436D01*
Y159657D01*
X60511Y157582D01*
X62085D01*
Y161232D01*
D02*
G37*
G36*
X54909Y155882D02*
X50760D01*
X48685Y153807D01*
Y149657D01*
X50760Y147583D01*
X54909D01*
X56984Y149657D01*
Y153807D01*
X54909Y155882D01*
D02*
G37*
G36*
X64660Y155881D02*
X60511D01*
X58436Y153806D01*
Y149657D01*
X60511Y147582D01*
X64660D01*
X66735Y149657D01*
Y153806D01*
X64660Y155881D01*
D02*
G37*
G36*
X54909Y145882D02*
X50760D01*
X48685Y143807D01*
Y139657D01*
X50760Y137583D01*
X54909D01*
X56984Y139657D01*
Y143807D01*
X54909Y145882D01*
D02*
G37*
G36*
X64660Y145881D02*
X60511D01*
X58436Y143806D01*
Y139657D01*
X60511Y137582D01*
X64660D01*
X66735Y139657D01*
Y143806D01*
X64660Y145881D01*
D02*
G37*
G36*
X40518Y158505D02*
X29518D01*
X28894Y158380D01*
X28365Y158027D01*
X12035Y141698D01*
X11682Y141168D01*
X11558Y140544D01*
Y133876D01*
X10449Y133417D01*
X10343Y133524D01*
X6193D01*
X4118Y131449D01*
Y127299D01*
X6193Y125224D01*
X10343D01*
X11284Y124469D01*
Y124279D01*
X10727Y123832D01*
X10183Y123524D01*
X6193D01*
X4118Y121449D01*
Y117299D01*
X6193Y115224D01*
X10343D01*
X11284Y114469D01*
Y114279D01*
X10727Y113832D01*
X10183Y113524D01*
X6193D01*
X4118Y111449D01*
Y107299D01*
X6193Y105224D01*
X10343D01*
X11284Y104469D01*
Y104279D01*
X10727Y103832D01*
X10183Y103524D01*
X6193D01*
X4118Y101449D01*
Y97299D01*
X6193Y95224D01*
X10343D01*
X10454Y95336D01*
X11634Y94819D01*
X11682Y94578D01*
X12035Y94049D01*
X14253Y91832D01*
X13869Y91448D01*
Y87299D01*
X15944Y85224D01*
X20093D01*
X21187Y86318D01*
X22387Y85821D01*
Y56051D01*
X21998Y55484D01*
X21907Y55394D01*
X21341Y55005D01*
X13767D01*
X13143Y54881D01*
X12614Y54527D01*
X10119Y52032D01*
X10109Y52024D01*
X6193D01*
X4118Y49949D01*
Y45799D01*
X6193Y43724D01*
X9615D01*
X10256Y42584D01*
X9833Y42024D01*
X6193D01*
X4118Y39949D01*
Y35799D01*
X6193Y33724D01*
X9615D01*
X10256Y32583D01*
X9833Y32024D01*
X6193D01*
X4118Y29949D01*
Y25799D01*
X6193Y23724D01*
X9615D01*
X10256Y22583D01*
X9833Y22024D01*
X6193D01*
X4118Y19949D01*
Y15799D01*
X6193Y13724D01*
X10343D01*
X12417Y15799D01*
Y18790D01*
X12669Y18955D01*
X13869Y18308D01*
Y15799D01*
X15944Y13724D01*
X20093D01*
X22168Y15799D01*
Y16242D01*
X25802D01*
X25946Y15515D01*
X26432Y14787D01*
X27160Y14301D01*
X28018Y14130D01*
X28877Y14301D01*
X29605Y14787D01*
X30091Y15515D01*
X30261Y16373D01*
X31303Y17286D01*
X31377Y17301D01*
X32105Y17787D01*
X32591Y18515D01*
X32761Y19373D01*
X33803Y20286D01*
X33877Y20301D01*
X34605Y20787D01*
X35091Y21515D01*
X35261Y22373D01*
X36303Y23286D01*
X36377Y23301D01*
X37105Y23787D01*
X37591Y24515D01*
X37762Y25373D01*
X38803Y26286D01*
X38877Y26301D01*
X39605Y26787D01*
X40091Y27515D01*
X40262Y28373D01*
X41303Y29286D01*
X41377Y29301D01*
X42105Y29787D01*
X42591Y30515D01*
X42761Y31373D01*
X43803Y32286D01*
X43877Y32301D01*
X44605Y32787D01*
X45091Y33515D01*
X45261Y34373D01*
X46303Y35286D01*
X46377Y35301D01*
X47105Y35787D01*
X47591Y36515D01*
X47630Y36710D01*
X48883Y36861D01*
X50760Y34984D01*
X54909D01*
X56984Y37059D01*
Y39567D01*
X58184Y40214D01*
X58436Y40048D01*
Y37058D01*
X60511Y34984D01*
X64660D01*
X66735Y37058D01*
Y41208D01*
X64660Y43283D01*
X61020D01*
X60597Y43843D01*
X61238Y44984D01*
X64660D01*
X66735Y47058D01*
Y51208D01*
X64660Y53283D01*
X61020D01*
X60597Y53843D01*
X61238Y54984D01*
X64660D01*
X66735Y57058D01*
Y61208D01*
X64660Y63283D01*
X61020D01*
X60597Y63843D01*
X61238Y64984D01*
X64660D01*
X66735Y67058D01*
Y71208D01*
X64660Y73283D01*
X60511D01*
X59963Y72736D01*
X57411Y75287D01*
X57111Y75488D01*
X56832Y76442D01*
X56805Y76880D01*
X56984Y77059D01*
Y81209D01*
X54909Y83284D01*
X50760D01*
X50088Y82611D01*
X45650Y87049D01*
Y114367D01*
X46758Y114826D01*
X48773Y112812D01*
X48779Y112804D01*
X48793Y112785D01*
X48946Y112015D01*
X49432Y111287D01*
X50160Y110801D01*
X51018Y110630D01*
X51877Y110801D01*
X52187Y111008D01*
X53387Y110463D01*
Y108917D01*
X53386Y108908D01*
X53382Y108885D01*
X52946Y108232D01*
X52775Y107373D01*
X52946Y106515D01*
X53432Y105787D01*
X54160Y105301D01*
X55018Y105130D01*
X55877Y105301D01*
X56604Y105787D01*
X57091Y106515D01*
X57262Y107373D01*
X57091Y108232D01*
X56655Y108885D01*
X56653Y108896D01*
X56650Y108932D01*
Y114373D01*
X56650Y114373D01*
X56526Y114998D01*
X56172Y115527D01*
X55197Y116502D01*
X55361Y118035D01*
X56984Y119658D01*
Y123807D01*
X54909Y125882D01*
X52774D01*
X52199Y127082D01*
X52601Y127583D01*
X54909D01*
X56984Y129657D01*
Y133807D01*
X54909Y135882D01*
X50760D01*
X48685Y133807D01*
Y129657D01*
X49090Y129252D01*
X46758Y126920D01*
X45650Y127380D01*
Y153373D01*
X45526Y153998D01*
X45172Y154527D01*
X41672Y158027D01*
X41143Y158380D01*
X40518Y158505D01*
D02*
G37*
G36*
X64660Y135881D02*
X60511D01*
X58436Y133806D01*
Y129657D01*
X60511Y127582D01*
X64660D01*
X66735Y129657D01*
Y133806D01*
X64660Y135881D01*
D02*
G37*
G36*
Y125881D02*
X60511D01*
X58436Y123806D01*
Y119657D01*
X60511Y117582D01*
X64660D01*
X66735Y119657D01*
Y123806D01*
X64660Y125881D01*
D02*
G37*
G36*
X10343Y93524D02*
X8768D01*
Y89874D01*
X12417D01*
Y91449D01*
X10343Y93524D01*
D02*
G37*
G36*
X7768D02*
X6193D01*
X4118Y91449D01*
Y89874D01*
X7768D01*
Y93524D01*
D02*
G37*
G36*
X12417Y88874D02*
X8768D01*
Y85224D01*
X10343D01*
X12417Y87299D01*
Y88874D01*
D02*
G37*
G36*
X7768D02*
X4118D01*
Y87299D01*
X6193Y85224D01*
X7768D01*
Y88874D01*
D02*
G37*
G36*
X64660Y83283D02*
X63085D01*
Y79633D01*
X66735D01*
Y81208D01*
X64660Y83283D01*
D02*
G37*
G36*
X62085D02*
X60511D01*
X58436Y81208D01*
Y79633D01*
X62085D01*
Y83283D01*
D02*
G37*
G36*
X66735Y78633D02*
X63085D01*
Y74984D01*
X64660D01*
X66735Y77058D01*
Y78633D01*
D02*
G37*
G36*
X62085D02*
X58436D01*
Y77058D01*
X60511Y74984D01*
X62085D01*
Y78633D01*
D02*
G37*
G36*
X10343Y12024D02*
X8768D01*
Y8374D01*
X12417D01*
Y9949D01*
X10343Y12024D01*
D02*
G37*
G36*
X7768D02*
X6193D01*
X4118Y9949D01*
Y8374D01*
X7768D01*
Y12024D01*
D02*
G37*
G36*
X12417Y7374D02*
X8768D01*
Y3724D01*
X10343D01*
X12417Y5799D01*
Y7374D01*
D02*
G37*
G36*
X7768D02*
X4118D01*
Y5799D01*
X6193Y3724D01*
X7768D01*
Y7374D01*
D02*
G37*
G36*
X20093Y12023D02*
X15944D01*
X13869Y9948D01*
Y5799D01*
X15944Y3724D01*
X20093D01*
X22168Y5799D01*
Y9948D01*
X20093Y12023D01*
D02*
G37*
%LPD*%
G36*
X35813Y152965D02*
X35772Y152905D01*
X35736Y152836D01*
X35705Y152759D01*
X35678Y152673D01*
X35657Y152579D01*
X35640Y152476D01*
X35628Y152364D01*
X35618Y152114D01*
X34418D01*
X34416Y152243D01*
X34397Y152476D01*
X34380Y152579D01*
X34358Y152673D01*
X34332Y152759D01*
X34301Y152836D01*
X34265Y152905D01*
X34224Y152965D01*
X34178Y153016D01*
X35858D01*
X35813Y152965D01*
D02*
G37*
G36*
X40723Y153293D02*
X40736Y153221D01*
X40759Y153148D01*
X40792Y153071D01*
X40834Y152991D01*
X40885Y152909D01*
X40946Y152824D01*
X41017Y152737D01*
X41187Y152554D01*
X40338Y151705D01*
X40245Y151795D01*
X40067Y151945D01*
X39983Y152006D01*
X39900Y152058D01*
X39821Y152100D01*
X39744Y152133D01*
X39670Y152156D01*
X39599Y152169D01*
X39530Y152173D01*
X40718Y153361D01*
X40723Y153293D01*
D02*
G37*
G36*
X29223Y151293D02*
X29236Y151222D01*
X29259Y151148D01*
X29292Y151071D01*
X29334Y150991D01*
X29385Y150909D01*
X29446Y150824D01*
X29517Y150737D01*
X29687Y150554D01*
X28838Y149705D01*
X28745Y149795D01*
X28567Y149945D01*
X28482Y150006D01*
X28400Y150058D01*
X28321Y150100D01*
X28244Y150133D01*
X28170Y150156D01*
X28099Y150169D01*
X28030Y150173D01*
X29218Y151361D01*
X29223Y151293D01*
D02*
G37*
G36*
X26722Y147293D02*
X26736Y147222D01*
X26759Y147148D01*
X26792Y147071D01*
X26834Y146991D01*
X26885Y146909D01*
X26946Y146825D01*
X27017Y146737D01*
X27187Y146554D01*
X26338Y145705D01*
X26245Y145795D01*
X26067Y145945D01*
X25982Y146007D01*
X25900Y146058D01*
X25821Y146100D01*
X25744Y146133D01*
X25670Y146156D01*
X25599Y146169D01*
X25530Y146173D01*
X26718Y147361D01*
X26722Y147293D01*
D02*
G37*
G36*
X24223Y143793D02*
X24236Y143721D01*
X24259Y143648D01*
X24292Y143571D01*
X24334Y143491D01*
X24385Y143409D01*
X24446Y143324D01*
X24517Y143237D01*
X24687Y143054D01*
X23838Y142205D01*
X23745Y142295D01*
X23567Y142445D01*
X23483Y142507D01*
X23400Y142558D01*
X23321Y142600D01*
X23244Y142633D01*
X23170Y142656D01*
X23099Y142669D01*
X23030Y142673D01*
X24218Y143861D01*
X24223Y143793D01*
D02*
G37*
G36*
X17813Y138965D02*
X17772Y138905D01*
X17736Y138836D01*
X17705Y138759D01*
X17678Y138673D01*
X17657Y138579D01*
X17640Y138476D01*
X17628Y138364D01*
X17618Y138114D01*
X16418D01*
X16416Y138243D01*
X16397Y138476D01*
X16380Y138579D01*
X16358Y138673D01*
X16332Y138759D01*
X16301Y138836D01*
X16265Y138905D01*
X16224Y138965D01*
X16178Y139016D01*
X17858D01*
X17813Y138965D01*
D02*
G37*
G36*
X22185Y139672D02*
X22210Y139622D01*
X22244Y139567D01*
X22286Y139506D01*
X22395Y139368D01*
X22539Y139207D01*
X22717Y139023D01*
X22184Y137860D01*
X22090Y137949D01*
X22000Y138026D01*
X21912Y138092D01*
X21828Y138147D01*
X21746Y138190D01*
X21668Y138221D01*
X21592Y138241D01*
X21520Y138249D01*
X21450Y138245D01*
X21383Y138230D01*
X22169Y139716D01*
X22185Y139672D01*
D02*
G37*
G36*
X52437Y128607D02*
X52319Y128647D01*
X52189Y128660D01*
X52048Y128644D01*
X51895Y128601D01*
X51731Y128529D01*
X51556Y128428D01*
X51369Y128300D01*
X51171Y128144D01*
X50961Y127959D01*
X50740Y127746D01*
X49730Y128434D01*
X49915Y128627D01*
X50068Y128806D01*
X50190Y128970D01*
X50281Y129120D01*
X50340Y129255D01*
X50367Y129376D01*
X50363Y129483D01*
X50328Y129575D01*
X50261Y129652D01*
X50163Y129715D01*
X52437Y128607D01*
D02*
G37*
G36*
X21074Y127844D02*
X21030Y127745D01*
X21013Y127637D01*
X21023Y127518D01*
X21060Y127390D01*
X21123Y127251D01*
X21214Y127102D01*
X21330Y126943D01*
X21474Y126775D01*
X21644Y126596D01*
X20796Y125747D01*
X20617Y125918D01*
X20448Y126061D01*
X20290Y126178D01*
X20141Y126268D01*
X20002Y126332D01*
X19874Y126368D01*
X19755Y126378D01*
X19646Y126362D01*
X19548Y126318D01*
X19459Y126248D01*
X21144Y127933D01*
X21074Y127844D01*
D02*
G37*
G36*
X53921Y118595D02*
X53819Y118558D01*
X53729Y118498D01*
X53651Y118413D01*
X53585Y118304D01*
X53531Y118170D01*
X53489Y118013D01*
X53459Y117831D01*
X53441Y117625D01*
X53435Y117395D01*
X52235D01*
X52229Y117625D01*
X52211Y117831D01*
X52181Y118013D01*
X52139Y118170D01*
X52085Y118304D01*
X52019Y118413D01*
X51941Y118498D01*
X51851Y118558D01*
X51749Y118595D01*
X51635Y118607D01*
X54035D01*
X53921Y118595D01*
D02*
G37*
G36*
X50292Y114452D02*
X50469Y114301D01*
X50554Y114240D01*
X50637Y114189D01*
X50716Y114147D01*
X50793Y114114D01*
X50867Y114091D01*
X50938Y114077D01*
X51006Y114073D01*
X49819Y112885D01*
X49814Y112954D01*
X49801Y113025D01*
X49778Y113099D01*
X49745Y113176D01*
X49703Y113255D01*
X49652Y113338D01*
X49590Y113422D01*
X49520Y113510D01*
X49350Y113693D01*
X50199Y114542D01*
X50292Y114452D01*
D02*
G37*
G36*
X55621Y109003D02*
X55640Y108771D01*
X55657Y108668D01*
X55678Y108573D01*
X55705Y108488D01*
X55736Y108410D01*
X55772Y108342D01*
X55813Y108282D01*
X55858Y108230D01*
X54178D01*
X54224Y108282D01*
X54265Y108342D01*
X54301Y108410D01*
X54332Y108488D01*
X54358Y108573D01*
X54380Y108668D01*
X54397Y108771D01*
X54409Y108883D01*
X54418Y109133D01*
X55618D01*
X55621Y109003D01*
D02*
G37*
G36*
X16103Y93146D02*
X16512Y92803D01*
X16700Y92675D01*
X16875Y92574D01*
X17039Y92503D01*
X17191Y92459D01*
X17332Y92444D01*
X17461Y92457D01*
X17578Y92499D01*
X15325Y91370D01*
X15423Y91433D01*
X15489Y91511D01*
X15524Y91604D01*
X15527Y91711D01*
X15500Y91832D01*
X15441Y91967D01*
X15350Y92116D01*
X15229Y92280D01*
X15076Y92458D01*
X14892Y92651D01*
X15881Y93360D01*
X16103Y93146D01*
D02*
G37*
G36*
X49474Y81774D02*
X49834Y81483D01*
X49988Y81388D01*
X50124Y81328D01*
X50244Y81302D01*
X50346Y81310D01*
X50431Y81352D01*
X50499Y81428D01*
X50550Y81539D01*
X49709Y78998D01*
X49738Y79128D01*
X49741Y79267D01*
X49719Y79414D01*
X49671Y79571D01*
X49598Y79736D01*
X49499Y79910D01*
X49375Y80093D01*
X49225Y80285D01*
X49049Y80485D01*
X48849Y80695D01*
X49269Y81972D01*
X49474Y81774D01*
D02*
G37*
G36*
X59344Y71904D02*
X59528Y71746D01*
X59696Y71621D01*
X59848Y71528D01*
X59984Y71468D01*
X60105Y71441D01*
X60209Y71447D01*
X60297Y71486D01*
X60369Y71558D01*
X60426Y71663D01*
X59460Y69247D01*
X59494Y69371D01*
X59502Y69506D01*
X59483Y69651D01*
X59437Y69805D01*
X59364Y69970D01*
X59265Y70145D01*
X59139Y70329D01*
X58986Y70524D01*
X58806Y70729D01*
X58599Y70944D01*
X59145Y72096D01*
X59344Y71904D01*
D02*
G37*
G36*
X49709Y67934D02*
X49697Y68048D01*
X49661Y68150D01*
X49600Y68240D01*
X49515Y68318D01*
X49406Y68384D01*
X49273Y68438D01*
X49115Y68480D01*
X48933Y68510D01*
X48727Y68528D01*
X48497Y68534D01*
Y69734D01*
X48727Y69740D01*
X48933Y69758D01*
X49115Y69788D01*
X49273Y69830D01*
X49406Y69884D01*
X49515Y69950D01*
X49600Y70028D01*
X49661Y70118D01*
X49697Y70220D01*
X49709Y70334D01*
Y67934D01*
D02*
G37*
G36*
X59987Y62589D02*
X60155Y62445D01*
X60314Y62328D01*
X60463Y62238D01*
X60602Y62175D01*
X60730Y62138D01*
X60849Y62128D01*
X60957Y62145D01*
X61056Y62189D01*
X61145Y62259D01*
X59460Y60574D01*
X59530Y60662D01*
X59574Y60761D01*
X59590Y60870D01*
X59580Y60988D01*
X59544Y61117D01*
X59480Y61256D01*
X59390Y61405D01*
X59273Y61563D01*
X59130Y61732D01*
X58959Y61911D01*
X59808Y62759D01*
X59987Y62589D01*
D02*
G37*
G36*
X49709Y57934D02*
X49697Y58048D01*
X49661Y58150D01*
X49600Y58240D01*
X49515Y58318D01*
X49406Y58384D01*
X49273Y58438D01*
X49115Y58480D01*
X48933Y58510D01*
X48727Y58528D01*
X48497Y58534D01*
Y59734D01*
X48727Y59740D01*
X48933Y59758D01*
X49115Y59788D01*
X49273Y59830D01*
X49406Y59884D01*
X49515Y59950D01*
X49600Y60028D01*
X49661Y60118D01*
X49697Y60220D01*
X49709Y60334D01*
Y57934D01*
D02*
G37*
G36*
X11894Y50652D02*
X11723Y50473D01*
X11580Y50304D01*
X11463Y50145D01*
X11373Y49997D01*
X11309Y49858D01*
X11273Y49729D01*
X11263Y49611D01*
X11280Y49502D01*
X11323Y49403D01*
X11393Y49315D01*
X9708Y51000D01*
X9797Y50929D01*
X9896Y50886D01*
X10004Y50869D01*
X10123Y50879D01*
X10252Y50916D01*
X10390Y50979D01*
X10539Y51069D01*
X10698Y51186D01*
X10866Y51330D01*
X11045Y51500D01*
X11894Y50652D01*
D02*
G37*
G36*
X59987Y52589D02*
X60155Y52445D01*
X60314Y52328D01*
X60463Y52238D01*
X60602Y52175D01*
X60730Y52138D01*
X60849Y52128D01*
X60957Y52145D01*
X61056Y52188D01*
X61145Y52259D01*
X59460Y50574D01*
X59530Y50662D01*
X59574Y50761D01*
X59590Y50870D01*
X59580Y50988D01*
X59544Y51117D01*
X59480Y51256D01*
X59390Y51405D01*
X59273Y51563D01*
X59130Y51732D01*
X58959Y51911D01*
X59808Y52759D01*
X59987Y52589D01*
D02*
G37*
G36*
X49709Y47934D02*
X49697Y48048D01*
X49661Y48150D01*
X49600Y48240D01*
X49515Y48318D01*
X49406Y48384D01*
X49273Y48438D01*
X49115Y48480D01*
X48933Y48510D01*
X48727Y48528D01*
X48497Y48534D01*
Y49734D01*
X48727Y49740D01*
X48933Y49758D01*
X49115Y49788D01*
X49273Y49830D01*
X49406Y49884D01*
X49515Y49950D01*
X49600Y50028D01*
X49661Y50118D01*
X49697Y50220D01*
X49709Y50334D01*
Y47934D01*
D02*
G37*
G36*
X21165Y48686D02*
X21191Y48641D01*
X21234Y48602D01*
X21294Y48568D01*
X21372Y48539D01*
X21466Y48515D01*
X21579Y48497D01*
X21708Y48484D01*
X22018Y48473D01*
Y47273D01*
X21855Y47271D01*
X21579Y47250D01*
X21466Y47231D01*
X21372Y47208D01*
X21294Y47179D01*
X21234Y47145D01*
X21191Y47105D01*
X21165Y47061D01*
X21156Y47011D01*
Y48736D01*
X21165Y48686D01*
D02*
G37*
G36*
X11894Y40652D02*
X11723Y40473D01*
X11580Y40304D01*
X11463Y40145D01*
X11373Y39997D01*
X11309Y39858D01*
X11273Y39729D01*
X11263Y39611D01*
X11280Y39502D01*
X11323Y39403D01*
X11393Y39315D01*
X9708Y41000D01*
X9797Y40929D01*
X9896Y40886D01*
X10004Y40869D01*
X10123Y40879D01*
X10252Y40916D01*
X10390Y40979D01*
X10539Y41069D01*
X10698Y41186D01*
X10866Y41330D01*
X11045Y41500D01*
X11894Y40652D01*
D02*
G37*
G36*
X59987Y42589D02*
X60155Y42445D01*
X60314Y42328D01*
X60463Y42238D01*
X60602Y42175D01*
X60730Y42138D01*
X60849Y42128D01*
X60957Y42145D01*
X61056Y42189D01*
X61145Y42259D01*
X59460Y40574D01*
X59530Y40662D01*
X59574Y40761D01*
X59590Y40870D01*
X59580Y40988D01*
X59544Y41117D01*
X59480Y41256D01*
X59390Y41405D01*
X59273Y41563D01*
X59130Y41732D01*
X58959Y41911D01*
X59808Y42759D01*
X59987Y42589D01*
D02*
G37*
G36*
X49709Y37934D02*
X49697Y38048D01*
X49661Y38150D01*
X49600Y38240D01*
X49515Y38318D01*
X49406Y38384D01*
X49273Y38438D01*
X49115Y38480D01*
X48933Y38510D01*
X48727Y38528D01*
X48497Y38534D01*
Y39734D01*
X48727Y39740D01*
X48933Y39758D01*
X49115Y39788D01*
X49273Y39830D01*
X49406Y39884D01*
X49515Y39950D01*
X49600Y40028D01*
X49661Y40118D01*
X49697Y40220D01*
X49709Y40334D01*
Y37934D01*
D02*
G37*
G36*
X44792Y38952D02*
X44969Y38801D01*
X45054Y38740D01*
X45136Y38689D01*
X45216Y38647D01*
X45293Y38614D01*
X45367Y38591D01*
X45438Y38577D01*
X45506Y38573D01*
X44319Y37385D01*
X44314Y37454D01*
X44301Y37525D01*
X44278Y37599D01*
X44245Y37676D01*
X44203Y37755D01*
X44151Y37837D01*
X44090Y37922D01*
X44020Y38010D01*
X43850Y38193D01*
X44699Y39042D01*
X44792Y38952D01*
D02*
G37*
G36*
X21165Y38686D02*
X21191Y38641D01*
X21234Y38602D01*
X21294Y38568D01*
X21372Y38539D01*
X21466Y38515D01*
X21579Y38497D01*
X21708Y38484D01*
X22018Y38473D01*
Y37273D01*
X21855Y37271D01*
X21579Y37250D01*
X21466Y37231D01*
X21372Y37208D01*
X21294Y37179D01*
X21234Y37145D01*
X21191Y37105D01*
X21165Y37061D01*
X21156Y37011D01*
Y38736D01*
X21165Y38686D01*
D02*
G37*
G36*
X42292Y35952D02*
X42469Y35801D01*
X42554Y35740D01*
X42636Y35689D01*
X42716Y35647D01*
X42793Y35614D01*
X42867Y35591D01*
X42938Y35577D01*
X43006Y35573D01*
X41818Y34385D01*
X41814Y34454D01*
X41801Y34525D01*
X41778Y34599D01*
X41745Y34676D01*
X41703Y34755D01*
X41651Y34837D01*
X41590Y34922D01*
X41520Y35010D01*
X41350Y35193D01*
X42199Y36042D01*
X42292Y35952D01*
D02*
G37*
G36*
X39792Y32952D02*
X39970Y32801D01*
X40054Y32740D01*
X40137Y32689D01*
X40216Y32647D01*
X40293Y32614D01*
X40367Y32591D01*
X40438Y32577D01*
X40506Y32573D01*
X39318Y31385D01*
X39314Y31454D01*
X39301Y31525D01*
X39278Y31599D01*
X39245Y31676D01*
X39203Y31755D01*
X39151Y31837D01*
X39090Y31922D01*
X39020Y32010D01*
X38850Y32193D01*
X39699Y33042D01*
X39792Y32952D01*
D02*
G37*
G36*
X11894Y30652D02*
X11723Y30473D01*
X11580Y30304D01*
X11463Y30145D01*
X11373Y29997D01*
X11309Y29858D01*
X11273Y29729D01*
X11263Y29611D01*
X11280Y29502D01*
X11323Y29403D01*
X11393Y29315D01*
X9708Y31000D01*
X9797Y30929D01*
X9896Y30886D01*
X10004Y30869D01*
X10123Y30879D01*
X10252Y30916D01*
X10390Y30979D01*
X10539Y31069D01*
X10698Y31186D01*
X10866Y31330D01*
X11045Y31500D01*
X11894Y30652D01*
D02*
G37*
G36*
X37292Y29952D02*
X37470Y29801D01*
X37554Y29740D01*
X37637Y29689D01*
X37716Y29647D01*
X37793Y29614D01*
X37867Y29591D01*
X37938Y29577D01*
X38006Y29573D01*
X36819Y28385D01*
X36814Y28454D01*
X36801Y28525D01*
X36778Y28599D01*
X36745Y28676D01*
X36703Y28755D01*
X36652Y28837D01*
X36590Y28922D01*
X36520Y29010D01*
X36350Y29193D01*
X37199Y30042D01*
X37292Y29952D01*
D02*
G37*
G36*
X21165Y28686D02*
X21191Y28641D01*
X21234Y28602D01*
X21294Y28568D01*
X21372Y28539D01*
X21466Y28515D01*
X21579Y28497D01*
X21708Y28484D01*
X22018Y28473D01*
Y27273D01*
X21855Y27271D01*
X21579Y27250D01*
X21466Y27231D01*
X21372Y27208D01*
X21294Y27179D01*
X21234Y27145D01*
X21191Y27105D01*
X21165Y27061D01*
X21156Y27011D01*
Y28736D01*
X21165Y28686D01*
D02*
G37*
G36*
X34792Y26952D02*
X34969Y26801D01*
X35054Y26740D01*
X35137Y26689D01*
X35216Y26647D01*
X35293Y26614D01*
X35367Y26591D01*
X35438Y26577D01*
X35506Y26573D01*
X34319Y25385D01*
X34314Y25454D01*
X34301Y25525D01*
X34278Y25599D01*
X34245Y25676D01*
X34203Y25755D01*
X34152Y25837D01*
X34090Y25922D01*
X34020Y26010D01*
X33850Y26193D01*
X34699Y27042D01*
X34792Y26952D01*
D02*
G37*
G36*
X32292Y23952D02*
X32469Y23801D01*
X32554Y23740D01*
X32636Y23689D01*
X32716Y23647D01*
X32793Y23614D01*
X32867Y23591D01*
X32938Y23577D01*
X33006Y23573D01*
X31819Y22385D01*
X31814Y22454D01*
X31801Y22525D01*
X31778Y22599D01*
X31745Y22676D01*
X31703Y22755D01*
X31651Y22838D01*
X31590Y22922D01*
X31520Y23010D01*
X31350Y23193D01*
X32199Y24042D01*
X32292Y23952D01*
D02*
G37*
G36*
X11894Y20651D02*
X11723Y20473D01*
X11580Y20304D01*
X11463Y20145D01*
X11373Y19997D01*
X11309Y19858D01*
X11273Y19729D01*
X11263Y19611D01*
X11280Y19502D01*
X11323Y19403D01*
X11393Y19315D01*
X9708Y21000D01*
X9797Y20929D01*
X9896Y20886D01*
X10004Y20869D01*
X10123Y20879D01*
X10252Y20916D01*
X10390Y20979D01*
X10539Y21069D01*
X10698Y21186D01*
X10866Y21330D01*
X11045Y21500D01*
X11894Y20651D01*
D02*
G37*
G36*
X29792Y20952D02*
X29969Y20801D01*
X30054Y20740D01*
X30136Y20689D01*
X30216Y20647D01*
X30293Y20614D01*
X30367Y20591D01*
X30438Y20577D01*
X30506Y20573D01*
X29318Y19385D01*
X29314Y19454D01*
X29301Y19525D01*
X29278Y19599D01*
X29245Y19676D01*
X29203Y19755D01*
X29151Y19838D01*
X29090Y19922D01*
X29020Y20010D01*
X28850Y20193D01*
X29699Y21042D01*
X29792Y20952D01*
D02*
G37*
G36*
X21168Y18959D02*
X21204Y18857D01*
X21264Y18767D01*
X21348Y18689D01*
X21456Y18623D01*
X21588Y18569D01*
X21744Y18527D01*
X21924Y18497D01*
X22128Y18479D01*
X22356Y18473D01*
Y17273D01*
X22128Y17267D01*
X21924Y17249D01*
X21744Y17219D01*
X21588Y17177D01*
X21456Y17123D01*
X21348Y17057D01*
X21264Y16979D01*
X21204Y16889D01*
X21168Y16787D01*
X21156Y16673D01*
Y19073D01*
X21168Y18959D01*
D02*
G37*
G36*
X27292Y17952D02*
X27470Y17801D01*
X27554Y17740D01*
X27637Y17689D01*
X27716Y17647D01*
X27793Y17614D01*
X27867Y17591D01*
X27938Y17577D01*
X28006Y17573D01*
X26818Y16385D01*
X26814Y16454D01*
X26801Y16525D01*
X26778Y16599D01*
X26745Y16676D01*
X26703Y16755D01*
X26651Y16838D01*
X26590Y16922D01*
X26520Y17010D01*
X26350Y17193D01*
X27199Y18042D01*
X27292Y17952D01*
D02*
G37*
D12*
X13189Y140544D02*
X29518Y156873D01*
X13189Y95203D02*
Y140544D01*
Y95203D02*
X18018Y90373D01*
X56258Y74134D02*
X61259Y69133D01*
X48258Y74134D02*
X56258D01*
X41518Y80873D02*
X48258Y74134D01*
X57585Y64134D02*
X62585Y59133D01*
X43758Y64134D02*
X57585D01*
X36518Y71373D02*
X43758Y64134D01*
X57585Y54134D02*
X62585Y49133D01*
X41258Y54134D02*
X57585D01*
X31518Y63873D02*
X41258Y54134D01*
X45758Y41634D02*
X48258Y39134D01*
X38258Y41634D02*
X45758D01*
X24018Y55873D02*
X38258Y41634D01*
X57585Y44134D02*
X62585Y39133D01*
X40758Y44134D02*
X57585D01*
X26518Y58373D02*
X40758Y44134D01*
X48258Y39134D02*
X52835D01*
X44018Y38873D02*
X45018Y37873D01*
X41518Y35873D02*
X42518Y34873D01*
X39018Y32873D02*
X40018Y31873D01*
X36518Y29873D02*
X37518Y28873D01*
X34018Y26873D02*
X35018Y25873D01*
X31518Y23873D02*
X32518Y22873D01*
X29018Y20873D02*
X30018Y19873D01*
X26518Y17873D02*
X27518Y16873D01*
X18018Y17873D02*
X26518D01*
X18018Y89373D02*
Y90373D01*
X61259Y69133D02*
X62585D01*
X52835Y130690D02*
Y131732D01*
X46518Y124373D02*
X52835Y130690D01*
X46518Y117373D02*
Y124373D01*
X41758Y59134D02*
X52835D01*
X34018Y66873D02*
X41758Y59134D01*
X34018Y66873D02*
Y138873D01*
X36518Y71373D02*
Y142873D01*
X45258Y69134D02*
X52835D01*
X39018Y75373D02*
X45258Y69134D01*
X39018Y75373D02*
Y147873D01*
X41518Y80873D02*
Y151373D01*
X51258Y79134D02*
X52835D01*
X44018Y86373D02*
X51258Y79134D01*
X44018Y86373D02*
Y153373D01*
X31518Y63873D02*
Y135373D01*
X40758Y49134D02*
X52835D01*
X29018Y60873D02*
X40758Y49134D01*
X29018Y60873D02*
Y131873D01*
X26518Y58373D02*
Y129873D01*
X29518Y156873D02*
X40518D01*
X17018Y137373D02*
Y139873D01*
X40518Y156873D02*
X44018Y153373D01*
X23018Y143873D02*
X31518Y135373D01*
X21518Y139373D02*
X29018Y131873D01*
X21018Y139373D02*
X21518D01*
X21018Y135373D02*
X26518Y129873D01*
X19018Y135373D02*
X21018D01*
X17018Y137373D02*
X19018Y135373D01*
X25518Y147373D02*
X34018Y138873D01*
X28018Y151373D02*
X36518Y142873D01*
X8268Y129374D02*
X9019D01*
X35018Y151873D02*
Y153873D01*
Y151873D02*
X39018Y147873D01*
X39518Y153373D02*
X41518Y151373D01*
X55018Y107373D02*
Y114373D01*
Y106873D02*
Y107373D01*
X52835Y116557D02*
X55018Y114373D01*
X52835Y116557D02*
Y121732D01*
X46518Y117373D02*
X51018Y112873D01*
X24018Y55873D02*
Y123373D01*
X18018Y129373D02*
X24018Y123373D01*
X28018Y26873D02*
X34018D01*
X22018Y32873D02*
X28018Y26873D01*
X13267Y32873D02*
X22018D01*
X36018Y38873D02*
X44018D01*
X21518Y53373D02*
X36018Y38873D01*
X13767Y53373D02*
X21518D01*
X30018Y29873D02*
X36518D01*
X22018Y37873D02*
X30018Y29873D01*
X18018Y37873D02*
X22018D01*
X32018Y32873D02*
X39018D01*
X22018Y42873D02*
X32018Y32873D01*
X13267Y42873D02*
X22018D01*
X24018Y20873D02*
X29018D01*
X22018Y22873D02*
X24018Y20873D01*
X13267Y22873D02*
X22018D01*
X26018Y23873D02*
X31518D01*
X22018Y27873D02*
X26018Y23873D01*
X18018Y27873D02*
X22018D01*
X8268Y27874D02*
X13267Y32873D01*
X34018Y35873D02*
X41518D01*
X22018Y47873D02*
X34018Y35873D01*
X18018Y47873D02*
X22018D01*
X8268Y37874D02*
X13267Y42873D01*
X8268Y47874D02*
X13767Y53373D01*
X8268Y17874D02*
X13267Y22873D01*
D13*
X52835Y59134D02*
D03*
Y49134D02*
D03*
Y39134D02*
D03*
Y69134D02*
D03*
Y79134D02*
D03*
X62585Y79133D02*
D03*
Y69133D02*
D03*
Y39133D02*
D03*
Y49133D02*
D03*
Y59133D02*
D03*
X52835Y141732D02*
D03*
Y131732D02*
D03*
Y121732D02*
D03*
Y151732D02*
D03*
Y161732D02*
D03*
X62585Y161732D02*
D03*
Y151732D02*
D03*
Y121732D02*
D03*
Y131732D02*
D03*
Y141732D02*
D03*
X18018Y27873D02*
D03*
Y17873D02*
D03*
Y7873D02*
D03*
Y37873D02*
D03*
Y47873D02*
D03*
X8268Y47874D02*
D03*
Y37874D02*
D03*
Y7874D02*
D03*
Y17874D02*
D03*
Y27874D02*
D03*
X18018Y109373D02*
D03*
Y99373D02*
D03*
Y89373D02*
D03*
Y119373D02*
D03*
Y129373D02*
D03*
X8268Y129374D02*
D03*
Y119374D02*
D03*
Y89374D02*
D03*
Y99374D02*
D03*
Y109374D02*
D03*
D14*
X21654Y154331D02*
D03*
X45276Y159055D02*
D03*
X33071Y165748D02*
D03*
X11417Y144488D02*
D03*
X3543Y124409D02*
D03*
Y104331D02*
D03*
X12205Y70079D02*
D03*
X20866Y83858D02*
D03*
X3543Y58661D02*
D03*
X20472Y57087D02*
D03*
X3543Y42913D02*
D03*
Y22835D02*
D03*
X22441Y3543D02*
D03*
X52362Y18110D02*
D03*
X37795Y3543D02*
D03*
X40157Y24016D02*
D03*
X48425Y33858D02*
D03*
X27559Y11811D02*
D03*
X65354Y30709D02*
D03*
X67716Y44094D02*
D03*
Y64173D02*
D03*
Y96457D02*
D03*
X67323Y127165D02*
D03*
Y146457D02*
D03*
X61811Y108661D02*
D03*
X53543Y85433D02*
D03*
X45518Y37373D02*
D03*
X28018Y16373D02*
D03*
X17018Y139873D02*
D03*
X23018Y143873D02*
D03*
X21018Y139373D02*
D03*
X25518Y147373D02*
D03*
X28018Y151373D02*
D03*
X35018Y153873D02*
D03*
X39518Y153373D02*
D03*
X55018Y107373D02*
D03*
X51018Y112873D02*
D03*
X43018Y34373D02*
D03*
X40518Y31373D02*
D03*
X38018Y28373D02*
D03*
X35518Y25373D02*
D03*
X33018Y22373D02*
D03*
X30518Y19373D02*
D03*
M02*
