G04*
G04 #@! TF.GenerationSoftware,Altium Limited,Altium Designer,19.1.9 (167)*
G04*
G04 Layer_Color=65535*
%FSLAX25Y25*%
%MOIN*%
G70*
G01*
G75*
%ADD10C,0.00800*%
G36*
X45943Y36814D02*
X46071Y36789D01*
X46326Y36687D01*
X46479Y36610D01*
X46607Y36483D01*
X46632Y36457D01*
X46658Y36432D01*
X46709Y36355D01*
X46785Y36253D01*
X46913Y35972D01*
X46938Y35819D01*
X46964Y35641D01*
Y35615D01*
Y35564D01*
X46938Y35462D01*
X46913Y35335D01*
X46811Y35054D01*
X46734Y34901D01*
X46607Y34748D01*
X46581Y34722D01*
X46556Y34697D01*
X46479Y34646D01*
X46377Y34569D01*
X46122Y34442D01*
X45943Y34416D01*
X45765Y34391D01*
X45688D01*
X45586Y34416D01*
X45459Y34442D01*
X45153Y34544D01*
X45025Y34620D01*
X44872Y34748D01*
X44846Y34773D01*
X44821Y34824D01*
X44770Y34901D01*
X44693Y35003D01*
X44566Y35284D01*
X44540Y35462D01*
X44515Y35641D01*
Y35666D01*
Y35717D01*
X44540Y35819D01*
X44566Y35921D01*
X44668Y36202D01*
X44744Y36355D01*
X44872Y36483D01*
X44897Y36508D01*
X44948Y36534D01*
X45025Y36585D01*
X45127Y36661D01*
X45408Y36789D01*
X45561Y36814D01*
X45765Y36840D01*
X45841D01*
X45943Y36814D01*
D02*
G37*
G36*
X38775Y28855D02*
X38877Y28830D01*
X39005Y28779D01*
X39158Y28728D01*
X39311Y28626D01*
X39438Y28498D01*
X39464Y28473D01*
X39489Y28447D01*
X39540Y28370D01*
X39617Y28268D01*
X39744Y27988D01*
X39770Y27809D01*
X39795Y27631D01*
Y27605D01*
Y27554D01*
X39770Y27452D01*
X39744Y27350D01*
X39642Y27069D01*
X39566Y26916D01*
X39438Y26789D01*
X39413Y26763D01*
X39387Y26738D01*
X39311Y26687D01*
X39209Y26610D01*
X38928Y26483D01*
X38775Y26457D01*
X38596Y26432D01*
X38520D01*
X38443Y26457D01*
X38341D01*
X38112Y26534D01*
X37857Y26661D01*
X37806Y26712D01*
X37704Y26814D01*
X37551Y26993D01*
X37448Y27222D01*
X33010D01*
X31811Y26049D01*
X31836Y26024D01*
X31862Y25973D01*
X31887Y25870D01*
X31938Y25743D01*
X31964Y25717D01*
X31989Y25641D01*
X32015Y25513D01*
Y25386D01*
Y25360D01*
Y25309D01*
X31989Y25207D01*
X31964Y25105D01*
X31913Y24952D01*
X31862Y24825D01*
X31760Y24671D01*
X31632Y24518D01*
X31607Y24493D01*
X31581Y24467D01*
X31505Y24416D01*
X31403Y24340D01*
X31122Y24212D01*
X30943Y24187D01*
X30765Y24161D01*
X30688D01*
X30586Y24187D01*
X30484Y24212D01*
X30204Y24314D01*
X30051Y24391D01*
X29923Y24518D01*
X29897Y24544D01*
X29872Y24595D01*
X29821Y24671D01*
X29744Y24773D01*
X29617Y25054D01*
X29591Y25207D01*
X29566Y25386D01*
Y25411D01*
Y25462D01*
X29591Y25564D01*
X29617Y25692D01*
X29719Y25973D01*
X29796Y26125D01*
X29923Y26253D01*
X29948Y26279D01*
X30000Y26304D01*
X30051Y26355D01*
X30153Y26432D01*
X30433Y26559D01*
X30586Y26585D01*
X30765Y26610D01*
X30841D01*
X30969Y26585D01*
X31045D01*
X31173Y26534D01*
Y26559D01*
X32678Y28039D01*
X37448D01*
Y28064D01*
X37474Y28115D01*
X37551Y28294D01*
X37576Y28319D01*
X37602Y28370D01*
X37704Y28523D01*
X37729Y28549D01*
X37831Y28626D01*
X37959Y28702D01*
X38112Y28779D01*
X38137Y28804D01*
X38239Y28830D01*
X38392Y28855D01*
X38596Y28881D01*
X38673D01*
X38775Y28855D01*
D02*
G37*
G36*
X43265Y26559D02*
X43443Y26508D01*
X43494Y26483D01*
X43571Y26457D01*
X43724Y26355D01*
X43852Y26228D01*
X43877Y26202D01*
X43953Y26125D01*
X44030Y25998D01*
X44107Y25845D01*
X44132Y25819D01*
X44158Y25717D01*
X44183Y25564D01*
X44209Y25386D01*
Y25360D01*
Y25309D01*
X44183Y25207D01*
X44158Y25080D01*
X44056Y24799D01*
X43979Y24646D01*
X43852Y24493D01*
X43826Y24467D01*
X43801Y24442D01*
X43724Y24391D01*
X43622Y24314D01*
X43341Y24187D01*
X43163Y24161D01*
X42984Y24136D01*
X42908D01*
X42831Y24161D01*
X42755D01*
X42500Y24238D01*
X42270Y24365D01*
X42219Y24416D01*
X42091Y24544D01*
X41964Y24723D01*
X41836Y24978D01*
X35586D01*
Y24952D01*
X35561Y24927D01*
X35484Y24773D01*
X35331Y24569D01*
X35127Y24391D01*
X35102D01*
X35076Y24365D01*
X34923Y24289D01*
X34693Y24187D01*
X34413Y24161D01*
X34336D01*
X34234Y24187D01*
X34107Y24212D01*
X33826Y24314D01*
X33698Y24391D01*
X33545Y24518D01*
X33520Y24544D01*
X33494Y24595D01*
X33443Y24671D01*
X33392Y24773D01*
X33265Y25054D01*
X33239Y25207D01*
X33214Y25386D01*
Y25411D01*
Y25462D01*
X33239Y25564D01*
X33265Y25692D01*
X33367Y25973D01*
X33443Y26125D01*
X33545Y26253D01*
X33571Y26279D01*
X33622Y26304D01*
X33698Y26355D01*
X33801Y26432D01*
X34056Y26559D01*
X34234Y26585D01*
X34413Y26610D01*
X34566D01*
X34668Y26585D01*
X34898Y26508D01*
X35127Y26381D01*
X35153D01*
X35178Y26330D01*
X35306Y26228D01*
X35459Y26049D01*
X35586Y25819D01*
Y25794D01*
X41836D01*
Y25819D01*
X41862Y25845D01*
X41938Y25998D01*
X42066Y26202D01*
X42270Y26381D01*
X42295D01*
X42321Y26406D01*
X42474Y26508D01*
X42704Y26585D01*
X42984Y26610D01*
X43137D01*
X43265Y26559D01*
D02*
G37*
G36*
X40841Y33268D02*
X42652D01*
X44846Y31075D01*
X45765Y31967D01*
X51249Y26483D01*
X51275D01*
X51326Y26508D01*
X51479Y26559D01*
X51504D01*
X51556Y26585D01*
X51657Y26610D01*
X51862D01*
X51964Y26585D01*
X52066Y26559D01*
X52346Y26457D01*
X52499Y26381D01*
X52627Y26253D01*
X52652Y26228D01*
X52678Y26202D01*
X52729Y26125D01*
X52806Y26024D01*
X52933Y25743D01*
X52959Y25564D01*
X52984Y25386D01*
Y25360D01*
Y25309D01*
X52959Y25207D01*
X52933Y25080D01*
X52831Y24799D01*
X52754Y24671D01*
X52627Y24518D01*
X52601Y24493D01*
X52576Y24467D01*
X52499Y24416D01*
X52397Y24340D01*
X52117Y24212D01*
X51964Y24187D01*
X51785Y24161D01*
X51709D01*
X51607Y24187D01*
X51479Y24212D01*
X51198Y24314D01*
X51045Y24391D01*
X50892Y24518D01*
X50867Y24544D01*
X50841Y24595D01*
X50790Y24671D01*
X50714Y24773D01*
X50586Y25029D01*
X50561Y25207D01*
X50535Y25386D01*
Y25411D01*
Y25488D01*
X50561Y25666D01*
Y25692D01*
X50586Y25768D01*
X50637Y25845D01*
X50688Y25921D01*
X45765Y30819D01*
X44846Y29926D01*
X42321Y32452D01*
X40510D01*
X38571Y34365D01*
X33979Y29748D01*
X32117D01*
X25586Y23217D01*
X53188D01*
Y23243D01*
X53214Y23319D01*
X53316Y23472D01*
X53341Y23498D01*
X53367Y23549D01*
X53469Y23677D01*
X53494Y23702D01*
X53596Y23753D01*
X53698Y23830D01*
X53851Y23906D01*
X53877Y23932D01*
X53979Y23957D01*
X54132Y23983D01*
X54362D01*
X54464Y23957D01*
X54591Y23932D01*
X54872Y23830D01*
X55025Y23753D01*
X55152Y23626D01*
X55178Y23600D01*
X55203Y23574D01*
X55254Y23498D01*
X55331Y23396D01*
X55458Y23115D01*
X55484Y22937D01*
X55510Y22758D01*
Y22707D01*
Y22605D01*
X55484Y22478D01*
X55433Y22299D01*
X55408Y22274D01*
X55382Y22172D01*
X55305Y22070D01*
X55203Y21942D01*
X55178Y21916D01*
X55101Y21840D01*
X54974Y21738D01*
X54821Y21661D01*
X54795D01*
X54693Y21636D01*
X54540Y21610D01*
X54336Y21585D01*
X54260D01*
X54183Y21610D01*
X54106D01*
X53851Y21687D01*
X53622Y21814D01*
X53571Y21865D01*
X53469Y21967D01*
X53316Y22172D01*
X53214Y22401D01*
X23622D01*
X24311Y23090D01*
X31760Y30539D01*
X33622D01*
X38571Y35513D01*
X40841Y33268D01*
D02*
G37*
G36*
X38750Y32503D02*
X38877Y32478D01*
X39158Y32375D01*
X39311Y32299D01*
X39438Y32171D01*
X39464Y32146D01*
X39489Y32120D01*
X39540Y32044D01*
X39617Y31942D01*
X39744Y31661D01*
X39770Y31483D01*
X39795Y31304D01*
Y31279D01*
Y31202D01*
X39744Y31023D01*
Y30998D01*
X39719Y30947D01*
X39668Y30768D01*
X41938Y28498D01*
X46122D01*
Y25819D01*
X46964D01*
Y25845D01*
X46989Y25870D01*
X47066Y26024D01*
X47193Y26202D01*
X47397Y26381D01*
X47423D01*
X47448Y26406D01*
X47601Y26508D01*
X47831Y26585D01*
X48112Y26610D01*
X48265D01*
X48418Y26559D01*
X48596Y26508D01*
X48647Y26483D01*
X48724Y26457D01*
X48851Y26381D01*
X48979Y26279D01*
X49005Y26253D01*
X49081Y26151D01*
X49158Y25998D01*
X49234Y25845D01*
X49260Y25819D01*
X49285Y25717D01*
X49311Y25564D01*
X49336Y25386D01*
Y25360D01*
Y25309D01*
X49311Y25207D01*
X49285Y25080D01*
X49183Y24799D01*
X49106Y24671D01*
X48979Y24518D01*
X48954Y24493D01*
X48928Y24467D01*
X48851Y24416D01*
X48749Y24340D01*
X48469Y24212D01*
X48290Y24187D01*
X48112Y24161D01*
X48035D01*
X47984Y24187D01*
X47882D01*
X47653Y24263D01*
X47397Y24391D01*
X47346Y24442D01*
X47219Y24544D01*
X47091Y24748D01*
X46964Y24978D01*
X45331D01*
Y27682D01*
X41607D01*
X39107Y30207D01*
X39081D01*
X39030Y30156D01*
X38954Y30131D01*
X38851Y30105D01*
X38775D01*
X38673Y30080D01*
X38520D01*
X38418Y30105D01*
X38265Y30131D01*
X38086Y30182D01*
X38061Y30207D01*
X37959Y30258D01*
X37831Y30335D01*
X37704Y30437D01*
X37678Y30462D01*
X37627Y30539D01*
X37525Y30666D01*
X37448Y30819D01*
X37423Y30870D01*
X37397Y30972D01*
X37372Y31126D01*
X37346Y31304D01*
Y31330D01*
Y31381D01*
X37372Y31483D01*
X37397Y31610D01*
X37499Y31891D01*
X37576Y32044D01*
X37704Y32171D01*
X37729Y32197D01*
X37780Y32222D01*
X37857Y32274D01*
X37959Y32350D01*
X38214Y32478D01*
X38392Y32503D01*
X38571Y32529D01*
X38647D01*
X38750Y32503D01*
D02*
G37*
G36*
X40255Y20615D02*
X39489Y19825D01*
X39107Y20207D01*
X38086Y21253D01*
X40918D01*
X40255Y20615D01*
D02*
G37*
G36*
X39974Y18039D02*
X39030D01*
X36301Y20717D01*
X34464D01*
X33954Y21253D01*
X36938D01*
X37117Y21075D01*
X37346Y20820D01*
X37602Y20590D01*
X37831Y20335D01*
X38086Y20105D01*
X38545Y19646D01*
X39362Y18830D01*
X39642D01*
X40255Y19467D01*
X40841Y20029D01*
X41989Y21177D01*
X42040Y21253D01*
X43188D01*
X39974Y18039D01*
D02*
G37*
G36*
X45765Y17427D02*
X44846Y18294D01*
X41300Y14774D01*
X39489D01*
X38775Y14085D01*
X38571Y13855D01*
X34974Y17503D01*
X33112D01*
X29336Y21253D01*
X30510D01*
X33469Y18294D01*
X35306D01*
X38571Y15029D01*
X38673Y15131D01*
X38928Y15360D01*
X39158Y15590D01*
X40969D01*
X44846Y19467D01*
X45765Y18549D01*
X48443Y21253D01*
X49591D01*
X45765Y17427D01*
D02*
G37*
G36*
Y19697D02*
X44846Y20615D01*
X41989Y17733D01*
X40637Y16432D01*
X38316D01*
X35637Y19110D01*
X33775D01*
X31632Y21253D01*
X32780D01*
X34132Y19927D01*
X35994D01*
X38673Y17223D01*
X40306D01*
X41989Y18906D01*
X42551Y19467D01*
X44285Y21177D01*
X44362Y21253D01*
X47321D01*
X45765Y19697D01*
D02*
G37*
G36*
Y15131D02*
X44846Y16024D01*
X41989Y13167D01*
X40152D01*
X38571Y11585D01*
X34285Y15845D01*
X32423D01*
X27066Y21253D01*
X28188D01*
X32780Y16687D01*
X34642D01*
X38571Y12733D01*
X39362Y13498D01*
X39591Y13728D01*
X39821Y13983D01*
X41632D01*
X44846Y17172D01*
X45765Y16253D01*
X50739Y21253D01*
X51887D01*
X45765Y15131D01*
D02*
G37*
G36*
X32117Y15054D02*
X33979D01*
X38571Y10462D01*
X40510Y12350D01*
X42321D01*
X44846Y14876D01*
X45765Y13983D01*
X52806Y21023D01*
X53010Y20845D01*
X53086Y20794D01*
X53112Y20768D01*
X53265Y20692D01*
X53392Y20641D01*
X53469Y20615D01*
X53494Y20590D01*
X45765Y12809D01*
X44846Y13728D01*
X42652Y11559D01*
X40841D01*
X38571Y9314D01*
X33622Y14238D01*
X31760D01*
X24770Y21253D01*
X25892D01*
X32117Y15054D01*
D02*
G37*
%LPC*%
G36*
X45765Y36023D02*
X45739D01*
X45637Y35998D01*
X45535Y35972D01*
X45433Y35896D01*
X45408Y35870D01*
X45382Y35819D01*
X45357Y35743D01*
X45331Y35641D01*
Y35615D01*
X45357Y35513D01*
X45382Y35411D01*
X45433Y35309D01*
X45459Y35284D01*
X45535Y35258D01*
X45637Y35233D01*
X45765Y35207D01*
X45790D01*
X45867Y35233D01*
X45943Y35258D01*
X46020Y35309D01*
X46045Y35335D01*
X46096Y35411D01*
X46122Y35513D01*
X46147Y35641D01*
Y35666D01*
X46122Y35743D01*
X46096Y35819D01*
X46020Y35896D01*
X45994Y35921D01*
X45943Y35972D01*
X45867Y35998D01*
X45765Y36023D01*
D02*
G37*
G36*
X38571Y28064D02*
X38520D01*
X38418Y28013D01*
X38367Y27988D01*
X38290Y27937D01*
X38265Y27911D01*
X38188Y27809D01*
Y27758D01*
X38163Y27707D01*
Y27631D01*
Y27605D01*
X38188Y27529D01*
X38214Y27452D01*
X38290Y27350D01*
X38316Y27325D01*
X38367Y27299D01*
X38469Y27248D01*
X38571Y27222D01*
X38622D01*
X38724Y27273D01*
X38750D01*
X38775Y27299D01*
X38877Y27376D01*
X38903Y27401D01*
X38954Y27478D01*
Y27503D01*
X38979Y27529D01*
X39005Y27631D01*
Y27656D01*
Y27707D01*
X38979Y27758D01*
X38954Y27809D01*
Y27835D01*
X38928Y27860D01*
X38877Y27937D01*
X38826Y27962D01*
X38724Y28013D01*
X38699Y28039D01*
X38571Y28064D01*
D02*
G37*
G36*
X30765Y25819D02*
X30739D01*
X30663Y25794D01*
X30586Y25768D01*
X30484Y25692D01*
X30459Y25666D01*
X30433Y25615D01*
X30382Y25513D01*
X30357Y25386D01*
Y25360D01*
X30382Y25284D01*
X30408Y25182D01*
X30484Y25080D01*
X30510Y25054D01*
X30561Y25029D01*
X30663Y25003D01*
X30765Y24978D01*
X30816D01*
X30943Y25003D01*
X30969D01*
X30994Y25029D01*
X31071Y25105D01*
X31097Y25131D01*
X31148Y25233D01*
Y25258D01*
X31173Y25284D01*
X31198Y25386D01*
Y25411D01*
Y25437D01*
X31148Y25539D01*
Y25564D01*
X31122Y25590D01*
X31071Y25666D01*
X31045Y25692D01*
X30943Y25768D01*
X30892Y25794D01*
X30765Y25819D01*
D02*
G37*
G36*
X42984D02*
X42959D01*
X42882Y25794D01*
X42806Y25768D01*
X42704Y25692D01*
X42678Y25666D01*
X42652Y25615D01*
X42601Y25513D01*
X42576Y25386D01*
Y25335D01*
X42601Y25233D01*
X42627Y25182D01*
X42678Y25105D01*
X42704Y25054D01*
X42806Y25003D01*
X42857D01*
X42984Y24978D01*
X43010D01*
X43086Y25003D01*
X43163Y25029D01*
X43265Y25080D01*
X43290Y25105D01*
X43341Y25156D01*
X43367Y25258D01*
X43392Y25386D01*
Y25411D01*
Y25437D01*
X43367Y25539D01*
Y25564D01*
X43341Y25590D01*
X43265Y25666D01*
X43239Y25692D01*
X43137Y25768D01*
X43086Y25794D01*
X42984Y25819D01*
D02*
G37*
G36*
X34413D02*
X34387D01*
X34311Y25794D01*
X34234Y25768D01*
X34132Y25692D01*
X34107Y25666D01*
X34081Y25615D01*
X34056Y25513D01*
X34030Y25386D01*
Y25360D01*
X34056Y25284D01*
X34081Y25182D01*
X34132Y25080D01*
X34158Y25054D01*
X34209Y25029D01*
X34311Y25003D01*
X34413Y24978D01*
X34438D01*
X34515Y25003D01*
X34617Y25029D01*
X34693Y25080D01*
X34719Y25105D01*
X34770Y25156D01*
X34795Y25258D01*
X34821Y25386D01*
Y25411D01*
X34795Y25488D01*
X34770Y25590D01*
X34693Y25692D01*
X34668Y25717D01*
X34617Y25768D01*
X34540Y25794D01*
X34413Y25819D01*
D02*
G37*
G36*
X51760D02*
X51734D01*
X51657Y25794D01*
X51556Y25768D01*
X51454Y25692D01*
X51428Y25666D01*
X51402Y25615D01*
X51377Y25513D01*
X51351Y25386D01*
Y25360D01*
X51377Y25284D01*
X51402Y25182D01*
X51454Y25080D01*
X51479Y25054D01*
X51530Y25029D01*
X51632Y25003D01*
X51760Y24978D01*
X51785D01*
X51862Y25003D01*
X51964Y25029D01*
X52066Y25080D01*
X52091Y25105D01*
X52142Y25156D01*
X52168Y25258D01*
X52193Y25386D01*
Y25411D01*
X52168Y25488D01*
X52142Y25590D01*
X52066Y25692D01*
X52040Y25717D01*
X51989Y25768D01*
X51887Y25794D01*
X51760Y25819D01*
D02*
G37*
G36*
X54336Y23217D02*
X54311D01*
X54234Y23192D01*
X54158Y23166D01*
X54056Y23090D01*
X54030Y23064D01*
X54005Y23013D01*
X53953Y22937D01*
X53928Y22835D01*
Y22809D01*
X53953Y22707D01*
X53979Y22605D01*
X54056Y22503D01*
X54081Y22478D01*
X54132Y22452D01*
X54234Y22427D01*
X54336Y22401D01*
X54387D01*
X54489Y22427D01*
X54515D01*
X54540Y22452D01*
X54642Y22529D01*
X54668Y22554D01*
X54719Y22631D01*
Y22656D01*
X54744Y22682D01*
X54770Y22835D01*
Y22860D01*
Y22886D01*
X54719Y22962D01*
Y22988D01*
X54693Y23013D01*
X54642Y23090D01*
X54591Y23115D01*
X54489Y23166D01*
X54438Y23192D01*
X54336Y23217D01*
D02*
G37*
G36*
X38571Y31712D02*
X38545D01*
X38469Y31687D01*
X38392Y31661D01*
X38290Y31585D01*
X38265Y31559D01*
X38239Y31508D01*
X38188Y31406D01*
X38163Y31304D01*
Y31253D01*
X38188Y31126D01*
X38214Y31075D01*
X38290Y30998D01*
X38316Y30972D01*
X38418Y30921D01*
X38469D01*
X38571Y30896D01*
X38622D01*
X38724Y30921D01*
X38750D01*
X38775Y30947D01*
X38877Y30998D01*
X38903Y31023D01*
X38954Y31126D01*
Y31151D01*
X38979Y31176D01*
X39005Y31304D01*
Y31330D01*
Y31355D01*
X38954Y31457D01*
Y31483D01*
X38928Y31508D01*
X38877Y31585D01*
X38826Y31610D01*
X38724Y31661D01*
X38673Y31687D01*
X38571Y31712D01*
D02*
G37*
G36*
X48086Y25794D02*
X48035D01*
X47933Y25743D01*
X47908Y25717D01*
X47831Y25666D01*
X47806Y25641D01*
X47754Y25539D01*
Y25513D01*
X47729Y25386D01*
Y25360D01*
X47754Y25284D01*
X47780Y25182D01*
X47831Y25080D01*
X47857Y25054D01*
X47908Y25029D01*
X47984Y25003D01*
X48112Y24978D01*
X48163D01*
X48265Y25003D01*
X48290D01*
X48316Y25029D01*
X48418Y25105D01*
X48443Y25131D01*
X48469Y25233D01*
Y25258D01*
X48494Y25284D01*
X48520Y25386D01*
Y25411D01*
X48494Y25488D01*
X48469Y25564D01*
X48392Y25666D01*
X48367Y25692D01*
X48316Y25743D01*
X48214Y25768D01*
X48086Y25794D01*
D02*
G37*
%LPD*%
D10*
X29526Y78227D02*
Y75603D01*
X31494D01*
Y76915D01*
Y75603D01*
X33462D01*
X30838Y79539D02*
X32806D01*
X33462Y80195D01*
Y82163D01*
X34118D01*
X34774Y81507D01*
Y80851D01*
X33462Y82163D02*
X30838D01*
X33462Y83475D02*
Y85443D01*
X32806Y86098D01*
X32150Y85443D01*
Y84131D01*
X31494Y83475D01*
X30838Y84131D01*
Y86098D01*
X33462Y89378D02*
Y88066D01*
X32806Y87410D01*
X31494D01*
X30838Y88066D01*
Y89378D01*
X31494Y90034D01*
X32150D01*
Y87410D01*
X30182Y92002D02*
X30838D01*
Y91346D01*
Y92658D01*
Y92002D01*
X32806D01*
X33462Y92658D01*
X30838Y97250D02*
Y95282D01*
X31494Y94626D01*
X32806D01*
X33462Y95282D01*
Y97250D01*
X30182Y105121D02*
X29526Y104465D01*
Y103153D01*
X30182Y102497D01*
X30838D01*
X31494Y103153D01*
Y104465D01*
X32150Y105121D01*
X32806D01*
X33462Y104465D01*
Y103153D01*
X32806Y102497D01*
X29526Y109057D02*
X30182Y107745D01*
X31494Y106433D01*
X32806D01*
X33462Y107089D01*
Y108401D01*
X32806Y109057D01*
X32150D01*
X31494Y108401D01*
Y106433D01*
X37481Y75603D02*
X41417D01*
Y77571D01*
X40761Y78227D01*
X40105D01*
X39449Y77571D01*
Y75603D01*
Y77571D01*
X38793Y78227D01*
X38137D01*
X37481Y77571D01*
Y75603D01*
Y79539D02*
Y82163D01*
Y80851D01*
X41417D01*
X37481Y83475D02*
Y86098D01*
Y84786D01*
X41417D01*
X37481Y93970D02*
Y91346D01*
X41417D01*
Y93970D01*
X39449Y91346D02*
Y92658D01*
X37481Y95282D02*
X41417Y97906D01*
X37481D02*
X41417Y95282D01*
Y99218D02*
X37481D01*
Y101186D01*
X38137Y101841D01*
X39449D01*
X40105Y101186D01*
Y99218D01*
X39449Y103153D02*
Y105777D01*
X41417Y107089D02*
X37481D01*
X38793Y108401D01*
X37481Y109713D01*
X41417D01*
X37481Y112993D02*
Y111681D01*
X38137Y111025D01*
X40761D01*
X41417Y111681D01*
Y112993D01*
X40761Y113649D01*
X38137D01*
X37481Y112993D01*
Y114961D02*
Y117584D01*
Y116272D01*
X41417D01*
X37481Y122832D02*
X41417D01*
Y124800D01*
X40761Y125456D01*
X40105D01*
X39449Y124800D01*
Y122832D01*
Y124800D01*
X38793Y125456D01*
X38137D01*
X37481Y124800D01*
Y122832D01*
X38793Y126768D02*
X41417D01*
X40105D01*
X39449Y127424D01*
X38793Y128080D01*
Y128736D01*
X41417Y130703D02*
Y132015D01*
Y131360D01*
X38793D01*
Y130703D01*
X37481Y136607D02*
X41417D01*
Y134639D01*
X40761Y133983D01*
X39449D01*
X38793Y134639D01*
Y136607D01*
X42729Y139231D02*
Y139887D01*
X42073Y140543D01*
X38793D01*
Y138575D01*
X39449Y137919D01*
X40761D01*
X41417Y138575D01*
Y140543D01*
Y143823D02*
Y142511D01*
X40761Y141855D01*
X39449D01*
X38793Y142511D01*
Y143823D01*
X39449Y144479D01*
X40105D01*
Y141855D01*
X41417Y149726D02*
X37481D01*
Y151694D01*
X38137Y152350D01*
X39449D01*
X40105Y151694D01*
Y149726D01*
Y151038D02*
X41417Y152350D01*
Y155630D02*
Y154318D01*
X40761Y153662D01*
X39449D01*
X38793Y154318D01*
Y155630D01*
X39449Y156286D01*
X40105D01*
Y153662D01*
X38793Y157598D02*
X41417Y158910D01*
X38793Y160222D01*
X41417Y161533D02*
Y162845D01*
Y162189D01*
X37481D01*
X38137Y161533D01*
X51181Y98425D02*
Y102361D01*
X52493Y101049D01*
X53805Y102361D01*
Y98425D01*
X57085Y102361D02*
X55773D01*
X55117Y101705D01*
Y99081D01*
X55773Y98425D01*
X57085D01*
X57741Y99081D01*
Y101705D01*
X57085Y102361D01*
X59053D02*
X61676D01*
X60365D01*
Y98425D01*
X8529Y70209D02*
X7873Y70865D01*
X6561D01*
X5906Y70209D01*
Y69553D01*
X6561Y68897D01*
X7873D01*
X8529Y68241D01*
Y67585D01*
X7873Y66929D01*
X6561D01*
X5906Y67585D01*
X12465Y70865D02*
X11153Y70209D01*
X9841Y68897D01*
Y67585D01*
X10497Y66929D01*
X11809D01*
X12465Y67585D01*
Y68241D01*
X11809Y68897D01*
X9841D01*
X53805Y90550D02*
X51181D01*
Y86614D01*
X53805D01*
X51181Y88582D02*
X52493D01*
X55117Y90550D02*
X57741Y86614D01*
Y90550D02*
X55117Y86614D01*
X59053D02*
Y90550D01*
X61020D01*
X61676Y89894D01*
Y88582D01*
X61020Y87926D01*
X59053D01*
X62988Y86614D02*
X64300D01*
X63644D01*
Y90550D01*
X62988Y89894D01*
X53805Y114172D02*
X51181D01*
Y110236D01*
X53805D01*
X51181Y112204D02*
X52493D01*
X55117Y114172D02*
X57741Y110236D01*
Y114172D02*
X55117Y110236D01*
X59053D02*
Y114172D01*
X61020D01*
X61676Y113516D01*
Y112204D01*
X61020Y111548D01*
X59053D01*
X65612Y110236D02*
X62988D01*
X65612Y112860D01*
Y113516D01*
X64956Y114172D01*
X63644D01*
X62988Y113516D01*
X8529Y59054D02*
X5906D01*
Y55118D01*
X8529D01*
X5906Y57086D02*
X7217D01*
X9841Y59054D02*
X12465Y55118D01*
Y59054D02*
X9841Y55118D01*
X13777D02*
Y59054D01*
X15745D01*
X16401Y58398D01*
Y57086D01*
X15745Y56430D01*
X13777D01*
X20336Y55118D02*
X17713D01*
X20336Y57742D01*
Y58398D01*
X19681Y59054D01*
X18369D01*
X17713Y58398D01*
X8529Y82676D02*
X5906D01*
Y78740D01*
X8529D01*
X5906Y80708D02*
X7217D01*
X9841Y82676D02*
X12465Y78740D01*
Y82676D02*
X9841Y78740D01*
X13777D02*
Y82676D01*
X15745D01*
X16401Y82020D01*
Y80708D01*
X15745Y80052D01*
X13777D01*
X17713Y78740D02*
X19025D01*
X18369D01*
Y82676D01*
X17713Y82020D01*
M02*
