G04 #@! TF.GenerationSoftware,KiCad,Pcbnew,6.0.7-f9a2dced07~116~ubuntu22.04.1*
G04 #@! TF.CreationDate,2022-08-21T20:53:51+02:00*
G04 #@! TF.ProjectId,carabiner-distributor,63617261-6269-46e6-9572-2d6469737472,rev?*
G04 #@! TF.SameCoordinates,Original*
G04 #@! TF.FileFunction,Copper,L2,Bot*
G04 #@! TF.FilePolarity,Positive*
%FSLAX46Y46*%
G04 Gerber Fmt 4.6, Leading zero omitted, Abs format (unit mm)*
G04 Created by KiCad (PCBNEW 6.0.7-f9a2dced07~116~ubuntu22.04.1) date 2022-08-21 20:53:51*
%MOMM*%
%LPD*%
G01*
G04 APERTURE LIST*
G04 Aperture macros list*
%AMRoundRect*
0 Rectangle with rounded corners*
0 $1 Rounding radius*
0 $2 $3 $4 $5 $6 $7 $8 $9 X,Y pos of 4 corners*
0 Add a 4 corners polygon primitive as box body*
4,1,4,$2,$3,$4,$5,$6,$7,$8,$9,$2,$3,0*
0 Add four circle primitives for the rounded corners*
1,1,$1+$1,$2,$3*
1,1,$1+$1,$4,$5*
1,1,$1+$1,$6,$7*
1,1,$1+$1,$8,$9*
0 Add four rect primitives between the rounded corners*
20,1,$1+$1,$2,$3,$4,$5,0*
20,1,$1+$1,$4,$5,$6,$7,0*
20,1,$1+$1,$6,$7,$8,$9,0*
20,1,$1+$1,$8,$9,$2,$3,0*%
G04 Aperture macros list end*
G04 #@! TA.AperFunction,ComponentPad*
%ADD10RoundRect,0.250001X-0.499999X-0.499999X0.499999X-0.499999X0.499999X0.499999X-0.499999X0.499999X0*%
G04 #@! TD*
G04 #@! TA.AperFunction,ComponentPad*
%ADD11C,1.500000*%
G04 #@! TD*
G04 #@! TA.AperFunction,ComponentPad*
%ADD12C,3.410000*%
G04 #@! TD*
G04 #@! TA.AperFunction,ComponentPad*
%ADD13RoundRect,0.250001X-0.759999X0.499999X-0.759999X-0.499999X0.759999X-0.499999X0.759999X0.499999X0*%
G04 #@! TD*
G04 #@! TA.AperFunction,ComponentPad*
%ADD14O,2.020000X1.500000*%
G04 #@! TD*
G04 #@! TA.AperFunction,ComponentPad*
%ADD15RoundRect,0.250000X-0.725000X0.600000X-0.725000X-0.600000X0.725000X-0.600000X0.725000X0.600000X0*%
G04 #@! TD*
G04 #@! TA.AperFunction,ComponentPad*
%ADD16O,1.950000X1.700000*%
G04 #@! TD*
G04 #@! TA.AperFunction,ComponentPad*
%ADD17RoundRect,0.250000X-0.600000X-0.750000X0.600000X-0.750000X0.600000X0.750000X-0.600000X0.750000X0*%
G04 #@! TD*
G04 #@! TA.AperFunction,ComponentPad*
%ADD18O,1.700000X2.000000*%
G04 #@! TD*
G04 #@! TA.AperFunction,ComponentPad*
%ADD19RoundRect,0.250000X-0.750000X0.600000X-0.750000X-0.600000X0.750000X-0.600000X0.750000X0.600000X0*%
G04 #@! TD*
G04 #@! TA.AperFunction,ComponentPad*
%ADD20O,2.000000X1.700000*%
G04 #@! TD*
G04 #@! TA.AperFunction,ComponentPad*
%ADD21C,5.600000*%
G04 #@! TD*
G04 #@! TA.AperFunction,SMDPad,CuDef*
%ADD22R,2.500000X2.500000*%
G04 #@! TD*
G04 #@! TA.AperFunction,ViaPad*
%ADD23C,0.800000*%
G04 #@! TD*
G04 #@! TA.AperFunction,Conductor*
%ADD24C,1.000000*%
G04 #@! TD*
G04 #@! TA.AperFunction,Conductor*
%ADD25C,0.500000*%
G04 #@! TD*
G04 #@! TA.AperFunction,Conductor*
%ADD26C,0.300000*%
G04 #@! TD*
G04 #@! TA.AperFunction,Conductor*
%ADD27C,2.500000*%
G04 #@! TD*
G04 APERTURE END LIST*
D10*
X80000000Y-30000000D03*
D11*
X83000000Y-30000000D03*
X86000000Y-30000000D03*
X89000000Y-30000000D03*
X92000000Y-30000000D03*
X95000000Y-30000000D03*
X98000000Y-30000000D03*
X101000000Y-30000000D03*
X80000000Y-33000000D03*
X83000000Y-33000000D03*
X86000000Y-33000000D03*
X89000000Y-33000000D03*
X92000000Y-33000000D03*
X95000000Y-33000000D03*
X98000000Y-33000000D03*
X101000000Y-33000000D03*
D12*
X77850000Y-25680000D03*
X103150000Y-25680000D03*
D13*
X90000000Y-41500000D03*
D14*
X90000000Y-44500000D03*
D15*
X101000000Y-41500000D03*
D16*
X101000000Y-44000000D03*
X101000000Y-46500000D03*
X101000000Y-49000000D03*
D17*
X80000000Y-52500000D03*
D18*
X82500000Y-52500000D03*
D19*
X90000000Y-41500000D03*
D20*
X90000000Y-44000000D03*
D21*
X110000000Y-31000000D03*
X70000000Y-31000000D03*
D19*
X70000000Y-40000000D03*
D20*
X70000000Y-42500000D03*
D10*
X80000000Y-30000000D03*
D11*
X83000000Y-30000000D03*
X86000000Y-30000000D03*
X89000000Y-30000000D03*
X92000000Y-30000000D03*
X95000000Y-30000000D03*
X98000000Y-30000000D03*
X101000000Y-30000000D03*
X80000000Y-33000000D03*
X83000000Y-33000000D03*
X86000000Y-33000000D03*
X89000000Y-33000000D03*
X92000000Y-33000000D03*
X95000000Y-33000000D03*
X98000000Y-33000000D03*
X101000000Y-33000000D03*
D17*
X90000000Y-52500000D03*
D18*
X92500000Y-52500000D03*
D13*
X70000000Y-40000000D03*
D14*
X70000000Y-43000000D03*
D17*
X70000000Y-52500000D03*
D18*
X72500000Y-52500000D03*
D10*
X70000000Y-40000000D03*
D11*
X70000000Y-43000000D03*
D10*
X80000000Y-30000000D03*
D11*
X83000000Y-30000000D03*
X86000000Y-30000000D03*
X89000000Y-30000000D03*
X92000000Y-30000000D03*
X95000000Y-30000000D03*
X98000000Y-30000000D03*
X101000000Y-30000000D03*
X80000000Y-33000000D03*
X83000000Y-33000000D03*
X86000000Y-33000000D03*
X89000000Y-33000000D03*
X92000000Y-33000000D03*
X95000000Y-33000000D03*
X98000000Y-33000000D03*
X101000000Y-33000000D03*
D19*
X80000000Y-41500000D03*
D20*
X80000000Y-44000000D03*
D15*
X110000000Y-39460000D03*
D16*
X110000000Y-41960000D03*
X110000000Y-44460000D03*
X110000000Y-46960000D03*
X110000000Y-49460000D03*
D22*
X104500000Y-54600000D03*
X100000000Y-54600000D03*
D23*
X102000000Y-52100000D03*
X97700000Y-54600000D03*
D24*
X84500000Y-31500000D02*
X83000000Y-30000000D01*
X76700000Y-52500000D02*
X79000000Y-50200000D01*
X79000000Y-50200000D02*
X81900000Y-50200000D01*
X81900000Y-50200000D02*
X84500000Y-47600000D01*
X72500000Y-52500000D02*
X76700000Y-52500000D01*
X84500000Y-47600000D02*
X84500000Y-31500000D01*
D25*
X86000000Y-30000000D02*
X87199511Y-31199511D01*
X87199511Y-31199511D02*
X87199511Y-47800489D01*
X87199511Y-47800489D02*
X82500000Y-52500000D01*
X93600000Y-42100000D02*
X93600000Y-31600000D01*
X93600000Y-31600000D02*
X92000000Y-30000000D01*
X101000000Y-49500000D02*
X93600000Y-42100000D01*
X96199511Y-34300489D02*
X96199511Y-31199511D01*
X101000000Y-46500000D02*
X98989270Y-46500000D01*
X97744635Y-45255365D02*
X94299520Y-41810250D01*
X96199511Y-31199511D02*
X95000000Y-30000000D01*
X94299520Y-41810250D02*
X94299520Y-36200480D01*
X94299520Y-36200480D02*
X96199511Y-34300489D01*
X98989270Y-46500000D02*
X97744635Y-45255365D01*
D26*
X102000000Y-52100000D02*
X104500000Y-54600000D01*
D27*
X80000000Y-34800000D02*
X80000000Y-33000000D01*
X74800000Y-40000000D02*
X80000000Y-34800000D01*
X70000000Y-40000000D02*
X74800000Y-40000000D01*
D26*
X97700000Y-54600000D02*
X100000000Y-54600000D01*
M02*
