M48
; DRILL file {KiCad 6.0.7-f9a2dced07~116~ubuntu22.04.1} date So 21 Aug 2022 20:53:54
; FORMAT={-:-/ absolute / inch / decimal}
; #@! TF.CreationDate,2022-08-21T20:53:54+02:00
; #@! TF.GenerationSoftware,Kicad,Pcbnew,6.0.7-f9a2dced07~116~ubuntu22.04.1
; #@! TF.FileFunction,Plated,1,2,PTH
FMAT,2
INCH
; #@! TA.AperFunction,Plated,PTH,ViaDrill
T1C0.0157
; #@! TA.AperFunction,Plated,PTH,ComponentDrill
T2C0.0374
; #@! TA.AperFunction,Plated,PTH,ComponentDrill
T3C0.0394
; #@! TA.AperFunction,Plated,PTH,ComponentDrill
T4C0.0402
; #@! TA.AperFunction,Plated,PTH,ComponentDrill
T5C0.0949
; #@! TA.AperFunction,Plated,PTH,ComponentDrill
T6C0.1260
%
G90
G05
T1
X3.8465Y-2.1496
X4.0157Y-2.0512
T2
X3.9764Y-1.6339
X3.9764Y-1.7323
X3.9764Y-1.8307
X3.9764Y-1.9291
X4.3307Y-1.5535
X4.3307Y-1.652
X4.3307Y-1.7504
X4.3307Y-1.8488
X4.3307Y-1.9472
T3
X2.7559Y-1.5748
X2.7559Y-1.5748
X2.7559Y-1.6732
X2.7559Y-1.6929
X2.7559Y-2.0669
X2.8543Y-2.0669
X3.1496Y-1.1811
X3.1496Y-1.2992
X3.1496Y-1.6339
X3.1496Y-1.7323
X3.1496Y-2.0669
X3.248Y-2.0669
X3.2677Y-1.1811
X3.2677Y-1.2992
X3.3858Y-1.1811
X3.3858Y-1.2992
X3.5039Y-1.1811
X3.5039Y-1.2992
X3.5433Y-1.6339
X3.5433Y-1.7323
X3.5433Y-2.0669
X3.622Y-1.1811
X3.622Y-1.2992
X3.6417Y-2.0669
X3.7402Y-1.1811
X3.7402Y-1.2992
X3.8583Y-1.1811
X3.8583Y-1.2992
X3.9764Y-1.1811
X3.9764Y-1.2992
T4
X2.7559Y-1.5748
X2.7559Y-1.6929
X3.1496Y-1.1811
X3.1496Y-1.1811
X3.1496Y-1.2992
X3.1496Y-1.2992
X3.2677Y-1.1811
X3.2677Y-1.1811
X3.2677Y-1.2992
X3.2677Y-1.2992
X3.3858Y-1.1811
X3.3858Y-1.1811
X3.3858Y-1.2992
X3.3858Y-1.2992
X3.5039Y-1.1811
X3.5039Y-1.1811
X3.5039Y-1.2992
X3.5039Y-1.2992
X3.5433Y-1.6339
X3.5433Y-1.752
X3.622Y-1.1811
X3.622Y-1.1811
X3.622Y-1.2992
X3.622Y-1.2992
X3.7402Y-1.1811
X3.7402Y-1.1811
X3.7402Y-1.2992
X3.7402Y-1.2992
X3.8583Y-1.1811
X3.8583Y-1.1811
X3.8583Y-1.2992
X3.8583Y-1.2992
X3.9764Y-1.1811
X3.9764Y-1.1811
X3.9764Y-1.2992
X3.9764Y-1.2992
T5
X3.065Y-1.011
X4.061Y-1.011
T6
X2.7559Y-1.2205
X4.3307Y-1.2205
T0
M30
